<?xml version="1.0" encoding="UTF-8" standalone="no"?>
<!-- Created with Inkscape (http://www.inkscape.org/) -->

<svg
   width="293.22995mm"
   height="277.43805mm"
   viewBox="0 0 293.22995 277.43805"
   version="1.1"
   id="svg1"
   xml:space="preserve"
   xmlns="http://www.w3.org/2000/svg"
   xmlns:svg="http://www.w3.org/2000/svg"><defs
     id="defs1" /><g
     id="layer1"
     transform="translate(884.02901,215.42939)"><path
       d="m -722.43774,61.816743 c -5.2817,-0.56363 -13.34702,-1.801881 -18.62569,-2.859552 -5.04377,-1.010604 -17.20589,-4.571171 -21.59097,-6.320943 -1.06715,-0.425824 -3.21028,-1.205263 -4.7625,-1.732085 -6.62203,-2.247511 -24.38434,-10.801074 -41.62778,-20.046142 -14.78871,-7.928971 -16.84237,-9.201077 -26.01504,-16.114634 l -5.38218,-4.056621 -12.18944,-12.099981 c -6.70419,-6.654989 -12.91293,-13.05248 -13.7972,-14.216647 -4.77522,-6.286701 -9.62429,-15.083968 -12.7961,-23.214903 -3.67051,-9.409318 -4.81905,-15.2872 -4.80422,-24.586489 0.0174,-10.9318 1.55372,-16.90512 8.66487,-33.690279 3.72638,-8.795757 7.94222,-16.085967 13.73283,-23.747437 1.9527,-2.58359 3.94724,-5.29714 4.43231,-6.0301 0.48507,-0.73296 1.48014,-2.03224 2.21128,-2.88728 0.73113,-0.85505 2.47738,-3.00908 3.88055,-4.78674 6.17945,-7.82867 13.54722,-16.24428 18.60262,-21.24829 18.72704,-18.5367 25.59914,-24.71872 31.61051,-28.43627 0.62749,-0.38805 2.70152,-1.75579 4.60894,-3.03941 1.90743,-1.28361 7.03993,-4.12033 11.40555,-6.30382 4.36563,-2.18348 8.75673,-4.42418 9.75802,-4.97933 4.56931,-2.5334 11.27729,-5.71763 15.13349,-7.18376 1.17554,-0.44694 3.08054,-1.24712 4.23334,-1.77816 7.19838,-3.31603 12.03994,-5.3204 14.97238,-6.19845 4.12595,-1.23543 9.68399,-1.92075 13.1165,-1.61729 3.22235,0.28488 8.8744,1.68232 10.82116,2.67549 0.80856,0.41249 2.69866,0.90503 4.20024,1.09454 3.25175,0.41038 8.18259,1.60343 9.52824,2.30541 0.52966,0.27631 1.20645,0.50336 1.50398,0.50455 0.85241,0.003 10.48553,2.43312 13.21737,3.33372 1.35819,0.44776 3.73944,1.17169 5.29167,1.60875 9.25636,2.60628 19.59298,6.35881 26.9875,9.79734 1.06715,0.49623 3.36903,1.55209 5.11528,2.34633 6.82209,3.1029 11.30802,5.94326 17.81528,11.28012 1.06715,0.87521 3.4468,2.74915 5.28811,4.1643 6.78014,5.21092 14.84824,14.39597 19.9232,22.68134 0.95077,1.55222 2.71797,4.34648 3.92712,6.20946 2.664,4.10452 5.48242,9.58125 6.48006,12.59198 1.03034,3.10942 2.67403,10.26467 3.17712,13.83051 0.23268,1.64923 0.80047,4.58611 1.26176,6.52639 0.46129,1.94027 1.17392,5.43277 1.58363,7.76111 l 0.74493,4.23333 -0.0115,5.820834 c -0.007,3.304897 -0.25778,7.650606 -0.58124,10.054168 -0.31333,2.328333 -0.78646,6.376458 -1.0514,8.995833 -1.0897,10.773811 -3.17451,19.837728 -7.44822,32.381886 -0.68029,1.996773 -1.18622,3.893594 -1.12429,4.215158 0.0784,0.406886 0.48762,0.590188 1.34598,0.602837 l 1.23339,0.01818 v 1.04513 1.04513 l -1.23472,0.314453 c -2.20445,0.561418 -3.175,1.02276 -3.175,1.509205 0,0.262311 -0.30967,1.155864 -0.68815,1.985673 -0.37849,0.829808 -1.10962,2.619993 -1.62475,3.978187 -1.01747,2.68273 -9.03992,18.902355 -10.90554,22.048612 -1.90765,3.21716 -6.29046,10.480273 -7.41907,12.294771 -0.58208,0.935834 -1.772,2.640164 -2.64426,3.7874 -0.87226,1.147237 -1.90413,2.516783 -2.29305,3.043435 -3.82434,5.178679 -7.8614,9.714481 -14.79856,16.626779 -7.95843,7.929906 -10.85438,10.552992 -15.79864,14.310033 -3.03752,2.308152 -9.05921,6.307813 -11.56131,7.679131 -1.06715,0.58487 -2.72542,1.564162 -3.68504,2.176205 -0.95962,0.612043 -1.88529,1.112805 -2.05706,1.112805 -0.17176,0 -1.40416,0.547973 -2.73867,1.217718 -5.47169,2.746047 -12.13208,4.954993 -20.27062,6.722837 l -5.99723,1.302707 -7.23194,0.11159 c -3.97757,0.0614 -8.42257,-0.0155 -9.87778,-0.17075 z m 12.87639,-2.491591 c 8.90214,-0.831484 18.04829,-3.223598 26.9875,-7.058398 2.99678,-1.285579 8.87741,-4.329058 10.28502,-5.32294 0.51502,-0.363646 1.02549,-0.661174 1.13439,-0.661174 0.38281,0 6.42672,-4.058265 9.17767,-6.162473 1.52999,-1.170293 3.19686,-2.435745 3.70417,-2.812116 4.3345,-3.215788 22.97098,-22.014313 22.97098,-23.170715 0,-0.170639 -1.72277,-0.310252 -3.82838,-0.310252 h -3.82837 l -3.49177,0.851037 c -6.38551,1.556322 -5.18295,1.347515 -10.93462,1.898633 l -3.5623,0.341335 -3.46208,1.717692 -3.46208,1.717692 -2.01475,-0.01161 -2.01475,-0.0116 -1.36782,-0.954387 c -0.75229,-0.524913 -1.70888,-1.203041 -2.12575,-1.506953 l -0.75794,-0.552566 -2.6982,0.783996 -2.6982,0.783996 -2.13559,-0.397153 c -2.58171,-0.480121 -3.9223,-1.441151 -5.78169,-4.144733 -0.76902,-1.118164 -1.66618,-2.200468 -1.99369,-2.405122 l -0.59548,-0.372098 -6.12164,6.246199 c -4.19455,4.279893 -6.36178,6.246198 -6.88445,6.246198 -1.049,0 -2.47986,-0.693685 -2.71961,-1.318478 -0.22637,-0.589898 1.40526,-2.667516 5.75227,-7.324577 1.62998,-1.74625 3.11575,-3.505952 3.3017,-3.910447 0.18595,-0.404496 0.82819,-1.024956 1.4272,-1.378801 0.59901,-0.353846 1.68475,-1.181477 2.41275,-1.83918 1.57036,-1.418727 3.18811,-1.963194 4.96953,-1.672539 l 1.29956,0.212037 2.33188,3.513799 c 1.67959,2.530902 2.67368,3.676795 3.55381,4.096501 l 1.22194,0.582703 2.81011,-0.948565 c 1.54556,-0.521711 3.46096,-0.948565 4.25646,-0.948565 h 1.44635 l 1.2971,1.445532 c 0.71341,0.795042 1.5823,1.598327 1.93087,1.785079 l 0.63376,0.339548 2.19794,-1.229157 c 2.65542,-1.484994 6.05709,-2.701809 7.68574,-2.74927 1.71901,-0.05009 7.99469,-0.937843 12.30852,-1.741146 2.03729,-0.379375 5.29167,-0.77057 7.23195,-0.869321 1.94027,-0.09875 4.71734,-0.467543 6.17126,-0.819537 l 2.64349,-0.639988 1.86391,-2.435176 c 1.79214,-2.341413 2.77031,-3.878161 7.38829,-11.607397 2.46315,-4.122638 6.80388,-11.974389 6.80388,-12.307226 0,-0.126393 1.33512,-2.965223 2.96694,-6.308513 2.82492,-5.787751 5.14695,-11.18315 5.14695,-11.9593 0,-0.378252 -2.66553,-0.146912 -4.93889,0.428643 -2.74599,0.695216 -7.34162,0.984782 -10.7698,0.678596 -6.51342,-0.581746 -10.91533,-1.061423 -12.68992,-1.382825 -0.97014,-0.175706 -3.58952,-0.58311 -5.82084,-0.905344 -2.23132,-0.322233 -5.08731,-0.837865 -6.34664,-1.145847 l -2.28971,-0.559967 -5.57165,0.06653 -5.57165,0.06653 -2.54559,0.680478 c -1.40008,0.374263 -3.65684,0.78096 -5.01504,0.903772 -1.35819,0.122812 -3.89819,0.634473 -5.64444,1.137025 l -3.175,0.91373 -6.35,0.251196 -6.35,0.251196 -2.64584,0.774765 c -1.8507,0.541931 -4.18308,0.854057 -7.76111,1.038613 -2.8134,0.145116 -5.46203,0.451084 -5.88583,0.679928 -0.94478,0.510156 -3.0975,0.541993 -3.9997,0.05915 -1.03529,-0.55407 -1.39925,-2.580381 -1.40139,-7.802072 -0.001,-3.454965 -0.1497,-5.16119 -0.52705,-6.064305 l -0.52508,-1.256694 0.55259,-0.552588 c 0.30393,-0.303924 0.87267,-0.723891 1.26388,-0.933261 0.45822,-0.245229 0.64925,-0.617951 0.5369,-1.047555 -0.0959,-0.366785 -0.0307,-1.266005 0.14504,-1.998267 0.17568,-0.732262 0.32105,-3.192874 0.32304,-5.468029 0.002,-2.275154 0.15112,-4.524646 0.33142,-4.998871 0.1803,-0.474226 0.35983,-2.025861 0.39896,-3.44808 0.0391,-1.422218 0.28665,-3.202952 0.55006,-3.957187 0.33575,-0.9614 0.45221,-2.859616 0.38957,-6.35 -0.0523,-2.912218 0.0933,-5.93042 0.35062,-7.27172 0.24198,-1.26118 0.68836,-4.356805 0.99194,-6.879166 0.30359,-2.522362 0.69731,-5.062362 0.87494,-5.644446 0.56418,-1.848773 1.04985,-8.839114 1.39709,-20.108334 0.18534,-6.01487 0.59202,-13.55548 0.90375,-16.75694 0.37335,-3.83432 0.59898,-10.21523 0.66114,-18.69722 0.0519,-7.08202 0.26738,-14.78139 0.47886,-17.10974 0.21148,-2.32833 0.48511,-7.16515 0.60808,-10.7485 0.12296,-3.58334 0.29121,-6.62462 0.37389,-6.75839 0.0827,-0.13377 0.24338,-1.88507 0.35712,-3.89178 0.11374,-2.0067 0.36495,-5.63292 0.55825,-8.05827 0.1933,-2.42535 0.37775,-5.09126 0.40988,-5.92426 l 0.0584,-1.51453 -2.99861,-0.99533 c -3.82952,-1.27114 -7.13627,-2.02061 -11.04159,-2.50257 -1.70725,-0.21069 -3.4535,-0.52183 -3.88056,-0.69141 -0.42705,-0.16959 -2.58229,-0.48706 -4.78942,-0.7055 -4.33849,-0.42939 -6.89477,-1.33411 -6.52107,-2.30795 l 0.20257,-0.52789 h -1.46903 c -0.80796,0 -2.13463,0.1518 -2.94816,0.33734 -0.81352,0.18553 -2.76647,0.58271 -4.33989,0.88262 -2.66264,0.50753 -6.79117,2.11757 -15.00814,5.85288 -1.67874,0.76312 -4.29811,1.87531 -5.82084,2.47153 -1.52272,0.59621 -4.8581,2.10576 -7.41195,3.35455 -2.55385,1.24879 -4.80815,2.27053 -5.00955,2.27053 -0.20141,0 -0.49314,0.19844 -0.64831,0.44097 -0.15516,0.24253 -1.71086,1.13328 -3.45711,1.97943 -1.74625,0.84615 -5.92631,3.10834 -9.28903,5.02708 -3.36272,1.91875 -6.26708,3.48863 -6.45413,3.48863 -0.34912,0 -2.89138,1.71059 -8.7749,5.90428 -5.83637,4.1601 -6.44843,4.648 -10.2033,8.13359 -2.0223,1.87727 -4.2448,3.83321 -4.93889,4.34652 -0.69409,0.51332 -3.32039,2.93074 -5.83623,5.37205 l -4.57426,4.43874 0.82334,1.11362 0.82333,1.11362 -0.48241,0.30561 c -0.52189,0.33062 -1.18631,0.43372 -2.15811,0.33486 -0.37089,-0.0377 -0.61736,0.17707 -0.61736,0.53806 v 0.60086 l 5.02709,-0.28147 c 2.76489,-0.1548 8.28145,-0.33204 12.25902,-0.39387 3.97757,-0.0618 10.01007,-0.28232 13.40556,-0.48998 3.39549,-0.20766 7.12611,-0.43267 8.29028,-0.50004 1.16417,-0.0674 3.34537,-0.23952 4.84712,-0.38257 1.90517,-0.18148 2.87987,-0.13608 3.22482,0.15019 0.5949,0.49373 0.94574,2.4725 0.56911,3.20982 -0.14866,0.29104 -0.37591,2.26581 -0.50499,4.38837 -0.12908,2.12256 -0.38041,4.98006 -0.55851,6.35 -0.1781,1.36994 -0.32872,3.55971 -0.33471,4.86616 -0.007,1.46636 -0.39841,3.82889 -1.02353,6.17362 -0.55694,2.08903 -1.18693,4.98887 -1.39998,6.44407 -0.81587,5.57286 -1.15952,8.42619 -1.48707,12.34723 -0.18639,2.23132 -0.47955,4.93007 -0.65147,5.99722 -0.17191,1.06715 -0.22645,3.25101 -0.1212,4.85303 l 0.19137,2.912744 -0.64529,0.713042 -0.6453,0.713043 -4.43435,-0.02961 c -17.53579,-0.117105 -24.1952,0.112261 -30.7163,1.057946 -1.26118,0.182895 -3.16618,0.420487 -4.23333,0.527982 -1.06716,0.107494 -2.73403,0.344355 -3.70417,0.526356 -5.45859,1.02405 -23.73846,1.498084 -27.18264,0.704901 -2.90661,-0.66938 -8.34153,-0.484547 -11.03844,0.375401 -1.2916,0.411844 -2.70014,0.920042 -3.13009,1.129328 l -0.78173,0.38052 -0.55614,-0.461558 c -0.73147,-0.607069 -0.91463,-0.359466 -2.21992,3.00104 -2.66165,6.852523 -5.12187,14.817846 -4.76704,15.434028 0.0838,0.145521 0.78825,0.264583 1.56544,0.264583 0.7772,0 2.1926,0.335334 3.14532,0.745186 1.93157,0.830937 1.91423,0.832084 8.45274,-0.558704 5.58068,-1.187053 6.89166,-1.050148 10.90791,1.139113 l 2.99829,1.634371 2.83648,-0.0056 c 5.22004,-0.01035 8.44477,-0.40839 15.53649,-1.91773 0.77611,-0.16518 2.40623,-0.307242 3.62249,-0.315692 1.53011,-0.01063 3.38503,-0.394778 6.02099,-1.246928 l 3.80961,-1.231564 3.58009,-0.183674 c 1.96905,-0.101021 3.98314,-0.336913 4.47576,-0.524205 0.49261,-0.187291 2.20462,-0.449493 3.80447,-0.582669 1.80731,-0.150446 3.54311,-0.535809 4.58385,-1.017658 2.76667,-1.280927 4.6204,-0.248124 3.26566,1.819462 -0.75354,1.150059 -2.30327,1.783686 -5.52786,2.260136 -1.42331,0.210302 -3.30222,0.598452 -4.17534,0.862555 -0.87313,0.264103 -3.57188,0.553957 -5.99722,0.644119 -3.10166,0.115303 -4.82831,0.345127 -5.82084,0.774777 -2.41415,1.045045 -5.047,1.585285 -7.72586,1.585285 -1.75334,0 -3.91688,0.351802 -6.77376,1.101445 l -4.1976,1.101446 -4.23333,0.168343 c -5.0687,0.201563 -9.34996,-0.489518 -11.79153,-1.903388 -0.88772,-0.51406 -2.22127,-1.24899 -2.96346,-1.633178 l -1.34943,-0.698524 -2.00196,0.455157 c -1.10108,0.250336 -2.90076,0.746045 -3.99929,1.101575 -1.09853,0.35553 -2.84478,0.744849 -3.88056,0.865154 l -1.88322,0.218736 -3.34632,-0.893226 c -1.84047,-0.491275 -3.41704,-0.8225 -3.50348,-0.736057 -0.32306,0.323064 -0.68427,3.960681 -0.70917,7.141807 -0.0674,8.614978 1.40779,16.738317 4.20728,23.167656 0.33794,0.776111 1.04839,2.522361 1.57877,3.880555 1.42625,3.652317 5.96612,12.22866 8.34966,15.77349 l 2.08451,3.100123 h 0.8285 c 0.45567,0 1.50341,-0.238125 2.32831,-0.529167 1.91143,-0.674393 4.60475,-0.679898 5.48882,-0.01122 1.05046,0.794527 1.73613,0.659271 4.58547,-0.904537 l 2.63272,-1.444923 1.84858,0.229346 c 1.01671,0.12614 2.56295,0.207511 3.43607,0.180826 4.34893,-0.132918 6.38465,-0.03335 8.64306,0.42273 1.80669,0.364859 4.221,0.455884 8.99583,0.339166 3.58952,-0.08774 7.53487,-0.173701 8.76744,-0.191017 l 2.24106,-0.03148 1.18083,1.406939 1.18083,1.406939 0.98784,-0.407215 c 0.54331,-0.223968 2.01593,-0.838214 3.27248,-1.364991 l 2.28464,-0.957776 1.59591,0.39129 c 0.87776,0.215209 2.80171,0.371309 4.27545,0.346888 l 2.67954,-0.0444 1.11282,0.657363 c 0.70273,0.415108 1.11283,0.938434 1.11283,1.420051 0,1.4548 -0.68018,1.613525 -6.06149,1.414475 l -5.05101,-0.186832 -2.72265,1.04544 c -1.49745,0.574992 -3.12992,1.04544 -3.6277,1.04544 -1.15269,0 -4.25529,-1.55908 -4.53067,-2.27669 -0.22045,-0.574486 -2.19208,-0.683237 -4.28842,-0.236542 l -1.05834,0.225513 -0.17639,1.228049 c -0.24645,1.715846 -1.15668,1.780912 -2.65716,0.189943 l -1.20857,-1.281458 -3.09422,-0.103218 c -1.70182,-0.05677 -4.52296,-0.322179 -6.26921,-0.589797 -1.74625,-0.267617 -3.88938,-0.45386 -4.7625,-0.413873 -0.87313,0.03999 -3.01625,0.114725 -4.7625,0.166083 l -3.175,0.09338 -1.65906,0.993911 c -2.16436,1.296629 -4.98523,1.61943 -7.09862,0.812319 -1.58126,-0.603888 -4.11229,-0.414402 -4.3592,0.326352 -0.10694,0.320799 13.99644,14.518428 22.32978,22.479001 l 3.56845,3.408835 1.19405,-0.388981 c 0.65672,-0.21394 1.59092,-0.589939 2.07599,-0.835555 0.48506,-0.245615 1.61308,-0.555692 2.5067,-0.689061 l 1.62475,-0.242488 0.9194,1.174776 0.9194,1.174776 1.03806,-0.613192 c 1.44649,-0.854464 3.43212,-0.765176 5.97663,0.268752 1.19377,0.485069 2.31522,0.881944 2.49211,0.881944 0.1769,0 1.10631,-0.705488 2.06536,-1.567751 l 1.74371,-1.567752 1.88294,0.01458 c 1.35627,0.01051 2.17136,0.226998 2.91409,0.774002 l 1.03116,0.759416 2.66512,-0.08024 c 1.46582,-0.04413 4.07097,-0.338595 5.78922,-0.654365 1.71825,-0.315771 3.36135,-0.483085 3.65133,-0.371808 0.83318,0.319721 0.61633,1.600757 -0.45177,2.668864 l -0.97902,0.979015 -2.98974,0.414446 c -1.64435,0.227945 -3.70411,0.570808 -4.57723,0.761917 l -1.5875,0.347472 -2.80541,-0.678226 -2.8054,-0.678226 -2.48194,1.249883 -2.48193,1.249884 -1.94461,-0.392729 c -1.06953,-0.216 -2.61472,-0.58608 -3.43377,-0.8224 l -1.48916,-0.429673 -1.25683,0.599341 c -1.69825,0.809839 -3.54489,0.754194 -5.00944,-0.150946 -0.82805,-0.511764 -1.3288,-0.635481 -1.57513,-0.389155 -0.24632,0.246325 0.23853,0.801989 1.52513,1.74787 2.98879,2.197285 9.09889,6.209721 11.41127,7.49365 1.16416,0.646394 3.94229,2.213365 6.17361,3.482158 4.47772,2.546161 21.51426,11.330395 29.85248,15.392276 9.34325,4.551472 13.93903,6.431445 23.64427,9.672049 10.74763,3.588658 16.73398,5.161744 23.76158,6.244043 7.29243,1.123085 11.65636,1.643558 15.875,1.893366 2.42534,0.143618 4.56847,0.285396 4.7625,0.315061 0.19403,0.02967 2.09903,-0.109167 4.23333,-0.308517 z M -853.1419,-44.170343 c -0.77612,-0.246096 -2.09174,-0.797356 -2.92361,-1.225022 l -1.5125,-0.777575 -3.42639,0.05897 -3.42639,0.05897 -2.45196,-0.950596 c -1.6225,-0.629026 -3.55929,-1.044026 -5.72538,-1.226788 l -3.27344,-0.276192 -1.41836,-0.982927 c -1.58872,-1.100987 -1.55309,-1.034389 -1.05317,-1.968496 0.40426,-0.75538 1.54541,-0.877373 3.00744,-0.321508 0.52202,0.198471 2.08017,0.409138 3.46255,0.46815 1.81397,0.07743 3.15156,0.386446 4.80648,1.110401 l 2.29306,1.003108 4.93889,0.210062 4.93889,0.210063 1.72054,0.788125 c 2.02751,0.928739 3.31546,0.983165 5.80071,0.245124 1.00567,-0.29865 2.66167,-0.530239 3.68,-0.514641 1.01834,0.0156 2.48653,0.03642 3.26264,0.04628 0.77611,0.0099 2.68111,-0.407329 4.23333,-0.927073 1.6344,-0.547259 4.30292,-1.086373 6.3403,-1.28091 1.93494,-0.184757 5.0705,-0.729441 6.96791,-1.21041 l 3.44984,-0.874489 3.79181,0.560968 c 2.0855,0.308532 4.88448,0.789871 6.21998,1.069642 3.21083,0.672635 6.55488,0.34827 8.0907,-0.784781 2.89287,-2.134217 5.52817,-2.602548 5.82998,-1.036074 0.21191,1.099871 -3.34791,4.170043 -6.12343,5.281158 l -2.45576,0.983111 -2.24157,-0.240051 c -1.23286,-0.132028 -2.7775,-0.463978 -3.43253,-0.737666 -0.65502,-0.273688 -1.69107,-0.497614 -2.30232,-0.497614 -0.61125,0 -2.42897,-0.271216 -4.03938,-0.602702 l -2.92801,-0.602701 -1.91199,0.602701 c -1.05159,0.331486 -2.37428,0.606244 -2.93931,0.610573 -1.49818,0.01148 -8.77716,1.245613 -9.31794,1.579834 -0.40949,0.253078 -5.61417,1.4474 -7.65443,1.756468 -0.42658,0.06462 -1.2997,-5e-4 -1.94028,-0.144711 -0.75674,-0.170363 -2.0914,-0.03726 -3.81051,0.38003 -3.06851,0.744828 -4.56441,0.781316 -6.52639,0.159196 z m 153.37109,8.434159 c 3.62735,-0.172442 4.82397,-0.363705 8.37752,-1.339031 l 2.64583,-0.726189 4.64895,0.05802 4.64894,0.05802 3.28856,-0.849452 c 1.8087,-0.467199 4.79668,-1.116046 6.63994,-1.441882 1.84327,-0.325836 4.54816,-0.889348 6.01088,-1.25225 1.73394,-0.43019 4.37357,-0.706609 7.58473,-0.794264 l 4.92523,-0.134444 5.29166,0.836192 c 8.69787,1.374442 11.90887,1.905962 13.58195,2.248239 0.87312,0.178622 2.46062,0.39354 3.52778,0.477595 1.06715,0.08405 3.94812,0.336742 6.40215,0.561526 3.20646,0.293708 4.84423,0.30253 5.82083,0.03135 0.74743,-0.207539 1.99396,-0.380577 2.77008,-0.384527 0.77611,-0.004 2.39897,-0.240109 3.60636,-0.524798 1.20739,-0.284689 2.685,-0.554934 3.28357,-0.600543 0.59856,-0.04561 1.21262,-0.246898 1.36457,-0.447308 0.272,-0.358751 3.7602,-11.000875 4.28216,-13.064382 0.14723,-0.582083 0.84402,-3.122083 1.54841,-5.644445 1.4629,-5.23851 2.67338,-11.881273 3.69639,-20.284723 2.06451,-16.95882 1.99294,-21.27997 -0.54925,-33.16111 -0.47743,-2.23132 -1.17293,-5.88257 -1.54554,-8.11389 -0.37262,-2.23132 -1.15733,-6.20007 -1.74379,-8.81944 l -1.06631,-4.7625 -2.44902,-5.00827 c -1.34697,-2.75455 -3.54607,-6.64392 -4.88691,-8.64306 -1.34084,-1.99913 -2.97236,-4.58728 -3.62559,-5.75145 -1.26141,-2.24803 -1.46142,-2.55401 -4.7271,-7.23195 -2.05914,-2.9496 -9.29646,-10.56412 -11.22664,-11.81175 l -0.9859,-0.63727 -0.95437,0.89257 c -1.41592,1.32423 -3.03439,2.03145 -4.64891,2.03145 h -1.43651 l -1.60544,-1.47984 -1.60545,-1.47984 -0.73682,0.46015 c -1.30167,0.81291 -4.57242,1.79398 -5.98087,1.79398 -1.89378,0 -3.59914,-0.78907 -5.83663,-2.70062 l -1.90876,-1.63071 -2.60649,0.19713 c -2.94372,0.22263 -5.72765,-0.35079 -7.28189,-1.49989 l -0.97505,-0.72088 -3.45462,0.22639 -3.45463,0.2264 -2.19068,-1.10586 c -2.64561,-1.3355 -3.36103,-1.3579 -7.14969,-0.22391 -1.62061,0.48507 -3.25196,0.88195 -3.62522,0.88195 -0.83492,0 -3.19504,-2.29273 -2.99143,-2.90601 0.0839,-0.25274 1.0509,-0.54668 2.23573,-0.67959 1.14832,-0.12882 2.96099,-0.5864 4.02814,-1.01685 4.00612,-1.61592 5.85392,-1.57809 7.76111,0.15891 0.48507,0.44178 1.38654,1.00187 2.00327,1.24464 l 1.12133,0.44139 1.93158,-0.56152 c 1.06237,-0.30884 2.60011,-0.56153 3.41721,-0.56153 h 1.48562 l 1.14749,1.25277 c 1.52649,1.66654 2.60835,1.90237 5.9243,1.29142 l 2.74331,-0.50544 1.13725,0.46414 c 0.62549,0.25527 1.95021,1.30468 2.94383,2.33201 1.10569,1.14321 2.10805,1.86788 2.58363,1.86788 0.42739,0 1.95933,-0.39687 3.40433,-0.88194 4.23029,-1.42007 6.8393,-1.12419 8.04211,0.912 0.72531,1.22785 0.84442,1.24038 2.68285,0.28214 l 1.43149,-0.74614 -0.43782,-0.52754 c -0.77443,-0.93313 -9.20496,-7.55709 -11.6396,-9.14536 -5.69121,-3.71275 -19.23669,-9.84555 -28.68745,-12.98842 -10.33059,-3.43545 -22.19125,-6.88431 -22.5276,-6.5506 -0.16643,0.16512 -0.38766,1.38642 -0.49163,2.71401 -0.10397,1.32759 -0.34176,2.5129 -0.52842,2.63403 -0.55616,0.36092 -0.96214,3.30367 -1.33237,9.65754 -0.1922,3.29847 -0.41998,6.3941 -0.50618,6.87917 -0.0862,0.48507 -0.25301,3.50132 -0.37068,6.70278 -0.22615,6.15316 -0.47049,9.50407 -0.72279,9.91229 -0.084,0.13591 -0.13329,4.58905 -0.10955,9.89588 0.063,14.08439 0.0403,14.88759 -0.5521,19.52633 -0.51461,4.02964 -1.01785,13.31944 -1.43331,26.45856 -0.25045,7.92081 -0.41379,9.852163 -1.22326,14.463881 -1.18449,6.748374 -1.89012,13.208404 -2.13862,19.579167 -0.13244,3.395487 -0.58578,8.608621 -1.00741,11.584744 -0.42163,2.976123 -0.67367,5.912998 -0.56009,6.526389 0.11359,0.613391 0.0164,3.417132 -0.21599,6.230535 -0.23239,2.813403 -0.40247,5.728199 -0.37797,6.477324 0.0287,0.87847 -0.2041,1.678168 -0.65582,2.252437 l -0.70038,0.89039 v 2.704091 c 0,3.334934 0.26737,3.67712 2.64583,3.386168 0.97014,-0.118675 3.15338,-0.281828 4.85165,-0.362564 z m 20.52241,-8.615287 -4.61205,-0.206404 -1.47336,-0.975028 c -1.58081,-1.046128 -1.98032,-2.309611 -0.82576,-2.611534 l 0.6476,-0.169353 -0.0267,-2.531648 c -0.0147,-1.392406 0.18837,-4.674773 0.45129,-7.294149 0.26293,-2.619375 0.51833,-5.953125 0.56756,-7.408333 0.0492,-1.455209 0.20217,-2.911794 0.33985,-3.236856 0.34868,-0.823237 2.53049,-1.113596 4.61788,-0.614555 2.42049,0.578677 26.12465,0.600519 28.5619,0.02632 1.16511,-0.274493 4.51827,-0.379206 9.87777,-0.308464 l 8.11389,0.107098 1.5875,0.842225 1.5875,0.842226 4.38126,0.26477 4.38125,0.264771 0.87404,0.652564 c 1.45493,1.086259 1.5303,1.894166 0.38798,4.158826 -0.56684,1.123766 -1.02957,2.611022 -1.03066,3.312595 -10e-4,0.700262 -0.15184,1.828828 -0.33502,2.507926 -0.18318,0.679097 -0.39366,3.060347 -0.46774,5.291667 -0.0891,2.683801 -0.30406,4.327589 -0.63511,4.856563 l -0.50044,0.799618 -3.175,-0.200434 c -1.74625,-0.110238 -4.445,-0.339775 -5.99722,-0.51008 -7.05612,-0.774179 -15.22127,-0.409785 -26.9875,1.204395 -6.88144,0.944047 -13.40368,1.244386 -20.31067,0.935275 z m 11.89128,-3.227662 c 2.45857,0.01735 4.90283,-0.132975 5.43169,-0.334049 0.52887,-0.201074 2.56839,-0.523244 4.53228,-0.715933 1.96388,-0.192689 5.07882,-0.602095 6.92208,-0.90979 l 3.35139,-0.559448 5.64445,0.222331 c 3.10444,0.122283 7.33561,0.402392 9.40259,0.622465 l 3.75815,0.400133 1.09255,-0.452547 1.09254,-0.452546 -0.004,-1.809285 c -0.002,-0.995106 0.2622,-3.593361 0.58767,-5.773901 l 0.59178,-3.964616 -0.40372,-0.886078 c -0.27876,-0.611817 -0.68447,-0.886079 -1.31075,-0.886079 -0.49887,0 -1.33571,-0.218699 -1.85965,-0.485998 -0.52394,-0.267299 -2.30199,-0.753151 -3.95123,-1.079671 -1.64924,-0.32652 -3.55424,-0.729635 -4.23333,-0.895811 -2.7013,-0.66101 -5.04773,-0.733118 -11.64167,-0.35776 -3.78354,0.215376 -8.78417,0.357499 -11.1125,0.315828 -7.38883,-0.132242 -16.51896,-0.267813 -18.33667,-0.272278 -0.97461,-0.0024 -1.87076,0.181182 -2.01373,0.412511 -0.14169,0.229254 -0.34912,1.291317 -0.46096,2.360141 -0.27438,2.622126 -0.87414,7.225243 -1.19901,9.202231 -0.25245,1.536362 -0.0212,5.39932 0.34514,5.765678 0.27516,0.275156 7.46429,0.841351 8.4295,0.663883 0.48146,-0.08852 2.88694,-0.146758 5.34551,-0.129411 z m 10.88883,-5.035326 c -1.46895,-0.752207 -3.48551,-1.391591 -5.61103,-1.779074 -1.82489,-0.332677 -3.57876,-0.744432 -3.89749,-0.91501 -0.31873,-0.170579 -2.08001,-0.350713 -3.91397,-0.400298 -4.29505,-0.116128 -5.39887,-0.4136 -5.93976,-1.60073 l -0.43024,-0.944273 0.51331,-0.513306 0.5133,-0.513306 4.91005,0.378762 c 2.70053,0.208319 5.33074,0.538705 5.8449,0.734191 0.51417,0.195485 2.40791,0.606224 4.20831,0.912751 1.8004,0.306529 4.08867,0.963956 5.08505,1.460949 l 1.81161,0.903625 1.53978,-0.374038 c 0.84689,-0.205721 2.73042,-0.795595 4.18563,-1.310831 l 2.64583,-0.936795 2.11667,0.207235 c 1.16416,0.11398 2.74089,0.06231 3.50383,-0.114824 0.85462,-0.198416 2.00583,-0.192069 2.99862,0.01653 0.88629,0.186225 2.16706,0.427685 2.84616,0.536577 l 1.23472,0.197985 1.5875,-1.081982 c 1.05314,-0.717782 2.0248,-1.084143 2.88664,-1.088402 l 1.29915,-0.0064 0.22478,0.708226 c 0.28207,0.888738 -0.88525,2.389276 -2.82752,3.634628 -1.67248,1.072374 -3.74897,1.267535 -6.47893,0.608927 l -1.89727,-0.45772 -1.90963,0.427356 c -1.05029,0.235046 -2.50939,0.326027 -3.24243,0.202181 -0.87123,-0.147194 -1.87413,-0.02436 -2.89588,0.354694 -2.16138,0.801828 -6.67142,1.924323 -7.73669,1.925568 -0.48507,5.67e-4 -1.91382,-0.527363 -3.175,-1.173176 z m 30.77067,-38.169048 -1.86128,-0.942242 -2.9423,0.583849 c -3.93067,0.779972 -5.56477,0.355551 -8.3624,-2.171947 l -1.40317,-1.267678 -3.42645,1.120075 c -3.25944,1.065479 -7.21187,1.529904 -8.13974,0.95645 -0.19671,-0.121577 -1.66067,-0.384432 -3.25325,-0.584124 -3.37154,-0.422755 -4.23369,-0.812275 -6.12798,-2.76861 -1.53438,-1.584634 -2.01985,-1.680994 -4.57058,-0.907203 -3.74061,1.134754 -5.96958,0.43681 -8.13704,-2.547902 -0.58702,-0.808361 -1.27774,-1.479451 -1.53493,-1.491301 -0.49736,-0.0229 -5.1339,2.557538 -6.11057,3.400836 -0.31952,0.275893 -1.43077,0.587897 -2.46944,0.693342 l -1.88849,0.191719 -0.97013,-0.768222 c -1.27094,-1.006416 -1.31716,-2.395411 -0.0882,-2.650569 0.48507,-0.100716 1.31851,-0.273346 1.85208,-0.383636 0.53358,-0.11029 2.20203,-0.92005 3.70767,-1.79947 3.33493,-1.94787 5.53423,-2.65383 7.35871,-2.36208 1.58194,0.25296 2.99325,1.51191 3.30962,2.95231 0.32491,1.47935 0.98566,1.871941 2.72709,1.620342 3.20019,-0.462362 5.93324,-0.635432 6.75949,-0.428052 0.47408,0.11898 1.70847,0.98088 2.74309,1.915324 l 1.88114,1.698991 3.52778,0.596398 c 4.08729,0.690989 5.54564,0.539507 8.36841,-0.869246 l 2.01841,-1.007324 h 2.1572 2.1572 l 1.90073,1.978197 1.90073,1.978197 1.50838,-0.21323 c 0.82961,-0.117277 2.80736,-0.312437 4.39501,-0.433688 l 2.88662,-0.220456 1.54628,0.748545 c 2.59891,1.258111 3.35682,1.063619 8.03848,-2.062823 4.06874,-2.71713 5.70062,-3.538631 7.02933,-3.538631 h 1.07239 v 0.632104 c 0,0.856088 -2.40594,3.137532 -5.82083,5.519635 -3.76931,2.629328 -5.61536,3.475502 -7.93751,3.638319 l -1.94027,0.136043 z m -52.20343,-32.002613 c -0.62595,-0.43656 -1.23363,-1.08388 -1.35041,-1.43849 -0.32109,-0.97507 0.59343,-6.67918 1.18069,-7.36422 0.58359,-0.68079 2.17711,-0.52468 3.52262,0.34507 0.94948,0.61376 0.98331,1.06884 0.20136,2.70861 -0.32582,0.68324 -0.4911,1.34355 -0.36729,1.46736 0.1238,0.12381 1.14444,-0.67445 2.26808,-1.77392 1.12364,-1.09946 2.8791,-2.40932 3.90102,-2.91081 l 1.85804,-0.9118 1.83735,0.17654 1.83735,0.17655 1.2435,1.39768 c 0.68393,0.76872 1.62639,1.60168 2.09436,1.85101 l 0.85085,0.45334 3.10867,-0.44559 c 3.97203,-0.56932 6.52258,-0.30149 9.8299,1.03226 2.61034,1.05267 4.45846,1.29867 5.80339,0.77246 0.37846,-0.14807 1.3588,-0.14392 2.17855,0.009 l 1.49044,0.27845 2.55926,-1.24552 c 1.4076,-0.68504 3.54683,-1.50454 4.75385,-1.82112 l 2.19458,-0.57559 1.70779,0.53036 c 1.23238,0.38272 1.93618,0.86926 2.52822,1.74779 0.45123,0.66958 1.03092,1.33523 1.2882,1.47921 0.25729,0.14398 2.03251,-0.2475 3.94495,-0.86996 l 3.47717,-1.13174 2.99861,-0.0113 c 1.99583,-0.007 3.35253,0.16727 4.05694,0.52264 l 1.05834,0.53392 v 1.05358 1.05358 l -2.46945,-0.11323 c -2.57782,-0.1182 -3.25493,0.003 -8.46667,1.51392 l -3.175,0.92054 -1.5875,-0.21797 c -1.94114,-0.26652 -2.97957,-0.8724 -4.58611,-2.67579 l -1.23472,-1.38602 -3.93641,1.956 -3.93642,1.95599 -2.58997,0.005 c -1.42449,0.003 -3.30435,0.0231 -4.17748,0.0451 -0.97417,0.0245 -3.15489,-0.47171 -5.64444,-1.28435 l -4.05695,-1.32428 -2.15734,0.39068 c -4.62592,0.83773 -7.19003,0.35117 -9.53365,-1.80911 l -1.56295,-1.44068 -1.48939,0.74384 c -0.81916,0.40911 -2.6789,1.83783 -4.13275,3.17494 -1.45385,1.3371 -2.99012,2.61523 -3.41392,2.84028 -1.18989,0.63187 -2.6547,0.48763 -3.90526,-0.38456 z m 34.37637,-27.02827 c -0.54511,-0.35942 -1.41824,-1.16048 -1.94028,-1.78013 l -0.94916,-1.12665 -3.41277,1.43095 -3.41277,1.43095 -1.2627,-0.16166 c -1.92142,-0.24601 -4.05621,-1.34483 -6.17002,-3.17585 -1.09933,-0.95227 -2.14821,-1.58744 -2.46944,-1.49543 -0.30713,0.088 -2.43295,0.73455 -4.72404,1.43684 -4.56806,1.40025 -5.89635,1.53243 -7.7243,0.76866 -2.51332,-1.05013 -6.96188,-5.88154 -6.50698,-7.06699 0.1426,-0.37162 0.69462,-0.53867 1.78008,-0.53867 1.66585,0 2.34013,0.43638 3.18597,2.0619 0.73674,1.41583 2.12668,2.5653 3.25123,2.68875 0.55342,0.0607 2.75274,-0.49399 4.88737,-1.23275 2.13463,-0.73876 4.38669,-1.44597 5.00458,-1.57156 1.87425,-0.38098 3.46039,0.30854 5.48868,2.38605 1.08808,1.11447 2.3243,2.02581 2.92734,2.15801 l 1.04388,0.22885 3.64085,-1.41935 c 2.10135,-0.81919 4.24128,-1.41934 5.06084,-1.41934 1.76286,0 3.30957,0.87974 3.8529,2.19146 0.50329,1.21504 0.92173,1.50987 1.48378,1.04545 0.66905,-0.55285 4.60306,-1.47303 6.29727,-1.47296 0.84512,3e-5 2.79014,0.23993 4.32227,0.53311 1.76329,0.33741 3.77016,0.46422 5.46805,0.34552 l 2.68237,-0.18754 1.73401,0.62456 c 0.9537,0.34351 1.90351,0.8994 2.11069,1.23531 l 0.37668,0.61074 -0.62384,0.62398 -0.62383,0.62398 -3.60352,0.14737 c -4.46579,0.18265 -6.17536,0.16319 -7.30769,-0.0832 -4.94819,-1.07652 -5.07763,-1.0745 -9.12118,0.14279 -2.78476,0.83833 -3.49653,0.84085 -4.74632,0.0168 z m -195.15333,51.434371 c 2.91041,-0.203591 9.57791,-0.84616 14.81666,-1.427931 l 9.525,-1.05776 10.75973,-0.0955 c 5.91784,-0.0525 11.11511,-0.22031 11.54948,-0.37287 0.43437,-0.15255 1.09169,-0.77526 1.4607,-1.38379 l 0.67094,-1.10643 0.25823,-4.7625 c 0.14203,-2.61938 0.28821,-5.55625 0.32486,-6.52639 0.0366,-0.97014 0.24897,-2.39889 0.47183,-3.175 0.22286,-0.77611 0.58402,-2.99861 0.80257,-4.93889 0.21855,-1.94028 0.78052,-5.01359 1.24882,-6.82959 0.4683,-1.816 0.85146,-3.91197 0.85146,-4.65771 0,-0.74574 0.15264,-1.72055 0.3392,-2.16624 0.30081,-0.71861 1.43093,-12.12095 1.42647,-14.39229 l -0.002,-0.88195 -8.20211,0.056 c -4.51116,0.0308 -12.56774,0.18952 -17.9035,0.35278 -12.7263,0.38937 -18.96899,0.34655 -20.35431,-0.13962 l -1.12792,-0.39583 -1.28867,1.47447 c -0.70876,0.81095 -2.20426,2.50634 -3.32333,3.76752 -1.11907,1.26118 -2.49223,2.84797 -3.05147,3.52619 -0.55924,0.67822 -2.48934,2.9801 -4.2891,5.11528 -5.43323,6.44579 -5.8612,6.96873 -6.91644,8.45125 -0.55909,0.78546 -1.43221,1.84079 -1.94028,2.34518 -0.50807,0.50439 -1.78943,2.17126 -2.84747,3.70417 -1.05804,1.5329 -2.36389,3.3042 -2.9019,3.93621 -2.97549,3.49536 -11.93134,18.72634 -11.93134,20.291309 v 0.528571 l 2.55764,0.246555 c 1.4067,0.135605 4.22452,0.237044 6.26181,0.22542 2.03729,-0.01162 4.97416,0.18434 6.52639,0.435476 3.02717,0.489769 7.74567,0.447306 16.22778,-0.14604 z"
       style="fill:#ddaabb;fill-opacity:1"
       id="path1-6" /></g></svg>
