<?xml version="1.0" encoding="UTF-8" standalone="no"?>
<!-- Created with Inkscape (http://www.inkscape.org/) -->

<svg
   width="470.03577mm"
   height="230.67209mm"
   viewBox="0 0 470.03575 230.67209"
   version="1.1"
   id="svg1"
   xml:space="preserve"
   sodipodi:docname="reverse_swiss_chees_model.svg"
   inkscape:export-filename="reverse_swiss_chees_model_1.svg"
   inkscape:export-xdpi="96"
   inkscape:export-ydpi="96"
   xmlns:inkscape="http://www.inkscape.org/namespaces/inkscape"
   xmlns:sodipodi="http://sodipodi.sourceforge.net/DTD/sodipodi-0.dtd"
   xmlns="http://www.w3.org/2000/svg"
   xmlns:svg="http://www.w3.org/2000/svg"><sodipodi:namedview
     id="namedview1"
     pagecolor="#ffffff"
     bordercolor="#000000"
     borderopacity="0.25"
     inkscape:showpageshadow="2"
     inkscape:pageopacity="0.0"
     inkscape:pagecheckerboard="0"
     inkscape:deskcolor="#d1d1d1"
     inkscape:document-units="mm" /><defs
     id="defs1" /><path
     style="fill:#ddaabb;fill-opacity:1;stroke-width:0.819894"
     d="m 353.24039,187.38081 c -0.51702,-0.31523 -0.94002,-0.64541 -0.94002,-0.73373 0,-0.0883 0.26752,-0.52243 0.5945,-0.9647 0.36983,-0.5002 0.75485,-1.78026 1.01873,-3.38686 0.24696,-1.50354 0.77646,-3.31239 1.26721,-4.3289 0.46365,-0.96038 1.07193,-2.58736 1.35175,-3.6155 0.27982,-1.02816 0.8087,-2.27213 1.17531,-2.76439 0.3666,-0.49226 0.66654,-0.98418 0.66654,-1.09315 0,-0.10896 1.12093,-2.50462 2.49094,-5.32365 1.37002,-2.81904 3.15254,-6.49218 3.96117,-8.16255 0.80863,-1.67036 2.21767,-4.29714 3.13122,-5.83727 0.91354,-1.54015 2.14525,-3.92752 2.73714,-5.30529 0.59187,-1.37777 1.25079,-2.57205 1.46424,-2.65395 0.21345,-0.0818 0.38809,-0.2776 0.38809,-0.43488 0,-0.15728 0.29285,-0.69653 0.65079,-1.19833 0.86315,-1.21008 1.27573,-4.57411 1.06972,-8.72188 -0.0396,-0.79541 0.009,-2.22715 0.10647,-3.18164 0.62469,-6.07862 1.14748,-20.94759 0.75866,-21.57672 -0.19071,-0.30858 -0.39604,-0.24502 -0.97962,0.30322 -0.40609,0.38149 -0.73833,0.90187 -0.73833,1.15638 0,0.2545 -1.94888,2.41196 -4.33083,4.79436 -2.38196,2.38239 -4.49081,4.72209 -4.68631,5.19933 -0.19553,0.47726 -1.10674,1.74569 -2.02493,2.81876 -0.91819,1.07307 -1.88304,2.27703 -2.1441,2.67547 -0.56128,0.85661 -1.40503,0.92155 -2.50965,0.19317 -1.06142,-0.6999 -1.62936,-1.51163 -1.44114,-2.05977 0.0842,-0.24528 0.70283,-1.03169 1.37465,-1.74756 0.67183,-0.71587 1.52351,-1.85476 1.89264,-2.53086 0.36911,-0.67609 0.75941,-1.22927 0.86732,-1.22927 0.10797,0 0.87371,-0.91111 1.70179,-2.02469 0.82806,-1.11357 1.66321,-2.02468 1.85587,-2.02468 0.36926,0 3.94911,-3.48114 3.94911,-3.84022 0,-0.11503 0.22778,-0.46785 0.50618,-0.78406 0.27839,-0.31621 0.83157,-0.98726 1.22926,-1.49121 0.39771,-0.50397 1.27628,-1.5032 1.95237,-2.22053 0.67611,-0.71732 1.22928,-1.45533 1.22928,-1.64001 0,-0.47553 1.2811,-1.62054 1.91768,-1.71397 0.54307,-0.0797 0.55445,-0.11781 1.25956,-4.218235 0.15046,-0.874951 0.41927,-2.371766 0.59735,-3.326262 0.41302,-2.213675 0.0639,-3.326263 -1.04377,-3.326263 -2.41669,0 -9.3172,-2.49212 -11.73574,-4.238365 -4.94662,-3.571584 -8.74065,-12.231197 -8.27036,-18.876534 0.26058,-3.682048 3.16453,-11.765243 5.9921,-16.679126 1.6354,-2.842075 3.16392,-4.726028 6.51071,-8.024677 4.87234,-4.802272 7.27701,-5.893239 13.61057,-6.174964 2.99738,-0.133323 4.10697,-0.0719 5.37901,0.297917 0.88145,0.256241 3.04484,0.66705 4.80754,0.912912 5.67846,0.792002 7.24806,1.596236 11.37894,5.830287 3.41542,3.500754 4.03839,4.53929 5.71167,9.521904 2.2785,6.784826 2.42818,10.225473 0.60284,13.857533 -1.50405,2.992755 -9.06844,11.45374 -13.2896,14.864805 -4.49962,3.636077 -11.77325,7.997991 -14.27708,8.561791 -1.47366,0.331828 -1.48674,0.344578 -1.50944,1.469899 -0.029,1.436809 -0.29631,3.365292 -0.89975,6.490851 -0.59103,3.061347 -0.42171,3.784577 1.14203,4.878217 1.38373,0.96774 4.65346,4.10876 7.41664,7.12468 1.01816,1.11129 2.20891,2.28498 2.6461,2.6082 0.43721,0.32321 1.31121,1.23432 1.94226,2.02468 0.63103,0.79037 2.60032,2.93384 4.37618,4.76329 1.77585,1.82945 3.30081,3.6051 3.38879,3.94591 0.23838,0.92347 -0.63618,2.41795 -1.41306,2.41467 -0.89933,-0.004 -3.54313,-1.57457 -4.17059,-2.47788 -1.71405,-2.4676 -5.36971,-6.78607 -8.1837,-9.66752 -1.78662,-1.82945 -3.90444,-4.07467 -4.70626,-4.98939 -0.80184,-0.91473 -1.62275,-1.66313 -1.82426,-1.66313 -0.20151,0 -0.42448,-0.1627 -0.4955,-0.36156 -0.43016,-1.20443 -0.65141,0.93806 -0.71932,6.96559 -0.0424,3.76511 -0.17259,7.69168 -0.28925,8.72572 -0.22714,2.01337 -0.22657,7.3004 8.3e-4,8.96646 0.076,0.55679 0.0434,2.96471 -0.0726,5.35096 -0.25127,5.16849 -0.30895,4.94981 3.71787,14.0947 1.45212,3.29779 3.08843,7.13744 3.63624,8.5326 0.5478,1.39514 1.34949,3.31757 1.78154,4.27206 0.43203,0.9545 1.26993,3.10211 1.86198,4.77247 1.4601,4.11937 2.63354,6.8104 3.70668,8.50036 0.49383,0.77768 1.29757,2.61371 1.78609,4.08008 0.85306,2.56057 0.87323,2.7336 0.50962,4.37085 l -0.3786,1.70473 -1.00529,-0.0893 c -1.80873,-0.16065 -1.85952,-0.21773 -2.36381,-2.65648 -0.449,-2.17145 -0.87437,-3.22629 -2.74175,-6.79919 -0.83814,-1.60365 -1.32848,-2.83914 -2.98462,-7.52026 -2.97869,-8.41933 -10.02962,-24.82057 -10.72826,-24.95511 -0.25156,-0.0485 -0.64506,0.31896 -0.92738,0.86586 -0.26972,0.5225 -0.61084,1.14523 -0.75803,1.38387 -0.14721,0.23862 -0.54606,1.06679 -0.88634,1.84038 -0.34028,0.77359 -1.17585,2.33548 -1.85683,3.47089 -1.48668,2.47871 -3.42505,6.4191 -5.28406,10.74157 -0.75258,1.74992 -1.82307,3.96204 -2.37886,4.91585 -0.55576,0.95381 -1.42288,2.77603 -1.92691,4.04938 -0.50403,1.27334 -1.25405,3.03103 -1.66671,3.90598 -1.10807,2.34944 -2.15208,5.18545 -2.50702,6.81026 -0.1722,0.78821 -0.51458,2.05136 -0.76085,2.807 -0.40945,1.25633 -0.52622,1.37381 -1.36455,1.37281 -0.50424,-5.9e-4 -1.33981,-0.25899 -1.85682,-0.57424 z m 28.0598,-99.571707 c 1.08618,-0.378643 5.79611,-3.065652 7.53468,-4.298519 0.66627,-0.472472 1.70311,-1.183632 2.30409,-1.580363 2.87149,-1.895556 9.30955,-8.203645 12.5264,-12.273528 2.95564,-3.739442 3.44774,-4.981221 3.4386,-8.677217 -0.006,-2.652539 -0.12301,-3.366594 -0.91949,-5.640195 -0.50158,-1.43174 -1.13182,-3.343785 -1.40052,-4.248989 -0.7964,-2.682835 -5.69748,-7.918428 -8.62458,-9.213231 -0.69638,-0.308034 -2.81226,-0.760132 -4.70197,-1.00465 -1.8897,-0.244516 -3.87398,-0.58633 -4.40953,-0.759582 -0.53553,-0.17326 -2.53534,-0.351472 -4.44401,-0.396034 -3.26389,-0.07617 -3.59121,-0.03116 -5.50235,0.756927 -2.55979,1.055565 -5.20694,3.210306 -8.31744,6.770272 -2.80038,3.205017 -3.89691,4.766736 -5.29643,7.543293 -2.01827,4.004152 -4.29818,10.63319 -4.70074,13.667743 -0.42553,3.207813 1.09286,8.811737 3.31314,12.227868 2.24275,3.450684 4.15135,4.838224 8.69903,6.324184 1.5043,0.491527 3.3916,1.010464 4.194,1.153199 1.68525,0.299778 4.96338,0.117253 6.30712,-0.351178 z m -8.07005,-6.540373 c -0.62661,-0.453919 -1.34628,-1.141195 -1.59925,-1.527284 -0.75019,-1.144926 -1.15576,-3.683474 -1.05666,-6.613869 l 0.0929,-2.747786 0.90989,-0.08838 c 0.50044,-0.04862 1.34646,0.02541 1.88007,0.164528 l 0.97016,0.252921 -0.10298,2.872518 c -0.1071,2.988827 0.28302,5.251794 0.94944,5.507527 0.21029,0.08067 2.24122,-0.804579 4.51318,-1.967271 3.9336,-2.013046 4.22468,-2.113983 6.09596,-2.113983 1.09464,0 2.11237,0.147252 2.29756,0.332433 0.64951,0.649521 5.3e-4,1.47472 -1.68755,2.145755 -0.90915,0.361401 -3.44095,1.546092 -5.6262,2.632649 -4.6805,2.327238 -5.78264,2.493242 -7.63659,1.150247 z m -3.55517,-18.96687 c -0.76465,-0.788911 -0.92289,-1.143565 -0.77434,-1.735447 0.15382,-0.61283 0.3565,-0.743898 1.15038,-0.743898 2.56103,0 3.79075,1.369798 2.48115,2.763791 -0.90942,0.968041 -1.72161,0.887183 -2.85719,-0.284446 z m 16.16869,-1.480951 c -0.61849,-1.000731 -0.62095,-1.041013 -0.0993,-1.61748 0.39128,-0.432363 0.76905,-0.551994 1.4061,-0.445301 1.73621,0.290783 2.4619,0.723327 2.4619,1.467431 0,1.374881 -0.2652,1.621637 -1.74279,1.621637 -1.28208,0 -1.44163,-0.08085 -2.02595,-1.026287 z"
     id="path1"
     sodipodi:nodetypes="cssssssssssssssscssssssssssssssssssssssssssssssssssssssssssscsssssssssssssssscssssssssssssssssccsssssssssssssssssssssscsscsssssssssssssssssss" /><path
     style="fill:#ddaabb;fill-opacity:1;stroke-width:1.35726"
     d="m 228.80058,185.83156 c -1.36887,-0.26137 -3.12884,-0.7458 -3.91103,-1.07652 -0.7822,-0.33072 -1.73633,-0.78352 -2.12028,-1.00626 -0.38392,-0.22271 -1.50391,-0.84326 -2.48881,-1.37898 -0.98495,-0.53573 -2.27078,-1.23873 -2.85742,-1.56221 -0.58665,-0.3235 -1.30663,-0.68198 -1.59995,-0.79662 -0.29336,-0.11459 -1.73331,-1.09768 -3.19995,-2.18456 -1.46664,-1.08685 -3.38659,-2.41537 -4.26659,-2.95225 -0.87996,-0.53687 -2.29701,-1.86698 -3.14901,-2.95577 -0.85198,-1.08881 -2.16391,-3.14317 -2.9154,-4.56526 -0.7515,-1.42208 -1.83788,-4.05858 -2.41421,-5.85892 -0.57634,-1.80032 -1.24801,-4.49338 -1.49263,-5.98459 l -0.44475,-2.71126 0.62318,-3.44566 c 0.34276,-1.8951 0.7398,-4.26173 0.88233,-5.25916 0.14254,-0.99743 0.53066,-2.71121 0.86249,-3.80837 0.33182,-1.09718 1.3584,-3.52811 2.28126,-5.40206 0.92287,-1.87397 2.60785,-4.73025 3.74441,-6.34729 1.13658,-1.61702 3.37653,-4.17411 4.97767,-5.68238 1.60117,-1.50828 3.6312,-3.22986 4.5112,-3.82573 0.87997,-0.59587 3.21337,-1.6968 5.18535,-2.44652 1.97197,-0.74972 4.96887,-1.57178 6.65979,-1.82683 l 3.0744,-0.4637 0.74713,0.81126 c 0.4387,0.4764 0.69832,1.16278 0.62893,1.66284 l -0.11812,0.85157 -2.84438,0.67056 c -1.56442,0.36881 -3.88436,1.06664 -5.15547,1.55072 -1.27107,0.48408 -2.83153,1.14679 -3.46766,1.47267 -0.63616,0.32592 -2.80556,2.09764 -4.82089,3.93722 -2.54145,2.31981 -4.34389,4.35694 -5.88229,6.64825 -1.21992,1.81698 -2.69308,4.33911 -3.27364,5.60474 -0.58058,1.26566 -1.29283,3.51165 -1.58273,4.99115 -0.28993,1.47949 -0.84733,3.82897 -1.23864,5.22106 -0.45076,1.60358 -0.71146,3.61556 -0.71146,5.49063 0,2.08683 0.26418,3.88953 0.89587,6.11326 0.49274,1.73456 1.57168,4.45689 2.39764,6.04967 0.82597,1.59276 1.96194,3.46544 2.52438,4.16151 0.56244,0.69606 1.84345,1.87895 2.84668,2.62863 1.00324,0.74967 4.15434,2.77574 7.00243,4.50238 2.84808,1.72663 6.05627,3.54936 7.12928,4.05048 1.07304,0.50115 3.22267,1.09432 4.77702,1.3182 1.55432,0.22387 3.78603,0.31556 4.95934,0.20373 1.17331,-0.11186 3.64502,-0.71896 5.4927,-1.34919 2.12875,-0.72613 4.08249,-1.6908 5.33318,-2.63333 1.08555,-0.81809 3.41185,-2.94753 5.16955,-4.73205 1.7577,-1.78454 4.07767,-3.99666 5.1555,-4.91583 1.07784,-0.91917 2.83968,-2.64466 3.91519,-3.83443 1.07556,-1.18976 2.12372,-2.32908 2.32927,-2.53182 0.20554,-0.20276 0.98285,-1.15213 1.72734,-2.10973 l 1.35359,-1.74111 1.65037,0.10902 1.65037,0.10903 0.10917,1.14812 c 0.0695,0.73083 -0.27262,1.9173 -0.94125,3.26432 -0.60249,1.21375 -2.14146,3.24472 -3.60882,4.76251 -1.40713,1.45547 -3.22353,3.06893 -4.03643,3.58547 -0.8129,0.51654 -3.158,2.67179 -5.21129,4.78948 -2.05329,2.11768 -4.74552,4.53509 -5.98271,5.37203 -1.23722,0.83694 -2.91718,1.76342 -3.73326,2.05888 -0.81608,0.29543 -2.84376,0.96774 -4.50593,1.494 -2.1591,0.68356 -4.03756,0.99587 -6.57765,1.09358 -2.04036,0.0785 -4.61607,-0.0656 -6.04432,-0.33843 z m 48.76009,-4.83316 c -0.27587,-0.54857 -1.09018,-2.79279 -1.80957,-4.98714 -0.71941,-2.19434 -1.7013,-5.83972 -2.18199,-8.10084 -0.48068,-2.26114 -1.09966,-4.66212 -1.37547,-5.33553 -0.27583,-0.67341 -0.9123,-2.76262 -1.41438,-4.64268 -0.5021,-1.88006 -0.91288,-3.81286 -0.91288,-4.2951 0,-0.48227 -0.55576,-3.23489 -1.23503,-6.11695 -0.67927,-2.88208 -1.57053,-5.91272 -1.98056,-6.73477 l -0.74552,-1.49464 -1.79353,-0.59091 c -0.98645,-0.32497 -2.39556,-0.59088 -3.13135,-0.59088 -0.73581,0 -1.52604,-0.23134 -1.75608,-0.5141 -0.26376,-0.3242 -1.10061,-0.51247 -2.26571,-0.50973 -1.01609,0.003 -2.96744,-0.1852 -4.33631,-0.41693 -1.36885,-0.23172 -5.04878,-0.38648 -8.17761,-0.34393 -3.12881,0.0425 -5.97898,0.22802 -6.33369,0.41214 -0.40144,0.20837 -0.80416,0.20146 -1.06665,-0.0183 -0.23194,-0.19422 -0.80566,-0.40957 -1.27491,-0.47856 -0.46927,-0.0689 -1.1759,-0.56803 -1.57033,-1.10897 -0.39442,-0.54095 -0.71713,-1.4482 -0.71713,-2.01613 0,-0.56792 0.4934,-2.16552 1.09644,-3.55023 l 1.09646,-2.51764 0.56373,-5.07781 c 0.31005,-2.79281 0.55663,-6.79508 0.54794,-8.89394 l -0.0157,-3.81613 1.27237,-3.61926 c 0.6998,-1.9906 1.90645,-6.263423 2.68142,-9.495177 0.77499,-3.231754 1.40906,-6.527239 1.40906,-7.323301 0,-0.796061 -0.1665,-1.552353 -0.36999,-1.680649 -0.20472,-0.129134 -0.26015,-0.584225 -0.12404,-1.018836 0.13527,-0.432062 0.3624,-1.846455 0.50474,-3.143118 l 0.25877,-2.357558 -0.49845,-0.816074 c -0.27416,-0.448855 -0.69477,-0.825357 -0.9347,-0.836679 -0.23993,-0.01097 -1.22625,-1.011804 -2.19181,-2.223271 l -1.75556,-2.202651 -0.82217,-2.895654 c -0.4522,-1.592616 -0.82216,-3.722586 -0.82216,-4.733265 0,-1.01068 0.41427,-3.605009 0.92062,-5.765178 l 0.92058,-3.927568 1.78724,-2.792853 c 0.98297,-1.536068 2.76867,-3.793391 3.96817,-5.01629 1.59195,-1.622924 2.67685,-2.391225 4.01695,-2.84474 1.0098,-0.341723 2.76977,-0.624102 3.91104,-0.627531 l 2.07503,-0.0069 2.38242,1.566473 c 1.34594,0.885001 2.53215,1.960946 2.72663,2.473229 0.18933,0.498712 0.42789,1.559619 0.53017,2.357557 0.10239,0.797939 0.0516,2.173618 -0.11275,3.057043 -0.16429,0.883438 -0.16813,3.005238 -0.009,4.715115 l 0.29016,3.108889 -0.54377,1.99486 c -0.29909,1.097165 -1.5517,4.13041 -2.78358,6.740545 -1.23901,2.6252 -2.75824,5.274568 -3.40011,5.929324 -0.63813,0.650997 -1.7601,1.569912 -2.49322,2.042016 l -1.33294,0.858378 -0.21759,2.098483 c -0.11972,1.154165 -0.3719,2.688671 -0.56049,3.41002 -0.1886,0.721337 -0.34389,1.782243 -0.34508,2.357558 -8.8e-4,0.575315 -0.22448,1.480631 -0.49615,2.011817 -0.27168,0.531189 -1.06425,3.387458 -1.76124,6.347276 -0.697,2.95981 -1.74859,6.87067 -2.33687,8.6908 -0.58829,1.82012 -1.17852,4.00406 -1.31162,4.85318 l -0.242,1.54388 3.16392,-0.27901 c 1.74016,-0.15346 4.84388,-0.25765 6.89715,-0.23152 2.05329,0.0262 5.01325,-0.13773 6.57767,-0.36413 1.56441,-0.22641 3.46449,-0.63319 4.22239,-0.90398 0.75789,-0.2708 1.84839,-0.49236 2.42331,-0.49236 0.57494,0 1.3548,0.16897 1.73307,0.37547 0.37823,0.20649 0.6877,0.68784 0.6877,1.06964 0,0.3818 -0.52856,1.10545 -1.17457,1.60808 -0.646,0.50265 -2.28596,1.18882 -3.64436,1.52481 -1.68934,0.41784 -4.32367,0.63949 -8.33636,0.70137 -3.22661,0.0499 -6.72837,0.2696 -7.78168,0.48851 -1.05334,0.21893 -2.44607,0.39804 -3.09494,0.39804 h -1.17978 l -0.17574,1.17879 c -0.0966,0.64833 -0.28629,2.32128 -0.42141,3.71769 -0.1351,1.39639 -0.29209,3.84463 -0.34886,5.44051 -0.0567,1.59588 0.0705,3.41193 0.28308,4.03568 0.21247,0.62374 0.80129,1.37702 1.30847,1.674 0.5945,0.34806 2.5647,0.64183 5.54432,0.82668 2.54218,0.1577 5.4221,0.33584 6.39986,0.39582 0.97776,0.0601 3.37772,0.29906 5.33324,0.53125 1.95551,0.23222 5.09369,0.89558 6.97373,1.47416 1.9793,0.60912 3.70054,1.37022 4.0888,1.80798 0.48454,0.5463 0.67521,1.32397 0.68734,2.80331 0.0106,1.12602 0.52011,4.08748 1.13529,6.58105 0.61517,2.49356 1.46607,6.24754 1.89089,8.34214 0.42482,2.0946 1.22633,5.27731 1.78114,7.07267 0.55481,1.79539 1.27541,4.65166 1.60135,6.34729 0.32592,1.69563 1.12342,4.43572 1.77221,6.08907 0.64875,1.65337 1.36052,3.89525 1.58166,4.98193 0.22115,1.0867 0.30177,2.14136 0.17919,2.34373 -0.12256,0.20234 -0.84935,0.36791 -1.61498,0.36791 h -1.39188 z M 246.64497,76.642492 c 0.42796,-0.125158 1.26793,-0.796611 1.86664,-1.492201 0.59868,-0.695607 1.08851,-1.389416 1.08851,-1.541812 0,-0.152383 -0.59996,-0.289495 -1.33329,-0.30467 -0.73331,-0.01522 -2.01036,-0.188791 -2.83786,-0.385795 -0.82754,-0.197003 -1.74753,-0.563854 -2.04442,-0.815212 -0.29692,-0.25137 -0.53983,-0.753853 -0.53983,-1.116618 0,-0.362779 0.16988,-0.766683 0.37748,-0.897572 0.20761,-0.130914 0.5252,-0.634355 0.70577,-1.11881 0.18054,-0.484442 0.57104,-0.975847 0.86773,-1.091985 0.29669,-0.116109 0.90974,-0.116383 1.36231,-4.93e-4 0.45258,0.115837 1.04247,0.629312 1.31092,1.140963 l 0.48804,0.930281 1.02718,-0.23015 c 0.56497,-0.126529 1.4374,-0.276075 1.93872,-0.332223 0.50136,-0.05608 1.0885,-0.407591 1.30476,-0.781023 0.21626,-0.373417 0.77491,-1.576631 1.24144,-2.67381 l 0.84825,-1.994847 0.0413,-6.338025 0.0413,-6.338027 -2.08216,-1.01889 c -1.30967,-0.640895 -2.35118,-0.931801 -2.80728,-0.784134 -0.39879,0.129134 -1.44313,0.909881 -2.32076,1.735045 -0.87765,0.82515 -2.30238,2.437065 -3.1661,3.58202 -0.86373,1.144967 -1.95721,2.973984 -2.42999,4.064472 -0.47273,1.090504 -1.10465,3.060922 -1.40424,4.378711 -0.2996,1.317803 -0.5377,3.487569 -0.52912,4.821726 0.009,1.334143 0.22092,3.011694 0.4719,3.72789 0.25096,0.716195 0.92269,1.925962 1.49273,2.688369 0.57004,0.762392 1.51713,1.684378 2.10463,2.048858 0.58752,0.36448 1.30873,0.595809 1.60272,0.514065 0.29398,-0.0817 0.88465,-0.250988 1.3126,-0.376103 z m -0.47763,-13.084329 c -0.11583,-0.307837 -0.11458,-0.657523 0.002,-0.777088 0.11716,-0.119537 0.45697,-0.01097 0.755,0.241405 0.29806,0.252344 0.54193,0.602032 0.54193,0.777088 0,0.175056 -0.24502,0.318295 -0.54449,0.318295 -0.29946,0 -0.63923,-0.251864 -0.75502,-0.5597 z m -0.54686,-1.888538 c -0.29392,-0.349098 -0.64256,-0.943961 -0.77476,-1.321902 -0.14882,-0.425358 -0.0134,-0.94359 0.3566,-1.360133 0.42115,-0.474722 1.09222,-0.672959 2.27819,-0.672959 h 1.68117 l 0.16419,0.87613 c 0.0904,0.481865 -0.0433,1.37956 -0.29693,1.994861 l -0.46111,1.11873 h -1.20649 c -0.70842,0 -1.42708,-0.262023 -1.74086,-0.634727 z"
     id="path2" /><path
     style="fill:#ddaabb;fill-opacity:1"
     d="m 52.720909,186.29123 c -0.33565,-0.0641 -0.74394,-0.41002 -0.90733,-0.76861 l -0.29706,-0.65199 0.54537,-1.11359 c 0.29995,-0.61247 1.25488,-2.06609 2.12207,-3.23025 0.86719,-1.16417 3.06932,-4.37886 4.89364,-7.14375 1.82431,-2.7649 4.61305,-6.75349 6.19719,-8.86355 1.58414,-2.11005 3.43114,-4.61036 4.10443,-5.55625 0.6733,-0.94588 2.55976,-3.20807 4.19213,-5.02708 1.63237,-1.81901 3.79645,-4.14561 4.80906,-5.17023 1.01262,-1.02462 2.09729,-2.27477 2.41038,-2.77813 0.3131,-0.50335 0.77086,-1.06335 1.01726,-1.24445 0.24639,-0.1811 0.53192,-0.83594 0.63451,-1.45521 0.10259,-0.61926 0.3137,-1.36406 0.46913,-1.6551 0.15544,-0.29104 0.36451,-1.42214 0.46461,-2.51354 0.1001,-1.09141 0.37111,-2.81782 0.60224,-3.83646 0.23114,-1.01865 0.47766,-2.68552 0.54783,-3.70417 0.0702,-1.01865 0.33197,-2.92365 0.58178,-4.23333 l 0.45419,-2.38125 0.0495,-9.525 c 0.0312,-6.00524 0.16227,-10.05165 0.35473,-10.95018 0.16789,-0.78384 0.30526,-2.26406 0.30526,-3.28936 0,-1.02531 0.24493,-3.994978 0.54429,-6.599278 l 0.5443,-4.735086 -0.31211,-0.37606 c -0.17166,-0.20684 -0.50589,-0.37724 -0.74274,-0.37866 -0.23684,-10e-4 -1.08546,-0.30685 -1.88583,-0.67872 -1.02838,-0.47782 -2.19345,-1.42839 -3.97218,-3.24084 l -2.51698,-2.56469 -1.10781,-2.12937 c -0.6093,-1.17115 -1.34693,-3.01559 -1.63917,-4.09877 -0.29224,-1.08317 -0.71635,-3.0579 -0.94247,-4.38829 -0.26243,-1.54407 -0.42013,-4.22339 -0.43605,-7.40834 -0.0137,-2.74419 0.11568,-6.00147 0.28756,-7.23839 0.17189,-1.23693 0.6669,-3.1364 1.10004,-4.22105 0.43313,-1.08465 1.22324,-2.69199 1.75578,-3.57188 0.53255,-0.87988 1.67237,-2.5866 2.53294,-3.79272 0.86056,-1.20612 2.65116,-3.25731 3.97911,-4.55821 1.32794,-1.30089 2.98162,-2.7235 3.67484,-3.16134 0.69322,-0.43785 1.74019,-1.04086 2.32661,-1.34002 0.58642,-0.29917 1.98377,-0.77518 3.10523,-1.0578 1.12145,-0.28262 2.3962,-0.51452 2.83276,-0.51534 0.43656,-8.1e-4 1.43406,0.2966 2.21667,0.66091 0.7826,0.36432 1.79463,0.96273 2.24896,1.3298 0.454321,0.36708 1.599941,1.29029 2.545831,2.05157 0.94588,0.76129 2.13651,1.68749 2.64583,2.05823 0.50933,0.37074 1.65997,1.11525 2.557,1.65446 0.89702,0.53921 2.01325,1.41579 2.48049,1.94795 0.46725,0.53217 1.03176,1.39296 1.25448,1.91286 0.22272,0.51991 0.5532,1.56576 0.73441,2.32411 0.23509,0.98387 0.26678,2.15859 0.11061,4.10104 -0.12036,1.49722 -0.46448,3.91284 -0.7647,5.36805 -0.30022,1.45521 -0.67322,3.12209 -0.82889,3.70417 -0.15566,0.58208 -0.82732,2.72521 -1.49257,4.7625 -0.66525,2.03729 -1.89985,5.44686 -2.74356,7.57682 -0.8437,2.12996 -1.91553,4.63027 -2.38185,5.55625 -0.46632,0.92598 -1.21331,2.21938 -1.65999,2.87422 -0.44668,0.65484 -1.41311,1.82983 -2.14764,2.61107 -0.734521,0.78125 -1.828611,1.76036 -2.431311,2.17581 -0.6027,0.41544 -1.73379,0.98921 -2.51354,1.27504 -0.77975,0.28583 -1.98659,0.60065 -2.68186,0.69961 -0.84912,0.12086 -1.3533,0.34654 -1.53574,0.68744 -0.14939,0.27913 -0.43569,1.54504 -0.63622,2.81313 -0.20054,1.268076 -0.49005,3.674826 -0.64337,5.348316 -0.15333,1.673488 -0.39985,4.650048 -0.54783,6.614578 -0.14798,1.96453 -0.2687,4.30899 -0.26828,5.20991 4.3e-4,0.90091 0.1285,1.71696 0.2846,1.81343 0.1561,0.0965 1.13836,-0.0304 2.18281,-0.28202 1.04445,-0.2516 2.56845,-0.7401 3.38667,-1.08556 0.81823,-0.34547 2.36604,-0.81577 3.43959,-1.04511 1.07354,-0.22934 2.190031,-0.5164 2.481071,-0.63791 0.29104,-0.1215 1.0804,-0.47346 1.75414,-0.78212 l 1.22498,-0.56121 1.09371,0.17489 1.09372,0.1749 0.15724,0.62647 c 0.0865,0.34456 0.091,0.79903 0.0101,1.00993 -0.0809,0.2109 -0.77893,0.67244 -1.55112,1.02565 -0.77219,0.35321 -2.29639,0.84488 -3.38712,1.09261 -1.090731,0.24774 -2.459391,0.63159 -3.041481,0.85302 -0.58208,0.22142 -1.47505,0.56639 -1.98437,0.76661 -0.50932,0.20021 -1.61065,0.55415 -2.4474,0.78654 -0.83674,0.23238 -1.52043,0.5629 -1.51931,0.73447 0.001,0.17158 0.50713,0.60771 1.12448,0.96919 0.61734,0.36147 1.65822,0.88891 2.31306,1.17208 0.65485,0.28317 1.98312,1.01958 2.95172,1.63647 0.96861,0.61689 3.171261,1.79328 4.894801,2.61421 1.72353,0.82093 3.44972,1.664 3.83597,1.87349 0.38626,0.20949 0.77321,0.38089 0.8599,0.38089 0.0867,0 0.15761,-0.2442 0.15761,-0.54267 0,-0.36914 0.29339,-0.66525 0.91755,-0.92604 0.50465,-0.21085 1.2748,-0.38337 1.71144,-0.38337 h 0.7939 l 1.06188,1.43741 c 0.58404,0.79058 1.41018,1.64316 1.83587,1.89462 0.48192,0.28468 0.83393,0.75694 0.93284,1.25152 0.10333,0.51664 0.0242,0.94308 -0.22629,1.2199 l -0.38515,0.42559 2.74351,2.81078 c 1.50894,1.54593 3.05402,3.26978 3.43353,3.83079 0.3795,0.56101 0.99066,1.43673 1.35813,1.94606 0.36746,0.50932 1.76099,2.11666 3.09673,3.57187 1.33573,1.45521 3.27971,3.5388 4.31995,4.63021 1.04023,1.0914 2.43129,2.81781 3.09124,3.83646 0.65994,1.01864 1.68234,2.50692 2.272,3.30729 0.58966,0.80036 1.68608,2.34818 2.43648,3.43958 0.7504,1.09141 1.9894,2.64453 2.75332,3.45139 0.76393,0.80686 1.91978,2.29514 2.56856,3.30729 0.64877,1.01215 1.63439,2.2396 2.19026,2.72765 0.55586,0.48805 1.45734,1.44055 2.00328,2.11667 0.54593,0.67611 2.1831,2.44968 3.63815,3.94127 1.45505,1.49159 2.83936,2.71198 3.07624,2.71198 0.23688,0 0.50394,0.20836 0.59347,0.46302 0.0895,0.25466 0.43312,0.76068 0.76354,1.12448 0.33042,0.3638 0.96781,1.33473 1.41642,2.15763 0.44861,0.82289 0.81566,1.73712 0.81566,2.03162 0,0.2945 -0.1871,0.72255 -0.41578,0.95123 -0.22867,0.22867 -0.81984,0.41577 -1.31371,0.41577 -0.62668,0 -1.17987,-0.24754 -1.83123,-0.81944 -0.51331,-0.45069 -1.51782,-1.6934 -2.23226,-2.76156 -0.71443,-1.06817 -1.42435,-2.09841 -1.5776,-2.28942 -0.15324,-0.19101 -1.89943,-2.13322 -3.88041,-4.31604 -1.98099,-2.18281 -4.63547,-5.33777 -5.89884,-7.01103 -1.26338,-1.67325 -2.85111,-3.65612 -3.5283,-4.40638 -0.67719,-0.75027 -2.02159,-2.5364 -2.98756,-3.96918 -0.96597,-1.43279 -2.47158,-3.6171 -3.34581,-4.85403 -0.87422,-1.23693 -2.98263,-3.78261 -4.68536,-5.65708 -1.70272,-1.87446 -3.86976,-4.27031 -4.81565,-5.32409 -0.94588,-1.05379 -2.5398,-2.94774 -3.54204,-4.20878 -1.00224,-1.26104 -2.0738,-2.425 -2.38125,-2.58657 -0.30745,-0.16157 -0.91619,-0.5903 -1.35275,-0.95272 -0.43656,-0.36243 -1.37596,-1.32701 -2.08755,-2.14351 -0.71159,-0.8165 -1.66409,-1.68642 -2.11667,-1.93316 -0.45257,-0.24674 -1.08201,-0.56789 -1.39875,-0.71367 -0.31674,-0.14578 -2.10268,-1.02468 -3.96875,-1.95311 -1.86608,-0.92844 -4.464431,-2.34809 -5.774111,-3.15479 -1.30969,-0.8067 -3.7401,-2.1404 -5.4009,-2.96377 -1.66081,-0.82337 -3.1382,-1.45752 -3.28309,-1.40923 -0.15652,0.0522 -0.24859,1.26339 -0.22686,2.98425 0.0243,1.92449 -0.1413,3.84422 -0.49352,5.72086 -0.30423,1.62091 -0.46352,3.25566 -0.37383,3.83646 0.0976,0.63208 -0.002,1.45473 -0.26584,2.19119 -0.23216,0.64854 -0.54851,2.31541 -0.70299,3.70417 -0.15449,1.38875 -0.55617,3.59657 -0.89263,4.90626 -0.33647,1.30968 -0.69239,2.99393 -0.79094,3.74276 l -0.17919,1.36152 0.4587,0.88744 c 0.25228,0.48809 0.93043,1.52616 1.50699,2.30682 0.57656,0.78066 1.94408,3.16191 3.03893,5.29167 1.09485,2.12976 2.94707,5.36057 4.11605,7.17958 1.16899,1.81901 2.73951,4.49791 3.49005,5.95312 0.75055,1.45521 1.49767,3.03279 1.66027,3.50573 0.162611,0.47294 0.412561,0.8599 0.555461,0.8599 0.1429,0 0.7654,0.92273 1.38334,2.05052 0.61793,1.12779 1.40018,2.31272 1.73832,2.6332 0.33814,0.32047 0.6148,0.83431 0.6148,1.14187 0,0.30756 -0.12325,0.78949 -0.27389,1.07097 -0.16954,0.31679 -0.55298,0.51177 -1.00643,0.51177 -0.48302,0 -1.00992,-0.2929 -1.54689,-0.85989 -0.44789,-0.47295 -1.13124,-1.33615 -1.518551,-1.91823 -0.38732,-0.58209 -1.11702,-1.65365 -1.62157,-2.38125 -0.50454,-0.72761 -1.11555,-1.8587 -1.35781,-2.51355 -0.24225,-0.65484 -0.9117,-2.08359 -1.48766,-3.175 -0.57596,-1.0914 -1.88324,-3.29406 -2.90507,-4.89479 -1.02183,-1.60073 -2.05818,-3.20807 -2.30301,-3.57187 -0.24483,-0.3638 -1.20177,-2.14974 -2.12653,-3.96875 -0.92476,-1.81901 -2.03321,-3.84307 -2.46323,-4.49792 -0.43001,-0.65484 -1.08425,-1.51805 -1.45385,-1.91823 -0.36961,-0.40018 -0.86495,-0.7276 -1.10077,-0.7276 -0.23582,0 -1.67206,1.28475 -3.19165,2.85501 -1.51958,1.57025 -3.69838,3.92174 -4.84178,5.22552 -1.14339,1.30378 -2.57214,3.05714 -3.175,3.89635 -0.60285,0.83921 -2.52753,3.45859 -4.27705,5.82083 -1.74953,2.36225 -3.94692,5.54515 -4.8831,7.07312 -0.93618,1.52797 -2.63398,4.0675 -3.7729,5.64339 -1.13891,1.5759 -2.4241,3.52743 -2.85596,4.33673 -0.43187,0.8093 -0.78522,1.6291 -0.78522,1.82178 0,0.19267 -0.23029,0.47357 -0.51177,0.62421 -0.28147,0.15064 -0.72796,0.25768 -0.99219,0.23786 -0.26422,-0.0198 -0.75503,-0.0885 -1.09067,-0.15265 z m 39.44995,-98.653454 c 0.8854,-0.22943 2.04166,-0.63746 2.56947,-0.90673 0.52781,-0.26926 1.67692,-1.25633 2.55357,-2.19348 0.87666,-0.93715 2.17881,-2.76155 2.893661,-4.05422 0.71485,-1.29266 1.75994,-3.33826 2.3224,-4.54575 0.56247,-1.2075 0.94532,-2.27281 0.85078,-2.36735 -0.0945,-0.0945 -0.54482,0.0484 -1.00061,0.31765 l -0.82872,0.48954 -3.065751,0.15801 c -1.68615,0.0869 -3.45253,0.12072 -3.92528,0.0751 -0.48733,-0.047 -0.96839,-0.28626 -1.1109,-0.55253 -0.13824,-0.25831 -0.18659,-0.71728 -0.10745,-1.01994 0.0791,-0.30265 0.492,-0.69446 0.91745,-0.87069 0.43371,-0.17965 1.20726,-0.25078 1.76075,-0.16192 0.54295,0.0872 1.16579,0.18084 1.38407,0.20814 0.21828,0.0273 1.08114,0.0309 1.91746,0.008 l 1.520601,-0.0417 1.02501,-0.92604 c 0.56376,-0.50932 1.14484,-0.92604 1.29129,-0.92604 0.14644,0 0.41448,0.17859 0.59564,0.39688 0.18115,0.21828 0.41939,0.39687 0.5294,0.39687 0.11002,0 0.61712,-1.22039 1.12689,-2.71198 0.50977,-1.49159 1.17508,-3.60495 1.47846,-4.69635 0.30338,-1.09141 0.79818,-3.03555 1.09954,-4.32031 0.30137,-1.28476 0.65889,-3.18976 0.79449,-4.23333 0.1356,-1.04357 0.25022,-2.63568 0.25471,-3.53803 0.004,-0.90234 -0.11698,-2.21203 -0.26995,-2.91041 -0.15296,-0.69839 -0.59945,-1.73324 -0.99218,-2.29967 -0.46275,-0.66741 -1.57528,-1.55207 -3.16099,-2.51355 -1.3458,-0.81601 -3.15098,-2.10649 -4.01149,-2.86773 -0.860521,-0.76123 -2.103571,-1.67064 -2.762331,-2.02091 -0.65876,-0.35026 -1.56851,-0.90085 -2.02167,-1.22353 l -0.82392,-0.58669 -1.20685,0.30389 c -0.66376,0.16714 -1.8779,0.64975 -2.69808,1.07247 -0.82018,0.42271 -1.82165,0.99342 -2.22547,1.26824 -0.40383,0.27481 -1.7998,1.48454 -3.10216,2.68828 -1.30236,1.20373 -2.81742,2.84095 -3.36681,3.63826 -0.54939,0.7973 -1.32532,2.00479 -1.7243,2.68331 -0.39898,0.67852 -1.08827,1.92414 -1.53175,2.76806 -0.44348,0.84392 -1.10735,2.36889 -1.47526,3.38883 -0.36791,1.01993 -0.77784,2.8893 -0.91095,4.15414 -0.13311,1.26485 -0.2438,3.72847 -0.24597,5.47472 -0.002,1.74625 0.12374,4.24656 0.27981,5.55625 0.15607,1.30969 0.52031,3.33375 0.80943,4.49791 0.28911,1.16417 0.98722,3.06917 1.55136,4.23334 0.61667,1.27259 1.6916,2.86443 2.69555,3.9918 0.91843,1.03133 2.08658,2.23521 2.5959,2.67529 0.50933,0.44009 1.34276,1.01867 1.85209,1.28574 0.50932,0.26708 1.58088,0.63079 2.38125,0.80827 0.80036,0.17747 1.55708,0.33265 1.6816,0.34485 0.12451,0.0122 0.95081,-0.16554 1.83621,-0.39497 z m 3.4477,-26.73983 c -0.46182,-0.1896 -0.91718,-0.58889 -1.0119,-0.88732 -0.0947,-0.29843 -0.0941,-0.8981 0.001,-1.3326 0.0954,-0.43451 0.3722,-0.89596 0.61503,-1.02545 0.24283,-0.1295 0.73917,-0.26075 1.10297,-0.29167 0.36381,-0.0309 1.0293,-0.043 1.47889,-0.0269 0.60358,0.0216 0.89775,0.20558 1.12448,0.70319 0.16888,0.37065 0.30705,0.94751 0.30705,1.28191 0,0.33441 -0.22942,0.81563 -0.50982,1.06939 -0.2804,0.25376 -0.90548,0.54977 -1.38906,0.6578 -0.55358,0.12366 -1.19026,0.0687 -1.71894,-0.14831 z"
     id="path2-9" /></svg>
