<?xml version="1.0" encoding="UTF-8" standalone="no"?>
<!-- Created with Inkscape (http://www.inkscape.org/) -->

<svg
   width="249.44386mm"
   height="339.73056mm"
   viewBox="0 0 249.44386 339.73056"
   version="1.1"
   id="svg1"
   xml:space="preserve"
   xmlns="http://www.w3.org/2000/svg"
   xmlns:svg="http://www.w3.org/2000/svg"><defs
     id="defs1" /><g
     id="layer1"
     transform="translate(-269.82657,179.75691)"><path
       style="fill:#ddaabb;fill-opacity:1"
       d="m 492.88176,159.94868 c -0.19403,-0.0509 -3.44841,-0.27169 -7.23195,-0.49055 -10.60367,-0.61336 -19.89542,-1.41196 -23.24348,-1.99771 -3.32465,-0.58165 -8.80168,-1.27327 -16.44402,-2.07649 -2.71639,-0.2855 -6.05014,-0.67447 -7.40834,-0.86438 -6.14081,-0.85863 -10.77634,-1.49591 -13.05277,-1.79444 -1.3582,-0.17811 -6.7557,-0.48506 -11.99445,-0.6821 -5.23875,-0.19705 -12.85875,-0.52737 -16.93333,-0.73405 -4.07459,-0.20668 -13.83771,-0.34373 -21.69584,-0.30456 -12.5482,0.0625 -29.82421,-0.26351 -30.34544,-0.57273 -0.10062,-0.0597 -5.33937,-0.20487 -11.64167,-0.32262 -22.67553,-0.42365 -28.15043,-0.56581 -35.27123,-0.91584 -3.97757,-0.19553 -8.97819,-0.43132 -11.1125,-0.524 -2.1343,-0.0927 -4.84923,-0.23987 -6.03318,-0.3271 -1.26922,-0.0935 -2.93413,0.0494 -4.05694,0.34822 -2.69573,0.71746 -2.91473,0.67541 -4.52137,-0.86825 -1.43524,-1.37897 -1.77744,-2.37122 -1.06387,-3.0848 0.80166,-0.80165 2.38088,-8.14258 2.61402,-12.15107 0.12853,-2.20999 0.45562,-6.39942 0.72687,-9.30984 0.27125,-2.91042 0.47941,-7.43479 0.46258,-10.05417 -0.0168,-2.61937 0.14714,-5.75469 0.36439,-6.96736 0.21725,-1.21267 0.56215,-3.15943 0.76644,-4.32614 0.4321,-2.467746 0.15996,-8.831353 -0.54293,-12.695387 -0.49719,-2.73328 -0.78702,-4.891747 -1.0658,-7.937501 -0.0888,-0.970138 -0.40631,-4.224514 -0.70559,-7.231944 -0.29928,-3.007431 -0.7813,-8.702745 -1.07117,-12.656254 -0.28986,-3.953509 -0.59918,-7.304947 -0.68737,-7.44764 -0.0882,-0.142692 -0.25748,-2.861128 -0.37621,-6.040968 -0.11872,-3.17984 -0.46245,-7.686527 -0.76383,-10.014861 -0.74624,-5.765088 -0.94232,-12.438863 -0.4716,-16.051389 0.62606,-4.804761 0.731,-8.723489 0.89079,-33.265901 0.0831,-12.766454 0.23825,-24.43458 0.34474,-25.929167 0.10649,-1.494588 0.35588,-5.019308 0.55421,-7.832711 0.19833,-2.813402 0.50716,-7.179028 0.68629,-9.701389 0.17912,-2.522361 0.4271,-7.840486 0.55106,-11.818055 0.15108,-4.847962 0.62685,-10.488117 1.44327,-17.109723 l 1.21788,-9.877778 0.33655,-12.347222 c 0.1851,-6.79097 0.57382,-15.44285 0.86382,-19.22639 0.34337,-4.47982 0.45216,-8.78634 0.31191,-12.34722 -0.21261,-5.39813 -0.0704,-7.35349 1.1546,-15.875 0.31972,-2.22407 0.52686,-6.16429 0.51839,-9.86099 -0.0119,-5.18387 0.46719,-14.40744 0.76255,-14.68176 0.0477,-0.0443 0.95985,0.0623 2.027,0.23683 1.39674,0.22847 3.91677,0.12165 8.99584,-0.38131 4.73372,-0.46877 11.06072,-0.76217 19.22639,-0.89158 6.69395,-0.10609 12.72646,-0.25796 13.40555,-0.3375 2.88376,-0.33775 21.03859,-0.27353 25.57639,0.0905 2.71639,0.2179 9.46327,0.48664 14.99306,0.59721 10.09228,0.2018 17.40096,0.63462 21.34306,1.26394 1.16416,0.18585 6.87916,0.57309 12.7,0.86054 10.97502,0.54197 14.2737,0.82025 21.65965,1.82718 l 4.37354,0.59625 9.2084,-0.43935 c 9.09887,-0.43412 14.15916,-0.89909 21.37924,-1.96443 2.0373,-0.3006 6.00605,-0.70467 8.81945,-0.89793 2.8134,-0.19326 5.90903,-0.43838 6.87917,-0.54472 0.97014,-0.10635 3.66889,-0.25629 5.99722,-0.33321 4.21675,-0.13932 8.05042,-0.45618 8.92826,-0.73795 0.95468,-0.30643 10.3717,-0.68354 17.00091,-0.68081 l 6.87917,0.003 3.52777,0.67789 3.52778,0.67789 1.28418,1.26751 c 1.70505,1.68291 2.09552,3.20507 1.65292,6.44363 -0.1931,1.413 -0.33027,4.07721 -0.30482,5.92047 0.0255,1.84326 -0.11597,5.41514 -0.31428,7.9375 -0.1983,2.52236 -0.39414,8.23736 -0.43519,12.7 l -0.0747,8.11389 0.64106,3.88055 0.64106,3.88056 -0.23304,7.9375 c -0.23096,7.86673 -0.76026,15.56128 -1.14055,16.58056 -0.10859,0.29104 -0.33003,4.894787 -0.4921,10.230551 -0.35631,11.730465 -0.91496,18.36068 -2.63062,31.220834 -1.36081,10.200291 -1.49114,11.780442 -1.76966,21.456057 -0.1107,3.845693 -0.36557,8.131943 -0.56639,9.525001 -0.20081,1.393057 -0.50204,7.850956 -0.66941,14.350887 -0.16737,6.499931 -0.47391,13.1674307 -0.6812,14.8166668 -0.42125,3.3515912 -0.20015,26.6874922 0.36099,38.1000002 0.18603,3.783542 0.4329,11.324167 0.5486,16.756945 l 0.21036,9.877778 -0.54573,5.997222 c -0.66158,7.270236 -0.67479,12.690993 -0.0486,19.931945 0.50833,5.877943 0.6309,10.287133 0.53662,19.303213 -0.0345,3.29794 0.10654,6.33909 0.33295,7.17991 l 0.39277,1.45864 -0.41757,1.81592 c -0.22966,0.99876 -0.74293,2.92718 -1.1406,4.28537 -0.70245,2.39914 -0.82353,3.056 -1.59324,8.64306 -0.48206,3.49911 -0.31597,13.48061 0.2595,15.59519 0.25686,0.94382 0.3974,2.85888 0.32565,4.4372 l -0.12624,2.77673 -0.99826,1.30876 c -2.26259,2.96638 -5.75814,4.32549 -11.70174,4.54979 -2.32834,0.0879 -4.39209,0.11808 -4.58611,0.0671 z m 4.81329,-4.90219 c 2.44961,-0.5192 4.8158,-1.55232 5.53209,-2.41539 0.23122,-0.2786 0.58794,-1.41284 0.7927,-2.52052 l 0.37231,-2.01397 -0.55376,-3.22373 -0.55376,-3.22373 0.36192,-5.65861 c 0.45914,-7.17843 0.96726,-11.3557 1.76112,-14.47806 0.40593,-1.59655 0.51595,-2.68047 0.31127,-3.06643 -0.38085,-0.71817 -0.0774,-12.29307 0.40052,-15.27802 0.45127,-2.81841 0.42939,-9.125382 -0.0453,-13.052773 -0.54826,-4.536225 -0.58884,-16.785215 -0.0748,-22.577778 0.39857,-4.491203 0.62665,-22.853837 0.31549,-25.4 -0.35661,-2.918104 -1.10098,-31.910364 -1.01933,-39.7012251 0.0214,-2.04483992 0.22081,-4.9174961 0.44305,-6.3836804 0.22225,-1.4661843 0.55501,-7.8100085 0.73945,-14.0973875 0.18445,-6.287378 0.49361,-12.304722 0.68702,-13.371875 0.19342,-1.067153 0.44087,-5.194653 0.54989,-9.172222 0.2694,-9.828478 1.31596,-21.53433 2.33395,-26.105556 0.4775,-2.144157 0.95796,-6.764181 1.19233,-11.465278 0.10641,-2.134306 0.35967,-4.991806 0.5628,-6.35 0.20313,-1.358195 0.43087,-5.795703 0.50609,-9.861129 0.0752,-4.065426 0.29583,-8.589806 0.49025,-10.054166 1.18648,-8.93639 1.48584,-24.09103 0.59963,-30.35554 -0.71314,-5.04113 -0.70944,-4.93553 -0.42053,-11.99444 0.13103,-3.20146 0.27409,-10.54246 0.31791,-16.31333 l 0.0797,-10.49249 -1.14469,-0.21475 c -0.62958,-0.11811 -1.35165,-0.14133 -1.6046,-0.0516 -0.25294,0.0897 -1.02398,-0.11963 -1.7134,-0.46522 -2.46404,-1.23514 -12.26233,-1.22375 -24.67567,0.0287 -1.84326,0.18597 -5.57389,0.40798 -8.29028,0.49334 -2.71639,0.0854 -5.97076,0.31913 -7.23194,0.51948 -1.26118,0.20035 -3.48368,0.43699 -4.93889,0.52587 -6.24152,0.38118 -9.15714,0.65856 -11.67051,1.1103 -3.71806,0.66827 -23.76849,1.68473 -27.84061,1.41139 -1.84326,-0.12373 -5.41514,-0.53578 -7.9375,-0.91567 -2.52236,-0.37988 -7.84048,-0.84202 -11.81805,-1.02698 -9.98597,-0.46433 -12.42337,-0.6471 -21.5302,-1.61443 l -7.94825,-0.84427 -10.39619,-0.0599 c -5.71791,-0.0329 -13.41245,-0.29645 -17.09898,-0.58562 l -6.70278,-0.52576 -10.75972,0.42158 c -5.91785,0.23187 -14.88722,0.47528 -19.93194,0.54091 -8.45007,0.10994 -18.18844,0.59389 -23.81251,1.18336 l -2.29305,0.24034 0.107,8.11389 0.107,8.11389 -0.76057,4.93889 -0.76057,4.93889 -0.27842,11.81806 c -0.15312,6.49993 -0.55074,14.99305 -0.88358,18.87361 -0.38902,4.53553 -0.54452,8.88257 -0.43536,12.17083 0.1774,5.344016 -0.34847,13.675821 -1.28028,20.284722 -1.09303,7.75238 -1.29211,10.026854 -1.48324,16.946214 -0.17556,6.355281 -0.39376,9.701508 -1.59793,24.505176 -0.19728,2.425347 -0.4316,15.680972 -0.5207,29.456945 -0.19024,29.41258 -0.081,24.528631 -0.74583,33.3375 -0.56723,7.515373 -0.47775,11.275372 0.4114,17.286111 0.27267,1.843264 0.59215,5.573889 0.70996,8.290278 0.11782,2.716389 0.36038,5.812014 0.53903,6.879167 0.17865,1.067153 0.57317,5.274028 0.8767,9.348611 0.30353,4.074584 0.7085,8.678334 0.89992,10.230556 0.19143,1.552222 0.58542,5.282847 0.87555,8.290278 0.63738,6.607052 1.39003,10.779053 2.15529,11.94699 l 0.56895,0.868329 -0.28318,2.852757 c -0.32967,3.321137 -0.32681,4.379156 0.0178,6.588446 l 0.25254,1.61903 -0.95634,0.75226 c -1.34105,1.05487 -1.573,2.37479 -1.93353,11.00274 -0.17431,4.1716 -0.48171,8.9341 -0.68311,10.58334 -0.20141,1.64923 -0.53173,5.15655 -0.73406,7.79404 -0.20233,2.63749 -0.60946,5.72293 -0.90472,6.85652 -0.29527,1.1336 -0.45679,2.26972 -0.35894,2.52471 0.11105,0.2894 0.78383,0.46362 1.79038,0.46362 0.88687,0 3.07466,0.16222 4.86177,0.36049 7.9788,0.88523 23.57078,1.39568 46.11179,1.50963 0.48507,0.002 6.59695,0.21963 13.58195,0.48262 6.985,0.263 18.0975,0.46199 24.69444,0.4422 14.94733,-0.0448 25.65672,0.0353 25.91328,0.19385 0.10772,0.0666 2.57629,0.21563 5.48573,0.33125 15.9311,0.63307 21.02161,0.88786 25.39822,1.27122 3.68341,0.32264 5.30254,0.5149 11.46528,1.36144 1.45521,0.19989 4.78896,0.61373 7.40833,0.91964 9.47161,1.10616 11.18837,1.31797 15.875,1.95859 2.61938,0.35804 7.9375,0.90172 11.81806,1.20818 3.88056,0.30645 8.64306,0.68926 10.58333,0.85067 5.85197,0.48683 13.17504,0.43571 15.74941,-0.10994 z M 347.07772,127.29003 c -0.42196,-0.15609 -2.23742,-0.52939 -4.03436,-0.82955 -1.79695,-0.30017 -4.69592,-0.79464 -6.44217,-1.09883 -1.74625,-0.3042 -4.60375,-0.78288 -6.35,-1.06373 -3.2211,-0.51807 -3.80736,-0.74455 -7.99659,-3.08921 l -2.35215,-1.31646 -3.16887,1.22382 c -1.74288,0.6731 -3.65913,1.47734 -4.25834,1.7872 -0.59921,0.30987 -3.00451,1.1146 -5.34512,1.78829 l -4.25564,1.22491 -1.18811,-0.49643 c -3.18958,-1.33269 -1.91162,-4.08393 1.89699,-4.08393 1.84883,0 3.60956,-0.58049 9.91249,-3.26803 3.00655,-1.28198 6.20484,-2.43617 7.10732,-2.56487 l 1.64087,-0.23399 2.10028,1.93085 c 2.36047,2.17005 3.22644,2.52668 7.49437,3.08637 1.64924,0.21628 4.58611,0.76611 6.52639,1.22185 1.94028,0.45574 4.55965,0.93406 5.82083,1.06293 1.26118,0.12888 2.89013,0.40561 3.61989,0.61495 0.96854,0.27785 2.54034,0.26248 5.82083,-0.0569 4.35764,-0.42425 11.1556,-0.77619 16.74562,-0.86695 l 2.72662,-0.0443 0.92672,0.92732 c 1.07988,1.08059 0.92451,2.33423 -0.31805,2.56625 -2.57691,0.48116 -9.49831,1.07915 -13.11746,1.13329 -2.32833,0.0348 -5.50333,0.18236 -7.05556,0.32783 -4.3019,0.40316 -5.61931,0.42709 -6.4568,0.11728 z m 94.36278,-23.61476 c -1.00551,-0.31825 -2.84775,-0.99913 -4.09387,-1.51306 l -2.26569,-0.93443 -8.14126,-0.009 c -4.47769,-0.005 -8.82328,-0.16594 -9.65687,-0.35821 -1.41528,-0.32646 -3.2876,-1.167553 -7.12745,-3.20185 l -1.5875,-0.841035 -4.05694,0.02902 c -2.65541,0.01899 -5.27567,0.284157 -7.58473,0.767555 -1.94027,0.406196 -4.55965,0.94741 -5.82083,1.202699 -1.26118,0.255289 -4.11868,0.441907 -6.35,0.414707 -4.17325,-0.05087 -4.42441,-0.103734 -11.64167,-2.450258 l -2.99861,-0.974929 -6.52639,0.130838 c -3.58951,0.07196 -9.70139,0.138367 -13.58194,0.147567 l -7.05556,0.01673 -2.99861,-0.7886 c -3.86557,-1.016601 -6.38388,-1.216469 -9.58752,-0.760925 -1.42082,0.202034 -3.78088,0.455758 -5.24457,0.563831 l -2.66125,0.196496 -1.84705,-0.794579 c -2.33169,-1.003068 -4.87557,-3.746397 -5.44368,-5.870492 -0.22522,-0.842076 -0.57784,-1.531046 -0.7836,-1.531046 -0.20576,0 -0.96626,0.402377 -1.69,0.894171 -1.93336,1.313752 -4.38147,2.280829 -5.77382,2.280829 -1.99264,0 -4.01018,-1.386676 -4.01018,-2.756231 0,-0.531249 1.81517,-1.088661 3.35139,-1.029161 l 1.41111,0.05465 2.50694,-1.496107 c 1.37882,-0.822859 3.03694,-1.648107 3.68471,-1.833886 2.39395,-0.686575 4.99406,0.808375 5.47745,3.1493 0.43685,2.115519 1.55837,3.922036 2.80349,4.515792 l 1.24814,0.595197 5.28081,-0.648476 c 5.77206,-0.708801 8.19602,-0.613002 12.17534,0.481189 3.57151,0.982055 7.76136,1.173689 17.04471,0.779586 8.13156,-0.345207 13.3507,-0.122829 15.73697,0.670526 0.58807,0.195515 2.57735,0.849845 4.42061,1.454065 l 3.35139,1.098583 3.88056,0.03984 3.88055,0.03984 6.17361,-1.215517 6.17362,-1.215516 4.23333,-0.01893 4.23333,-0.01892 4.05695,2.017882 c 2.23132,1.109835 4.77132,2.175923 5.64444,2.369083 0.89981,0.199063 3.57417,0.261718 6.17361,0.144636 6.33489,-0.285332 11.63718,0.297995 14.94142,1.643766 1.82041,0.741427 3.1868,1.05657 4.58098,1.05657 2.92667,0 9.35167,-1.013929 12.58038,-1.985319 1.55223,-0.467001 4.85743,-1.322599 7.3449,-1.901328 l 4.52267,-1.052234 h 6.29833 c 3.46409,0 7.06451,-0.156912 8.00094,-0.348693 0.93644,-0.191781 2.85838,-0.591655 4.27099,-0.888608 2.78822,-0.586129 3.95801,-0.3372 3.95801,0.842259 0,0.863076 -0.8636,1.534848 -3.17036,2.466143 -2.91382,1.176385 -6.67218,1.644122 -12.32157,1.533451 -5.76374,-0.112912 -8.58656,0.31787 -14.49418,2.211909 -6.09997,1.95571 -7.57717,2.29786 -11.54885,2.67496 -6.0537,0.57479 -7.43524,0.5679 -9.37713,-0.0467 z m -110.13098,-39.723398 -3.175,-1.297789 -4.05694,-0.257464 c -5.54979,-0.352204 -6.96597,-0.876805 -10.40726,-3.855222 l -1.50535,-1.302873 -1.8406,-0.217992 c -1.11593,-0.132165 -2.80786,-0.01453 -4.29732,0.298793 -3.1642,0.665611 -4.51735,0.651583 -6.3722,-0.06606 -1.75665,-0.679651 -2.67426,-1.432342 -3.54583,-2.908557 l -0.62828,-1.06414 0.86711,-0.568146 0.8671,-0.568146 1.31031,0.361796 c 0.72068,0.198988 1.68091,0.709944 2.13384,1.135457 l 0.82353,0.77366 3.27178,-0.651788 c 6.27422,-1.249922 8.98481,-0.671012 12.3002,2.626998 0.97005,0.964959 2.27237,1.909164 2.89404,2.098231 0.62167,0.189068 2.89745,0.42507 5.05728,0.524449 l 3.92696,0.180688 2.59943,0.93331 c 1.42968,0.513321 3.11253,1.087651 3.73965,1.276291 l 1.14023,0.342981 6.09172,-1.112112 c 7.00471,-1.27879 12.329,-1.681207 14.08551,-1.064601 0.64814,0.227521 2.36905,0.504885 3.82426,0.616366 l 2.64584,0.202692 4.10316,-0.924354 c 2.25674,-0.508395 4.79674,-1.169653 5.64445,-1.469461 1.89047,-0.668607 6.51116,-1.176658 9.126,-1.003414 1.06715,0.0707 4.79778,0.391727 8.29028,0.713387 10.33918,0.952238 11.07321,0.959589 15.23811,0.152605 8.69559,-1.684842 12.82615,-1.811362 16.60091,-0.508491 l 2.67697,0.923968 1.792,-0.25725 c 0.98561,-0.141487 2.74451,-0.395772 3.90868,-0.565077 1.16416,-0.169305 3.94735,-0.410318 6.18485,-0.535585 l 4.06819,-0.227758 3.12817,0.974931 3.12818,0.974931 4.09252,-0.412471 c 8.60556,-0.867323 13.43914,-1.169309 18.38003,-1.148324 5.80593,0.02466 7.13802,-0.18751 12.41972,-1.978148 l 3.77667,-1.28039 0.72125,0.652723 c 1.03042,0.932515 0.91094,2.124145 -0.29938,2.98597 -0.56135,0.399714 -2.74416,1.313334 -4.85069,2.030267 l -3.83007,1.303513 -5.46805,0.08364 c -5.03277,0.07698 -8.73424,0.295107 -20.28473,1.19536 -4.69338,0.365806 -8.38893,0.05589 -10.58333,-0.887537 l -1.41111,-0.606671 -3.70417,0.208373 c -2.03729,0.114606 -4.65667,0.403277 -5.82083,0.641493 -2.99953,0.613775 -7.42481,0.507602 -9.34861,-0.224295 -2.45419,-0.933679 -6.68659,-1.081091 -10.58334,-0.368611 -6.91996,1.265245 -8.36643,1.444466 -11.28889,1.398727 -1.64923,-0.02581 -4.74486,-0.285991 -6.87916,-0.578174 -9.26082,-1.267791 -13.10489,-1.109752 -22.02086,0.905332 -3.9623,0.895513 -7.90868,1.628206 -8.76973,1.628206 -0.86105,0 -2.90644,-0.351686 -4.54532,-0.781524 l -2.97978,-0.781524 -3.9491,0.615017 c -2.17201,0.338259 -5.13973,0.864343 -6.59494,1.169076 -1.45521,0.304733 -3.99521,0.61896 -5.64445,0.698283 l -2.99861,0.144223 z m 10.05417,-34.088926 c -1.72196,-0.870983 -2.19496,-3.685285 -0.74942,-4.458919 1.3592,-0.727416 4.2772,0.897335 4.2772,2.381551 0,0.910031 -1.32009,2.535115 -2.05408,2.528664 -0.32546,-0.0029 -0.98863,-0.205943 -1.4737,-0.451296 z m -47.13762,-0.941793 c -1.69146,-0.698292 -3.23615,-4.767143 -3.35307,-8.832266 -0.12172,-4.231977 0.45401,-14.5989504 0.83753,-15.0812501 0.42746,-0.5375497 1.08517,-0.551948 2.84831,-0.062354 l 1.34933,0.3746836 -0.1856,2.5337657 c -0.10208,1.3935711 -0.28899,4.9150158 -0.41535,7.8254328 l -0.22975,5.291667 0.768,3.249918 c 0.42239,1.787456 0.71648,3.613081 0.65352,4.056945 -0.12595,0.887983 -1.0482,1.149067 -2.27292,0.643458 z m 11.38531,-0.374386 c -2.2238,-0.666725 -2.60531,-2.616903 -0.78373,-4.006287 1.42786,-1.089084 1.87085,-1.125045 2.93395,-0.23817 l 0.79375,0.662173 v 1.422754 1.422754 l -0.78405,0.54917 c -0.8723,0.610988 -0.77574,0.602601 -2.15992,0.187606 z m 15.67798,-1.142941 c -0.46636,-0.239675 -1.17784,-0.880094 -1.58106,-1.423153 l -0.73312,-0.987381 0.69912,-1.202185 c 5.44152,-9.357139 7.78572,-14.0172776 7.38076,-14.6725184 -0.47085,-0.7618448 -4.12057,0.3246061 -6.18607,1.8414704 -0.71337,0.523886 -2.23454,0.157921 -3.15039,-0.757923 -0.8858,-0.8858049 -0.9349,-2.7616159 -0.0792,-3.0265068 0.33955,-0.1051127 1.64924,-0.582471 2.91042,-1.0607962 1.26118,-0.4783252 3.11539,-0.9968775 4.12046,-1.1523384 2.4369,-0.3769313 5.76783,0.1866973 7.02432,1.1885908 l 0.99683,0.7948413 -0.99849,2.955508 c -1.06407,3.1496043 -2.76218,6.7081823 -5.11115,10.7110203 -0.79522,1.355115 -1.44586,2.630305 -1.44586,2.833754 0,0.234998 0.87367,0.320542 2.3955,0.234551 1.63469,-0.09237 2.81113,0.0383 3.70417,0.411439 l 1.30867,0.546797 v 1.056331 c 0,0.691666 -0.27067,1.245914 -0.78406,1.605501 l -0.78405,0.54917 -4.41942,-0.0052 c -2.80471,-0.0033 -4.72923,-0.164417 -5.26736,-0.440972 z m 30.2607,-1.935078 c -0.27627,-0.706238 -0.24991,-2.409597 0.0969,-6.261805 0.59102,-6.564391 0.58154,-12.0574057 -0.0227,-13.1788467 -0.58523,-1.0860731 -0.15807,-1.4943201 1.79142,-1.7121009 l 1.52999,-0.1709168 1.02056,0.8052259 1.02056,0.8052259 -0.20854,5.4909836 c -0.21042,5.540722 -1.24332,13.056187 -1.98481,14.441668 -0.29199,0.545581 -0.73814,0.750705 -1.63281,0.750705 h -1.23104 z m 108.29357,-2.089565 -0.93534,-0.47322 -4.88549,0.352254 c -2.68702,0.193739 -7.47028,0.353648 -10.62946,0.355351 l -5.74397,0.0031 -1.25493,-0.524342 c -0.69021,-0.288388 -1.71725,-0.913363 -2.28232,-1.388835 l -1.02739,-0.864494 -1.32232,0.181553 c -0.72728,0.09985 -3.11139,0.582327 -5.29802,1.072161 l -3.97569,0.890607 -2.90347,-0.234435 c -2.76617,-0.223349 -8.07609,-1.896546 -8.57365,-2.701625 -0.30466,-0.49295 -2.32336,-0.363435 -4.40816,0.282818 -1.12368,0.348322 -3.16472,0.603639 -4.93526,0.617361 l -3.01914,0.0234 -4.08545,-2.07066 -4.08545,-2.07066 -3.30235,0.233065 -3.30235,0.233066 -1.23473,-0.669536 c -0.67909,-0.368244 -1.46887,-1.080584 -1.75505,-1.582977 l -0.52032,-0.913442 0.8731,-0.934475 0.87311,-0.934474 1.5875,0.247855 c 0.87312,0.136321 3.01625,0.222927 4.7625,0.192458 3.63711,-0.06346 5.1061,0.351446 7.87527,2.224329 3.36731,2.277425 5.32695,2.45177 10.92634,0.972096 3.44375,-0.910033 4.77696,-0.76679 7.03273,0.755611 3.19163,2.154 6.66406,2.521529 12.66851,1.340858 1.91274,-0.376107 4.22615,-0.790164 5.14091,-0.920127 2.28134,-0.324118 4.9059,0.359773 6.07875,1.583962 l 0.94664,0.988082 9.23765,-0.125183 c 5.08071,-0.06885 9.87265,-0.205379 10.64876,-0.303395 0.77611,-0.09802 2.01912,-0.03523 2.76225,0.139521 0.76315,0.179461 2.25482,0.190001 3.42767,0.02422 1.47187,-0.208048 2.77338,-0.144446 4.46969,0.218422 l 2.39317,0.511938 4.24242,-0.230907 4.24242,-0.230906 0.47135,0.567942 c 0.7266,0.875499 0.27095,1.471426 -1.96329,2.567699 l -2.05401,1.00784 -8.11389,0.02967 -8.11389,0.02967 z m -25.87577,-67.713086 c -4.77544,-1.824216 -5.93292,-1.895079 -13.10588,-0.802366 -2.96751,0.452063 -6.82491,0.763279 -9.82467,0.792656 l -4.93889,0.04837 -2.29306,-1.00886 c -1.26118,-0.554874 -3.17905,-1.258366 -4.26193,-1.563316 l -1.96888,-0.554455 -6.55167,0.466846 c -7.03376,0.501198 -9.92173,0.370463 -14.91058,-0.674986 -1.74625,-0.36594 -5.87375,-0.830641 -9.17222,-1.032671 l -5.99722,-0.367326 -3.35139,-0.931089 c -6.45585,-1.793577 -8.2726,-1.830029 -14.96245,-0.30021 -11.90496,2.722396 -15.53808,2.588104 -21.19728,-0.783515 -2.98499,-1.778391 -4.97338,-2.063446 -11.30623,-1.620857 l -5.27432,0.368611 -1.02109,-0.584103 c -1.41285,-0.808202 -1.90167,-1.653246 -1.40923,-2.436187 l 0.38829,-0.617361 5.25435,-0.279992 c 9.85886,-0.525357 12.6367,-0.09036 16.56397,2.593821 0.78751,0.538245 2.35134,1.245934 3.47518,1.57264 l 2.04333,0.594012 2.79701,-0.408976 c 1.53835,-0.224938 4.4989,-0.800879 6.57899,-1.279871 6.46,-1.487572 7.2189,-1.601127 10.51209,-1.57294 3.20181,0.02741 6.0051,0.480384 9.69643,1.566833 1.16595,0.343168 5.03244,0.783122 9.525,1.083816 4.23926,0.28374 8.56998,0.767352 9.85541,1.100556 l 2.29305,0.594398 5.99722,-0.04455 c 3.29848,-0.02451 7.10848,-0.125251 8.46667,-0.223881 3.76163,-0.273164 7.53732,0.27879 9.9291,1.451498 l 2.06535,1.012655 3.35139,0.0078 c 1.84326,0.0043 5.49451,-0.280844 8.11388,-0.633663 2.61938,-0.35282 6.58813,-0.673595 8.81945,-0.712834 l 4.05694,-0.07134 2.29306,1.029931 2.29306,1.029932 2.99861,-0.41456 c 1.64923,-0.228008 3.87173,-0.573837 4.93889,-0.768509 1.06715,-0.194671 4.05994,-0.593617 6.65065,-0.886544 2.59071,-0.292928 5.36883,-0.666945 6.17361,-0.831149 2.05866,-0.420042 2.74824,-0.465707 6.93129,-0.459006 l 3.70417,0.0059 2.99861,0.85169 2.99861,0.851691 2.82223,-0.280385 c 1.55222,-0.154212 4.88499,-0.524141 7.40617,-0.822065 2.52117,-0.297925 5.10086,-0.541681 5.73264,-0.541681 h 1.14869 v 0.66236 c 0,0.364298 -0.21074,0.837252 -0.4683,1.051009 -0.74261,0.616314 -4.61832,1.706828 -9.52617,2.680396 -5.65687,1.12215 -9.52482,1.173571 -12.62555,0.167847 -3.40589,-1.104701 -5.31053,-1.175414 -10.18832,-0.378256 -2.42535,0.396365 -6.0766,0.899021 -8.11389,1.117014 -2.03729,0.217993 -5.33941,0.702089 -7.33805,1.075768 -4.32773,0.809145 -7.14533,0.843146 -9.06612,0.109406 z m -26.08433,-28.41968 c -5.26732,-2.121497 -7.96123,-2.677862 -16.16961,-3.339462 -8.61806,-0.69462 -13.33489,-0.742934 -16.52689,-0.169285 -7.13723,1.282666 -12.53577,1.934789 -16.00806,1.933713 -6.95419,-0.0022 -14.89663,-0.71915 -18.87361,-1.703793 l -3.70417,-0.917097 -5.82083,0.225798 -5.82084,0.225798 -2.00105,-0.757801 c -2.36454,-0.895454 -4.13838,-2.689406 -5.06918,-5.126671 l -0.64358,-1.685194 -1.99676,0.208702 c -1.09821,0.114786 -2.77573,0.552853 -3.72781,0.973481 -0.95209,0.420629 -2.74734,1.046901 -3.98945,1.391716 l -2.25839,0.626937 -1.54838,-0.75226 -1.54838,-0.752261 0.1026,-0.716454 c 0.0727,-0.507881 0.56475,-0.856779 1.6901,-1.198474 0.87313,-0.265111 2.90383,-0.951349 4.51266,-1.524973 5.52047,-1.968297 9.3968,-2.148643 11.92183,-0.554661 l 1.41511,0.893317 0.67887,1.997216 c 0.37338,1.098469 0.978,2.267595 1.3436,2.598057 l 0.66473,0.600842 7.45869,0.0088 7.45868,0.0088 2.99861,0.775676 c 1.97823,0.511724 4.55921,0.84057 7.58473,0.966378 2.52236,0.104886 5.25935,0.325589 6.0822,0.490452 1.87913,0.376492 6.01188,0.0046 15.41249,-1.387072 l 7.38358,-1.093037 4.43448,0.163734 c 5.6442,0.208401 15.84442,1.132192 18.36919,1.663622 1.06716,0.22462 3.92466,1.123237 6.35,1.996925 l 4.40973,1.588525 2.18395,-0.217866 c 1.20117,-0.119827 4.13805,-0.835651 6.52639,-1.590722 2.38834,-0.75507 5.61244,-1.733513 7.16466,-2.174318 l 2.82222,-0.801462 8.11389,-0.18886 c 12.83639,-0.298781 14.52216,-0.242809 17.28611,0.573947 4.70762,1.391115 17.4511,2.128891 23.49039,1.359962 4.96791,-0.632521 8.47133,-0.801864 9.05336,-0.437607 2.05374,1.2853 -3.06292,3.271525 -11.72986,4.553384 -4.32961,0.640358 -19.25517,-0.507132 -24.69444,-1.898532 -1.90568,-0.487485 -3.27929,-0.510562 -14.2875,-0.240037 l -7.23195,0.177723 -4.58611,1.518663 c -6.65173,2.202679 -10.64773,3.163788 -13.05278,3.139425 l -2.11667,-0.02144 z m 52.08725,-28.144067 c -0.63854,-0.1572 -1.44479,-0.54266 -1.79167,-0.85659 -0.4275,-0.38688 -1.28582,-0.57076 -2.66416,-0.57076 -1.11841,0 -3.64591,-0.33297 -5.61667,-0.73993 -4.08921,-0.84442 -6.59544,-0.76994 -11.00383,0.32703 -1.54546,0.38456 -3.85773,0.80363 -5.13838,0.93125 l -2.32847,0.23205 -2.9632,-0.69895 c -1.62976,-0.38443 -3.67758,-0.80385 -4.5507,-0.93206 -0.87313,-0.1282 -3.4925,-0.72599 -5.82084,-1.32841 l -4.23333,-1.09531 -3.175,-0.0235 c -1.74625,-0.0129 -5.55625,0.19773 -8.46667,0.46816 l -5.29167,0.49169 -3.06111,-0.75628 c -3.73659,-0.92315 -3.81692,-0.92369 -8.99395,-0.0607 -2.29499,0.38259 -6.71271,0.94391 -9.81716,1.24739 -6.08955,0.59529 -9.12514,1.03416 -12.17083,1.7596 -4.46838,1.06429 -7.74356,0.98856 -14.99306,-0.34668 -3.33411,-0.61409 -7.14239,-0.6844 -8.52834,-0.15746 -2.10611,0.80074 -6.67036,1.45617 -8.69969,1.24928 -2.67886,-0.27311 -3.82548,-0.84732 -8.22821,-4.12058 l -3.65533,-2.71759 -1.49561,-0.21849 c -0.82258,-0.12017 -1.89248,-0.14063 -2.37754,-0.0454 -2.46206,0.48306 -3.26799,0.68989 -6.52639,1.67495 l -3.52778,1.06649 -3.175,0.0447 -3.175,0.0447 -0.94052,-0.63853 c -2.32043,-1.57536 -1.30617,-2.87566 1.99885,-2.56256 l 2.11667,0.20052 3.70416,-1.02775 c 2.0373,-0.56526 4.5773,-1.27731 5.64445,-1.58233 3.4373,-0.98248 8.1992,-0.60204 11.00526,0.87922 0.44704,0.23598 1.66148,1.2009 2.69877,2.14426 4.19501,3.81517 6.17413,4.24698 12.04875,2.62885 3.50609,-0.96573 6.79644,-1.17 9.34861,-0.58037 0.77611,0.17931 2.20486,0.41346 3.175,0.52033 0.97014,0.10687 2.24014,0.26776 2.82222,0.35754 0.58209,0.0898 2.16959,0.265 3.52778,0.38938 l 2.46945,0.22615 2.99861,-0.71051 c 4.65184,-1.10224 9.22272,-1.82746 12.7,-2.01499 2.9974,-0.16165 7.09713,-0.63419 9.70139,-1.11818 1.55222,-0.28848 4.54228,-0.60794 6.64458,-0.7099 l 3.82235,-0.1854 1.38484,0.62447 1.38483,0.62447 5.90531,-0.25266 c 3.24792,-0.13897 7.57219,-0.23502 9.60948,-0.21344 l 3.70417,0.0392 4.00683,1.04013 c 2.20376,0.57208 4.40969,1.04014 4.90205,1.04014 0.49237,0 2.30272,0.34955 4.023,0.77678 l 3.1278,0.77678 2.72988,-0.4314 c 1.50143,-0.23727 3.76176,-0.6652 5.02294,-0.95095 1.26118,-0.28575 3.64243,-0.61427 5.29166,-0.73005 l 2.99862,-0.2105 1.5875,0.58201 c 0.87312,0.3201 3.25437,0.73253 5.29166,0.91651 4.41002,0.39825 5.50367,0.61639 5.98245,1.19329 l 0.35954,0.43322 10.85193,-0.15411 10.85192,-0.15412 3.1204,-0.67927 c 1.71623,-0.3736 3.57366,-0.91365 4.12763,-1.20012 0.55396,-0.28647 1.38736,-0.52085 1.852,-0.52085 0.82886,0 2.03142,0.97467 1.99295,1.61528 -0.0398,0.66218 -2.20445,2.01861 -5.1937,3.25446 l -3.07706,1.27215 -11.1125,0.0357 c -6.11188,0.0196 -11.66813,0.13441 -12.34722,0.25509 -0.6791,0.12067 -1.75717,0.0908 -2.3957,-0.0664 z M 312.74757,-134.4718 c -0.72012,-0.7709 -1.01959,-1.41632 -0.947,-2.041 l 0.10617,-0.91359 1.81351,0.013 c 2.10646,0.0151 2.94899,0.56572 2.94899,1.9273 0,1.10523 -0.45144,1.56363 -1.87522,1.90416 l -0.99329,0.23756 z m 25.29856,-0.75553 c -1.754,-1.00347 -2.28612,-1.8069 -1.74852,-2.64004 l 0.39837,-0.61736 1.84656,0.0517 c 1.3212,0.037 2.04545,0.25056 2.54565,0.75077 l 0.69911,0.6991 -0.38588,0.72103 c -0.45172,0.84403 -1.39573,1.83689 -1.73862,1.82858 -0.13166,-0.003 -0.85917,-0.36038 -1.61667,-0.79375 z m -34.9876,-0.2478 c -0.40388,-0.16338 -1.17457,-0.82025 -1.71263,-1.45971 l -0.9783,-1.16264 0.21571,-1.42834 c 0.40023,-2.65021 0.99789,-9.87894 1.00133,-12.11108 l 0.003,-2.21607 0.67486,-0.36117 c 0.3835,-0.20524 1.3587,-0.25863 2.25875,-0.12366 1.78629,0.26787 2.43441,1.05091 2.11592,2.5564 -0.26378,1.24694 -0.99144,10.56127 -1.04821,13.41764 l -0.0445,2.23763 -0.67886,0.4964 c -0.7665,0.56047 -0.79764,0.56314 -1.8075,0.1546 z m 23.13572,-0.70613 -0.88195,-0.67946 0.0927,-7.86756 c 0.051,-4.32716 0.17815,-8.13725 0.28263,-8.46687 0.10448,-0.32963 0.50604,-0.69964 0.89236,-0.82225 1.0808,-0.34303 3.4681,0.18109 3.80776,0.83599 0.5349,1.03133 -0.45358,16.43053 -1.10756,17.25432 -0.51653,0.65065 -2.07843,0.522 -3.0859,-0.25417 z m 24.8898,0.22348 -0.64504,-0.47167 0.1947,-1.90958 c 0.10708,-1.05027 0.45994,-3.97334 0.78413,-6.4957 0.56098,-4.36472 0.55067,-8.57506 -0.0279,-11.37708 l -0.23672,-1.14653 1.54341,0.0352 c 2.53674,0.0578 3.26423,0.39791 3.72835,1.74308 1.05689,3.06318 0.10053,14.53132 -1.56536,18.77106 l -0.51981,1.32292 h -1.30538 c -0.71796,0 -1.59565,-0.21226 -1.95043,-0.47167 z m 90.46854,-1.97528 c -2.57632,-0.51985 -5.97661,-2.85548 -6.70016,-4.60228 -0.24255,-0.58557 -0.5408,-1.06677 -0.66278,-1.06933 -0.12198,-0.003 -1.88866,0.38125 -3.92595,0.85293 -4.35925,1.00927 -7.35746,1.50852 -10.77863,1.7948 l -2.48836,0.20823 -2.9797,-1.03282 c -4.48102,-1.55319 -5.90789,-1.6269 -11.10879,-0.57383 -4.8593,0.98389 -5.67134,0.9444 -8.35155,-0.40617 L 392.8927,-143.6 h -2.40705 c -2.57412,0 -6.11497,0.76886 -7.39357,1.60544 -1.20294,0.78707 -3.08726,0.63939 -4.21461,-0.33032 l -0.97835,-0.84153 0.5177,-0.62387 c 0.688,-0.82907 4.34818,-2.44925 6.64686,-2.94223 1.01369,-0.2174 3.59972,-0.39527 5.74672,-0.39527 h 3.90365 l 1.74404,0.94923 1.74404,0.94922 2.53703,-0.41446 c 1.39537,-0.22796 3.54299,-0.5888 4.7725,-0.80188 2.84658,-0.49333 8.03043,0.0316 10.40559,1.05366 2.38156,1.02484 4.31551,0.92654 10.72092,-0.54488 7.00351,-1.60882 8.71833,-1.87297 10.60983,-1.63438 l 1.51624,0.19126 0.51223,0.99054 c 0.28172,0.5448 0.51223,1.31342 0.51223,1.70805 0,0.39463 0.46349,1.23595 1.02997,1.8696 l 1.02997,1.15209 2.586,-0.0469 c 1.4223,-0.0258 3.69725,-0.31155 5.05545,-0.63501 4.22069,-1.00517 7.49897,-1.27936 15.22515,-1.2734 l 7.46405,0.006 3.96647,-0.87731 c 2.18157,-0.48252 4.61712,-0.87643 5.41235,-0.87535 2.05774,0.003 4.02393,0.62334 4.44033,1.40139 0.53493,0.99953 0.43014,2.68283 -0.19955,3.20543 l -0.55648,0.46183 -1.64838,-0.48434 c -2.19255,-0.64422 -3.56238,-0.5485 -7.62684,0.53294 l -3.41257,0.908 -6.59338,-0.38822 -6.59337,-0.38822 -5.29167,0.93374 c -8.95127,1.57949 -10.23788,1.70753 -12.52361,1.24632 z"
       id="path1" /></g></svg>
