<?xml version="1.0" encoding="UTF-8" standalone="no"?>
<!-- Created with Inkscape (http://www.inkscape.org/) -->

<svg
   width="75.768593mm"
   height="69.966118mm"
   viewBox="0 0 75.768594 69.966117"
   version="1.1"
   id="svg1"
   xml:space="preserve"
   xmlns="http://www.w3.org/2000/svg"
   xmlns:svg="http://www.w3.org/2000/svg"><defs
     id="defs1" /><g
     id="layer1"
     transform="translate(-45.555908,-15.887739)"><path
       d="m 108.00611,85.51611 c -0.55138,-0.17116 -1.41976,-0.64413 -1.92972,-1.05104 -1.30331,-1.03993 -3.19234,-3.98715 -3.93998,-6.14702 -0.75276,-2.17473 -1.9553,-3.38576 -6.092375,-6.13539 -1.70487,-1.13311 -3.97852,-3.0497 -6.39312,-5.38914 -2.06101,-1.99685 -4.26367,-3.89368 -4.8948,-4.21516 -0.63112,-0.32149 -2.02119,-1.31146 -3.08904,-2.19994 -5.25903,-4.37565 -6.50268,-5.38402 -9.56783,-7.757674 C 70.28023,51.2121 68.24559,49.604376 67.57783,49.048025 l -1.21412,-1.011547 -1.65124,0.423028 c -1.36777,0.350406 -2.13907,0.378839 -4.49286,0.165623 -5.09297,-0.461341 -6.54282,-1.501959 -11.52673,-8.273187 -1.51816,-2.062595 -3.54564,-9.36867 -3.06497,-11.04468 0.41067,-1.431925 1.07314,-2.426545 1.61621,-2.426545 0.5058,0 2.10095,1.376173 2.10095,1.812546 0,0.250226 1.97662,2.303933 4.0621,4.220513 1.49811,1.376782 1.5491,1.399457 2.74423,1.220237 2.0605,-0.308991 4.20234,-2.492314 5.13559,-5.235071 0.5817,-1.709565 0.68373,-1.546477 -3.69591,-5.908126 -3.46639,-3.45216 -4.01267,-4.141701 -4.01267,-5.064934 0,-0.76613 1.94398,-1.628497 3.67102,-1.628497 0.76848,0 1.32075,-0.107658 1.23812,-0.241357 -0.082,-0.132746 0.0598,-0.201387 0.31512,-0.152535 0.25535,0.04885 0.46428,0.107041 0.46428,0.129309 0,0.06365 0.95037,0.286906 2.24895,0.528301 2.80021,0.520536 5.47052,1.578793 6.4823,2.568966 0.81978,0.802277 1.78626,2.132204 2.52883,3.479799 1.501155,2.724251 3.147415,8.715594 3.523585,12.823564 0.0643,0.70217 0.15756,1.306274 0.20725,1.342453 0.0497,0.03618 0.50706,0.345571 1.01638,0.687538 0.50932,0.341967 1.64738,1.285675 2.52901,2.09713 1.88445,1.734447 2.78991,2.433305 5.73462,4.426128 1.20308,0.814182 2.72319,1.989049 3.37804,2.610815 0.65484,0.621767 2.14312,1.755416 3.30728,2.519222 2.76979,1.817246 3.42695,2.448445 6.34104,6.090532 1.34608,1.68235 3.26799,3.76383 4.270895,4.62551 1.00291,0.86167 3.01605,2.77733 4.47363,4.257 2.55664,2.5954 2.67356,2.67806 3.31373,2.34265 2.24831,-1.17801 5.71104,-0.82774 7.35899,0.7444 2.05603,1.96144 4.31388,5.89082 4.94284,8.60209 0.68755,2.96383 0.58994,3.41049 -1.09319,5.00212 -0.81434,0.77007 -2.27285,1.83546 -3.24115,2.36753 -0.96829,0.53206 -1.95637,1.13394 -2.19573,1.33749 -0.58785,0.4999 -3.60764,1.39889 -4.59188,1.36699 -0.43656,-0.0142 -1.24488,-0.16576 -1.79626,-0.33692 z m 3.11918,-1.06341 c 2.73,-0.75424 8.10568,-4.28395 8.63178,-5.66771 0.96753,-2.5448 -2.29956,-9.23225 -5.44291,-11.1412 -1.85723,-1.12788 -4.57794,-0.80042 -5.86734,0.70617 -0.80169,0.93673 -1.2796,0.65564 -3.27466,-1.92607 -0.94588,-1.22402 -3.10725,-3.53576 -4.80304,-5.1372 -1.695795,-1.60144 -3.976015,-4.01503 -5.067185,-5.36353 -2.49196,-3.079633 -3.73992,-4.25704 -6.40164,-6.039714 -1.16417,-0.779693 -2.65246,-1.903248 -3.3073,-2.49679 -0.65484,-0.593542 -2.26218,-1.838442 -3.57188,-2.766445 -2.50557,-1.775373 -4.38834,-3.28493 -5.85787,-4.696707 -0.48539,-0.466311 -1.57339,-1.316995 -2.41778,-1.890408 -2.09505,-1.422724 -2.192005,-1.567695 -1.90438,-2.847771 0.39115,-1.740912 -0.855825,-7.144386 -2.572885,-11.148923 -1.41686,-3.304414 -3.84857,-5.209111 -6.56167,-5.139598 -0.43656,0.01119 -1.79786,-0.15348 -3.02511,-0.365921 -1.22725,-0.212442 -2.44466,-0.318558 -2.70537,-0.235813 -0.43882,0.139276 -0.42611,0.226319 0.17121,1.172531 0.35487,0.562147 1.09603,1.484181 1.64703,2.048962 0.551,0.564782 1.3528,1.496748 1.78178,2.071036 0.42897,0.574288 1.28959,1.553168 1.91248,2.175289 0.62288,0.622121 1.25265,1.355597 1.39948,1.629946 0.48617,0.908425 -0.73034,3.418134 -2.70721,5.585047 -0.47055,0.515784 -1.11045,1.245897 -1.422,1.622472 -0.34123,0.412456 -1.2542,0.913548 -2.29621,1.260308 -2.52791,0.841233 -3.48026,0.528533 -5.81581,-1.909587 -0.98962,-1.033083 -2.17053,-2.451226 -2.62424,-3.151429 -0.91741,-1.415805 -1.43641,-1.604114 -1.68552,-0.611561 -0.21499,0.856577 0.37696,3.954902 0.99633,5.214905 0.26539,0.539906 0.48532,1.194749 0.48872,1.455208 0.0135,1.033659 3.2482,5.672776 5.33022,7.644415 0.63041,0.596991 1.64063,1.337673 2.24492,1.64596 1.3698,0.698821 3.77487,1.092728 5.06586,0.829697 2.19785,-0.447797 2.83716,-0.621629 3.4439,-0.93641 0.65035,-0.337401 1.85092,-0.259381 2.26195,0.146994 0.126,0.124566 0.36751,0.504136 0.5367,0.843491 0.16918,0.339354 1.43532,1.486684 2.81362,2.549621 1.378315,1.062938 2.998445,2.313354 3.600305,2.778704 2.54333,1.966491 6.32091,5.080791 6.40578,5.281041 0.12416,0.29297 4.28102,3.37026 4.55261,3.37026 0.40911,0 4.09434,3.13979 6.99319,5.95817 1.59846,1.55407 3.38026,3.06739 3.95958,3.36294 0.5793,0.29554 1.66355,0.9981 2.40942,1.56124 0.74588,0.56314 1.48739,1.02389 1.647825,1.02389 0.16043,0 0.44725,0.21157 0.63742,0.47016 0.19014,0.25858 0.89932,0.91798 1.57595,1.46533 1.14175,0.9236 1.2208,1.06583 1.09892,1.97725 -0.10235,0.7654 0.0859,1.43313 0.85332,3.0267 1.16808,2.42559 2.25295,3.72553 3.69671,4.42961 1.27503,0.6218 1.48378,0.63267 3.175,0.16544 z m -2.91042,-2.33122 c -1.52296,-0.86961 -3.25786,-4.20899 -3.28688,-6.32668 -0.0112,-0.81898 0.14889,-1.89425 0.35582,-2.3895 0.47515,-1.13719 3.01515,-3.5584 4.29318,-4.09239 1.42429,-0.59511 3.62998,-0.26713 5.74058,0.8536 2.64727,1.40571 3.67008,3.15088 3.69048,6.2969 0.0143,2.21075 -0.16822,2.62131 -1.71223,3.85067 -1.57155,1.25129 -2.2951,1.47976 -7.22887,2.28255 -0.52969,0.0862 -1.14583,-0.0719 -1.85208,-0.47515 z m 3.99275,-1.27803 c 3.23248,-0.66753 5.03993,-1.73207 5.30179,-3.12262 0.23801,-1.26392 -0.0377,-3.45641 -0.57681,-4.58694 -0.81139,-1.7015 -4.21554,-3.13241 -6.18828,-2.60121 -1.12949,0.30414 -3.45549,2.27443 -3.45549,2.92705 0,0.21949 -0.16083,0.63393 -0.3574,0.92097 -0.81424,1.18898 -0.75741,1.91091 0.33375,4.23937 0.70947,1.51398 1.2484,2.32045 1.66136,2.48609 0.33619,0.13485 0.62205,0.25273 0.63524,0.26195 0.0132,0.009 1.20383,-0.22687 2.64584,-0.52466 z"
       style="fill:#ddaabb;fill-opacity:1"
       id="path1-7" /></g></svg>
