<?xml version="1.0" encoding="UTF-8" standalone="no"?>
<!-- Created with Inkscape (http://www.inkscape.org/) -->

<svg
   width="143.62288mm"
   height="236.74408mm"
   viewBox="0 0 143.62288 236.74408"
   version="1.1"
   id="svg1"
   xml:space="preserve"
   xmlns="http://www.w3.org/2000/svg"
   xmlns:svg="http://www.w3.org/2000/svg"><defs
     id="defs1" /><g
     id="layer1"
     transform="translate(-166.26957,-345.91668)"><path
       d="m 227.99844,582.46267 c -0.65885,-0.0804 -1.4087,-0.35691 -1.66633,-0.61454 -0.25764,-0.25764 -1.02288,-0.8111 -1.70054,-1.22991 l -1.2321,-0.76148 -0.21097,-1.30155 c -0.11603,-0.71585 -0.69564,-2.73029 -1.28802,-4.47654 -3.39708,-10.01414 -4.2251,-12.74585 -5.0258,-16.58056 -1.13034,-5.41346 -4.81931,-19.32191 -5.64529,-21.28437 -0.48273,-1.14691 -1.65539,-3.5166 -2.60592,-5.26598 -0.95052,-1.74938 -2.16519,-4.37876 -2.69925,-5.84306 -0.53406,-1.46431 -1.17473,-2.74055 -1.4237,-2.83608 -0.58589,-0.22483 -1.59076,0.88127 -3.00077,3.3031 -0.62131,1.06715 -1.51366,2.33715 -1.983,2.82222 -1.66519,1.721 -4.74669,6.58707 -6.92543,10.93611 -1.21503,2.42535 -2.93864,5.4416 -3.83026,6.70278 -0.89162,1.26118 -2.04742,3.00743 -2.56845,3.88056 -1.45629,2.4404 -1.7259,2.87536 -2.76918,4.46746 -0.53357,0.81427 -0.97014,1.5791 -0.97014,1.69963 0,0.12052 -0.89517,2.07629 -1.98927,4.34616 -1.09409,2.26986 -2.45446,5.1589 -3.02304,6.42008 -0.56857,1.26118 -1.47805,3.16618 -2.02105,4.23333 -0.543,1.06716 -1.08769,2.4976 -1.21043,3.17877 -0.12273,0.68116 -0.62639,1.67335 -1.11923,2.20486 l -0.89607,0.96626 h -1.42003 c -1.54384,0 -2.52468,-0.39618 -3.75489,-1.51669 -1.02744,-0.93581 -1.00249,-1.70888 0.0973,-3.01596 0.4901,-0.58245 1.06772,-1.58682 1.28359,-2.23192 0.21587,-0.64511 0.67274,-1.49043 1.01525,-1.87848 0.34252,-0.38806 0.95677,-1.83809 1.365,-3.22229 0.40823,-1.3842 0.97859,-2.71288 1.26746,-2.95262 0.69162,-0.57399 2.37831,-3.93101 3.15181,-6.27306 0.52264,-1.58245 4.06337,-7.35281 8.27213,-13.4812 0.59963,-0.87312 1.97217,-3.30545 3.05008,-5.40516 1.07792,-2.09971 2.79529,-5.03659 3.81638,-6.52639 1.02109,-1.4898 2.37508,-3.62154 3.00887,-4.7372 0.63378,-1.11566 1.29199,-2.02847 1.46269,-2.02847 0.42106,0 4.92953,-6.87445 4.92953,-7.51647 0,-0.28106 0.24159,-0.71153 0.53687,-0.9566 0.31102,-0.25812 0.50542,-0.91267 0.46211,-1.55587 -0.0411,-0.61066 0.0723,-1.34241 0.252,-1.6261 0.49263,-0.77756 0.9584,-5.6042 1.03704,-10.74635 0.0701,-4.5811 0.92606,-13.79657 1.62205,-17.4625 0.2026,-1.06715 0.44109,-2.57528 0.52997,-3.35139 0.0889,-0.77611 0.30784,-2.52236 0.48656,-3.88056 0.17872,-1.35819 0.4235,-3.58069 0.54394,-4.93888 0.12045,-1.3582 0.44101,-3.66007 0.71236,-5.11528 1.59777,-8.5686 1.99091,-10.88188 2.608,-15.34584 1.17857,-8.5256 1.43343,-12.45811 1.34709,-20.78608 l -0.0838,-8.08609 -1.99184,-0.45228 c -3.33732,-0.75778 -6.14991,-2.4918 -9.65636,-5.95332 -4.26618,-4.21152 -5.27375,-6.047 -8.3271,-15.16945 l -1.06269,-3.175 -0.19869,-4.2834 c -0.24602,-5.30376 0.25387,-8.97722 1.8894,-13.8843 0.67896,-2.0371 1.69188,-5.45023 2.25093,-7.58473 1.93682,-7.39495 1.95989,-7.45072 4.34086,-10.49396 3.21813,-4.11327 8.55531,-9.12808 11.52077,-10.82493 0.48507,-0.27756 1.80489,-1.02873 2.93294,-1.66926 2.73037,-1.55039 7.21769,-2.90943 10.47292,-3.17185 l 2.64614,-0.21331 2.82192,0.76423 c 1.55205,0.42033 3.24729,1.07229 3.76718,1.4488 0.66191,0.47935 1.3726,0.64832 2.37085,0.56369 1.7353,-0.14712 2.62711,0.41859 3.56833,2.26353 0.38576,0.75615 1.41636,2.11048 2.29022,3.00962 0.87387,0.89914 1.68565,2.05592 1.80396,2.57061 0.3039,1.32212 2.13111,4.54572 3.5824,6.32015 1.36444,1.66826 2.51947,5.2333 2.54162,7.84483 0.007,0.87313 0.38752,3.25438 0.84469,5.29167 l 0.83123,3.70417 -0.2664,2.82222 c -0.14652,1.55222 -0.51319,4.20409 -0.81483,5.89304 -0.30164,1.68895 -0.45999,3.61587 -0.35188,4.28205 0.1408,0.86769 6.8e-4,1.49758 -0.49405,2.22084 -1.58513,2.31741 -3.55758,5.88154 -6.32637,11.43151 l -2.93904,5.89125 -1.52087,1.36843 c -7.28528,6.55508 -11.88073,9.04753 -17.70155,9.60086 l -2.46419,0.23424 -0.28331,1.41111 c -0.15582,0.77611 -0.28268,4.98299 -0.28192,9.34861 7.7e-4,4.36563 -0.13652,9.2075 -0.30509,10.75973 -0.63797,5.87476 -1.42793,12.07856 -1.82633,14.34277 -0.22727,1.29159 -0.31608,2.60145 -0.19737,2.9108 l 0.21584,0.56247 2.0394,-0.89865 c 1.12167,-0.49426 2.59502,-1.33252 3.27412,-1.86281 1.91613,-1.49623 2.82956,-2.01506 5.66141,-3.21567 1.44587,-0.613 4.1675,-1.99128 6.04805,-3.06283 1.88055,-1.07155 4.524,-2.41247 5.87433,-2.97982 1.35034,-0.56735 4.4127,-2.15604 6.80525,-3.53042 2.51221,-1.44312 5.24696,-2.72665 6.47289,-3.03799 1.16753,-0.29651 2.16759,-0.57992 2.22234,-0.62979 0.0548,-0.0499 0.33414,-2.20433 0.62085,-4.78767 0.28671,-2.58334 0.68164,-5.29246 0.87761,-6.02027 0.19598,-0.7278 0.2907,-2.64395 0.21048,-4.25809 -0.15661,-3.15121 0.29739,-4.70406 1.44991,-4.95929 0.34219,-0.0758 2.70113,-0.0662 5.2421,0.0212 2.64317,0.0909 4.88059,0.0131 5.22911,-0.18197 0.34429,-0.19268 1.32668,-0.22997 2.25923,-0.0858 0.96117,0.14863 1.8277,0.11097 2.07557,-0.0902 0.23404,-0.18993 0.55829,-0.26328 0.72056,-0.16299 0.16227,0.10029 0.92329,0.26317 1.69115,0.36195 4.48836,0.57743 6.88847,2.616 6.14246,5.21719 -0.15685,0.54692 -0.3914,2.86143 -0.52121,5.14336 -0.1298,2.28192 -0.47533,5.10145 -0.76783,6.26562 -0.45999,1.83079 -0.70575,3.6713 -1.34251,10.05416 -0.0677,0.6791 -0.21763,3.53652 -0.33307,6.34981 l -0.20989,5.11509 -0.80488,0.80489 c -1.06523,1.06522 -2.99441,1.35742 -4.51283,0.68351 -3.16092,-1.40288 -8.16025,-2.04687 -12.22145,-1.57429 l -2.91454,0.33914 -1.22843,-0.58293 c -2.49085,-1.18198 -3.75615,-4.44278 -2.32711,-5.9972 l 0.66955,-0.72829 -0.39698,-1.6757 -0.39698,-1.67569 h -0.98876 c -1.11597,0 -4.63745,1.40137 -6.56604,2.61295 -0.70434,0.44248 -2.23312,1.15373 -3.39728,1.58055 -2.89101,1.05994 -4.24984,1.7114 -6.33549,3.03744 -0.97812,0.62188 -3.28653,1.79247 -5.12979,2.60132 -1.84327,0.80885 -3.58952,1.62406 -3.88056,1.81158 -0.29104,0.18752 -1.75337,1.09718 -3.24962,2.02147 -1.49625,0.92429 -2.67876,1.83927 -2.6278,2.0333 0.13361,0.5087 3.50849,2.12032 6.58298,3.1436 1.4552,0.48433 3.392,1.26723 4.30398,1.73977 2.37477,1.23047 6.97428,1.85048 10.42735,1.4056 3.80057,-0.48966 5.73416,0.0148 9.36109,2.44247 5.07737,3.39845 9.38736,7.96331 12.40565,13.13926 0.56524,0.9693 2.17137,3.42993 3.56919,5.46806 1.39781,2.03812 3.82249,6.32506 5.38816,9.52652 1.56568,3.20146 3.79207,7.24958 4.94755,8.99583 3.72865,5.63507 8.129,13.96874 10.83977,20.52907 1.71435,4.14891 3.44213,7.54617 4.86364,9.56315 1.55342,2.20416 3.03097,5.16732 4.60869,9.2425 0.71362,1.84327 2.13473,4.62139 3.15801,6.17361 1.02328,1.55223 2.27557,3.5366 2.78287,4.40973 0.5073,0.87312 1.72349,2.58048 2.70265,3.79414 0.97916,1.21365 1.78029,2.34069 1.78029,2.50455 0,0.16385 0.47336,0.99649 1.05191,1.8503 0.57856,0.85382 1.05481,1.8813 1.05834,2.2833 0.004,0.402 0.26398,1.48682 0.57879,2.41072 l 0.57236,1.6798 -0.38841,0.85248 -0.38842,0.85249 -1.15409,-0.002 c -0.63475,-10e-4 -1.61092,-0.30349 -2.16926,-0.67159 -1.24049,-0.81781 -4.80566,-4.85321 -4.80566,-5.4395 0,-0.23319 -0.31436,-0.97713 -0.69857,-1.6532 -0.3842,-0.67607 -1.22982,-2.34047 -1.87914,-3.69866 -0.64931,-1.3582 -1.94383,-3.5807 -2.87671,-4.93889 -1.76059,-2.5633 -4.49901,-7.87723 -5.63567,-10.93611 -0.77236,-2.07853 -2.85417,-6.33006 -3.71393,-7.58473 -1.03693,-1.5132 -3.07004,-5.62329 -5.32244,-10.75972 -1.19118,-2.71639 -2.75897,-6.05014 -3.48398,-7.40833 -2.58695,-4.84621 -5.06944,-9.17972 -6.96128,-12.15179 -1.05647,-1.65971 -3.43521,-6.03391 -5.28608,-9.72043 -1.85088,-3.68653 -4.2238,-8.01247 -5.27316,-9.6132 -1.04937,-1.60073 -2.78601,-4.24523 -3.85922,-5.87667 -2.1588,-3.28173 -6.0499,-7.17889 -8.36532,-8.37834 -0.94138,-0.48767 -2.29101,-0.81495 -3.61812,-0.87739 -1.16417,-0.0548 -3.38667,-0.15957 -4.93889,-0.23289 -3.63103,-0.17149 -5.36573,-0.48515 -8.41044,-1.52072 -1.36007,-0.46259 -2.88162,-0.84353 -3.38121,-0.84654 -0.49959,-0.003 -2.0196,-0.63649 -3.37779,-1.40773 -4.89906,-2.78189 -10.92935,-5.66902 -11.63092,-5.56855 l -0.71631,0.10258 -0.24338,2.82222 c -0.48068,5.57376 -0.95669,9.58113 -1.52952,12.87639 -0.35451,2.03942 -0.62603,5.90629 -0.69357,9.87778 -0.061,3.58951 -0.23791,7.55826 -0.39304,8.81945 -0.15514,1.26118 -0.25073,4.3271 -0.21244,6.81317 l 0.0696,4.52011 0.8838,1.5081 c 0.4861,0.82946 0.88381,1.914 0.88381,2.41009 0,1.68683 1.4049,5.45772 3.73067,10.01351 1.27607,2.49961 2.61872,5.33849 2.98366,6.30863 0.92473,2.45822 4.39527,15.23769 5.29705,19.50512 0.1759,0.83241 0.79282,2.97553 1.37094,4.7625 0.96493,2.98265 1.4425,4.32417 4.00382,11.247 0.47892,1.29444 1.17977,2.80256 1.55745,3.35139 1.16901,1.69879 1.87045,3.51799 1.9286,5.00186 l 0.0557,1.42253 -0.85077,0.89662 c -0.46792,0.49314 -0.93014,0.87396 -1.02716,0.84626 -0.097,-0.0277 -0.71545,-0.11612 -1.3743,-0.19648 z m 40.18858,-126.05172 c 0.21248,-0.39702 0.77458,-3.69108 1.2491,-7.32014 0.47452,-3.62905 1.10213,-8.02703 1.39468,-9.77328 0.87371,-5.2153 1.22884,-8.0036 1.05516,-8.28463 -0.0901,-0.14581 -1.55652,-0.53639 -3.25867,-0.86795 -1.70215,-0.33156 -3.75464,-0.76589 -4.56107,-0.96519 -0.80644,-0.1993 -2.1083,-0.25389 -2.89301,-0.12131 l -1.42676,0.24105 -0.20021,1.47124 c -0.11011,0.80918 -0.36253,2.89999 -0.56092,4.64624 -0.77021,6.77946 -1.37552,11.38419 -1.79181,13.63086 l -0.43395,2.34198 0.43143,1.92782 0.43142,1.92782 1.37038,0.41058 c 0.75371,0.22582 2.29535,0.4966 3.42586,0.60174 1.13052,0.10514 2.69048,0.32228 3.46659,0.48253 0.77612,0.16025 1.52459,0.30962 1.66329,0.33193 0.13869,0.0223 0.42602,-0.28427 0.63849,-0.68129 z m -4.4976,-3.2978 c -1.59511,-0.54699 -2.47791,-1.55922 -2.85955,-3.27879 l -0.32794,-1.47762 0.77412,-0.72724 0.77411,-0.72725 h 1.7928 1.79281 l 1.09487,1.247 c 1.38892,1.58189 1.42894,2.8985 0.12474,4.10334 -1.28158,1.18395 -1.80668,1.32668 -3.16596,0.86056 z m -44.27589,-34.96498 c 2.91106,-0.68634 5.18509,-1.87079 7.85065,-4.0891 4.6908,-3.90372 5.85911,-5.29059 8.04741,-9.55284 1.15482,-2.24929 3.0897,-5.86614 4.29974,-8.03744 l 2.20006,-3.94781 0.33009,-2.70728 c 0.18155,-1.489 0.47967,-3.18353 0.66249,-3.76561 0.18282,-0.58209 0.52002,-2.35597 0.74933,-3.94198 l 0.41693,-2.88364 -0.44265,-2.58441 c -0.24347,-1.42143 -0.57044,-4.02483 -0.72662,-5.78534 -0.30923,-3.48574 -0.51296,-4.03223 -2.49739,-6.69908 -0.73099,-0.98236 -1.83972,-2.79771 -2.46385,-4.0341 -1.1291,-2.23674 -3.05965,-4.47519 -4.54541,-5.27034 -0.42849,-0.22932 -1.252,-1.18555 -1.83003,-2.12497 l -1.05096,-1.70803 -1.49043,-0.60008 c -3.2928,-1.32578 -9.65903,-0.94401 -13.13209,0.78749 -5.75706,2.8702 -10.28201,6.57697 -14.07699,11.53166 -2.22047,2.89901 -3.33692,5.43019 -4.6033,10.43643 -0.46627,1.84326 -1.26053,4.6154 -1.76502,6.16031 -1.78603,5.46944 -1.99925,6.76476 -2.00954,12.20816 l -0.01,5.22203 0.59418,2.05128 c 0.32679,1.1282 0.72285,2.21002 0.88012,2.40405 0.15727,0.19403 0.86497,2.01965 1.57267,4.05695 0.7077,2.03729 1.67192,4.36172 2.14271,5.1654 1.11875,1.90978 4.92684,5.38029 7.09482,6.46586 3.29161,1.64821 9.65316,2.22082 13.80295,1.24243 z m 8.5481,-15.70728 c -1.45521,-0.57441 -3.0824,-1.04496 -3.61597,-1.04567 -1.08334,-10e-4 -1.95418,-0.74429 -3.1926,-2.72333 -2.03611,-3.25376 -1.28166,-4.25569 3.0361,-4.03203 0.58018,0.0301 1.3834,0.46537 1.94027,1.05155 0.52264,0.55015 1.5522,1.36095 2.28791,1.80177 l 1.33765,0.8015 1.13179,-0.23952 c 0.62249,-0.13173 1.8715,-0.32188 2.77559,-0.42255 l 1.6438,-0.18304 0.76802,0.76803 0.76803,0.76802 -0.23532,0.93759 c -0.12943,0.51568 -0.41038,1.14853 -0.62434,1.40633 -0.57333,0.69083 -2.72736,1.70235 -4.14037,1.9443 l -1.23473,0.21142 z m 0.54021,-20.58302 c -0.46136,-0.46136 -1.03476,-1.4928 -1.27424,-2.29209 l -0.4354,-1.45326 0.63939,-0.70652 c 0.35167,-0.38859 0.97198,-0.70564 1.37847,-0.70456 1.31498,0.004 3.4132,0.73188 4.10704,1.42573 l 0.67632,0.67632 -0.2958,0.80008 c -0.16269,0.44004 -0.23178,0.98114 -0.15353,1.20244 0.22154,0.62656 -1.63494,1.89069 -2.77662,1.89069 -0.61081,0 -1.36664,-0.33984 -1.86563,-0.83883 z"
       style="fill:#ddaabb;fill-opacity:1"
       id="path1-3" /></g></svg>
