<?xml version="1.0" encoding="UTF-8" standalone="no"?>
<!-- Created with Inkscape (http://www.inkscape.org/) -->

<svg
   width="304.67123mm"
   height="152.57663mm"
   viewBox="0 0 304.67122 152.57663"
   version="1.1"
   id="svg1"
   xml:space="preserve"
   xmlns="http://www.w3.org/2000/svg"
   xmlns:svg="http://www.w3.org/2000/svg"><defs
     id="defs1" /><g
     id="layer1"
     transform="translate(189.70193,-495.44407)"><path
       style="fill:#ddaabb;fill-opacity:1"
       d="m 72.017561,647.38002 c -1.84463,-0.32566 -4.425436,-0.71316 -5.735124,-0.86112 -1.309687,-0.14796 -3.631406,-0.38818 -5.159374,-0.53383 -1.527969,-0.14565 -3.671094,-0.4525 -4.7625,-0.6819 -1.091407,-0.2294 -3.472656,-0.78959 -5.291667,-1.24489 l -3.307291,-0.8278 -3.836459,0.0249 c -2.110052,0.0137 -10.563489,0.0791 -18.785416,0.14535 -8.221927,0.0663 -18.2827078,0.24472 -22.357291,0.39659 -4.0745832,0.15187 -8.1227081,0.2407 -8.9958331,0.19739 -0.873125,-0.0433 -3.2543749,-0.10682 -5.2916669,-0.14113 -2.351188,-0.0396 -4.030053,-0.19276 -4.596374,-0.41931 -0.490714,-0.19631 -1.276619,-0.35692 -1.746455,-0.35692 -0.469837,0 -1.217959,-0.12679 -1.662494,-0.28176 -0.485753,-0.16933 -0.915556,-0.56522 -1.077192,-0.99218 -0.14792,-0.39074 -0.343622,-1.72247 -0.434892,-2.95939 -0.09127,-1.23693 -0.211536,-4.68974 -0.267257,-7.67292 l -0.10131,-5.42396 0.521086,-5.55625 c 0.286596,-3.05593 0.627433,-6.33015 0.757414,-7.27604 0.129982,-0.94588 0.373987,-3.38667 0.542234,-5.42396 0.168247,-2.03729 0.411394,-4.33352 0.540326,-5.10273 0.128932,-0.76922 0.36358,-3.56719 0.521439,-6.21771 0.15786,-2.65053 0.524463,-7.73617 0.814673,-11.30143 0.290211,-3.56526 0.584062,-7.07761 0.653002,-7.80521 0.06894,-0.7276 0.178793,-1.50151 0.244115,-1.71979 0.06532,-0.21828 0.412085,-3.01625 0.770583,-6.21771 0.358497,-3.20146 0.724586,-7.60677 0.813531,-9.78958 0.08894,-2.18282 0.280424,-5.93328 0.425509,-8.33438 0.145085,-2.40109 0.311527,-4.84187 0.36987,-5.42396 0.05834,-0.58208 0.236795,-3.14192 0.396558,-5.68854 0.159763,-2.54661 0.518534,-6.05896 0.797268,-7.80521 0.278735,-1.74625 0.637282,-4.9014 0.796772,-7.01145 0.15949,-2.11006 0.393847,-4.55084 0.520793,-5.42396 0.126947,-0.87313 0.582284,-3.6711 1.01186,-6.21771 0.429577,-2.54661 0.9204445,-5.64224 1.0908173,-6.87917 0.1703728,-1.23692 0.4304852,-2.96333 0.5780276,-3.83646 0.1475423,-0.87312 0.3845076,-2.18281 0.5265895,-2.91041 0.1420818,-0.72761 0.3921925,-1.77158 0.5558014,-2.31994 l 0.2974708,-0.99703 0.6199717,0.58244 c 0.4201516,0.39471 0.5667001,0.75027 0.4546887,1.10319 l -0.165283,0.52076 0.4274078,-0.16401 0.4274077,-0.16401 v 1.75558 c 0,0.96557 0.061592,1.694 0.1368703,1.61872 0.075279,-0.0753 0.247397,-0.83927 0.3824851,-1.69775 l 0.2456149,-1.56087 -0.1362984,3.43958 c -0.074964,1.89178 -0.3069025,5.28506 -0.5154188,7.54063 -0.2085163,2.25557 -0.5526753,5.1726 -0.7647978,6.48229 -0.2121225,1.30969 -0.5690211,3.58608 -0.7931079,5.05866 -0.2240869,1.47257 -0.4074306,3.44163 -0.4074306,4.37568 0,0.93405 -0.1733402,3.0956 -0.3852004,4.80345 -0.2118602,1.70784 -0.4552288,3.21848 -0.5408189,3.35697 -0.08559,0.13848 -0.2703537,2.36804 -0.4105855,4.95456 -0.1402318,2.58652 -0.3707601,5.77433 -0.5122851,7.08401 -0.141525,1.30969 -0.3744844,4.52438 -0.5176874,7.14375 -0.143203,2.61938 -0.324197,6.31032 -0.40221,8.20209 -0.07801,1.89177 -0.320365,4.92786 -0.538562,6.74687 -0.218197,1.81901 -0.463025,3.78354 -0.544063,4.36563 -0.08104,0.58208 -0.25449,2.07036 -0.385448,3.30729 -0.130957,1.23693 -0.365667,3.32052 -0.521576,4.63021 -0.15591,1.30968 -0.455206,3.98859 -0.665103,5.95312 -0.209897,1.96453 -0.393626,5.06016 -0.408287,6.87917 -0.01466,1.81901 -0.119257,4.20026 -0.232435,5.29166 -0.113178,1.09141 -0.405172,3.47266 -0.648876,5.29167 -0.243704,1.81901 -0.688433,6.10526 -0.988287,9.525 -0.299854,3.41974 -0.648489,7.11068 -0.774743,8.20208 -0.126255,1.09141 -0.305261,5.43719 -0.397791,9.6573 l -0.168236,7.67291 0.35391,0.42393 c 0.19465,0.23317 1.485003,0.81126 2.867451,1.28465 l 2.513542,0.86072 4.4933688,0.23025 c 2.8459173,0.14584 6.6291905,0.12645 10.3187497,-0.0529 3.2039594,-0.15572 12.6714745,-0.35246 21.0389215,-0.43719 8.367448,-0.0847 17.05901,-0.15133 19.314583,-0.148 l 4.101042,0.006 3.836458,0.95458 c 2.110052,0.52502 4.84849,1.13433 6.085417,1.35401 1.236927,0.21969 5.046927,0.76078 8.466666,1.20242 3.41974,0.44165 6.634427,0.86438 7.14375,0.93941 0.509323,0.075 1.878542,0.26806 3.042708,0.42895 l 2.116667,0.29254 2.513541,-0.32781 c 1.382448,-0.18029 3.108855,-0.38544 3.836459,-0.45589 0.727604,-0.0705 2.702119,-0.18485 4.38781,-0.25422 l 3.064895,-0.12612 0.729771,-0.5819 c 0.42294,-0.33724 0.738611,-0.85675 0.750795,-1.23561 0.01156,-0.35955 -0.05479,-1.69865 -0.147454,-2.97578 -0.100195,-1.38095 -0.05867,-2.61086 0.102451,-3.03464 0.14901,-0.39193 0.320988,-1.49013 0.382173,-2.44045 0.06118,-0.95032 0.220814,-2.62082 0.354732,-3.71223 0.133917,-1.0914 0.355902,-2.40389 0.493299,-2.91664 0.137397,-0.51274 0.383307,-1.1817 0.546465,-1.48656 0.163159,-0.30487 0.212537,-0.63842 0.109728,-0.74123 -0.102808,-0.10281 -7.35e-4,-0.29112 0.22683,-0.41847 0.299967,-0.16787 0.394137,-0.56454 0.342425,-1.44239 -0.04197,-0.71244 0.03186,-1.14707 0.179355,-1.05591 0.141896,0.0877 0.250683,-0.30434 0.250683,-0.9034 0,-0.58208 0.101799,-1.12125 0.226221,-1.19814 0.124422,-0.0769 0.293582,-1.12258 0.375911,-2.32374 0.08233,-1.20115 0.278185,-2.22675 0.435237,-2.2791 0.157051,-0.0524 0.285547,-0.27562 0.285547,-0.49617 0,-0.22054 0.167234,-0.77616 0.371631,-1.23472 0.204396,-0.45855 0.457962,-1.30998 0.56348,-1.89207 0.105517,-0.58208 0.206174,-1.37438 0.223682,-1.76067 0.01751,-0.38629 0.09971,-0.66039 0.18266,-0.60912 0.08295,0.0513 0.166361,-0.74448 0.185346,-1.76832 0.01898,-1.02384 0.161526,-2.01457 0.316753,-2.20161 0.15524,-0.18705 0.2071,-0.5359 0.11526,-0.77524 -0.0919,-0.23934 -0.023,-0.78272 0.15293,-1.20752 0.17595,-0.42479 0.37068,-1.16679 0.43273,-1.64889 0.062,-0.4821 0.18226,-1.65045 0.26713,-2.59634 0.0849,-0.94588 0.26088,-1.8329 0.39114,-1.97114 0.13027,-0.13825 0.23684,-0.35363 0.23684,-0.47864 0,-0.125 -0.13643,-0.14296 -0.30317,-0.0399 -0.21642,0.13376 -0.24782,-0.0321 -0.10972,-0.5797 0.10639,-0.42188 0.24606,-3.26738 0.31036,-6.32331 0.0643,-3.05594 0.22699,-5.95711 0.36151,-6.44705 0.13453,-0.48994 0.17224,-1.25259 0.0838,-1.69479 -0.091,-0.45512 -0.0568,-0.73971 0.0789,-0.65586 0.13785,0.0852 0.25271,-1.27479 0.27025,-3.20001 0.0168,-1.84147 0.0585,-3.73508 0.0926,-4.20802 0.0341,-0.47294 0.18383,-0.8599 0.33262,-0.8599 0.15866,0 0.1349,-0.16341 -0.0575,-0.39519 -0.23914,-0.28814 -0.27017,-0.87945 -0.11455,-2.18282 0.11739,-0.98319 0.23019,-2.74011 0.25066,-3.90428 0.0205,-1.16417 0.069,-2.23573 0.10778,-2.38125 0.0388,-0.14552 0.0545,-0.6813 0.0349,-1.19062 -0.0196,-0.50933 0.0962,-2.05714 0.25751,-3.43959 0.16128,-1.38245 0.33414,-3.67959 0.38414,-5.10477 0.05,-1.42518 0.22068,-2.74759 0.37928,-2.93869 0.16162,-0.19474 0.21558,-0.71135 0.12277,-1.1754 -0.0911,-0.45537 -0.0171,-1.39515 0.16431,-2.08839 0.18144,-0.69325 0.43265,-2.57014 0.55824,-4.17087 0.12559,-1.60073 0.26922,-3.56526 0.31918,-4.36563 0.05,-0.80036 0.18358,-2.5863 0.29694,-3.96875 0.11335,-1.38245 0.31207,-2.71407 0.44159,-2.95917 0.12952,-0.24509 0.23549,-1.04101 0.23549,-1.76871 0,-0.7277 0.12381,-1.64874 0.27514,-2.04677 0.15133,-0.39802 0.28402,-1.26898 0.29486,-1.93545 0.0108,-0.66647 0.13973,-1.3606 0.28642,-1.5425 0.14669,-0.1819 0.18841,-0.33073 0.0927,-0.33073 -0.0957,0 -0.0576,-0.21742 0.0846,-0.48315 0.14221,-0.26574 0.32716,-1.05451 0.41098,-1.75283 0.0838,-0.69833 0.197,-1.34411 0.2515,-1.43508 0.0545,-0.091 0.16907,-0.70118 0.25461,-1.35602 0.0855,-0.65485 0.22519,-1.78594 0.31033,-2.51355 0.0851,-0.7276 0.38582,-1.84565 0.66818,-2.48455 0.35935,-0.81309 0.43216,-1.25951 0.24268,-1.48782 -0.14889,-0.1794 -0.19638,-0.51986 -0.10554,-0.75659 0.0908,-0.23673 0.27149,-0.43041 0.40144,-0.43041 0.12995,0 0.23627,-0.38774 0.23627,-0.86164 0,-0.47391 0.12413,-1.27758 0.27584,-1.78594 0.1517,-0.50836 0.32695,-1.80796 0.38943,-2.888 0.0625,-1.08004 0.23602,-2.08612 0.38563,-2.23573 0.14961,-0.14961 0.27202,-0.55006 0.27202,-0.88987 0,-0.33982 -0.19229,-0.91132 -0.4273,-1.27 -0.23502,-0.35869 -0.32432,-0.6597 -0.19844,-0.66892 0.12588,-0.009 -0.009,-0.10791 -0.3003,-0.2193 -0.29104,-0.11139 -4.27964,-0.16307 -8.86354,-0.11486 -4.583908,0.0482 -9.525001,0.11311 -10.98021,0.14421 -1.455208,0.0311 -4.015052,-0.0417 -5.688541,-0.16186 l -3.042709,-0.2184 -2.778124,0.44059 c -1.527969,0.24232 -3.96875,0.55144 -5.423959,0.68693 -1.455208,0.13548 -5.443802,0.30961 -8.863541,0.38694 -3.41974,0.0773 -8.26366,0.33287 -10.764267,0.56787 l -4.546559,0.42728 -3.390941,-0.56443 c -2.180256,-0.36291 -5.105943,-0.61078 -8.194396,-0.69424 -2.641901,-0.0714 -5.618463,-0.24764 -6.614584,-0.39165 -0.99612,-0.14401 -4.395344,-0.26419 -7.55383,-0.26707 l -5.742704,-0.005 -2.988546,-1.07984 -2.988547,-1.07984 -4.3656248,-0.23156 c -2.5804435,-0.13688 -5.307021,-0.44679 -6.66778989,-0.7579 -1.26619075,-0.28948 -3.12018951,-0.55021 -4.11999721,-0.5794 -1.2812562,-0.0374 -1.9879575,-0.19084 -2.394189,-0.51979 -0.3169963,-0.25669 -0.5763569,-0.55731 -0.5763569,-0.66804 0,-0.11074 -0.203625,-0.42634 -0.4525001,-0.70135 l -0.4525001,-0.50001 0.3863543,-0.24437 c 0.2124948,-0.13441 1.4647166,-0.24621 2.782715,-0.24844 1.3179984,-0.002 3.6924485,0.23408 5.2765557,0.52512 1.6241443,0.2984 4.0166489,0.52917 5.4861477,0.52917 1.4332739,0 3.5236673,0.18728 4.6453193,0.41617 1.121651,0.2289 2.872804,0.72241 3.891449,1.09668 l 1.852084,0.6805 7.011458,0.21014 c 3.856302,0.11557 9.749895,0.33025 13.096875,0.47707 3.346979,0.14682 6.561666,0.39234 7.143749,0.5456 0.582084,0.15326 2.150468,0.38771 3.4853,0.52101 l 2.426966,0.24235 2.996992,-0.40725 c 1.987895,-0.27012 5.535945,-0.42683 10.537617,-0.46541 l 7.540625,-0.0582 4.101041,-0.62151 c 2.680715,-0.40627 5.246466,-0.61926 7.408333,-0.615 1.819011,0.004 3.974236,0.15014 4.78939,0.32569 l 1.482097,0.31918 2.883528,-0.42976 2.883527,-0.42976 9.037003,0.14886 c 6.13896,0.10112 9.25918,0.25009 9.72979,0.46451 0.40483,0.18445 0.74893,0.59922 0.82789,0.99789 0.0743,0.37524 0.25109,1.05073 0.39282,1.5011 0.16793,0.53364 0.16568,1.70619 -0.006,3.36638 -0.14529,1.40113 -0.394,3.11624 -0.55269,3.81135 -0.15869,0.69511 -0.38353,1.79962 -0.49966,2.45446 -0.11612,0.65484 -0.74373,3.51234 -1.39469,6.35 -0.65095,2.83766 -1.44304,6.58812 -1.76021,8.33437 -0.31716,1.74625 -0.69758,4.06797 -0.84538,5.15938 -0.14779,1.09141 -0.3725,2.69875 -0.49934,3.57187 -0.12684,0.87313 -0.41471,3.19485 -0.63971,5.15938 -0.22499,1.96453 -0.53011,5.06016 -0.67803,6.87917 -0.14792,1.81901 -0.44118,5.21229 -0.65169,7.54062 -0.21051,2.32833 -0.4542,6.01927 -0.54154,8.20208 -0.0873,2.18282 -0.26923,4.98079 -0.4042,6.21771 -0.13496,1.23693 -0.30705,4.57068 -0.38241,7.40834 -0.0754,2.83765 -0.31709,7.42156 -0.53717,10.18645 -0.22008,2.7649 -0.40284,6.5749 -0.40614,8.46667 -0.003,1.89177 -0.18609,4.8088 -0.40623,6.48229 -0.22013,1.67349 -0.52163,3.81662 -0.66999,4.7625 -0.14837,0.94589 -0.39497,2.4937 -0.54802,3.43958 -0.15304,0.94589 -0.56274,2.85089 -0.91043,4.23334 -0.34769,1.38245 -0.87143,3.88276 -1.16387,5.55625 -0.29244,1.67349 -0.64238,3.45942 -0.77764,3.96875 -0.13525,0.50932 -0.43831,1.69995 -0.673449,2.64583 -0.235142,0.94589 -0.549275,2.17369 -0.698074,2.72846 -0.1488,0.55476 -0.442137,2.15173 -0.651861,3.54882 -0.209725,1.39709 -0.381318,4.05949 -0.381318,5.91646 0,1.85697 0.137752,3.97308 0.306115,4.70247 l 0.306114,1.32616 -0.424644,0.64808 c -0.233555,0.35645 -0.996384,0.97776 -1.695177,1.38069 l -1.270533,0.73259 -5.159374,0.16641 c -2.837657,0.0915 -5.278438,0.24033 -5.423959,0.33066 -0.14552,0.0903 -1.336145,0.3451 -2.645833,0.56614 -1.309687,0.22105 -3.372319,0.38131 -4.583626,0.35613 -1.211307,-0.0252 -3.711619,-0.31222 -5.55625,-0.63788 z M 105.57306,539.22837 c 0,-0.0728 -0.0595,-0.13229 -0.13229,-0.13229 -0.0728,0 -0.13229,0.0595 -0.13229,0.13229 0,0.0728 0.0595,0.1323 0.13229,0.1323 0.0728,0 0.13229,-0.0595 0.13229,-0.1323 z m 5.55625,-33.60208 c 0,-0.0728 -0.0595,-0.13229 -0.13229,-0.13229 -0.0728,0 -0.13229,0.0595 -0.13229,0.13229 0,0.0728 0.0595,0.13229 0.13229,0.13229 0.0728,0 0.13229,-0.0595 0.13229,-0.13229 z M -171.1811,635.13198 c -1.67349,-0.10636 -4.65005,-0.27999 -6.61458,-0.38583 -1.96453,-0.10584 -5.22376,-0.18334 -7.24273,-0.17223 -2.01898,0.0111 -3.89421,-0.0993 -4.16719,-0.24541 -0.33542,-0.17951 -0.49633,-0.55618 -0.49633,-1.16184 v -0.89622 l 0.95318,-0.31458 c 0.52425,-0.17301 1.41003,-0.24152 1.96841,-0.15223 0.55837,0.0893 1.08087,0.0561 1.16112,-0.0737 0.0802,-0.12983 -0.15647,-0.77705 -0.52603,-1.43825 l -0.67192,-1.2022 0.43705,-1.53888 c 0.24038,-0.84638 0.53966,-2.66997 0.66508,-4.05242 0.12541,-1.38244 0.40445,-6.32354 0.62009,-10.9802 0.21563,-4.65667 0.53339,-9.12151 0.70613,-9.92188 0.17274,-0.80036 0.34604,-2.28864 0.38511,-3.30729 0.0391,-1.01865 0.15373,-4.23333 0.2548,-7.14375 0.10108,-2.91042 0.25789,-5.41073 0.34847,-5.55625 0.0906,-0.14552 0.25069,-0.97896 0.35581,-1.85208 0.10511,-0.87313 0.37563,-2.89719 0.60116,-4.49792 0.22553,-1.60073 0.41287,-3.32714 0.41631,-3.83646 0.003,-0.50932 0.11312,-1.09488 0.24374,-1.30125 0.13062,-0.20636 0.87294,-0.47567 1.64959,-0.59847 0.77666,-0.12279 2.48367,-0.33641 3.79336,-0.47471 1.30968,-0.1383 2.79718,-0.375 3.30554,-0.52601 0.50836,-0.15101 2.35383,-0.27833 4.10104,-0.28294 1.74721,-0.005 4.42691,-0.1832 5.95487,-0.39686 1.52797,-0.21367 4.56407,-0.62469 6.74688,-0.9134 2.18281,-0.2887 5.33797,-0.52931 7.01146,-0.53469 1.67349,-0.005 5.1263,-0.18883 7.67291,-0.40769 2.54662,-0.21885 6.44215,-0.50836 8.65675,-0.64334 2.21459,-0.13498 4.83396,-0.19405 5.82083,-0.13125 0.98686,0.0628 3.65064,0.2497 5.9195,0.41534 3.02147,0.22058 5.74696,0.22528 10.18646,0.0176 3.88649,-0.18185 6.72578,-0.19477 7.91334,-0.036 1.01864,0.13617 5.1263,0.39203 9.128123,0.56857 4.001823,0.17655 10.371666,0.29318 14.155208,0.25918 3.783542,-0.034 8.546041,-0.23174 10.583333,-0.43942 2.037292,-0.20767 5.265042,-0.50307 7.172779,-0.65645 1.907736,-0.15337 5.479611,-0.57623 7.937499,-0.93968 2.457889,-0.36345 5.719044,-0.7345 7.247013,-0.82456 2.035087,-0.11996 3.409942,-0.37303 5.140408,-0.94623 1.678869,-0.5561 2.941855,-0.79441 4.365625,-0.82373 1.312827,-0.027 2.596122,0.13412 3.723134,0.46754 0.945885,0.27983 1.940207,0.69615 2.209605,0.92515 l 0.489813,0.41636 -0.172942,1.58839 c -0.09512,0.87362 -0.350956,2.89808 -0.568529,4.49881 -0.217573,1.60073 -0.636777,4.57149 -0.931564,6.6017 -0.294787,2.0302 -1.016042,5.95926 -1.60279,8.73125 -0.586747,2.77198 -1.171591,5.63528 -1.299654,6.36288 -0.128063,0.72761 -0.473615,3.70417 -0.767894,6.61459 -0.294279,2.91041 -0.760172,6.54182 -1.035318,8.06979 -0.275147,1.52797 -0.582304,3.55203 -0.682571,4.49791 -0.100268,0.94589 -0.360589,2.37464 -0.578491,3.175 -0.217903,0.80037 -0.614212,2.11006 -0.880688,2.91042 -0.266476,0.80037 -0.624885,2.49007 -0.796463,3.7549 -0.171579,1.26483 -0.237475,2.42022 -0.146435,2.56752 0.09104,0.14731 0.09476,0.54977 0.0083,0.89437 -0.08649,0.3446 -0.488211,0.82205 -0.892717,1.06099 l -0.735464,0.43445 -4.605482,-0.004 c -2.533016,-0.002 -7.998764,0.0624 -12.146108,0.1442 -4.147343,0.0818 -9.624218,0.27987 -12.170833,0.44023 -2.546614,0.16037 -5.761302,0.37778 -7.143749,0.48313 -1.382448,0.10535 -5.251979,0.21279 -8.598959,0.23875 -3.346979,0.026 -7.395104,0.10925 -8.995833,0.18508 -1.600729,0.0758 -3.803385,0.19934 -4.894786,0.27444 -1.09141,0.0751 -3.82984,0.25439 -6.08542,0.3984 -2.25557,0.14401 -10.8876,0.3181 -19.18229,0.38687 -8.29469,0.0688 -16.21234,0.23677 -17.59479,0.37336 -1.38245,0.13659 -4.5376,0.54254 -7.01146,0.90211 -2.47385,0.35956 -5.8076,0.78223 -7.40833,0.93925 -1.60073,0.15703 -4.57729,0.26754 -6.61458,0.2456 -2.0373,-0.0219 -5.07339,-0.12693 -6.74688,-0.2333 z m 15.875,-2.38621 c 1.38245,-0.1425 4.53761,-0.54775 7.01146,-0.90055 2.47385,-0.35279 5.12734,-0.7201 5.89664,-0.81624 0.76931,-0.0961 8.09165,-0.20458 16.27188,-0.24099 8.18023,-0.0364 16.89721,-0.20078 19.37106,-0.36528 2.47386,-0.16451 6.58151,-0.42551 9.128126,-0.58002 2.546615,-0.15451 7.963959,-0.34003 12.038542,-0.41227 4.074583,-0.0723 7.825052,-0.18139 8.334375,-0.24254 0.509322,-0.0611 3.604947,-0.28992 6.879166,-0.50838 3.274219,-0.21845 6.548437,-0.39044 7.276042,-0.38219 0.727604,0.008 5.013854,-0.0705 9.524999,-0.17488 5.48731,-0.12703 8.30714,-0.28883 8.519488,-0.48884 0.174573,-0.16443 0.56841,-1.42994 0.875193,-2.81223 0.306783,-1.3823 0.786484,-3.20992 1.066002,-4.06137 0.279517,-0.85145 0.817071,-3.35189 1.194564,-5.55652 0.377492,-2.20464 0.791391,-4.42515 0.919775,-4.93447 0.128384,-0.50932 0.535288,-3.60495 0.90423,-6.87917 0.368943,-3.27422 0.800398,-6.72703 0.958789,-7.67292 0.158391,-0.94588 0.454536,-2.43416 0.658099,-3.30729 0.203563,-0.87312 0.558582,-2.59953 0.788932,-3.83645 0.230349,-1.23693 0.772491,-4.33256 1.204759,-6.87917 0.432268,-2.54662 0.859521,-6.13457 0.949451,-7.97324 l 0.163508,-3.34304 -0.578577,-0.30964 c -0.318217,-0.17031 -0.832571,-0.22903 -1.14301,-0.1305 -0.310438,0.0985 -1.050081,0.21233 -1.643651,0.2529 -0.59357,0.0406 -1.555469,0.2146 -2.137552,0.38674 -0.582083,0.17214 -1.653646,0.41343 -2.38125,0.53619 -0.727604,0.12276 -2.293351,0.2319 -3.479437,0.24252 -1.186086,0.0106 -3.563366,0.25983 -5.282845,0.55379 -1.719478,0.29396 -5.213888,0.70975 -7.765354,0.92397 -2.551467,0.21423 -5.829655,0.52034 -7.284863,0.68026 -1.455209,0.15991 -4.074584,0.34936 -5.820834,0.42098 -1.746249,0.0716 -6.032499,0.14838 -9.524999,0.17056 -3.4925,0.0222 -9.088438,-0.10988 -12.435417,-0.29347 -3.346979,-0.1836 -7.156981,-0.44736 -8.466671,-0.58614 -1.32398,-0.14029 -4.02589,-0.16662 -6.08541,-0.0593 -2.03729,0.10617 -5.25198,0.18387 -7.14375,0.17268 -1.89177,-0.0112 -5.60022,-0.1826 -8.24099,-0.3809 l -4.80141,-0.36054 -4.45901,0.33355 c -2.45245,0.18345 -5.40838,0.44415 -6.56873,0.57934 -1.16035,0.13518 -3.83926,0.24619 -5.95313,0.24668 -2.11387,5e-4 -5.21262,0.12577 -6.88611,0.27837 -1.67349,0.1526 -4.82864,0.57803 -7.01145,0.94538 -2.18282,0.36736 -5.75469,0.77406 -7.9375,0.90378 -2.18282,0.12972 -4.38547,0.36246 -4.8948,0.51719 -0.50932,0.15473 -1.74419,0.38735 -2.74416,0.51692 -0.99997,0.12957 -1.92931,0.34677 -2.06521,0.48267 -0.1359,0.1359 -0.36121,1.00843 -0.50067,1.93896 -0.13947,0.93053 -0.36723,2.64437 -0.50612,3.80854 -0.1389,1.16416 -0.39264,3.9026 -0.56387,6.08541 -0.17124,2.18282 -0.34784,5.33797 -0.39245,7.01146 -0.0446,1.67349 -0.20302,4.65005 -0.35202,6.61458 -0.149,1.96454 -0.38971,5.17922 -0.53493,7.14375 -0.14521,1.96454 -0.32558,4.52438 -0.40083,5.68855 -0.0752,1.16416 -0.21092,3.66448 -0.30151,5.55625 l -0.16469,3.43958 0.66019,1.93428 0.66019,1.93428 -0.59706,1.70866 c -0.39666,1.1352 -0.50338,1.76656 -0.31796,1.88116 0.1535,0.0949 2.84721,0.32652 5.98603,0.51478 3.13882,0.18826 6.54039,0.3836 7.55903,0.43409 1.01865,0.0505 3.69756,0.0506 5.95313,3.2e-4 2.25557,-0.0503 5.23213,-0.20808 6.61458,-0.35059 z m 0.92604,-5.01212 c -0.87312,-0.11511 -3.21851,-0.22223 -5.21197,-0.23802 -1.99346,-0.0158 -4.97002,-0.19967 -6.61458,-0.40862 -1.64456,-0.20895 -4.60858,-0.36726 -6.58671,-0.35182 l -3.5966,0.0281 -0.96747,-0.73792 c -0.5321,-0.40585 -0.96746,-0.83997 -0.96746,-0.9647 0,-0.12474 0.23768,-0.61662 0.52818,-1.09308 0.2905,-0.47646 0.52862,-1.12837 0.52917,-1.44869 5.4e-4,-0.32033 0.19507,-1.27283 0.43228,-2.11667 0.23721,-0.84385 0.52918,-2.48676 0.64882,-3.65093 0.11964,-1.16417 0.39944,-3.72401 0.62178,-5.68854 0.22234,-1.96453 0.40844,-4.40531 0.41356,-5.42396 0.005,-1.01865 0.12255,-2.03068 0.26095,-2.24896 l 0.25163,-0.39687 1.60659,0.0595 c 0.96798,0.0359 2.51879,0.37767 3.9015,0.85989 1.28203,0.44711 2.83809,0.80036 3.52558,0.80036 0.67686,0 1.87198,-0.12428 2.65583,-0.27618 0.78384,-0.15189 2.37767,-0.44735 3.54184,-0.65658 1.23239,-0.22149 3.82994,-0.38229 6.21771,-0.3849 2.25557,-0.002 5.3512,-0.12204 6.87916,-0.26572 1.52797,-0.14367 4.50454,-0.3874 6.61459,-0.54163 2.11005,-0.15423 5.97958,-0.39504 8.59896,-0.53515 2.61937,-0.14011 5.83406,-0.38002 7.14375,-0.53314 1.30968,-0.15313 3.27421,-0.33073 4.36562,-0.39468 1.09141,-0.0639 3.53219,0.0326 5.42396,0.2145 2.04432,0.19659 4.62019,0.26108 6.35,0.15896 1.60073,-0.0945 4.93448,-0.47467 7.40833,-0.84484 2.473856,-0.37017 5.390887,-0.74933 6.482293,-0.84259 1.105329,-0.0944 2.485703,-0.40613 3.116082,-0.70361 0.76526,-0.36113 1.450637,-0.49116 2.116666,-0.40158 0.541728,0.0729 1.788632,0.26365 2.770898,0.42397 0.982265,0.16033 2.531784,0.39508 3.443374,0.52167 0.911591,0.12659 2.786825,0.65028 4.167188,1.16375 l 2.50975,0.93358 3.175,0.29298 c 1.74625,0.16114 4.040517,0.30741 5.09837,0.32505 1.057854,0.0176 1.987615,0.13601 2.066136,0.26306 0.07852,0.12705 1.534723,0.22704 3.236004,0.2222 l 3.093239,-0.009 1.058334,-0.7774 c 0.582083,-0.42757 1.321967,-0.9703 1.644187,-1.20607 0.32222,-0.23577 1.27472,-0.49098 2.116667,-0.56713 l 1.530812,-0.13846 0.600952,0.49342 c 0.370716,0.30439 0.680176,0.94957 0.80774,1.68405 0.113734,0.65484 0.117063,1.54781 0.0074,1.98437 -0.109665,0.43657 -0.562445,2.3655 -1.006178,4.28652 -0.443732,1.92102 -0.799425,4.18321 -0.790428,5.02708 0.009,0.84388 0.108475,2.42729 0.221064,3.51869 l 0.204706,1.98438 -0.419501,0.92604 c -0.230726,0.50932 -0.508799,0.96573 -0.617939,1.01424 -0.109141,0.0485 -0.198438,0.26294 -0.198438,0.47652 0,0.21358 -0.439382,0.57191 -0.976404,0.79629 l -0.976405,0.40797 -3.587657,-0.30451 c -1.973212,-0.16748 -3.973917,-0.42412 -4.446012,-0.57033 -0.472094,-0.1462 -0.955496,-0.20578 -1.074226,-0.1324 -0.118731,0.0734 -1.10169,0.15377 -2.184355,0.17864 -1.082665,0.0249 -2.504263,0.1387 -3.159107,0.25295 -0.654844,0.11424 -1.964531,0.33631 -2.910417,0.49349 -0.945885,0.15717 -3.08901,0.51868 -4.762499,0.80334 -1.67349,0.28467 -4.411927,0.70555 -6.085417,0.93528 -1.673489,0.22974 -4.590521,0.59656 -6.482291,0.81516 -1.891771,0.2186 -5.781861,0.6273 -8.644645,0.90822 -2.862783,0.28092 -6.672783,0.63639 -8.466673,0.78993 -1.79388,0.15354 -5.22613,0.41299 -7.62723,0.57654 -2.40109,0.16356 -11.80703,0.33016 -20.90208,0.37022 -9.09505,0.0401 -17.25083,-0.0214 -18.12396,-0.13648 z m 35.85104,-2.39988 c 2.98318,-0.14766 6.31693,-0.31308 7.40834,-0.36761 1.0914,-0.0545 2.87734,-0.17334 3.96875,-0.26401 1.0914,-0.0907 3.11547,-0.27945 4.49791,-0.4195 1.38245,-0.14006 5.13292,-0.55084 8.334378,-0.91284 3.201458,-0.36201 6.773333,-0.7771 7.9375,-0.92242 1.164166,-0.14532 3.485885,-0.45345 5.159375,-0.68473 1.673489,-0.23127 3.578489,-0.53886 4.233333,-0.68353 0.654844,-0.14466 2.456903,-0.49199 4.004577,-0.77185 1.547674,-0.27985 4.504622,-0.62964 6.570996,-0.77731 2.066374,-0.14767 3.840818,-0.21671 3.943211,-0.15343 0.102392,0.0633 1.133561,0.14272 2.291487,0.17653 l 2.105319,0.0615 0.507145,-0.86836 0.507145,-0.86835 -0.04021,-2.67994 c -0.02776,-1.85024 0.155954,-3.7378 0.593411,-6.09684 0.348494,-1.8793 0.572597,-3.57594 0.498008,-3.77032 -0.07459,-0.19437 -0.23207,-0.35341 -0.349958,-0.35341 -0.117887,0 -0.775744,0.24065 -1.461904,0.53477 l -1.247564,0.53477 -3.231441,0.0353 c -1.777292,0.0194 -3.366464,-0.0482 -3.531493,-0.15019 -0.165029,-0.10199 -1.641926,-0.36248 -3.281993,-0.57885 -1.640067,-0.21638 -4.351159,-0.57293 -6.024649,-0.79233 -1.673489,-0.21941 -3.459427,-0.50555 -3.96875,-0.63587 -0.509323,-0.13032 -2.29526,-0.43319 -3.96875,-0.67306 -1.673489,-0.23986 -3.685168,-0.37788 -4.470397,-0.30671 -0.882633,0.08 -1.83599,-0.0147 -2.497171,-0.24794 l -1.069482,-0.37733 -3.19137,0.27797 c -1.755254,0.15288 -3.905746,0.387 -4.778871,0.52027 -0.873125,0.13327 -3.075782,0.49785 -4.894792,0.81018 l -3.3073,0.56788 -5.02708,-0.20131 c -2.76489,-0.11072 -6.03911,-0.20759 -7.27604,-0.21527 -1.23693,-0.008 -3.55865,0.18539 -5.15937,0.42902 -1.60073,0.24363 -5.94651,0.5737 -9.6573,0.73348 -3.71078,0.15979 -8.53281,0.4574 -10.71562,0.66137 -2.18281,0.20397 -5.81422,0.37316 -8.06979,0.37598 -2.62622,0.003 -5.00497,0.16386 -6.61459,0.44654 -1.38244,0.24277 -3.48925,0.493 -4.68179,0.55604 -1.52344,0.0806 -2.66437,-0.0192 -3.83646,-0.33523 -0.91751,-0.24743 -1.99563,-0.50763 -2.39581,-0.57823 -0.40018,-0.0706 -0.7367,-0.0851 -0.74782,-0.0322 -0.0111,0.0529 -0.1842,1.2868 -0.38463,2.74201 -0.20043,1.45521 -0.55404,4.71781 -0.7858,7.25021 -0.23176,2.53241 -0.51926,4.7946 -0.63888,5.02709 -0.11962,0.23249 -0.29824,0.87002 -0.39694,1.41675 l -0.17946,0.99404 0.73994,0.28822 c 0.40697,0.15851 2.10917,0.32521 3.78265,0.37043 1.67349,0.0452 3.81662,0.20667 4.7625,0.35877 0.94589,0.1521 3.6248,0.35628 5.95313,0.45374 2.32833,0.0974 6.19786,0.25878 8.59896,0.35851 2.40109,0.0997 9.24718,0.1419 15.21354,0.0937 5.96635,-0.0482 13.2887,-0.20842 16.27187,-0.35608 z m -18.12395,-5.68245 c -1.16417,-0.35391 -3.13334,-0.71739 -4.37594,-0.80772 -1.42655,-0.1037 -3.52321,-0.0128 -5.68854,0.24666 -1.8861,0.22599 -4.68474,0.4831 -6.2192,0.57137 l -2.78993,0.16048 -2.07201,-0.65798 c -1.16083,-0.36864 -2.53189,-1.02757 -3.1178,-1.49841 l -1.04579,-0.84042 -1.93698,0.18151 -1.93698,0.18151 -0.85427,-0.76329 -0.85426,-0.76328 0.17697,-0.5576 c 0.0973,-0.30667 0.54706,-0.6866 0.99939,-0.84429 0.45234,-0.15768 1.08247,-0.2867 1.4003,-0.2867 0.31784,0 0.65968,-0.0818 0.75966,-0.18177 0.1,-0.1 0.44725,-0.20976 0.7717,-0.24395 0.32446,-0.0342 1.20989,0.10897 1.96762,0.31815 0.84927,0.23445 1.84761,0.78704 2.60286,1.44071 0.67385,0.58321 1.66123,1.24828 2.19419,1.47794 l 0.96901,0.41756 3.83645,-0.14974 c 2.11006,-0.0824 4.61037,-0.28411 5.55625,-0.44835 0.94589,-0.16424 2.96995,-0.29233 4.49792,-0.28464 l 2.77813,0.014 2.38125,0.66886 c 1.30968,0.36786 2.8433,0.67033 3.40803,0.67213 0.74641,0.002 1.97458,-0.47759 4.49791,-1.75784 1.90913,-0.96863 4.07819,-1.9062 4.82013,-2.08349 0.86549,-0.20682 1.82497,-0.24711 2.67698,-0.11243 0.73039,0.11546 2.02834,0.55965 2.88434,0.98707 0.856,0.42743 1.88541,0.8565 2.28759,0.95348 0.41134,0.0992 1.53927,-0.0187 2.5783,-0.26949 l 1.84706,-0.44582 2.67524,0.35409 2.67524,0.35408 1.22875,-0.29035 c 0.67582,-0.1597 2.0622,-0.52097 3.08084,-0.80283 1.01865,-0.28187 2.41934,-0.64839 3.112653,-0.8145 0.693312,-0.16611 2.273126,-0.30201 3.510698,-0.30201 h 2.25013 l 1.91326,-0.67961 c 1.052293,-0.37378 2.687166,-0.92535 3.633052,-1.2257 0.970088,-0.30804 2.469494,-0.55175 3.439583,-0.55906 1.060809,-0.008 2.488645,0.21797 3.726321,0.58973 l 2.006529,0.60269 2.226804,-0.26932 2.226804,-0.26931 2.734867,0.6195 c 1.504176,0.34072 2.804121,0.68875 2.888766,0.77339 0.08464,0.0847 -0.0043,0.44958 -0.197745,0.81096 -0.222389,0.41554 -0.670955,0.71696 -1.220333,0.82002 -0.477778,0.0896 -1.679013,0.019 -2.669413,-0.15708 -1.2973,-0.23058 -2.396422,-0.24755 -3.931501,-0.0607 -1.171926,0.14263 -2.660208,0.17059 -3.307291,0.0621 -0.647084,-0.10846 -1.886141,-0.3908 -2.753459,-0.62741 -0.867319,-0.23662 -1.819819,-0.42664 -2.116667,-0.42228 -0.296848,0.004 -1.730349,0.42543 -3.185557,0.93572 -1.455208,0.5103 -3.241146,1.10063 -3.96875,1.31185 -0.727604,0.21123 -2.215885,0.38556 -3.307291,0.38741 -1.091407,0.002 -2.817813,0.17821 -3.836459,0.39191 -1.018645,0.21371 -2.828691,0.68189 -4.022321,1.0404 -1.19363,0.35851 -2.92004,0.67919 -3.83646,0.71261 -0.91642,0.0334 -2.18898,-0.0868 -2.82791,-0.26708 l -1.16169,-0.32786 -2.72583,0.44711 -2.72583,0.4471 -1.40415,-0.31992 c -0.77228,-0.17596 -2.07693,-0.72524 -2.89923,-1.22064 -0.8223,-0.49539 -1.80165,-0.90071 -2.17634,-0.90071 -0.37469,0 -1.72596,0.5538 -3.00283,1.23066 -1.27686,0.67687 -2.8659,1.50034 -3.53118,1.82996 -0.66528,0.32961 -1.90754,0.72831 -2.76057,0.886 -0.85303,0.15769 -1.79699,0.28033 -2.09769,0.27254 -0.30069,-0.008 -1.49922,-0.30375 -2.66338,-0.65767 z m -22.77444,-29.46764 c -0.3022,-0.13013 -0.95704,-0.64817 -1.45521,-1.15118 -0.49818,-0.50302 -1.26296,-1.40049 -1.69952,-1.99438 -0.43656,-0.59389 -0.95728,-1.14821 -1.15716,-1.23182 -0.19987,-0.0836 -1.3905,0.31378 -2.64583,0.88309 -1.25533,0.56931 -2.73523,1.17785 -3.28867,1.35231 -0.55343,0.17446 -1.32007,0.23843 -1.70365,0.14215 -0.38358,-0.0963 -1.0321,-0.41335 -1.44116,-0.70463 -0.51573,-0.36724 -0.74374,-0.75946 -0.74374,-1.27944 v -0.74985 l 0.83323,-0.29047 c 0.45828,-0.15975 1.38102,-0.29174 2.05052,-0.29331 0.86154,-0.002 1.87455,-0.31049 3.46625,-1.05548 1.29102,-0.60427 2.6434,-1.05137 3.175,-1.04968 0.50932,0.002 1.41862,0.22663 2.02065,0.50001 0.78728,0.35749 1.5121,1.06157 2.58158,2.50773 l 1.48697,2.01069 h 0.62265 c 0.34245,0 1.08574,-0.31803 1.65175,-0.70673 0.56601,-0.3887 1.52533,-1.04537 2.13183,-1.45927 0.60649,-0.4139 1.61853,-0.93645 2.24896,-1.16124 0.63853,-0.22767 1.49459,-0.34078 1.93271,-0.25536 0.43257,0.0843 1.17057,0.52561 1.64002,0.98061 l 0.85353,0.82728 1.53499,-0.41589 c 0.84424,-0.22873 2.59102,-0.55013 3.88172,-0.71421 1.29071,-0.16408 3.31477,-0.274 4.49792,-0.24427 1.18315,0.0297 2.86555,0.0554 3.73868,0.057 l 1.5875,0.003 2.77812,-1.12189 c 2.01295,-0.8129 3.30352,-1.16296 4.68566,-1.27097 1.18265,-0.0924 2.3582,-0.0229 3.09347,0.18298 l 1.18595,0.33204 1.40444,-0.32955 c 0.77244,-0.18126 1.5235,-0.39981 1.66903,-0.48566 0.14552,-0.0859 0.41341,-0.17869 0.59531,-0.20628 0.1917,-0.0291 0.33073,0.23525 0.33073,0.62884 0,0.44806 -0.36017,1.02163 -1.05892,1.68634 -0.60261,0.57324 -1.53767,1.13624 -2.16991,1.30648 l -1.11098,0.29916 -1.33583,-0.32424 c -0.7347,-0.17834 -1.81207,-0.32243 -2.39415,-0.32021 -0.61795,0.002 -2.1596,0.45079 -3.70484,1.07766 -1.45558,0.5905 -3.22883,1.20413 -3.94056,1.36363 -0.71173,0.15951 -1.90205,0.23604 -2.64516,0.17008 -0.74311,-0.066 -1.94642,-0.19822 -2.67403,-0.29391 -0.8898,-0.11703 -2.49233,0.0241 -4.89479,0.43095 -1.96453,0.33273 -4.36583,0.60948 -5.33622,0.61502 l -1.76434,0.0101 -0.83756,-0.61965 -0.83756,-0.61966 -1.23455,0.81646 c -0.67901,0.44906 -1.8894,1.13829 -2.68977,1.53162 -0.91546,0.4499 -1.99495,0.74399 -2.91042,0.7929 -0.80036,0.0428 -1.70245,-0.0287 -2.00464,-0.15886 z m 159.10339753,35.31925 c -0.54438168,-0.19429 -1.27817603,-0.54222 -1.63065413,-0.77317 -0.3524781,-0.23095 -0.7152573,-0.7586 -0.806176,-1.17255 l -0.1653066,-0.75264 -1.5113308,0.73018 -1.5113308,0.73017 -1.3692598,-0.23201 c -0.7530929,-0.12761 -1.6758273,-0.43288 -2.0505208,-0.67839 -0.4670669,-0.30604 -0.6812606,-0.68247 -0.6812606,-1.19727 v -0.75088 l 0.9921871,-0.27554 c 0.5457031,-0.15155 1.1624804,-0.27621 1.3706163,-0.27702 0.2081358,-8.1e-4 1.1508505,-0.50473 2.0949216,-1.11982 l 1.7164928,-1.11834 1.8038632,-0.10192 c 0.9921248,-0.0561 2.10173202,-0.0272 2.46579386,0.0642 0.36406183,0.0914 0.85767794,0.46488 1.09692474,0.83002 0.2392467,0.36514 0.5186809,1.04786 0.6209648,1.51715 0.1022839,0.4693 0.2949958,0.82882 0.4282487,0.79894 0.1332528,-0.0299 0.8617431,-0.28546 1.6188673,-0.56794 l 1.3765894,-0.51361 1.5662301,0.18467 c 0.8614265,0.10157 1.849305,0.3625 2.1952855,0.57984 l 0.6290554,0.39517 2.9104162,-0.0232 c 1.60073,-0.0127 3.327136,-0.15691 3.836459,-0.32035 0.509323,-0.16344 1.352577,-0.36838 1.873898,-0.45541 l 0.947857,-0.15824 0.48805,0.53929 0.48805,0.53928 -0.537246,0.72116 c -0.295486,0.39663 -1.116385,1.13787 -1.824221,1.64719 l -1.286974,0.92605 H 12.559939 8.2974008 l -0.9505334,-0.51188 -0.9505334,-0.51187 -1.8280497,0.8426 c -1.1060221,0.5098 -2.2377265,0.83802 -2.8652808,0.83099 -0.5704771,-0.006 -1.4826343,-0.17058 -2.02701597,-0.36487 z M 8.3955072,607.79149 c -1.1118952,-0.3789 -2.1479668,-0.95362 -2.72184,-1.50984 -0.5096163,-0.49394 -1.2141816,-1.50602 -1.5657008,-2.24907 -0.3515191,-0.74305 -0.8279207,-1.50769 -1.0586702,-1.69919 l -0.4195445,-0.3482 -1.81359662,0.43774 c -0.99747813,0.24075 -2.37468738,0.43773 -3.06046508,0.43773 -0.6857777,0 -1.9784295,-0.18742 -2.8725597,-0.41649 -0.8941301,-0.22907 -2.1114329,-0.69846 -2.7051174,-1.04308 -0.5936845,-0.34463 -1.2285994,-0.80634 -1.410922,-1.02602 -0.1823225,-0.21969 -0.2576496,-0.6321 -0.1673935,-0.91647 l 0.1641021,-0.51704 1.5120044,-0.17548 c 0.8914578,-0.10347 1.7832289,-0.0603 2.1728615,0.10512 0.3634714,0.15433 0.9732669,0.53183 1.355101,0.83887 l 0.6942439,0.55827 2.55660131,-0.59078 c 1.8581619,-0.42938 3.05305059,-0.55526 4.37382819,-0.46075 1.2127848,0.0868 2.1211163,0.31783 2.730856,0.69467 l 0.9136292,0.56466 0.9663298,2.11398 c 0.5673753,1.24122 1.2422401,2.29478 1.6346277,2.55188 l 0.6682975,0.43788 1.511796,-0.16709 c 0.831488,-0.0919 2.047577,-0.36011 2.702421,-0.59601 l 1.190625,-0.42892 6.617471,-0.22191 c 3.639609,-0.12205 7.863202,-0.12541 9.385762,-0.007 2.0281,0.1571 3.159246,0.12089 4.230446,-0.13539 0.804185,-0.19241 1.767894,-0.35407 2.141577,-0.35925 0.373682,-0.005 2.397745,-0.55615 4.497916,-1.22437 2.100172,-0.66822 4.651931,-1.32757 5.670577,-1.46523 l 1.852084,-0.2503 2.437586,0.58607 2.437586,0.58607 2.324914,-0.44551 c 1.278702,-0.24502 2.979757,-0.44235 3.780122,-0.4385 0.800364,0.004 2.288645,0.1318 3.307291,0.28433 1.018646,0.15254 2.526622,0.27212 3.351058,0.26575 0.824436,-0.006 2.015061,-0.20103 2.645833,-0.43257 0.630773,-0.23154 1.801703,-0.60351 2.602067,-0.8266 0.800365,-0.22309 1.994406,-0.35419 2.653426,-0.29135 0.65902,0.0629 1.515057,0.32187 1.902306,0.57561 l 0.704089,0.46133 -0.208901,0.57532 c -0.131456,0.36203 -0.591471,0.68723 -1.240848,0.87719 -0.567571,0.16603 -2.16304,0.64228 -3.545488,1.05833 l -2.513542,0.75646 -3.175,-0.0864 c -1.74625,-0.0475 -4.365625,-0.10254 -5.820833,-0.12222 -1.455208,-0.0197 -3.538802,0.10367 -4.630208,0.27411 l -1.984375,0.30988 -2.778125,-0.40989 c -1.527969,-0.22544 -3.254375,-0.34566 -3.836458,-0.26715 -0.582084,0.0785 -2.599539,0.62396 -4.483234,1.21211 -1.883696,0.58815 -4.145883,1.21021 -5.027084,1.38237 -1.030409,0.2013 -5.048596,0.32556 -11.259474,0.34818 l -9.657291,0.0352 -2.369812,0.71246 c -1.46857,0.44151 -2.977889,0.70986 -3.968749,0.70562 -0.960229,-0.004 -2.316073,-0.2512 -3.3942038,-0.61859 z m 39.8031048,-16.2894 c -0.778291,-0.28961 -1.929423,-0.94803 -2.55807,-1.46316 l -1.142994,-0.9366 H 43.37745 42.257353 l -2.120828,1.22329 -2.120828,1.2233 -1.692258,-0.13584 -1.692259,-0.13584 -1.360143,-0.84551 -1.360144,-0.84551 -0.938186,0.13611 c -0.516002,0.0749 -1.717819,0.30416 -2.670704,0.50955 -1.139039,0.24551 -2.27428,0.30955 -3.314055,0.18695 -0.869845,-0.10256 -2.292868,-0.53003 -3.162273,-0.94993 l -1.580736,-0.76344 h -3.307292 -3.307292 l -1.132626,-0.59532 c -0.622945,-0.32742 -1.467102,-0.59531 -1.875906,-0.59531 -0.408803,0 -1.6743388,0.23813 -2.8123008,0.52917 -1.137962,0.29104 -2.7769308,0.52917 -3.642153,0.52917 -0.8652222,0 -2.2717618,-0.18104 -3.1256436,-0.4023 -1.10124371,-0.28536 -2.5760554,-0.3815 -5.0738365,-0.33073 l -3.5213241,0.0716 -0.719042,-0.46912 c -0.3954731,-0.25802 -0.7190421,-0.68605 -0.7190421,-0.95118 0,-0.26514 0.2083594,-0.66396 0.4630209,-0.88629 l 0.4630208,-0.40422 4.3359603,-0.14231 4.33596038,-0.14232 1.22028952,0.37037 c 0.6711592,0.20371 1.9574034,0.37167 2.8583204,0.37324 0.900917,0.002 1.7016892,-0.10013 1.7794939,-0.22602 0.077805,-0.12589 0.8885032,-0.37732 1.8015524,-0.55873 0.9130491,-0.18141 2.4319865,-0.3145 3.3754165,-0.29575 1.229977,0.0244 2.053477,0.209 2.910417,0.65229 l 1.195089,0.61821 2.645833,0.15757 c 1.455209,0.0867 3.154352,0.33781 3.775874,0.55812 0.621523,0.2203 1.553642,0.60156 2.071375,0.84724 l 0.941334,0.44669 2.604854,-0.34476 c 1.432669,-0.18963 3.378996,-0.27248 4.32517,-0.18412 0.946175,0.0883 2.318109,0.35617 3.048745,0.59515 l 1.328427,0.4345 1.535444,-0.70447 c 0.844494,-0.38746 2.190287,-0.85092 2.990652,-1.02992 0.971673,-0.2173 2.101845,-0.257 3.401274,-0.11949 1.235709,0.13077 2.298075,0.41841 2.910417,0.78801 0.530392,0.32013 1.367888,0.92834 1.861101,1.35157 l 0.896751,0.7695 0.955333,-0.126 c 0.525432,-0.0693 2.145957,-0.48693 3.601165,-0.92808 1.455208,-0.44115 3.062552,-0.86929 3.571875,-0.95143 0.509323,-0.0821 1.570325,-0.20908 2.357783,-0.28209 0.822763,-0.0763 2.37708,0.053 3.654286,0.30394 l 2.222545,0.43669 1.901964,-0.43292 c 1.04608,-0.2381 2.637457,-0.55947 3.536393,-0.71416 0.898937,-0.15468 2.634611,-0.74994 3.857055,-1.3228 1.472585,-0.69007 3.079108,-1.19331 4.760676,-1.49126 l 2.53805,-0.44971 0.682499,0.44719 c 0.375374,0.24596 0.682498,0.62029 0.682498,0.83187 0,0.21157 -0.274259,0.56437 -0.609465,0.78401 -0.335206,0.21964 -1.297136,0.63593 -2.137622,0.9251 -0.840487,0.28917 -2.587242,1.06471 -3.881678,1.72343 -1.69035,0.86019 -2.672283,1.19896 -3.484773,1.20226 -0.622189,0.003 -1.96469,0.19294 -2.983336,0.42314 -1.018646,0.2302 -2.387865,0.51233 -3.042709,0.62697 -0.680535,0.11913 -1.814067,0.0918 -2.645833,-0.0638 -0.800364,-0.14973 -1.861806,-0.44884 -2.358758,-0.66469 -0.627363,-0.27249 -1.359743,-0.34477 -2.39599,-0.23646 -0.820842,0.0858 -2.725995,0.65089 -4.233673,1.25578 l -2.741232,1.09978 -2.138819,0.10823 -2.138819,0.10822 z m 46.658825,-17.14382 c -0.582084,-0.059 -2.070365,-0.38871 -3.307292,-0.73269 -1.236927,-0.34397 -2.784739,-0.70277 -3.439583,-0.79733 -0.654844,-0.0946 -1.905,-0.33324 -2.778125,-0.5304 -0.873125,-0.19716 -2.659062,-0.43613 -3.96875,-0.53104 -1.350171,-0.0978 -3.584175,-0.038 -5.159375,0.1382 -1.527968,0.17091 -5.468956,0.35645 -8.75775,0.41231 -3.288794,0.0559 -7.515513,0.29548 -9.392708,0.53249 -1.877196,0.237 -6.15152,0.52591 -9.498499,0.64201 -3.34698,0.1161 -6.733541,0.35702 -7.525693,0.53538 -0.911316,0.20518 -2.368892,0.26765 -3.96875,0.17008 -1.390661,-0.0848 -3.478742,-0.27552 -4.64018,-0.42379 -1.161438,-0.14828 -3.542688,-0.28623 -5.291667,-0.30656 -1.748978,-0.0203 -4.60871,-0.21698 -6.35496,-0.437 -2.286023,-0.28803 -3.878773,-0.33975 -5.688541,-0.18473 -1.382448,0.11842 -4.716198,0.23935 -7.4083334,0.26872 -2.6921354,0.0294 -5.3710416,0.064 -5.9531249,0.0769 -0.5820833,0.0129 -1.44025643,-0.10023 -1.90705136,-0.25142 -0.49307008,-0.1597 -1.07650684,-0.64345 -1.39231314,-1.15444 l -0.5435952,-0.87956 0.265387,-1.81559 c 0.1459628,-0.99858 0.4450819,-2.40006 0.664709,-3.11441 0.21962716,-0.71436 0.39938212,-1.60732 0.3994555,-1.98438 7.337e-5,-0.37705 0.2425702,-1.32341 0.53888184,-2.10302 l 0.53874843,-1.41747 0.14708168,-4.93253 c 0.0808949,-2.71289 0.1805946,-9.39738 0.22155483,-14.85441 0.0449989,-5.99509 0.20073116,-10.75958 0.39349202,-12.03854 0.1754604,-1.16417 0.3704468,-3.30729 0.4333032,-4.7625 0.062856,-1.45521 0.2243701,-3.30068 0.3589194,-4.10104 0.1345493,-0.80036 0.3189023,-2.28865 0.4096733,-3.30729 0.090771,-1.01865 0.2002989,-2.77177 0.2433952,-3.89583 0.043928,-1.14576 0.2255507,-2.2211 0.4133586,-2.44739 0.1842509,-0.22201 0.5320559,-0.40366 0.7729,-0.40366 0.2408441,0 0.7015682,-0.18468 1.0238314,-0.4104 0.3222631,-0.22572 1.2714896,-0.53437 2.1093922,-0.68589 0.8379026,-0.15151 3.0712717,-0.25941 4.9630424,-0.23977 1.891771,0.0196 4.398278,0.15012 5.570016,0.28994 1.254518,0.14971 3.7565,0.79871 6.085417,1.57853 2.175241,0.72835 4.371702,1.43886 4.881025,1.57891 0.509323,0.14004 3.07602,0.26795 5.703772,0.28424 2.891942,0.0179 6.181552,-0.1363 8.334375,-0.39077 1.956154,-0.23122 4.509144,-0.53526 5.673311,-0.67564 1.164167,-0.14038 5.450416,-0.37788 9.525,-0.52779 4.074583,-0.1499 10.563489,-0.4213 14.419791,-0.6031 3.856302,-0.1818 8.916458,-0.32641 11.244791,-0.32135 2.328334,0.005 6.495521,0.0646 9.260417,0.13229 2.764896,0.0677 6.175278,0.0167 7.578623,-0.1134 l 2.55155,-0.23649 0.82189,0.58524 c 0.45204,0.32188 0.82189,0.75572 0.82189,0.96409 0,0.20838 0.11907,0.37886 0.26459,0.37886 0.14552,0 0.26458,0.36095 0.26458,0.8021 0,0.44115 -0.25135,1.54248 -0.55856,2.4474 l -0.55856,1.64529 0.13728,2.05945 c 0.0755,1.13269 0.022,3.27582 -0.11886,4.7625 -0.14087,1.48668 -0.30003,4.66759 -0.3537,7.06868 -0.0537,2.40109 -0.2262,5.16208 -0.38343,6.13552 -0.15722,0.97344 -0.34566,2.75937 -0.41875,3.96875 -0.0731,1.20937 -0.26172,3.6276 -0.41918,5.37385 -0.15746,1.74625 -0.38262,3.94891 -0.50035,4.8948 -0.11773,0.94588 -0.45527,2.85088 -0.75009,4.23333 -0.32058,1.50322 -0.65229,4.58737 -0.82526,7.67292 -0.167745,2.99229 -0.462971,5.7706 -0.702875,6.61458 -0.227506,0.80036 -0.52785,2.11005 -0.667431,2.91042 -0.139581,0.80036 -0.456844,1.65193 -0.705029,1.89237 -0.248185,0.24044 -0.808432,0.48928 -1.244995,0.55296 -0.436562,0.0637 -1.27,0.0675 -1.852083,0.009 z m -53.158196,-3.37834 c 1.442529,-0.21742 4.357085,-0.39601 6.476791,-0.39687 2.119706,-8.6e-4 4.500956,-0.10902 5.291667,-0.24036 0.79071,-0.13133 2.449687,-0.37124 3.686614,-0.53311 1.236927,-0.16188 5.344583,-0.3445 9.128124,-0.40583 3.783542,-0.0613 8.188854,-0.26502 9.789584,-0.45265 1.600729,-0.18763 4.791783,-0.31136 7.091232,-0.27497 l 4.180816,0.0662 1.951251,0.65501 c 1.073188,0.36026 2.299445,0.65501 2.725015,0.65501 0.425569,0 1.148717,-0.13071 1.606995,-0.29046 0.458277,-0.15976 0.833232,-0.40491 0.833232,-0.54479 0,-0.13987 0.109374,-0.18671 0.243053,-0.1041 0.13368,0.0826 0.335318,-0.23777 0.448084,-0.71198 0.112766,-0.47422 0.215971,-0.92174 0.229343,-0.9945 0.01337,-0.0728 0.167963,-0.39056 0.343535,-0.70623 0.194183,-0.34913 0.257152,-1.02678 0.160758,-1.73005 -0.114706,-0.83687 -0.05328,-1.24341 0.222445,-1.47224 l 0.380909,-0.31613 -0.264673,-1.4602 c -0.185385,-1.02278 -0.178077,-1.63835 0.0244,-2.05487 0.158987,-0.32706 0.357075,-1.30903 0.440194,-2.18216 0.08312,-0.87312 0.199894,-1.90812 0.259499,-2.29998 0.05961,-0.39187 0.179546,-0.82765 0.266534,-0.9684 0.08699,-0.14075 0.216563,-0.89169 0.287946,-1.66876 0.07138,-0.77707 0.189909,-1.71051 0.263393,-2.07431 0.07348,-0.36381 0.194851,-1.13771 0.269704,-1.7198 0.07485,-0.58208 0.208898,-2.12989 0.297876,-3.43958 0.08898,-1.30969 0.166558,-3.30398 0.1724,-4.43177 0.0058,-1.12779 0.08028,-2.05069 0.165426,-2.05091 0.08514,-2.1e-4 0.193771,-0.8501 0.2414,-1.88865 0.04763,-1.03855 0.213564,-2.19923 0.368743,-2.5793 0.15518,-0.38007 0.315962,-1.88166 0.357294,-3.33687 0.04133,-1.45521 0.113522,-3.3786 0.160423,-4.27421 0.0469,-0.89561 0.01384,-1.58423 -0.07347,-1.53028 -0.08731,0.054 -0.100716,-0.52295 -0.0298,-1.28203 0.07092,-0.75908 0.201886,-1.40981 0.291034,-1.44608 0.08914,-0.0363 0.08323,-1.34594 -0.01313,-2.91041 -0.09637,-1.56447 -0.24764,-3.20168 -0.336154,-3.63824 -0.08851,-0.43656 -0.22837,-1.1252 -0.310792,-1.53032 -0.08242,-0.40511 -0.407403,-0.89761 -0.722179,-1.09445 -0.399145,-0.24959 -1.660149,-0.36906 -4.167431,-0.39483 -1.97731,-0.0203 -3.822779,-0.0796 -4.101041,-0.13174 -0.278263,-0.0521 -2.29187,-0.1747 -4.474682,-0.2724 -2.182813,-0.0977 -6.35,-0.0519 -9.260417,0.10179 -2.910416,0.15368 -8.863541,0.3941 -13.229166,0.53427 -4.365625,0.14016 -9.544844,0.38527 -11.509375,0.54468 -1.964531,0.15941 -5.298281,0.5331 -7.408333,0.83041 -2.110052,0.29732 -5.205677,0.62915 -6.879166,0.7374 -1.67349,0.10825 -4.776591,0.10939 -6.895781,0.003 l -3.853073,-0.19428 -1.306302,-0.65814 c -0.718466,-0.36198 -2.318334,-0.95535 -3.555261,-1.31859 -1.236927,-0.36325 -3.108287,-0.81313 -4.158578,-0.99973 -1.293485,-0.22981 -2.911164,-0.28208 -5.013763,-0.16199 -2.036016,0.11628 -3.3103703,0.31241 -3.7034676,0.56998 -0.3296277,0.21598 -0.7523402,0.39452 -0.9393611,0.39674 -0.187021,0.002 -0.4807272,0.0935 -0.6526805,0.20288 -0.1774509,0.11285 -0.500705,1.79864 -0.747554,3.89855 -0.2392013,2.03485 -0.5508864,5.42614 -0.6926336,7.53619 -0.1417471,2.11005 -0.3737184,5.74146 -0.5154917,8.06979 -0.1417733,2.32833 -0.2462152,4.82865 -0.2320932,5.55625 0.014122,0.72761 0.088941,2.69214 0.1662633,4.36563 0.077323,1.67349 -0.01659,4.9477 -0.2086961,7.27604 -0.1921057,2.32833 -0.3305261,4.30194 -0.3076009,4.38581 0.022925,0.0839 0.1077322,1.09773 0.1884601,2.25304 0.097902,1.40109 0.013432,2.71594 -0.2536653,3.94857 -0.2202439,1.0164 -0.5759627,2.74096 -0.7904862,3.83237 -0.2492877,1.26827 -0.3182967,2.40449 -0.1912291,3.14854 0.1381452,0.80892 0.4143041,1.32505 0.904987,1.6914 l 0.7061733,0.52723 3.3770169,0.20102 c 2.3650917,0.14079 4.1829797,0.0952 6.0666917,-0.15202 l 2.689674,-0.35305 2.352455,0.51484 c 1.505434,0.32948 3.400373,0.51881 5.262871,0.52584 1.600729,0.006 4.398698,0.17999 6.217708,0.38655 1.81901,0.20657 3.72401,0.41903 4.233333,0.47214 0.509323,0.0531 1.472197,0.11563 2.13972,0.13892 0.667523,0.0233 2.393929,-0.13555 3.836458,-0.35298 z M 8.2760108,566.26558 c -0.4710354,-0.31838 -0.8579885,-0.70623 -0.8598958,-0.86189 -0.00191,-0.15566 0.2644228,-0.53512 0.5918447,-0.84326 0.3274219,-0.30813 1.2501562,-1.21993 2.0505203,-2.02622 0.800365,-0.80628 2.435745,-2.03416 3.634178,-2.72861 1.198432,-0.69445 4.037452,-2.48581 6.308933,-3.9808 2.27148,-1.49498 4.4461,-2.88225 4.832489,-3.08281 0.386389,-0.20056 1.89315,-1.21657 3.348358,-2.25778 1.455209,-1.04122 3.479271,-2.29335 4.497917,-2.7825 1.018646,-0.48915 2.625989,-1.23744 3.571875,-1.66286 0.945885,-0.42542 3.192652,-1.35791 4.992814,-2.07219 1.800163,-0.71429 3.328782,-1.44189 3.396931,-1.61689 0.06815,-0.175 -0.305944,-0.6956 -0.83132,-1.15688 -0.525375,-0.46129 -1.840014,-1.47355 -2.921419,-2.24947 -1.081405,-0.77592 -4.085171,-2.50321 -6.675036,-3.83843 -2.589865,-1.33523 -7.030564,-3.62627 -9.86822,-5.09121 -2.837656,-1.46494 -5.635625,-2.89808 -6.217708,-3.18475 -0.582083,-0.28667 -1.594115,-0.94694 -2.248958,-1.46726 -0.654844,-0.52032 -1.395024,-1.18507 -1.644844,-1.47722 -0.24982,-0.29214 -0.458179,-0.78418 -0.46302,-1.09341 l -0.0088,-0.56224 0.826823,-0.16537 c 0.454753,-0.091 1.198893,-0.16114 1.653646,-0.15599 0.454752,0.005 1.084713,0.15399 1.399912,0.33073 0.315199,0.17675 0.819923,0.63615 1.121607,1.02089 0.301685,0.38475 2.067857,1.46836 3.924827,2.40803 1.856971,0.93966 5.817091,2.94811 8.800268,4.46323 2.983177,1.51511 6.019271,3.01997 6.746875,3.34414 0.727604,0.32416 2.096823,1.09717 3.042708,1.7178 0.945885,0.62062 2.451866,1.6748 3.346623,2.34261 0.894757,0.66781 2.429482,1.55533 3.410501,1.97227 l 1.783671,0.75807 2.023946,-0.71691 c 1.11317,-0.39429 2.23134,-0.7169 2.484823,-0.7169 0.253483,0 1.175429,-0.24072 2.048769,-0.53492 0.87334,-0.29421 2.744818,-0.99773 4.158841,-1.56339 1.414023,-0.56566 3.404388,-1.35294 4.423034,-1.74952 1.018646,-0.39657 2.566458,-0.95131 3.439583,-1.23275 0.873125,-0.28144 2.956719,-1.20533 4.630208,-2.05309 1.67349,-0.84777 4.352396,-2.34246 5.953125,-3.32156 1.600729,-0.97909 3.505729,-2.24082 4.233333,-2.80383 0.727605,-0.56302 1.465284,-1.14247 1.639288,-1.28766 0.174004,-0.14519 0.99736,-0.57548 1.829679,-0.95619 0.854265,-0.39075 2.052429,-0.70892 2.751245,-0.73058 0.713739,-0.0221 1.423452,0.11538 1.676049,0.32474 0.248396,0.20588 0.438114,0.74715 0.438114,1.24995 v 0.88682 l -2.396672,1.66047 c -1.31817,0.91326 -3.49106,2.40922 -4.828646,3.32437 -1.337585,0.91514 -3.801192,2.35473 -5.474681,3.19909 -1.67349,0.84436 -3.995209,1.9093 -5.159375,2.36652 -1.164167,0.45722 -4.200261,1.61848 -6.746875,2.58058 -2.546615,0.9621 -6.263399,2.32705 -8.259521,3.03323 -1.996122,0.70617 -3.878592,1.41736 -4.183265,1.58041 -0.304674,0.16306 -0.507291,0.43724 -0.45026,0.60929 0.05703,0.17204 0.927468,0.80752 1.934306,1.41218 1.006838,0.60465 2.604521,1.51072 3.550407,2.0135 0.945885,0.50277 2.196041,1.06669 2.778125,1.25315 0.582083,0.18646 2.308771,0.84882 3.837084,1.47192 1.528313,0.6231 3.373782,1.27863 4.101042,1.45674 0.727259,0.1781 2.631977,1.03747 4.232707,1.90969 1.600729,0.87223 3.743854,2.06228 4.7625,2.64456 1.018645,0.58228 2.436275,1.34867 3.150289,1.7031 0.714013,0.35442 1.964169,0.7535 2.778125,0.88684 0.813955,0.13334 1.494801,0.24313 1.512992,0.24397 0.01819,8.5e-4 0.10425,0.35742 0.191244,0.79239 0.08699,0.43497 0.09269,0.9615 0.01265,1.17007 -0.08003,0.20856 -0.604299,0.56278 -1.165032,0.78714 l -1.019516,0.40793 -1.804337,-0.62862 c -0.992385,-0.34574 -2.610148,-1.04888 -3.59503,-1.56254 -0.984881,-0.51365 -2.098989,-1.17642 -2.475795,-1.47281 -0.376806,-0.2964 -1.475994,-0.91551 -2.44264,-1.37582 -0.966646,-0.4603 -2.412381,-1.13085 -3.212746,-1.49009 -0.800365,-0.35925 -2.110052,-0.86673 -2.910417,-1.12773 -0.800364,-0.26101 -2.448024,-0.90273 -3.661466,-1.42605 -1.213442,-0.52333 -2.335952,-0.9515 -2.494467,-0.9515 -0.158514,0 -2.142261,-0.93938 -4.408325,-2.08752 -2.266064,-1.14813 -4.655897,-2.39264 -5.310741,-2.76556 -0.654844,-0.37292 -1.686868,-0.9408 -2.293387,-1.26194 l -1.102761,-0.58391 -2.20453,0.8684 c -1.212492,0.47761 -4.138314,1.69011 -6.501826,2.69445 -2.363513,1.00433 -4.813712,2.15058 -5.444887,2.54721 -0.631174,0.39664 -2.24091,1.43554 -3.577189,2.30866 -1.33628,0.87313 -2.925906,1.88516 -3.532502,2.24896 -0.606597,0.3638 -2.748499,1.73302 -4.759783,3.04271 -2.011283,1.30968 -4.375082,2.79066 -5.252884,3.29104 -0.877803,0.50039 -2.276601,1.48158 -3.10844,2.18042 -0.83184,0.69884 -1.810091,1.41578 -2.173894,1.59321 -0.363802,0.17742 -0.945405,0.53569 -1.292452,0.79615 -0.347046,0.26045 -0.942359,0.46615 -1.3229164,0.45711 -0.3805575,-0.009 -1.0773154,-0.27694 -1.5483508,-0.59531 z M -165.75714,538.14243 c -1.45521,-0.19385 -3.40446,-0.5398 -4.33166,-0.76877 -0.9272,-0.22898 -2.11783,-0.63899 -2.64583,-0.91114 -0.52801,-0.27215 -1.83492,-1.11194 -2.90424,-1.8662 l -1.94424,-1.37138 -0.49361,-1.11588 c -0.27148,-0.61374 -0.67307,-1.8049 -0.89242,-2.64703 -0.21935,-0.84213 -0.7153,-2.32225 -1.10212,-3.28916 l -0.70332,-1.758 -0.0819,-2.75578 -0.0819,-2.75578 0.52496,-1.029 c 0.28873,-0.56596 0.69817,-1.09548 0.90988,-1.17672 0.21171,-0.0812 0.38492,-0.28592 0.38492,-0.45485 0,-0.16894 0.29766,-0.74519 0.66146,-1.28058 0.3638,-0.53538 0.66146,-1.13366 0.66146,-1.32951 0,-0.19585 0.71437,-1.80495 1.5875,-3.57577 0.87312,-1.77082 1.5875,-3.33916 1.5875,-3.4852 0,-0.14603 0.36248,-0.67836 0.80552,-1.18295 0.44304,-0.5046 1.60389,-1.35765 2.57969,-1.89569 0.97579,-0.53804 2.41788,-1.20089 3.20465,-1.47302 0.78676,-0.27212 1.91786,-0.49053 2.51354,-0.48535 0.59568,0.005 1.79743,0.20989 2.67056,0.45489 1.03961,0.29172 2.5463,0.44298 4.36562,0.43827 l 2.77813,-0.007 2.01965,-0.69118 c 1.11081,-0.38015 3.1944,-0.94581 4.63021,-1.25703 1.4358,-0.31121 3.77566,-0.62933 5.19968,-0.70693 1.42402,-0.0776 3.62667,-0.37172 4.89479,-0.6536 1.26812,-0.28188 2.96051,-0.61842 3.76087,-0.74786 0.80037,-0.12945 3.06256,-0.36466 5.02709,-0.52269 1.96453,-0.15803 4.5839,-0.46165 5.82083,-0.67471 1.37356,-0.23659 4.82366,-0.43486 8.86354,-0.50935 3.63802,-0.0671 7.62662,-0.24344 8.86354,-0.39189 1.23693,-0.14845 4.80881,-0.40034 7.937503,-0.55975 3.985591,-0.20307 8.421184,-0.21129 14.816666,-0.0275 5.020469,0.14432 9.544844,0.38137 10.054167,0.52678 0.509323,0.1454 2.874349,0.50977 5.255614,0.8097 2.381266,0.29993 5.423725,0.77381 6.761022,1.05308 1.337297,0.27926 3.106366,0.80622 3.931264,1.17103 0.824898,0.36481 2.802439,1.45026 4.394535,2.41212 1.592096,0.96185 3.06571,2.01167 3.274697,2.33293 0.253949,0.39038 0.440151,1.7688 0.561402,4.15598 0.130579,2.57083 0.07134,4.40561 -0.211375,6.54674 -0.21604,1.63617 -0.567393,3.36258 -0.780784,3.83646 -0.213391,0.47388 -0.69665,2.34988 -1.07391,4.16889 l -0.685926,3.30729 -1.095577,1.56458 c -0.602567,0.86051 -1.286117,1.80024 -1.518999,2.08828 -0.232882,0.28804 -0.757692,0.91719 -1.166244,1.3981 -0.408552,0.48092 -1.599177,1.44619 -2.645833,2.14505 -1.046657,0.69886 -2.260199,1.41042 -2.696761,1.58125 -0.436563,0.17083 -1.184893,0.31966 -1.662955,0.33073 -0.478063,0.0111 -1.132907,-0.14791 -1.455208,-0.35329 l -0.586004,-0.37343 -9.789583,0.25319 c -5.384271,0.13926 -10.920677,0.16232 -12.303125,0.0513 -1.382448,-0.11106 -5.966354,-0.20878 -10.186458,-0.21715 -4.220108,-0.008 -11.244788,-0.11713 -15.610418,-0.2417 l -7.9375,-0.2265 -6.35,0.4476 c -3.4925,0.24617 -7.63672,0.61936 -9.20938,0.82929 -1.57265,0.20994 -3.62648,0.55992 -4.56406,0.77774 -0.93757,0.21782 -2.46785,0.57327 -3.40062,0.78988 -0.93276,0.21661 -3.68776,0.51952 -6.12222,0.67312 -2.43446,0.15361 -5.63012,0.45045 -7.10146,0.65965 -1.47135,0.2092 -3.27049,0.36633 -3.99809,0.34919 -0.7276,-0.0171 -2.51354,-0.18977 -3.96875,-0.38362 z m 8.73125,-2.88557 c 1.30969,-0.20957 4.34578,-0.49898 6.74687,-0.64314 2.4011,-0.14417 5.02047,-0.44615 5.82084,-0.67107 0.80036,-0.22492 3.24114,-0.69769 5.42396,-1.0506 2.18281,-0.35291 6.10374,-0.84036 8.71317,-1.08324 2.92794,-0.27252 7.48647,-0.45091 11.90625,-0.46594 3.93901,-0.0134 12.34104,0.0786 18.6712,0.20445 6.330156,0.12584 15.736093,0.20148 20.902083,0.1681 5.165989,-0.0334 10.404739,-0.17728 11.641666,-0.31976 1.236927,-0.14247 2.903802,-0.35072 3.704167,-0.46276 0.800364,-0.11204 2.072903,-0.52208 2.827864,-0.9112 0.75496,-0.38912 1.665062,-1.09618 2.022448,-1.57124 0.357386,-0.47506 1.137319,-1.81625 1.733184,-2.98042 0.597149,-1.16667 1.27131,-3.00728 1.502091,-4.10104 0.230284,-1.09141 0.70664,-3.35359 1.058568,-5.02708 0.429863,-2.04409 0.630631,-3.82424 0.611723,-5.42396 -0.01548,-1.30969 -0.103527,-3.11687 -0.195658,-4.01596 l -0.167512,-1.63472 -1.984375,-1.28028 c -1.091406,-0.70416 -2.302043,-1.42006 -2.690304,-1.59089 -0.388261,-0.17083 -1.922669,-0.61818 -3.409797,-0.99411 -1.487127,-0.37594 -5.396178,-1.08579 -8.686779,-1.57746 -3.290601,-0.49166 -6.935411,-0.96869 -8.099578,-1.06007 -1.164167,-0.0914 -6.045729,-0.16852 -10.847916,-0.17144 -5.60851,-0.003 -10.671135,0.14589 -14.155205,0.41745 -2.98318,0.23251 -8.51959,0.53071 -12.30313,0.66266 -3.78354,0.13195 -7.35541,0.36107 -7.9375,0.50915 -0.58208,0.14809 -3.20146,0.45753 -5.82083,0.68766 -2.61938,0.23013 -5.715,0.65241 -6.87917,0.9384 -1.16416,0.286 -3.24776,0.63985 -4.63021,0.78635 -1.38244,0.14649 -3.5971,0.38889 -4.92145,0.53865 -1.32436,0.14977 -3.46748,0.57152 -4.7625,0.93723 -1.29503,0.3657 -3.42615,0.89355 -4.73584,1.17299 -1.30968,0.27943 -2.99857,0.50963 -3.75309,0.51154 -0.75451,0.002 -1.6938,-0.11894 -2.08731,-0.26855 -0.39351,-0.14961 -1.08039,-0.57908 -1.5264,-0.95437 l -0.81092,-0.68234 -1.07051,0.12107 c -0.58879,0.0666 -1.77154,0.45294 -2.62834,0.85854 -0.8568,0.40561 -2.00606,1.18571 -2.55391,1.73356 -0.64792,0.64793 -1.85068,2.69289 -3.44103,5.85052 -1.34472,2.66993 -2.69578,5.33067 -3.00234,5.91275 l -0.5574,1.05833 0.0199,2.24896 0.0198,2.24896 1.15842,3.30729 c 0.63713,1.81901 1.37952,3.68649 1.64976,4.14995 0.27023,0.46346 1.28782,1.38655 2.26131,2.05131 l 1.76997,1.20864 2.51354,0.38426 c 1.38245,0.21134 3.16839,0.49704 3.96875,0.63489 0.80037,0.13785 2.16958,0.19852 3.04271,0.13482 0.87312,-0.0637 2.65906,-0.28728 3.96875,-0.49684 z m 13.22917,-13.65966 c -0.58209,-0.30186 -1.62171,-1.09515 -2.31027,-1.76287 l -1.25194,-1.21404 -1.12931,0.61904 c -0.62113,0.34047 -1.36744,0.82176 -1.65848,1.06951 -0.29105,0.24776 -1.05201,0.65295 -1.69103,0.90042 -0.73016,0.28277 -1.46747,0.38705 -1.98437,0.28065 -0.45239,-0.0931 -1.25826,-0.45065 -1.79083,-0.79452 l -0.96832,-0.62522 -1.86946,0.95916 -1.86946,0.95916 -0.9499,-0.50818 c -0.52244,-0.2795 -1.1802,-0.87943 -1.4617,-1.33317 -0.28149,-0.45373 -0.51181,-1.08176 -0.51181,-1.39561 0,-0.37299 0.252,-0.6751 0.72761,-0.87226 0.40018,-0.16589 1.30226,-0.28627 2.00463,-0.2675 l 1.27702,0.0341 1.10423,-0.69714 c 0.6145,-0.38795 1.63226,-0.74732 2.29484,-0.8103 l 1.19063,-0.11317 0.7276,0.57439 c 0.40019,0.31592 0.72761,0.74435 0.72761,0.95206 0,0.20772 0.21467,0.37768 0.47704,0.37768 0.26237,0 0.96363,-0.35784 1.55835,-0.79521 0.59472,-0.43736 1.59893,-0.97783 2.23158,-1.20104 0.63265,-0.22321 1.52801,-0.42004 1.98969,-0.4374 0.46167,-0.0173 1.19865,0.11725 1.63773,0.29912 0.43907,0.18187 1.13441,0.82584 1.54519,1.43104 0.41078,0.6052 0.92547,1.2454 1.14375,1.42268 0.21828,0.17727 0.64882,0.3261 0.95676,0.33073 0.30794,0.005 1.68343,-0.52382 3.05664,-1.17431 1.37322,-0.6505 3.25763,-1.37765 4.18758,-1.6159 1.1845,-0.30345 2.16079,-0.37999 3.26023,-0.25561 0.86317,0.0977 2.15426,0.40809 2.8691,0.68985 0.71483,0.28176 1.57764,0.5123 1.91734,0.5123 0.33971,0 1.91288,-0.79029 3.49594,-1.7562 1.58305,-0.96591 3.5428,-2.09034 4.35498,-2.49874 0.81218,-0.40841 2.26291,-0.88742 3.22385,-1.06448 l 1.74717,-0.32193 1.22359,0.46729 c 0.87835,0.33545 1.49638,0.83269 2.19043,1.76234 0.53176,0.71228 1.11015,1.29505 1.28531,1.29505 0.17515,0 0.89388,-0.23811 1.59717,-0.52913 0.70328,-0.29102 1.47667,-0.64273 1.71864,-0.78157 0.24196,-0.13885 1.02478,-0.33003 1.73959,-0.42486 l 1.29967,-0.1724 1.40209,0.71049 c 0.77115,0.39077 1.774271,0.71995 2.229153,0.73149 0.454882,0.0116 1.422371,-0.1181 2.149975,-0.28811 0.727604,-0.17001 2.475323,-0.50699 3.883819,-0.74884 l 2.560903,-0.43973 2.598472,0.33048 2.598472,0.33048 2.778125,-0.36676 c 1.825247,-0.24096 3.186502,-0.28842 3.96875,-0.13837 0.739533,0.14186 2.330932,0.10932 4.200377,-0.0859 1.655364,-0.17285 3.750976,-0.24505 4.656916,-0.16045 0.90594,0.0846 2.14116,0.35147 2.744935,0.59305 l 1.097772,0.43924 v 0.58373 c 0,0.40768 -0.281992,0.7182 -0.935018,1.0296 -0.67486,0.32182 -1.65029,0.44736 -3.505729,0.4512 -1.413891,0.003 -3.344617,0.11906 -4.290503,0.25807 -1.157496,0.17011 -2.476827,0.15704 -4.035197,-0.04 l -2.315405,-0.29272 -2.471934,0.46529 c -1.448236,0.27261 -2.899932,0.39554 -3.505428,0.29685 -0.568421,-0.0926 -1.642072,-0.24028 -2.38589,-0.32807 -0.743818,-0.0878 -2.410693,-0.0218 -3.704167,0.14662 -1.293473,0.16843 -3.280371,0.55362 -4.415328,0.85597 -1.218576,0.32463 -2.434149,0.48959 -2.96859,0.40287 -0.49777,-0.0808 -1.50616,-0.4488 -2.24087,-0.81783 l -1.33584,-0.67095 -0.65736,0.24993 c -0.36155,0.13746 -1.18088,0.48841 -1.82073,0.7799 -0.63986,0.29149 -1.80742,0.60567 -2.59459,0.69819 l -1.43122,0.16821 -1.57175,-1.30995 c -0.86446,-0.72048 -1.73515,-1.50811 -1.93487,-1.7503 -0.2186,-0.26508 -0.7504,-0.44034 -1.33614,-0.44034 -0.53516,0 -1.08613,0.1125 -1.22438,0.25002 -0.13824,0.13751 -0.96573,0.62781 -1.83885,1.08955 -0.87313,0.46175 -2.37875,1.36215 -3.34583,2.00091 -0.96708,0.63875 -2.15771,1.32575 -2.64584,1.52667 -0.48812,0.20092 -1.38422,0.44706 -1.99132,0.54697 l -1.10382,0.18166 -1.93889,-0.71252 c -1.15271,-0.42361 -2.52894,-0.72303 -3.39409,-0.73843 l -1.45521,-0.0259 -1.5875,0.75856 c -0.87313,0.41721 -2.30305,1.07999 -3.17762,1.47285 -0.87457,0.39285 -2.12472,0.78785 -2.77813,0.87778 l -1.188,0.1635 z m 254.39686,-17.82299 c 0,-0.0728 0.0595,-0.13229 0.1323,-0.13229 0.0728,0 0.13229,0.0595 0.13229,0.13229 0,0.0728 -0.0595,0.13229 -0.13229,0.13229 -0.0728,0 -0.1323,-0.0595 -0.1323,-0.13229 z"
       id="path2" /></g></svg>
