<?xml version="1.0" encoding="UTF-8" standalone="no"?>
<!-- Created with Inkscape (http://www.inkscape.org/) -->

<svg
   width="94.278702mm"
   height="73.309265mm"
   viewBox="0 0 94.278697 73.309263"
   version="1.1"
   id="svg1"
   xml:space="preserve"
   xmlns="http://www.w3.org/2000/svg"
   xmlns:svg="http://www.w3.org/2000/svg"><defs
     id="defs1" /><g
     id="layer1"
     transform="translate(13.863576,-421.64756)"><path
       style="fill:#ddaabb;fill-opacity:1"
       d="m 30.123596,494.88626 c -0.08358,-0.0836 -1.254101,-0.20393 -2.601163,-0.26745 -1.347063,-0.0635 -3.004855,-0.29485 -3.683983,-0.51406 -0.679129,-0.21921 -2.068217,-0.50772 -3.086862,-0.64113 -1.018646,-0.1334 -2.685521,-0.4481 -3.704167,-0.69932 -1.018646,-0.25122 -2.387865,-0.57124 -3.042708,-0.71115 -0.654844,-0.13991 -1.726407,-0.53861 -2.38125,-0.88601 -0.654844,-0.3474 -1.9050003,-0.98192 -2.7781253,-1.41005 -0.873125,-0.42813 -2.1232812,-0.97622 -2.7781249,-1.21797 -0.7526516,-0.27785 -2.1584845,-1.31247 -3.8217382,-2.81258 -1.44711226,-1.30518 -2.7772356,-2.37305 -2.95582965,-2.37305 -0.17859405,0 -0.66146805,-0.55305 -1.07305345,-1.229 -0.4115853,-0.67595 -1.13529,-1.59082 -1.6082327,-2.03306 l -0.8598959,-0.80406 v -0.90212 c 0,-0.65733 0.1336867,-0.93709 0.4926578,-1.03097 l 0.4926578,-0.12883 0.050464,-5.20421 c 0.027756,-2.86231 0.061468,-5.56139 0.074918,-5.99796 0.013449,-0.43656 -0.024228,-1.57912 -0.083727,-2.53903 l -0.1081801,-1.74528 -2.0031983,-1.6943 c -1.1017591,-0.93187 -2.7670025,-2.07093 -3.700541,-2.53125 -0.9335384,-0.46032 -2.1438271,-1.02394 -2.6895301,-1.25249 -0.545703,-0.22855 -0.992188,-0.58001 -0.992188,-0.78102 0,-0.20101 -0.257708,-0.6931 -0.572686,-1.09352 l -0.572686,-0.72806 0.49709,-0.92304 c 0.2734,-0.50767 0.977593,-1.33731 1.564874,-1.84364 0.587281,-0.50634 1.603565,-1.23567 2.2584085,-1.62074 0.6548437,-0.38508 2.1548997,-1.41676 3.3334578,-2.29263 1.1785581,-0.87587 2.7263705,-1.94577 3.4395833,-2.37756 0.7132127,-0.43178 1.6191022,-0.92992 2.01308774,-1.10697 0.39398554,-0.17705 1.40601677,-0.79619 2.24895826,-1.37588 0.8429416,-0.57968 2.8423085,-2.27323 4.4430376,-3.76343 1.6007291,-1.4902 4.3313338,-3.91106 6.0680108,-5.37968 1.736676,-1.46862 3.779709,-3.08885 4.540072,-3.6005 0.760362,-0.51165 1.882007,-1.34509 2.492543,-1.85208 0.610536,-0.507 1.942339,-1.69572 2.959561,-2.6416 1.017223,-0.94589 2.008266,-1.86862 2.202318,-2.05052 0.194052,-0.1819 0.486302,-0.33073 0.649444,-0.33073 0.163141,0 0.667227,-0.19165 1.120191,-0.42589 l 0.823569,-0.42588 0.963891,0.28879 c 0.582033,0.17438 1.455969,0.81653 2.206,1.62093 0.683159,0.73268 1.242108,1.57369 1.242108,1.86891 0,0.29523 0.27202,0.80879 0.604489,1.14126 0.33247,0.33247 1.466912,1.10818 2.520985,1.72379 1.054072,0.61561 2.657286,1.80554 3.562698,2.64429 0.905411,0.83875 2.181984,1.90653 2.836828,2.37284 0.654844,0.46631 1.845469,1.38242 2.645833,2.0358 0.800365,0.65337 2.169583,1.6855 3.042708,2.29361 0.873125,0.60812 2.701631,1.94535 4.063346,2.97163 1.361716,1.02628 3.445309,2.55479 4.630209,3.39668 1.184899,0.8419 2.431261,1.64605 2.769693,1.787 0.338432,0.14095 1.142104,0.61871 1.785937,1.06168 0.643834,0.44297 1.170607,0.96221 1.170607,1.15388 0,0.19166 0.246766,0.66219 0.54837,1.04562 0.330438,0.42008 0.810527,0.69714 1.208019,0.69714 0.362807,0 0.919712,0.13644 1.237567,0.30321 0.317856,0.16676 0.673132,0.46442 0.789503,0.66146 0.116372,0.19703 0.384263,0.35825 0.595313,0.35825 0.21105,0 0.383728,0.18156 0.383728,0.40348 0,0.22191 0.418249,1.23401 0.929443,2.2491 0.511193,1.0151 1.099427,2.47064 1.307186,3.23454 0.207759,0.76391 0.92484,2.4263 1.593512,3.69422 0.668673,1.26792 1.332399,2.37739 1.474947,2.46549 0.142549,0.0881 0.420023,0.54514 0.61661,1.01564 l 0.357431,0.85545 1.086923,0.32565 c 0.597807,0.1791 1.834144,0.92985 2.747414,1.66832 0.913271,0.73847 2.017679,1.50125 2.454242,1.69506 0.436562,0.19381 1.121172,0.42146 1.521354,0.50588 l 0.727604,0.1535 v 0.63589 0.6359 l -0.957416,0.31598 c -0.526578,0.17379 -1.493085,0.2556 -2.147793,0.1818 -0.747368,-0.0842 -1.632712,-0.44596 -2.378939,-0.97195 -0.65371,-0.46077 -1.249503,-0.77683 -1.323987,-0.70235 -0.07448,0.0745 0.117189,1.07162 0.425939,2.21587 0.30875,1.14424 0.55954,2.54858 0.557311,3.12075 -0.0022,0.57217 -0.09744,1.18735 -0.21159,1.36706 -0.114146,0.17971 -0.577524,0.40074 -1.029729,0.49118 l -0.822191,0.16444 -0.450369,-0.68735 c -0.247702,-0.37804 -0.562119,-0.61828 -0.698704,-0.53387 -0.140449,0.0868 -0.169682,0.68928 -0.06729,1.38679 0.09958,0.67833 0.281747,1.50334 0.404824,1.83337 l 0.223777,0.60006 -0.524422,0.52442 c -0.31152,0.31152 -0.87984,0.52442 -1.399894,0.52442 -0.481509,0 -1.096611,-0.1617 -1.366894,-0.35933 l -0.491422,-0.35934 -0.205685,-4.73389 c -0.113126,-2.60364 -0.273001,-5.75045 -0.355277,-6.9929 -0.08228,-1.24245 -0.251193,-2.61326 -0.37537,-3.04624 -0.124177,-0.43298 -0.480293,-1.29166 -0.791369,-1.90818 -0.311077,-0.61652 -0.78974,-1.56743 -1.063697,-2.11314 -0.273957,-0.5457 -0.583781,-1.4089 -0.688497,-1.91822 -0.104717,-0.50933 -0.44542,-1.49159 -0.757119,-2.18282 -0.311699,-0.69122 -0.656719,-1.25677 -0.766712,-1.25677 -0.109992,0 -0.199985,-0.17859 -0.199985,-0.39687 0,-0.21828 -0.178594,-0.39688 -0.396875,-0.39688 -0.218282,0 -0.399728,0.14883 -0.403214,0.33073 -0.0035,0.1819 -1.429384,1.64042 -3.168661,3.24115 l -3.162323,2.91041 -0.0063,0.6953 c -0.0035,0.38241 -0.18848,1.13121 -0.411097,1.66401 -0.222617,0.5328 -0.46091,1.82726 -0.529539,2.87658 -0.06863,1.04933 -0.309392,3.63427 -0.535028,5.74432 -0.225636,2.11005 -0.411253,4.25318 -0.412483,4.7625 -0.0012,0.50932 0.07574,1.41887 0.171032,2.02121 0.108739,0.6873 0.05103,1.32357 -0.154954,1.70846 -0.180522,0.3373 -0.987784,1.51135 -1.793916,2.60899 -0.806132,1.09765 -1.592415,2.08541 -1.747295,2.19504 -0.15488,0.10963 -0.75785,0.34128 -1.339933,0.51478 -0.715991,0.21342 -1.91419,1.09945 -3.704167,2.73912 -1.455208,1.33301 -2.943489,2.58071 -3.307291,2.77268 -0.363803,0.19197 -1.078178,0.43798 -1.5875,0.54669 -0.509323,0.10871 -1.819011,0.49947 -2.910417,0.86835 -1.091406,0.36889 -2.758281,0.92568 -3.704167,1.23733 -0.945885,0.31164 -2.136743,0.6241 -2.64635,0.69435 -0.509607,0.0703 -0.994939,0.0593 -1.078516,-0.0242 z m 7.30177,-4.32815 c 1.663156,-0.56007 2.701089,-1.09194 3.425142,-1.75514 0.571374,-0.52336 1.292727,-0.95156 1.603006,-0.95156 0.325319,0 1.239916,-0.64406 2.160427,-1.52136 0.877955,-0.83674 1.908773,-2.02225 2.290706,-2.63446 0.381933,-0.6122 0.926459,-1.23728 1.210059,-1.38906 0.283599,-0.15178 0.800971,-0.27596 1.149716,-0.27596 h 0.634081 l 0.0047,-1.38906 c 0.0026,-0.76398 0.09603,-1.71601 0.207707,-2.11562 0.132658,-0.47466 0.06629,-1.02504 -0.19142,-1.5875 -0.216962,-0.47352 -0.463267,-1.48602 -0.547345,-2.25 -0.08923,-0.81082 -0.04792,-1.38907 0.09925,-1.38907 0.138664,0 0.252117,-0.37571 0.252117,-0.83492 0,-0.46706 0.273563,-1.19564 0.620903,-1.65364 l 0.620902,-0.81873 0.151642,-2.57968 c 0.0834,-1.41883 0.09574,-2.57969 0.02742,-2.57969 -0.06832,0 -0.464988,0.17621 -0.881475,0.39159 -0.416487,0.21537 -0.976121,0.66185 -1.243631,0.99218 -0.267511,0.33033 -0.938463,0.93835 -1.491005,1.35116 -0.552542,0.4128 -3.265621,2.92681 -6.029065,5.58668 -3.278989,3.15609 -5.647104,5.20752 -6.816825,5.90523 -0.98581,0.58801 -2.08273,1.1101 -2.437601,1.16019 -0.354871,0.0501 -0.64522,0.24183 -0.64522,0.42606 0,0.18423 -0.355415,0.56811 -0.789811,0.85307 l -0.789812,0.51811 -1.062272,-0.15256 c -0.584249,-0.0839 -2.252897,-0.62923 -3.708105,-1.21182 -1.455208,-0.58259 -3.122083,-1.40917 -3.704166,-1.83683 -0.582084,-0.42766 -2.347823,-1.54172 -3.923866,-2.47568 -1.576043,-0.93397 -3.83823,-2.24111 -5.027083,-2.90476 -1.188853,-0.66365 -3.1159117,-1.82893 -4.2823521,-2.58952 -1.1664404,-0.76059 -2.5951904,-1.73491 -3.1749999,-2.16514 -0.5798096,-0.43024 -1.8034147,-1.4868 -2.7191226,-2.34793 -0.9157078,-0.86112 -1.73426407,-1.49633 -1.81901384,-1.41158 -0.0847498,0.0847 -0.15475966,1.61756 -0.15557752,3.40626 -8.1786e-4,1.78869 0.0894243,3.46857 0.20053823,3.73307 0.11111389,0.26449 0.11371511,1.15746 0.00578,1.98437 -0.10793462,0.82691 -0.24514549,2.2286 -0.30491304,3.11488 l -0.10866827,1.6114 0.5787498,0.73576 c 0.31831234,0.40467 0.96555634,0.89738 1.43831994,1.09492 0.4727635,0.19753 1.1132926,0.71547 1.4233979,1.15097 0.3101053,0.4355 1.1236988,1.07707 1.8079854,1.42569 0.6842867,0.34863 1.6344382,0.85806 2.1114477,1.13207 0.4770096,0.27401 0.9350361,0.76065 1.0178367,1.08142 0.099446,0.38526 0.5501442,0.73584 1.3277904,1.03282 0.6474842,0.24728 1.7064102,0.78518 2.3531682,1.19534 0.646758,0.41017 1.356532,0.67645 1.577275,0.59174 0.220742,-0.0847 0.689724,0.0349 1.04218,0.26587 0.352456,0.23094 1.452865,0.64578 2.445353,0.92186 0.992488,0.27609 2.272125,0.69829 2.843638,0.93823 0.695757,0.2921 2.09459,0.4749 4.233333,0.55321 1.778956,0.0651 3.765012,-0.009 4.482486,-0.16655 l 1.288267,-0.28349 0.696108,0.54514 0.696108,0.54514 1.719792,-0.0848 c 1.008787,-0.0497 2.706338,-0.41699 4.10607,-0.88835 z m -7.984223,-12.49629 c 0.433705,-0.48676 0.966347,-0.79375 1.377193,-0.79375 0.368476,0 1.111698,-0.22562 1.651604,-0.50138 0.539906,-0.27577 3.091166,-2.56772 5.669468,-5.09323 2.578301,-2.52552 5.16791,-4.94211 5.754687,-5.3702 0.586777,-0.4281 1.066867,-0.87373 1.066867,-0.9903 0,-0.11656 0.863203,-0.85223 1.918229,-1.63482 1.055026,-0.78259 2.666871,-2.09313 3.581876,-2.91231 0.915006,-0.81918 1.75665,-1.48942 1.870319,-1.48942 0.11367,0 1.210497,-0.98704 2.437395,-2.19341 1.226897,-1.20638 2.617676,-2.73608 3.090618,-3.39933 0.472943,-0.66326 0.859896,-1.33607 0.859896,-1.49514 0,-0.15907 -0.148299,-0.38088 -0.329555,-0.4929 -0.181255,-0.11202 -0.865864,-0.28569 -1.521354,-0.38594 -0.655489,-0.10024 -1.906174,-0.31258 -2.779299,-0.47186 -0.873125,-0.15928 -2.719323,-0.2903 -4.102663,-0.29114 -1.383339,-8.4e-4 -4.062246,0.18195 -5.953125,0.4062 -2.349042,0.2786 -5.197816,0.38335 -8.994212,0.33073 l -5.55625,-0.077 -1.190625,0.49357 c -0.654843,0.27146 -1.607343,0.5431 -2.116666,0.60365 -0.509323,0.0606 -1.087163,0.002 -1.284088,-0.12919 l -0.358046,-0.23928 0.278147,-0.51972 c 0.152981,-0.28585 1.088008,-0.9246 2.077838,-1.41944 0.98983,-0.49485 2.037815,-0.93458 2.328857,-0.97719 0.291042,-0.0426 2.910417,-0.12282 5.820833,-0.17825 2.910417,-0.0554 5.886979,-0.18062 6.614584,-0.2782 0.727604,-0.0976 1.561041,-0.18276 1.852083,-0.1893 0.291041,-0.007 2.13651,-0.18095 4.101041,-0.38759 1.964532,-0.20663 4.013288,-0.34521 4.552792,-0.30795 0.539504,0.0373 1.051037,-0.002 1.136739,-0.0881 0.0857,-0.0857 -0.242716,-0.55711 -0.729817,-1.04756 -0.487101,-0.49045 -1.687636,-1.58767 -2.667854,-2.43827 -0.980218,-0.85059 -2.455392,-1.9519 -3.278164,-2.44734 -0.822771,-0.49545 -1.56252,-0.99081 -1.643884,-1.10081 -0.08136,-0.10999 -0.586477,-0.52673 -1.122471,-0.92609 -0.535993,-0.39935 -1.05352,-0.7261 -1.150059,-0.7261 -0.09654,0 -0.967686,-0.72883 -1.935883,-1.61962 -0.968196,-0.8908 -2.058013,-1.81064 -2.421815,-2.0441 -0.363802,-0.23345 -1.69386,-1.36308 -2.955684,-2.51029 -1.261825,-1.1472 -2.988231,-2.50457 -3.836459,-3.01637 -0.848227,-0.5118 -2.184192,-1.23511 -2.96881,-1.60736 -0.784618,-0.37225 -1.482815,-0.89186 -1.551549,-1.15471 l -0.124971,-0.47789 -0.69741,0.17324 c -0.383574,0.0953 -1.173659,0.54024 -1.755742,0.98881 -0.582083,0.44856 -1.713177,1.35211 -2.513541,2.00788 -0.800365,0.65577 -1.954243,1.57888 -2.564173,2.05136 -0.609931,0.47248 -1.221574,0.85905 -1.359209,0.85905 -0.137634,0 -2.569089,2.05383 -5.403233,4.56407 -2.8341436,2.51023 -5.7943747,5.07108 -6.5782911,5.69076 -0.7839163,0.61969 -2.4373337,1.65557 -3.6742607,2.30196 -1.2369271,0.64639 -2.80381258,1.56812 -3.4819678,2.0483 -0.6781551,0.48017 -2.5919666,1.84422 -4.2529144,3.03123 -1.6609477,1.187 -3.2194528,2.46273 -3.4633447,2.83496 -0.2438918,0.37222 -0.4388023,0.77026 -0.4331344,0.88452 0.00567,0.11426 1.1665272,0.88078 2.5796874,1.70337 1.4131603,0.8226 3.4028198,1.94024 4.4214656,2.48365 1.0186458,0.54341 2.53312936,1.39488 3.365519,1.89215 0.8323896,0.49728 1.7535017,1.20934 2.0469158,1.58235 0.2934141,0.37302 0.4713946,0.77867 0.3955121,0.90145 -0.075882,0.12278 -0.5737111,0.30498 -1.106286,0.40489 l -0.9683179,0.18166 1.0437451,0.89351 c 0.5740598,0.49143 1.4405871,1.0874 1.9256162,1.32438 0.4850291,0.23697 0.9954691,0.72964 1.1343112,1.09483 0.1866437,0.49091 0.3298413,0.58656 0.5494036,0.367 0.2195624,-0.21956 0.6135282,-0.0373 1.5115221,0.69933 0.6680072,0.54797 1.8005181,1.37659 2.5166909,1.84138 0.716173,0.4648 1.439559,0.84508 1.607525,0.84508 0.167966,0 0.585027,0.29766 0.926801,0.66146 0.341774,0.3638 0.814966,0.66146 1.051537,0.66146 0.236571,0 0.543239,0.11302 0.681484,0.25115 0.138245,0.13814 1.322916,0.8132 2.632604,1.50014 1.309687,0.68694 3.512344,1.83894 4.894792,2.56 1.382447,0.72106 3.287447,1.71113 4.233333,2.20016 0.945885,0.48903 1.90847,0.89089 2.139077,0.89302 0.230607,0.002 0.737541,-0.35332 1.12652,-0.78989 z"
       id="path2" /></g></svg>
