<?xml version="1.0" encoding="UTF-8" standalone="no"?>
<!-- Created with Inkscape (http://www.inkscape.org/) -->

<svg
   width="353.13361mm"
   height="376.81714mm"
   viewBox="0 0 353.1336 376.81714"
   version="1.1"
   id="svg1"
   xml:space="preserve"
   xmlns="http://www.w3.org/2000/svg"
   xmlns:svg="http://www.w3.org/2000/svg"><defs
     id="defs1" /><g
     id="layer1"
     transform="translate(101.06732,-75.781991)"><path
       style="fill:#ddaabb;fill-opacity:1"
       d="m -12.775675,452.17482 c -0.607329,-0.23822 -1.5406,-0.78875 -2.073935,-1.22339 l -0.969699,-0.79026 -0.663532,-2.24896 c -0.431452,-1.46235 -0.741946,-3.383 -0.887722,-5.49125 -0.123304,-1.78326 -0.291562,-3.3513 -0.373905,-3.48454 -0.08234,-0.13323 -0.205609,-0.99592 -0.273923,-1.91708 -0.06831,-0.92116 -0.188277,-3.99655 -0.266586,-6.83421 -0.0969,-3.51118 -0.03723,-5.79329 0.186774,-7.14375 0.181035,-1.09141 0.330126,-2.83141 0.331313,-3.86668 0.0014,-1.19309 -0.128475,-2.03972 -0.354612,-2.31219 -0.196224,-0.23644 -0.454495,-0.36949 -0.573935,-0.29567 -0.11944,0.0738 -0.731027,-0.0763 -1.359083,-0.33364 l -1.14192,-0.46786 -6.746875,0.001 c -3.710781,7.9e-4 -10.140156,0.17411 -14.2875,0.38515 -4.147344,0.21104 -8.314531,0.36998 -9.260417,0.35319 -0.945885,-0.0168 -4.279635,-0.0921 -7.408333,-0.16745 -3.128698,-0.0753 -7.474479,-0.11807 -9.657292,-0.095 -2.182812,0.0231 -6.052344,0.0326 -8.598958,0.0213 -2.546615,-0.0114 -6.144939,-0.11457 -7.996277,-0.22935 l -3.366068,-0.20869 -0.78376,0.83902 -0.78376,0.83902 -0.744964,-0.18117 c -0.409729,-0.0996 -0.979815,-0.34199 -1.266855,-0.53856 -0.287041,-0.19657 -0.707855,-0.3574 -0.935142,-0.3574 -0.227287,0 -0.605013,-0.32742 -0.839392,-0.72761 -0.234379,-0.40018 -0.538869,-1.14432 -0.676644,-1.65364 l -0.250501,-0.92604 0.477891,-0.79375 c 0.262841,-0.43657 0.772922,-1.38907 1.133515,-2.11667 0.360593,-0.7276 0.73599,-1.97776 0.834215,-2.77813 0.09823,-0.80036 0.507457,-2.76489 0.909402,-4.36562 0.401946,-1.60073 0.813111,-3.56526 0.9137,-4.36563 0.100589,-0.80036 0.412595,-2.68164 0.693347,-4.18061 0.280753,-1.49898 0.510459,-3.54491 0.510459,-4.54652 0,-1.00161 0.244974,-3.22798 0.544387,-4.94751 0.299413,-1.71952 0.658727,-3.95983 0.798475,-4.97848 0.139749,-1.01865 0.327845,-2.98318 0.417992,-4.36562 0.09015,-1.38245 0.166986,-2.8112 0.170754,-3.175 0.0038,-0.36381 -0.01375,-1.07818 -0.03892,-1.5875 -0.02518,-0.50933 0.03056,-1.68853 0.123853,-2.62045 0.09591,-0.95805 0.03461,-2.45283 -0.141063,-3.43959 -0.17088,-0.95984 -0.411559,-3.20818 -0.534843,-4.99629 l -0.224152,-3.25112 -0.731438,-1.05547 -0.731437,-1.05546 0.291851,-0.58821 c 0.160519,-0.32351 0.328971,-0.82633 0.37434,-1.11737 0.04883,-0.31322 0.324326,-0.56367 0.675097,-0.61372 0.325935,-0.0465 0.592609,-0.18161 0.592609,-0.30024 0,-0.11863 0.648212,-0.29668 1.44047,-0.39567 0.975877,-0.12193 1.637228,-0.0717 2.050521,0.15572 0.335528,0.18463 0.729113,0.35283 0.874634,0.37377 0.145521,0.0209 0.324115,0.072 0.396875,0.11351 0.07276,0.0415 1.058025,0.10706 2.189478,0.14572 1.131452,0.0387 2.213969,0.20042 2.405594,0.35945 0.191624,0.15904 0.408298,0.22927 0.481497,0.15607 0.0732,-0.0732 0.83615,-0.188 1.695447,-0.25512 0.859298,-0.0671 2.336266,-0.28201 3.282151,-0.47754 0.945885,-0.19554 2.553229,-0.8044 3.571875,-1.35304 1.018646,-0.54864 2.430309,-1.55274 3.137028,-2.23134 0.70672,-0.6786 2.025605,-2.14298 2.930857,-3.25418 1.192247,-1.46348 1.770279,-2.448 2.097124,-3.57187 0.248167,-0.85334 0.558143,-1.90871 0.688835,-2.34527 0.130692,-0.43656 0.432633,-2.04391 0.67098,-3.57188 0.238346,-1.52797 0.536591,-3.67109 0.662766,-4.7625 0.144564,-1.25047 0.127019,-2.66935 -0.04744,-3.83646 -0.152267,-1.01864 -0.461269,-2.38786 -0.686669,-3.0427 -0.225401,-0.65485 -0.816864,-1.57839 -1.314363,-2.05231 -0.497499,-0.47393 -1.125511,-0.97994 -1.395582,-1.12448 -0.270071,-0.14454 -0.722412,-0.2628 -1.005202,-0.2628 -0.282791,0 -0.661296,-0.17728 -0.841124,-0.39396 -0.179827,-0.21668 -0.424354,-0.33377 -0.543392,-0.2602 -0.119038,0.0736 -0.671095,-0.0613 -1.226792,-0.2998 -0.555697,-0.23845 -1.200509,-0.52772 -1.432915,-0.64281 -0.232405,-0.11509 -1.542093,-0.29417 -2.910416,-0.39796 -1.368323,-0.10379 -2.606923,-0.25884 -2.752444,-0.34455 -0.145521,-0.0857 -1.144038,-0.19085 -2.218926,-0.23363 -1.177361,-0.0469 -2.097452,0.041 -2.314305,0.22097 -0.197979,0.16431 -0.993473,0.31423 -1.767764,0.33316 l -1.407802,0.0344 -1.106539,-0.73136 -1.106539,-0.73136 0.0016,-0.98843 c 8.97e-4,-0.54364 0.189367,-1.34562 0.418824,-1.78218 0.229457,-0.43657 0.528311,-1.4486 0.66412,-2.24896 0.13581,-0.80037 0.374651,-2.88396 0.530758,-4.63021 0.156107,-1.74625 0.303004,-4.37709 0.326437,-5.84631 0.02818,-1.7667 0.160793,-2.81372 0.391611,-3.09184 0.221113,-0.26643 0.352525,-1.17817 0.35861,-2.48807 0.0053,-1.13714 0.294556,-3.45817 0.64283,-5.15785 0.348274,-1.69967 0.757868,-4.6167 0.910209,-6.48229 0.152342,-1.86559 0.390625,-4.03892 0.529519,-4.82963 0.138895,-0.79071 0.252535,-2.27182 0.252535,-3.29136 0,-1.01954 0.115783,-2.51572 0.257296,-3.32485 0.141512,-0.80912 0.386565,-3.19754 0.544562,-5.30759 0.157997,-2.11005 0.410159,-4.64013 0.56036,-5.6224 0.150201,-0.98226 0.368372,-1.78594 0.484824,-1.78594 0.116452,0 0.261871,-0.42948 0.323153,-0.95441 l 0.111422,-0.95441 -0.603988,-0.27519 c -0.332193,-0.15136 -0.73421,-0.66978 -0.89337,-1.15204 l -0.289382,-0.87683 0.724762,-1.23671 c 0.39862,-0.6802 0.754374,-1.60753 0.790565,-2.06075 0.03619,-0.45322 0.26134,-1.59794 0.500331,-2.54382 0.23899,-0.94589 0.605326,-1.98349 0.81408,-2.3058 0.208754,-0.3223 0.379552,-0.83824 0.379552,-1.14654 0,-0.30829 0.232686,-1.47334 0.517081,-2.589 0.284394,-1.11565 0.704292,-3.10002 0.933105,-4.4097 0.228813,-1.30969 0.700884,-4.34578 1.049045,-6.74688 0.348162,-2.40109 0.706473,-5.8539 0.796247,-7.67291 0.08977,-1.81901 0.28322,-4.61698 0.429881,-6.21771 0.146661,-1.60073 0.5076,-4.51776 0.802088,-6.48229 0.294487,-1.96454 0.589937,-5.03848 0.656555,-6.83099 0.06662,-1.79251 0.04262,-3.85089 -0.05333,-4.57419 l -0.174451,-1.31507 -1.353633,0.0309 c -0.744498,0.017 -2.779784,-0.0459 -4.522857,-0.13988 -1.743073,-0.0939 -3.300175,-0.27948 -3.460225,-0.41231 -0.160051,-0.13283 -1.055619,-0.35769 -1.990151,-0.49969 -0.934532,-0.14201 -2.1754,-0.33954 -2.757483,-0.43896 -0.582083,-0.0994 -1.191831,-0.28517 -1.354996,-0.41276 -0.163164,-0.1276 -1.294258,-0.48322 -2.513541,-0.79026 -1.219284,-0.30705 -2.276411,-0.63373 -2.349171,-0.72596 -0.07276,-0.0922 -0.635755,-0.494 -1.251099,-0.89282 -0.615343,-0.39882 -1.176793,-0.72513 -1.247666,-0.72513 -0.07087,0 -1.139619,-0.65884 -2.374991,-1.4641 -1.235372,-0.80526 -2.596449,-1.8891 -3.024615,-2.40854 -0.428166,-0.51944 -1.071535,-1.4977 -1.42971,-2.17392 -0.358174,-0.67621 -0.928467,-2.33059 -1.267307,-3.6764 l -0.61609,-2.44691 0.61277,-2.18329 c 0.33702,-1.20081 0.955273,-2.80776 1.373897,-3.571 0.418625,-0.76324 1.504603,-2.35345 2.413285,-3.53381 0.908683,-1.18036 2.426057,-3.12735 3.371942,-4.32665 0.945886,-1.1993 2.672292,-2.97724 3.836459,-3.95099 1.164166,-0.97374 2.831041,-2.11974 3.704166,-2.54666 0.873125,-0.42692 2.182813,-0.90971 2.910417,-1.07288 0.727604,-0.16316 2.751667,-0.65255 4.497917,-1.08754 1.74625,-0.43498 3.413125,-0.89587 3.704166,-1.02419 0.291042,-0.12831 0.929166,-0.33001 1.418053,-0.44821 0.488888,-0.1182 1.858106,-0.12789 3.042709,-0.0215 1.184602,0.10637 2.367895,0.12953 2.629539,0.0515 0.261645,-0.0781 0.637998,-0.007 0.836341,0.15737 0.242496,0.20126 0.415687,0.2102 0.528724,0.0273 0.09246,-0.1496 0.286724,-1.67343 0.431707,-3.38629 0.158541,-1.87305 0.172585,-3.95791 0.03524,-5.23095 -0.125602,-1.16417 -0.145291,-3.72401 -0.04375,-5.68855 0.101538,-1.96453 0.124376,-4.94109 0.05075,-6.61458 -0.09699,-2.20467 -0.01653,-3.62569 0.292158,-5.15937 0.234311,-1.16417 0.487819,-3.1287 0.563352,-4.36563 0.07553,-1.23693 0.25125,-2.96333 0.390484,-3.83646 0.139234,-0.87312 0.375017,-2.59953 0.523964,-3.83646 0.148946,-1.23692 0.393956,-3.06877 0.544467,-4.07078 0.15051,-1.002 0.591245,-2.84747 0.979412,-4.10104 0.432936,-1.39815 0.745365,-3.10985 0.808218,-4.42798 l 0.102462,-2.14876 0.655434,-0.29863 c 0.360488,-0.16425 1.073944,-0.29864 1.585456,-0.29864 0.511513,0 1.488177,0.17306 2.170364,0.38458 0.682186,0.21151 2.874178,0.512 4.871093,0.66774 2.629593,0.20509 3.979305,0.43647 4.894791,0.83911 0.695221,0.30577 2.395132,0.84543 3.77758,1.19926 1.382448,0.35382 3.882761,0.77607 5.55625,0.93833 1.67349,0.16226 6.138334,0.28772 9.921875,0.2788 l 6.879167,-0.0162 1.5875,-0.5783 c 0.873125,-0.31807 1.911005,-0.64177 2.3064,-0.71934 0.395395,-0.0776 0.777336,-0.33646 0.848757,-0.5753 0.07142,-0.23885 0.375959,-1.74396 0.676749,-3.34469 0.300791,-1.60073 1.153376,-5.351197 1.894634,-8.334374 0.741257,-2.983177 1.728756,-6.257396 2.19444,-7.276042 0.465685,-1.018646 0.985589,-2.403904 1.155343,-3.078351 0.169753,-0.674447 0.9242126,-2.137444 1.6765759,-3.251104 0.849154,-1.256932 1.9794632,-2.50047 2.9804339,-3.279 0.8868753,-0.68979 2.0780246,-1.466367 2.6469984,-1.725729 0.5689739,-0.259361 1.5214739,-0.579539 2.1166667,-0.711506 0.59519285,-0.131967 1.91560632,-0.430639 2.9342522,-0.663714 1.0186458,-0.233075 2.8641146,-0.515228 4.1010416,-0.627005 1.2369271,-0.111778 2.6061459,-0.175522 3.0427084,-0.141652 0.4365625,0.03387 1.6867189,0.148875 2.7781249,0.25557 1.091406,0.106694 2.103438,0.264756 2.248958,0.351247 0.145521,0.08649 0.383646,0.163793 0.529167,0.171779 0.145521,0.008 0.681302,0.113913 1.190625,0.235391 0.509323,0.121478 1.461823,0.449689 2.116667,0.729356 0.654844,0.279668 1.397369,0.623374 1.650056,0.76379 0.252686,0.140417 0.592738,0.255303 0.755671,0.255303 0.162932,0 0.530377,0.297657 0.816543,0.661459 0.286167,0.363802 0.755325,0.661458 1.042573,0.661458 0.303294,0 0.711242,0.332098 0.972984,0.792077 0.247893,0.435642 0.540011,0.79283 0.649152,0.79375 0.109141,9.2e-4 0.198438,0.159944 0.198438,0.353386 0,0.193443 0.535781,1.291888 1.190625,2.440989 l 1.190625,2.089276 -0.01932,4.372031 c -0.01062,2.404618 -0.125375,5.026876 -0.255002,5.827241 -0.129628,0.800364 -0.414915,3.062552 -0.63397,5.027084 -0.219056,1.96453 -0.545537,4.32945 -0.725515,5.25538 l -0.327232,1.68351 0.411972,0.30087 c 0.287995,0.21032 2.832393,0.29427 8.454996,0.27897 4.423664,-0.0121 11.079119,-0.0987 14.7899,-0.19267 3.710781,-0.0939 7.401719,-0.23475 8.202083,-0.31296 0.800365,-0.0782 4.178741,-0.32108 7.507503,-0.53973 3.328762,-0.21865 6.186262,-0.48468 6.35,-0.59119 0.163738,-0.1065 3.988643,-0.22319 8.499789,-0.25931 4.511146,-0.0361 9.214115,-0.0678 10.451042,-0.0704 1.236927,-0.003 3.852531,0.007 5.812453,0.0211 1.959922,0.0142 3.770852,0.13679 4.024289,0.27242 l 0.460795,0.24661 0.562629,-0.761 0.56263,-0.76099 2.95371,-0.20733 c 1.62454,-0.11404 3.90621,-0.21434 5.07037,-0.22289 1.16417,-0.009 2.9466,0.0799 3.96095,0.19649 1.01435,0.11662 2.4431,0.42823 3.175,0.69247 0.7319,0.26423 2.0451,0.56244 2.91822,0.66268 0.87313,0.10024 1.81155,0.30186 2.08539,0.44805 0.27882,0.14883 2.19975,0.24859 4.36563,0.22671 2.12725,-0.0215 9.10647,-0.0752 15.50939,-0.11932 6.40291,-0.0442 13.72526,-0.1676 16.27187,-0.27435 2.54662,-0.10675 4.8088,-0.26467 5.02709,-0.35093 0.21828,-0.0862 0.635,-0.19465 0.92604,-0.24089 0.29104,-0.0462 1.3626,-0.1151 2.38125,-0.15303 1.2594,-0.0469 1.95522,-0.19598 2.1744,-0.46585 l 0.32231,-0.39688 0.008,0.37174 0.008,0.37174 0.51071,-0.46219 c 0.36441,-0.32979 0.5573,-0.96681 0.67334,-2.22382 0.0894,-0.9689 0.29498,-2.29741 0.45675,-2.95226 0.16177,-0.65484 0.81835,-2.559842 1.45906,-4.233331 0.64072,-1.67349 1.56167,-3.816615 2.04656,-4.7625 0.48489,-0.945885 0.96397,-2.108768 1.06461,-2.584183 0.10064,-0.475416 0.56098,-1.487447 1.02298,-2.248959 0.46199,-0.761511 1.49388,-2.210676 2.29309,-3.220366 0.79921,-1.009689 1.88737,-2.259846 2.41813,-2.778125 0.53076,-0.518279 1.56531,-1.266305 2.299,-1.662279 0.73369,-0.395975 2.11213,-0.844265 3.0632,-0.996199 0.95107,-0.151934 2.05965,-0.408168 2.4635,-0.569408 0.40385,-0.16124 1.98443,-0.304621 3.5124,-0.318623 2.03222,-0.01862 3.14876,0.101625 4.15856,0.447864 0.75924,0.260327 1.94986,0.79283 2.64583,1.183338 0.69597,0.390509 2.05771,1.459751 3.02609,2.376095 l 1.76068,1.666078 0.45827,1.904988 c 0.25206,1.047743 0.54456,2.02405 0.65,2.169571 0.10545,0.145521 0.26249,0.724593 0.34898,1.286827 0.0912,0.593011 -0.0606,2.148365 -0.3616,3.704167 -0.28536,1.475057 -0.69243,3.58544 -0.90459,4.689739 -0.21217,1.1043 -0.52015,2.354456 -0.6844,2.778125 -0.16426,0.423671 -0.39575,1.901401 -0.51442,3.283851 -0.11868,1.38245 -0.25654,2.75167 -0.30636,3.04271 l -0.0906,0.52916 3.70417,0.0325 c 2.03729,0.0179 4.65666,0.14698 5.82083,0.28686 1.16417,0.13988 4.0812,0.21504 6.48229,0.16703 2.4011,-0.048 5.55625,-0.21186 7.01146,-0.36413 1.45521,-0.15226 5.68193,-0.24206 9.39271,-0.19956 4.00415,0.0459 7.85597,-0.0495 9.47516,-0.23459 1.50055,-0.17152 2.89244,-0.4481 3.09307,-0.61461 0.20064,-0.16652 0.58026,-0.26728 0.8436,-0.22391 0.26334,0.0434 0.64093,-0.0227 0.83911,-0.14689 0.21894,-0.13716 0.43477,-0.10525 0.55009,0.0813 0.10438,0.16889 0.59708,0.35157 1.09489,0.40595 0.49782,0.0544 1.29207,0.18446 1.76502,0.28906 0.6198,0.13709 0.87109,0.34718 0.9,0.75243 0.0221,0.30924 0.0406,1.00393 0.0412,1.54377 6.2e-4,0.53985 -0.1171,1.13516 -0.2616,1.32292 -0.14451,0.18776 -0.50605,1.05576 -0.80343,1.92889 -0.29739,0.87312 -0.74313,2.43147 -0.99055,3.463 -0.24742,1.03153 -0.41806,2.04356 -0.37922,2.24896 0.0388,0.2054 -0.0219,0.90923 -0.1349,1.56408 -0.11304,0.65484 -0.36703,1.7264 -0.56442,2.38125 -0.19739,0.65484 -0.55037,2.52661 -0.78439,4.15949 -0.23403,1.63287 -0.47613,3.57116 -0.53802,4.30731 -0.0619,0.73615 -0.23582,1.56885 -0.38652,1.85044 -0.15071,0.2816 -0.33495,1.08175 -0.40944,1.77811 -0.0745,0.69636 -0.21378,1.62329 -0.30955,2.05986 -0.0958,0.43656 -0.19599,1.15093 -0.22271,1.5875 -0.0267,0.43656 -0.30573,1.98437 -0.62,3.43958 -0.31427,1.45521 -0.68659,2.94349 -0.82737,3.30729 -0.14078,0.3638 -0.43273,1.67349 -0.64877,2.91042 -0.21604,1.23692 -0.39499,2.92618 -0.39768,3.75389 -0.003,0.82772 -0.20175,2.316 -0.44238,3.30729 -0.27793,1.14496 -0.44682,3.02268 -0.46302,5.14802 l -0.0255,3.34567 -0.47897,0.52925 c -0.26343,0.29109 -0.83422,0.58139 -1.26842,0.64512 -0.4342,0.0637 -0.85077,0.0166 -0.92571,-0.10461 -0.0749,-0.12126 -0.3513,-0.22047 -0.61413,-0.22047 -0.26283,0 -0.79158,-0.24676 -1.17501,-0.54837 -0.38342,-0.3016 -0.69713,-0.4537 -0.69713,-0.338 0,0.1157 -0.18534,-0.0542 -0.41188,-0.37767 -0.22653,-0.32342 -0.56526,-0.58804 -0.75274,-0.58804 -0.18747,0 -0.56299,-0.24545 -0.83449,-0.54545 -0.27953,-0.30888 -0.69895,-0.49175 -0.96705,-0.42164 -0.26038,0.0681 -0.47342,0.0253 -0.47342,-0.095 0,-0.12034 -0.3502,-0.29571 -0.77823,-0.38972 -0.43744,-0.0961 -1.04572,-0.0321 -1.38906,0.14605 -0.33596,0.17434 -1.41966,0.84968 -2.40823,1.50076 -1.07478,0.70786 -2.60143,2.10328 -3.79735,3.47094 -1.09999,1.25795 -2.29932,2.94202 -2.66518,3.74238 -0.36586,0.80037 -0.90669,2.28865 -1.20183,3.3073 l -0.53662,1.85208 -0.0279,3.57187 -0.0279,3.57188 0.86619,1.23833 c 0.58568,0.8373 1.1734,1.33971 1.81477,1.55139 l 0.94858,0.31306 1.62481,-0.32273 c 0.89365,-0.1775 2.63685,-0.65694 3.87377,-1.06543 1.5723,-0.51923 3.00523,-0.78266 4.7625,-0.87552 1.38245,-0.0731 2.88859,-0.28359 3.34699,-0.46784 l 0.83344,-0.33502 1.47877,0.33094 c 0.81333,0.18201 1.58301,0.51719 1.71041,0.74484 0.1274,0.22765 0.14331,0.80552 0.0354,1.28416 -0.11313,0.50161 -0.60074,1.22539 -1.1511,1.7086 -0.56976,0.50026 -1.05326,1.22873 -1.19892,1.80637 -0.13426,0.53241 -0.32207,1.56333 -0.41736,2.29093 -0.0953,0.72761 -0.53407,3.04932 -0.97505,5.15938 -0.44098,2.11005 -0.90629,4.61036 -1.03402,5.55625 -0.12773,0.94588 -0.46038,2.73182 -0.73921,3.96875 -0.27884,1.23692 -0.81169,3.61817 -1.18414,5.29166 -0.37244,1.67349 -0.75434,3.63802 -0.84871,4.36563 -0.0944,0.7276 -0.33397,1.97776 -0.53247,2.77812 -0.1985,0.80037 -0.35766,1.69334 -0.35366,1.98438 0.004,0.29104 -0.0764,1.48166 -0.17869,2.64583 -0.10227,1.16417 -0.29515,2.32879 -0.42862,2.58806 -0.13347,0.25926 -0.3475,1.33082 -0.4756,2.38125 -0.12811,1.05042 -0.52562,4.11251 -0.88337,6.80465 -0.35774,2.69213 -0.58896,5.29143 -0.51384,5.77621 0.0751,0.48478 0.012,1.13963 -0.14018,1.45521 -0.15222,0.31558 -0.3381,1.10957 -0.41306,1.76441 -0.093,0.81262 -0.0133,1.357 0.2512,1.71465 0.2478,0.33511 0.32719,0.79862 0.22017,1.2858 -0.092,0.41898 -0.4612,1.3738 -0.82042,2.12181 -0.35921,0.74802 -0.88247,1.77675 -1.16282,2.28607 -0.28033,0.50933 -0.51236,1.2237 -0.5156,1.5875 -0.003,0.36381 -0.23603,2.03068 -0.5173,3.70417 -0.28127,1.67349 -0.81362,4.41193 -1.18299,6.08542 -0.36937,1.67349 -0.9072,3.87614 -1.19519,4.89479 -0.28799,1.01865 -0.52709,2.235 -0.53132,2.703 -0.004,0.46801 -0.17259,1.24191 -0.37411,1.71979 -0.20151,0.47788 -0.5007,1.40466 -0.66485,2.0595 -0.16415,0.65484 -0.58383,2.50031 -0.93262,4.10104 l -0.63416,2.91042 -0.17227,5.55625 c -0.0948,3.05594 -0.34257,6.86594 -0.5507,8.46667 -0.20812,1.60072 -0.42839,3.44619 -0.48948,4.10104 -0.0611,0.65484 -0.0461,1.98355 0.0334,2.95268 0.0795,0.96914 0.23486,1.90832 0.34534,2.08708 0.11048,0.17876 0.54086,0.32433 0.95641,0.32348 0.41555,-8.6e-4 1.58898,-0.032 2.60762,-0.0693 1.01865,-0.0373 2.18175,0.0639 2.58467,0.22491 0.40292,0.16097 2.54605,0.34599 4.7625,0.41117 2.41758,0.0711 4.77092,0.29403 5.882,0.55724 1.01865,0.24131 2.17386,0.50042 2.56715,0.57581 0.44021,0.0844 1.93117,1.30063 3.87895,3.16425 2.13478,2.04256 3.30067,3.36906 3.58441,4.07821 0.23129,0.57806 0.42053,1.48136 0.42053,2.00734 0,0.52598 0.12995,1.68443 0.28877,2.57433 l 0.28878,1.618 -0.39797,2.61229 -0.39798,2.61229 -1.08142,1.1019 c -0.59479,0.60604 -1.08143,1.23607 -1.08143,1.40007 0,0.164 -0.62508,0.75474 -1.38906,1.31276 -0.76398,0.55803 -2.00114,1.61405 -2.74925,2.34671 -0.7481,0.73267 -1.99825,1.64224 -2.77812,2.02126 -0.77987,0.37902 -2.13232,0.84133 -3.00544,1.02735 -0.87313,0.18602 -2.14909,0.61596 -2.83548,0.95544 -0.68638,0.33947 -1.61503,0.61723 -2.06366,0.61723 -0.44862,0 -1.14131,0.16838 -1.53929,0.37419 -0.39797,0.2058 -1.19574,0.46003 -1.77279,0.56494 -0.57706,0.10491 -1.4876,0.41107 -2.02342,0.68036 -0.53583,0.26929 -1.05608,0.62202 -1.1561,0.78386 -0.10002,0.16184 -0.28824,1.68159 -0.41826,3.37722 -0.13002,1.69563 -0.29357,4.73011 -0.36342,6.74327 -0.0699,2.01317 -0.18696,3.7573 -0.26023,3.87585 -0.0733,0.11855 -0.13094,1.26938 -0.12814,2.5574 0.003,1.28803 0.0585,4.60405 0.12393,7.36895 0.0654,2.76489 0.13021,6.45583 0.14409,8.20208 0.0139,1.74625 0.13953,5.19906 0.27923,7.67292 0.13973,2.47385 0.31285,5.8076 0.38475,7.40833 0.0719,1.60073 0.22485,5.22555 0.33989,8.05516 0.11504,2.82961 0.11959,5.68711 0.0101,6.35 -0.10947,0.66289 -0.20614,1.71289 -0.21482,2.33333 -0.009,0.62043 0.0893,1.33481 0.21774,1.5875 0.12843,0.25268 0.48769,1.12158 0.79836,1.93088 l 0.56486,1.47146 -0.45008,0.90979 c -0.24754,0.50039 -0.61122,1.03049 -0.80817,1.178 -0.22071,0.16531 -2.51143,0.24947 -5.97068,0.21937 -4.01437,-0.0349 -6.366,0.0695 -8.25842,0.36669 l -2.64583,0.41553 -4.23333,-0.68907 -4.23333,-0.68906 -4.36563,0.27128 c -2.4011,0.1492 -5.65881,0.31883 -7.23936,0.37695 -1.62133,0.0596 -3.03385,0.23856 -3.24115,0.41059 -0.20208,0.16772 -0.36741,0.64052 -0.36741,1.05067 0,0.41016 -0.12971,0.8259 -0.28823,0.92388 -0.19115,0.11813 -0.27099,1.52693 -0.23708,4.1828 0.0281,2.20257 -0.003,4.39407 -0.07,4.87 -0.0666,0.47593 -0.19806,0.94226 -0.29209,1.03628 -0.094,0.094 -0.17096,0.40756 -0.17096,0.69674 0,0.28919 -0.44648,1.29366 -0.99217,2.23217 -0.54572,0.93851 -1.18903,2.08435 -1.42961,2.54631 -0.24057,0.46196 -1.37178,1.84866 -2.5138,3.08155 -1.14201,1.23289 -2.45978,2.84198 -2.92837,3.57577 -0.46859,0.73378 -1.399,1.74402 -2.06758,2.24496 -0.66857,0.50095 -1.88654,1.71628 -2.70659,2.70074 -0.82006,0.98447 -1.55665,1.78994 -1.63689,1.78994 -0.0802,0 -0.72625,0.54047 -1.43557,1.20105 -0.70931,0.66058 -1.68816,1.36756 -2.17519,1.57105 -0.62732,0.26212 -1.13002,0.29989 -1.724,0.12953 -0.46116,-0.13226 -0.91706,-0.1919 -1.01312,-0.13253 -0.0961,0.0594 -1.00183,-0.17967 -2.01285,-0.53119 -1.01101,-0.35152 -2.12059,-0.7886 -2.46573,-0.9713 -0.34513,-0.18269 -1.11078,-1.04844 -1.70144,-1.92387 -0.59065,-0.87544 -1.17147,-1.63139 -1.2907,-1.6799 -0.11924,-0.0485 -0.21679,-0.3012 -0.21679,-0.56154 0,-0.26034 -0.28322,-1.35174 -0.62937,-2.42534 -0.34614,-1.0736 -0.72348,-3.02357 -0.83851,-4.33325 -0.11504,-1.30969 -0.20617,-2.67891 -0.20252,-3.04271 0.004,-0.3638 0.0304,-0.95912 0.0594,-1.32292 0.029,-0.3638 -0.0227,-1.01865 -0.11488,-1.45521 l -0.16766,-0.79375 0.27879,0.39688 c 0.2006,0.28555 0.23834,-0.19684 0.13457,-1.71979 -0.0793,-1.16417 -0.13171,-3.1287 -0.11643,-4.36563 0.0153,-1.23693 0.0691,-3.17703 0.11966,-4.31134 0.0505,-1.1343 0.24017,-2.59201 0.42141,-3.23935 l 0.32953,-1.17698 -0.36011,-0.43391 -0.36011,-0.43391 -2.35344,0.16706 c -1.29439,0.0919 -2.7847,0.27587 -3.31179,0.40887 -0.5271,0.133 -1.67273,0.3664 -2.54586,0.51866 -0.87312,0.15226 -2.95671,0.35306 -4.6302,0.44621 -1.67349,0.0932 -3.8002,0.33761 -4.72603,0.54323 -0.92582,0.20562 -2.71176,0.35977 -3.96875,0.34254 -1.25699,-0.0172 -3.83325,0.10633 -5.72502,0.27456 -1.89177,0.16823 -3.73724,0.41045 -4.10104,0.53826 -0.3638,0.12782 -1.19724,0.29806 -1.85208,0.37831 -0.65484,0.0803 -2.55984,0.23401 -4.23333,0.34166 -1.67349,0.10765 -3.45943,0.18854 -3.96875,0.17975 -0.50933,-0.009 -3.06405,-0.15965 -5.67716,-0.33524 -2.61312,-0.1756 -6.12546,-0.2444 -7.805215,-0.15289 -1.679751,0.0915 -4.185187,0.0462 -5.567634,-0.10066 -1.382448,-0.14687 -3.99179,-0.46024 -5.798536,-0.69638 -2.319375,-0.30314 -3.797079,-0.36453 -5.027084,-0.20884 -0.958149,0.12127 -3.468495,0.18523 -5.578547,0.14213 -2.110052,-0.0431 -4.312709,-0.10014 -4.894792,-0.12675 -0.582083,-0.0266 -3.201458,0.0231 -5.820833,0.11048 -2.619375,0.0874 -4.941094,0.22979 -5.159375,0.31649 -0.218282,0.0867 -1.408907,0.27045 -2.645834,0.40834 -1.236927,0.1379 -3.737239,0.56121 -5.55625,0.94071 -1.81901,0.3795 -4.797982,0.85785 -6.619938,1.063 -2.170031,0.24434 -6.869999,0.39291 -13.626042,0.43073 -5.672367,0.0318 -10.589081,0.15507 -10.926031,0.27404 -0.359846,0.12705 -0.826092,0.10206 -1.129947,-0.0606 -0.284521,-0.15227 -0.663679,-0.18439 -0.842572,-0.0714 -0.178894,0.11301 -1.575418,0.17265 -3.103387,0.13252 l -2.778125,-0.0729 -0.516746,0.37847 -0.516746,0.37847 0.303389,0.98853 0.303389,0.98853 -0.421225,0.64287 c -0.278838,0.42556 -0.445207,1.37617 -0.492172,2.81219 -0.03902,1.19313 -0.156096,2.38536 -0.260168,2.6494 -0.104072,0.26405 -0.09145,1.27608 0.02804,2.24896 0.119492,0.97288 0.202834,3.73341 0.185204,6.1345 l -0.03205,4.36563 -0.781793,2.11667 c -0.429986,1.16416 -1.308806,3.28834 -1.952934,4.72039 -0.6441277,1.43205 -1.5701111,3.07236 -2.0577409,3.64512 -0.4876297,0.57276 -1.6707635,1.62201 -2.6291863,2.33166 -1.0685952,0.79124 -2.3553625,1.46801 -3.3269017,1.74978 -0.8713733,0.25272 -1.76434205,0.55136 -1.98437505,0.66364 -0.220033,0.11228 -1.08466938,0.35273 -1.92141415,0.53434 -0.8367448,0.18162 -1.5213542,0.42213 -1.5213542,0.53448 0,0.11236 -0.9227344,0.40633 -2.0505208,0.65328 -1.1277865,0.24695 -2.1695834,0.53393 -2.3151042,0.63773 -0.1455209,0.10379 -1.2170834,0.1925 -2.38125,0.19712 -1.3524647,0.005 -2.5153407,-0.14797 -3.2209017,-0.42473 z m 5.1142338,-3.21906 c 0.1536555,-0.15366 1.2413666,-0.44732 2.4171357,-0.65258 1.1757691,-0.20526 3.2467541,-0.79924 4.6021888,-1.31995 1.35543472,-0.5207 2.783286,-1.07138 3.1730029,-1.22372 0.3897169,-0.15234 1.2412318,-0.80211 1.8922554,-1.44394 0.7571653,-0.74647 1.6086834,-2.04863 2.3631688,-3.6138 0.6487192,-1.34577 1.3602311,-2.98263 1.5811373,-3.63747 0.2209063,-0.65485 0.5447353,-1.78594 0.7196201,-2.51354 0.1748848,-0.72761 0.3812586,-2.39448 0.4586085,-3.70417 0.082284,-1.39324 -0.035412,-4.04854 -0.2836646,-6.39964 -0.2333654,-2.21012 -0.3549242,-4.19919 -0.2701307,-4.42016 0.084793,-0.22097 -0.033565,-1.22717 -0.2630183,-2.236 l -0.4171883,-1.83423 0.2839014,-1.53577 c 0.1561458,-0.84467 0.216933,-1.8706 0.1350825,-2.27986 -0.08185,-0.40925 -0.017064,-1.03326 0.1439688,-1.38669 0.2132455,-0.46802 0.5888958,-0.6937 1.3827349,-0.8307 0.599472,-0.10345 2.399636,-0.15742 4.000365,-0.11991 1.600729,0.0375 8.863541,0.10675 16.139583,0.15389 l 13.229167,0.0857 3.307292,-0.36546 c 1.81901,-0.20101 4.974166,-0.67282 7.011458,-1.04847 2.037292,-0.37565 4.597135,-0.87388 5.688542,-1.10717 1.212338,-0.25915 3.682856,-0.4587 6.35,-0.51291 2.401093,-0.0488 5.199062,-0.23247 6.217708,-0.40816 1.018646,-0.17569 2.864115,-0.33331 4.101042,-0.35027 1.236927,-0.017 2.450601,-0.056 2.697052,-0.0868 l 0.448095,-0.0559 -0.05122,-11.84011 c -0.02817,-6.51205 0.03765,-13.68557 0.146266,-15.94114 0.108617,-2.25557 0.317697,-5.05354 0.464621,-6.21771 0.146925,-1.16417 0.329361,-3.06917 0.405414,-4.23333 0.07605,-1.16417 0.256434,-5.09323 0.400847,-8.73125 0.144413,-3.63802 0.367939,-7.74568 0.496725,-9.12813 0.128785,-1.38245 0.245341,-3.83454 0.259011,-5.44909 l 0.02486,-2.93556 0.518558,-0.46929 c 0.348653,-0.31552 0.989405,-0.48067 1.955614,-0.50403 1.025849,-0.0248 1.581536,0.0958 1.941974,0.42132 0.277705,0.25083 1.004424,0.63229 1.614933,0.84769 0.610509,0.2154 2.271473,0.47113 3.691031,0.5683 1.573199,0.10768 3.562486,0.0506 5.094557,-0.14611 1.755124,-0.22538 3.277393,-0.63426 5.045083,-1.35508 1.39235,-0.56777 2.67997,-1.03231 2.86137,-1.03231 0.1814,0 0.9472,-0.26008 1.70179,-0.57794 0.75458,-0.31787 1.96727,-0.95567 2.69488,-1.41735 0.7276,-0.46168 1.79916,-1.27534 2.38125,-1.80813 0.58208,-0.53279 1.45144,-1.3535 1.93192,-1.8238 0.48047,-0.47029 1.28126,-1.54115 1.77953,-2.37968 0.49828,-0.83854 1.08743,-2.22494 1.30923,-3.0809 0.2218,-0.85596 0.40113,-2.13442 0.3985,-2.84102 l -0.005,-1.28473 -1.18949,-1.98437 c -0.65422,-1.09141 -1.59649,-2.57969 -2.09394,-3.30729 -0.49744,-0.72761 -1.27213,-1.75679 -1.72152,-2.28707 -0.44939,-0.53029 -1.43973,-1.44342 -2.20076,-2.02919 -0.96166,-0.74019 -2.10999,-1.28578 -3.76494,-1.7888 l -2.38125,-0.72377 -4.101039,-0.0911 -4.101042,-0.0911 -1.455208,0.42937 c -0.800365,0.23615 -1.633803,0.53398 -1.852084,0.66184 -0.218281,0.12787 -0.694531,0.35332 -1.058333,0.50101 -0.363802,0.14769 -1.094388,0.50459 -1.623524,0.79312 -0.529137,0.28852 -1.157951,0.52459 -1.397367,0.52459 -0.239415,0 -0.502909,0.17618 -0.585541,0.39152 -0.08263,0.21533 -0.539433,0.63205 -1.015113,0.92604 -0.47568,0.29399 -1.115525,0.53452 -1.421878,0.53452 -0.306352,0 -1.095388,-0.26157 -1.753411,-0.58126 -0.658024,-0.31969 -1.263118,-0.79144 -1.344653,-1.04834 -0.08154,-0.25689 -0.01191,-0.72182 0.154716,-1.03317 0.166628,-0.31134 0.250154,-1.11951 0.185612,-1.79593 -0.06454,-0.67641 -0.266118,-1.94422 -0.447948,-2.81734 -0.224176,-1.07647 -0.287556,-2.99285 -0.196884,-5.95313 0.0961,-3.13758 0.32257,-5.33317 0.805083,-7.8052 0.412904,-2.11542 0.782386,-5.31309 0.959743,-8.30607 0.158606,-2.67657 0.346136,-4.95995 0.416733,-5.07418 0.0706,-0.11423 0.304022,-2.15103 0.518722,-4.52622 0.2147,-2.37519 0.561016,-5.3901 0.769591,-6.69978 0.208575,-1.30969 0.450136,-3.94149 0.536802,-5.84846 0.08667,-1.90696 0.337247,-4.10961 0.556845,-4.89479 0.219598,-0.78517 0.53375,-2.21565 0.698117,-3.17883 0.164366,-0.96318 0.202288,-1.97521 0.08427,-2.24896 -0.118016,-0.27374 -0.19216,-0.6862 -0.164764,-0.91657 l 0.04981,-0.41885 -1.795086,-0.3003 c -0.987298,-0.16517 -3.113094,-0.41763 -4.723991,-0.56103 -1.610897,-0.1434 -3.15871,-0.21249 -3.439583,-0.15353 -0.280874,0.059 -1.463179,0.16331 -2.627346,0.2319 -1.164167,0.0686 -3.485885,0.30972 -5.159375,0.53585 -1.67349,0.22613 -4.90719,0.66149 -7.186002,0.96749 l -4.143293,0.55635 -5.117124,-0.0791 c -2.814417,-0.0435 -6.129154,-0.0945 -7.366081,-0.11346 -1.236927,-0.0189 -2.903802,-0.11297 -3.704167,-0.209 -0.800364,-0.096 -2.110052,-0.24802 -2.910416,-0.33778 -0.800365,-0.0898 -4.253178,-0.14392 -7.672917,-0.12034 -4.423215,0.0305 -6.705886,0.15608 -7.909186,0.43514 -0.930312,0.21575 -3.430624,0.45864 -5.55625,0.53976 -2.125625,0.0811 -4.015588,0.19497 -4.199917,0.25301 -0.184329,0.058 -2.267923,0.18493 -4.6302084,0.282 -2.3622851,0.0971 -4.5927201,0.29895 -4.9565222,0.44864 -0.3638021,0.14969 -1.1972396,0.29732 -1.8520833,0.32807 l -1.19062505,0.0559 -0.55959773,-0.56409 c -0.30777874,-0.31025 -0.65769297,-0.86174 -0.77758712,-1.22554 -0.1198942,-0.3638 -0.2470134,-0.82746 -0.2824871,-1.03035 -0.035474,-0.20288 0.1732889,-0.56143 0.46391692,-0.79677 l 0.52841462,-0.42788 -0.38299434,-0.73822 c -0.2792981,-0.53835 -0.3203562,-1.00317 -0.15164513,-1.71677 0.12724206,-0.53821 0.52378062,-2.76449 0.8811968,-4.9473 0.36154462,-2.20803 0.7105045,-5.67079 0.78657093,-7.80521 0.0751978,-2.11005 0.0185585,-5.56287 -0.12586528,-7.67292 -0.14442374,-2.11005 -0.3913179,-4.25317 -0.5486537,-4.7625 -0.15733579,-0.50932 -0.54092344,-1.31514 -0.85241698,-1.7907 l -0.56635194,-0.86467 -2.6433209,-0.81998 -2.6433209,-0.81998 -1.7223041,0.12646 -1.7223041,0.12645 -2.513542,1.23159 c -1.382448,0.67738 -3.011795,1.53204 -3.620771,1.89923 -0.608977,0.3672 -2.454446,1.82458 -4.101042,3.23862 -2.037343,1.7496 -3.391468,3.16218 -4.238503,4.42146 -0.68458,1.01777 -1.491631,2.48905 -1.793445,3.26953 -0.35375,0.91478 -0.460508,1.52593 -0.300425,1.71979 0.157841,0.19116 0.111547,0.68638 -0.127047,1.35908 -0.236655,0.66722 -0.366742,2.0361 -0.352015,3.70416 0.01285,1.45521 0.148156,3.06256 0.300684,3.57188 0.152528,0.50932 0.37667,1.18968 0.498092,1.5119 0.137761,0.36559 0.114075,0.65181 -0.063,0.76125 -0.176144,0.10886 -0.212992,0.53891 -0.09716,1.13392 0.102635,0.52721 0.233076,1.25621 0.289871,1.62001 0.05679,0.3638 0.176401,0.97834 0.265794,1.36564 l 0.162531,0.70419 -0.576055,0.30829 c -0.337857,0.18082 -0.515665,0.46567 -0.43001,0.68888 0.08032,0.20933 -0.06969,0.76574 -0.333367,1.23648 -0.263677,0.47074 -0.434822,0.98817 -0.380322,1.14983 0.0545,0.16167 -0.528022,0.56372 -1.294491,0.89344 l -1.393581,0.59951 -2.121933,-0.29313 c -1.167064,-0.16122 -3.588661,-0.37069 -5.381328,-0.4655 -2.022633,-0.10697 -4.656476,-0.0413 -6.941304,0.17304 l -3.68191,0.34543 -2.319113,-0.44439 c -1.275512,-0.24441 -2.878615,-0.4436 -3.562452,-0.44263 -0.683836,9.6e-4 -2.529173,0.2499 -4.100749,0.55318 -1.571575,0.30328 -2.980276,0.65339 -3.130447,0.77802 -0.150171,0.12463 -0.865021,0.25362 -1.588556,0.28663 -0.723535,0.033 -1.606862,-0.0959 -1.962949,-0.28647 -0.356086,-0.19057 -1.407267,-0.3801 -2.335956,-0.42118 l -1.688526,-0.0747 -1.690243,0.63621 c -0.929633,0.34991 -1.872406,0.5663 -2.095051,0.48086 l -0.404808,-0.15534 -0.04332,3.79862 c -0.02383,2.08924 -0.06354,6.12034 -0.08826,8.958 -0.02758,3.16629 -0.161841,5.441 -0.347548,5.8884 -0.166432,0.40096 -0.482267,2.3655 -0.701854,4.36562 -0.219588,2.00013 -0.45342,4.05332 -0.519626,4.56264 -0.06621,0.50933 -0.25725,1.64042 -0.424542,2.51355 -0.167292,0.87312 -0.352208,2.42093 -0.410924,3.43958 -0.05872,1.01864 -0.223542,2.74505 -0.366279,3.83646 -0.142738,1.0914 -0.215278,3.25541 -0.161201,4.8089 l 0.09832,2.82453 -0.406954,0.58101 c -0.223825,0.31956 -0.497098,1.31071 -0.607275,2.20255 -0.110176,0.89185 -0.348542,2.70613 -0.529701,4.03173 -0.18116,1.3256 -0.251885,2.69482 -0.157169,3.04271 0.09472,0.34789 0.354654,0.87007 0.577637,1.1604 l 0.405424,0.52788 0.233971,-0.37857 0.233971,-0.37858 0.402071,0.33369 c 0.221138,0.18353 1.093416,0.49144 1.938394,0.68425 0.844978,0.19281 2.191168,0.43767 2.991532,0.54414 0.800365,0.10648 1.752865,0.22319 2.116667,0.25936 0.363802,0.0362 0.840052,0.13237 1.058333,0.21378 0.218282,0.0814 1.289844,0.19101 2.38125,0.24356 1.357607,0.0654 2.355241,0.27931 3.158551,0.67731 0.645797,0.31997 1.30064,0.58143 1.455208,0.58103 0.154568,-4.1e-4 0.816814,0.26748 1.471658,0.59531 0.654844,0.32783 1.228081,0.67865 1.273861,0.77961 0.04578,0.10096 0.430505,0.62054 0.854946,1.15463 0.424441,0.53409 1.074404,1.61091 1.444363,2.39294 0.369959,0.78203 0.790085,2.04109 0.933613,2.79791 0.143528,0.75682 0.194728,1.74052 0.113778,2.186 -0.08095,0.44548 -0.255503,1.94105 -0.387894,3.3235 -0.132391,1.38245 -0.527964,4.36741 -0.879051,6.63324 -0.351087,2.26584 -0.773027,4.37137 -0.937644,4.67896 -0.164618,0.3076 -0.299305,0.83716 -0.299305,1.17682 0,0.33965 -0.494288,1.21068 -1.098418,1.93562 -0.60413,0.72494 -1.434149,1.842 -1.844488,2.48237 -0.410339,0.64037 -1.383285,1.71193 -2.162102,2.38125 -0.778818,0.66932 -1.645438,1.43271 -1.925825,1.69642 -0.280386,0.26372 -0.961564,0.76973 -1.51373,1.12448 -0.552165,0.35475 -1.150751,0.64501 -1.330191,0.64501 -0.179439,0 -0.599022,0.19105 -0.932407,0.42456 -0.333384,0.23351 -1.337791,0.59525 -2.232015,0.80386 -0.894224,0.2086 -1.834138,0.56777 -2.088697,0.79814 -0.258661,0.23409 -0.657053,0.34434 -0.9031,0.24992 -0.242146,-0.0929 -0.596801,-0.039 -0.788122,0.11975 -0.191321,0.15878 -1.12873,0.30054 -2.083131,0.31501 -0.954401,0.0145 -1.735274,0.12474 -1.735274,0.24503 0,0.1203 -0.506016,0.21939 -1.12448,0.2202 -0.618463,8.1e-4 -1.579084,0.12771 -2.134713,0.282 l -1.010234,0.28053 -0.393255,-0.32637 -0.393255,-0.32637 -0.538085,0.53808 -0.538086,0.53809 v 1.87897 c 0,1.03343 0.143234,2.31297 0.318298,2.84342 0.206153,0.62465 0.330904,3.12131 0.354075,7.08617 0.02101,3.59525 -0.107942,7.37745 -0.31246,9.16442 -0.19153,1.67349 -0.465578,3.51896 -0.608996,4.10104 -0.143418,0.58209 -0.367132,2.30849 -0.497142,3.83646 -0.13001,1.52797 -0.413342,4.32594 -0.629628,6.21771 -0.216285,1.89177 -0.570129,4.21349 -0.786319,5.15937 -0.216191,0.94589 -0.476824,2.36792 -0.579186,3.16008 -0.102362,0.79215 -0.421799,2.10184 -0.709862,2.91041 -0.288062,0.80858 -0.675262,2.59629 -0.860444,3.97269 l -0.336694,2.50256 0.561587,0.86761 c 0.308873,0.47718 0.717442,0.86908 0.907931,0.87088 0.190489,0.002 0.286423,-0.0937 0.213186,-0.21218 -0.07324,-0.1185 0.730589,-0.0799 1.786278,0.0857 1.05569,0.16561 2.068084,0.39298 2.249765,0.50526 0.181682,0.11229 5.115595,0.25522 10.964253,0.31763 5.848658,0.0624 12.657987,0.18481 15.131841,0.272 2.473854,0.0872 5.331354,0.16604 6.35,0.17522 1.018646,0.009 4.352396,-0.0662 7.408333,-0.16758 3.055938,-0.10136 6.092031,-0.23863 6.746875,-0.30505 0.654844,-0.0664 4.28625,-0.19124 8.069792,-0.2774 3.783542,-0.0862 7.176823,-0.22504 7.540625,-0.30865 0.363802,-0.0836 1.316302,-0.17621 2.116667,-0.2058 0.800364,-0.0296 2.115796,-0.147 2.923182,-0.26091 l 1.467975,-0.20711 1.376296,0.69743 c 0.855707,0.43362 1.377663,0.87087 1.379909,1.15598 0.002,0.25221 0.08066,0.74654 0.174821,1.09851 l 0.171208,0.63994 -0.444141,-0.17044 -0.444142,-0.17043 -0.452132,1.11799 c -0.248673,0.6149 -0.417887,1.27566 -0.376031,1.46835 0.04185,0.1927 -0.03437,0.49036 -0.169384,0.66146 -0.135017,0.17111 -0.322912,0.92075 -0.417544,1.66587 -0.09463,0.74511 -0.03793,1.9802 0.126014,2.74463 0.202414,0.94383 0.210991,1.44369 0.02672,1.55757 -0.180861,0.11178 -0.188699,0.60823 -0.0235,1.4887 0.136316,0.72655 0.166823,1.67819 0.0678,2.11475 -0.09903,0.43656 -0.200154,1.03187 -0.224724,1.32292 -0.02457,0.29104 -0.197536,1.43385 -0.384369,2.53958 -0.186834,1.10573 -0.265256,2.59401 -0.174271,3.30729 0.09098,0.71328 0.340064,3.32094 0.553508,5.79479 0.213444,2.47386 0.528244,5.01521 0.699556,5.64746 0.171311,0.63224 0.693856,1.55498 1.16121,2.05052 l 0.849735,0.90098 h 1.4371967 c 0.790458,0 1.5629145,-0.12572 1.7165701,-0.27937 z m 3.7952096,-98.43692 c -0.6548438,-0.11397 -3.8972046,-0.2058 -7.2052464,-0.20406 -3.308041,0.002 -6.10601,-0.0513 -6.217708,-0.11782 -0.111698,-0.0665 -3.17965,-0.12608 -6.817671,-0.13232 -3.638021,-0.006 -8.013567,-0.0973 -9.723437,-0.20242 -2.280809,-0.14018 -3.108854,-0.10986 -3.108854,0.11384 0,0.17974 -0.437942,0.30491 -1.066832,0.30491 -0.586757,0 -1.479726,-0.17252 -1.984375,-0.38338 -0.504649,-0.21085 -0.917543,-0.50851 -0.917543,-0.66146 0,-0.15294 -0.222547,-0.27808 -0.494548,-0.27808 -0.360753,0 -0.535451,-0.25205 -0.645736,-0.93166 -0.08315,-0.51242 -0.02321,-1.2988 0.133218,-1.74751 0.164464,-0.47178 0.584271,-0.94364 0.995439,-1.11886 0.391068,-0.16666 1.089447,-0.62275 1.551954,-1.01354 0.462508,-0.39078 0.840923,-0.95086 0.840923,-1.24461 0,-0.29501 1.112124,-1.81271 2.484468,-3.39052 1.366457,-1.57103 4.223957,-4.61852 6.35,-6.7722 2.126042,-2.15368 3.865532,-4.02891 3.865532,-4.16719 0,-0.13827 -0.170843,-0.25141 -0.379651,-0.25141 -0.208808,0 -0.655292,0.10386 -0.992188,0.23081 -0.336895,0.12694 -0.861492,0.13779 -1.16577,0.0241 -0.304279,-0.11369 -0.705722,-0.57485 -0.892095,-1.0248 l -0.33886,-0.81808 0.329179,-0.39663 c 0.181048,-0.21815 0.557468,-0.39664 0.836489,-0.39664 0.27902,0 0.985588,-0.244 1.57015,-0.54222 0.606191,-0.30926 1.283731,-0.47211 1.576959,-0.37905 0.282766,0.0897 0.527299,0.36352 0.543407,0.60837 0.01611,0.24486 0.0077,0.71259 -0.01879,1.03941 -0.03224,0.39841 0.0671,0.5479 0.301442,0.45367 0.192237,-0.0773 1.71874,-1.58496 3.39223,-3.35034 1.673489,-1.76538 5.007239,-5.17567 7.408333,-7.57841 2.401094,-2.40275 5.0560366,-4.93172 5.8998731,-5.61995 0.8438365,-0.68823 2.5495825,-2.18506 3.7905468,-3.3263 1.2409642,-1.14123 3.69552361,-3.44419 5.4545764,-5.11768 1.7590527,-1.67349 4.14817,-3.97094 5.3091494,-5.10544 1.1609794,-1.1345 2.4808522,-2.21978 2.9330506,-2.41173 0.4521987,-0.19195 1.2623287,-0.82927 1.8002887,-1.41626 0.53796,-0.58699 1.087233,-1.10905 1.220606,-1.16014 0.133373,-0.0511 1.032676,-1.14395 1.998452,-2.42859 0.965777,-1.28464 1.77084,-2.50503 1.78903,-2.71198 0.01819,-0.20695 0.04883,-0.46557 0.06808,-0.57471 0.01925,-0.10914 0.230774,-0.47609 0.470046,-0.81544 0.29173,-0.41374 0.794214,-0.66517 1.52536,-0.76323 l 1.090318,-0.14625 0.506557,0.45843 c 0.278606,0.25214 0.628779,0.38289 0.778162,0.29057 0.149383,-0.0923 0.514073,0.0746 0.810422,0.37095 0.29635,0.29635 0.538817,0.70136 0.538817,0.90001 0,0.19866 0.20836,0.64599 0.463021,0.99407 0.254662,0.34808 0.616945,0.90646 0.805075,1.24085 0.188129,0.33439 0.761219,1.94089 1.273533,3.57 0.512314,1.62911 1.042092,3.4978 1.177283,4.15264 0.135192,0.65484 0.474872,1.96453 0.754845,2.91042 0.279974,0.94588 0.831308,2.55323 1.225189,3.57187 0.39388,1.01865 1.01256,2.92365 1.374844,4.23334 0.362283,1.30968 0.811576,2.91703 0.998428,3.57187 0.186852,0.65484 0.582936,1.80176 0.880186,2.54871 0.297251,0.74695 0.718368,2.29596 0.935815,3.44225 0.217447,1.14629 0.53338,2.44015 0.702073,2.87525 0.168693,0.43509 0.723893,2.1603 1.233779,3.83379 0.509886,1.67349 1.20167,3.69755 1.537299,4.49792 0.335628,0.80036 0.817794,2.50268 1.07148,3.78293 l 0.461247,2.32773 0.861831,0.3601 c 0.474007,0.19805 0.944074,0.61922 1.044592,0.93593 0.129973,0.4095 0.0089,0.76093 -0.419303,1.21669 l -0.602066,0.64087 0.461199,1.9563 c 0.253659,1.07597 0.566748,2.65268 0.695754,3.50381 0.129006,0.85113 0.311061,1.84517 0.404568,2.20897 0.09351,0.3638 0.233348,1.28536 0.310758,2.0479 l 0.140746,1.38644 -0.627858,0.52299 c -0.368859,0.30724 -1.030708,0.52661 -1.604432,0.53178 -0.537115,0.005 -1.044231,-0.10067 -1.126925,-0.23447 -0.08789,-0.1422 -2.705068,-0.1945 -6.299469,-0.12588 -3.382014,0.0646 -6.878546,0.2345 -7.77007,0.37762 -0.891524,0.14312 -3.689493,0.25555 -6.217708,0.24983 -2.528215,-0.006 -5.073005,0.11321 -5.655089,0.26427 -0.582083,0.15106 -2.9038017,0.33545 -5.1593746,0.40976 -2.2555729,0.0743 -5.05354168,0.17368 -6.21770836,0.22082 -1.16416664,0.0471 -2.65244794,-0.008 -3.30729164,-0.12152 z m 12.9645834,-3.44503 c 2.4010942,-0.15996 5.9134372,-0.32368 7.8052082,-0.36383 1.891771,-0.0401 6.178021,-0.21504 9.525,-0.38865 3.346979,-0.1736 6.740261,-0.3974 7.540625,-0.49734 l 1.455209,-0.18169 -0.09286,-0.39265 c -0.05107,-0.21595 -0.13059,-0.6903 -0.176702,-1.0541 -0.04611,-0.3638 -0.162766,-1.37583 -0.259229,-2.24896 -0.09646,-0.87312 -0.299282,-1.91492 -0.450709,-2.3151 -0.151427,-0.40019 -0.350174,-0.73784 -0.44166,-0.75034 -0.09149,-0.0125 -4.809776,-0.0561 -10.485089,-0.0968 -7.080551,-0.0508 -11.564211,-0.20551 -14.2874996,-0.49295 -2.1828125,-0.2304 -4.9807812,-0.6034 -6.2177083,-0.82889 -1.336959,-0.24374 -3.75107505,-0.40993 -5.9531251,-0.40983 -2.0372916,9e-5 -5.3877054,0.17764 -7.445364,0.39456 -2.057658,0.21693 -5.829172,0.45445 -8.381141,0.52783 -2.551969,0.0734 -4.954072,0.25284 -5.338006,0.39882 -0.383934,0.14597 -1.162419,0.2654 -1.729965,0.2654 h -1.031903 l -0.889441,-0.78094 -0.889442,-0.78094 -1.576869,1.64084 c -0.867277,0.90245 -1.959453,2.13986 -2.427056,2.7498 -0.467603,0.60993 -0.850188,1.30045 -0.850188,1.53449 0,0.23404 -0.17419,0.76237 -0.387089,1.17408 -0.2129,0.4117 -0.570087,0.81877 -0.79375,0.90459 -0.223664,0.0858 -0.406661,0.26929 -0.406661,0.40768 0,0.13839 0.569036,0.44063 1.264524,0.67163 0.695489,0.231 1.558692,0.43278 1.91823,0.44839 0.359537,0.0156 2.975423,0.0617 5.813079,0.10239 2.837657,0.0407 7.242969,0.163 9.789584,0.27177 2.546614,0.10877 5.582708,0.1845 6.7468747,0.16828 1.1641666,-0.0162 2.8905729,0.064 3.8364583,0.17833 0.9458854,0.11431 3.684323,0.16893 6.08541671,0.12139 C 2.7681975,347.40347 6.69726,347.23375 9.0983538,347.0738 Z M 24.311894,335.60145 c 1.018645,-0.059 3.485141,-0.25828 5.481101,-0.44278 l 3.629017,-0.33545 -0.12121,-0.53936 c -0.06667,-0.29664 -0.31048,-1.48592 -0.54181,-2.64284 -0.23133,-1.15692 -0.642929,-2.5393 -0.914664,-3.07194 -0.271736,-0.53265 -0.870884,-2.20545 -1.331441,-3.71734 -0.460558,-1.5119 -1.115726,-3.7014 -1.455931,-4.86557 -0.340205,-1.16416 -0.690355,-2.59291 -0.778111,-3.175 -0.08776,-0.58208 -0.380434,-1.71317 -0.650396,-2.51354 -0.269962,-0.80036 -0.866933,-2.78807 -1.326602,-4.41712 -0.459669,-1.62906 -1.37202,-4.42703 -2.027448,-6.21771 -0.655427,-1.79069 -1.294803,-3.73204 -1.420835,-4.31412 -0.126032,-0.58209 -0.397642,-1.53459 -0.603576,-2.11667 -0.205935,-0.58208 -0.46035,-1.53458 -0.565368,-2.11667 -0.105018,-0.58208 -0.421313,-1.76646 -0.702877,-2.63196 -0.281565,-0.86549 -0.659498,-1.66734 -0.839851,-1.78188 -0.180353,-0.11455 -0.419834,-0.21009 -0.53218,-0.21231 -0.112345,-0.002 -0.529064,0.50391 -0.926042,1.12476 -0.396977,0.62085 -1.078901,1.60311 -1.515388,2.18281 -0.436486,0.5797 -1.019195,1.2216 -1.294909,1.42644 -0.275714,0.20485 -1.099871,0.90407 -1.83146,1.55382 -0.731589,0.64976 -1.756224,1.35839 -2.276966,1.57475 -0.520742,0.21636 -1.7802411,1.25336 -2.7988869,2.30446 -1.0186458,1.05109 -2.6573664,2.59027 -3.6416013,3.42041 -0.9842348,0.83013 -2.2939223,2.05999 -2.9104167,2.73301 -0.6164943,0.67303 -1.65667997,1.56552 -2.31152372,1.98332 -0.65484375,0.4178 -2.08359378,1.66236 -3.17499998,2.76569 -1.0914063,1.10333 -4.3250349,4.22479 -7.1858414,6.93657 -2.860806,2.71179 -5.826092,5.68446 -6.589524,6.60594 -0.763432,0.92148 -2.232772,2.38506 -3.2652,3.25241 -1.032429,0.86735 -2.799877,2.65299 -3.927664,3.96809 -1.127786,1.31509 -2.050567,2.47088 -2.050623,2.56842 -5.6e-5,0.0975 2.616483,0.1543 5.814532,0.12615 3.198049,-0.0282 6.740205,-0.18351 7.871457,-0.34522 1.131252,-0.16172 4.6302774,-0.36207 7.7756123,-0.44522 l 5.7187906,-0.15118 2.8165607,0.57684 c 1.5491083,0.31726 3.6190901,0.63376 4.5999594,0.70333 0.9808693,0.0696 3.331211,0.22529 5.222982,0.34602 1.891771,0.12074 4.630208,0.17193 6.085417,0.11375 1.455208,-0.0582 3.479271,-0.15408 4.497917,-0.21311 z M 165.4862,437.76157 c 0.27067,-0.34411 0.84913,-0.77352 1.28545,-0.95425 0.43632,-0.18073 0.77072,-0.4052 0.74311,-0.49883 -0.0276,-0.0936 0.25816,-0.49766 0.63505,-0.89784 0.3769,-0.40018 0.81216,-0.7276 0.96725,-0.7276 0.15509,0 0.32004,-0.26789 0.36654,-0.59532 0.0564,-0.39743 0.23845,-0.56947 0.54757,-0.51756 0.25466,0.0428 0.46302,-0.0668 0.46302,-0.2434 0,-0.17663 0.74414,-1.10745 1.65364,-2.06847 0.90951,-0.96103 1.91189,-2.0617 2.22751,-2.44593 0.31563,-0.38423 0.51692,-0.75555 0.44732,-0.82516 -0.0696,-0.0696 0.51492,-0.79417 1.29896,-1.61015 0.78403,-0.81598 1.55434,-1.4836 1.7118,-1.4836 0.15746,0 0.89858,-1.24134 1.64694,-2.75853 l 1.36065,-2.75853 0.22384,-2.3347 c 0.12311,-1.28408 0.2334,-3.45785 0.24508,-4.83059 0.0117,-1.37275 -0.1549,-3.25537 -0.37017,-4.18361 -0.21527,-0.92824 -0.39141,-2.08246 -0.39141,-2.56493 0,-0.48248 0.15451,-1.00546 0.34335,-1.16218 0.18884,-0.15672 0.93298,-0.28207 1.65364,-0.27854 0.72067,0.004 2.73905,0.005 4.4853,0.002 1.74625,-0.002 5.49672,-0.1162 8.33438,-0.25319 2.83766,-0.13699 6.64766,-0.17997 8.46667,-0.0955 1.81901,0.0845 4.91463,0.14567 6.87916,0.13602 1.96453,-0.01 5.12038,-0.0672 7.01299,-0.12784 1.89261,-0.0607 3.57069,-0.19039 3.72906,-0.28827 0.16734,-0.10342 0.3678,-1.65046 0.47859,-3.69357 0.10485,-1.93358 0.17268,-5.77779 0.15072,-8.54269 -0.022,-2.7649 -0.0799,-6.5749 -0.12885,-8.46667 -0.0489,-1.89177 -0.15809,-4.45161 -0.24263,-5.68854 -0.0845,-1.23693 -0.2066,-4.83985 -0.27127,-8.00651 -0.0647,-3.16665 -0.19037,-5.87532 -0.27933,-6.01927 -0.089,-0.14394 -0.0654,-0.26175 0.0523,-0.26179 0.11772,-4e-5 0.18875,-1.33949 0.15782,-2.97656 -0.0309,-1.63707 -0.10174,-3.58304 -0.15736,-4.32437 -0.0556,-0.74133 -0.17108,-1.46103 -0.25655,-1.59933 -0.0855,-0.1383 -0.057,-1.07957 0.0632,-2.09171 0.12024,-1.01214 0.18269,-2.37603 0.13879,-3.03087 -0.0439,-0.65485 0.0271,-1.72641 0.15768,-2.38125 0.13063,-0.65485 0.29732,-1.96454 0.37042,-2.91042 0.0731,-0.94589 0.23131,-2.85089 0.35158,-4.23333 l 0.21867,-2.51355 -0.36793,-1.4552 c -0.20236,-0.80037 -0.30648,-1.84748 -0.23138,-2.32693 0.0751,-0.47944 0.41106,-1.10056 0.74658,-1.38026 l 0.61003,-0.50854 2.12722,-0.009 c 1.16997,-0.005 2.81289,-0.1874 3.65093,-0.40568 0.83804,-0.21828 1.74492,-0.39688 2.0153,-0.39688 0.27038,0 1.24683,-0.3371 2.16991,-0.74912 0.92307,-0.41202 2.25985,-0.89401 2.97063,-1.0711 0.71078,-0.17708 1.75496,-0.55799 2.3204,-0.84645 0.56543,-0.28846 2.33799,-1.82132 3.93901,-3.40634 1.89333,-1.87441 3.09404,-3.29579 3.43471,-4.06593 0.28808,-0.65124 0.54286,-1.76178 0.56618,-2.46787 0.0233,-0.7061 -0.053,-2.08113 -0.16965,-3.05564 l -0.21207,-1.77183 -0.75681,-0.72507 c -0.41624,-0.39879 -0.7568,-0.86519 -0.7568,-1.03646 0,-0.17126 -0.50602,-0.65467 -1.12448,-1.07423 -0.61847,-0.41956 -1.18401,-0.83686 -1.25677,-0.92733 -0.0728,-0.0905 -0.7722,-0.48727 -1.5543,-0.88179 -0.78211,-0.39452 -2.03227,-0.83926 -2.77813,-0.98831 -0.74586,-0.14905 -3.38018,-0.27573 -5.85403,-0.28151 -2.47386,-0.006 -4.97417,0.0803 -5.55625,0.19122 -0.58209,0.11094 -1.1774,0.29293 -1.32292,0.4044 -0.14552,0.11147 -0.65154,0.28542 -1.12448,0.38654 -0.47294,0.10113 -0.85989,0.0835 -0.85989,-0.0391 0,-0.12265 -0.60285,-0.3662 -1.33967,-0.54122 -0.73681,-0.17503 -1.78183,-0.66844 -2.32227,-1.09647 l -0.98261,-0.77825 -0.079,-1.93417 c -0.0434,-1.06379 -0.13415,-2.02347 -0.20161,-2.13261 -0.0675,-0.10914 0.0683,-1.60126 0.30165,-3.31583 0.23336,-1.71456 0.58728,-4.06988 0.7865,-5.23405 0.19922,-1.16416 0.38271,-3.18823 0.40777,-4.49791 0.025,-1.30969 0.0271,-2.73844 0.005,-3.175 -0.0225,-0.43657 -0.0523,-1.50822 -0.0663,-2.38145 -0.0139,-0.87323 0.23374,-2.95682 0.55042,-4.63021 0.31668,-1.67338 0.80947,-3.99501 1.0951,-5.15918 0.28562,-1.16416 0.69199,-2.9501 0.90304,-3.96875 0.21106,-1.01864 0.56583,-2.36426 0.78839,-2.99025 0.22256,-0.626 0.64366,-2.3524 0.93578,-3.83646 0.29211,-1.48406 0.70936,-3.27418 0.92721,-3.97804 0.21785,-0.70386 0.43964,-1.78653 0.49287,-2.40592 0.0532,-0.6194 0.17056,-1.24554 0.26073,-1.39144 0.0902,-0.1459 0.23407,-1.26589 0.31977,-2.48887 0.0857,-1.22298 0.19357,-2.768 0.23971,-3.43338 0.0461,-0.66537 0.22811,-1.47924 0.40438,-1.80859 0.17626,-0.32936 0.28106,-0.63571 0.23289,-0.68078 -0.0482,-0.0451 -0.5043,-0.19413 -1.01362,-0.33122 -0.56251,-0.15141 -1.86085,-0.15837 -3.30729,-0.0177 -1.30969,0.12735 -5.41735,0.33319 -9.12813,0.45745 -3.71078,0.12425 -7.9375,0.35058 -9.39271,0.50295 -1.4552,0.15238 -3.47927,0.40692 -4.49791,0.56567 -1.01865,0.15874 -3.04271,0.51622 -4.49792,0.7944 -1.54429,0.29521 -4.50268,0.57296 -7.10585,0.66713 -3.12595,0.11309 -4.78792,0.28808 -5.55625,0.58504 -0.60293,0.23302 -1.36412,0.66445 -1.69154,0.95871 -0.32743,0.29427 -0.59532,0.68883 -0.59532,0.87681 0,0.18798 -0.16876,0.73277 -0.37503,1.21065 -0.20627,0.47788 -0.57477,1.58325 -0.81888,2.45637 -0.24411,0.87313 -0.67941,2.24235 -0.96734,3.04271 -0.28793,0.80037 -0.63188,1.8124 -0.76434,2.24896 -0.13245,0.43656 -0.69332,1.68672 -1.24637,2.77812 -0.55306,1.09141 -1.5937,2.87175 -2.31254,3.9563 -0.71884,1.08456 -2.02445,2.74275 -2.90134,3.68486 -0.8769,0.94212 -2.63944,2.39133 -3.91676,3.22048 l -2.3224,1.50754 -1.34239,0.17808 -1.34239,0.17807 -1.75917,-0.57604 c -0.96755,-0.31682 -1.93777,-0.71417 -2.15605,-0.88301 -0.21828,-0.16884 -0.83486,-0.50465 -1.37018,-0.74626 -0.66223,-0.29888 -1.32945,-0.97204 -2.08761,-2.10621 -0.61287,-0.91681 -1.39289,-1.96862 -1.73338,-2.33734 l -0.61908,-0.67042 -0.29217,-2.10061 c -0.16069,-1.15534 -0.3878,-2.28241 -0.50469,-2.50459 -0.11689,-0.22218 -0.41952,-1.34047 -0.67253,-2.48507 l -0.46,-2.08111 0.19968,-1.88764 c 0.10983,-1.03821 0.22209,-2.56854 0.24947,-3.40074 0.0326,-0.98981 0.2038,-1.68329 0.49514,-2.00521 0.24494,-0.27067 0.44535,-0.70227 0.44535,-0.95913 v -0.46702 l -1.38906,0.20965 c -0.76398,0.11531 -5.19906,0.2275 -9.85573,0.24932 -4.65667,0.0218 -13.1101,0.1194 -18.78542,0.21685 -5.67531,0.0974 -11.86656,0.28917 -13.75833,0.42607 -1.89177,0.1369 -4.86833,0.37473 -6.61458,0.52852 -1.746253,0.15378 -4.365628,0.40468 -5.820836,0.55755 -1.455208,0.15287 -2.913724,0.34251 -3.241146,0.42142 l -0.595312,0.14348 v 1.31313 c 0,0.81445 -0.15072,1.46385 -0.396875,1.71001 -0.264263,0.26426 -0.396875,0.9254 -0.396875,1.97861 0,0.87746 -0.173979,1.91818 -0.390736,2.33734 -0.214904,0.41558 -0.566597,1.92772 -0.781539,3.3603 -0.214943,1.43258 -0.52427,4.15251 -0.687394,6.04428 -0.163125,1.89177 -0.408338,4.0349 -0.544917,4.7625 -0.13658,0.72761 -0.357423,2.75167 -0.490763,4.49792 -0.13334,1.74625 -0.433382,5.25859 -0.666761,7.80521 -0.233378,2.54661 -0.600622,6.11849 -0.816098,7.9375 -0.215475,1.81901 -0.529152,4.02166 -0.697059,4.89479 -0.167907,0.87312 -0.315052,3.61156 -0.326989,6.08542 l -0.0217,4.49791 0.550899,0.92604 c 0.377033,0.63378 0.711047,0.89939 1.058333,0.8416 0.279089,-0.0464 0.626923,-0.23743 0.772965,-0.42442 0.146042,-0.18699 0.931437,-0.65501 1.745322,-1.04004 1.046528,-0.49509 1.937115,-0.70659 3.041761,-0.72238 0.859084,-0.0123 2.271784,-0.11062 3.139334,-0.21854 0.872557,-0.10855 3.487062,-0.0507 5.851286,0.12936 2.59497,0.19768 4.57377,0.47675 5.03722,0.71039 0.41981,0.21165 1.61617,0.64002 2.65858,0.95194 1.19472,0.3575 2.36833,0.94136 3.175,1.57953 0.70384,0.55681 1.6369,1.43652 2.07346,1.95491 0.43657,0.51839 1.03188,1.25904 1.32292,1.6459 0.29104,0.38686 0.83599,1.08443 1.21101,1.55017 0.37501,0.46573 1.14002,1.56117 1.70003,2.43429 0.56001,0.87313 1.2571,1.85634 1.54908,2.18493 l 0.53088,0.59742 -0.0111,3.63591 -0.0111,3.63591 -1.49001,2.51354 -1.49001,2.51354 -2.76719,2.38125 c -1.52195,1.30969 -3.33794,2.67891 -4.03552,3.04271 -0.69758,0.3638 -1.68576,0.91442 -2.19596,1.22359 -0.5102,0.30917 -1.70155,0.80856 -2.64743,1.10976 -0.94589,0.30119 -3.03203,0.91361 -4.63588,1.36092 l -2.916094,0.8133 -4.492241,0.0613 -4.492241,0.0613 -0.623173,-0.35495 c -0.387354,-0.22063 -0.962251,-0.29134 -1.519222,-0.18685 l -0.896049,0.1681 -0.14914,0.71602 c -0.08203,0.3938 -0.327542,1.40158 -0.545589,2.23951 -0.218048,0.83792 -0.346597,1.61183 -0.285664,1.71979 0.06093,0.10796 -0.0036,1.08926 -0.143449,2.18067 -0.13983,1.09141 -0.282779,4.54422 -0.317665,7.67292 -0.03489,3.12869 -0.201631,7.23635 -0.370544,9.12812 -0.168914,1.89177 -0.416976,3.8991 -0.551248,4.46073 -0.134273,0.56162 -0.181754,1.40553 -0.105514,1.87534 0.07624,0.46982 0.0069,1.49859 -0.154055,2.28615 -0.16097,0.78757 -0.346694,5.32556 -0.412718,10.08443 -0.07141,5.14709 -0.01313,9.27395 0.14385,10.18646 0.145142,0.84368 0.381395,2.24835 0.525007,3.12147 0.143612,0.87313 0.426739,2.0126 0.629172,2.53216 0.211703,0.54336 0.275146,1.095 0.149343,1.29856 -0.122851,0.19877 -0.08695,0.65449 0.08192,1.03971 0.165349,0.3772 0.42212,0.7733 0.570603,0.88021 0.148483,0.10691 0.938982,0.19621 1.756665,0.19844 0.817683,0.002 2.484558,0.17265 3.704167,0.37873 1.534502,0.25928 4.825154,0.39082 10.684129,0.42711 4.65667,0.0288 9.6573,0.068 11.1125,0.087 1.45521,0.019 4.01506,-0.0501 5.68855,-0.15361 1.67349,-0.10349 3.45942,-0.30754 3.96875,-0.45345 0.50932,-0.14591 2.41432,-0.43401 4.23333,-0.64021 1.81901,-0.2062 4.27219,-0.31466 5.45151,-0.24103 1.47476,0.0921 2.67257,0.003 3.83646,-0.28575 0.93073,-0.23079 2.64474,-0.43662 3.8089,-0.4574 1.16417,-0.0208 3.24776,-0.15279 4.63021,-0.29336 1.38245,-0.14058 2.8112,-0.36609 3.175,-0.50113 0.3638,-0.13505 1.97115,-0.49528 3.57188,-0.80051 1.60073,-0.30524 3.30435,-0.53884 3.78583,-0.51911 0.48148,0.0197 1.58278,-0.1626 2.44733,-0.40518 0.95043,-0.26668 2.00746,-0.38264 2.67355,-0.2933 0.6059,0.0813 1.40961,0.37675 1.78601,0.65661 0.50116,0.37263 0.70563,0.79232 0.76381,1.56779 l 0.0795,1.05894 -0.95611,0.83947 c -0.52586,0.46172 -1.32028,1.57347 -1.76538,2.47057 l -0.80926,1.63109 -0.20682,2.63183 c -0.11374,1.4475 -0.16051,4.96701 -0.10392,7.82113 0.0566,2.85411 0.17279,6.02273 0.25822,7.04138 0.0854,1.01864 0.36958,2.50983 0.63143,3.31374 0.26186,0.80392 0.83663,2.17314 1.27727,3.04271 0.44065,0.86958 1.08185,1.84253 1.42489,2.16212 0.34305,0.31958 1.03959,0.76141 1.54788,0.98183 0.50828,0.22042 1.02608,0.40542 1.15066,0.41112 0.12457,0.006 0.44796,-0.27119 0.71863,-0.61529 z m -25.17821,-64.03456 c -0.0858,-0.0913 -0.85971,-0.23578 -1.7198,-0.32106 -0.86009,-0.0853 -2.81395,-0.18703 -4.34192,-0.22613 -1.56885,-0.0401 -3.09293,-0.21989 -3.50133,-0.41294 -0.49407,-0.23354 -0.77419,-0.6136 -0.88412,-1.19956 -0.0892,-0.47563 -0.0227,-1.11595 0.14933,-1.43741 0.17063,-0.31882 0.23719,-0.65273 0.14791,-0.74202 -0.0893,-0.0893 -0.67328,-0.13091 -1.29775,-0.0925 -0.7384,0.0454 -1.24622,-0.0637 -1.45229,-0.31199 -0.21948,-0.26446 -0.23974,-0.5847 -0.0659,-1.04192 0.14584,-0.3836 0.54557,-0.73406 0.95423,-0.83663 0.38679,-0.0971 0.93615,-0.10258 1.22079,-0.0122 0.2978,0.0945 0.58313,0.49224 0.67203,0.93673 0.085,0.42486 0.24022,0.77247 0.345,0.77247 0.10477,0 0.36634,-0.20836 0.58125,-0.46302 0.21491,-0.25466 0.71472,-1.23693 1.11069,-2.18281 0.39598,-0.94589 0.94192,-2.19605 1.21321,-2.77813 0.27129,-0.58208 0.69512,-1.59411 0.94184,-2.24896 0.24673,-0.65484 0.55544,-1.39737 0.68602,-1.65005 0.13058,-0.25269 0.23742,-0.61728 0.23742,-0.8102 0,-0.19293 0.242,-0.85164 0.53777,-1.46382 0.29577,-0.61218 0.72787,-1.91447 0.96022,-2.89397 0.23235,-0.9795 0.66101,-2.58733 0.95258,-3.57296 0.29157,-0.98562 0.63338,-1.85585 0.75957,-1.93384 0.1262,-0.078 0.22945,-0.42719 0.22945,-0.776 0,-0.34881 0.33285,-1.20499 0.73967,-1.90262 0.40682,-0.69763 1.34578,-2.51857 2.08657,-4.04654 0.74079,-1.52797 1.77715,-4.01936 2.30303,-5.53642 0.52588,-1.51706 0.95614,-3.03985 0.95614,-3.38398 0,-0.34412 0.22218,-1.06742 0.49374,-1.60733 0.27155,-0.5399 0.65125,-1.60672 0.84377,-2.3707 0.19252,-0.76399 0.42757,-1.38907 0.52234,-1.38907 0.0948,0 0.32602,-0.64074 0.51389,-1.42387 0.20137,-0.83943 0.26868,-1.90998 0.16398,-2.60818 l -0.1776,-1.1843 -0.66334,-0.30224 c -0.36484,-0.16623 -1.58048,-0.30642 -2.70141,-0.31153 -1.12094,-0.005 -2.769,-0.16619 -3.66236,-0.35796 -0.89335,-0.19176 -1.99468,-0.6124 -2.44739,-0.93476 -0.59305,-0.42228 -0.82312,-0.7979 -0.82312,-1.34382 0,-0.53173 0.21701,-0.90349 0.72761,-1.24646 l 0.7276,-0.48874 1.5875,0.21661 c 0.87313,0.11914 2.89719,0.31087 4.49792,0.42607 1.60073,0.1152 3.30339,0.15346 3.7837,0.085 l 0.87329,-0.12443 0.53295,-1.04466 c 0.29312,-0.57456 0.70714,-1.95512 0.92005,-3.06791 0.21291,-1.11278 0.30731,-2.3823 0.20978,-2.82115 -0.0975,-0.43885 -0.15724,-1.39072 -0.13269,-2.11526 0.0246,-0.72455 -0.087,-1.63505 -0.2478,-2.02335 l -0.29243,-0.706 0.40111,-0.75477 c 0.22061,-0.41513 1.03366,-1.38377 1.80678,-2.15254 0.77312,-0.76877 3.33661,-3.28773 5.69663,-5.5977 l 4.29096,-4.19994 1.07757,-0.18205 c 0.75736,-0.12795 1.34262,-0.0563 1.96959,0.24125 0.49062,0.23281 1.42672,1.018 2.08023,1.74486 0.65351,0.72685 1.36546,1.32155 1.58212,1.32155 0.21665,0 0.47271,0.31393 0.56901,0.69762 0.0963,0.38369 0.46639,1.07954 0.82243,1.54633 0.35604,0.46679 0.64734,0.99004 0.64734,1.16277 0,0.17273 0.1786,0.38259 0.39688,0.46635 0.22401,0.086 0.39687,0.47996 0.39687,0.90459 0,0.41377 0.16617,0.84751 0.36927,0.96388 0.2031,0.11638 0.55689,0.84685 0.78621,1.62328 0.22932,0.77643 0.39674,1.4908 0.37206,1.5875 -0.0247,0.0967 0.045,0.43961 0.15478,0.76203 0.10981,0.32243 0.0683,1.0368 -0.0921,1.5875 -0.16049,0.5507 -0.35361,1.95378 -0.42916,3.11795 -0.0755,1.16416 -0.22493,2.97052 -0.33198,4.01412 -0.10704,1.0436 -0.10307,2.14493 0.009,2.4474 l 0.20343,0.54993 h 1.2787 c 0.70328,0 1.59555,0.14883 1.98281,0.33073 0.38727,0.1819 0.8448,0.59292 1.01673,0.91338 l 0.3126,0.58265 -0.33166,1.18454 c -0.1824,0.6515 -0.58643,1.42235 -0.89782,1.713 -0.3114,0.29065 -1.16149,0.76168 -1.8891,1.04674 l -1.32291,0.51827 0.0548,1.02254 c 0.0301,0.56239 0.12898,2.91515 0.21968,5.22835 0.0907,2.3132 0.26467,4.46822 0.3866,4.78893 0.12194,0.32071 0.30408,1.58325 0.40477,2.80564 0.10068,1.22239 0.41228,3.22742 0.69244,4.45562 0.28016,1.22821 0.60509,2.3593 0.72207,2.51354 0.11697,0.15425 0.42325,1.23295 0.68061,2.39711 0.25735,1.16417 0.67783,2.83105 0.93439,3.70417 0.25655,0.87313 0.60668,3.01625 0.77805,4.7625 0.17137,1.74625 0.43157,3.77031 0.57821,4.49792 0.14664,0.7276 0.31761,2.15635 0.37992,3.175 0.0623,1.01864 0.12379,2.98317 0.1366,4.36562 0.0128,1.38245 -0.0198,2.97308 -0.0725,3.53475 -0.0581,0.61918 -0.29999,1.17568 -0.61446,1.41362 l -0.51865,0.39241 -1.86898,-0.13272 c -1.02794,-0.073 -2.33763,-0.33199 -2.91042,-0.57555 l -1.04144,-0.44284 -8.59895,0.28966 c -4.72943,0.15931 -9.90865,0.39362 -11.50938,0.52069 -1.60073,0.12707 -3.38667,0.22541 -3.96875,0.21853 -0.58208,-0.007 -2.48708,0.0807 -4.23333,0.19467 -1.74625,0.11395 -3.2452,0.13247 -3.33099,0.0412 z m 18.54453,-3.87807 c 4.43838,-0.16345 9.62319,-0.353 11.52178,-0.42122 l 3.452,-0.12402 0.32609,-1.11085 c 0.17935,-0.61096 0.32775,-2.48006 0.32979,-4.15355 0.002,-1.67349 -0.006,-3.3999 -0.0168,-3.83646 -0.0113,-0.43656 -0.13041,-1.50812 -0.26479,-2.38125 -0.13437,-0.87312 -0.30438,-2.33098 -0.37778,-3.23968 -0.0734,-0.9087 -0.23742,-1.8612 -0.36447,-2.11667 -0.12705,-0.25546 -0.38467,-1.17886 -0.57248,-2.05198 -0.18781,-0.87313 -0.60712,-2.42094 -0.93179,-3.43959 -0.32467,-1.01864 -0.84201,-3.28083 -1.14964,-5.02708 -0.30762,-1.74625 -0.70135,-4.18703 -0.87493,-5.42396 -0.17359,-1.23692 -0.34462,-3.61817 -0.38006,-5.29166 -0.0355,-1.67349 -0.0755,-3.43882 -0.089,-3.92296 -0.0167,-0.59846 -0.27217,-1.12783 -0.79798,-1.65365 l -0.7734,-0.77339 -1.01254,-0.003 c -0.5569,-0.002 -1.96504,-0.23843 -3.12921,-0.52604 l -2.11667,-0.52292 -4.21628,-0.003 -4.21628,-0.003 -0.61236,0.57529 c -0.3599,0.3381 -0.61237,0.88353 -0.61237,1.32292 0,0.41119 -0.10646,0.74763 -0.23659,0.74763 -0.13013,0 -0.2355,0.26789 -0.23416,0.59531 0.001,0.32742 -0.19338,1.13109 -0.43271,1.78594 -0.23933,0.65484 -0.66384,1.66687 -0.94336,2.24895 -0.27953,0.58209 -0.75586,1.91675 -1.05853,2.96592 -0.30266,1.04916 -0.65538,1.97252 -0.78382,2.0519 -0.12845,0.0794 -0.3172,0.63957 -0.41947,1.24487 -0.10226,0.60529 -0.4609,1.61767 -0.79696,2.24972 -0.33607,0.63205 -0.75222,1.5947 -0.92478,2.13922 -0.17256,0.54452 -0.62591,1.52582 -1.00744,2.18067 -0.38153,0.65484 -0.9041,1.65011 -1.16126,2.2117 -0.25717,0.5616 -0.46758,1.16991 -0.46758,1.35182 0,0.1819 -0.35849,1.00252 -0.79663,1.82358 -0.43815,0.82107 -0.9292,2.11775 -1.09124,2.88152 -0.16204,0.76377 -0.55751,1.92445 -0.87882,2.57929 -0.32132,0.65485 -0.85872,2.0836 -1.19423,3.175 -0.33551,1.09141 -0.9511,2.7322 -1.36797,3.64621 -0.41688,0.914 -0.8831,2.22369 -1.03606,2.91041 -0.15295,0.68673 -0.63873,1.88933 -1.07952,2.67245 l -0.80142,1.42386 0.36573,0.36573 c 0.21803,0.21802 1.2119,0.42578 2.46084,0.5144 1.1523,0.0818 2.20516,0.2167 2.33969,0.29984 0.13452,0.0831 0.91224,0.22296 1.72825,0.3107 0.81602,0.0877 3.09101,0.13458 5.05554,0.10409 1.96453,-0.0305 7.20328,-0.18917 11.64167,-0.35263 z m -3.70417,-49.67756 c 0,-0.11641 -0.12348,-0.33515 -0.27441,-0.48608 -0.1895,-0.1895 -0.18836,-0.50076 0.004,-1.00586 0.15295,-0.4023 0.35366,-2.17786 0.44601,-3.94569 0.11882,-2.27427 0.27249,-3.27612 0.52549,-3.42583 0.19666,-0.11637 0.35757,-0.49358 0.35757,-0.83825 0,-0.34467 0.0723,-0.81501 0.16059,-1.04519 0.0883,-0.23018 0.31198,-0.41851 0.497,-0.41851 0.18501,0 0.84791,-0.66303 1.4731,-1.4734 0.6252,-0.81037 1.66847,-1.94146 2.31839,-2.51354 0.83763,-0.73732 1.42117,-1.0393 2.00431,-1.03723 0.45246,0.002 1.26913,0.0767 1.81484,0.16691 0.58356,0.0965 0.99218,0.31319 0.99218,0.52625 0,0.19924 0.2311,0.36226 0.51355,0.36226 0.28246,0 0.58206,0.11083 0.66578,0.2463 0.0837,0.13546 0.0325,0.32027 -0.11374,0.41067 -0.16649,0.1029 -0.10725,0.40659 0.15841,0.81203 0.2334,0.35622 0.33656,0.64766 0.22924,0.64766 -0.10731,0 -0.0629,0.15929 0.0986,0.35397 0.16157,0.19468 0.3016,0.76023 0.31118,1.25677 0.01,0.49654 -0.0262,1.16827 -0.0796,1.49273 -0.0534,0.32446 -0.17664,0.66955 -0.27396,0.76688 -0.0973,0.0973 -0.10404,0.46753 -0.0149,0.82266 0.0891,0.35514 0.0318,1.0816 -0.1274,1.61437 -0.15921,0.53277 -0.48008,1.78068 -0.71305,2.77315 l -0.42358,1.80449 0.31398,0.37833 c 0.17269,0.20807 0.66078,0.37832 1.08465,0.37832 0.42386,0 1.03446,-0.17284 1.35687,-0.3841 l 0.58621,-0.3841 0.0703,-3.5185 c 0.0387,-1.93518 0.19707,-4.1495 0.35201,-4.92072 0.20348,-1.01279 0.20043,-1.50014 -0.011,-1.75485 -0.16097,-0.19396 -0.33678,-0.97079 -0.3907,-1.72629 -0.0624,-0.87495 -0.28436,-1.58264 -0.61126,-1.94931 -0.28229,-0.31662 -0.71711,-1.05192 -0.96628,-1.634 -0.24917,-0.58209 -0.56933,-1.23693 -0.71146,-1.45521 -0.14214,-0.21828 -0.5517,-1.02196 -0.91014,-1.78594 l -0.65171,-1.38906 h -0.76124 -0.76125 l -2.08636,2.27159 c -1.1475,1.24938 -2.19487,2.46977 -2.32748,2.71198 -0.13262,0.24221 -0.40051,0.5356 -0.59532,0.65197 -0.1948,0.11637 -0.35419,0.38426 -0.35419,0.59531 0,0.21105 -0.14231,0.38373 -0.31625,0.38373 -0.17394,0 -0.65019,0.31993 -1.05833,0.71096 l -0.74208,0.71096 v 0.98052 c 0,0.58773 -0.1457,1.03644 -0.36368,1.12008 -0.20002,0.0768 -0.46456,0.71458 -0.58786,1.41737 -0.1233,0.7028 -0.23784,1.45641 -0.25453,1.67469 -0.0167,0.21828 -0.21334,0.8136 -0.437,1.32292 -0.22365,0.50932 -0.67124,2.0167 -0.99464,3.34972 -0.32341,1.33302 -0.51571,2.65149 -0.42733,2.92992 0.0884,0.27843 0.40207,0.76536 0.69712,1.08205 0.29504,0.3167 0.7104,0.57581 0.92301,0.57581 0.21262,0 0.38657,-0.0953 0.38657,-0.21167 z m 9.0209,-48.62664 c 0.37759,-0.18991 1.60449,-1.32109 2.72644,-2.51373 1.12195,-1.19263 2.34419,-2.77671 2.71609,-3.52017 0.37191,-0.74346 0.88956,-1.58987 1.15035,-1.88091 0.26078,-0.29105 0.85913,-1.24355 1.32967,-2.11667 0.47053,-0.87313 1.06527,-2.44234 1.32164,-3.48714 0.25637,-1.04481 0.54759,-2.03147 0.64717,-2.19258 0.0996,-0.16111 0.37485,-1.33033 0.61174,-2.59827 0.23688,-1.26794 0.44947,-3.19831 0.47242,-4.28972 0.023,-1.0914 0.0575,-2.19466 0.0768,-2.45167 0.0193,-0.25702 0.45277,-0.66648 0.96327,-0.90992 l 0.92817,-0.44261 1.51922,0.29451 c 0.83558,0.16199 2.05501,0.41522 2.70985,0.56274 0.68466,0.15424 2.98962,0.2119 5.42396,0.1357 2.32833,-0.0729 5.00724,-0.29988 5.95313,-0.50442 0.94588,-0.20454 2.73182,-0.54716 3.96875,-0.76138 1.23692,-0.21421 2.9038,-0.45332 3.70416,-0.53135 0.80037,-0.078 2.52677,-0.21581 3.83646,-0.30618 1.30969,-0.0904 2.44568,-0.20384 2.52442,-0.25215 0.0787,-0.0483 3.11609,-0.2166 6.74965,-0.37396 3.63356,-0.15737 6.87679,-0.33817 7.20717,-0.4018 0.33039,-0.0636 1.75789,-0.24387 3.17223,-0.40054 l 2.57153,-0.28485 0.43056,-0.56566 c 0.25313,-0.33257 0.48306,-1.28381 0.55797,-2.30846 0.0701,-0.95853 0.31541,-2.39763 0.54519,-3.198 0.22978,-0.80036 0.67323,-3.78024 0.98545,-6.62194 0.31222,-2.84171 0.6147,-5.93734 0.67218,-6.87917 0.0575,-0.94184 0.21565,-2.48634 0.3515,-3.43222 0.13584,-0.94589 0.4414,-2.37464 0.67902,-3.175 0.23761,-0.80037 0.50448,-2.28865 0.59304,-3.30729 0.0885,-1.01865 0.44243,-2.60432 0.7864,-3.52372 0.34397,-0.9194 0.57598,-1.75284 0.51558,-1.85208 -0.0604,-0.0992 0.0487,-1.01389 0.24244,-2.03254 0.19374,-1.01864 0.59973,-2.68552 0.90219,-3.70416 0.30246,-1.01865 0.60435,-2.66694 0.67086,-3.66288 0.0665,-0.99593 0.41881,-2.90428 0.78291,-4.24076 0.3641,-1.33648 0.79202,-3.59602 0.95094,-5.0212 0.20599,-1.84739 0.20735,-2.68955 0.005,-2.93371 l -0.28422,-0.34247 -1.51837,0.35993 c -0.8351,0.19796 -1.93508,0.41894 -2.4444,0.49107 -0.50932,0.0721 -1.52135,0.24412 -2.24896,0.3822 -0.7276,0.13808 -1.79951,0.39415 -2.38202,0.56904 -0.70744,0.21241 -1.74402,0.25381 -3.12184,0.1247 l -2.06274,-0.1933 -1.7068,-1.44798 c -0.96497,-0.81864 -1.70681,-1.6612 -1.70681,-1.93854 0,-0.2698 -0.14215,-0.53793 -0.3159,-0.59585 -0.17374,-0.0579 -0.49174,-0.99057 -0.70667,-2.07257 -0.21492,-1.08199 -0.40266,-2.74117 -0.41721,-3.68706 -0.0145,-0.94588 0.0542,-2.25557 0.15268,-2.91041 0.0985,-0.65485 0.37844,-1.905 0.62206,-2.77813 0.24362,-0.87312 0.55245,-1.70061 0.68629,-1.83885 0.13383,-0.13825 0.24509,-0.67403 0.24724,-1.19063 0.002,-0.5166 0.15097,-1.18782 0.33073,-1.4916 0.17975,-0.30378 0.74354,-1.14731 1.25287,-1.87451 0.50932,-0.72719 1.36532,-1.9116 1.90223,-2.632 0.61631,-0.82695 1.88433,-1.92049 3.43958,-2.96628 1.35487,-0.91104 2.76734,-1.89483 3.13884,-2.18619 l 0.67545,-0.52975 2.95428,-0.0266 c 1.65907,-0.0149 3.10292,0.0921 3.29331,0.24407 0.18646,0.14883 0.72823,0.32481 1.20393,0.39106 0.48647,0.0677 0.97818,-0.016 1.12376,-0.19144 0.14237,-0.17154 0.38288,-0.95492 0.53448,-1.74085 0.1516,-0.78593 0.4036,-2.32194 0.56001,-3.41334 0.1564,-1.09141 0.31622,-2.57969 0.35516,-3.30729 0.0389,-0.72761 0.38868,-2.93026 0.77719,-4.8948 0.38851,-1.96453 0.82374,-4.64343 0.96717,-5.95312 0.14343,-1.30969 0.38731,-3.09563 0.54195,-3.96875 0.15463,-0.87313 0.38055,-2.24234 0.50203,-3.04271 0.12147,-0.80036 0.34232,-1.87193 0.49075,-2.38125 0.14844,-0.50932 0.32833,-1.43287 0.39976,-2.05233 0.0714,-0.61945 0.1888,-1.22164 0.26083,-1.33818 0.072,-0.11655 0.38197,-1.39566 0.68876,-2.84247 0.30679,-1.44681 0.73145,-3.52353 0.94369,-4.61494 0.21223,-1.0914 0.61316,-3.05376 0.89095,-4.36079 0.27779,-1.30703 0.44854,-2.46789 0.37945,-2.57969 -0.0691,-0.11179 -0.31383,-0.20326 -0.54386,-0.20326 -0.23004,0 -0.57086,-0.20836 -0.75739,-0.46303 l -0.33914,-0.46302 -5.77544,0.073 c -3.17649,0.0402 -8.33529,0.13191 -11.46398,0.20386 -3.1287,0.072 -7.1173,0.17875 -8.86355,0.23733 -1.74625,0.0586 -4.96093,-0.0298 -7.14375,-0.19654 -2.18281,-0.16668 -4.86171,-0.29129 -5.95312,-0.2769 -1.09141,0.0144 -2.73079,0.21757 -3.64308,0.45152 -0.91229,0.23395 -2.01695,0.69022 -2.45479,1.01393 l -0.79607,0.58857 -0.85251,-0.35006 c -0.46888,-0.19253 -1.16579,-0.40741 -1.5487,-0.47751 l -0.69618,-0.12746 0.13173,-0.50375 0.13173,-0.50374 h -0.56002 -0.56003 v -0.87313 c 0,-0.48022 0.11747,-0.99059 0.26103,-1.13416 0.14357,-0.14356 0.67935,-1.44687 1.19063,-2.89623 0.51128,-1.44936 0.92959,-2.985 0.92959,-3.41255 0,-0.42754 0.17111,-1.44 0.38025,-2.24991 0.20914,-0.809911 0.6314,-2.532144 0.93835,-3.827184 0.30696,-1.29504 0.65565,-3.411673 0.77486,-4.703628 0.11922,-1.291956 0.12246,-2.851753 0.007,-3.466216 -0.11525,-0.614462 -0.33005,-1.433061 -0.47733,-1.819107 -0.14728,-0.386047 -0.39419,-0.780027 -0.54868,-0.875511 -0.1545,-0.09548 -0.28166,-0.374941 -0.28258,-0.621014 -9.2e-4,-0.246073 -0.32834,-0.65504 -0.7276,-0.908815 -0.39927,-0.253775 -1.32125,-0.836947 -2.04885,-1.295938 -0.81045,-0.511249 -1.78414,-0.877574 -2.51354,-0.945648 -0.74764,-0.06977 -2.16394,0.139435 -3.80661,0.5623 -1.43879,0.370381 -3.10566,0.912625 -3.70417,1.204988 -0.5985,0.292362 -1.8322,1.197445 -2.74155,2.011294 -0.90935,0.813849 -2.09997,2.134931 -2.64583,2.935739 -0.54586,0.800808 -1.07253,1.595081 -1.17039,1.765052 -0.0979,0.169971 -0.62213,1.261539 -1.16506,2.425705 -0.54293,1.164167 -1.68707,3.660922 -2.54254,5.548344 l -1.55541,3.431679 -0.38839,2.58585 c -0.21361,1.42222 -0.38839,2.76523 -0.38839,2.98447 0,0.21924 0.15152,0.39862 0.33671,0.39862 0.18519,0 0.54775,0.39188 0.8057,0.87086 0.34452,0.63973 0.42256,1.16126 0.29403,1.965 l -0.17496,1.09413 -0.75426,0.31243 c -0.41484,0.17183 -0.89184,0.47821 -1.06001,0.68083 -0.16816,0.20263 -0.77161,0.36841 -1.341,0.36841 -0.56938,0 -1.33242,-0.19472 -1.69565,-0.43271 -0.36322,-0.238 -0.73503,-0.35809 -0.82624,-0.26688 -0.0912,0.0912 -0.32121,0.0369 -0.51111,-0.12072 -0.25172,-0.20891 -0.56335,-0.17777 -1.15005,0.11492 l -0.80476,0.40147 -0.28511,-0.53273 c -0.2036,-0.38044 -0.45546,-0.48996 -0.8811,-0.38313 -0.3278,0.0823 -1.00263,0.0305 -1.49962,-0.11511 -0.49698,-0.14558 -2.45142,-0.24091 -4.34319,-0.21184 -1.89177,0.0291 -9.03552,0.0634 -15.875,0.0763 -6.83948,0.0129 -13.01792,0.12694 -13.72986,0.25347 -0.94784,0.16845 -1.24476,0.14965 -1.10887,-0.0702 0.10207,-0.16515 0.0595,-0.30028 -0.0946,-0.30028 -0.15411,0 -0.28019,0.12209 -0.28019,0.27132 0,0.1529 -0.60621,0.26444 -1.38907,0.25557 -0.76398,-0.009 -2.85821,0.008 -4.65384,0.0368 -1.79563,0.0289 -3.34344,-0.0563 -3.43958,-0.18943 -0.0961,-0.13308 -0.45523,-0.27254 -0.79797,-0.30992 -0.34274,-0.0374 -0.93805,-0.28829 -1.32292,-0.55758 -0.38486,-0.2693 -0.85258,-0.43582 -1.03937,-0.37005 -0.1868,0.0658 -0.49913,-0.0128 -0.69407,-0.17458 -0.19495,-0.16179 -0.55257,-0.21814 -0.79471,-0.12522 -0.25842,0.0992 -0.66612,-0.0356 -0.9871,-0.32616 l -0.54683,-0.49511 -3.01519,-0.0382 c -1.65835,-0.021 -3.01519,0.0597 -3.01519,0.1794 0,0.11969 -0.62677,0.29592 -1.39282,0.39164 l -1.39283,0.17402 -0.7098,2.4247 c -0.39039,1.33359 -1.08035,3.96702 -1.53324,5.85207 -0.4529,1.88506 -0.87134,4.43099 -0.929877,5.65764 -0.05854,1.22665 -0.282542,3.07762 -0.497786,4.11326 -0.215243,1.03564 -0.586902,3.25221 -0.82591,4.92569 -0.239007,1.67349 -0.609598,4.02611 -0.823536,5.22805 -0.213938,1.20193 -0.340223,2.27349 -0.280633,2.38125 0.05959,0.10775 0.007,1.14841 -0.116801,2.31258 -0.12383,1.16417 -0.363362,4.25979 -0.532293,6.87917 -0.168931,2.61937 -0.323343,5.95312 -0.343137,7.40833 -0.0198,1.45521 -0.06082,2.90562 -0.09116,3.22313 -0.03034,0.31751 -0.429613,0.84392 -0.887263,1.1698 l -0.832092,0.5925 -3.335096,0.0983 c -1.891479,0.0557 -3.374865,0.21271 -3.426971,0.3626 -0.05573,0.16032 -0.211863,0.17039 -0.396875,0.0256 -0.167935,-0.13143 -1.077865,-0.15432 -2.024792,-0.051 -0.945885,0.10326 -2.553229,0.54456 -3.571875,0.98065 -1.018645,0.4361 -2.387864,0.9965 -3.042708,1.24535 -0.654844,0.24884 -1.813711,0.7732 -2.575261,1.16523 -0.76155,0.39203 -2.405083,1.41619 -3.652297,2.27591 -1.247213,0.85971 -2.737014,2.09633 -3.310669,2.74804 -0.573655,0.6517 -1.400668,1.72488 -1.837808,2.38484 -0.547144,0.82604 -0.798389,1.53618 -0.806321,2.27905 -0.0063,0.59351 -0.10066,1.55537 -0.209604,2.13745 -0.108945,0.58208 -0.122688,1.9513 -0.03054,3.04271 0.09215,1.0914 0.37702,2.75828 0.633052,3.70416 0.256032,0.94589 0.814929,2.37464 1.241994,3.175 0.427064,0.80037 1.190615,1.9017 1.696779,2.4474 0.506164,0.5457 1.010683,0.99219 1.121154,0.99219 0.11047,0 0.415033,0.3977 0.676806,0.88378 l 0.475951,0.88379 1.755856,0.61987 1.755856,0.61987 2.657006,-0.005 c 1.461354,-0.003 2.895131,-0.0653 3.186173,-0.13934 0.291042,-0.074 1.064948,-0.28794 1.719792,-0.47541 0.654844,-0.18746 1.640271,-0.3691 2.189839,-0.40363 0.549568,-0.0345 1.229743,-0.27141 1.5115,-0.5264 0.281757,-0.25498 0.6866,-0.39672 0.899651,-0.31496 0.213052,0.0817 0.982147,-0.0688 1.709102,-0.33447 l 1.321736,-0.48311 1.145024,0.21475 c 0.629762,0.11811 1.455587,0.33323 1.835166,0.47805 0.50441,0.19245 0.764572,0.55654 0.966703,1.35287 l 0.27656,1.08956 -0.406103,0.81405 c -0.223356,0.44773 -0.444983,1.36896 -0.492505,2.04717 -0.04752,0.67822 -0.276776,1.68875 -0.509454,2.24562 -0.232678,0.55688 -0.549476,2.04197 -0.703996,3.30021 -0.154519,1.25824 -0.268071,2.55675 -0.252336,2.88558 0.01573,0.32883 -0.146197,2.09224 -0.35985,3.9187 -0.213652,1.82646 -0.456705,3.43126 -0.540118,3.56622 -0.08341,0.13497 -0.255075,1.58624 -0.381472,3.22505 -0.126396,1.63881 -0.36671,4.11075 -0.534029,5.4932 -0.16732,1.38244 -0.474456,3.83304 -0.682526,5.44576 -0.20807,1.61272 -0.378309,3.93517 -0.378309,5.161 0,1.22582 -0.178562,3.75525 -0.396805,5.62095 -0.218242,1.8657 -0.327657,3.66768 -0.243144,4.00441 0.08451,0.33673 0.02495,0.69178 -0.132362,0.789 -0.177853,0.10992 -0.286022,1.31506 -0.286022,3.18664 0,1.65543 0.121228,3.32873 0.269397,3.71844 l 0.269397,0.70856 1.384249,-0.16456 c 0.761336,-0.0905 4.539405,-0.39719 8.395707,-0.6815 3.856296,-0.28431 9.095046,-0.58865 11.641666,-0.67631 2.54661,-0.0877 6.23755,-0.16384 8.20208,-0.16928 1.96453,-0.005 7.32234,-0.11791 11.90625,-0.24992 4.58391,-0.13201 11.12182,-0.29736 14.5287,-0.36743 l 6.19433,-0.12741 0.44109,-0.39918 c 0.27199,-0.24614 0.95903,-0.39917 1.79209,-0.39917 0.74306,0 1.65641,0.11611 2.02969,0.25803 l 0.67868,0.25803 v 1.29142 1.29142 l -0.94009,1.2312 c -0.51705,0.67716 -0.8723,1.3409 -0.78943,1.47498 0.0829,0.13407 0.045,0.30905 -0.0841,0.38884 -0.1291,0.0798 -0.31005,0.52167 -0.40211,0.98197 -0.0921,0.46029 -0.34756,0.96878 -0.56778,1.12998 l -0.4004,0.29308 -0.0111,2.24896 c -0.006,1.24557 0.23475,3.51068 0.54,5.07692 0.37777,1.93831 0.87387,3.47817 1.57698,4.89479 0.5642,1.13676 1.365,2.38668 1.77954,2.7776 0.41454,0.39093 1.1109,0.85599 1.54746,1.03346 0.43656,0.17748 1.32953,0.40425 1.98438,0.50393 0.65484,0.0997 1.48828,0.12392 1.85208,0.0539 0.3638,-0.07 0.97039,-0.28273 1.34798,-0.47264 z m -12.45921,-69.86436 c -0.44173,-0.18573 -0.8799,-0.55103 -0.97373,-0.81178 -0.0938,-0.26075 -0.38966,-0.68709 -0.6574,-0.94742 -0.26774,-0.26033 -0.48681,-0.68386 -0.48681,-0.94118 v -0.46786 l 1.88025,-0.48767 c 1.05853,-0.27455 2.475,-0.88929 3.24114,-1.40664 0.7485,-0.50542 1.8809,-1.41025 2.51646,-2.01072 0.82569,-0.78011 1.59576,-1.9981 2.69767,-4.26677 0.84817,-1.74625 1.66471,-3.71078 1.81454,-4.36562 0.14983,-0.65484 0.27533,-1.92023 0.27889,-2.81196 0.004,-0.89173 -0.17098,-2.04604 -0.38787,-2.56512 -0.21689,-0.51908 -0.60285,-1.06048 -0.85769,-1.20309 -0.25485,-0.14262 -0.37575,-0.34691 -0.26869,-0.45397 0.10707,-0.10707 -0.0351,-0.32436 -0.31602,-0.48287 -0.28087,-0.15851 -1.17313,-0.67617 -1.9828,-1.15036 -0.80967,-0.47418 -1.47213,-0.9802 -1.47213,-1.12448 0,-0.14427 -0.18233,-0.26232 -0.40518,-0.26232 -0.22284,0 -0.46832,-0.16455 -0.5455,-0.36567 -0.0772,-0.20112 -0.58789,-0.43724 -1.13492,-0.52471 -0.70148,-0.11217 -1.26198,-0.45763 -1.90189,-1.17218 -0.49902,-0.55723 -1.19131,-1.70176 -1.53844,-2.5434 -0.34712,-0.84165 -0.72612,-2.47242 -0.8422,-3.62395 l -0.21107,-2.09368 0.81048,-1.78352 c 0.44576,-0.98093 1.04403,-2.49789 1.3295,-3.37101 0.28546,-0.87313 0.97503,-2.18281 1.53237,-2.91042 0.55734,-0.7276 1.39418,-2.06829 1.85964,-2.9793 0.58928,-1.15336 1.17811,-1.87655 1.93894,-2.38138 0.60095,-0.39875 1.74749,-1.04167 2.54786,-1.42871 0.80036,-0.38704 2.46724,-1.16089 3.70416,-1.71966 l 2.24896,-1.01595 2.51354,0.0171 2.51354,0.0171 1.06222,0.67453 c 0.58422,0.37099 1.22279,0.86801 1.41905,1.10449 0.23705,0.28563 0.29834,0.7418 0.18257,1.3589 -0.0958,0.51092 -0.29577,0.92894 -0.44426,0.92894 -0.14849,0 -0.52893,-0.13857 -0.84541,-0.30795 -0.31647,-0.16937 -0.83257,-0.33618 -1.14689,-0.37068 -0.31431,-0.0345 -0.81143,-0.1389 -1.10471,-0.23198 -0.29328,-0.0931 -0.60982,-0.0453 -0.70341,0.1061 -0.0936,0.15144 -0.56078,0.27535 -1.03818,0.27535 -0.51452,0 -1.88868,0.51965 -3.3743,1.27602 -1.37845,0.70182 -3.05369,1.65266 -3.72275,2.11298 -0.66906,0.46033 -1.82807,1.64229 -2.57558,2.62658 -0.74751,0.98429 -1.87928,2.86119 -2.51504,4.17088 -0.63576,1.30968 -1.40404,3.03609 -1.70729,3.83645 -0.30326,0.80037 -0.55143,2.05506 -0.55151,2.78821 -8e-5,0.86464 0.20904,1.73804 0.59518,2.48578 l 0.59531,1.15278 3.55306,1.80858 3.55305,1.80857 1.13393,1.2619 c 0.62366,0.69404 1.40013,1.91674 1.72548,2.7171 l 0.59156,1.45521 -0.0307,3.30729 c -0.0169,1.81901 -0.0556,3.60055 -0.0861,3.95898 -0.0305,0.35842 -0.59589,1.78717 -1.2565,3.17499 -0.66061,1.38783 -1.6156,3.14917 -2.1222,3.9141 -0.5472,0.82625 -1.89843,2.16873 -3.32886,3.3073 -1.32428,1.05408 -2.76542,2.14627 -3.20254,2.4271 -0.43712,0.28083 -1.35792,0.5866 -2.04622,0.67949 -0.78942,0.10654 -1.54795,0.0442 -2.05457,-0.1688 z m -192.882522,52.41744 c 2.692136,-0.0802 5.627196,-0.20889 6.522356,-0.28604 l 1.627563,-0.14026 0.176569,-0.57705 c 0.09711,-0.31737 0.22916,-1.05329 0.293439,-1.63538 0.06428,-0.58208 0.276566,-1.17761 0.47175,-1.3234 0.195184,-0.14579 0.37226,-0.80064 0.393503,-1.45521 0.02124,-0.65458 0.04008,-1.48779 0.04187,-1.85159 0.0018,-0.36381 -0.0288,-1.43537 -0.06798,-2.38125 -0.03917,-0.94589 -0.161011,-1.85981 -0.270746,-2.03094 -0.109735,-0.17113 -0.02763,-0.82597 0.182454,-1.45521 0.210085,-0.62923 0.452469,-1.62031 0.538632,-2.2024 0.08616,-0.58208 0.291066,-1.89177 0.455341,-2.91041 l 0.298681,-1.85209 0.725187,-0.79375 c 0.398853,-0.43656 1.092892,-1.44859 1.542308,-2.24895 0.449417,-0.80037 1.087324,-1.76758 1.417573,-2.14937 0.330248,-0.38178 1.49342,-1.3843 2.584827,-2.22783 1.091406,-0.84352 2.639218,-2.14626 3.439583,-2.89497 0.800365,-0.74871 2.705365,-2.06272 4.233333,-2.92001 1.527969,-0.8573 3.552032,-1.84084 4.497917,-2.18565 l 1.719792,-0.62692 2.3831143,0.005 c 1.310713,0.002 3.3347756,0.20032 4.4979167,0.43967 1.1631411,0.23934 2.73737335,0.65318 3.49829383,0.91964 0.76092049,0.26646 1.74318617,0.74059 2.18281247,1.05364 0.4396264,0.31304 0.7993208,0.72513 0.7993208,0.91575 0,0.19062 0.2413977,0.50994 0.5364394,0.70959 0.3794346,0.25675 0.6202147,0.86635 0.8226746,2.08279 0.1574293,0.94588 0.322757,4.63682 0.3673949,8.20208 0.044638,3.56526 0.1046756,6.60136 0.1334171,6.74688 0.028742,0.14552 -0.077468,1.03849 -0.2360206,1.98437 -0.1585528,0.94589 -0.3074876,2.37464 -0.3309662,3.175 -0.023479,0.80037 -0.1417284,1.64888 -0.2627774,1.88559 -0.1210489,0.2367 -0.4504017,1.72499 -0.7318951,3.30729 l -0.5118062,2.87691 0.3804831,0.39688 0.3804831,0.39687 h 4.1580575 c 2.2869317,0 5.7654017,-0.0982 7.7299327,-0.21812 1.964531,-0.11997 4.345781,-0.33907 5.291666,-0.4869 0.945886,-0.14782 2.773168,-0.34732 4.060627,-0.44333 1.287459,-0.096 6.288084,-0.15727 11.1125,-0.13614 4.824416,0.0211 9.247915,0.10342 9.829999,0.18286 0.582083,0.0794 1.594114,0.20787 2.248958,0.28541 0.654844,0.0775 3.095625,0.15276 5.423958,0.16717 2.77187,0.0171 5.750182,-0.15807 8.627096,-0.50754 2.416569,-0.29355 5.452663,-0.71514 6.746875,-0.93686 1.294212,-0.22172 3.656196,-0.51002 5.248853,-0.64068 1.749971,-0.14356 4.245988,-0.13943 6.308265,0.0105 1.876888,0.13641 3.568906,0.188 3.760039,0.11466 0.191134,-0.0734 0.428805,-0.50347 0.528159,-0.95582 0.111402,-0.50721 0.05891,-0.96914 -0.136943,-1.20513 -0.179634,-0.21645 -0.232524,-0.58526 -0.12176,-0.84906 0.107704,-0.25652 0.292206,-1.53796 0.410004,-2.84764 0.117799,-1.30969 0.417936,-3.57188 0.666973,-5.02709 0.255383,-1.49229 0.470606,-4.26078 0.493652,-6.35 0.02247,-2.03729 0.178097,-4.35901 0.345832,-5.15937 0.167735,-0.80037 0.432709,-3.12208 0.588831,-5.15938 0.156122,-2.03729 0.390599,-4.71619 0.52106,-5.95312 0.13046,-1.23693 0.360453,-2.96333 0.511096,-3.83646 0.150642,-0.87312 0.399838,-3.07578 0.553769,-4.89479 0.153931,-1.81901 0.394601,-4.49792 0.534822,-5.95313 0.140222,-1.4552 0.332443,-3.12208 0.427159,-3.70416 0.09472,-0.58209 0.186143,-1.46623 0.203172,-1.96476 l 0.03096,-0.90643 -0.838944,-0.0981 c -0.46142,-0.0539 -1.294857,0.10415 -1.852084,0.3513 -0.557226,0.24716 -1.370326,0.491 -1.806889,0.54188 -0.436562,0.0509 -2.62466,0.16308 -4.862439,0.24934 l -4.068689,0.15683 -0.958394,-0.40674 c -0.527117,-0.22371 -1.671198,-0.60365 -2.542402,-0.8443 -0.871205,-0.24066 -1.942768,-0.61775 -2.38125,-0.83799 -0.438483,-0.22023 -1.243727,-0.82818 -1.78943,-1.351 -0.545703,-0.52283 -0.992187,-1.10502 -0.992187,-1.29377 0,-0.18875 -0.106651,-0.34318 -0.237002,-0.34318 -0.130351,0 -0.619013,-0.59531 -1.085915,-1.32291 -0.466902,-0.72761 -0.952076,-1.32292 -1.078164,-1.32292 -0.126088,0 -0.522054,-0.62508 -0.879926,-1.38906 -0.357871,-0.76399 -0.773953,-2.10344 -0.924625,-2.97657 -0.150673,-0.87312 -0.397138,-2.67255 -0.547701,-3.99873 -0.150563,-1.32618 -0.273751,-3.04284 -0.273751,-3.81479 0,-0.77195 0.136066,-2.18489 0.302368,-3.13987 l 0.302368,-1.73632 1.779476,-2.12181 c 0.978712,-1.16699 2.241631,-2.53855 2.806487,-3.0479 0.564855,-0.50935 2.065711,-1.67499 3.335234,-2.59031 1.269523,-0.91532 2.698273,-1.83981 3.175,-2.05442 0.476727,-0.21461 1.04537,-0.5012 1.263651,-0.63686 0.218281,-0.13567 1.032195,-0.55085 1.808696,-0.92261 0.776502,-0.37177 1.898322,-0.75374 2.492933,-0.84882 0.594611,-0.0951 2.162616,-0.61461 3.484457,-1.15451 l 2.403346,-0.98164 2.379763,-0.0286 2.379763,-0.0286 0.58635,-0.67275 c 0.322492,-0.37001 0.768976,-1.28772 0.992187,-2.03936 0.223211,-0.75163 0.40776,-1.91054 0.410109,-2.57535 0.0023,-0.66481 0.29613,-3.94718 0.652849,-7.29416 0.356718,-3.34698 0.773075,-6.85933 0.925238,-7.80521 0.152162,-0.94589 0.511356,-3.50573 0.798208,-5.68854 0.286852,-2.18282 0.698627,-5.04032 0.915057,-6.35 0.216429,-1.30969 0.379477,-2.74342 0.362328,-3.18607 -0.01715,-0.44264 0.09338,-1.21655 0.245625,-1.71979 0.152243,-0.50324 0.406943,-1.62935 0.566,-2.50248 0.159057,-0.87312 0.47154,-2.70576 0.694407,-4.07252 0.222867,-1.36676 0.368982,-2.52125 0.324701,-2.56553 -0.04428,-0.0443 -0.612741,-0.10636 -1.263244,-0.13795 -0.650502,-0.0316 -1.34987,-0.18679 -1.554149,-0.34488 -0.249231,-0.19289 -2.599343,-0.27072 -7.14375,-0.23661 -3.724783,0.028 -9.451239,0.11588 -12.725458,0.19537 -3.274218,0.0795 -6.607968,0.21131 -7.408333,0.29294 -0.800365,0.0816 -1.90444,0.26693 -2.453501,0.41178 -0.54906,0.14486 -1.11747,0.18972 -1.263133,0.0997 -0.145663,-0.09 -2.97065,-0.0225 -6.27775,0.15015 -3.307099,0.17261 -8.096501,0.36534 -10.643116,0.42829 -2.546615,0.063 -8.083021,0.15617 -12.303125,0.20716 -4.784745,0.0578 -8.071285,0.20886 -8.73125,0.40129 -0.582083,0.16972 -1.236927,0.31892 -1.455208,0.33156 -0.218282,0.0126 -0.787972,0.36249 -1.265978,0.77746 -0.478006,0.41498 -1.114479,0.7545 -1.414385,0.7545 -0.299906,0 -0.885288,-0.20084 -1.30085,-0.44632 l -0.755567,-0.44633 -0.184949,-1.4719 c -0.11953,-0.95128 -0.02796,-2.50135 0.258888,-4.38232 0.244111,-1.60073 0.73396,-4.99401 1.088554,-7.54063 0.416992,-2.994736 0.669127,-6.172221 0.713825,-8.995831 l 0.06911,-4.365625 -0.467928,-0.926042 c -0.257361,-0.509322 -0.763,-1.34276 -1.123642,-1.852083 -0.360642,-0.509323 -0.916361,-1.249425 -1.234931,-1.644671 -0.31857,-0.395247 -0.911283,-0.856176 -1.31714,-1.024287 -0.405857,-0.168111 -0.737921,-0.47729 -0.737921,-0.687064 0,-0.209774 -0.20836,-0.354998 -0.463021,-0.32272 -0.254661,0.03228 -0.790443,-0.03268 -1.190625,-0.144343 -0.400182,-0.111667 -0.727604,-0.288353 -0.727604,-0.392636 0,-0.104283 -0.446485,-0.202182 -0.992188,-0.217553 -0.545703,-0.01537 -1.319609,-0.03431 -1.719791,-0.04209 -0.400183,-0.0078 -0.727605,-0.142393 -0.727605,-0.299142 0,-0.18716 -0.402282,-0.224672 -1.171839,-0.109269 -0.6445123,0.09665 -1.3291217,0.07418 -1.5213546,-0.04993 -0.1922329,-0.124115 -0.9032304,-0.225663 -1.5799945,-0.225663 -0.6767641,0 -1.175753,0.0893 -1.1088643,0.198438 0.066889,0.10914 -0.3404511,0.198437 -0.9051997,0.198437 -0.5647486,0 -1.554041,0.161728 -2.1984274,0.359394 C 2.084952,79.9047 0.86296402,80.284677 0.01380962,80.551427 -1.0228853,80.87709 -2.0411514,81.476136 -3.0856573,82.374845 l -1.5555498,1.338419 -0.974135,1.984375 c -0.5357743,1.091406 -1.3253469,2.817813 -1.7546059,3.836458 -0.4292591,1.018646 -1.0155237,2.62599 -1.3028103,3.571875 -0.2872866,0.945886 -0.8177606,2.791354 -1.1788311,4.101042 -0.3610706,1.309687 -0.9012536,3.571876 -1.2004076,5.027086 -0.299154,1.45521 -0.643062,3.45052 -0.76424,4.43403 l -0.220325,1.78819 0.544796,1.2316 0.544797,1.23161 -0.477892,0.81666 c -0.26284,0.44916 -0.652141,0.94724 -0.865111,1.10683 -0.212971,0.1596 -0.978918,0.31112 -1.702105,0.33672 -0.723186,0.0256 -1.486699,-0.0961 -1.696694,-0.27034 -0.212155,-0.17607 -1.050371,-0.3001 -1.886407,-0.27913 -0.827527,0.0208 -2.040377,0.15289 -2.69522,0.29363 -0.654844,0.14074 -2.500313,0.3356 -4.101042,0.43303 -1.600729,0.0974 -3.148542,0.18181 -3.439583,0.18752 -0.291042,0.006 -2.612761,-0.0752 -5.159375,-0.17981 -2.546615,-0.1046 -5.285053,-0.29981 -6.085417,-0.43379 -0.800365,-0.13399 -1.931458,-0.35147 -2.513542,-0.4833 -0.582083,-0.13183 -1.415521,-0.36367 -1.852083,-0.5152 -0.436563,-0.15154 -1.627188,-0.51464 -2.645834,-0.8069 -1.018645,-0.29225 -2.387864,-0.72601 -3.042708,-0.9639 -0.75159,-0.27304 -2.410165,-0.48158 -4.497917,-0.56554 l -3.307291,-0.13301 -0.558242,0.61888 c -0.307033,0.34039 -0.706979,1.15466 -0.888769,1.80951 -0.181791,0.65484 -0.424379,2.08359 -0.539085,3.175 -0.114706,1.0914 -0.345982,2.40109 -0.513946,2.91041 -0.167964,0.50933 -0.410406,1.99761 -0.53876,3.3073 -0.128354,1.30968 -0.417386,3.15515 -0.642292,4.10104 -0.224906,0.94588 -0.411401,2.51607 -0.414434,3.48931 -0.003,0.97323 -0.198351,2.58058 -0.434041,3.57187 l -0.428527,1.80236 -0.07224,11.24479 c -0.0475,7.39458 -0.183097,11.86343 -0.396012,13.05156 l -0.323775,1.80677 0.469917,1.04209 0.469917,1.04209 -0.344035,0.64284 c -0.18922,0.35356 -0.509427,0.7063 -0.711572,0.78387 -0.202145,0.0776 -0.810484,-0.0234 -1.351864,-0.22431 -0.541379,-0.20093 -2.202288,-0.50932 -3.690907,-0.68529 -1.559856,-0.1844 -3.627142,-0.24554 -4.879357,-0.14432 -1.195028,0.0966 -3.15136,0.4038 -4.347405,0.68268 -1.196044,0.27889 -2.810333,0.74868 -3.587308,1.04399 -0.776976,0.29531 -1.604986,0.53699 -1.840023,0.53706 -0.235036,8e-5 -0.741052,0.2469 -1.124479,0.54851 -0.383427,0.3016 -0.697139,0.47019 -0.697139,0.37464 0,-0.0956 -0.506016,0.21334 -1.12448,0.68642 -0.618463,0.47307 -1.88003,1.58441 -2.803483,2.46962 -0.923452,0.88522 -2.530795,2.72276 -3.571875,4.08341 -1.041079,1.36066 -2.279816,3.08707 -2.75275,3.83646 -0.472933,0.7494 -1.170655,2.17328 -1.550493,3.1642 l -0.690615,1.80166 0.183871,1.71696 c 0.103988,0.97102 0.509682,2.42979 0.933804,3.35771 0.42075,0.92055 1.252906,2.12188 1.895789,2.73683 0.630221,0.60284 1.403299,1.17309 1.71795,1.26723 0.314652,0.0941 1.029027,0.53786 1.5875,0.98606 0.558474,0.4482 1.441418,1.0869 1.962098,1.41935 0.52068,0.33244 2.128023,0.96102 3.571875,1.39685 1.443851,0.43582 2.982371,0.86793 3.418934,0.96024 0.436562,0.0923 1.27,0.21953 1.852083,0.28271 0.582083,0.0632 1.563789,0.25313 2.181569,0.42211 0.683267,0.1869 2.256787,0.26054 4.017187,0.18801 1.591674,-0.0656 3.05075,-0.24778 3.24239,-0.40489 0.191641,-0.1571 1.141501,-0.36962 2.110802,-0.47227 1.140295,-0.12074 2.097596,-0.076 2.712098,0.12683 0.68103,0.22476 1.00049,0.51348 1.129131,1.02048 0.09867,0.38888 0.16212,1.06424 0.141004,1.5008 -0.02112,0.43656 -0.08027,1.41033 -0.13145,2.16393 -0.05118,0.7536 -0.229775,1.53492 -0.396874,1.73626 -0.1671,0.20134 -0.378158,1.54929 -0.469019,2.99544 -0.09086,1.44615 -0.325137,3.58187 -0.520614,4.74603 -0.195477,1.16417 -0.42573,2.95011 -0.511675,3.96875 -0.08594,1.01865 -0.276851,2.56646 -0.424237,3.43959 -0.147385,0.87312 -0.438893,3.90922 -0.647793,6.74687 -0.208901,2.83766 -0.567061,6.88578 -0.795913,8.99584 -0.228851,2.11005 -0.526178,4.25317 -0.660727,4.7625 -0.134549,0.50932 -0.324563,1.81901 -0.422255,2.91041 -0.09769,1.09141 -0.386708,2.5235 -0.642258,3.18242 -0.255551,0.65892 -0.60342,2.1472 -0.773042,3.30729 -0.169622,1.16009 -0.494841,2.79286 -0.72271,3.62838 l -0.414306,1.51913 0.329646,0.3972 c 0.181305,0.21846 0.812631,0.52725 1.402945,0.68621 0.590315,0.15896 3.344649,0.2977 6.120742,0.30832 2.776093,0.0106 6.535724,-0.0646 8.354734,-0.16708 l 3.307292,-0.1864 2.116666,0.38839 c 1.164167,0.21361 2.533386,0.33963 3.042709,0.28004 0.509323,-0.0596 3.128698,-0.17395 5.820833,-0.25413 z m 30.06532,-67.09366 c -0.562773,-0.13217 -1.455741,-0.42778 -1.984375,-0.6569 -0.528634,-0.22912 -1.139747,-0.52919 -1.358028,-0.66682 -0.218281,-0.13764 -0.605234,-0.32021 -0.859896,-0.40572 -0.254661,-0.0855 -0.463021,-0.32017 -0.463021,-0.52148 0,-0.20131 -0.09564,-0.36602 -0.212536,-0.36602 -0.116896,0 -0.610695,-0.98227 -1.097332,-2.18281 -0.486637,-1.20055 -1.085996,-2.48047 -1.331909,-2.84427 -0.245913,-0.36381 -0.53722,-0.89959 -0.64735,-1.19063 -0.11013,-0.29104 -0.427755,-1.71979 -0.705834,-3.175 -0.278079,-1.45521 -0.630639,-3.5388 -0.783466,-4.63021 -0.152828,-1.0914 -0.450723,-3.29406 -0.66199,-4.89479 -0.211267,-1.60073 -0.386129,-3.4462 -0.388581,-4.10104 -0.0025,-0.65484 -0.121603,-1.66687 -0.264779,-2.24896 -0.143176,-0.58208 -0.50085,-2.24482 -0.794832,-3.69498 -0.371591,-1.83299 -0.713713,-2.82875 -1.122431,-3.2669 -0.323355,-0.34663 -1.004637,-0.84143 -1.51396,-1.09954 -0.509323,-0.25812 -1.580885,-0.54736 -2.38125,-0.64277 -0.800364,-0.0954 -2.323836,-0.23556 -3.385492,-0.31144 l -1.930283,-0.13798 -2.016517,0.55323 c -1.18586,0.32533 -2.325279,0.48541 -2.766071,0.38859 -0.412255,-0.0905 -0.748534,-0.24446 -0.747288,-0.34204 0.0012,-0.0976 0.804918,-0.66393 1.785937,-1.25855 0.98102,-0.59462 2.200391,-1.24749 2.709714,-1.45082 0.605876,-0.24188 1.749325,-0.34789 3.307292,-0.30664 1.309687,0.0347 3.155156,0.24787 4.101042,0.47377 0.945885,0.22589 2.315104,0.59931 3.042708,0.82982 0.727604,0.23052 1.948759,0.8311 2.713679,1.33464 0.906631,0.59683 1.448921,1.15947 1.557836,1.61628 0.09189,0.38541 0.252536,0.81981 0.356989,0.96533 0.104452,0.14552 0.336328,0.8599 0.51528,1.5875 0.178951,0.72761 0.369991,2.51354 0.424531,3.96875 0.05454,1.45521 0.277684,3.83646 0.495873,5.29167 0.218189,1.45521 0.475902,3.65786 0.572696,4.89479 0.09679,1.23693 0.445074,3.6231 0.773955,5.30261 0.328882,1.67951 0.923904,3.88217 1.322273,4.89479 0.398369,1.01263 1.020425,2.31739 1.382347,2.89948 0.361922,0.58208 1.080909,1.38575 1.59775,1.78593 0.516841,0.40018 1.165645,0.72761 1.441786,0.72761 0.276142,0 0.9659791,-0.37281 1.5329717,-0.82845 0.5669926,-0.45565 1.5548659,-1.61651 2.1952741,-2.57969 0.6404081,-0.96318 1.6114728,-2.76327 2.1579214,-4.0002 0.5464486,-1.23692 1.4443,-3.32052 1.9952254,-4.6302 0.5509253,-1.30969 1.4840652,-3.47433 2.0736443,-4.81032 0.58957906,-1.33598 1.18808562,-2.64567 1.33001458,-2.91041 0.14192892,-0.26475 0.86246472,-1.76003 1.60119062,-3.32285 0.7387259,-1.56283 1.343138,-2.9955 1.343138,-3.18372 0,-0.18823 0.5141447,-1.33156 1.1425439,-2.54074 0.6283992,-1.20919 1.6918783,-2.94072 2.3632869,-3.84785 0.6714086,-0.90713 2.0683301,-2.55692 3.1042701,-3.66619 1.03594,-1.10928 2.127575,-2.09432 2.425855,-2.18899 0.298281,-0.0947 1.316756,-0.65769 2.263278,-1.25116 l 1.72095,-1.07903 2.630655,0.065 2.630655,0.065 1.340996,0.6213 c 0.737547,0.34171 1.736729,1.00485 2.220405,1.47365 0.483676,0.46879 1.134172,1.52056 1.445548,2.33725 0.311376,0.81669 0.735264,1.87588 0.941973,2.35376 0.206709,0.47788 0.375834,1.1684 0.375834,1.53449 0,0.3661 0.166079,0.98714 0.369064,1.38009 0.202986,0.39296 0.501312,1.60743 0.662947,2.69884 0.161636,1.09141 0.357949,3.8794 0.436252,6.19554 0.0783,2.31614 0.201499,4.30684 0.273769,4.42378 0.07227,0.11694 0.238199,1.14901 0.36873,2.29349 0.142031,1.24531 0.673195,3.29368 1.322804,5.10122 0.597011,1.66119 1.264284,3.42176 1.482828,3.91237 0.218544,0.49061 0.704173,1.29428 1.079174,1.78594 0.416258,0.54574 0.912274,0.89391 1.273497,0.89391 0.371231,0 1.079161,-0.51753 1.900089,-1.38906 0.719627,-0.76399 1.7953,-2.05078 2.390385,-2.85953 0.595084,-0.80876 1.322925,-2.05892 1.617424,-2.77813 0.294499,-0.71921 0.855859,-2.20062 1.247466,-3.29203 0.391607,-1.09141 1.296371,-3.23453 2.010587,-4.7625 0.714215,-1.52797 1.41027,-3.43297 1.546788,-4.23333 0.136518,-0.80037 0.554478,-2.28865 0.9288,-3.30729 0.374323,-1.01865 1.167919,-3.10224 1.763548,-4.63021 0.595628,-1.52797 1.236231,-3.13532 1.423562,-3.57188 0.187331,-0.43656 0.456419,-1.09433 0.597975,-1.46172 0.141555,-0.36738 0.93151,-1.45766 1.755454,-2.42285 0.823944,-0.96518 2.237708,-2.23144 3.141698,-2.81391 0.90399,-0.58246 2.697578,-1.49093 3.985752,-2.01882 l 2.342134,-0.9598 2.260499,0.0761 2.260498,0.0761 0.53095,0.71246 0.530949,0.71246 -0.437228,0.6673 c -0.240475,0.36701 -0.692341,0.80382 -1.004146,0.97069 -0.311805,0.16688 -1.399811,0.40799 -2.417792,0.53581 -1.01798,0.12783 -2.459508,0.51486 -3.203394,0.86007 -0.743887,0.34522 -1.984323,1.14685 -2.756526,1.7814 -0.970425,0.79744 -1.738364,1.76877 -2.486715,3.14532 -0.59549,1.09536 -1.419031,2.64642 -1.83009,3.44678 -0.41106,0.80037 -1.004845,2.28865 -1.319522,3.3073 -0.314678,1.01864 -0.778455,2.2688 -1.030616,2.77812 -0.252161,0.50932 -0.542768,1.52135 -0.645794,2.24896 -0.103025,0.7276 -0.589077,2.39448 -1.080115,3.70417 -0.491038,1.30968 -1.302195,3.15515 -1.802572,4.10104 -0.500376,0.94588 -1.170074,2.61276 -1.488217,3.70416 -0.318142,1.09141 -0.833611,2.48815 -1.145486,3.10388 -0.311874,0.61573 -1.166067,1.88891 -1.898206,2.8293 -0.732139,0.94038 -1.726522,2.25846 -2.20974,2.92905 l -0.878578,1.21926 -1.969737,0.93495 -1.969736,0.93496 -1.004249,-0.16967 c -0.552337,-0.0933 -1.309638,-0.37136 -1.68289,-0.61788 -0.373252,-0.24652 -1.407802,-1.32222 -2.298999,-2.39044 -0.891197,-1.06822 -1.620358,-2.15497 -1.620358,-2.415 0,-0.26003 -0.178594,-0.621 -0.396875,-0.80216 -0.218281,-0.18115 -0.396875,-0.52484 -0.396875,-0.76373 0,-0.2389 -0.248787,-1.08752 -0.55286,-1.88583 -0.304073,-0.79832 -0.772043,-2.16585 -1.039934,-3.03898 -0.26789,-0.87312 -0.684671,-2.48047 -0.926179,-3.57187 -0.241507,-1.09141 -0.5467,-3.65125 -0.678205,-5.68854 -0.131505,-2.0373 -0.368917,-4.23995 -0.527581,-4.8948 -0.158664,-0.65484 -0.443476,-2.50031 -0.632915,-4.10104 -0.230815,-1.95034 -0.553151,-3.34681 -0.977148,-4.23333 -0.347992,-0.7276 -0.843634,-1.6383 -1.101426,-2.02376 -0.257793,-0.38547 -0.823252,-0.84771 -1.256576,-1.02719 -0.479702,-0.1987 -1.261067,-0.26149 -1.997694,-0.16052 -0.773253,0.10598 -1.606153,0.47193 -2.308096,1.01409 -0.604043,0.46655 -1.538457,1.21135 -2.076474,1.65512 -0.538017,0.44376 -1.33766,1.08045 -1.776986,1.41487 -0.439325,0.33441 -1.130223,1.07116 -1.535328,1.63723 -0.405106,0.56607 -1.220692,1.72121 -1.8124128,2.56698 -0.5917209,0.84577 -1.2406331,1.95448 -1.4420271,2.4638 -0.201394,0.50933 -0.9971806,2.20747 -1.7684146,3.77366 -0.7712341,1.56619 -1.4036779,3.05447 -1.4054308,3.3073 -0.00175,0.25282 -0.315002,0.99545 -0.6961093,1.65029 -0.3811073,0.65485 -1.2226594,2.44078 -1.8701157,3.96875 -0.6474563,1.52797 -1.3647388,3.31391 -1.59396104,3.96875 -0.22922227,0.65485 -0.74742534,1.67666 -1.15156237,2.2707 -0.40413703,0.59404 -0.98407759,1.84419 -1.28875689,2.77812 -0.360032,1.10361 -1.0870425,2.39275 -2.0767077,3.68243 -0.9727273,1.26762 -2.1256989,2.39054 -3.1920445,3.10886 -1.1479112,0.77326 -1.9303832,1.11618 -2.5051981,1.0979 -0.4597445,-0.0146 -1.2963491,-0.13472 -1.8591211,-0.2669 z m -1.49032,-74.18673 c 0,-0.0728 -0.05953,-0.13229 -0.132291,-0.13229 -0.07276,0 -0.132292,0.0595 -0.132292,0.13229 0,0.0728 0.05953,0.13229 0.132292,0.13229 0.07276,0 0.132291,-0.0595 0.132291,-0.13229 z"
       id="path1" /></g></svg>
