<?xml version="1.0" encoding="UTF-8" standalone="no"?>
<!-- Created with Inkscape (http://www.inkscape.org/) -->

<svg
   width="178.05092mm"
   height="150.95264mm"
   viewBox="0 0 178.05091 150.95264"
   version="1.1"
   id="svg1"
   xml:space="preserve"
   sodipodi:docname="reverse_swiss_chees_model.svg"
   inkscape:export-filename="temporary.svg"
   inkscape:export-xdpi="96"
   inkscape:export-ydpi="96"
   xmlns:inkscape="http://www.inkscape.org/namespaces/inkscape"
   xmlns:sodipodi="http://sodipodi.sourceforge.net/DTD/sodipodi-0.dtd"
   xmlns="http://www.w3.org/2000/svg"
   xmlns:svg="http://www.w3.org/2000/svg"><sodipodi:namedview
     id="namedview1"
     pagecolor="#ffffff"
     bordercolor="#000000"
     borderopacity="0.25"
     inkscape:showpageshadow="2"
     inkscape:pageopacity="0.0"
     inkscape:pagecheckerboard="0"
     inkscape:deskcolor="#d1d1d1"
     inkscape:document-units="mm" /><defs
     id="defs1" /><path
     style="fill:#ddaabb;fill-opacity:1;stroke-width:0.819894"
     d="m 120.48633,150.37842 c -0.51702,-0.31523 -0.94002,-0.64541 -0.94002,-0.73373 0,-0.0883 0.26752,-0.52243 0.5945,-0.9647 0.36983,-0.5002 0.75485,-1.78026 1.01873,-3.38686 0.24696,-1.50354 0.77646,-3.31239 1.26721,-4.3289 0.46365,-0.96038 1.07193,-2.58736 1.35175,-3.6155 0.27982,-1.02816 0.8087,-2.27213 1.17531,-2.76439 0.3666,-0.49226 0.66654,-0.98418 0.66654,-1.09315 0,-0.10896 1.12093,-2.50462 2.49094,-5.32365 1.37002,-2.81904 3.15254,-6.49218 3.96117,-8.16255 0.80863,-1.67036 2.21767,-4.29714 3.13122,-5.83727 0.91354,-1.54015 2.14525,-3.92752 2.73714,-5.30529 0.59187,-1.37777 1.25079,-2.57205 1.46424,-2.65395 0.21345,-0.0818 0.38809,-0.2776 0.38809,-0.43488 0,-0.15728 0.29285,-0.69653 0.65079,-1.19833 0.86315,-1.21008 1.27573,-4.57411 1.06972,-8.721876 -0.0396,-0.79541 0.009,-2.22715 0.10647,-3.18164 0.62469,-6.07862 1.14748,-20.94759 0.75866,-21.57672 -0.19071,-0.30858 -0.39604,-0.24502 -0.97962,0.30322 -0.40609,0.38149 -0.73833,0.90187 -0.73833,1.15638 0,0.2545 -1.94888,2.41196 -4.33083,4.79436 -2.38196,2.38239 -4.49081,4.72209 -4.68631,5.19933 -0.19553,0.47726 -1.10674,1.74569 -2.02493,2.81876 -0.91819,1.07307 -1.88304,2.27703 -2.1441,2.67547 -0.56128,0.85661 -1.40503,0.92155 -2.50965,0.19317 -1.06142,-0.6999 -1.62936,-1.51163 -1.44114,-2.05977 0.0842,-0.24528 0.70283,-1.03169 1.37465,-1.74756 0.67183,-0.71587 1.52351,-1.85476 1.89264,-2.53086 0.36911,-0.67609 0.75941,-1.22927 0.86732,-1.22927 0.10797,0 0.87371,-0.91111 1.70179,-2.02469 0.82806,-1.11357 1.66321,-2.02468 1.85587,-2.02468 0.36926,0 3.94911,-3.48114 3.94911,-3.84022 0,-0.11503 0.22778,-0.46785 0.50618,-0.78406 0.27839,-0.31621 0.83157,-0.98726 1.22926,-1.49121 0.39771,-0.50397 1.27628,-1.5032 1.95237,-2.22053 0.67611,-0.71732 1.22928,-1.45533 1.22928,-1.64001 0,-0.47553 1.2811,-1.62054 1.91768,-1.71397 0.54307,-0.0797 0.55445,-0.11781 1.25956,-4.218235 0.15046,-0.874951 0.41927,-2.371766 0.59735,-3.326262 0.41302,-2.213675 0.0639,-3.326263 -1.04377,-3.326263 -2.41669,0 -9.3172,-2.49212 -11.73574,-4.238365 -4.94662,-3.571584 -8.74065,-12.231197 -8.27036,-18.876534 0.26058,-3.682048 3.16453,-11.765243 5.9921,-16.679126 1.6354,-2.842075 3.16392,-4.7260276 6.51071,-8.0246766 4.87234,-4.802272 7.27701,-5.893239 13.61057,-6.174964 2.99738,-0.133323 4.10697,-0.0719 5.37901,0.297917 0.88145,0.256241 3.04484,0.66705 4.80754,0.912912 5.67846,0.792002 7.24806,1.596236 11.37894,5.830287 3.41542,3.5007536 4.03839,4.5392896 5.71167,9.5219036 2.2785,6.784826 2.42818,10.225473 0.60284,13.857533 -1.50405,2.992755 -9.06844,11.45374 -13.2896,14.864805 -4.49962,3.636077 -11.77325,7.997991 -14.27708,8.561791 -1.47366,0.331828 -1.48674,0.344578 -1.50944,1.469899 -0.029,1.436809 -0.29631,3.365292 -0.89975,6.490851 -0.59103,3.061347 -0.42171,3.784577 1.14203,4.878217 1.38373,0.96774 4.65346,4.10876 7.41664,7.12468 1.01816,1.11129 2.20891,2.28498 2.6461,2.6082 0.43721,0.32321 1.31121,1.23432 1.94226,2.02468 0.63103,0.79037 2.60032,2.93384 4.37618,4.76329 1.77585,1.82945 3.30081,3.6051 3.38879,3.94591 0.23838,0.92347 -0.63618,2.41795 -1.41306,2.41467 -0.89933,-0.004 -3.54313,-1.57457 -4.17059,-2.47788 -1.71405,-2.4676 -5.36971,-6.78607 -8.1837,-9.66752 -1.78662,-1.82945 -3.90444,-4.07467 -4.70626,-4.98939 -0.80184,-0.91473 -1.62275,-1.66313 -1.82426,-1.66313 -0.20151,0 -0.42448,-0.1627 -0.4955,-0.36156 -0.43016,-1.20443 -0.65141,0.93806 -0.71932,6.96559 -0.0424,3.76511 -0.17259,7.69168 -0.28925,8.72572 -0.22714,2.01337 -0.22657,7.3004 8.3e-4,8.96646 0.076,0.55679 0.0434,2.96471 -0.0726,5.350956 -0.25127,5.16849 -0.30895,4.94981 3.71787,14.0947 1.45212,3.29779 3.08843,7.13744 3.63624,8.5326 0.5478,1.39514 1.34949,3.31757 1.78154,4.27206 0.43203,0.9545 1.26993,3.10211 1.86198,4.77247 1.4601,4.11937 2.63354,6.8104 3.70668,8.50036 0.49383,0.77768 1.29757,2.61371 1.78609,4.08008 0.85306,2.56057 0.87323,2.7336 0.50962,4.37085 l -0.3786,1.70473 -1.00529,-0.0893 c -1.80873,-0.16065 -1.85952,-0.21773 -2.36381,-2.65648 -0.449,-2.17145 -0.87437,-3.22629 -2.74175,-6.79919 -0.83814,-1.60365 -1.32848,-2.83914 -2.98462,-7.52026 -2.97869,-8.41933 -10.02962,-24.82057 -10.72826,-24.95511 -0.25156,-0.0485 -0.64506,0.31896 -0.92738,0.86586 -0.26972,0.5225 -0.61084,1.14523 -0.75803,1.38387 -0.14721,0.23862 -0.54606,1.06679 -0.88634,1.84038 -0.34028,0.77359 -1.17585,2.33548 -1.85683,3.47089 -1.48668,2.47871 -3.42505,6.4191 -5.28406,10.74157 -0.75258,1.74992 -1.82307,3.96204 -2.37886,4.91585 -0.55576,0.95381 -1.42288,2.77603 -1.92691,4.04938 -0.50403,1.27334 -1.25405,3.03103 -1.66671,3.90598 -1.10807,2.34944 -2.15208,5.18545 -2.50702,6.81026 -0.1722,0.78821 -0.51458,2.05136 -0.76085,2.807 -0.40945,1.25633 -0.52622,1.37381 -1.36455,1.37281 -0.50424,-5.9e-4 -1.33981,-0.25899 -1.85682,-0.57424 z m 28.0598,-99.571703 c 1.08618,-0.378643 5.79611,-3.065652 7.53468,-4.298519 0.66627,-0.472472 1.70311,-1.183632 2.30409,-1.580363 2.87149,-1.895556 9.30955,-8.203645 12.5264,-12.273528 2.95564,-3.739442 3.44774,-4.981221 3.4386,-8.677217 -0.006,-2.652539 -0.12301,-3.366594 -0.91949,-5.640195 -0.50158,-1.43174 -1.13182,-3.343785 -1.40052,-4.248989 -0.7964,-2.682835 -5.69748,-7.9184276 -8.62458,-9.2132306 -0.69638,-0.308034 -2.81226,-0.760132 -4.70197,-1.00465 -1.8897,-0.244516 -3.87398,-0.58633 -4.40953,-0.759582 -0.53553,-0.17326 -2.53534,-0.351472 -4.44401,-0.396034 -3.26389,-0.07617 -3.59121,-0.03116 -5.50235,0.756927 -2.55979,1.055565 -5.20694,3.210306 -8.31744,6.7702716 -2.80038,3.205017 -3.89691,4.766736 -5.29643,7.543293 -2.01827,4.004152 -4.29818,10.63319 -4.70074,13.667743 -0.42553,3.207813 1.09286,8.811737 3.31314,12.227868 2.24275,3.450684 4.15135,4.838224 8.69903,6.324184 1.5043,0.491527 3.3916,1.010464 4.194,1.153199 1.68525,0.299778 4.96338,0.117253 6.30712,-0.351178 z m -8.07005,-6.540373 c -0.62661,-0.453919 -1.34628,-1.141195 -1.59925,-1.527284 -0.75019,-1.144926 -1.15576,-3.683474 -1.05666,-6.613869 l 0.0929,-2.747786 0.90989,-0.08838 c 0.50044,-0.04862 1.34646,0.02541 1.88007,0.164528 l 0.97016,0.252921 -0.10298,2.872518 c -0.1071,2.988827 0.28302,5.251794 0.94944,5.507527 0.21029,0.08067 2.24122,-0.804579 4.51318,-1.967271 3.9336,-2.013046 4.22468,-2.113983 6.09596,-2.113983 1.09464,0 2.11237,0.147252 2.29756,0.332433 0.64951,0.649521 5.3e-4,1.47472 -1.68755,2.145755 -0.90915,0.361401 -3.44095,1.546092 -5.6262,2.632649 -4.6805,2.327238 -5.78264,2.493242 -7.63659,1.150247 z m -3.55517,-18.96687 c -0.76465,-0.788911 -0.92289,-1.143565 -0.77434,-1.735447 0.15382,-0.61283 0.3565,-0.743898 1.15038,-0.743898 2.56103,0 3.79075,1.369798 2.48115,2.763791 -0.90942,0.968041 -1.72161,0.887183 -2.85719,-0.284446 z m 16.16869,-1.480951 c -0.61849,-1.000731 -0.62095,-1.041013 -0.0993,-1.61748 0.39128,-0.432363 0.76905,-0.551994 1.4061,-0.445301 1.73621,0.290783 2.4619,0.723327 2.4619,1.467431 0,1.374881 -0.2652,1.621637 -1.74279,1.621637 -1.28208,0 -1.44163,-0.08085 -2.02595,-1.026287 z"
     id="path1"
     sodipodi:nodetypes="cssssssssssssssscssssssssssssssssssssssssssssssssssssssssssscsssssssssssssssscssssssssssssssssccsssssssssssssssssssssscsscsssssssssssssssssss" /><path
     style="fill:#ddaabb;fill-opacity:1;stroke-width:1.25391"
     d="m 0.97282899,150.62594 c -0.4145167,-0.19977 -0.8372215,-0.69612 -0.9393397,-1.10299 -0.1020681,-0.40687 0.035109,-1.16675 0.305013,-1.68862 0.2698659,-0.52188 0.82685161,-1.2471 1.23775711,-1.61161 0.4108929,-0.36451 2.1253355,-2.75284 3.8098724,-5.30743 1.684537,-2.55457 3.528018,-5.57275 4.096615,-6.70708 0.5685972,-1.13432 1.8179902,-3.1951 2.7764022,-4.57953 0.958424,-1.38441 1.919444,-2.83535 2.13558,-3.2243 0.216149,-0.38895 1.485141,-2.05554 2.819988,-3.70354 1.334847,-1.648 3.03823,-3.61102 3.785283,-4.36223 0.747065,-0.75123 2.27376,-2.12775 3.392685,-3.05891 1.118912,-0.93118 2.289547,-1.83583 2.601406,-2.01036 0.31186,-0.17452 0.598252,-0.76847 0.636421,-1.31989 0.03824,-0.55141 0.24223,-1.52621 0.453451,-2.1662 0.268411,-0.8133 0.292574,-1.84557 0.08025,-3.42864 -0.167084,-1.24575 -0.193278,-2.56359 -0.05818,-2.92852 0.135059,-0.36495 0.425062,-1.41 0.644459,-2.32235 0.219396,-0.91235 0.531155,-3.493403 0.692783,-5.735678 0.161629,-2.242275 0.35853,-4.183098 0.437551,-4.312928 0.079,-0.129829 0.308913,-2.176858 0.51088,-4.548963 0.201967,-2.372104 0.455168,-5.022062 0.562666,-5.888801 0.10746,-0.866726 0.06947,-1.572663 -0.08451,-1.568751 -0.153967,0.0038 -1.474294,1.124743 -2.934055,2.490737 -1.459749,1.365982 -3.027334,2.85363 -3.483505,3.305889 -0.531833,0.527256 -1.377481,0.897246 -2.357008,1.031251 -1.097846,0.150193 -1.858579,0.05191 -2.704152,-0.349338 -0.647104,-0.30707 -1.25634,-0.863366 -1.353843,-1.236215 -0.117241,-0.448535 0.0874,-0.918111 0.605073,-1.3878 0.43029,-0.390441 1.24913,-1.063288 1.819645,-1.495209 0.570515,-0.431934 1.120454,-0.702163 1.222083,-0.600534 0.101692,0.101692 0.417852,0.0075 0.70269,-0.209967 0.284838,-0.217126 1.741539,-1.589114 3.237087,-3.048863 1.495561,-1.459762 3.299382,-3.529085 4.008504,-4.598505 0.70911,-1.06942 1.532877,-2.338412 1.83058,-2.819988 l 0.541274,-0.875591 0.202293,-5.805855 0.202293,-5.805842 -3.563555,-0.01129 C 26.885308,57.625199 24.46059,57.425595 23.457012,57.18813 22.453423,56.950665 20.257254,56.077732 18.576629,55.248272 L 15.520939,53.740178 13.170025,51.458167 10.819112,49.176168 9.8330508,46.978432 C 9.2907238,45.769678 8.6049618,43.718473 8.3091398,42.42019 l -0.53785,-2.360493 0.19151,-4.644687 c 0.118619,-2.875736 0.450828,-5.749567 0.872404,-7.545776 0.374505,-1.595598 1.030361,-3.760356 1.4574672,-4.810566 0.427106,-1.05021 1.597278,-3.178455 2.600404,-4.729451 1.003113,-1.550995 2.782633,-3.867765 3.954485,-5.148381 1.171852,-1.280615 2.535827,-2.81595 3.031058,-3.4118444 C 20.373836,9.1731097 21.642828,8.189971 22.698593,7.584246 23.754371,6.9785209 25.066058,6.24659 25.613464,5.9577023 26.16087,5.6688271 28.549563,4.7253245 30.921668,3.8610311 l 4.312927,-1.5714344 2.488217,-0.1427323 2.488229,-0.1427197 2.985867,0.9918282 c 1.642217,0.5455125 4.169154,1.5554973 5.615411,2.2444191 1.446257,0.6889218 3.189865,1.7587933 3.874687,2.3774963 0.684834,0.6186905 1.904673,2.199479 2.71076,3.5128347 0.806074,1.313367 2.166062,3.656921 3.02218,5.207916 0.856118,1.550996 2.078941,3.517474 2.717393,4.369956 0.828782,1.10661 1.308741,2.245422 1.677878,3.981156 0.329013,1.547033 0.45463,3.275758 0.345427,4.753525 -0.104952,1.419637 -0.690264,3.888731 -1.505905,6.352082 -0.73385,2.216357 -1.794517,5.044771 -2.35702,6.285362 -0.562516,1.240578 -1.848837,3.353161 -2.858495,4.694616 -1.009659,1.341456 -2.739111,3.140537 -3.843214,3.997959 -1.140228,0.885459 -3.587066,2.238576 -5.663875,3.132148 -2.011029,0.865259 -4.569903,1.743207 -5.686395,1.95098 -1.116492,0.207785 -2.233548,0.435344 -2.482336,0.505688 -0.286342,0.081 -0.382705,0.394203 -0.262605,0.853485 0.112851,0.431457 -0.07172,1.148692 -0.455369,1.769376 l -0.645098,1.043815 -0.08765,5.701931 c -0.05969,3.887815 0.02909,5.777692 0.279044,5.940073 0.201654,0.130983 0.55419,0.835328 0.783417,1.565202 0.229239,0.729887 0.912092,2.228106 1.517453,3.329401 0.605362,1.101294 2.025036,3.266052 3.154831,4.810565 1.129796,1.544526 3.177364,3.876167 4.550167,5.181422 1.672286,1.59003 2.431766,2.540579 2.301372,2.880363 -0.107084,0.278944 0.170042,1.263048 0.615731,2.186915 0.445689,0.923854 0.810338,1.784423 0.810338,1.912359 0,0.127949 0.375733,0.774815 0.834964,1.43748 0.599932,0.86571 0.856757,1.71122 0.912356,3.003697 l 0.07737,1.798843 -1.95997,-0.01129 -1.959971,-0.01129 -1.771771,-1.979769 c -0.974474,-1.088868 -1.772034,-2.137386 -1.77236,-2.330024 -3.26e-4,-0.192637 -0.350957,-0.825121 -0.779166,-1.40553 -0.428209,-0.580408 -0.865083,-0.968781 -0.970825,-0.863039 -0.105705,0.105704 -0.427206,-0.262079 -0.714364,-0.817385 -0.28717,-0.555305 -0.522114,-1.38148 -0.522114,-1.835946 0,-0.454466 -0.149291,-0.918575 -0.331759,-1.031339 -0.182469,-0.112726 -0.339395,-0.4575 -0.348724,-0.766049 -0.0088,-0.308549 -0.494541,-1.24824 -1.078235,-2.088183 -0.583694,-0.839955 -1.779646,-2.597243 -2.65767,-3.905106 -0.878023,-1.307863 -1.736461,-2.291378 -1.907644,-2.185573 -0.171171,0.105829 -0.311233,1.054975 -0.311233,2.10931 0,1.054336 -0.234643,3.396886 -0.521437,5.205685 -0.286794,1.808799 -0.573362,4.33378 -0.636835,5.611072 -0.06345,1.277281 -0.281753,3.442039 -0.485074,4.810554 -0.203321,1.368527 -0.430002,3.160054 -0.503745,3.981154 -0.09166,1.02145 0.05843,1.85842 0.475307,2.65019 l 0.609374,1.15723 -0.674201,1.32154 c -0.370806,0.72684 -0.792069,1.73251 -0.936118,2.23482 -0.144061,0.50229 -0.126168,1.32766 0.03975,1.83414 0.165917,0.50647 0.773135,2.41379 1.349368,4.23849 0.57622,1.8247 1.827068,5.10915 2.779637,7.29878 0.952581,2.18964 1.992283,4.80229 2.310437,5.80586 0.318166,1.00359 1.58361,3.91481 2.812101,6.46939 1.228478,2.55456 2.615926,5.91366 3.083208,7.46465 0.467281,1.55099 1.083037,3.60498 1.368339,4.56442 0.285301,0.95944 0.435431,1.96149 0.333627,2.22676 -0.101818,0.26529 -0.432561,0.5488 -0.735028,0.63002 -0.302455,0.0812 -0.98344,0.24481 -1.513291,0.36352 -0.529839,0.11874 -1.350947,0.0489 -1.824686,-0.1552 -0.473739,-0.20407 -1.194773,-0.8911 -1.602281,-1.52673 -0.40752,-0.63563 -0.920104,-2.15682 -1.139074,-3.38042 -0.21897,-1.2236 -0.669336,-2.8716 -1.000819,-3.66223 -0.33147,-0.79062 -0.602691,-1.64149 -0.602691,-1.8908 0,-0.24933 -0.723279,-1.99116 -1.607283,-3.8707 -0.884018,-1.87957 -1.935005,-4.43742 -2.335541,-5.68409 -0.400535,-1.24668 -1.388188,-3.73506 -2.194789,-5.52975 -0.806589,-1.79468 -1.783997,-4.24573 -2.172031,-5.4468 l -0.705486,-2.18374 h -0.750865 c -0.412974,0 -1.333117,0.43053 -2.044747,0.95673 -0.711643,0.52621 -1.980998,1.68322 -2.820803,2.57117 -0.839804,0.88792 -2.340995,2.65947 -3.335983,3.93676 -0.995,1.2773 -2.639161,3.59135 -3.653723,5.14233 -1.014549,1.551 -2.406399,3.93969 -3.093001,5.30822 -0.686602,1.36851 -2.100295,3.75719 -3.14154,5.30819 -1.041244,1.551 -2.3544242,3.56645 -2.9181682,4.47879 -0.563743,0.91236 -1.264113,2.26247 -1.556374,3.00025 -0.35473,0.89549 -0.991766,1.63996 -1.916247,2.23941 -0.7616861,0.49389 -1.7655519,0.88786 -2.2308143,0.87551 -0.4652623,-0.0125 -1.185093,-0.1859 -1.59962221,-0.38567 z M 37.559465,53.552631 c 2.070239,-0.385978 4.944069,-1.214322 6.635265,-1.912522 1.640825,-0.677399 3.691603,-1.761377 4.557276,-2.408819 0.865685,-0.647455 1.994766,-1.707007 2.509069,-2.354575 0.514315,-0.647568 1.713677,-2.533407 2.665243,-4.190747 0.951578,-1.657327 2.308682,-4.730968 3.015798,-6.830284 0.707116,-2.099317 1.388564,-4.777902 1.514344,-5.952412 0.129829,-1.212328 0.0721,-2.982369 -0.133479,-4.094585 l -0.362153,-1.95913 -1.78584,-2.677405 C 55.192777,19.699575 54.144886,18.046863 53.846344,17.499457 53.547801,16.952051 52.573314,15.160531 51.68082,13.518301 50.747048,11.800134 49.482645,10.020952 48.702715,9.3277039 47.957254,8.6651016 46.37614,7.6400198 45.189128,7.0497428 44.002117,6.4594785 41.969683,5.7743184 40.672629,5.5271732 L 38.31433,5.0778229 36.442685,5.7642746 C 35.41329,6.1418135 33.704778,6.7329055 32.646004,7.0778053 31.587217,7.4227051 30.09429,8.0654831 29.328365,8.506219 28.562454,8.9469424 27.312295,9.407791 26.550246,9.5303103 l -1.38553,0.2227817 -1.600337,1.730217 c -0.880181,0.951628 -2.303905,2.619914 -3.163847,3.707303 -0.859942,1.087401 -2.084446,2.678133 -2.72113,3.534978 -0.636684,0.856845 -1.46899,2.168257 -1.849563,2.914257 -0.380586,0.745999 -1.113257,2.508278 -1.628162,3.916191 -0.514917,1.407912 -1.115488,3.754186 -1.334608,5.213947 -0.219121,1.459749 -0.446091,3.699153 -0.504372,4.976446 -0.05831,1.27728 0.03285,3.20663 0.202443,4.287423 0.169641,1.080793 0.814626,3.0607 1.433329,4.399785 0.618691,1.339073 1.350772,2.660566 1.626845,2.936639 0.276073,0.276073 1.049608,1.170297 1.718981,1.987167 0.669361,0.816871 2.057286,1.988735 3.084274,2.60414 1.026988,0.615406 2.61372,1.355023 3.526063,1.64361 0.912356,0.288574 2.181348,0.588622 2.819988,0.666765 0.63864,0.07812 2.504805,0.101441 4.147035,0.05179 1.64223,-0.04965 4.629251,-0.396661 6.63781,-0.77114 z m -3.953357,-8.73107 c -0.713185,-0.162193 -2.131479,-0.76427 -3.151746,-1.337945 -1.02028,-0.573675 -2.629933,-1.653465 -3.577009,-2.39954 -0.947077,-0.746075 -1.8089,-1.564149 -1.915169,-1.81794 -0.106206,-0.253803 0.03298,-0.806676 0.309465,-1.228616 0.289577,-0.441952 0.984969,-0.857635 1.640412,-0.980593 0.62575,-0.117366 1.559973,-0.120501 2.076019,-0.0063 0.547569,0.120501 1.164554,0.601625 1.481655,1.155263 0.298856,0.521776 1.416727,1.593867 2.484141,2.382424 l 1.940773,1.43373 1.361555,-0.05931 c 0.748859,-0.0326 2.243629,-0.285702 3.321714,-0.562477 1.078084,-0.276763 2.839561,-0.952845 3.914398,-1.502395 1.074824,-0.54955 2.194526,-0.994436 2.488216,-0.98863 0.29369,0.0063 0.82141,0.22801 1.172704,0.493788 l 0.638716,0.483231 -0.433714,0.810401 c -0.238544,0.445726 -1.27244,1.256578 -2.297535,1.801902 -1.025094,0.545325 -3.058155,1.285983 -4.517916,1.645917 -1.459762,0.359934 -3.325927,0.725987 -4.147036,0.81346 -0.821121,0.08752 -2.076458,0.02633 -2.789643,-0.135861 z M 25.447572,29.702647 c -0.273703,-0.09806 -0.83356,-0.483896 -1.244114,-0.857422 -0.410555,-0.373527 -0.741724,-0.914374 -0.735919,-1.201883 0.0063,-0.287521 0.231058,-0.81435 0.500573,-1.170748 l 0.490002,-0.647982 2.070602,-0.112726 c 1.138836,-0.06194 2.254965,0.01304 2.480304,0.166832 0.22534,0.153754 0.498917,0.725586 0.607957,1.270748 0.139197,0.696019 0.01718,1.209657 -0.409714,1.724799 -0.387044,0.467031 -1.090147,0.783216 -1.934992,0.870137 -0.729887,0.07511 -1.550996,0.0563 -1.824699,-0.04176 z m 17.916532,-3.661999 c -0.637913,-0.07448 -1.354684,-0.297151 -1.592814,-0.49478 -0.238142,-0.19764 -0.388034,-0.805184 -0.3331,-1.350094 0.06031,-0.597587 0.429012,-1.227312 0.929296,-1.586883 0.456171,-0.327884 1.380978,-0.693624 2.055129,-0.812745 l 1.225719,-0.216587 0.847792,0.847792 c 0.466291,0.46629 0.847065,1.041207 0.84615,1.277581 -9.03e-4,0.236386 -0.336813,0.827478 -0.746464,1.313543 -0.409652,0.486065 -1.043402,0.945371 -1.408339,1.020693 -0.36495,0.07536 -1.185456,0.07599 -1.823369,0.0013 z"
     id="path2" /></svg>
