<?xml version="1.0" encoding="UTF-8" standalone="no"?>
<!-- Created with Inkscape (http://www.inkscape.org/) -->

<svg
   width="112.9082mm"
   height="78.976059mm"
   viewBox="0 0 112.90818 78.976056"
   version="1.1"
   id="svg1"
   xml:space="preserve"
   xmlns="http://www.w3.org/2000/svg"
   xmlns:svg="http://www.w3.org/2000/svg"><defs
     id="defs1" /><g
     id="layer1"
     transform="translate(90.050375,-426.09964)"><path
       style="fill:#ddaabb;fill-opacity:1"
       d="m -2.1187107,504.16544 c -1.2285039,-0.49819 -2.3392381,-0.84053 -2.4682982,-0.76077 -0.1290602,0.0798 -0.753853,-3.4e-4 -1.3884285,-0.17801 l -1.1537738,-0.32304 -0.4233496,-0.89214 c -0.2328423,-0.49068 -1.0897132,-1.39995 -1.9041577,-2.0206 -0.8144445,-0.62065 -2.0037855,-1.65062 -2.6429795,-2.28881 l -1.162171,-1.16036 -1.910558,-0.12328 c -1.050806,-0.0678 -2.420734,-0.28978 -3.044283,-0.49329 -0.623549,-0.2035 -2.015438,-0.37001 -3.093086,-0.37001 -1.40188,0 -2.471984,-0.18251 -3.761066,-0.64147 -0.990938,-0.3528 -2.307224,-0.77398 -2.92508,-0.93594 -0.820361,-0.21504 -1.270608,-0.21568 -1.669223,-0.002 -0.392297,0.20996 -1.192727,0.21491 -2.845376,0.0176 -1.650861,-0.19708 -2.598069,-0.1914 -3.357861,0.0202 -0.582083,0.16208 -1.891771,0.31467 -2.910416,0.33909 -1.018646,0.0244 -2.34469,0.13468 -2.946765,0.245 -0.657019,0.1204 -1.556169,0.0783 -2.248958,-0.10533 -0.634853,-0.16826 -2.261453,-0.8313 -3.614667,-1.47343 -1.353215,-0.64213 -2.603371,-1.16824 -2.778126,-1.16914 -0.174754,-8.9e-4 -0.623327,-0.1611 -0.996828,-0.35601 -0.373501,-0.19492 -1.028345,-0.45509 -1.455208,-0.57817 -0.426864,-0.12307 -1.380313,-0.23076 -2.118777,-0.23929 l -1.342662,-0.0155 -1.595957,-0.98498 -1.595956,-0.98498 -3.940549,-0.96687 c -2.167301,-0.53177 -5.071642,-1.0692 -6.45409,-1.19427 -1.382448,-0.12508 -3.316388,-0.30236 -4.297645,-0.39397 -0.981258,-0.0916 -2.746387,-0.0258 -3.922511,0.14612 l -2.138406,0.31268 -0.632243,-0.41426 c -0.347734,-0.22785 -0.810884,-0.41426 -1.029221,-0.41426 -0.218338,0 -0.788074,0.33972 -1.26608,0.75495 -0.478007,0.41522 -1.1377,0.89603 -1.465986,1.06848 l -0.596884,0.31353 -1.041832,-0.31214 c -0.741588,-0.22218 -1.156087,-0.54805 -1.438295,-1.13075 l -0.396464,-0.8186 0.381533,-0.42159 c 0.209844,-0.23188 0.381534,-0.55112 0.381534,-0.70944 0,-0.15832 -0.0893,-0.32918 -0.198438,-0.37971 -0.109141,-0.0505 -0.584316,-0.51149 -1.055946,-1.02437 -0.605756,-0.65873 -0.946851,-1.37737 -1.16182,-2.44778 l -0.30431,-1.51527 0.377847,-0.45897 c 0.207815,-0.25243 0.636622,-1.29241 0.952904,-2.31105 0.316282,-1.01865 0.720703,-2.4474 0.898712,-3.175 0.17801,-0.72761 0.585029,-1.9188 0.904487,-2.6471 0.319458,-0.72829 0.841571,-2.27611 1.16025,-3.43958 0.31868,-1.16347 1.091627,-3.78228 1.71766,-5.81957 0.626034,-2.03729 1.414642,-4.7162 1.752461,-5.95313 0.33782,-1.23692 1.299155,-4.16851 2.136301,-6.51464 1.089624,-3.0537 1.833982,-5.79375 2.619842,-9.64388 0.603768,-2.95801 1.31284,-6.09861 1.575716,-6.97911 0.262876,-0.8805 0.615765,-2.20527 0.784199,-2.94393 0.168434,-0.73867 0.270497,-1.45304 0.226807,-1.5875 -0.04369,-0.13446 0.112955,-0.51738 0.348099,-0.85093 0.235145,-0.33355 0.531876,-0.57684 0.659403,-0.54064 0.127527,0.0362 0.896488,-0.017 1.708803,-0.11824 1.000358,-0.12467 1.965,-0.0569 2.989471,0.20991 0.831896,0.21668 2.624452,0.39396 3.98346,0.39396 1.571463,0 3.742831,0.24763 5.965,0.68026 1.921742,0.37414 3.646352,0.62182 3.832467,0.5504 0.186114,-0.0714 1.514415,0.10359 2.951779,0.3889 1.437363,0.28531 3.570503,0.62302 4.740309,0.75047 1.169807,0.12745 2.777151,0.47096 3.571876,0.76336 0.794724,0.2924 3.619721,1.29387 6.27777,2.22549 3.235958,1.13418 5.071854,1.92191 5.556251,2.38404 0.397888,0.37959 1.70733,1.23351 2.909871,1.89759 l 2.186437,1.20741 1.517729,0.009 c 0.834751,0.005 2.172573,0.16465 2.972938,0.35437 l 1.455208,0.34494 8.598959,-0.21387 c 5.0701917,-0.1261 9.4675777,-0.11385 10.715625,0.0299 1.16416669,0.13405 3.7240105,0.31549 5.6885418,0.40318 1.9645313,0.0877 4.0481251,0.28197 4.6302085,0.43172 0.5820833,0.14975 1.9996017,0.81195 3.1500417,1.47156 1.15044,0.65961 2.800647,1.72118 3.667128,2.35904 0.86648,0.63787 1.740914,1.15976 1.943187,1.15976 0.202273,0 0.367769,0.10518 0.367769,0.23372 0,0.12855 0.250104,0.29913 0.555787,0.37907 0.305684,0.0799 0.4853,0.2594 0.399147,0.39879 -0.08615,0.1394 0.136173,0.44531 0.494057,0.67981 0.357884,0.23449 1.299397,0.66906 2.092251,0.96571 l 1.441553,0.53935 0.282064,0.80913 c 0.192831,0.55315 0.196891,0.96828 0.01284,1.31219 l -0.26923,0.50306 H 21.30455 20.155494 l -0.55827,1.52136 c -0.307048,0.83674 -0.803293,2.59291 -1.102765,3.9026 -0.299473,1.30969 -1.014402,3.40233 -1.588732,4.65031 -0.57433,1.24798 -1.413776,3.27204 -1.865436,4.49791 -0.451659,1.22588 -1.1577,3.2409 -1.56898,4.47782 -0.41128,1.23693 -1.239697,3.55865 -1.840928,5.15938 -0.60123,1.60073 -1.365901,3.50573 -1.6992677,4.23333 -0.3333671,0.72761 -0.8200176,2.03729 -1.0814456,2.91042 -0.261428,0.87312 -0.6282138,2.06375 -0.8150795,2.64583 -0.1868658,0.58208 -0.6538162,1.89177 -1.0376675,2.91042 -0.3838513,1.01864 -0.9793582,2.68552 -1.3233488,3.70416 -0.3439906,1.01865 -0.9912676,3.0061 -1.4383934,4.41657 -0.4471258,1.41046 -0.812956,2.86195 -0.812956,3.22553 0,0.36358 -0.1120944,0.73033 -0.2490986,0.815 -0.1370042,0.0847 -0.6861709,0.87345 -1.2203704,1.75284 l -0.9712718,1.59888 0.558912,0.59494 c 0.3074017,0.32721 0.5589121,0.73609 0.5589121,0.90861 0,0.17252 -0.238125,0.5518 -0.5291667,0.84284 -0.2910417,0.29104 -0.73752608,0.52717 -0.99218754,0.52472 -0.25466147,-0.002 -1.46816039,-0.41206 -2.69666426,-0.91024 z m 0.4339321,-4.08058 c 0.3300818,-0.4898 0.5385848,-0.99017 0.46334,-1.11192 -0.075245,-0.12175 -0.8458093,-0.59925 -1.7123656,-1.06112 -0.9259745,-0.49354 -1.9831876,-1.34337 -2.5642614,-2.06125 -0.5437873,-0.67181 -1.8676848,-2.04894 -2.9419944,-3.06028 -1.0743096,-1.01134 -2.237392,-1.9862 -2.584629,-2.16635 -0.347236,-0.18015 -1.640777,-0.63544 -2.874535,-1.01176 -1.233758,-0.37632 -2.770554,-0.91027 -3.4151,-1.18655 -0.71502,-0.30649 -2.136187,-0.56591 -3.645282,-0.6654 -1.360358,-0.0897 -3.638987,-0.27671 -5.063619,-0.41562 -1.424632,-0.13891 -4.848924,-0.18613 -7.609538,-0.10494 -3.592803,0.10567 -5.225297,0.25509 -5.744135,0.52575 -0.39866,0.20796 -1.023125,0.37885 -1.3877,0.37975 l -0.662863,0.002 -0.303945,0.97108 -0.303944,0.97108 0.514108,0.69537 0.514108,0.69537 1.378741,-0.18746 c 0.758308,-0.1031 1.914523,-0.32553 2.569366,-0.4943 0.654844,-0.16876 1.785938,-0.25302 2.513542,-0.18723 0.727604,0.0658 2.554874,0.25592 4.0606,0.42254 1.505726,0.16661 3.172601,0.49244 3.704167,0.72408 0.597171,0.26022 1.876405,0.44437 3.347733,0.4819 l 2.38125,0.0607 1.850032,0.72043 c 1.017518,0.39624 2.772753,0.82567 3.900524,0.95429 1.12777,0.12863 2.914631,0.4898 3.970801,0.80261 l 1.9203104,0.56874 1.1244792,1.16752 c 0.6184636,0.64213 1.1244792,1.32989 1.1244792,1.52834 0,0.20528 0.4987992,0.48642 1.1571721,0.6522 0.7772622,0.19571 1.3136419,0.53177 1.6337653,1.02359 0.2621262,0.40272 0.6641332,0.87897 0.8933488,1.05832 0.2292156,0.17936 0.5911622,0.2976 0.8043257,0.26276 0.2131635,-0.0348 0.657637,-0.46411 0.9877187,-0.95392 z m 2.31285433,-5.38963 c 0.20475958,-0.47294 0.92761657,-2.64583 1.60634887,-4.82864 0.6787323,-2.18281 1.5657486,-4.74266 1.9711474,-5.68854 0.4053987,-0.94589 1.0593854,-2.78036 1.4533038,-4.0766 0.3939183,-1.29625 0.8779452,-2.60593 1.0756153,-2.91042 0.1976701,-0.30448 0.6832794,-1.44658 1.0791318,-2.53798 0.3958525,-1.09141 0.8136492,-2.10813 0.9284373,-2.25938 0.114788,-0.15125 0.3236377,-0.74656 0.4641103,-1.32291 0.1404726,-0.57636 0.4444177,-1.73855 0.6754336,-2.58265 0.2310159,-0.8441 0.5887419,-1.86098 0.7949459,-2.25974 0.206205,-0.39875 0.693124,-1.70798 1.082043,-2.90939 0.388919,-1.2014 1.233735,-3.31129 1.877369,-4.68863 0.643634,-1.37734 1.297646,-3.12795 1.45336,-3.89026 0.155714,-0.7623 0.587417,-2.27897 0.959341,-3.37038 0.371923,-1.0914 0.766719,-2.37357 0.877324,-2.84927 l 0.201099,-0.86489 -0.568576,-0.30141 c -0.312717,-0.16577 -1.223421,-0.88385 -2.023785,-1.59573 -0.800365,-0.71188 -2.169584,-1.71105 -3.042709,-2.22037 -0.873125,-0.50933 -1.9446872,-1.15118 -2.3812497,-1.42635 l -0.79375,-0.50031 -4.3656251,-0.28726 c -2.4010939,-0.15799 -5.0800002,-0.40008 -5.9531252,-0.53798 -0.873125,-0.13789 -2.3018751,-0.19105 -3.1750001,-0.11812 -0.873125,0.0729 -5.0065219,0.13995 -9.1853259,0.14895 -5.18225,0.0111 -7.899553,-0.0832 -8.546864,-0.29686 -0.521971,-0.17226 -1.240371,-0.24009 -1.596445,-0.15072 -0.407627,0.10231 -0.647407,0.352 -0.647407,0.67417 0,0.28142 -0.140354,0.81971 -0.311897,1.19621 l -0.311897,0.68454 -0.723044,-0.15881 -0.723045,-0.15881 -0.446986,1.53724 c -0.245842,0.84548 -0.625022,2.31115 -0.842621,3.25703 -0.217599,0.94589 -1.854737,6.12511 -3.638084,11.50938 -1.783347,5.38427 -3.391212,10.32536 -3.573033,10.98021 -0.181822,0.65484 -0.845345,2.73843 -1.474496,4.6302 -0.629151,1.89178 -1.220144,3.78852 -1.313317,4.21499 -0.09317,0.42647 -0.27802,1.67663 -0.410769,2.77813 -0.13275,1.10149 -0.309798,2.24084 -0.393441,2.53188 l -0.152079,0.52917 h 6.165167 c 3.390842,0 8.178389,0.15529 10.638994,0.34508 l 4.473828,0.34507 1.611589,0.68186 c 0.886374,0.37503 2.691685,1.02098 4.011803,1.43544 1.320117,0.41447 2.8679298,1.08834 3.4395833,1.4975 0.5716534,0.40915 1.6942136,1.13623 2.4945782,1.61573 0.8003646,0.47951 1.8123959,1.21599 2.2489584,1.63664 0.4365625,0.42065 1.4968843,1.36288 2.3562706,2.09385 0.8593863,0.73097 1.72451577,1.32904 1.92250984,1.32904 0.19799408,0 0.5275198,-0.38695 0.73227939,-0.8599 z M -14.172568,483.23104 c -0.582083,-0.23278 -1.475052,-0.52452 -1.984375,-0.64832 -0.509323,-0.1238 -2.057135,-0.47226 -3.439583,-0.77435 -1.382448,-0.30209 -3.120853,-0.54734 -3.863122,-0.545 -0.74227,0.002 -1.754301,-0.13125 -2.248959,-0.29686 -0.494658,-0.16562 -1.278387,-0.58234 -1.74162,-0.92605 -0.463233,-0.3437 -1.070545,-0.62491 -1.349581,-0.62491 -0.279036,0 -0.912058,-0.13036 -1.406716,-0.28968 -0.494657,-0.15932 -1.286331,-0.71494 -1.759273,-1.23471 -0.472943,-0.51976 -0.859896,-1.21745 -0.859896,-1.55042 v -0.60538 l 0.992187,-0.19729 c 0.545703,-0.10851 1.170782,-0.16269 1.389063,-0.1204 0.218281,0.0423 0.588355,0.24791 0.822386,0.45694 0.234031,0.20903 0.769812,0.35649 1.190625,0.32769 0.420813,-0.0288 1.022434,0.0322 1.336936,0.1356 0.314502,0.10339 0.872434,0.5821 1.239848,1.06381 l 0.668026,0.87582 1.739943,0.16248 c 0.956968,0.0894 2.184974,0.27734 2.728902,0.41774 0.543927,0.14039 1.820284,0.39091 2.836348,0.55671 1.016064,0.1658 2.522002,0.52871 3.346529,0.80647 0.824527,0.27777 1.838671,0.50263 2.253653,0.4997 0.414982,-0.003 2.7785753,-0.0399 5.2524295,-0.0821 2.4738542,-0.0422 4.9201586,-0.16774 5.436232,-0.27888 l 0.93831513,-0.20207 0.34800102,0.41932 c 0.20202498,0.24342 0.27985017,0.69085 0.18553213,1.06664 -0.0893579,0.35603 -0.54913767,0.92313 -1.02173288,1.26021 l -0.8592639,0.61288 -1.3229167,-0.0278 c -0.7276042,-0.0153 -2.573073,-0.0582 -4.1010418,-0.0953 -1.5279688,-0.0371 -3.4329685,0.006 -4.2333335,0.0966 -1.038928,0.11717 -1.757958,0.043 -2.513542,-0.25912 z m 9.5250006,-10.73934 -2.3812501,-0.76877 -1.7388149,0.16426 c -0.9563482,0.0904 -2.4158986,0.0391 -3.2434456,-0.11388 -0.827547,-0.15298 -2.307268,-0.6245 -3.288269,-1.04781 l -1.783637,-0.76967 -3.307292,-0.21541 c -1.819011,-0.11847 -4.082288,-0.21953 -5.029506,-0.22457 -1.168538,-0.006 -1.91808,0.12803 -2.331455,0.41757 l -0.60924,0.42673 -0.975837,-0.28291 c -0.536711,-0.15559 -1.124666,-0.39489 -1.306567,-0.53178 -0.181901,-0.13688 -0.330729,-0.50628 -0.330729,-0.82089 0,-0.34347 0.290791,-0.74379 0.727813,-1.00194 0.400296,-0.23646 1.464466,-0.58209 2.36482,-0.76805 l 1.637007,-0.33812 2.72841,0.31563 c 1.500625,0.1736 3.351069,0.31495 4.112098,0.31413 0.76103,-8.3e-4 2.368373,0.19385 3.571875,0.43262 1.203503,0.23877 2.774625,0.72761 3.491383,1.08632 l 1.303198,0.65219 2.4009693,-0.17965 2.4009692,-0.17965 1.1948077,0.51258 c 0.6571443,0.28191 1.8334056,0.52696 2.6139142,0.54455 0.7805085,0.0176 1.58229822,0.1674 1.78175486,0.33294 0.19945664,0.16553 0.36264844,0.70311 0.36264844,1.19462 0,0.4915 -0.0449909,0.89364 -0.0999797,0.89364 -0.0549888,0 -0.50147322,0.16292 -0.9921875,0.36205 l -0.8922079,0.36204 z m 5.8000746,-7.87821 c -1.19407216,-0.30111 -3.5434348,-0.5428 -6.4822918,-0.66688 -2.5351973,-0.10704 -4.7285124,-0.28797 -4.8740334,-0.40208 -0.14552,-0.1141 -0.630237,-0.28552 -1.077149,-0.38093 -0.446911,-0.0954 -1.178779,-0.50796 -1.626375,-0.91677 l -0.813809,-0.7433 0.131199,-1.82576 c 0.07216,-1.00417 0.308264,-2.53736 0.524677,-3.40708 0.216413,-0.86972 0.497865,-1.77636 0.625448,-2.01476 0.127584,-0.23839 0.534051,-1.56876 0.903261,-2.95638 0.369209,-1.38761 0.67129,-2.76874 0.67129,-3.06916 0,-0.30042 0.230298,-0.66948 0.511773,-0.82012 0.281475,-0.15064 0.8470215,-0.27226 1.2567705,-0.27028 0.4097491,0.002 1.0128889,0.0754 1.3403108,0.16315 0.3274219,0.0878 0.5953125,0.31073 0.5953125,0.49553 0,0.18479 0.3274219,0.39916 0.7276042,0.47637 0.4001823,0.0772 1.7991667,0.49736 3.1088543,0.93365 1.3096875,0.4363 3.31165356,0.99767 4.4488134,1.2475 l 2.0675634,0.45422 1.9011867,-0.25782 1.9011868,-0.25782 0.7276042,0.53723 c 0.470916,0.3477 0.7276041,0.78103 0.7276041,1.2283 0,0.3801 -0.1123009,0.80419 -0.2495575,0.94243 -0.1372567,0.13825 -0.746744,2.03358 -1.3544161,4.21184 l -1.1048585,3.96048 0.1389204,1.53204 0.1389203,1.53204 -0.5631674,0.39446 c -0.3097421,0.21695 -0.9831597,0.38494 -1.4964836,0.37332 -0.5133238,-0.0116 -1.776095,-0.23367 -2.8061583,-0.49342 z m 1.3887735,-4.698 c 0.1818362,-0.90238 0.5734986,-2.38056 0.8703609,-3.28485 0.2968622,-0.90428 0.5397496,-1.86685 0.5397496,-2.13903 0,-0.33764 -0.3992965,-0.66768 -1.2567709,-1.0388 -0.691224,-0.29916 -2.44739592,-0.81515 -3.9026043,-1.14663 -1.4552084,-0.33148 -3.3382791,-0.82107 -4.1846016,-1.08797 -1.1359261,-0.35824 -1.6554259,-0.41171 -1.984375,-0.20425 -0.2451854,0.15463 -0.9530233,1.78084 -1.5737702,3.61563 -0.6204897,1.83403 -1.2010372,3.86628 -1.2901062,4.51611 l -0.161942,1.1815 1.0255222,0.25763 c 0.5640374,0.1417 2.4542727,0.3386 4.2005227,0.43756 1.74625,0.099 3.7107814,0.2771 4.36562512,0.39588 0.65484377,0.11877 1.60263453,0.19839 2.10620168,0.17693 l 0.9155767,-0.039 z m -30.8029117,0.92121 c -0.825948,-0.41979 -1.124479,-0.73134 -1.124479,-1.17349 0,-0.35299 0.246223,-0.7344 0.595313,-0.92218 0.327422,-0.17612 1.071562,-0.43131 1.653646,-0.56708 0.582083,-0.13578 1.732617,-0.30358 2.556741,-0.3729 1.041821,-0.0876 2.123939,0.0456 3.551246,0.43716 1.12906,0.30976 2.207162,0.7663 2.395781,1.01453 0.188619,0.24824 0.346731,0.65552 0.351359,0.90506 0.0046,0.24954 -0.258962,0.59681 -0.585754,0.7717 -0.326793,0.1749 -1.279293,0.28746 -2.116667,0.25015 -0.837374,-0.0373 -2.088045,-0.0869 -2.779269,-0.11024 -0.691224,-0.0233 -1.733021,0.0434 -2.315104,0.14821 l -1.058333,0.19061 z m 6.474694,-8.0192 c -0.549882,-0.20186 -1.170533,-0.30149 -1.379223,-0.22141 -0.208691,0.0801 -0.959952,-0.0472 -1.669469,-0.28288 -0.709516,-0.23566 -1.593321,-0.75271 -1.964009,-1.14901 -0.370688,-0.39629 -0.866164,-1.10157 -1.101058,-1.56728 -0.234894,-0.46572 -0.42708,-0.96009 -0.42708,-1.0986 0,-0.13851 0.374954,-0.38255 0.833232,-0.54231 0.458277,-0.15975 0.989916,-0.29046 1.181418,-0.29046 0.191503,0 0.739283,0.33917 1.217289,0.75371 l 0.869102,0.7537 0.926042,-0.1129 0.926042,-0.1129 1.003937,0.68211 c 0.552166,0.37516 1.266541,0.6859 1.5875,0.69052 0.32096,0.005 0.791922,0.16659 1.046584,0.3599 0.254661,0.19332 0.463021,0.67186 0.463021,1.06342 v 0.71194 l -0.917544,0.38337 c -0.504649,0.21086 -1.070196,0.37499 -1.256771,0.36473 -0.186575,-0.0102 -0.789131,-0.18379 -1.339013,-0.38565 z m -24.532507,35.38366 c 0,-0.11561 -0.578519,-0.6514 -1.285598,-1.19062 -0.707079,-0.53923 -1.383863,-0.98041 -1.503964,-0.98041 -0.120102,0 -0.702442,-0.23102 -1.29409,-0.51337 -0.591647,-0.28235 -1.90791,-0.82353 -2.925027,-1.20262 -1.017117,-0.37909 -2.348101,-0.98156 -2.957742,-1.33884 -0.60964,-0.35727 -1.920578,-0.8366 -2.913196,-1.06518 -0.992617,-0.22858 -3.239962,-0.51545 -4.9941,-0.63749 -1.754138,-0.12203 -4.909294,-0.23848 -7.011458,-0.25878 -2.102164,-0.0203 -5.608055,0.0136 -7.790867,0.0753 -2.182813,0.0617 -4.474766,0.26503 -5.093229,0.4518 -0.618464,0.18678 -1.12448,0.47659 -1.12448,0.64402 0,0.16744 0.15236,0.51279 0.338577,0.76746 l 0.338577,0.46303 1.28876,-0.55243 c 0.708817,-0.30383 2.105171,-0.69242 3.103009,-0.86353 l 1.814249,-0.31111 1.492096,0.31297 c 0.820653,0.17213 1.682955,0.47377 1.916227,0.67029 0.233272,0.19653 1.058292,0.49681 1.833378,0.66728 0.775086,0.17046 1.889987,0.30994 2.477558,0.30994 0.58757,0 2.275127,0.289 3.750127,0.64222 1.475,0.35322 3.098537,0.72639 3.60786,0.82926 0.509323,0.10287 1.994965,0.53057 3.301428,0.95045 1.306462,0.41988 2.526853,0.7053 2.711979,0.63426 0.185126,-0.071 0.336593,-0.49009 0.336593,-0.93122 v -0.80205 h 1.225061 1.22506 l 2.677544,1.30074 c 1.472649,0.7154 3.094262,1.4866 3.603585,1.71376 0.509323,0.22717 1.134401,0.41574 1.389063,0.41905 0.254661,0.003 0.46302,-0.0886 0.46302,-0.20419 z m 2.910417,-2.30332 c 0,-0.21828 -0.0014,-0.45698 -0.003,-0.53043 -0.0017,-0.0735 0.18514,-0.57947 0.415118,-1.12448 0.229977,-0.54501 0.576374,-2.18423 0.769771,-3.64272 0.230764,-1.74029 0.917567,-4.42318 1.998084,-7.80521 0.905549,-2.83438 2.94655,-9.02294 4.535557,-13.75237 1.589007,-4.72943 3.112176,-9.55798 3.384821,-10.73013 0.272644,-1.17214 0.863169,-3.39256 1.312278,-4.93427 0.449109,-1.54171 0.816561,-3.04206 0.816561,-3.33412 0,-0.32516 -0.487181,-0.8954 -1.256771,-1.47102 -0.691224,-0.517 -1.740709,-1.30736 -2.33219,-1.75635 -0.643781,-0.4887 -2.589817,-1.34117 -4.848525,-2.12393 -2.075209,-0.71918 -4.329708,-1.55891 -5.009998,-1.86608 -0.68029,-0.30717 -2.308454,-0.72022 -3.618141,-0.91789 -1.309688,-0.19768 -3.036094,-0.48639 -3.836459,-0.6416 -0.800364,-0.1552 -2.526771,-0.39845 -3.836458,-0.54054 -1.309688,-0.14208 -3.036094,-0.43004 -3.836459,-0.63989 -0.800364,-0.20986 -2.52677,-0.45014 -3.836458,-0.53396 -1.309688,-0.0838 -3.750469,-0.2787 -5.423959,-0.43307 l -3.042708,-0.28067 -1.04839,0.37442 -1.04839,0.37442 -0.335803,2.09349 c -0.184691,1.15141 -0.443389,2.62926 -0.574884,3.28411 -0.131495,0.65484 -0.502494,2.8575 -0.824442,4.89479 -0.37745,2.38851 -1.088483,5.30175 -2.001878,8.20208 -0.779085,2.47386 -2.090729,6.81964 -2.914764,9.65729 -0.824036,2.83766 -1.892487,6.58813 -2.374337,8.33438 -0.48185,1.74625 -1.04997,3.71078 -1.26249,4.36562 -0.21252,0.65485 -0.715469,2.38125 -1.117664,3.83646 -0.402195,1.45521 -0.950412,3.15897 -1.21826,3.78613 l -0.486996,1.1403 1.254149,-0.21426 c 0.689782,-0.11784 6.07618,-0.19984 11.969774,-0.18223 l 10.715625,0.032 3.108496,0.80152 c 1.709673,0.44084 3.555142,1.06522 4.101042,1.38752 0.5459,0.32229 2.004577,0.94322 3.241504,1.37984 1.236927,0.43661 3.141927,1.24279 4.233334,1.7915 1.091406,0.54872 2.282031,1.24537 2.645833,1.54813 0.363802,0.30275 0.869818,0.55442 1.124479,0.55926 0.254662,0.005 0.463021,-0.16979 0.463021,-0.38807 z m -11.90625,-14.41095 c -0.945886,-0.25991 -2.076761,-0.61463 -2.513058,-0.78828 -0.436296,-0.17365 -0.972077,-0.4698 -1.190625,-0.65811 -0.218547,-0.18831 -1.111734,-0.58389 -1.984859,-0.87908 -0.873125,-0.29518 -1.795859,-0.62181 -2.050521,-0.72584 -0.286034,-0.11685 -0.463021,-0.07 -0.463021,0.12264 0,0.17149 -0.170089,0.48188 -0.377976,0.68977 -0.207887,0.20788 -0.606998,0.37797 -0.886914,0.37797 -0.279916,0 -0.908447,-0.26923 -1.396735,-0.59828 -0.488288,-0.32906 -0.959618,-0.89461 -1.0474,-1.25677 l -0.159605,-0.65849 -0.887883,0.089 c -0.488336,0.0489 -1.537709,0.37635 -2.33194,0.7276 -0.794232,0.35125 -1.697134,0.63818 -2.006448,0.63764 -0.309315,-5.4e-4 -0.949344,-0.23692 -1.422287,-0.52528 -0.472942,-0.28836 -0.859895,-0.70262 -0.859895,-0.92059 0,-0.21797 0.621016,-0.711 1.380037,-1.09563 0.75902,-0.38462 2.39613,-0.98046 3.638021,-1.32408 1.241891,-0.34363 2.655923,-0.62625 3.142293,-0.62806 0.490577,-0.002 1.186459,0.23438 1.562927,0.53051 0.381995,0.30048 0.883257,0.46886 1.146791,0.38521 0.257494,-0.0817 0.913847,0.0376 1.458562,0.26522 0.544714,0.2276 1.143462,0.63236 1.330549,0.89946 0.219051,0.31274 0.812755,0.54162 1.667545,0.64286 0.730062,0.0865 1.658101,0.40147 2.062309,0.70002 0.511371,0.3777 1.24933,0.57185 2.426013,0.63825 l 1.691089,0.0954 0.436451,0.57862 c 0.28911,0.38328 0.590696,0.51942 0.893351,0.40328 0.251295,-0.0964 0.811949,-0.0283 1.245898,0.15149 0.55304,0.22907 0.788998,0.50929 0.788998,0.93697 0,0.34402 -0.304072,0.84934 -0.69714,1.15852 -0.466588,0.36702 -1.057217,0.54047 -1.785938,0.52449 -0.598838,-0.0131 -1.862704,-0.23653 -2.808589,-0.49644 z m 7.390998,-14.02637 c -0.894713,-0.11534 -2.21612,-0.58056 -3.367479,-1.18558 l -1.894936,-0.99576 -0.865854,0.13748 c -0.47622,0.0756 -1.383501,0.27076 -2.01618,0.43365 -0.632679,0.1629 -1.585179,0.21753 -2.116667,0.12139 -0.531487,-0.0961 -1.28785,-0.33747 -1.680806,-0.53631 -0.392955,-0.19883 -1.126501,-0.36151 -1.630102,-0.36151 -0.5036,0 -1.58435,-0.2559 -2.401665,-0.56867 -0.898344,-0.34378 -1.810477,-0.9382 -2.306434,-1.50306 l -0.820406,-0.93439 -1.261833,0.70931 c -0.694008,0.39012 -1.518089,0.70931 -1.831291,0.70931 -0.313201,0 -0.912294,-0.17729 -1.331317,-0.39397 -0.419024,-0.21669 -0.840701,-0.64238 -0.937061,-0.94598 -0.09636,-0.30361 -0.134564,-0.58165 -0.0849,-0.61788 0.04967,-0.0362 0.791361,-0.45428 1.648208,-0.929 0.973339,-0.53925 2.086654,-0.91769 2.96706,-1.00855 0.866446,-0.0894 1.722012,-0.0159 2.221489,0.19104 0.446782,0.18506 1.275844,0.86306 1.842359,1.50665 l 1.030029,1.17017 1.871309,0.11078 1.871309,0.11078 v -0.49718 c 0,-0.31978 0.29731,-0.60082 0.833232,-0.78764 0.458278,-0.15976 1.064976,-0.29047 1.348219,-0.29047 0.283242,0 0.857392,0.24381 1.275888,0.54181 0.418495,0.29799 1.408139,0.64715 2.199207,0.7759 0.791069,0.12875 1.941704,0.51001 2.556966,0.84725 0.615263,0.33724 1.370406,0.76697 1.678095,0.95495 0.36368,0.22219 1.068635,0.29429 2.014643,0.20605 0.800365,-0.0746 2.110053,-0.21039 2.910417,-0.30164 l 1.455209,-0.16592 0.727604,0.57438 0.727604,0.57438 v 0.92201 0.92201 l -1.389063,-0.0546 c -0.829101,-0.0326 -1.785609,0.12129 -2.372752,0.3817 -0.541029,0.23996 -1.07681,0.42067 -1.190625,0.40159 -0.113814,-0.0191 -0.86958,-0.12011 -1.679479,-0.2245 z m 2.134002,-13.21954 c -0.945885,-0.10595 -2.124701,-0.34916 -2.619589,-0.54049 l -0.899798,-0.34786 -1.216869,0.28667 c -0.669278,0.15767 -1.947612,0.35856 -2.840743,0.44644 l -1.623874,0.15976 -1.154251,-0.45346 c -0.634838,-0.24941 -1.451907,-0.67585 -1.81571,-0.94764 -0.363802,-0.2718 -1.337054,-1.0318 -2.162783,-1.68889 l -1.501326,-1.19471 -2.099808,-0.21169 c -1.327103,-0.13378 -2.564991,-0.444 -3.36393,-0.84301 -0.695268,-0.34723 -1.447814,-0.91168 -1.672325,-1.25433 -0.290725,-0.4437 -0.331858,-0.74403 -0.142925,-1.04355 0.145902,-0.2313 0.589302,-0.52856 0.985333,-0.66057 0.396031,-0.13201 0.985206,-0.17347 1.309279,-0.0921 0.324073,0.0813 0.8612,0.40127 1.193615,0.71096 0.41829,0.38969 1.190629,0.64262 2.508277,0.82141 1.047137,0.14208 2.516213,0.53572 3.264614,0.87476 0.748401,0.33904 1.633995,0.98604 1.967987,1.43779 0.333991,0.45175 0.724319,0.82136 0.867395,0.82136 0.143077,0 0.474248,0.19376 0.735938,0.43059 0.305812,0.27676 0.911442,0.42185 1.695183,0.40612 0.670662,-0.0135 1.894678,-0.15154 2.720035,-0.30684 l 1.50065,-0.28236 2.248958,0.43958 c 1.236928,0.24177 3.238171,0.47492 4.447208,0.51812 1.209037,0.0432 2.369896,0.22099 2.579687,0.3951 0.209792,0.17411 0.381439,0.60259 0.381439,0.95217 0,0.4472 -0.215686,0.72098 -0.727604,0.92358 -0.400183,0.15838 -1.203854,0.32121 -1.785938,0.36185 -0.582083,0.0406 -1.832239,-0.0128 -2.778125,-0.11873 z"
       id="path2" /></g></svg>
