<?xml version="1.0" encoding="UTF-8" standalone="no"?>
<!-- Created with Inkscape (http://www.inkscape.org/) -->

<svg
   width="470.03577mm"
   height="230.67209mm"
   viewBox="0 0 470.03575 230.67209"
   version="1.1"
   id="svg1"
   xml:space="preserve"
   sodipodi:docname="reverse_swiss_chees_model.svg"
   inkscape:export-filename="reverse_swiss_chees_model_1.png"
   inkscape:export-xdpi="96"
   inkscape:export-ydpi="96"
   xmlns:inkscape="http://www.inkscape.org/namespaces/inkscape"
   xmlns:sodipodi="http://sodipodi.sourceforge.net/DTD/sodipodi-0.dtd"
   xmlns="http://www.w3.org/2000/svg"
   xmlns:svg="http://www.w3.org/2000/svg"><sodipodi:namedview
     id="namedview1"
     pagecolor="#ffffff"
     bordercolor="#000000"
     borderopacity="0.25"
     inkscape:showpageshadow="2"
     inkscape:pageopacity="0.0"
     inkscape:pagecheckerboard="0"
     inkscape:deskcolor="#d1d1d1"
     inkscape:document-units="mm" /><defs
     id="defs1" /><path
     style="fill:#ddaabb;fill-opacity:1"
     d="m 399.99352,233.0243 c -0.34064,-0.1365 -0.84269,-0.51591 -1.11568,-0.84313 -0.27298,-0.32722 -0.5003,-0.72641 -0.50514,-0.88709 -0.005,-0.16068 -0.66071,-0.70588 -1.45748,-1.21154 -0.79677,-0.50567 -2.86351,-2.29061 -4.59275,-3.96652 -1.72924,-1.67592 -3.85863,-3.63104 -4.73198,-4.34471 -0.87335,-0.71367 -2.21704,-1.77384 -2.98597,-2.35592 -0.76894,-0.58209 -1.97483,-1.55958 -2.67977,-2.17221 -0.70494,-0.61263 -2.0137,-1.60007 -2.90835,-2.19431 -0.89465,-0.59425 -2.0509,-1.25772 -2.56945,-1.47438 -0.51856,-0.21666 -1.60367,-0.8912 -2.41137,-1.49896 -0.80771,-0.60777 -2.18901,-1.76477 -3.06956,-2.57113 -0.88055,-0.80635 -2.78555,-2.47813 -4.23333,-3.71505 -1.44778,-1.23693 -3.22764,-2.84598 -3.95525,-3.57567 -0.7276,-0.72969 -2.03729,-2.26591 -2.91041,-3.41382 -0.87313,-1.14791 -2.8183,-3.22979 -4.3226,-4.62641 -1.5043,-1.39662 -3.34977,-3.29679 -4.10104,-4.2226 -0.75127,-0.92581 -1.7256,-2.17596 -2.16518,-2.77812 -0.43957,-0.60216 -1.11568,-1.40835 -1.50245,-1.79152 -0.38677,-0.38317 -1.1164,-1.51426 -1.62139,-2.51354 -0.50499,-0.99928 -1.24016,-2.11452 -1.6337,-2.47832 -0.39355,-0.3638 -1.24742,-1.58067 -1.8975,-2.70414 -0.65007,-1.12348 -1.53989,-2.34387 -1.97737,-2.71198 -0.43748,-0.36812 -0.90534,-0.6693 -1.0397,-0.6693 -0.13435,0 -0.24428,-0.2899 -0.24428,-0.64423 0,-0.35433 0.12699,-0.97941 0.28221,-1.38907 0.15521,-0.40965 0.50385,-0.98295 0.77475,-1.27399 l 0.49255,-0.52917 0.14992,-4.23333 c 0.0824,-2.32833 0.23983,-6.31693 0.34972,-8.86354 0.10989,-2.54662 0.19596,-5.58271 0.19126,-6.74688 -0.005,-1.16416 -0.20575,-4.14073 -0.44678,-6.61458 -0.24103,-2.47385 -0.52477,-6.46245 -0.63052,-8.86354 -0.10576,-2.4011 -0.21471,-4.72281 -0.24212,-5.15938 -0.0274,-0.43656 -0.13676,-2.2225 -0.24302,-3.96875 -0.10627,-1.74625 -0.30538,-3.61597 -0.44249,-4.15493 -0.1371,-0.53896 -0.29631,-6.31349 -0.35379,-12.83229 -0.0575,-6.52043 0.008,-12.804565 0.14502,-13.969025 0.13724,-1.16416 0.24623,-5.17124 0.24219,-8.9046 -0.005,-4.39845 0.12718,-7.84458 0.3748,-9.78959 0.21018,-1.6509 0.45054,-5.20429 0.53414,-7.89643 0.0983,-3.16455 0.37444,-6.29769 0.78127,-8.86354 l 0.62929,-3.96875 0.0209,-7.27604 c 0.0115,-4.00183 -0.0771,-7.97839 -0.19693,-8.8368 l -0.21779,-1.56076 0.68867,-0.76404 c 0.44517,-0.49389 1.19607,-0.89675 2.12372,-1.1394 l 1.43505,-0.37537 1.87224,0.53984 c 1.02973,0.29691 2.34849,0.65212 2.93057,0.78935 0.58208,0.13724 1.5323,0.43481 2.11159,0.66127 0.57928,0.22645 1.59131,0.80559 2.24895,1.28697 0.65764,0.48138 2.62446,1.59401 4.37071,2.47253 1.74625,0.87851 3.54138,1.87361 3.98919,2.21133 0.4478,0.33772 1.65395,1.56654 2.68033,2.7307 1.02638,1.16417 2.79701,2.89057 3.93473,3.83646 1.13772,0.94589 2.41957,2.07698 2.84855,2.51354 0.42898,0.43656 1.40431,1.57471 2.1674,2.52923 0.76309,0.95451 1.81887,2.38326 2.34617,3.175 0.5273,0.79173 1.34402,1.9362 1.81493,2.54325 0.47091,0.60705 1.54933,1.67861 2.39648,2.38125 0.84715,0.70264 2.06678,2.01217 2.71029,2.91007 0.65485,0.91372 2.13187,2.39765 3.35451,3.3702 1.20148,0.95571 2.77981,2.46807 3.50742,3.36079 0.7276,0.89272 2.57307,2.77909 4.10104,4.19194 1.52797,1.41285 3.19484,2.96304 3.70417,3.44488 0.50932,0.48185 2.47385,1.8941 4.36562,3.13834 1.89177,1.24425 4.20548,2.84585 5.14157,3.55911 0.93609,0.71326 1.98287,1.40363 2.32617,1.53415 0.34331,0.13053 1.33074,0.71713 2.19429,1.30355 0.86355,0.58643 1.71044,1.32847 1.88198,1.649 0.17154,0.32052 0.91237,1.21768 1.64629,1.9937 0.73392,0.77601 1.48747,1.85072 1.67455,2.38824 0.1888,0.54246 0.26864,1.38933 0.17944,1.90334 -0.0884,0.50933 -0.40306,1.192 -0.69927,1.51706 -0.29621,0.32506 -0.76355,1.456145 -1.03855,2.513535 -0.27499,1.05739 -0.68001,3.11315 -0.90004,4.56836 -0.22003,1.45521 -0.50828,3.77693 -0.64055,5.15938 -0.13228,1.38244 -0.23423,5.43057 -0.22655,8.99583 0.008,3.56526 0.02,6.60135 0.0273,6.74687 0.007,0.14552 -0.0681,3.7174 -0.16779,7.9375 -0.0997,4.22011 -0.36088,9.33979 -0.58049,11.37709 -0.2196,2.03729 -0.8579,6.02588 -1.41844,8.86354 -0.56053,2.83765 -1.15181,6.52859 -1.31395,8.20208 -0.16213,1.67349 -0.47023,5.00724 -0.68464,7.40833 -0.21442,2.4011 -0.50893,5.05024 -0.65446,5.88698 -0.14554,0.83675 -0.40106,2.20597 -0.56782,3.04271 -0.16704,0.83811 -0.32972,4.49201 -0.36224,8.13594 -0.0396,4.43846 -0.19574,7.48503 -0.47459,9.26042 -0.22857,1.4552 -0.55125,4.55083 -0.71709,6.87916 -0.16584,2.32834 -0.53623,5.18583 -0.82311,6.35 -0.33107,1.34351 -0.61099,3.80796 -0.76635,6.74688 -0.13462,2.54661 -0.35309,5.20518 -0.48551,5.90792 -0.13241,0.70274 -0.18273,1.49955 -0.11183,1.77069 0.0709,0.27114 -0.009,1.54164 -0.17853,2.82333 l -0.30746,2.33035 -0.97157,1.00021 c -0.62051,0.63879 -1.44472,1.14072 -2.28099,1.38906 -0.72017,0.21387 -1.31756,0.38131 -1.32753,0.37208 -0.01,-0.009 -0.29682,-0.12845 -0.63746,-0.26494 z m 0.42017,-6.92818 c 0.14437,-0.1819 0.39351,-0.74745 0.55364,-1.25677 0.16013,-0.50933 0.34671,-1.64042 0.41463,-2.51355 0.0679,-0.87312 0.24348,-3.10784 0.39014,-4.96603 0.14667,-1.8582 0.52556,-4.29898 0.84199,-5.42396 l 0.57533,-2.04542 0.21047,-5.15938 c 0.12884,-3.15823 0.38539,-5.92904 0.66143,-7.14375 l 0.45095,-1.98437 -0.0181,-4.88105 c -0.0111,-2.9956 0.13658,-6.01058 0.38228,-7.80521 0.22019,-1.60828 0.62938,-4.7101 0.90932,-6.89291 0.27995,-2.18281 0.51116,-4.62359 0.51382,-5.42396 0.003,-0.80036 0.1151,-2.12834 0.24987,-2.95106 0.13476,-0.82273 0.27129,-2.39538 0.30339,-3.49479 0.0321,-1.09941 0.28247,-3.16349 0.55638,-4.58684 0.27391,-1.42335 0.67093,-3.25522 0.88227,-4.07082 0.21135,-0.8156 0.55508,-2.37566 0.76385,-3.4668 0.20877,-1.09114 0.50707,-4.29459 0.6629,-7.11877 0.15583,-2.82418 0.39635,-7.69472 0.5345,-10.82342 0.13816,-3.12869 0.19408,-8.54604 0.12428,-12.03854 -0.0929,-4.64823 -0.0189,-7.3427 0.27626,-10.05416 0.22174,-2.03729 0.60496,-5.31151 0.85159,-7.27604 0.24663,-1.96454 0.44268,-4.22672 0.43566,-5.027085 -0.007,-0.80036 -0.18707,-2.22918 -0.4001,-3.17516 -0.21303,-0.94597 -0.52933,-1.98527 -0.70288,-2.30955 -0.17354,-0.32427 -1.03108,-1.07551 -1.90563,-1.6694 -0.87454,-0.59389 -1.97302,-1.41524 -2.44106,-1.82521 -0.46803,-0.40997 -1.92253,-1.47967 -3.23222,-2.37712 -1.30969,-0.89745 -3.6314,-2.46107 -5.15937,-3.47472 l -2.77813,-1.84299 -4.56406,-4.5291 c -2.51023,-2.49101 -4.56406,-4.61187 -4.56406,-4.71304 0,-0.10117 -0.98227,-1.02379 -2.18282,-2.05026 -1.20054,-1.02648 -3.07578,-2.90801 -4.16718,-4.18117 -1.09141,-1.27316 -2.6514,-3.04396 -3.46665,-3.93512 -0.81524,-0.89115 -2.52437,-3.03021 -3.79807,-4.75346 -1.27369,-1.72325 -2.80932,-3.63018 -3.41252,-4.23763 -0.6032,-0.60746 -2.04922,-2.00714 -3.21339,-3.11042 -1.16416,-1.10328 -2.89057,-2.83289 -3.83646,-3.84358 l -1.71979,-1.83763 -2.91041,-1.54597 c -1.60073,-0.85028 -3.31767,-1.84895 -3.81542,-2.21925 -0.49775,-0.37031 -1.56931,-0.94658 -2.38125,-1.2806 -0.81194,-0.33402 -1.89998,-0.61013 -2.41787,-0.61359 -0.51789,-0.003 -1.14416,0.14255 -1.39171,0.32445 l -0.4501,0.33073 -0.27611,4.23334 c -0.15187,2.32833 -0.20192,5.54302 -0.11123,7.14375 l 0.16489,2.91041 -0.65352,3.57188 c -0.35944,1.96453 -0.72298,4.28625 -0.80787,5.15937 -0.0849,0.87313 -0.16974,2.83766 -0.18855,4.36563 -0.0188,1.52797 -0.21425,4.20687 -0.43432,5.95312 -0.2612,2.07258 -0.4271,6.11478 -0.4778,11.64167 -0.0427,4.65666 -0.16023,9.06198 -0.26116,9.78958 -0.10093,0.7276 -0.16391,3.5851 -0.13996,6.349995 0.0239,2.7649 0.0833,8.24177 0.13185,12.17083 0.0486,3.92907 0.21789,8.15578 0.37625,9.39271 0.15837,1.23693 0.40957,3.91584 0.55822,5.95313 0.14865,2.03729 0.33335,5.37104 0.41043,7.40833 0.0771,2.03729 0.32311,5.6687 0.54673,8.06979 l 0.40656,4.36563 -0.29059,10.58333 c -0.15983,5.82083 -0.34772,10.84978 -0.41754,11.17545 -0.0698,0.32566 -0.0132,0.80191 0.12589,1.05833 0.13906,0.25642 0.3157,0.7692 0.39252,1.13951 0.0768,0.37031 0.61715,1.38234 1.20073,2.24896 0.58357,0.86662 1.5885,2.33161 2.23318,3.25555 0.64468,0.92394 1.50546,2.02779 1.91284,2.45301 0.40738,0.42521 1.10296,1.41638 1.54572,2.20259 0.44276,0.78622 1.25032,2.09384 1.79457,2.90582 0.54425,0.81199 2.17396,2.66907 3.62158,4.12684 1.44761,1.45778 3.91935,4.10646 5.49274,5.88597 1.57339,1.77951 3.45603,3.83581 4.18363,4.56956 0.7276,0.73375 1.96768,1.86485 2.75572,2.51354 0.78805,0.6487 2.27633,1.89992 3.3073,2.78049 1.03096,0.88057 2.41026,1.96309 3.06511,2.4056 0.65484,0.44251 1.66687,1.11983 2.24895,1.50516 0.58209,0.38532 2.07037,1.41387 3.30729,2.28564 1.23693,0.87178 2.67507,1.87364 3.19586,2.22635 0.52079,0.35271 1.53282,1.14471 2.24896,1.75999 0.71613,0.61529 2.1355,1.86675 3.15414,2.78102 1.01865,0.91428 3.25312,2.92255 4.9655,4.46282 1.71238,1.54028 3.27538,2.80051 3.47334,2.80051 0.19795,0 0.47803,-0.14883 0.62241,-0.33073 z M 385.4851,203.86021 c -0.60767,-0.32142 -1.76123,-1.02475 -2.56348,-1.56294 l -1.45864,-0.97853 -0.26164,-0.94759 c -0.14391,-0.52118 -0.69425,-1.54974 -1.22298,-2.28571 -0.52874,-0.73596 -1.4305,-2.6478 -2.00392,-4.24852 l -1.04258,-2.91042 -0.0798,-4.93785 c -0.0489,-3.0272 0.0273,-5.19379 0.19694,-5.5993 0.15222,-0.3638 0.4946,-0.89959 0.76085,-1.19063 0.26625,-0.29104 0.95171,-1.22734 1.52325,-2.08067 0.57154,-0.85333 1.03917,-1.69425 1.03917,-1.86873 0,-0.17447 0.32742,-0.6295 0.7276,-1.01117 0.40019,-0.38167 1.27541,-0.92789 1.94494,-1.21382 l 1.21733,-0.51987 1.88376,0.20679 c 1.03606,0.11373 2.33373,0.43984 2.88371,0.72468 0.54997,0.28484 1.59526,0.85356 2.32286,1.26381 0.72761,0.41025 1.59215,0.98728 1.9212,1.2823 0.32906,0.29501 0.71924,1.02039 0.86707,1.61195 0.14784,0.59156 0.59298,2.02807 0.98922,3.19223 l 0.72043,2.11667 v 4.89479 4.89479 l -0.6371,2.38125 c -0.3504,1.30969 -1.03792,3.23099 -1.5278,4.26956 -0.48989,1.03857 -1.36766,2.43015 -1.9506,3.09241 l -1.0599,1.2041 -1.42177,0.41332 c -0.78198,0.22733 -1.70111,0.40841 -2.04251,0.40241 -0.3414,-0.006 -1.11791,-0.27388 -1.72558,-0.59531 z m 3.68204,-4.63944 c 0.65692,-0.7023 1.26429,-1.50597 1.34971,-1.78594 0.0854,-0.27996 0.40371,-1.63617 0.7073,-3.01378 0.30358,-1.37762 0.6035,-3.43696 0.66649,-4.57632 0.063,-1.13936 -0.008,-2.98879 -0.15686,-4.10983 -0.14927,-1.12104 -0.52372,-2.93123 -0.83212,-4.02264 -0.3084,-1.0914 -0.80939,-2.2642 -1.11331,-2.6062 -0.30392,-0.34201 -1.21925,-0.95975 -2.03408,-1.37276 l -1.48151,-0.75093 -1.48845,0.46053 c -0.81864,0.2533 -1.80515,0.75198 -2.19224,1.10818 -0.38709,0.3562 -0.96979,1.24295 -1.29488,1.97056 l -0.59108,1.32292 -0.0163,3.55584 c -0.011,2.39211 0.11771,4.08063 0.39325,5.15937 0.22527,0.88195 0.76607,2.31791 1.20178,3.19104 0.4357,0.87312 1.20833,2.30187 1.71695,3.175 0.50862,0.87312 1.41809,2.03366 2.02106,2.57897 0.60296,0.54531 1.28837,0.99179 1.52311,0.99218 0.23475,4e-4 0.9643,-0.57389 1.62122,-1.27619 z m 0.94137,-72.57019 c -0.47608,-0.18101 -1.03812,-0.84997 -1.68303,-2.00317 -0.53254,-0.95227 -1.4164,-2.17955 -1.96413,-2.72728 -0.54774,-0.54774 -1.10643,-1.04053 -1.24154,-1.0951 -0.13512,-0.0546 -0.50367,-0.93266 -0.81902,-1.95131 -0.31535,-1.01864 -0.815,-2.89849 -1.11033,-4.17743 -0.29546,-1.27948 -0.53544,-3.243 -0.53356,-4.36562 0.002,-1.2706 0.19684,-2.65723 0.51615,-3.6757 0.28201,-0.89948 0.86576,-2.32823 1.29721,-3.175 0.43145,-0.84677 1.37586,-2.19442 2.09868,-2.99479 0.72282,-0.800355 1.97255,-1.850345 2.77718,-2.333305 1.00249,-0.60172 2.03858,-0.96354 3.29176,-1.14954 l 1.82881,-0.27143 1.88323,0.56085 c 1.20184,0.35792 2.35717,0.93548 3.19314,1.59627 l 1.30991,1.03543 0.95645,2.015025 c 0.52605,1.10827 1.21567,2.7527 1.53248,3.6543 l 0.57603,1.63928 0.10963,3.20559 c 0.0603,1.76308 -0.014,4.02526 -0.16519,5.02708 l -0.27483,1.82149 -1.65277,3.23932 -1.65277,3.23932 -0.98188,0.68044 c -0.54003,0.37424 -1.97636,1.04519 -3.19186,1.49099 -1.27162,0.4664 -2.88404,0.84782 -3.79748,0.89831 -0.87313,0.0483 -1.90915,-0.0345 -2.30227,-0.18402 z m 5.14855,-4.09177 c 0.67141,-0.22877 1.52735,-0.72255 1.90208,-1.09727 0.37472,-0.37473 1.02296,-1.28888 1.44052,-2.03145 0.41755,-0.74256 0.89558,-1.94543 1.06227,-2.67303 0.16669,-0.72761 0.33906,-2.33495 0.38303,-3.57188 0.044,-1.23692 -0.006,-2.98459 -0.1111,-3.8837 -0.12083,-1.03385 -0.60335,-2.54131 -1.3127,-4.10104 -0.6169,-1.35647 -1.48945,-2.85651 -1.939,-3.33345 -0.49248,-0.52246 -1.33636,-1.02127 -2.12306,-1.25489 l -1.3057,-0.38775 -0.97811,0.29305 c -0.56993,0.17076 -1.66557,0.94926 -2.62546,1.86552 -1.08874,1.03926 -1.86816,2.07179 -2.29854,3.04495 -0.35816,0.80987 -0.77992,2.38265 -0.93724,3.49509 l -0.28603,2.02261 0.59303,2.36717 c 0.32617,1.30195 0.78134,2.76207 1.0115,3.24472 0.23016,0.48265 0.67798,0.94268 0.99515,1.02228 0.31717,0.0796 0.92864,0.52238 1.35882,0.98394 0.43018,0.46157 1.03983,1.2925 1.35477,1.84652 0.31493,0.55402 0.57261,1.1753 0.57261,1.38061 0,0.20532 0.32742,0.55093 0.7276,0.76804 0.40019,0.2171 0.85523,0.3995 1.01121,0.40532 0.15597,0.006 0.83293,-0.17658 1.50435,-0.40536 z M 360.79307,93.384065 c -0.84631,-0.10173 -1.97491,-0.48042 -2.69724,-0.90504 -0.68312,-0.40156 -1.89283,-1.38092 -2.68825,-2.17634 l -1.44623,-1.44623 -0.54118,-1.66011 c -0.29764,-0.91306 -0.72504,-3.10911 -0.94976,-4.88011 -0.22473,-1.771 -0.40589,-3.676 -0.40258,-4.23333 0.003,-0.55734 0.34092,-2.404 0.75025,-4.1037 0.50122,-2.08126 1.03922,-3.58275 1.64763,-4.59827 0.49687,-0.82935 1.37965,-2.00161 1.96173,-2.60502 l 1.05834,-1.09711 2.26227,-0.85306 c 1.24425,-0.46918 2.673,-0.85216 3.175,-0.85106 0.502,10e-4 1.68663,0.12598 2.63252,0.27751 1.18371,0.18963 1.99748,0.49849 2.61064,0.99087 0.56554,0.45414 1.40669,1.72959 2.30349,3.49281 0.77695,1.52759 1.48905,3.31322 1.58245,3.96806 0.0934,0.65485 0.40426,2.13472 0.69082,3.28862 0.28656,1.15389 0.71633,2.46358 0.95503,2.91042 l 0.43402,0.81242 0.008,2.77813 0.008,2.77812 -0.8998,2.57181 c -0.49488,1.4145 -1.23486,2.97831 -1.64439,3.47514 l -0.74459,0.90333 -2.05648,0.54751 c -1.13106,0.30113 -3.0685,0.60197 -4.30543,0.66853 -1.23693,0.0666 -2.9038,0.0423 -3.70417,-0.0539 z m 6.71851,-2.82503 c 0.46495,-0.22063 1.06513,-0.77318 1.33374,-1.2279 0.2686,-0.45471 0.7068,-1.79224 0.97377,-2.97228 0.26696,-1.18005 0.48845,-2.70334 0.49218,-3.38509 0.004,-0.68175 -0.1275,-1.57472 -0.29164,-1.98437 -0.16414,-0.40966 -0.3979,-1.16155 -0.51946,-1.67087 -0.12157,-0.50933 -0.40427,-1.80464 -0.62822,-2.87847 -0.22395,-1.07383 -0.83199,-2.9193 -1.3512,-4.10104 -0.51922,-1.18174 -1.08102,-2.42805 -1.24846,-2.76958 -0.16744,-0.34153 -0.6445,-0.90712 -1.06014,-1.25685 -0.41563,-0.34974 -1.05496,-0.711 -1.42073,-0.8028 -0.36577,-0.0918 -1.16027,-0.0191 -1.76555,0.16154 -0.60528,0.18065 -1.61271,0.62792 -2.23872,0.99393 l -1.13822,0.66548 -1.00812,2.01733 c -0.61616,1.23299 -1.18424,2.91492 -1.46111,4.32594 -0.24914,1.26973 -0.39546,2.40168 -0.32515,2.51543 0.0703,0.11376 0.26401,1.81109 0.43044,3.77185 l 0.30262,3.56501 0.8916,0.73493 c 0.49038,0.40422 0.96711,1.07871 1.05939,1.49889 0.0923,0.42017 0.36941,0.94075 0.61582,1.15683 0.24641,0.21608 1.28146,0.76062 2.30011,1.21009 l 1.85208,0.81722 1.67981,0.008 c 0.96921,0.005 2.03741,-0.16173 2.52516,-0.39319 z M 297.777,209.68728 c -1.26181,-1.3435 -2.54328,-2.76112 -2.8477,-3.15028 -0.30443,-0.38915 -1.35564,-1.3365 -2.33601,-2.10522 -0.98038,-0.76872 -3.80657,-3.31317 -6.28043,-5.65434 -2.47385,-2.34116 -4.81851,-4.50121 -5.21035,-4.80009 -0.39185,-0.29889 -1.51365,-1.24604 -2.4929,-2.10478 -0.97925,-0.85874 -3.69474,-3.39181 -6.03443,-5.62905 -2.33969,-2.23723 -5.14695,-4.73292 -6.23836,-5.54598 -1.0914,-0.81306 -2.99706,-2.43541 -4.23479,-3.60522 -1.23773,-1.16981 -3.32133,-3.01498 -4.63021,-4.10037 -1.30889,-1.08538 -3.03936,-2.57367 -3.8455,-3.30729 -0.80614,-0.73362 -2.2314,-1.9887 -3.16725,-2.78906 -0.93584,-0.80037 -2.06221,-1.81587 -2.50304,-2.25667 -0.44082,-0.4408 -1.48571,-1.63143 -2.32196,-2.64583 -0.83625,-1.01441 -2.4436,-2.86273 -3.57187,-4.10739 -1.12828,-1.24466 -2.55718,-2.61388 -3.17532,-3.04271 -0.61815,-0.42883 -1.12416,-0.86485 -1.12448,-0.96892 -3.2e-4,-0.10408 -0.36412,-0.60329 -0.80845,-1.10935 -0.59179,-0.67402 -1.06267,-0.94186 -1.76048,-1.0014 l -0.95261,-0.0813 -0.47021,-1.44732 c -0.25862,-0.79602 -0.41537,-1.74852 -0.34835,-2.11667 0.067,-0.36814 0.2344,-2.51482 0.37193,-4.77039 0.13753,-2.25557 0.35682,-4.63682 0.48731,-5.29167 0.13048,-0.65484 0.44659,-2.44078 0.70245,-3.96875 0.31137,-1.85942 0.47199,-4.30928 0.48574,-7.40833 0.0113,-2.54661 -0.18538,-7.48771 -0.43704,-10.98021 -0.25166,-3.4925 -0.62822,-7.83828 -0.8368,-9.65729 -0.20858,-1.81901 -0.38454,-4.47626 -0.39102,-5.905 -0.007,-1.428735 0.16802,-3.929045 0.38779,-5.556245 0.21977,-1.6272 0.52627,-3.7512 0.68111,-4.72 0.15484,-0.96881 0.27913,-3.90039 0.27619,-6.51463 -0.003,-2.61424 0.17039,-6.70314 0.38517,-9.08645 0.21478,-2.38331 0.50655,-5.82157 0.64838,-7.64058 0.14184,-1.81901 0.37457,-4.0812 0.51718,-5.02709 0.14262,-0.94588 0.37348,-2.91041 0.51302,-4.36562 0.13954,-1.45521 0.32795,-4.19365 0.41868,-6.08542 0.0907,-1.89177 0.33258,-4.74927 0.53743,-6.35 0.20486,-1.60073 0.62087,-4.2201 0.92448,-5.82083 0.3036,-1.60073 0.65583,-3.56526 0.78273,-4.36563 0.12689,-0.80036 0.3616,-2.11005 0.52157,-2.91041 0.15997,-0.80037 0.40848,-3.06255 0.55225,-5.02709 0.14377,-1.96453 0.36603,-4.32432 0.4939,-5.24398 0.14808,-1.06497 0.50988,-2.12173 0.99645,-2.91042 0.42801,-0.69378 1.32362,-1.60565 2.0367,-2.07369 0.70001,-0.45946 1.668,-1.42231 2.1511,-2.13966 l 0.87835,-1.30428 1.51004,-0.47497 1.51005,-0.47497 1.82887,0.16998 c 1.26892,0.11793 2.14462,0.3693 2.86015,0.82099 0.56721,0.35806 1.12843,0.81845 1.24718,1.02309 0.11874,0.20463 1.04933,0.94604 2.06797,1.64756 1.01865,0.70152 2.43069,1.78788 3.13788,2.41412 0.70718,0.62625 1.6144,1.59226 2.01603,2.14669 0.40163,0.55444 2.47216,2.77381 4.60118,4.93195 2.12903,2.15813 3.87095,4.02113 3.87095,4.13998 0,0.11886 1.43783,1.3819 3.19517,2.80675 1.75735,1.42486 3.99824,3.12644 4.97977,3.78128 0.98153,0.65484 2.84886,2.08359 4.14962,3.175 1.30076,1.09141 2.95499,2.4598 3.67605,3.04087 0.72107,0.58107 5.12899,4.86732 9.79537,9.525 4.74586,4.73701 8.79298,8.9998 9.18481,9.67426 0.38526,0.66317 1.07895,2.38957 1.54153,3.83646 0.46258,1.44689 1.03562,3.101 1.27342,3.67582 0.2378,0.57481 0.39554,1.26244 0.35054,1.52806 -0.045,0.26562 0.46196,1.48053 1.12658,2.69978 0.66462,1.21925 1.20839,2.56833 1.20839,2.99795 0,0.47826 -0.34361,1.23186 -0.88624,1.94365 l -0.88625,1.16252 0.0925,4.63021 c 0.0509,2.54662 0.22491,5.82084 0.38672,7.27604 0.1618,1.45521 0.32875,5.56287 0.37099,9.128125 0.046,3.87917 0.21582,7.22604 0.42299,8.33437 0.24758,1.32453 0.33127,4.26378 0.2938,10.31875 -0.0288,4.65667 -0.17123,9.06198 -0.31647,9.78959 -0.14524,0.7276 -0.31727,3.28744 -0.38228,5.68854 -0.065,2.40109 -0.2992,5.74401 -0.52041,7.4287 -0.2212,1.68468 -0.52541,6.20906 -0.67602,10.05416 -0.15061,3.8451 -0.33397,8.12886 -0.40748,9.51945 -0.0735,1.3906 -0.49545,4.30763 -0.93767,6.48229 -0.44222,2.17467 -0.92023,5.50175 -1.06224,7.39352 -0.14201,1.89177 -0.40164,4.33255 -0.57695,5.42396 -0.17531,1.09141 -0.32767,4.1275 -0.33858,6.74688 -0.0114,2.7495 -0.14583,5.15391 -0.31794,5.68854 -0.16396,0.50932 -0.38582,2.59291 -0.49302,4.63021 -0.10719,2.03729 -0.19118,4.5376 -0.18664,5.55625 0.005,1.01864 0.0293,2.0902 0.0551,2.38125 0.0258,0.29104 -0.0494,1.12447 -0.16699,1.85208 -0.11761,0.7276 -0.51149,1.82625 -0.87529,2.44145 -0.36381,0.61519 -0.95912,1.22366 -1.32292,1.35215 -0.3638,0.12849 -1.08663,0.36929 -1.60629,0.53511 -0.51965,0.16582 -1.23402,0.2994 -1.5875,0.29683 -0.46543,-0.003 -1.27538,-0.67834 -2.93687,-2.4474 z m 3.43717,-5.55158 c -0.0127,-0.61846 0.15926,-1.71979 0.38202,-2.44739 0.22276,-0.72761 0.4402,-1.44198 0.48322,-1.5875 0.043,-0.14553 -0.0123,-1.16485 -0.12301,-2.26518 l -0.2012,-2.00058 0.55749,-1.439 0.55749,-1.43899 -0.17577,-3.98282 -0.17578,-3.98281 0.44309,-1.9481 c 0.24369,-1.07145 0.54706,-3.86309 0.67414,-6.20364 0.12784,-2.35448 0.41729,-4.90563 0.64794,-5.71076 0.22929,-0.80036 0.65773,-2.42941 0.95208,-3.6201 l 0.53519,-2.16489 0.12911,-5.77261 c 0.071,-3.17493 0.2398,-8.21339 0.37508,-11.19657 0.13528,-2.98317 0.37642,-6.0788 0.53585,-6.87916 0.15944,-0.80037 0.29109,-3.35648 0.29256,-5.68026 0.002,-2.32377 0.13392,-4.76456 0.29433,-5.42396 0.16042,-0.6594 0.35537,-3.81828 0.43323,-7.01974 0.0779,-3.20146 0.12501,-7.12681 0.10476,-8.72301 -0.0202,-1.5962 -0.17086,-3.73933 -0.3347,-4.7625 -0.16384,-1.02318 -0.26975,-3.40814 -0.23535,-5.29991 0.0344,-1.89177 0.0413,-4.689735 0.0155,-6.217695 -0.0259,-1.52797 -0.15939,-3.73063 -0.29664,-4.8948 -0.13725,-1.16416 -0.37381,-4.67651 -0.5257,-7.8052 -0.15188,-3.1287 -0.33383,-6.12307 -0.40432,-6.65415 -0.0705,-0.53108 -0.44646,-1.57911 -0.8355,-2.32896 l -0.70734,-1.36337 -0.19887,-2.43353 c -0.10938,-1.33844 -0.32736,-3.07486 -0.48441,-3.85871 -0.15705,-0.78385 -0.29092,-2.034 -0.2975,-2.77813 -0.008,-0.86712 -0.22143,-1.74737 -0.59531,-2.45136 -0.32085,-0.60413 -1.41679,-2.01603 -2.43544,-3.13756 -1.01864,-1.12153 -3.81661,-4.07432 -6.21771,-6.56177 -2.40109,-2.48745 -5.30069,-5.45411 -6.44355,-6.59257 -1.14286,-1.13847 -3.49482,-3.22779 -5.22657,-4.64294 -1.73175,-1.41515 -3.71371,-3.02384 -4.40436,-3.57486 -0.69065,-0.55103 -1.9439,-1.47712 -2.78501,-2.05798 -0.8411,-0.58086 -2.38211,-1.73736 -3.42446,-2.57 -1.04235,-0.83265 -2.79495,-2.4527 -3.89468,-3.60011 -1.09972,-1.14741 -3.7259,-3.84556 -5.83595,-5.99588 -2.11005,-2.15033 -4.55083,-4.66673 -5.42396,-5.59201 -0.94826,-1.0049 -2.24291,-2.02712 -3.21516,-2.53859 -0.90527,-0.47624 -1.81425,-0.78467 -2.04808,-0.69494 -0.23123,0.0887 -0.82403,0.71455 -1.31735,1.39073 -0.49331,0.67617 -1.16212,1.85031 -1.48625,2.6092 -0.40078,0.93837 -0.87151,1.5463 -1.47139,1.90024 -0.6411,0.37825 -0.91953,0.76028 -1.01914,1.39832 -0.0754,0.48284 -0.50488,3.79492 -0.95443,7.36018 -0.44956,3.56526 -0.98746,7.31573 -1.19533,8.33437 -0.20787,1.01865 -0.58026,2.86412 -0.82753,4.10104 -0.29376,1.46947 -0.46062,3.67039 -0.48141,6.35 -0.0178,2.2978 -0.18185,4.74091 -0.37302,5.55625 -0.18765,0.80037 -0.4558,1.90537 -0.59588,2.45556 -0.14009,0.55019 -0.3666,3.34816 -0.50337,6.21771 -0.16378,3.43615 -0.40289,5.75933 -0.70039,6.80486 l -0.45172,1.5875 -0.0404,7.27604 c -0.0222,4.00182 -0.17481,8.42039 -0.3391,9.81904 -0.16429,1.39864 -0.35742,2.70833 -0.42919,2.91041 -0.0718,0.20208 -0.26629,2.0343 -0.43229,4.07159 -0.166,2.03729 -0.28229,4.835255 -0.25842,6.217705 0.0239,1.38245 0.21865,3.47257 0.43285,4.64471 0.2142,1.17214 0.52058,4.62496 0.68084,7.67292 0.16025,3.04796 0.34585,6.85143 0.41243,8.45216 0.0666,1.60073 -0.016,4.63682 -0.18361,6.74688 -0.16757,2.11005 -0.48565,4.78895 -0.70685,5.95312 -0.2212,1.16417 -0.50624,2.83104 -0.63342,3.70417 -0.12718,0.87312 -0.29591,2.48047 -0.37496,3.57187 -0.079,1.09141 -0.21149,2.42191 -0.29432,2.95667 l -0.15061,0.97229 0.48291,0.42132 c 0.26561,0.23172 0.89964,0.75586 1.40896,1.16475 0.50932,0.40889 1.61947,1.19818 2.467,1.75398 1.11211,0.72932 1.76342,1.40474 2.34036,2.42702 0.43967,0.77906 0.89128,1.41647 1.00357,1.41647 0.11229,0 0.50207,0.44649 0.86616,0.99219 0.3641,0.5457 2.00305,2.48047 3.64212,4.29948 1.63906,1.81901 3.58941,3.91435 4.3341,4.65632 0.74469,0.74196 2.84226,2.58007 4.66127,4.08468 1.81901,1.5046 4.52009,3.81457 6.00239,5.13326 1.48231,1.31869 3.26824,2.88632 3.96875,3.48362 0.70051,0.5973 2.10709,1.70885 3.12574,2.47011 1.01864,0.76125 2.92747,2.4752 4.24184,3.80878 1.31437,1.33358 4.10915,3.91297 6.21064,5.73198 2.10148,1.81901 5.01468,4.45023 6.47378,5.84716 1.4591,1.39692 3.18869,3.00962 3.84353,3.58376 0.65484,0.57414 1.60734,1.37911 2.11667,1.78881 0.50932,0.40971 1.46182,1.25902 2.11666,1.88735 0.65485,0.62834 1.5943,1.5677 2.08768,2.08747 0.49338,0.51977 1.11292,0.94503 1.37674,0.94503 h 0.47969 z m -14.22992,-28.39778 c -0.50386,-0.21856 -1.71536,-1.13664 -2.69221,-2.04017 -0.97685,-0.90353 -2.18849,-1.97038 -2.69254,-2.37079 -0.57328,-0.4554 -0.97915,-1.04984 -1.08391,-1.5875 -0.0921,-0.47272 -0.50445,-1.51433 -0.91631,-2.3147 -0.41186,-0.80036 -1.35815,-2.64583 -2.10286,-4.10104 -0.74471,-1.45521 -1.47119,-3.24114 -1.6144,-3.96875 -0.14321,-0.7276 -0.37953,-2.28754 -0.52516,-3.46654 -0.17057,-1.38095 -0.1765,-2.9968 -0.0167,-4.54161 0.13646,-1.3189 0.44257,-2.97364 0.68025,-3.67721 0.23769,-0.70357 0.67242,-1.75547 0.96608,-2.33755 0.29366,-0.58209 1.00791,-1.62704 1.58722,-2.32213 0.57932,-0.69509 1.27543,-1.38268 1.54693,-1.52798 0.2715,-0.1453 1.33804,-0.37021 2.37008,-0.4998 l 1.87645,-0.23562 1.78207,0.60613 c 0.98014,0.33336 2.13229,0.78945 2.56034,1.01352 0.42805,0.22407 1.67874,1.24037 2.77931,2.25845 l 2.00105,1.85105 1.13527,2.33861 c 0.62439,1.28623 1.37032,2.93391 1.65762,3.66152 0.28729,0.7276 1.12327,2.57307 1.85773,4.10104 l 1.33538,2.77812 0.007,1.45521 c 0.004,0.80037 -0.14678,2.3048 -0.33466,3.34318 -0.25148,1.38997 -0.64229,2.36704 -1.48159,3.70416 -0.627,0.99891 -1.61916,2.70917 -2.20481,3.80058 -0.58564,1.0914 -1.2853,2.23968 -1.55478,2.55173 -0.26949,0.31205 -1.1022,0.87759 -1.85047,1.25677 -0.97036,0.49172 -1.76134,0.68644 -2.75835,0.67906 -0.76882,-0.006 -1.81011,-0.18918 -2.31397,-0.40774 z m 5.58917,-7.01059 c 1.31652,-1.96278 2.12815,-3.46752 2.31511,-4.29215 0.15833,-0.69839 0.28787,-1.67051 0.28787,-2.16027 0,-0.48975 -0.54808,-2.2996 -1.21797,-4.02187 -0.66989,-1.72227 -1.75511,-4.26249 -2.4116,-5.64494 -0.65649,-1.38245 -1.61671,-3.04932 -2.13382,-3.70417 -0.5171,-0.65484 -1.42618,-1.63785 -2.02017,-2.18447 -0.59399,-0.54662 -1.58097,-1.18595 -2.19329,-1.42075 l -1.11332,-0.42689 -1.13564,0.66953 c -0.6246,0.36825 -1.4431,1.00758 -1.81888,1.42075 -0.37578,0.41316 -0.83621,1.28699 -1.02318,1.94183 -0.18697,0.65485 -0.33823,2.20266 -0.33615,3.43958 0.002,1.23693 0.19166,3.22875 0.42128,4.42627 0.22962,1.19751 0.77116,2.87794 1.20344,3.73428 0.43228,0.85633 1.16523,2.19826 1.62877,2.98207 0.46355,0.7838 1.25178,2.199 1.75162,3.14488 0.49984,0.94589 1.51738,2.34023 2.26118,3.09853 0.74381,0.7583 1.71822,1.5591 2.16537,1.77956 0.44714,0.22045 0.93205,0.36477 1.07757,0.32071 0.14552,-0.0441 1.17684,-1.44019 2.29181,-3.10248 z m -35.79046,-17.92826 c -0.78449,-0.41288 -2.42007,-1.3009 -3.63463,-1.97337 -1.21455,-0.67248 -2.70284,-1.62844 -3.30729,-2.12438 l -1.09901,-0.90169 -0.90537,-2.48275 c -0.49795,-1.36551 -1.31421,-3.53943 -1.81392,-4.83093 l -0.90855,-2.3482 0.19038,-2.01743 c 0.10472,-1.10959 0.22406,-2.75866 0.26522,-3.66461 l 0.0748,-1.64718 0.86784,-1.13094 c 0.47731,-0.62202 1.14991,-1.44081 1.49467,-1.81953 l 0.62683,-0.68857 -0.32469,-0.71262 -0.32469,-0.71262 0.64331,-0.63588 c 0.43015,-0.42518 1.30085,-0.7802 2.62769,-1.07143 1.0914,-0.23955 2.63921,-0.55024 3.43958,-0.69043 0.80036,-0.14019 1.82371,-0.18644 2.27411,-0.10277 0.4504,0.0837 1.80579,0.89433 3.01198,1.80147 1.2062,0.90714 2.77399,2.04077 3.48399,2.51918 0.71,0.47841 1.98253,1.54997 2.82784,2.38125 0.86203,0.84772 1.85803,2.1719 2.26815,3.01551 0.43063,0.88579 0.8304,2.29397 0.97249,3.42553 l 0.24126,1.92143 -0.43158,1.7209 c -0.23737,0.94649 -0.88592,3.01099 -1.44121,4.58778 -0.55529,1.57678 -1.43098,3.54714 -1.94597,4.37857 -0.51499,0.83143 -1.26511,1.90057 -1.66693,2.37587 -0.50442,0.59665 -1.30393,1.06588 -2.58267,1.51577 -1.01865,0.35838 -2.22226,0.65411 -2.6747,0.65718 -0.45243,0.003 -1.46446,-0.33223 -2.24895,-0.74511 z m 4.51056,-4.16092 c 0.574,-0.51857 1.28274,-1.44131 1.57499,-2.05052 0.29225,-0.60921 0.88429,-2.35781 1.31564,-3.88578 l 0.78427,-2.77813 -0.0667,-1.98437 c -0.0433,-1.28866 -0.25255,-2.40181 -0.59687,-3.175 -0.29162,-0.65485 -0.86052,-1.58143 -1.26423,-2.05907 -0.40371,-0.47764 -1.52387,-1.42486 -2.48924,-2.10493 -0.96538,-0.68007 -2.35054,-1.73157 -3.07815,-2.33667 -0.7276,-0.6051 -1.58298,-1.23546 -1.90083,-1.4008 -0.31786,-0.16534 -0.85364,-0.29923 -1.19063,-0.29755 -0.38011,0.002 -1.07591,0.479 -1.83291,1.25677 -0.67112,0.68954 -1.54966,1.82612 -1.95232,2.52575 l -0.73211,1.27203 -0.13545,2.37563 c -0.0997,1.74909 -0.0101,2.91388 0.33964,4.4165 0.2613,1.12249 0.88903,2.99338 1.39496,4.15755 0.50593,1.16416 1.15936,2.4566 1.45206,2.87207 0.31142,0.44205 1.38147,1.16612 2.57951,1.74548 1.12603,0.54453 2.38894,1.22942 2.80646,1.52196 0.41752,0.29255 0.93772,0.59902 1.156,0.68104 0.21828,0.082 0.48583,0.15853 0.59455,0.17002 0.10872,0.0115 0.66731,-0.4034 1.24131,-0.92198 z m 24.0575,-41.90626 c -0.67454,-0.42368 -2.28188,-1.98164 -3.57188,-3.46213 -1.28999,-1.480485 -2.63136,-3.121855 -2.98081,-3.647475 -0.34945,-0.52562 -0.78077,-1.55501 -0.95849,-2.28753 -0.17772,-0.73252 -0.4765,-2.01702 -0.66396,-2.85445 l -0.34083,-1.52259 0.48917,-1.43912 0.48917,-1.43913 -0.37051,-2.06537 c -0.20378,-1.13595 -0.36684,-2.95833 -0.36234,-4.04974 0.006,-1.36697 0.21403,-2.63177 0.66982,-4.06514 l 0.66164,-2.08077 0.90772,-0.38414 c 0.65098,-0.27549 2.14254,-0.39777 5.27335,-0.43232 l 4.36563,-0.0482 1.19062,0.63362 c 0.65484,0.34849 2.10961,1.46319 3.23282,2.47711 1.1232,1.01392 2.29325,2.269 2.60009,2.78906 0.30685,0.52007 1.18284,2.38172 1.94664,4.13701 l 1.38874,3.19144 -0.15744,3.57187 -0.15743,3.57188 -0.73167,1.45521 c -0.40241,0.80036 -1.53123,2.61151 -2.50848,4.024775 -0.97724,1.41326 -2.0822,2.80356 -2.45546,3.08955 -0.37326,0.28599 -1.4113,0.76679 -2.30676,1.06845 -0.89546,0.30165 -2.25694,0.5462 -3.02551,0.54344 l -1.39741,-0.005 z m 4.76832,-3.08977 0.82992,-0.16599 1.19468,-1.708995 c 0.65707,-0.93995 1.48866,-2.28916 1.84798,-2.99823 0.35932,-0.70908 0.79443,-2.11223 0.96692,-3.11811 l 0.31362,-1.82887 -0.44813,-2.28074 c -0.24647,-1.2544 -0.61541,-2.66869 -0.81986,-3.14285 -0.20446,-0.47416 -0.51667,-1.25283 -0.6938,-1.73038 -0.17714,-0.47755 -0.67224,-1.31098 -1.10023,-1.85208 -0.42798,-0.5411 -1.39424,-1.68505 -2.14724,-2.54213 -0.753,-0.85707 -1.84534,-1.77719 -2.42742,-2.04471 -0.72687,-0.33406 -1.68771,-0.48821 -3.06785,-0.4922 l -2.00951,-0.006 -0.4147,0.46302 c -0.22809,0.25466 -0.54301,1.16303 -0.69982,2.01861 -0.20128,1.09822 -0.20382,2.28451 -0.009,4.0348 0.17081,1.53181 0.52368,3.03823 0.92339,3.94206 0.35582,0.80457 0.64694,1.69343 0.64694,1.97526 0,0.28183 -0.35719,0.91923 -0.79375,1.41645 -0.43656,0.49721 -0.79232,1.12644 -0.79056,1.39827 0.002,0.27183 0.28429,0.98579 0.62786,1.58657 0.34357,0.60079 1.60296,2.29922 2.79865,3.77429 1.19568,1.47507 2.49072,2.853975 2.87786,3.064245 0.38715,0.21027 0.89737,0.38708 1.13385,0.39291 0.23647,0.006 0.80341,-0.0641 1.25986,-0.15539 z m -100.9195,85.1337 c -0.44258,-0.2699 -2.64524,-2.27304 -4.89479,-4.45143 -2.24956,-2.17839 -5.45932,-5.26536 -7.13281,-6.85993 -1.67349,-1.59457 -3.87614,-3.51686 -4.89479,-4.27176 -1.01865,-0.7549 -2.62599,-1.93605 -3.57187,-2.62479 -0.94589,-0.68873 -3.68433,-2.81543 -6.08542,-4.72599 -2.40109,-1.91056 -5.13953,-3.98974 -6.08542,-4.6204 -0.94588,-0.63066 -2.66338,-1.87067 -3.81666,-2.75556 -1.15328,-0.8849 -2.70109,-2.15232 -3.43959,-2.81651 -0.73849,-0.66418 -2.23567,-1.84765 -3.32708,-2.62994 -1.09141,-0.78229 -2.70555,-2.0248 -3.58698,-2.76115 -0.88143,-0.73634 -2.13158,-1.70877 -2.77812,-2.16095 -0.64654,-0.45217 -2.48521,-1.75344 -4.08594,-2.89169 -1.60073,-1.13826 -3.4462,-2.51541 -4.10104,-3.06034 -0.65485,-0.54493 -2.61938,-1.78087 -4.36564,-2.74653 -1.74626,-0.96566 -3.30604,-1.83792 -3.46617,-1.93835 -0.16013,-0.10044 -0.76,-0.49561 -1.33305,-0.87817 -0.57305,-0.38256 -1.98986,-1.57733 -3.14845,-2.65504 -1.1586,-1.07772 -2.43063,-2.16425 -2.82673,-2.41453 l -0.72017,-0.45504 -0.41111,0.79498 -0.4111,0.79498 -1.64686,-0.004 c -0.90577,-0.002 -1.78337,-0.0915 -1.95021,-0.19844 -0.16684,-0.10691 -0.4274,-0.67063 -0.57903,-1.25272 -0.15162,-0.58208 -0.34536,-5.04692 -0.43053,-9.92187 -0.0852,-4.87495 -0.28105,-9.49589 -0.43528,-10.26875 -0.15423,-0.77287 -0.22068,-1.56091 -0.14766,-1.7512 0.073,-0.19028 0.0271,-1.46294 -0.10207,-2.82812 -0.12917,-1.36518 -0.47593,-3.85136 -0.77059,-5.524845 -0.29466,-1.67349 -0.53643,-3.76498 -0.53727,-4.64776 -8.4e-4,-0.88278 -0.11953,-2.252 -0.26377,-3.04271 -0.14424,-0.79071 -0.28959,-5.00953 -0.323,-9.37515 -0.0334,-4.36563 0.0183,-11.03313 0.11486,-14.81667 0.0966,-3.78354 0.30611,-8.06979 0.46557,-9.525 0.15946,-1.45521 0.35461,-2.82443 0.43365,-3.04271 0.079,-0.21828 0.1843,-2.95672 0.23389,-6.08541 0.0496,-3.1287 0.22907,-6.52198 0.39885,-7.54063 0.16978,-1.01864 0.30856,-2.92364 0.30841,-4.23333 -1.6e-4,-1.30969 0.17548,-3.75047 0.3903,-5.42396 0.21484,-1.67349 0.45318,-3.57849 0.52966,-4.23333 0.0765,-0.65485 0.11778,-1.60735 0.0918,-2.11667 -0.026,-0.50932 -0.0413,-3.55955 -0.034,-6.77829 l 0.0133,-5.85224 0.80386,-2.5095004 c 0.44214,-1.38022 0.80387,-2.66926 0.80387,-2.86452 0,-0.19527 -0.31109,-0.67974 -0.69132,-1.07661 l -0.69131,-0.72157 1.06047,-1.93874 c 0.58326,-1.06631 1.14416,-2.35546004 1.24645,-2.86478004 0.1023,-0.50932 0.35565,-1.19393 0.563,-1.52134996 0.20736,-0.32742 0.5695,-0.59532 0.80476,-0.59532 0.23526,0 0.57643,-0.20332 0.75814,-0.45183 l 0.3304,-0.45184 1.94775,-0.005 1.94775,-0.005 1.53873,0.92027 c 0.8463,0.50615 2.156,1.24013996 2.91043,1.63109996 0.75444,0.39096 1.55029,0.72023 1.76857,0.7317 0.21829,0.0115 1.42077,0.47671 2.6722,1.03385004 1.42473,0.63431 3.30911,1.80856 5.04079,3.14117 1.52102,1.1705 3.60775,2.55234 4.63717,3.07075 1.02943,0.51841 2.45201,1.32932 3.16129,1.80203 0.70929,0.47271 2.37349,1.8322904 3.69822,3.0212804 1.32474,1.189 3.22974,2.61658 4.23334,3.17242 1.00359,0.55583 2.71769,1.60715 3.8091,2.33627 1.0914,0.72912 3.05593,2.2303 4.36562,3.33594 1.30969,1.10565 2.97656,2.43621 3.70417,2.95681 0.7276,0.5206 1.84799,1.21176 2.48975,1.53592 0.64177,0.32416 1.95145,1.19515 2.91042,1.93554 0.95897,0.74038 2.89045,2.36535 4.29219,3.61103 1.40174,1.24568 2.94955,2.54211 3.43958,2.88096 0.49004,0.33884 1.88041,1.31652 3.08971,2.17261 1.20931,0.85609 2.77474,2.0744 3.47874,2.70736 0.704,0.63295 2.33394,1.85011 3.62209,2.7048 1.28816,0.85469 3.62484,2.69289 5.19263,4.08489 1.56779,1.39201 3.23609,2.70951 3.70732,2.92779 0.47124,0.21828 1.2721,0.71436 1.77968,1.10239 0.50759,0.38803 1.45867,0.90441 2.11351,1.1475 0.65485,0.24309 1.63711,0.6283 2.18281,0.85602 0.54571,0.22773 0.99219,0.51197 0.99219,0.63165 0,0.11968 0.34727,0.39718 0.77171,0.61667 0.462,0.23891 0.88379,0.74602 1.05097,1.26357 0.15359,0.47547 0.58781,2.33808 0.96494,4.13913 l 0.68569,3.27463 -0.0651,2.94307 c -0.0358,1.6187 -0.0167,5.08621 0.0424,7.70558 0.0591,2.61938 0.0986,6.19125 0.0878,7.9375 -0.0109,1.74625 -0.0864,5.55625 -0.16794,8.46667 -0.0815,2.91041 -0.2807,5.76791 -0.44263,6.35 -0.16193,0.58208 -0.40708,2.01083 -0.54477,3.175 -0.13769,1.16416 -0.4344,4.378845 -0.65936,7.143745 -0.22495,2.76489 -0.58,6.57489 -0.78899,8.46666 -0.209,1.89177 -0.44948,4.39209 -0.53442,5.55625 -0.0849,1.16417 -0.27917,3.60495 -0.43163,5.42396 -0.15247,1.81901 -0.43679,3.90261 -0.63183,4.63021 -0.19504,0.7276 -0.47983,2.33495 -0.63288,3.57188 -0.15305,1.23692 -0.6362,4.5497 -1.07368,7.36172 -0.43748,2.81202 -0.90866,5.55046 -1.04707,6.08542 -0.1384,0.53495 -0.39655,2.10374 -0.57366,3.48619 -0.1959,1.52911 -0.35271,7.02119 -0.4004,14.02291 -0.0431,6.33016 -0.16122,12.36765 -0.26248,13.41664 -0.12263,1.27052 -0.072,2.30783 0.15183,3.10707 l 0.33592,1.19979 -0.29617,0.35687 c -0.1629,0.19627 -0.22937,0.42367 -0.14772,0.50532 0.0816,0.0817 -0.10336,0.64204 -0.41112,1.24532 -0.30777,0.60327 -0.76256,1.17354 -1.01065,1.26727 -0.24809,0.0937 -1.10591,0.56387 -1.90627,1.04476 -0.80037,0.4809 -1.63381,0.87421 -1.85209,0.87404 -0.21828,-1.7e-4 -0.75898,-0.22113 -1.20157,-0.49102 z m 1.88496,-7.84947 c 0.0866,-1.3054 0.12304,-3.14737 0.0808,-4.09325 -0.0422,-0.94589 -0.0611,-2.19604 -0.0421,-2.77813 0.019,-0.58208 0.15024,-5.28505 0.29158,-10.45104 l 0.257,-9.39271 0.70314,-3.70416 c 0.38674,-2.0373 0.87932,-4.65667 1.09463,-5.82084 0.21531,-1.16416 0.67683,-4.25979 1.0256,-6.87916 0.34877,-2.61938 0.88066,-5.97071 1.18198,-7.44741 0.34522,-1.69183 0.64225,-4.62769 0.80307,-7.9375 0.14036,-2.88893 0.42678,-6.20509 0.63648,-7.36926 0.20971,-1.16417 0.45559,-3.18823 0.54641,-4.49792 0.0908,-1.30968 0.28765,-3.86953 0.43739,-5.68854 0.14975,-1.81901 0.44917,-4.362525 0.66537,-5.652265 0.21621,-1.28974 0.43754,-4.56396 0.49184,-7.27604 0.0543,-2.71208 0.23012,-5.88356 0.3907,-7.04773 0.17722,-1.28481 0.23457,-4.04032 0.14593,-7.01146 -0.0803,-2.69213 -0.19992,-6.68073 -0.26579,-8.86354 -0.0659,-2.18281 -0.24834,-4.68312 -0.40548,-5.55625 -0.15715,-0.87312 -0.57314,-2.54609 -0.92444,-3.71771 l -0.63872,-2.13022 -0.99882,-0.4763 c -0.54934,-0.26196 -1.7516,-0.75965 -2.67167,-1.10596 -0.92007,-0.34631 -1.99204,-0.87518 -2.38216,-1.17527 -0.39011,-0.30008 -1.36415,-0.97694 -2.16451,-1.50412 -0.80036,-0.52719 -2.24697,-1.68821 -3.21468,-2.58004 -0.96771,-0.89184 -2.2774,-1.96284 -2.91042,-2.38001 -0.63302,-0.41717 -1.68673,-1.11691 -2.34157,-1.55499 -0.65485,-0.43808 -1.83346,-1.3416 -2.61914,-2.00782 -0.78568,-0.66622 -2.25205,-1.83639 -3.25859,-2.60037 -1.00655,-0.76398 -1.88865,-1.38906 -1.96024,-1.38906 -0.0716,0 -1.0848,-0.74414 -2.2516,-1.65365 -1.16679,-0.9095 -2.85654,-2.34715 -3.755,-3.19477 -0.89845,-0.84761 -2.56307,-2.27636 -3.69914,-3.175 -1.13607,-0.89863 -2.7478,-1.99106 -3.58163,-2.42762 -0.83382,-0.43657 -2.28556,-1.38314 -3.22608,-2.10349 -0.94052,-0.72035 -2.42441,-1.95013 -3.29754,-2.73283 -0.87312,-0.7827 -2.59953,-2.02634 -3.83646,-2.76364 -1.23692,-0.7373 -2.89122,-1.75772 -3.67621,-2.2676 -0.78499,-0.50988 -2.09467,-1.46595 -2.91041,-2.1246 -0.81574,-0.65865 -1.73256,-1.44455 -2.03736,-1.74644 -0.30481,-0.3019 -1.25731,-1.09988 -2.11667,-1.7733 -0.85936,-0.67342 -2.7531,-1.82485 -4.2083,-2.55875 -1.45521,-0.7338904 -3.59834,-2.0953704 -4.7625,-3.0255004 -1.16417,-0.93013 -2.54532,-1.95027 -3.06921,-2.26697 -0.52389,-0.3167 -2.13105,-1.00242 -3.57147,-1.52382 -1.44042,-0.52141 -3.01182,-1.19083 -3.49202,-1.48761 l -0.87307,-0.53959 -0.50478,0.45681 c -0.27763,0.25125 -0.58136,0.96752 -0.67496,1.59172 -0.10376,0.69192 -0.0367,1.50397 0.17172,2.08044 l 0.34191,0.94554 -0.57781,1.39481 c -0.3178,0.76715 -0.80214,2.4663804 -1.07631,3.7760704 -0.27418,1.30968 -0.64732,3.88684 -0.82921,5.727 l -0.33073,3.34575 0.32525,1.35574 0.32523,1.35573 -0.42648,3.50059 c -0.23458,1.92533 -0.54226,4.86982 -0.68375,6.54331 -0.14149,1.67349 -0.37926,4.02342 -0.52839,5.22206 -0.14912,1.19864 -0.3167,4.77051 -0.3724,7.9375 -0.0557,3.16698 -0.22651,6.35346 -0.3796,7.08107 -0.15309,0.7276 -0.40631,2.09682 -0.56271,3.0427 -0.15819,0.95678 -0.31205,6.18049 -0.34679,11.77396 -0.0343,5.52979 -0.0272,11.30432 0.0158,12.83229 0.043,1.52797 0.25225,5.3975 0.46496,8.59896 0.22279,3.35309 0.65816,7.27905 1.02693,9.26042 0.3521,1.891765 0.71708,4.808795 0.81106,6.482285 0.094,1.67349 0.26241,3.60825 0.37427,4.29948 0.11187,0.69122 0.12495,1.77366 0.0291,2.40542 -0.0959,0.63176 -0.10676,3.36163 -0.0242,6.06638 l 0.15014,4.91773 0.55402,0.74664 c 0.30471,0.41065 1.53892,1.24537 2.74269,1.85493 1.56785,0.79393 2.68651,1.61359 3.94391,2.88977 0.96539,0.97981 2.35057,2.15919 3.07818,2.62084 0.72761,0.46165 2.62742,1.51767 4.2218,2.34671 1.59438,0.82904 4.24203,2.48468 5.88365,3.6792 1.64163,1.19452 4.45599,3.24342 6.25414,4.55311 1.79815,1.30968 4.191,3.09562 5.31744,3.96875 1.12645,0.87312 2.39703,1.84478 2.82352,2.15923 0.4265,0.31445 1.57726,1.28012 2.55725,2.14592 0.97999,0.86581 2.87645,2.39446 4.21435,3.39702 1.33791,1.00255 2.86334,2.12048 3.38985,2.48428 0.5265,0.36381 1.8131,1.34056 2.85911,2.17057 1.046,0.83001 2.76961,2.19923 3.83025,3.04271 1.06063,0.84348 2.53931,2.05399 3.28594,2.69002 0.74664,0.63604 1.96244,1.55411 2.70178,2.04016 0.73935,0.48606 2.27771,1.60344 3.41858,2.48307 1.14088,0.87963 3.284,2.82147 4.7625,4.31519 1.4785,1.49372 3.22397,3.1897 3.87881,3.76884 0.65485,0.57914 2.06926,1.98581 3.14315,3.12592 l 1.95251,2.07293 0.36093,-0.36093 c 0.22231,-0.22231 0.42144,-1.27249 0.51848,-2.73439 z m -59.81776,-54.89109 c -1.16417,-0.0904 -2.31336,-0.25522 -2.55375,-0.36622 -0.24039,-0.111 -0.95477,-0.81443 -1.58751,-1.56318 -0.63273,-0.74875 -1.47135,-1.84182 -1.86357,-2.42904 -0.39223,-0.58722 -1.25544,-1.76275 -1.91824,-2.61228 l -1.2051,-1.5446 -0.002,-1.10123 c -0.001,-0.60568 -0.32788,-2.29186 -0.72568,-3.74707 -0.45814,-1.67598 -0.71837,-3.27624 -0.70992,-4.36562 l 0.0133,-1.7198 1.45716,-2.51354 1.45718,-2.513535 1.3057,-0.72139 c 0.71813,-0.39676 1.93511,-0.90736 2.70439,-1.13466 0.84724,-0.25034 1.76044,-0.34541 2.31627,-0.24114 0.61562,0.11549 1.11398,0.0435 1.51436,-0.21887 l 0.59676,-0.39101 2.24634,0.33721 c 1.23549,0.18546 2.70153,0.45656 3.25787,0.60243 0.55635,0.14587 1.22056,0.45439 1.47605,0.6856 0.25548,0.2312 0.57917,0.42037 0.71931,0.42037 0.14015,0 0.73771,0.50602 1.32792,1.124475 0.5902,0.61847 1.56869,2.00021 2.1744,3.07056 0.60572,1.07034 1.47383,2.79483 1.92914,3.83221 0.49029,1.11708 0.97391,2.85879 1.1861,4.27163 0.19705,1.31202 0.35911,2.75124 0.36014,3.19826 0.001,0.44702 -0.19106,1.37899 -0.42687,2.07105 -0.23581,0.69206 -0.593,1.32132 -0.79375,1.39836 -0.20076,0.077 -0.36501,0.28807 -0.36501,0.46896 0,0.18088 -0.6964,0.93459 -1.54755,1.67491 -0.85116,0.74031 -2.01202,1.58142 -2.57969,1.86913 -0.56767,0.28771 -1.56792,0.75976 -2.22276,1.04901 -0.65484,0.28924 -1.66687,0.64473 -2.24896,0.78996 -0.58208,0.14524 -1.53458,0.31343 -2.11666,0.37376 -0.58209,0.0603 -2.01084,0.0357 -3.175,-0.0547 z m 5.93469,-4.09387 c 0.7078,-0.35866 1.87107,-1.22187 2.58504,-1.91822 0.92813,-0.90523 1.39859,-1.62579 1.65054,-2.52799 0.21033,-0.75315 0.29879,-1.92965 0.21943,-2.91828 -0.0834,-1.03913 -0.45187,-2.39299 -0.98871,-3.63292 -0.47067,-1.08708 -1.37897,-2.87912 -2.01845,-3.98231 l -1.1627,-2.00581 -1.39013,-0.9317 c -0.76457,-0.51243 -1.76911,-1.07947 -2.2323,-1.26009 l -0.84217,-0.3284 -2.46512,0.31512 -2.46512,0.31512 -0.62108,0.56953 c -0.34158,0.31324 -0.84982,1.01564 -1.12942,1.56088 -0.2796,0.54523 -0.57812,1.5002 -0.66337,2.12215 -0.10694,0.78019 0.0991,2.26142 0.66446,4.77709 0.45069,2.00545 0.95568,3.90798 1.12218,4.22784 0.16652,0.31987 0.72507,1.17689 1.24123,1.90449 0.51617,0.7276 1.60121,2.00733 2.4112,2.84384 l 1.47271,1.52092 1.66244,4.3e-4 1.66244,4.4e-4 z m 37.05081,-22.850145 c -0.65995,-0.24338 -2.20776,-1.11617 -3.43958,-1.93951 -1.23182,-0.82335 -2.78242,-2.07351 -3.44577,-2.77813 -0.66335,-0.70462 -1.67282,-1.87014 -2.24325,-2.59004 -0.57044,-0.7199 -1.30762,-1.70745 -1.63818,-2.19456 -0.33056,-0.48711 -0.60102,-0.98896 -0.60102,-1.11522 0,-0.12626 -0.55184,-1.92849 -1.22632,-4.00496 l -1.22632,-3.77539 0.30172,-4.10744 c 0.16595,-2.25909 0.39037,-4.19053 0.49872,-4.29209 0.10835,-0.10156 1.4572,-0.95236 2.99745,-1.89067 1.82673,-1.11283 3.20668,-1.7655 3.96875,-1.87708 0.64256,-0.0941 1.76361,-0.27947 2.49121,-0.41197 0.7276,-0.1325 2.12115,-0.38758 3.09676,-0.56685 l 1.77384,-0.32595 0.87199,0.35958 c 0.4796,0.19777 1.6459,1.0731 2.59179,1.94517 0.94588,0.87207 2.63443,2.59233 3.75233,3.8228 1.1179,1.23048 2.3512,2.82269 2.74066,3.53826 0.38947,0.71557 0.862,1.97559 1.05008,2.80004 0.18808,0.82444 0.42313,2.22707 0.52232,3.11694 l 0.18036,1.61795 -0.52141,1.82163 c -0.28678,1.0019 -0.66219,2.8932 -0.83426,4.20289 -0.20846,1.58669 -0.57517,2.93133 -1.09902,4.02982 -0.57596,1.20777 -1.0985,1.86346 -1.95431,2.45227 -0.64247,0.44203 -2.03311,1.21822 -3.09029,1.72487 -1.37022,0.65666 -2.26619,0.91528 -3.12025,0.90066 -0.65895,-0.0113 -1.73805,-0.21964 -2.398,-0.46302 z m 5.30525,-4.57958 c 0.58412,-0.6019 1.11712,-1.34604 1.18445,-1.65365 0.0673,-0.30761 0.363,-1.86897 0.65705,-3.4697 0.31946,-1.73908 0.5348,-4.03925 0.53504,-5.71521 2.3e-4,-1.54263 -0.14049,-3.20951 -0.3127,-3.70416 -0.17221,-0.49466 -0.72428,-1.47207 -1.22684,-2.17202 -0.50255,-0.69995 -1.22486,-1.5975 -1.60512,-1.99457 -0.38026,-0.39706 -1.4526,-1.5855 -2.38296,-2.64096 -0.93037,-1.05546 -1.89128,-2.0259 -2.13536,-2.15653 -0.27031,-0.14466 -0.90187,-0.12557 -1.61572,0.0489 -0.64456,0.15749 -1.3599,0.44791 -1.58964,0.64537 -0.23084,0.19841 -1.00764,0.35902 -1.73643,0.35902 h -1.31873 l -0.69413,0.7276 c -0.38177,0.40019 -0.81693,1.05269 -0.96702,1.45002 -0.15009,0.39732 -0.29345,2.06419 -0.31858,3.70416 -0.0251,1.63997 0.0909,3.47378 0.25788,4.07514 0.16697,0.60137 0.70924,2.18451 1.20505,3.5181 0.60785,1.63497 1.38172,3.06279 2.37594,4.38374 0.91948,1.22163 2.24401,2.53654 3.51891,3.49335 1.12445,0.84389 2.3464,1.67781 2.71547,1.85314 0.36906,0.17534 1.0581,0.32417 1.53121,0.33073 l 0.86019,0.0119 z m -43.20082,-35.70589 c -0.83855,-0.12277 -2.32684,-0.57286 -3.30729,-1.00021 l -1.78264,-0.77701 -1.40089,-1.81179 c -0.77049,-0.99648 -2.06743,-2.41015 -2.88211,-3.14149 l -1.48122,-1.32971 -0.90586,-3.56508 c -0.49822,-1.9608 -1.03572,-4.06532 -1.19444,-4.67672 l -0.28858,-1.11163 0.5708,-1.4916 c 0.31396,-0.82038 0.57082,-1.78457 0.57082,-2.14265 0,-0.35808 0.1769,-0.99314 0.39311,-1.41125 0.2857,-0.55248 0.80982,-0.91221 1.91824,-1.31656 0.83881,-0.306 1.82278,-0.697 2.18658,-0.8689 0.36381,-0.1719 0.86539,-0.48094 1.11463,-0.68677 0.24924,-0.20582 0.63238,-0.30546 0.85142,-0.2214 0.21904,0.0841 0.45812,0.056 0.53129,-0.0624 0.0732,-0.11839 0.73096,-0.28607 1.46176,-0.37262 0.88623,-0.10496 1.63491,-0.0294 2.24818,0.22681 0.50571,0.2113 1.42932,0.38246 2.05245,0.38035 0.62314,-0.002 1.93814,0.25822 2.92222,0.5785 l 1.78923,0.58234 2.22441,2.66264 c 1.22343,1.46446 2.78075,3.25796 3.46071,3.98556 0.67996,0.72761 1.46343,1.76466 1.74104,2.30457 0.27761,0.5399 0.50475,1.50756 0.50475,2.15035 0,0.68088 -0.48047,2.59034 -1.15109,4.5746 -0.63309,1.87324 -1.41564,4.01698 -1.73899,4.76385 -0.32335,0.74688 -0.92385,1.67982 -1.33446,2.0732 -0.4106,0.39338 -1.53847,1.00269 -2.50637,1.35402 -1.22095,0.44318 -2.26251,0.62891 -3.40144,0.60652 -0.90289,-0.0177 -2.3277,-0.13271 -3.16626,-0.25548 z m 4.02952,-3.32109 c 0.40394,-0.23862 1.05421,-0.98276 1.44504,-1.65365 0.39084,-0.67089 1.01059,-1.93418 1.37723,-2.8073 0.36663,-0.87313 0.83465,-2.18282 1.04003,-2.91042 0.20538,-0.72761 0.36985,-1.62057 0.36547,-1.98438 -0.004,-0.3638 -0.21132,-1.0266 -0.45988,-1.47289 -0.24856,-0.44629 -1.28537,-1.98626 -2.30401,-3.42216 -1.01865,-1.43589 -2.47031,-3.2549 -3.22591,-4.04224 -0.86094,-0.89709 -1.49346,-1.35758 -1.69427,-1.23347 -0.17624,0.10892 -1.34396,0.30973 -2.59492,0.44624 -1.25097,0.13651 -2.53274,0.25044 -2.84839,0.25319 -0.31565,0.003 -0.86847,0.31921 -1.22851,0.70326 -0.37946,0.40478 -0.77769,1.28761 -0.94745,2.10037 -0.16106,0.77114 -0.29284,2.10644 -0.29284,2.96731 0,0.86088 0.16621,2.07541 0.36936,2.69896 0.20315,0.62355 0.51335,1.76162 0.68935,2.52904 l 0.31998,1.39531 2.50959,2.77538 c 1.38028,1.52646 2.76671,2.92147 3.08097,3.10003 0.31425,0.17855 0.98809,0.46215 1.49741,0.63021 0.50933,0.16806 1.20533,0.31805 1.54668,0.3333 0.34135,0.0153 0.95113,-0.16748 1.35507,-0.40609 z"
     id="path2-4" /></svg>
