<?xml version="1.0" encoding="UTF-8" standalone="no"?>
<!-- Created with Inkscape (http://www.inkscape.org/) -->

<svg
   width="470.03577mm"
   height="230.67209mm"
   viewBox="0 0 470.03575 230.67209"
   version="1.1"
   id="svg1"
   xml:space="preserve"
   xmlns="http://www.w3.org/2000/svg"
   xmlns:svg="http://www.w3.org/2000/svg"><defs
     id="defs1" /><g
     id="layer1"
     transform="translate(181.27716,-161.80556)"><path
       style="fill:#ddaabb;fill-opacity:1"
       d="m 205.11704,392.25649 c -0.53317,-0.10384 -1.24755,-0.37334 -1.5875,-0.59889 -0.33994,-0.22555 -0.91574,-0.71931 -1.27954,-1.09723 -0.3638,-0.37793 -0.89959,-0.95275 -1.19063,-1.27738 -0.29104,-0.32463 -0.76729,-0.90528 -1.05833,-1.29034 -0.29104,-0.38506 -1.3626,-1.3282 -2.38125,-2.09588 -1.01865,-0.76767 -1.9473,-1.55914 -2.06367,-1.75882 -0.11637,-0.19968 -0.35261,-0.36305 -0.52498,-0.36305 -0.17238,0 -1.20826,-0.89713 -2.30196,-1.99363 -1.09371,-1.09649 -3.29824,-3.28744 -4.89897,-4.86876 -1.60073,-1.58133 -4.22011,-4.26543 -5.82084,-5.96467 -1.60073,-1.69924 -3.11877,-3.28523 -3.37343,-3.52441 -0.25467,-0.23919 -0.46303,-0.58026 -0.46303,-0.75795 0,-0.17769 -0.21899,-0.47865 -0.48665,-0.66881 -0.26766,-0.19015 -1.30946,-1.25921 -2.31511,-2.37568 -1.00564,-1.11648 -2.08788,-2.36664 -2.40497,-2.77813 -0.3171,-0.41149 -1.08622,-1.40301 -1.70916,-2.20338 -0.62295,-0.80036 -2.47687,-2.84353 -4.11982,-4.54037 -1.64296,-1.69685 -2.98795,-3.24466 -2.98888,-3.43959 -9.2e-4,-0.19493 -0.33767,-0.54551 -0.74834,-0.77907 -0.41067,-0.23356 -1.48148,-1.27841 -2.37958,-2.32189 -0.89809,-1.04349 -1.6329,-2.06187 -1.6329,-2.26307 0,-0.20121 -0.52176,-1.00635 -1.15947,-1.7892 -0.63771,-0.78286 -1.6626,-2.43088 -2.27754,-3.66228 -0.61493,-1.2314 -1.60824,-2.89375 -2.20735,-3.69411 -0.5991,-0.80036 -1.44945,-1.85131 -1.88965,-2.33543 -0.4402,-0.48412 -1.12779,-1.19525 -1.52797,-1.58027 -0.40018,-0.38503 -0.72761,-0.97493 -0.72761,-1.3109 0,-0.35086 0.19707,-0.67174 0.46303,-0.75392 0.25466,-0.0787 0.64161,-0.23632 0.85989,-0.35028 l 0.39688,-0.2072 0.17418,-3.8086 c 0.0958,-2.09474 0.26011,-5.53735 0.36514,-7.65026 l 0.19096,-3.84165 -0.36514,-0.29146 c -0.20083,-0.1603 -1.25811,-0.4838 -2.34952,-0.71888 -1.09141,-0.23508 -3.175,-0.61309 -4.63021,-0.84001 -1.45521,-0.22693 -3.5388,-0.5327 -4.63021,-0.67949 -1.0914,-0.14679 -2.24807,-0.43897 -2.57037,-0.64927 -0.32231,-0.21031 -1.07236,-0.38238 -1.66679,-0.38238 -0.59443,0 -1.40854,-0.16949 -1.80913,-0.37665 -0.4006,-0.20715 -2.15086,-0.55738 -3.88947,-0.77828 -1.73861,-0.2209 -3.72411,-0.33386 -4.41223,-0.25104 l -1.25112,0.1506 -0.12408,0.82612 c -0.0682,0.45437 -0.20223,1.71909 -0.29774,2.8105 -0.0955,1.09141 -0.22468,2.34156 -0.28706,2.77812 -0.0624,0.43657 -0.22212,1.74625 -0.35498,2.91042 -0.13286,1.16417 -0.36414,3.96214 -0.51394,6.21771 -0.15021,2.26166 -0.53143,5.2284 -0.84995,6.61458 l -0.57758,2.51354 -0.0556,8.20209 c -0.0306,4.51114 -0.14319,8.67833 -0.25025,9.26041 -0.10706,0.58209 -0.35432,1.54917 -0.54947,2.14908 -0.20073,0.61706 -0.43461,3.08741 -0.53857,5.68854 -0.10106,2.52879 -0.16644,4.83593 -0.14528,5.12697 0.0211,0.29104 0.0495,0.94588 0.063,1.45521 0.0135,0.50932 -0.27656,1.58088 -0.64453,2.38125 -0.36797,0.80036 -1.03365,1.83473 -1.47929,2.29859 -0.57242,0.59582 -1.15316,0.8948 -1.97849,1.01857 -0.64254,0.0963 -1.53123,0.0955 -1.97487,-0.002 -0.55342,-0.12155 -1.09314,-0.57598 -1.71941,-1.4477 -0.50203,-0.6988 -1.46682,-1.73228 -2.14398,-2.29662 -0.67715,-0.56434 -1.72326,-1.68092 -2.32468,-2.48128 -0.60142,-0.80036 -2.47481,-2.88396 -4.16308,-4.63021 -1.68828,-1.74625 -3.37781,-3.59172 -3.754518,-4.10104 -0.376707,-0.50932 -2.271638,-2.59292 -4.210957,-4.63021 -1.939319,-2.03729 -5.078662,-5.257 -6.976318,-7.15491 -1.897657,-1.89791 -4.214509,-4.09998 -5.148561,-4.89349 -0.934051,-0.79351 -2.205547,-1.8034 -2.825545,-2.2442 -0.619999,-0.4408 -2.951399,-2.59645 -5.180891,-4.79032 -2.229492,-2.19387 -5.184715,-5.21694 -6.567163,-6.71794 -1.382448,-1.50099 -3.227917,-3.46999 -4.101042,-4.37555 -0.873125,-0.90555 -2.34529,-2.55992 -3.271478,-3.67638 -0.926188,-1.11645 -2.164328,-2.33314 -2.751422,-2.70376 -0.758516,-0.47883 -1.304889,-0.63683 -1.887896,-0.54595 -0.590552,0.0921 -1.368786,-0.14099 -2.777295,-0.83168 -1.332466,-0.6534 -2.286131,-1.3489 -2.988859,-2.17976 l -1.032017,-1.22018 0.553504,-1.5994 c 0.304428,-0.87967 0.658642,-2.17605 0.787142,-2.88085 0.1285,-0.70481 0.358366,-1.75771 0.510813,-2.3398 0.152447,-0.58208 0.280016,-1.67755 0.283488,-2.43437 0.0035,-0.75682 0.116916,-1.94744 0.252098,-2.64583 0.135183,-0.69839 0.309536,-2.2454 0.387452,-3.43781 l 0.141666,-2.16801 -1.247348,-0.16368 c -0.686041,-0.09 -1.783129,-0.28203 -2.437973,-0.42669 -0.654843,-0.14466 -1.607344,-0.36698 -2.116666,-0.49406 -0.509323,-0.12707 -1.699948,-0.40933 -2.645834,-0.62725 -0.945885,-0.21791 -3.029479,-0.64219 -4.630208,-0.94284 -1.600729,-0.30065 -5.351198,-1.01019 -8.334375,-1.57676 -3.772239,-0.71642 -6.059417,-1.01878 -7.510693,-0.99289 l -2.086735,0.0372 -0.19703,0.53263 c -0.108367,0.29294 -0.338457,2.67373 -0.511312,5.29064 -0.172854,2.61692 -0.481207,6.0776 -0.685228,7.6904 -0.204021,1.61281 -0.549035,4.05359 -0.766696,5.42396 -0.217662,1.37037 -0.398783,3.97987 -0.40249,5.79888 -0.0037,1.81901 -0.126963,4.79557 -0.2739,6.61458 -0.146938,1.81901 -0.333141,4.67651 -0.413785,6.35 -0.08064,1.67349 -0.332022,3.75359 -0.558616,4.62245 -0.226595,0.86885 -0.449173,2.44769 -0.494619,3.50853 -0.04545,1.06085 -0.208213,2.31449 -0.361703,2.78589 -0.15349,0.4714 -0.334384,1.9086 -0.401986,3.19378 -0.0676,1.28518 -0.237837,2.47581 -0.3783,2.64583 -0.140463,0.17003 -0.338937,0.78539 -0.441053,1.36748 -0.102116,0.58208 -0.377007,1.35599 -0.610869,1.71979 -0.233862,0.3638 -0.395935,0.80131 -0.360161,0.97224 0.03577,0.17092 -0.08694,0.40808 -0.272703,0.52702 -0.185761,0.11894 -0.754465,0.36425 -1.263788,0.54513 -0.509323,0.18089 -1.491589,0.33069 -2.182813,0.33288 -0.691224,0.002 -1.25677,-0.11508 -1.25677,-0.2606 0,-0.14552 -0.113651,-0.26459 -0.2525572,-0.26459 -0.1389063,0 -0.5324324,-0.27987 -0.8745025,-0.62194 -0.3420702,-0.34207 -1.0520549,-1.20528 -1.5777439,-1.91823 -0.5256889,-0.71296 -2.0073972,-2.32256 -3.292685,-3.5769 -1.2852878,-1.25435 -2.9623136,-2.66376 -3.72672411,-3.13203 -0.83064237,-0.50885 -1.45176859,-1.09816 -1.54376289,-1.46469 -0.084659,-0.33731 -0.352201,-0.66717 -0.5945377,-0.73301 -0.2423367,-0.0659 -2.4130102,-1.59514 -4.8237188,-3.39844 -2.4107086,-1.80329 -6.3292019,-4.70747 -8.7077639,-6.45372 -2.378561,-1.74625 -5.525851,-4.2555 -6.993976,-5.57611 -1.468126,-1.32062 -3.562289,-3.0563 -4.653695,-3.85706 -1.091407,-0.80077 -3.829844,-3.21807 -6.085417,-5.37177 -2.255573,-2.15371 -4.72612,-4.32099 -5.490104,-4.81618 -0.763985,-0.49519 -1.389876,-0.98598 -1.390871,-1.09065 -9.94e-4,-0.10467 -0.387947,-0.44701 -0.859896,-0.76075 -0.471948,-0.31374 -1.393869,-0.65209 -2.048712,-0.75188 -0.654844,-0.0998 -2.976563,-0.5805 -5.159376,-1.06822 -2.182812,-0.48773 -5.218906,-1.07666 -6.746875,-1.30873 -1.527968,-0.23208 -3.162465,-0.54324 -3.632214,-0.69147 -0.46975,-0.14824 -1.42225,-0.37045 -2.116667,-0.49382 -0.694417,-0.12336 -3.881952,-0.77773 -7.08341,-1.45415 -3.201459,-0.67642 -6.416146,-1.33485 -7.14375,-1.46319 -0.727605,-0.12833 -2.156355,-0.42628 -3.175,-0.6621 -1.018646,-0.23582 -3.10224,-0.65228 -4.630209,-0.92546 -1.527969,-0.27319 -5.516562,-1.04151 -8.863542,-1.70739 -3.346979,-0.66587 -7.930885,-1.56767 -10.186457,-2.00398 -2.25557,-0.43631 -5.29167,-1.01868 -6.74688,-1.29414 -1.4552,-0.27547 -4.19364,-0.76126 -6.08541,-1.07954 -1.89177,-0.31829 -4.09443,-0.7397 -4.89479,-0.93647 -0.80037,-0.19677 -2.70537,-0.55753 -4.23334,-0.80168 -1.52797,-0.24415 -3.44498,-0.61094 -4.26002,-0.81508 -0.81504,-0.20415 -1.94614,-0.41831 -2.51354,-0.47592 -0.56741,-0.0576 -3.11524,-0.52296 -5.66185,-1.03413 -2.54662,-0.51117 -5.82084,-1.12955 -7.27605,-1.37416 -1.4552,-0.24462 -3.71739,-0.60589 -5.02708,-0.80282 -1.30969,-0.19693 -2.8575,-0.47367 -3.43958,-0.61499 -0.58209,-0.14131 -1.53459,-0.38107 -2.11667,-0.53279 -0.58208,-0.15173 -1.4798,-0.27871 -1.99493,-0.28218 -0.51513,-0.003 -1.60948,-0.18157 -2.43188,-0.39578 -0.82241,-0.21421 -2.6036,-0.56884 -3.9582,-0.78806 -1.3546,-0.21922 -3.41447,-0.57862 -4.57748,-0.79865 -1.16302,-0.22004 -2.31386,-0.33682 -2.55743,-0.25952 -0.24356,0.0773 -0.51978,0.0161 -0.61382,-0.13609 -0.094,-0.15215 -0.6696,-0.26863 -1.27903,-0.25884 -0.60944,0.01 -1.47361,-0.0358 -1.92038,-0.10134 -0.44677,-0.0655 -1.29684,-0.36633 -1.88903,-0.66844 -0.67426,-0.34398 -1.17226,-0.82482 -1.33234,-1.28642 -0.1406,-0.40542 -0.17151,-0.97525 -0.0687,-1.2663 0.10283,-0.29104 0.31866,-0.52916 0.47963,-0.52916 0.16097,0 0.46705,-0.23813 0.68017,-0.52917 l 0.3875,-0.52917 1.90469,0.0359 c 1.14225,0.0215 1.98199,0.16096 2.09778,0.34832 0.10619,0.17183 0.37751,0.33948 0.60292,0.37257 0.22542,0.0331 0.57068,0.18685 0.76727,0.34172 0.19658,0.15486 1.48851,0.47337 2.87096,0.7078 1.38245,0.23442 4.18042,0.73025 6.21771,1.10184 2.03729,0.37159 4.71619,0.85848 5.95312,1.08199 1.23693,0.22351 3.0824,0.5731 4.10104,0.77688 1.01865,0.20378 4.65006,0.91277 8.0698,1.57555 3.41974,0.66277 6.51536,1.26916 6.87916,1.34752 0.3638,0.0784 1.43537,0.26089 2.38125,0.40561 0.94589,0.14472 3.38667,0.55937 5.42396,0.92144 2.03729,0.36208 4.47807,0.84279 5.42396,1.06826 0.94588,0.22546 2.34487,0.51903 3.10885,0.65237 0.76399,0.13334 2.01414,0.35471 2.77813,0.49193 0.76398,0.13723 2.46062,0.43445 3.77031,0.66049 1.30969,0.22604 3.15516,0.58957 4.10104,0.80784 0.94589,0.21827 3.14854,0.68818 4.89479,1.04424 1.74625,0.35606 3.591723,0.71716 4.101046,0.80245 0.509323,0.0853 2.116666,0.403 3.571875,0.70601 1.455208,0.30301 2.943489,0.58673 3.307291,0.6305 0.363803,0.0438 1.613959,0.26754 2.778125,0.49728 1.164167,0.22975 2.557191,0.52398 3.095608,0.65385 0.538418,0.12988 1.044613,0.17047 1.124878,0.0902 0.08026,-0.0803 0.413648,-0.011 0.740851,0.15384 0.327202,0.16487 2.678507,0.72995 5.225122,1.25574 2.546615,0.52578 5.761302,1.17257 7.14375,1.4373 1.382448,0.26473 4.418542,0.8482 6.746875,1.2966 2.328333,0.4484 5.245365,1.0087 6.482292,1.24512 1.236927,0.23642 2.665677,0.52716 3.175,0.64608 0.509323,0.11893 2.202128,0.48752 3.76179,0.81909 1.559661,0.33157 2.927101,0.51151 3.038755,0.39986 0.111654,-0.11166 -0.09287,-0.43434 -0.454498,-0.71708 -0.361628,-0.28274 -1.873245,-1.10688 -3.35915,-1.83142 -1.485904,-0.72455 -3.844801,-2.09242 -5.241994,-3.03971 -1.397192,-0.9473 -2.648941,-1.72236 -2.781665,-1.72236 -0.132724,0 -0.418811,-0.34324 -0.635749,-0.76275 -0.216938,-0.41951 -0.666479,-0.83588 -0.998982,-0.92525 -0.332502,-0.0894 -0.879598,-0.37713 -1.21577,-0.63946 -0.336171,-0.26232 -0.706997,-0.9016 -0.824057,-1.42063 -0.117157,-0.51946 -0.106492,-1.13371 0.02373,-1.3664 0.130108,-0.23249 0.294212,-4.04482 0.364675,-8.47184 l 0.128115,-8.04913 -1.128118,-0.4517 c -0.620466,-0.24843 -1.638806,-0.45954 -2.26298,-0.46912 -0.624173,-0.01 -1.196746,-0.11756 -1.272385,-0.23995 -0.07564,-0.12239 -0.503638,-0.22252 -0.95111,-0.22252 -0.447471,0 -1.244116,-0.1142 -1.770322,-0.25378 -0.526206,-0.13957 -3.218926,-0.67558 -5.983822,-1.19111 -2.764896,-0.51554 -5.860521,-1.10572 -6.879167,-1.31152 -1.018646,-0.20581 -2.625989,-0.50984 -3.571875,-0.67563 -0.945885,-0.16579 -2.672292,-0.4819 -3.836458,-0.70245 -1.164167,-0.22056 -2.711979,-0.50169 -3.439584,-0.62474 -0.727604,-0.12304 -2.394479,-0.4243 -3.704166,-0.66947 -1.309686,-0.24517 -2.738436,-0.49656 -3.174996,-0.55866 -0.43656,-0.0621 -1.98437,-0.34132 -3.43958,-0.62052 -1.45521,-0.27919 -4.43177,-0.82098 -6.61459,-1.20399 -2.18281,-0.383 -4.56406,-0.81633 -5.29166,-0.96296 -0.72761,-0.14662 -2.03729,-0.3749 -2.91042,-0.50728 -0.87312,-0.13238 -2.12328,-0.35294 -2.77812,-0.49013 -0.65485,-0.13719 -2.97657,-0.56297 -5.15938,-0.94617 -2.18281,-0.3832 -5.21891,-0.90738 -6.74687,-1.16483 -1.52797,-0.25746 -4.68313,-0.78883 -7.01146,-1.18083 -2.32834,-0.392 -4.94771,-0.88124 -5.82084,-1.08721 -0.87312,-0.20597 -2.71859,-0.50845 -4.10104,-0.67219 -1.38245,-0.16374 -2.75166,-0.39129 -3.04271,-0.50567 -0.29104,-0.11437 -0.95433,-0.34351 -1.47399,-0.5092 -0.51965,-0.16568 -1.35309,-0.30191 -1.85208,-0.30272 -0.49899,-8.1e-4 -1.34078,-0.12189 -1.87063,-0.26906 -0.52986,-0.14718 -1.95861,-0.30777 -3.175,-0.35687 -1.2164,-0.0491 -2.7268,0.0396 -3.35646,0.19709 l -1.14483,0.28637 -1.02426,-0.58949 c -0.56335,-0.32421 -1.18292,-0.58948 -1.37685,-0.58948 -0.19392,0 -0.48785,-0.35833 -0.65315,-0.79628 -0.19896,-0.52708 -0.21913,-1.09127 -0.0597,-1.66883 0.13251,-0.4799 0.60503,-1.14174 1.05006,-1.47076 0.44502,-0.32902 1.42802,-0.80139 2.18444,-1.04971 0.88507,-0.29055 1.73401,-0.39245 2.38156,-0.28586 0.55344,0.0911 1.35539,0.42376 1.78212,0.73925 0.42672,0.3155 1.08315,0.69046 1.45874,0.83325 0.37557,0.1428 1.53815,0.45048 2.58349,0.68375 1.04536,0.23327 2.79363,0.57881 3.88503,0.76786 1.0914,0.18906 3.11547,0.53546 4.49791,0.76978 1.38245,0.23432 3.04932,0.54683 3.70417,0.69446 0.65485,0.14763 2.38125,0.49341 3.83646,0.7684 1.45521,0.27498 3.71739,0.69363 5.02708,0.93032 1.30969,0.2367 3.21469,0.59721 4.23333,0.80114 1.01865,0.20393 2.86413,0.56491 4.10105,0.80218 1.23692,0.23726 3.61817,0.65298 5.29166,0.92381 1.67349,0.27083 4.41193,0.74281 6.08542,1.04883 1.67349,0.30603 3.57849,0.66432 4.23333,0.79621 0.65485,0.13188 2.8575,0.54065 4.89479,0.90838 2.0373,0.36773 4.53761,0.84959 5.55625,1.0708 1.01865,0.22122 3.16177,0.63988 4.762509,0.93037 1.600729,0.29049 4.577292,0.83024 6.614583,1.19945 2.037292,0.3692 4.716198,0.85064 5.953126,1.06986 1.236927,0.21921 4.927864,0.91942 8.202083,1.55602 3.274219,0.63659 7.084219,1.35847 8.466667,1.60416 1.382448,0.24569 3.145452,0.56739 3.917788,0.71489 0.772335,0.1475 1.481731,0.19069 1.576434,0.096 0.0947,-0.0947 0.123571,-1.86389 0.06415,-3.93152 -0.05942,-2.06763 -0.106953,-5.54526 -0.105626,-7.72808 0.0013,-2.18281 0.144559,-4.92125 0.318293,-6.08541 0.173733,-1.16417 0.378816,-4.55745 0.455739,-7.54063 0.07692,-2.98317 0.234197,-6.05187 0.349498,-6.81932 0.138061,-0.91893 0.112636,-1.47586 -0.07446,-1.63112 -0.156257,-0.12967 -1.177072,-0.31652 -2.268478,-0.41523 -1.091406,-0.0987 -2.460625,-0.30234 -3.042708,-0.4525 -0.582084,-0.15016 -1.83224,-0.37315 -2.778125,-0.49553 -0.945886,-0.12239 -2.910417,-0.39833 -4.365625,-0.61321 -1.455209,-0.21488 -3.41974,-0.57068 -4.365625,-0.79067 -0.945886,-0.21999 -2.55323,-0.51731 -3.571875,-0.66072 -1.018646,-0.1434 -3.042709,-0.44207 -4.497917,-0.66371 -1.455209,-0.22164 -3.717396,-0.59781 -5.027084,-0.83592 -1.309687,-0.23811 -2.8575,-0.46745 -3.439583,-0.50964 -0.582083,-0.0422 -1.869923,-0.21251 -2.861866,-0.37849 -0.991938,-0.16599 -2.539758,-0.46192 -3.439578,-0.65762 -0.89983,-0.19571 -2.16327,-0.37683 -2.80764,-0.40249 -0.64437,-0.0257 -1.29114,-0.12055 -1.43726,-0.21085 -0.14612,-0.0903 -0.57141,-0.19366 -0.94508,-0.22967 -0.37368,-0.036 -1.69144,-0.25676 -2.92837,-0.49056 -1.23692,-0.23381 -3.66647,-0.65996 -5.39898,-0.94701 -1.73251,-0.28706 -3.75657,-0.58691 -4.49791,-0.66635 -0.74135,-0.0794 -2.00274,-0.25023 -2.80311,-0.37953 -0.80036,-0.1293 -2.05052,-0.35868 -2.77812,-0.50974 -0.72761,-0.15106 -2.51354,-0.46811 -3.96875,-0.70457 -1.45521,-0.23645 -3.89599,-0.60242 -5.42396,-0.81327 -1.52797,-0.21085 -3.07578,-0.41832 -3.43958,-0.46104 -0.36381,-0.0427 -0.90001,-0.15519 -1.19158,-0.24993 -0.29156,-0.0947 -1.54171,-0.28843 -2.77812,-0.43043 -1.23641,-0.142 -2.84333,-0.38477 -3.57093,-0.53948 -0.7276,-0.15472 -2.6326,-0.46792 -4.23333,-0.69601 -1.60073,-0.22809 -3.20808,-0.44455 -3.57188,-0.48102 -0.3638,-0.0365 -1.73302,-0.25955 -3.04271,-0.49574 -1.30968,-0.23619 -3.81,-0.60863 -5.55625,-0.82766 -1.74625,-0.21902 -3.59172,-0.44981 -4.10104,-0.51285 -0.50932,-0.063 -1.40229,-0.23687 -1.98437,-0.38629 -0.58209,-0.14941 -2.30849,-0.46655 -3.83646,-0.70476 -1.52797,-0.2382 -3.66004,-0.52969 -4.73792,-0.64775 l -1.9598,-0.21467 -0.48544,-0.62639 c -0.33717,-0.43506 -0.43776,-0.86882 -0.32933,-1.42013 0.0858,-0.43657 0.31493,-1.04514 0.50906,-1.35238 0.21857,-0.34592 0.78796,-0.64165 1.49539,-0.77668 0.62833,-0.11993 1.32101,-0.20259 1.53929,-0.1837 0.21828,0.0189 1.17078,0.11004 2.11667,0.20255 0.94588,0.0925 1.95791,0.17059 2.24895,0.1735 0.29105,0.003 1.18401,0.12974 1.98438,0.28184 0.80036,0.15209 2.34151,0.26778 3.42478,0.25709 1.12894,-0.0112 2.4276,0.14776 3.04271,0.3723 0.59022,0.21546 1.78751,0.50571 2.66063,0.64499 0.87313,0.13929 2.18282,0.36312 2.91042,0.4974 0.7276,0.13428 1.79917,0.31717 2.38125,0.40643 0.58208,0.0893 2.66568,0.43676 4.63021,0.77223 1.96453,0.33547 3.86953,0.61579 4.23333,0.62293 0.3638,0.007 2.68552,0.37737 5.15938,0.82274 2.47385,0.44536 5.50995,0.99917 6.74687,1.23068 1.23693,0.23152 3.43959,0.58419 4.89479,0.78372 1.45521,0.19952 4.07459,0.55818 5.82084,0.79701 1.74625,0.23883 3.54064,0.54571 3.98753,0.68194 0.4469,0.13623 1.12242,0.2477 1.50117,0.2477 0.37875,0 1.26327,0.11297 1.96559,0.25105 0.70233,0.13807 2.46758,0.42867 3.92279,0.64577 1.45521,0.2171 5.20568,0.81835 8.33438,1.33612 3.12869,0.51776 6.521975,1.07068 7.540621,1.2287 1.018646,0.15802 2.328333,0.38064 2.910416,0.49471 0.582084,0.11408 3.380053,0.57799 6.217709,1.03092 2.837656,0.45293 6.052344,1.01571 7.14375,1.25061 1.091406,0.2349 2.103437,0.39494 2.248958,0.35564 0.145521,-0.0393 1.098021,0.0162 2.116667,0.1234 1.018646,0.10717 2.685521,0.37741 3.704167,0.60054 1.018645,0.22312 2.447395,0.50052 3.175,0.61643 0.727604,0.11591 2.632604,0.45967 4.233333,0.76391 l 2.910417,0.55317 0.336567,-0.45071 c 0.185112,-0.24788 0.267611,-0.6304 0.18333,-0.85003 -0.08428,-0.21963 -0.0197,-1.71133 0.143503,-3.31489 0.163207,-1.60355 0.600931,-4.82055 0.972719,-7.14888 0.371788,-2.32834 0.703437,-5.57816 0.736997,-7.22184 l 0.06102,-2.9885 -0.539485,-0.28872 c -0.296716,-0.1588 -0.996232,-0.28873 -1.55448,-0.28873 -0.558248,0 -1.078546,-0.10282 -1.156219,-0.2285 -0.07767,-0.12568 -0.447804,-0.2285 -0.822515,-0.2285 -0.374711,0 -1.111825,-0.11508 -1.638031,-0.25573 -0.526206,-0.14066 -2.266426,-0.49038 -3.867155,-0.77716 -1.60073,-0.28679 -3.089011,-0.5146 -3.307292,-0.50624 -0.218281,0.008 -1.5875,-0.24185 -3.042708,-0.556 -1.455209,-0.31415 -2.94349,-0.61739 -3.307292,-0.67387 -0.363802,-0.0565 -1.852083,-0.30374 -3.307292,-0.54947 -1.455208,-0.24574 -3.181614,-0.54968 -3.836458,-0.67544 -0.654844,-0.12575 -2.500313,-0.45724 -4.101042,-0.73663 -1.600729,-0.27939 -2.991486,-0.45847 -3.090572,-0.39795 -0.09908,0.0605 -0.25494,-0.011 -0.346344,-0.15887 -0.0914,-0.14789 -0.469304,-0.26889 -0.839779,-0.26889 -0.370475,0 -1.941027,-0.24013 -3.490115,-0.53362 -1.549085,-0.29348 -3.471365,-0.64497 -4.271735,-0.78107 -0.80036,-0.1361 -2.64583,-0.43589 -4.10104,-0.66619 -1.45521,-0.23031 -3.18161,-0.54274 -3.83646,-0.69428 -0.65484,-0.15155 -2.20265,-0.44961 -3.43958,-0.66237 -1.23693,-0.21275 -3.32052,-0.57645 -4.63021,-0.80822 -1.30969,-0.23177 -2.79797,-0.44331 -3.30729,-0.47009 -0.50932,-0.0268 -1.10464,-0.12101 -1.32292,-0.20939 -0.21828,-0.0884 -0.99219,-0.28519 -1.71979,-0.43736 -0.7276,-0.15217 -2.6326,-0.47376 -4.23333,-0.71464 -1.60073,-0.24088 -3.56526,-0.53584 -4.36563,-0.65547 -0.80036,-0.11963 -4.55083,-0.7679 -8.33437,-1.44061 -3.78354,-0.67271 -7.95073,-1.37974 -9.26042,-1.57118 -1.30969,-0.19144 -3.92906,-0.60178 -5.82083,-0.91187 -1.89177,-0.31009 -5.18511,-0.86456 -7.31853,-1.23216 -2.13342,-0.36759 -4.99092,-0.79352 -6.35,-0.94649 -1.35908,-0.15298 -3.56792,-0.20955 -4.90852,-0.12572 l -2.43747,0.15243 -0.66142,-0.59117 c -0.36379,-0.32514 -0.72938,-0.88882 -0.81243,-1.25262 l -0.15099,-0.66146 1.10086,-1.12791 c 0.60547,-0.62036 1.41308,-1.20232 1.79468,-1.29326 0.3816,-0.0909 0.81695,-0.26123 0.96745,-0.37845 0.1505,-0.11721 0.68628,-0.11484 1.19063,0.005 0.50434,0.12011 1.27417,0.36421 1.71074,0.54244 0.43656,0.17823 1.56765,0.49756 2.51354,0.70963 0.94588,0.21207 3.14854,0.61233 4.89479,0.88946 1.74625,0.27714 3.41313,0.56162 3.70417,0.63219 0.29104,0.0706 1.83885,0.32349 3.43958,0.56206 1.60073,0.23856 3.56526,0.59402 4.36563,0.78991 0.80036,0.19588 2.82442,0.60248 4.49791,0.90355 1.67349,0.30106 5.36443,0.95443 8.20209,1.45192 2.83765,0.49749 6.76671,1.15669 8.73125,1.46488 1.96453,0.30819 4.88156,0.79252 6.48229,1.07628 1.60073,0.28375 3.62479,0.63713 4.49791,0.78526 0.87313,0.14814 3.25438,0.56368 5.29167,0.92343 2.03729,0.35974 4.35901,0.77309 5.15938,0.91854 0.80036,0.14546 2.76489,0.49494 4.36562,0.77662 1.60073,0.28168 4.10104,0.71245 5.55625,0.95727 1.45521,0.24482 4.193648,0.72776 6.085418,1.0732 1.891771,0.34543 5.16599,0.92165 7.276042,1.28048 2.110052,0.35883 4.788959,0.83363 5.953125,1.0551 1.164167,0.22147 4.021667,0.71986 6.35,1.10753 2.328334,0.38766 5.066771,0.86758 6.085417,1.06648 1.018646,0.1989 3.284744,0.59424 5.035775,0.87853 1.75103,0.28429 3.369064,0.58802 3.595631,0.67496 0.226566,0.087 0.534235,0.004 0.683707,-0.18469 0.149473,-0.18852 0.352546,-0.99761 0.451274,-1.79798 0.09873,-0.80036 0.594155,-3.31117 1.100949,-5.57958 0.506794,-2.26841 1.026267,-5.3045 1.154383,-6.74688 0.128116,-1.44237 0.593803,-4.40843 1.034861,-6.59125 0.441057,-2.18281 0.874151,-4.98078 0.962429,-6.2177 0.08828,-1.23693 0.517349,-3.91584 0.953488,-5.95313 0.436139,-2.03729 0.996217,-4.11645 1.244617,-4.62035 l 0.451636,-0.91619 1.65243,-0.33238 1.65243,-0.33238 0.861112,0.4938 c 0.473611,0.27158 1.158768,0.58243 1.52257,0.69078 0.363802,0.10834 1.494896,0.92876 2.513542,1.82315 1.018645,0.89439 2.307386,1.96185 2.863868,2.37214 0.556482,0.41028 1.7225,1.42019 2.59115,2.24423 0.86865,0.82405 3.092253,2.43577 4.941339,3.58161 1.849087,1.14584 4.374007,2.76053 5.610934,3.58821 1.236927,0.82769 2.903802,1.86896 3.704167,2.31394 0.800365,0.44499 3.222967,1.71352 5.383562,2.81897 2.160594,1.10545 4.541844,2.45184 5.291666,2.99198 0.749823,0.54014 2.075631,1.58357 2.94624,2.31874 0.87061,0.73517 1.934962,1.63432 2.3652271,1.99813 0.4302653,0.3638 1.5038859,1.31079 2.3858236,2.10443 0.8819377,0.79363 1.7225856,1.57363 1.8681065,1.73332 0.1455208,0.1597 0.8492011,0.75435 1.5637339,1.32145 0.7145329,0.5671 3.0049247,2.58507 5.0897595,4.48438 2.0848349,1.89931 4.9530297,4.49042 6.3737661,5.75802 1.4207365,1.2676 3.3570633,2.90629 4.3029493,3.64153 0.945885,0.73524 1.838854,1.46546 1.984375,1.6227 0.14552,0.15724 0.611148,0.60215 1.034728,0.98868 0.42358,0.38653 1.820245,1.63079 3.103699,2.76503 l 2.333554,2.06226 1.791093,-0.24977 1.791092,-0.24976 1.059002,0.60768 c 0.58245,0.33423 1.773075,0.69258 2.645833,0.79633 0.872758,0.10375 2.301207,0.34332 3.174332,0.53236 0.873125,0.18905 2.420938,0.42237 3.439583,0.51849 1.018646,0.0961 3.035348,0.41141 4.48156,0.70064 1.446212,0.28923 2.701791,0.57056 2.790176,0.62519 0.08838,0.0546 1.405432,0.35126 2.926773,0.65919 1.521341,0.30793 5.206856,0.97435 8.190033,1.48094 2.983177,0.50658 6.190144,1.04931 7.126592,1.20605 l 1.702634,0.28499 0.308511,-0.42191 c 0.169681,-0.23205 0.380233,-1.46519 0.467895,-2.7403 0.08766,-1.27511 0.392571,-3.38995 0.677577,-4.69963 0.285006,-1.30969 0.652582,-3.63141 0.816835,-5.15938 0.164253,-1.52797 0.408746,-4.80219 0.543318,-7.27604 0.134572,-2.47385 0.439681,-5.68854 0.678019,-7.14375 l 0.433343,-2.64583 -0.155722,-4.82483 c -0.10397,-3.22132 -0.06054,-5.03371 0.130662,-5.45337 0.157512,-0.3457 0.695564,-0.82367 1.195671,-1.06215 0.500107,-0.23849 1.130632,-0.43361 1.401168,-0.43361 0.270535,0 0.551889,-0.15638 0.62523,-0.3475 0.07334,-0.19112 0.07475,-0.65403 0.0031,-1.02868 -0.07162,-0.37466 0.0021,-0.92846 0.16386,-1.23068 0.161743,-0.30222 0.774973,-0.69357 1.362735,-0.86966 l 1.068657,-0.32018 1.374422,0.34783 1.374421,0.34782 1.455208,1.4951 c 0.800365,0.82231 2.288646,2.26219 3.307292,3.19973 1.018646,0.93754 3.171114,2.89725 4.783262,4.3549 1.612149,1.45765 4.52918,4.0365 6.482292,5.73077 1.953112,1.69427 4.503613,3.7942 5.667779,4.66651 1.164167,0.87231 3.604597,3.17703 5.423178,5.12159 1.81858,1.94457 4.88658,5.14292 6.81778,7.10745 1.9312,1.96453 4.05461,4.40531 4.7187,5.42396 0.66408,1.01864 1.4724,2.14974 1.79626,2.51354 0.32387,0.3638 0.93687,1.19724 1.36223,1.85208 0.42537,0.65485 0.98431,1.65054 1.24211,2.21265 0.25779,0.56211 0.84422,1.60153 1.30318,2.30982 l 0.83446,1.2878 0.62032,-0.15569 c 0.34118,-0.0856 0.62032,-0.0816 0.62032,0.009 0,0.0905 -0.14455,0.39603 -0.32123,0.67894 l -0.32123,0.51437 0.56166,0.60652 c 0.30892,0.33358 1.3493,2.18409 2.31197,4.11224 0.96266,1.92815 1.85357,3.50573 1.9798,3.50573 0.12622,0 0.42005,0.47625 0.65296,1.05834 0.2329,0.58208 0.53505,1.05833 0.67144,1.05833 0.13639,0 0.60203,0.52461 1.03476,1.16579 0.43273,0.64119 0.85562,1.38533 0.93975,1.65365 0.0864,0.27549 -0.24943,1.40921 -0.77146,2.60452 -0.66539,1.52358 -0.99927,2.78388 -1.19159,4.49791 -0.14695,1.30969 -0.36422,4.46485 -0.48282,7.01146 l -0.21563,4.63021 0.60664,0.52917 c 0.40521,0.35346 1.51106,0.68844 3.3305,1.00887 1.49812,0.26384 3.14058,0.58238 3.6499,0.70787 0.50932,0.12549 1.58089,0.35249 2.38125,0.50445 0.80037,0.15196 2.28865,0.41457 3.30729,0.58357 1.01865,0.16901 3.57849,0.65295 5.68854,1.07542 2.11006,0.42247 4.96035,0.95469 6.33398,1.18272 l 2.49752,0.41459 0.34675,-0.47421 0.34675,-0.47421 0.005,-5.83641 c 0.003,-3.21003 0.12293,-6.61032 0.26668,-7.5562 0.14375,-0.94589 0.38511,-2.61276 0.53637,-3.70417 0.15126,-1.09141 0.38656,-2.99641 0.5229,-4.23333 0.13633,-1.23693 0.36892,-4.94082 0.51686,-8.23087 0.14793,-3.29005 0.57247,-8.35021 0.94342,-11.24479 0.37095,-2.89459 0.78402,-6.35913 0.91795,-7.69899 0.13393,-1.33985 0.30195,-2.70907 0.37339,-3.04271 0.0714,-0.33363 0.20627,-1.85676 0.29963,-3.38473 0.0933,-1.52797 0.20216,-3.10554 0.24179,-3.50573 0.0396,-0.40018 0.0869,-0.89769 0.10512,-1.10558 0.0182,-0.20788 0.22017,-0.56507 0.44885,-0.79375 0.22867,-0.22867 0.76446,-0.41577 1.19062,-0.41577 0.42617,0 0.77485,-0.10545 0.77485,-0.23434 0,-0.12889 -0.17786,-0.57537 -0.39524,-0.99219 -0.21739,-0.41681 -0.39598,-0.97964 -0.39688,-1.25072 l -0.002,-0.49288 1.80366,0.10191 1.80365,0.10192 0.77603,0.64319 c 0.42682,0.35375 1.22727,1.21803 1.77878,1.92063 0.55151,0.7026 1.71125,1.79902 2.5772,2.43649 0.86595,0.63748 1.88821,1.53193 2.27168,1.98766 0.38348,0.45574 1.14874,1.05896 1.70059,1.34049 0.55184,0.28153 1.5489,0.88005 2.21567,1.33006 0.66678,0.45 1.21233,0.91205 1.21233,1.02677 0,0.11473 0.49431,0.77016 1.09848,1.45653 0.60416,0.68636 2.3008,2.27156 3.77031,3.52265 1.46951,1.2511 2.97559,2.58152 3.34684,2.9565 0.37126,0.37498 2.45238,2.34866 4.62471,4.38595 2.17233,2.0373 5.20233,4.88675 6.73332,6.33213 1.531,1.44538 3.73613,3.84858 4.9003,5.34044 1.16416,1.49187 3.36682,4.29751 4.89479,6.23476 1.52797,1.93725 3.26594,4.17748 3.86216,4.9783 0.59621,0.80082 1.35524,1.69417 1.68672,1.98521 0.33148,0.29104 1.3281,1.42213 2.21471,2.51354 0.88661,1.09141 2.15164,2.52431 2.81119,3.18423 0.65955,0.65992 1.47101,1.61242 1.80325,2.11666 0.33224,0.50425 1.47127,2.10744 2.53118,3.56265 1.05991,1.45521 2.09777,2.77858 2.30634,2.94083 0.20858,0.16225 0.91502,0.37984 1.56986,0.48354 0.65485,0.1037 1.39899,0.20483 1.65365,0.22472 0.25466,0.0199 0.46302,0.23887 0.46302,0.4866 0,0.24773 -0.11851,0.49011 -0.26336,0.53862 -0.14484,0.0485 -0.51863,0.74303 -0.83064,1.5434 -0.312,0.80036 -0.64503,2.28865 -0.74005,3.30729 -0.095,1.01865 -0.16773,3.04271 -0.16155,4.49792 l 0.0112,2.64583 1.52135,0.24126 c 0.83675,0.1327 1.52136,0.34106 1.52136,0.46302 0,0.12197 0.50601,0.22182 1.12447,0.2219 0.61847,7e-5 1.75084,0.23819 2.51638,0.52916 0.76555,0.29097 1.77758,0.53184 2.24896,0.53526 0.47138,0.003 1.75003,0.25354 2.84144,0.5558 1.0914,0.30226 2.34156,0.57343 2.77812,0.6026 0.43656,0.0292 1.05514,0.19649 1.37462,0.37183 0.31948,0.17533 2.40308,0.61789 4.63021,0.98346 2.22714,0.36557 4.94231,0.83343 6.03371,1.03968 1.09141,0.20626 2.75828,0.50128 3.70417,0.6556 0.94588,0.15432 2.91042,0.46387 4.36562,0.68787 1.45521,0.22401 3.95552,0.69617 5.55625,1.04926 1.60073,0.35308 3.86292,0.65864 5.02709,0.67901 1.16416,0.0204 3.06916,-0.0202 4.23333,-0.0901 1.16417,-0.07 2.83104,-0.018 3.70417,0.11543 0.87312,0.13342 1.79586,0.30563 2.05052,0.38268 0.3086,0.0934 0.46302,-0.003 0.46302,-0.29023 0,-0.23668 -0.47653,-1.41484 -1.05896,-2.61813 -0.58242,-1.20329 -1.35633,-2.46717 -1.71979,-2.80862 -0.36346,-0.34146 -0.66083,-0.71757 -0.66083,-0.83582 0,-0.11825 -1.17973,-1.97273 -2.62162,-4.12107 -1.44189,-2.14834 -3.30817,-5.21576 -4.14728,-6.81649 -0.83912,-1.60073 -1.86205,-3.40811 -2.27318,-4.01642 -0.41113,-0.6083 -0.74751,-1.34079 -0.74751,-1.62776 0,-0.34735 0.27853,-0.61885 0.83323,-0.81222 0.45828,-0.15976 1.155,-0.29047 1.54826,-0.29047 0.43317,0 1.04174,0.31222 1.54384,0.79206 0.45585,0.43563 1.26137,1.65602 1.79005,2.71198 0.52868,1.05595 1.5795,2.81289 2.33516,3.90429 0.75565,1.09141 1.81572,2.71838 2.3557,3.61549 0.53998,0.89711 1.48962,2.2068 2.11031,2.91042 0.62068,0.70361 1.32894,1.57696 1.5739,1.94076 0.24496,0.3638 0.7988,1.13771 1.23075,1.71979 0.43195,0.58208 1.35141,1.99098 2.04324,3.13088 l 1.25786,2.07254 1.66906,0.8138 c 0.91798,0.44759 1.66484,0.9437 1.65968,1.10246 -0.005,0.15876 -0.17594,0.58631 -0.37951,0.95011 -0.23287,0.41614 -0.31704,1.05762 -0.22697,1.72963 l 0.14318,1.06818 -1.08734,0.98235 c -0.59804,0.54029 -1.27978,0.98234 -1.51499,0.98234 -0.2352,0 -1.11994,0.42055 -1.96609,0.93456 -0.93619,0.5687 -3.72038,3.10102 -7.11221,6.46878 -3.06558,3.04383 -5.57377,5.60343 -5.57377,5.688 0,0.0846 -0.65393,0.95385 -1.45318,1.93173 -0.79924,0.97789 -1.66245,2.01426 -1.91823,2.30306 -0.25578,0.2888 -0.97807,1.15256 -1.60509,1.91948 -0.62701,0.76691 -1.50527,1.58326 -1.95167,1.8141 -0.58606,0.30307 -1.2424,0.38131 -2.36156,0.28151 -0.85246,-0.076 -1.67085,-0.21295 -1.81864,-0.30429 -0.1478,-0.0913 -0.26872,-0.61924 -0.26872,-1.17311 0,-0.6206 0.21203,-1.27659 0.55253,-1.70946 0.30389,-0.38634 0.86944,-0.86895 1.25677,-1.07248 0.38733,-0.20353 1.5723,-1.22685 2.63325,-2.27406 1.06095,-1.0472 2.39849,-2.57494 2.9723,-3.39497 0.57381,-0.82004 2.49549,-2.86019 4.27039,-4.53368 1.77491,-1.67349 4.00925,-3.81265 4.96521,-4.75368 l 1.73809,-1.71098 -3.0427,-0.21734 c -2.0182,-0.14416 -3.13395,-0.33709 -3.31368,-0.57297 -0.14903,-0.19559 -0.97644,-0.50207 -1.83869,-0.68108 -0.86226,-0.179 -1.81189,-0.41979 -2.11029,-0.5351 -0.2984,-0.1153 -1.1974,-0.33556 -1.99776,-0.48947 -0.80037,-0.15391 -2.52677,-0.45837 -3.83646,-0.67657 -1.30969,-0.21821 -2.73844,-0.44878 -3.175,-0.51238 -0.43656,-0.0636 -2.46062,-0.43231 -4.49792,-0.81934 -2.03729,-0.38704 -4.89479,-0.87538 -6.35,-1.0852 -1.4552,-0.20983 -2.82442,-0.45276 -3.0427,-0.53985 -0.21829,-0.0871 -1.52797,-0.30726 -2.91042,-0.48926 -1.38245,-0.182 -2.96089,-0.27616 -3.50765,-0.20926 -0.64565,0.079 -1.22203,-0.0277 -1.64434,-0.30439 -0.4178,-0.27376 -1.22571,-0.42605 -2.26018,-0.42605 -0.93644,0 -1.94161,-0.17151 -2.40275,-0.40998 -0.46427,-0.24007 -1.3634,-0.39223 -2.16968,-0.36716 -0.75727,0.0236 -1.87701,-0.0756 -2.4883,-0.22042 -0.61129,-0.14479 -1.18104,-0.19364 -1.26612,-0.10856 -0.0851,0.0851 -0.56719,0.1269 -1.07137,0.0929 -0.50418,-0.034 -0.9249,0.0313 -0.93492,0.14499 -0.01,0.1137 -0.0549,0.50438 -0.0996,0.86818 -0.0448,0.3638 -0.15907,2.92365 -0.25402,5.68854 -0.095,2.7649 -0.29281,6.21771 -0.43968,7.67292 -0.14688,1.45521 -0.56629,4.6699 -0.93203,7.14375 -0.36574,2.47386 -0.77717,5.09323 -0.91429,5.82083 -0.13712,0.72761 -0.37622,2.87073 -0.53133,4.7625 -0.15512,1.89178 -0.38818,3.91584 -0.51793,4.49792 -0.12974,0.58208 -0.42215,3.20146 -0.64979,5.82083 -0.22765,2.61938 -0.59145,5.95313 -0.80846,7.40834 -0.217,1.45521 -0.39373,3.13688 -0.39271,3.73705 0.001,0.60016 -0.1603,1.55266 -0.35847,2.11666 -0.19817,0.564 -0.4455,1.85889 -0.54962,2.87754 -0.10412,1.01864 -0.3461,2.32833 -0.53774,2.91041 -0.19164,0.58209 -0.59063,2.90381 -0.88664,5.15938 -0.29601,2.25557 -0.65767,5.64885 -0.80368,7.54062 -0.146,1.89178 -0.28897,4.09443 -0.3177,4.8948 -0.0287,0.80036 -0.0874,1.99099 -0.13045,2.64583 -0.043,0.65484 -0.2139,1.905 -0.37974,2.77812 -0.16584,0.87313 -0.32604,2.89719 -0.35601,4.49792 -0.03,1.60073 -0.14635,3.05594 -0.25862,3.2338 -0.11228,0.17785 -0.36993,1.24942 -0.57257,2.38125 -0.20264,1.13183 -0.49271,2.65318 -0.64461,3.38079 -0.15189,0.7276 -0.45248,2.35901 -0.66796,3.62536 -0.21548,1.26635 -0.71031,2.93323 -1.09961,3.70417 -0.38931,0.77094 -0.98951,1.73827 -1.33379,2.14962 -0.34427,0.41135 -0.62596,0.91929 -0.62596,1.12876 0,0.20947 -0.41671,0.57957 -0.92604,0.82245 -0.50932,0.24288 -0.92604,0.53861 -0.92604,0.65718 0,0.11857 -0.26789,0.20189 -0.59531,0.18515 -0.32742,-0.0167 -1.03155,-0.11539 -1.56473,-0.21923 z m 1.31194,-5.10881 c 0.15127,-0.18227 0.53181,-0.98284 0.84564,-1.77904 0.31384,-0.79621 0.67483,-2.2842 0.80221,-3.30664 0.12738,-1.02243 0.40073,-3.0496 0.60744,-4.50481 0.20671,-1.45521 0.39156,-4.43177 0.41076,-6.61458 0.0192,-2.18281 0.14289,-4.26641 0.27484,-4.63021 0.13196,-0.3638 0.37247,-2.38786 0.53448,-4.49792 0.162,-2.11005 0.34282,-4.61036 0.40182,-5.55625 0.059,-0.94588 0.22329,-3.05164 0.36508,-4.67945 0.1418,-1.62782 0.38782,-3.35422 0.54672,-3.83646 0.1589,-0.48224 0.46023,-1.94836 0.66963,-3.25805 0.20939,-1.30968 0.55986,-3.39328 0.77882,-4.6302 0.21897,-1.23693 0.51659,-2.60615 0.66139,-3.04271 0.1448,-0.43656 0.4436,-1.86531 0.664,-3.175 0.2204,-1.30969 0.53475,-3.92906 0.69855,-5.82084 0.16381,-1.89177 0.47863,-4.86833 0.69962,-6.61458 0.22099,-1.74625 0.49463,-3.82984 0.60808,-4.63021 0.11345,-0.80036 0.41094,-2.94349 0.66109,-4.7625 0.25015,-1.81901 0.80579,-5.45041 1.23476,-8.06979 0.42896,-2.61937 0.94747,-6.72703 1.15224,-9.12812 0.20477,-2.4011 0.50078,-7.63985 0.65781,-11.64167 0.15702,-4.00182 0.33251,-9.69453 0.38998,-12.65045 l 0.1045,-5.37441 -0.34946,-0.1341 c -0.19219,-0.0737 -0.90532,-1.01169 -1.58471,-2.0843 -0.6794,-1.07261 -1.31813,-1.98706 -1.41941,-2.03212 -0.10128,-0.0451 -0.65112,-0.73676 -1.22186,-1.53712 -0.57074,-0.80037 -1.6105,-2.07316 -2.31057,-2.82843 -0.70006,-0.75528 -1.27285,-1.50005 -1.27285,-1.65506 0,-0.15501 -1.10133,-1.5618 -2.44739,-3.1262 -1.34607,-1.5644 -3.01403,-3.55806 -3.70657,-4.43036 -0.69255,-0.87229 -2.21458,-2.83615 -3.38228,-4.36412 -1.16771,-1.52797 -2.32749,-3.03227 -2.57729,-3.3429 -0.2498,-0.31063 -0.6923,-0.89853 -0.98334,-1.30644 -0.29105,-0.40791 -1.00542,-1.32378 -1.5875,-2.03525 -0.58209,-0.71148 -1.35599,-1.6892 -1.7198,-2.1727 -0.3638,-0.4835 -1.97114,-2.11725 -3.57187,-3.63055 -1.60073,-1.51329 -3.98198,-3.81835 -5.29167,-5.12236 -1.30968,-1.304 -4.34578,-4.08206 -6.74687,-6.17346 -2.4011,-2.0914 -5.31813,-4.7913 -6.48229,-5.99977 -1.16417,-1.20848 -2.98022,-2.74009 -4.03567,-3.40357 -1.05544,-0.66349 -2.72232,-2.02611 -3.70416,-3.02804 -0.98185,-1.00194 -2.04524,-1.955 -2.36309,-2.11792 -0.31786,-0.16291 -0.70107,-0.2962 -0.85159,-0.2962 -0.15052,0 -0.21415,0.15512 -0.1414,0.34471 0.0728,0.1896 -0.0362,0.75514 -0.24219,1.25677 -0.20596,0.50163 -0.38444,1.62643 -0.39662,2.49956 -0.0122,0.87312 -0.14014,2.54 -0.28435,3.70416 -0.14422,1.16417 -0.38838,3.3073 -0.54259,4.7625 -0.1542,1.45521 -0.40558,3.65787 -0.55862,4.8948 -0.15304,1.23692 -0.3889,2.97263 -0.52413,3.85712 -0.13523,0.8845 -0.3079,3.26575 -0.38371,5.29167 -0.0758,2.02592 -0.26225,5.29084 -0.41429,7.25537 -0.15204,1.96453 -0.45933,5.53641 -0.68288,7.9375 -0.22355,2.4011 -0.44872,4.78235 -0.50038,5.29167 -0.0517,0.50932 -0.0963,1.93807 -0.0992,3.175 -0.003,1.23693 -0.003,3.95372 4.2e-4,6.03732 0.004,2.72025 0.0909,3.75997 0.30796,3.68763 0.16621,-0.0554 0.518,0.11507 0.78176,0.37883 0.26668,0.26667 0.86205,0.47955 1.3412,0.47955 0.4739,0 1.27758,0.12166 1.78594,0.27036 0.50836,0.1487 2.82929,0.63068 5.15763,1.07107 2.32833,0.44039 5.00724,0.91889 5.95312,1.06333 0.94589,0.14444 3.26761,0.54788 5.15938,0.89654 1.89177,0.34865 4.27302,0.71182 5.29166,0.80704 1.01865,0.0952 2.80459,0.39959 3.96875,0.67637 1.16417,0.27679 2.6765,0.50409 3.36073,0.50511 l 1.24406,0.002 0.86166,-1.25677 c 0.47391,-0.69123 0.95318,-1.37583 1.06503,-1.52136 0.11186,-0.14552 0.68233,-0.83737 1.26772,-1.53744 0.58539,-0.70008 1.06434,-1.38319 1.06434,-1.51804 0,-0.13484 0.47389,-0.54432 1.05308,-0.90995 0.57919,-0.36562 1.38844,-0.66477 1.79833,-0.66477 0.40989,0 2.1089,0.45836 3.77557,1.01859 1.66667,0.56023 3.50657,1.2637 4.08865,1.56327 0.58208,0.29957 1.37101,0.883 1.75318,1.29651 0.38217,0.41351 1.20039,1.50197 1.81827,2.41879 0.61788,0.91683 1.39764,2.53049 1.7328,3.58591 0.33515,1.05542 0.74101,2.86514 0.90189,4.02158 0.16088,1.15645 0.40505,2.57889 0.5426,3.16097 0.13755,0.58208 0.25293,1.45323 0.25641,1.93588 0.004,0.51585 -0.25098,1.2247 -0.61792,1.7198 -0.34333,0.46323 -1.07197,1.73521 -1.6192,2.82661 -0.54723,1.09141 -1.46016,2.64897 -2.02873,3.46125 -0.56858,0.81228 -1.35798,1.71183 -1.75424,1.999 -0.39626,0.28717 -1.12185,0.6848 -1.61243,0.88361 -0.49057,0.19881 -1.63303,0.35024 -2.5388,0.3365 -1.03944,-0.0158 -2.63089,-0.33068 -4.31479,-0.85383 -1.70152,-0.52862 -3.09001,-1.15114 -3.83313,-1.71856 -0.82489,-0.62985 -1.30216,-1.26307 -1.63413,-2.1681 -0.25791,-0.70313 -0.74773,-1.9973 -1.0885,-2.87593 -0.34076,-0.87864 -0.74508,-2.42646 -0.89848,-3.43959 -0.1534,-1.01313 -0.39209,-2.31831 -0.53042,-2.90039 -0.13833,-0.58208 -0.32216,-1.61103 -0.40852,-2.28654 l -0.15701,-1.22821 -0.58338,-0.13917 c -0.32086,-0.0765 -1.0712,-0.32066 -1.66742,-0.54249 -0.59623,-0.22183 -2.14404,-0.53686 -3.43959,-0.70006 -1.29555,-0.16321 -3.30804,-0.52296 -4.47221,-0.79946 -1.16417,-0.2765 -3.18823,-0.63522 -4.49792,-0.79716 -1.30968,-0.16193 -3.33375,-0.51724 -4.49791,-0.78958 -1.16417,-0.27233 -3.66448,-0.75209 -5.55625,-1.06612 -1.89177,-0.31403 -4.08992,-0.68299 -4.88477,-0.81991 -0.79485,-0.13692 -1.92594,-0.21357 -2.51354,-0.17033 l -1.06836,0.0786 0.0985,0.39688 c 0.0542,0.21828 0.15438,4.39003 0.22265,9.27054 l 0.12413,8.87367 -0.43764,5.28154 c -0.24071,2.90485 -0.54941,5.87685 -0.68601,6.60446 -0.13661,0.7276 -0.36383,2.6326 -0.50495,4.23333 -0.14111,1.60073 -0.32195,3.28139 -0.40186,3.7348 -0.0799,0.4534 -0.0774,1.00126 0.006,1.21747 0.10608,0.27644 0.51987,0.38512 1.39439,0.36624 0.68395,-0.0148 1.6305,-0.20473 2.10344,-0.42216 0.47294,-0.21742 0.85989,-0.5057 0.85989,-0.64062 0,-0.13492 -0.19281,-0.45837 -0.42847,-0.71877 l -0.42848,-0.47346 0.17774,-1.18526 0.17774,-1.18526 1.24293,-0.82518 1.24292,-0.82518 0.9169,0.17065 c 0.50429,0.0939 1.2537,0.34481 1.66534,0.55768 0.41165,0.21287 0.98087,0.76821 1.26493,1.23408 0.28406,0.46588 0.51692,1.17821 0.51747,1.58296 5.5e-4,0.41209 0.1771,0.80349 0.40123,0.8895 0.22013,0.0845 0.54756,0.0351 0.7276,-0.10961 0.18005,-0.14476 0.72108,-0.20311 1.20228,-0.12966 0.53881,0.0822 1.03893,0.38385 1.30184,0.78511 l 0.42693,0.65157 -0.34306,0.9487 c -0.18867,0.52178 -0.69138,1.53946 -1.11712,2.26151 l -0.77406,1.31282 0.26195,0.75144 c 0.15903,0.4562 0.17079,1.06931 0.0299,1.56045 -0.12761,0.44495 -0.2341,1.75605 -0.23664,2.91355 -0.003,1.1575 -0.1256,2.33059 -0.27345,2.60686 -0.14786,0.27627 -0.47765,0.58244 -0.73288,0.68038 -0.25522,0.0979 -1.19137,0.10018 -2.08032,0.005 l -1.61627,-0.17308 -0.30828,-0.85254 c -0.16955,-0.4689 -0.30828,-1.11571 -0.30828,-1.43737 0,-0.32166 -0.18619,-0.65628 -0.41375,-0.7436 -0.22756,-0.0873 -0.67404,-0.0355 -0.99218,0.11523 -0.31815,0.1507 -1.41188,1.03975 -2.43053,1.97567 l -1.85208,1.70168 -1.17506,0.0436 c -0.64628,0.024 -1.26954,0.19235 -1.38501,0.37421 -0.11547,0.18186 -0.21249,1.22362 -0.21559,2.31503 -0.003,1.0914 -0.0716,2.93687 -0.15211,4.10104 l -0.14647,2.11666 1.75601,1.85209 c 1.29045,1.36104 2.07616,2.51536 2.96353,4.35383 0.70806,1.46699 1.9034,3.34289 2.88996,4.53537 0.92535,1.11848 1.68245,2.15193 1.68245,2.29653 0,0.14461 1.55259,1.95329 3.45021,4.01928 1.89761,2.066 3.72585,4.01443 4.06274,4.32984 0.3369,0.31541 1.9617,2.18083 3.61067,4.14536 1.64897,1.96453 4.0009,4.64343 5.22651,5.95312 1.22562,1.30969 3.73346,3.96409 5.57298,5.89867 1.83953,1.93458 4.47569,4.62009 5.85814,5.9678 1.38245,1.3477 3.22791,3.105 4.10104,3.9051 0.87312,0.80009 1.88516,1.64335 2.24896,1.87391 0.3638,0.23055 2.14021,1.80174 3.94758,3.49154 1.80737,1.6898 3.4299,3.07236 3.60563,3.07236 0.17572,0 0.44326,-0.14913 0.59452,-0.33139 z M 191.8565,366.3035 c -0.55043,-0.13804 -1.32433,-0.41932 -1.71979,-0.62507 -0.39545,-0.20575 -0.98108,-0.65477 -1.30139,-0.99783 -0.32032,-0.34306 -0.83307,-1.19046 -1.13947,-1.88311 -0.30639,-0.69265 -0.79049,-2.64593 -1.07578,-4.34062 -0.28529,-1.6947 -0.69527,-3.84256 -0.91106,-4.77303 -0.21579,-0.93048 -0.39235,-2.21775 -0.39235,-2.86061 0,-0.64286 -0.18978,-2.11072 -0.42174,-3.26192 l -0.42175,-2.09308 1.39227,-2.60864 c 0.76574,-1.43476 1.61037,-2.82165 1.87695,-3.08198 0.26658,-0.26033 0.48469,-0.71272 0.48469,-1.00532 0,-0.2926 0.17953,-0.87918 0.39896,-1.30351 0.26055,-0.50385 0.53663,-0.71868 0.7958,-0.61923 0.21825,0.0838 0.68284,-0.0351 1.03242,-0.26417 l 0.63559,-0.41646 3.07225,0.38112 c 1.68974,0.20961 3.33757,0.51873 3.66185,0.68692 0.32427,0.16819 1.06588,0.6904 1.64802,1.16046 0.67052,0.54144 1.31473,1.42556 1.75777,2.41242 0.38463,0.85677 0.86084,1.91496 1.05823,2.35152 0.1974,0.43656 0.3974,1.80578 0.44444,3.04271 0.0471,1.23692 0.0759,3.77922 0.0642,5.64954 l -0.0214,3.40059 -0.9304,3.56767 c -0.51172,1.96222 -1.17947,4.0559 -1.48389,4.65262 -0.30443,0.59672 -0.696,1.22744 -0.87016,1.4016 -0.17416,0.17416 -0.84497,0.5883 -1.49069,0.92032 -0.84732,0.43567 -1.72626,0.62514 -3.15842,0.68087 -1.0914,0.0425 -2.43472,-0.0357 -2.98516,-0.17378 z m 3.23961,-4.25501 c 0.45338,-0.45337 1.06309,-1.29232 1.3549,-1.86433 0.29182,-0.57201 0.77204,-2.31442 1.06715,-3.87203 0.35857,-1.89247 0.53702,-3.92925 0.53791,-6.13931 8.2e-4,-2.0612 -0.16424,-4.1048 -0.4381,-5.42396 -0.24169,-1.16417 -0.67728,-2.50362 -0.96799,-2.97656 -0.29071,-0.47295 -0.63424,-0.8599 -0.76341,-0.8599 -0.12917,0 -0.74454,0.26059 -1.36749,0.5791 -0.62294,0.3185 -1.40088,0.82451 -1.72875,1.12448 -0.32787,0.29996 -0.85495,0.79649 -1.17129,1.10339 -0.34779,0.33743 -0.76145,1.33107 -1.04641,2.51355 -0.25918,1.07554 -0.47611,2.6699 -0.48204,3.54302 -0.006,0.87313 0.16835,2.48047 0.38732,3.57188 0.21897,1.0914 0.52446,2.63922 0.67887,3.43958 0.15441,0.80036 0.44616,2.02483 0.64832,2.72103 0.20217,0.6962 0.63495,1.6487 0.96172,2.11666 0.32678,0.46797 0.71894,0.93833 0.87147,1.04524 0.15253,0.10691 0.35747,0.19621 0.45542,0.19844 0.0979,0.002 0.54903,-0.3669 1.0024,-0.82028 z m -23.03429,-99.98943 c -0.66896,-0.1109 -1.62146,-0.40739 -2.11666,-0.65888 -0.49521,-0.25149 -1.41292,-1.00811 -2.03936,-1.68137 -0.62645,-0.67327 -1.43526,-1.71959 -1.79735,-2.32517 -0.3621,-0.60558 -0.99776,-2.09386 -1.41258,-3.30729 -0.47425,-1.38725 -0.81916,-3.06883 -0.92914,-4.52994 l -0.1749,-2.3237 0.78165,-1.38047 c 0.42991,-0.75926 1.0584,-2.2139 1.39665,-3.23255 l 0.61499,-1.85208 2.25588,-2.26119 c 1.24073,-1.24365 2.61306,-2.48613 3.04962,-2.76105 0.43657,-0.27493 1.00341,-0.76611 1.25965,-1.0915 l 0.46591,-0.59164 1.72105,-0.18431 1.72105,-0.1843 0.93948,0.62657 c 0.52883,0.3527 1.71681,1.7831 2.71783,3.27242 l 1.77834,2.64583 1.10114,3.70417 c 0.60563,2.03729 1.177,4.43651 1.26972,5.33159 l 0.16858,1.62743 -1.12904,3.13507 c -0.62097,1.72429 -1.49378,3.61132 -1.93959,4.19341 -0.4458,0.58208 -1.10513,1.29646 -1.46517,1.5875 -0.36004,0.29104 -0.89653,0.65383 -1.1922,0.8062 -0.29567,0.15238 -1.25196,0.53042 -2.12508,0.84009 -0.87313,0.30968 -2.06375,0.61564 -2.64583,0.67992 -0.58209,0.0643 -1.60567,0.0261 -2.27464,-0.0848 z m 3.82055,-4.46007 c 0.76163,-0.44842 1.54228,-1.19198 1.92471,-1.8333 0.35386,-0.5934 0.92471,-1.82947 1.26856,-2.74683 0.34385,-0.91735 0.63294,-2.2037 0.64243,-2.85854 0.009,-0.65485 -0.2081,-2.27677 -0.48352,-3.60428 -0.27543,-1.32751 -0.78519,-3.11345 -1.13282,-3.96875 -0.34763,-0.8553 -0.95974,-2.07406 -1.36025,-2.70835 l -0.7282,-1.15326 -0.77836,0.15567 c -0.4281,0.0856 -1.22211,0.45238 -1.76446,0.81501 -0.54235,0.36263 -1.31133,1.16873 -1.70886,1.79133 -0.39752,0.6226 -0.97716,1.66778 -1.28809,2.32263 -0.31093,0.65484 -0.74134,1.56414 -0.95646,2.02066 -0.25393,0.53886 -0.3961,1.69905 -0.40527,3.30729 l -0.0141,2.47725 0.81882,1.79022 c 0.50644,1.10726 1.39492,2.39421 2.32895,3.37344 0.83058,0.87077 1.70037,1.58119 1.93288,1.57871 0.23251,-0.002 0.99935,-0.34399 1.70408,-0.7589 z m -61.38006,105.73685 c 0.25324,-0.40661 0.37789,-1.49181 0.39322,-3.42345 0.0153,-1.92938 0.19672,-3.51064 0.57081,-4.9758 0.30159,-1.18122 0.60196,-3.06371 0.6675,-4.18332 0.0655,-1.11962 0.17337,-5.43261 0.23965,-9.58445 0.0663,-4.15183 0.23593,-7.85236 0.377,-8.2234 0.14107,-0.37104 0.44887,-1.44169 0.68399,-2.37922 0.23512,-0.93753 0.48624,-2.41621 0.55803,-3.28597 0.0718,-0.86975 0.23547,-3.62754 0.36371,-6.12841 0.12825,-2.50087 0.30147,-4.65754 0.38493,-4.79259 0.0835,-0.13506 0.28302,-1.36311 0.44344,-2.729 0.16042,-1.3659 0.33312,-5.93627 0.38377,-10.15637 0.0507,-4.22011 0.17137,-8.14917 0.26826,-8.73125 0.0969,-0.58209 0.15701,-6.59474 0.13359,-13.36146 -0.0234,-6.76672 -0.064,-13.43422 -0.0902,-14.81667 -0.0262,-1.38245 0.0487,-4.77573 0.16644,-7.54062 0.11776,-2.7649 0.40592,-7.70599 0.64037,-10.98021 0.23444,-3.27422 0.42763,-6.85442 0.42931,-7.956 l 0.003,-2.00287 -0.93741,-1.569 c -0.51558,-0.86295 -1.46116,-2.64057 -2.10129,-3.95026 -0.64014,-1.30968 -1.73671,-3.27421 -2.43681,-4.36562 -0.70011,-1.09141 -2.0086,-3.24074 -2.90775,-4.77629 -0.89915,-1.53556 -2.46826,-3.96823 -3.4869,-5.40594 -1.01865,-1.43772 -3.9324,-4.82479 -6.47501,-7.52684 -2.54261,-2.70204 -6.000584,-6.28203 -7.684383,-7.95551 -1.683799,-1.67349 -3.938687,-3.75709 -5.010862,-4.63021 -1.072175,-0.87313 -2.723001,-2.24235 -3.668503,-3.04271 -0.945502,-0.80037 -2.384828,-2.05484 -3.198504,-2.78772 -0.813675,-0.73288 -2.074722,-1.80445 -2.802326,-2.38125 -0.727604,-0.57681 -2.317088,-2.03549 -3.532186,-3.24152 -1.215098,-1.20604 -3.014203,-2.84315 -3.99801,-3.63803 -0.983807,-0.79488 -2.044202,-1.44523 -2.356432,-1.44523 h -0.567692 l 0.0932,5.5247 c 0.05878,3.4842 -0.03351,6.56797 -0.249873,8.34937 -0.188689,1.55357 -0.404729,3.02628 -0.480089,3.27269 -0.07536,0.24642 -0.201265,2.11491 -0.27979,4.1522 -0.07852,2.03729 -0.262395,4.77573 -0.408603,6.08541 -0.146207,1.30969 -0.39023,3.51235 -0.542273,4.8948 -0.152043,1.38244 -0.385025,3.34697 -0.517737,4.36562 -0.132713,1.01865 -0.309231,2.58624 -0.392262,3.48355 -0.106814,1.15431 -0.05477,1.69091 0.177948,1.83474 0.180902,0.1118 1.167951,0.3605 2.193441,0.55266 1.02549,0.19216 2.817027,0.51146 3.981193,0.70957 1.164167,0.1981 3.099409,0.3233 4.300538,0.27823 1.201129,-0.0451 2.302457,-0.15524 2.447396,-0.24482 0.144938,-0.0896 0.263525,-0.78567 0.263525,-1.54687 0,-0.76121 -0.178594,-2.06967 -0.396875,-2.90771 -0.218281,-0.83804 -0.396875,-1.61804 -0.396875,-1.73333 0,-0.1153 0.581659,-0.52621 1.292576,-0.91314 0.710917,-0.38693 1.671245,-0.7035 2.134061,-0.7035 0.462816,0 1.059259,0.11654 1.325427,0.25899 0.266169,0.14245 0.615529,0.63647 0.776356,1.09782 0.160827,0.46135 0.292413,1.70627 0.292413,2.76648 0,1.06022 0.121882,2.24825 0.270849,2.64006 l 0.270849,0.71239 1.118213,-0.15742 c 0.615018,-0.0866 1.653995,-0.2744 2.308839,-0.4174 l 1.190625,-0.25999 0.661459,0.47639 c 0.363802,0.26202 0.698448,0.72428 0.743659,1.02725 0.04521,0.30297 -0.09873,0.90074 -0.319866,1.32837 -0.293611,0.56778 -0.708326,0.8574 -1.53741,1.07365 -0.624438,0.16287 -1.610047,0.56811 -2.190242,0.90053 l -1.0549,0.6044 -0.186623,1.05184 c -0.102643,0.57852 -0.195307,2.36153 -0.205922,3.96226 -0.01062,1.60073 -0.106773,3.04142 -0.213685,3.20154 -0.106913,0.16011 -0.45445,0.428 -0.772305,0.59531 -0.317855,0.16731 -1.091761,0.29991 -1.719792,0.29468 -0.799161,-0.007 -1.372059,-0.19773 -1.908824,-0.63663 l -0.766951,-0.62711 0.170275,-1.44877 c 0.121477,-1.03358 0.07279,-1.52969 -0.16989,-1.73109 -0.249455,-0.20703 -0.6516,-0.10542 -1.508049,0.38106 -0.642337,0.36485 -1.854112,0.89454 -2.692834,1.17708 -1.000554,0.33707 -2.245957,0.51372 -3.621654,0.51372 h -2.096706 l -0.160599,-0.41851 c -0.08833,-0.23019 -0.160599,-0.74751 -0.160599,-1.14962 0,-0.40211 0.208359,-0.90699 0.463021,-1.12197 0.254661,-0.21498 0.998802,-0.54651 1.653645,-0.73674 0.654844,-0.19023 1.708293,-0.52967 2.340997,-0.75431 0.632704,-0.22464 1.217596,-0.58362 1.29976,-0.79773 0.08216,-0.21412 -0.05353,-0.53768 -0.301543,-0.71904 -0.248012,-0.18135 -1.785405,-0.63279 -3.416427,-1.00319 -1.631022,-0.37041 -3.322682,-0.75018 -3.759245,-0.84395 -0.436562,-0.0938 -1.229939,-0.23194 -1.763058,-0.30706 l -0.969309,-0.1366 -0.381583,0.62093 c -0.20987,0.3415 -0.528532,1.81154 -0.708137,3.26675 -0.179606,1.45521 -0.4909,3.83646 -0.691765,5.29167 -0.200865,1.45521 -0.495871,4.01505 -0.655569,5.68854 -0.159698,1.67349 -0.355689,3.5629 -0.435535,4.19869 -0.102676,0.81757 -0.03934,1.22302 0.216349,1.38501 0.198838,0.12596 0.897305,0.23091 1.552149,0.23321 0.654843,0.002 1.785937,0.22666 2.513541,0.49857 0.727605,0.27191 2.334948,0.64294 3.571875,0.82452 1.236928,0.18158 3.141928,0.50371 4.233334,0.71585 1.091406,0.21214 3.353594,0.6202 5.027083,0.9068 1.67349,0.2866 4.828646,0.81174 7.011459,1.16697 2.182812,0.35524 4.564062,0.75903 5.291666,0.89732 l 1.322917,0.25144 0.330729,-0.43038 c 0.181901,-0.23672 0.330729,-1.09262 0.330729,-1.90202 0,-0.80939 0.223107,-2.25179 0.495793,-3.20532 0.272686,-0.95353 0.677215,-2.08453 0.898954,-2.51332 0.221738,-0.4288 0.642977,-0.99666 0.936086,-1.26192 0.293108,-0.26526 0.692247,-1.02188 0.886975,-1.68139 l 0.35405,-1.19909 0.92605,-0.46361 c 0.653783,-0.32731 1.882273,-0.51296 4.178443,-0.63147 l 3.25239,-0.16785 1.50411,0.52865 c 1.10918,0.38984 1.94822,0.96257 3.19544,2.18119 0.93023,0.90889 2.14771,2.34693 2.70552,3.19564 0.55782,0.84871 1.17933,2.1584 1.38114,2.91041 0.20182,0.75202 0.50508,1.93456 0.67391,2.62788 0.16883,0.69331 0.30697,1.65176 0.30697,2.12989 0,0.47813 0.13625,1.00558 0.30278,1.17211 0.22307,0.22307 0.22634,0.49821 0.0124,1.0451 -0.15968,0.40828 -0.36508,1.4567 -0.45645,2.32983 -0.0914,0.87312 -0.45,2.65906 -0.79699,3.96875 -0.34698,1.30968 -0.90686,3.05897 -1.24418,3.88729 -0.33731,0.82833 -1.07722,2.1462 -1.64423,2.92861 -0.56702,0.7824 -1.47495,1.74172 -2.01764,2.13181 -0.54268,0.39009 -1.74168,0.94591 -2.66444,1.23517 -0.92276,0.28925 -1.92816,0.52745 -2.23422,0.52933 -0.30606,0.002 -1.37078,-0.29195 -2.36604,-0.65294 -1.22121,-0.44295 -2.18981,-1.02363 -2.97907,-1.78594 -0.67006,-0.64719 -1.49574,-1.84631 -1.933437,-2.80789 -0.420165,-0.92307 -0.763937,-1.90893 -0.763937,-2.19079 0,-0.28186 -0.294462,-1.21208 -0.65436,-2.06716 -0.359898,-0.85508 -0.731904,-2.03963 -0.826681,-2.63233 -0.09478,-0.5927 -0.309895,-1.26578 -0.478042,-1.49573 -0.168146,-0.22996 -1.314187,-0.65353 -2.546756,-0.94128 -1.23257,-0.28774 -3.37213,-0.74977 -4.754578,-1.02673 -1.382448,-0.27695 -4.061354,-0.76277 -5.953125,-1.07959 -1.891771,-0.31682 -3.975364,-0.66678 -4.630208,-0.77768 -0.654844,-0.1109 -3.512344,-0.57601 -6.35,-1.03356 -2.837657,-0.45755 -5.967013,-0.96804 -6.954127,-1.13442 l -1.794751,-0.3025 -0.300116,0.30011 c -0.165064,0.16507 -0.393449,1.52437 -0.507522,3.02067 -0.114073,1.4963 -0.388345,3.67305 -0.609493,4.83721 -0.221147,1.16417 -0.756228,3.61463 -1.189067,5.44546 -0.432838,1.83083 -0.90038,4.50974 -1.038981,5.95312 -0.1386,1.44339 -0.255594,2.80293 -0.259985,3.02122 -0.0044,0.21828 -0.110281,1.43373 -0.235309,2.701 -0.125029,1.26727 -0.154573,2.51743 -0.06565,2.77812 0.08892,0.2607 0.193252,2.37773 0.231852,4.7045 0.0386,2.32677 0.117666,4.30733 0.175705,4.40124 0.05804,0.0939 0.657133,0.25346 1.331321,0.35456 0.770255,0.11551 1.332362,0.0773 1.512548,-0.10293 0.157714,-0.15771 0.470772,-0.8742 0.695686,-1.59219 0.295417,-0.94306 0.876504,-1.7899 2.093301,-3.05063 0.926402,-0.95986 2.022294,-1.91994 2.435317,-2.13352 0.413023,-0.21358 1.381464,-0.39167 2.152092,-0.39575 0.770627,-0.004 2.055985,-4.5e-4 2.856349,0.008 1.054775,0.0112 1.905846,0.23423 3.092862,0.81042 l 1.637652,0.79494 1.609943,1.90953 c 0.885468,1.05024 1.699704,2.02858 1.809412,2.1741 0.109709,0.14553 0.546023,0.8599 0.969587,1.5875 0.423564,0.72761 0.901081,1.97656 1.061148,2.77545 l 0.291032,1.45253 0.620758,0.30948 c 0.341417,0.17021 0.723369,0.46908 0.848781,0.66414 0.125412,0.19506 0.150221,1.06903 0.05513,1.94215 -0.09509,0.87313 -0.331803,1.96813 -0.526028,2.43335 l -0.353137,0.84584 0.233686,2.30551 c 0.15438,1.52309 0.139585,2.5829 -0.0436,3.1229 -0.152506,0.44957 -0.636662,1.29365 -1.075902,1.87574 -0.439241,0.58208 -1.164807,1.45592 -1.612369,1.94185 -0.447563,0.48594 -1.375339,1.17055 -2.061725,1.52136 -0.686387,0.3508 -1.391387,0.63783 -1.566667,0.63783 -0.17528,0 -0.510771,0.17383 -0.745536,0.38629 -0.234764,0.21246 -0.898983,0.40752 -1.476042,0.43348 -0.577058,0.026 -1.644509,-0.0819 -2.372114,-0.23967 -0.727604,-0.15778 -2.011291,-0.56949 -2.852637,-0.91492 -0.841347,-0.34544 -2.176872,-1.21509 -2.967834,-1.93256 -0.790962,-0.71747 -1.442041,-1.43875 -1.446842,-1.60283 -0.0048,-0.16408 -0.173351,-0.43495 -0.374556,-0.60194 -0.201206,-0.16699 -0.606619,-1.1043 -0.900919,-2.08292 -0.2943,-0.97862 -0.676577,-2.30648 -0.849505,-2.9508 -0.172927,-0.64433 -0.474993,-1.41823 -0.671256,-1.71979 -0.196264,-0.30157 -0.439214,-1.46575 -0.53989,-2.58708 -0.110658,-1.23252 -0.376764,-2.35733 -0.672894,-2.84427 l -0.489847,-0.80549 h -1.028058 -1.028058 l -0.183322,2.18281 c -0.100827,1.20055 -0.361223,3.37344 -0.578659,4.82865 -0.217435,1.45521 -0.439529,3.66449 -0.493543,4.90953 -0.05401,1.24503 -0.01735,2.38331 0.08147,2.5295 0.09882,0.1462 1.063598,0.39946 2.143942,0.56281 1.397874,0.21135 2.267669,0.51191 3.016493,1.04236 0.75202,0.53272 1.144105,1.05943 1.37425,1.84611 0.177111,0.60541 0.600123,1.49838 0.940027,1.98438 0.339903,0.486 2.52851,3.01432 4.863571,5.61847 2.33506,2.60416 4.846536,5.3426 5.581058,6.08542 0.734521,0.74282 2.942886,2.87024 4.907475,4.7276 1.96459,1.85735 3.939557,3.64329 4.388816,3.96875 0.449259,0.32545 1.653015,1.2727 2.675013,2.10498 1.021999,0.83229 3.569762,3.21354 5.661697,5.29167 2.091934,2.07813 4.713323,4.79045 5.825308,6.02738 1.111983,1.23692 2.605783,2.9038 3.319543,3.70416 0.71376,0.80037 1.47881,1.72421 1.7001,2.053 0.22129,0.32878 1.52144,1.7648 2.88924,3.19115 1.36779,1.42636 3.28102,3.44931 4.25162,4.49545 1.08681,1.1714 1.9738,1.90207 2.309,1.90207 0.29936,0 0.71113,-0.26789 0.91505,-0.59531 z m -13.19085,-25.05099 c -0.58209,-0.099 -1.29646,-0.31004 -1.587504,-0.46889 -0.291042,-0.15885 -1.064948,-0.50198 -1.719792,-0.7625 -0.654844,-0.26052 -1.412843,-0.6597 -1.684442,-0.88706 -0.2716,-0.22736 -0.813182,-0.88963 -1.203517,-1.47171 -0.390334,-0.58208 -1.048475,-2.07036 -1.462535,-3.30729 -0.414059,-1.23693 -1.017398,-2.84427 -1.340753,-3.57188 -0.323355,-0.7276 -0.849295,-2.47297 -1.168755,-3.8786 -0.31946,-1.40563 -0.584814,-3.01298 -0.589674,-3.57188 -0.0049,-0.5589 0.240578,-1.5916 0.545419,-2.29489 0.304841,-0.70329 0.554257,-1.42895 0.554257,-1.61257 0,-0.18363 0.232199,-1.03696 0.515997,-1.8963 l 0.515997,-1.56242 -0.780581,-0.80635 c -0.520736,-0.53792 -0.775227,-1.06638 -0.7645,-1.5875 l 0.01608,-0.78115 1.207418,-0.92604 c 0.66408,-0.50933 1.817704,-1.52823 2.563608,-2.26424 0.745905,-0.73601 1.750488,-1.83808 2.232407,-2.44904 0.481919,-0.61097 1.229377,-1.29347 1.661017,-1.51668 0.52065,-0.26924 1.116272,-0.35024 1.769613,-0.24066 0.54165,0.0908 1.38568,0.28804 1.87562,0.4382 0.48993,0.15016 1.50472,0.88427 2.25507,1.63136 0.75036,0.74709 1.68728,1.78411 2.08205,2.30448 0.39477,0.52038 1.00354,1.77053 1.35284,2.77813 0.34929,1.00759 0.84405,2.36777 1.09947,3.02261 0.25542,0.65485 0.56868,1.72641 0.69614,2.38125 0.12746,0.65485 0.34483,2.55985 0.48303,4.23334 0.13821,1.67349 0.36859,4.47107 0.51196,6.21685 0.18436,2.24492 0.17505,3.52296 -0.0318,4.36563 -0.16086,0.65531 -0.8281,2.14397 -1.48276,3.30814 -0.65467,1.16417 -1.73777,2.69561 -2.40689,3.4032 -0.66912,0.7076 -1.59972,1.45174 -2.06799,1.65365 -0.46826,0.20191 -1.24217,0.35221 -1.71979,0.33399 -0.47761,-0.0182 -1.34464,-0.11414 -1.92672,-0.21318 z m 2.25114,-5.38446 c 0.36501,-0.32282 0.94983,-0.98959 1.29961,-1.4817 0.34978,-0.49212 0.7838,-1.53071 0.96448,-2.30799 0.19215,-0.82662 0.27945,-2.37715 0.21031,-3.73545 -0.065,-1.27722 -0.23021,-2.97707 -0.3671,-3.77743 -0.13689,-0.80037 -0.31993,-2.28865 -0.40677,-3.3073 -0.0868,-1.01864 -0.335,-2.62599 -0.55148,-3.57187 -0.21648,-0.94589 -0.90548,-2.79135 -1.53111,-4.10104 -0.62563,-1.30969 -1.39605,-2.64914 -1.71204,-2.97656 -0.31599,-0.32743 -0.6799,-0.59532 -0.80869,-0.59532 -0.12878,0 -0.51109,0.36637 -0.849585,0.81414 -0.33849,0.44778 -0.913092,1.12936 -1.276894,1.51462 -0.363802,0.38526 -0.869034,1.00117 -1.122736,1.36867 -0.253703,0.36751 -0.462062,0.8795 -0.463021,1.13777 -9.59e-4,0.25826 0.279675,0.57656 0.62363,0.70733 0.343955,0.13077 0.701143,0.43522 0.79375,0.67655 0.09261,0.24133 0.168377,0.70335 0.168377,1.0267 0,0.32336 -0.404961,0.98042 -0.899913,1.46015 -0.494951,0.47972 -0.978203,1.24722 -1.073893,1.70555 -0.09569,0.45832 -0.168687,1.07144 -0.162217,1.36248 0.0065,0.29104 0.0442,1.06495 0.08383,1.71979 0.03964,0.65485 0.17096,1.34516 0.291826,1.53403 0.120865,0.18887 0.1501,0.52491 0.06497,0.74677 -0.08513,0.22185 -0.01086,0.66264 0.165058,0.97952 0.175915,0.31688 0.290162,0.6786 0.253883,0.80383 -0.03628,0.12523 0.282455,1.25633 0.708299,2.51354 0.425843,1.25722 0.990164,2.7621 1.254046,3.34419 0.263881,0.58208 0.89651,1.50482 1.40585,2.05052 0.61077,0.65437 1.15552,0.98934 1.59998,0.98383 0.37065,-0.005 0.97255,-0.27249 1.33755,-0.59532 z m -92.507135,4.80394 c 0.09095,-0.45476 0.165365,-1.45165 0.165365,-2.21533 0,-0.81139 0.21901,-1.88361 0.526929,-2.57971 0.372093,-0.84118 0.642923,-2.46431 0.921671,-5.52374 0.217107,-2.38289 0.536445,-5.40409 0.70964,-6.71378 0.173194,-1.30968 0.334791,-4.46484 0.359104,-7.01145 0.02431,-2.54662 0.179995,-5.28506 0.345962,-6.08542 0.165966,-0.80037 0.537646,-3.00302 0.825956,-4.89479 0.28831,-1.89177 0.651465,-5.52318 0.807011,-8.06979 0.155546,-2.54662 0.40326,-5.82084 0.550476,-7.27605 0.147215,-1.4552 0.376522,-3.00302 0.50957,-3.43958 0.133048,-0.43656 0.480188,-2.10344 0.771421,-3.70417 0.291234,-1.60072 0.661082,-4.27963 0.821885,-5.95312 0.160804,-1.67349 0.477888,-4.23333 0.704632,-5.68854 l 0.412261,-2.64584 -0.146187,-6.59554 c -0.0804,-3.62755 -0.04143,-7.19942 0.08662,-7.9375 0.128042,-0.73808 0.358996,-2.20483 0.513232,-3.25946 0.154236,-1.05463 0.346658,-5.28135 0.427603,-9.39271 0.08095,-4.11136 0.268456,-8.84442 0.416689,-10.51791 0.148232,-1.67349 0.319013,-3.63802 0.379513,-4.36563 l 0.109999,-1.32291 -2.086043,-1.71979 c -1.147323,-0.94589 -3.439235,-2.9284 -5.093137,-4.40558 -1.653902,-1.47718 -3.566481,-3.14405 -4.2501743,-3.70416 -0.6836937,-0.56012 -2.5291625,-2.19911 -4.1010417,-3.6422 -1.5718791,-1.4431 -3.4532746,-3.0913 -4.1808788,-3.66266 -0.72760416,-0.57136 -2.32940331,-1.95049 -3.5595537,-3.06473 -1.2301503,-1.11424 -2.7747976,-2.50213 -3.4325496,-3.08422 -0.6577519,-0.58208 -1.3776715,-1.25154 -1.5998213,-1.4877 -0.2221498,-0.23615 -2.3684401,-2.14115 -4.7695336,-4.23333 -2.401094,-2.09218 -5.258594,-4.48003 -6.35,-5.30633 -1.091407,-0.82629 -3.294063,-2.18052 -4.894792,-3.00939 -1.600729,-0.82888 -3.803385,-1.98793 -4.894792,-2.57567 -1.091406,-0.58775 -2.460625,-1.30235 -3.042708,-1.58802 -0.582083,-0.28567 -1.769638,-1.05136 -2.63901,-1.70155 -0.869373,-0.65019 -2.059998,-1.42134 -2.645834,-1.71367 -0.585836,-0.29234 -1.72,-0.957 -2.520364,-1.47702 -0.800365,-0.52002 -1.99099,-1.30789 -2.645834,-1.75081 -0.654844,-0.44292 -2.472161,-1.8639 -4.038482,-3.15773 l -2.847857,-2.35241 -0.393289,0.3264 c -0.216309,0.17952 -0.393289,0.73637 -0.393289,1.23744 0,0.50107 -0.125102,1.1448 -0.278005,1.4305 -0.152902,0.2857 -0.342167,1.55779 -0.420587,2.82687 -0.07842,1.26908 -0.437239,3.55758 -0.797374,5.08555 -0.360135,1.52797 -0.820408,3.43297 -1.02283,4.23333 -0.202422,0.80037 -0.505526,2.7649 -0.673565,4.36563 -0.168039,1.60073 -0.543582,3.80338 -0.834539,4.89479 -0.290957,1.0914 -0.753032,3.23453 -1.026833,4.7625 -0.273801,1.52797 -0.498733,3.07578 -0.499849,3.43958 l -0.002,0.66146 2.976244,0.51201 c 1.636934,0.2816 3.452493,0.51972 4.034577,0.52916 l 1.058333,0.0172 0.301957,-1.05833 c 0.166076,-0.58208 0.433599,-1.54717 0.594494,-2.14463 0.160896,-0.59747 0.771553,-1.63049 1.357015,-2.29561 0.747653,-0.84938 1.455898,-1.33932 2.379579,-1.64612 l 1.3151,-0.4368 3.375928,0.18332 c 1.85676,0.10083 3.99872,0.32052 4.759911,0.4882 l 1.383984,0.30488 1.581367,1.54038 c 0.869751,0.84721 1.871543,2.03569 2.226204,2.64109 0.354661,0.60539 0.788066,1.63649 0.963123,2.29133 0.175057,0.65485 0.450106,1.35129 0.61122,1.54765 0.161114,0.19637 0.301337,0.61308 0.311606,0.92604 0.01027,0.31296 0.246119,1.15014 0.524108,1.8604 l 0.505436,1.29137 -0.311273,2.46451 -0.311273,2.4645 -1.47305,2.991 c -0.810177,1.64504 -1.793555,3.32904 -2.185284,3.74222 -0.391729,0.41317 -1.046595,0.92583 -1.455258,1.13924 -0.408663,0.21341 -1.599288,0.60354 -2.645834,0.86695 -1.046545,0.26341 -2.518066,0.55722 -3.270046,0.65291 -0.884115,0.1125 -1.728658,0.0495 -2.390063,-0.17841 -0.562556,-0.19382 -1.713344,-0.86251 -2.557308,-1.48598 -1.072603,-0.79238 -1.954478,-1.78322 -2.929825,-3.29185 -0.76744,-1.18704 -1.479361,-2.57497 -1.582047,-3.0843 -0.102686,-0.50932 -0.414533,-2.23573 -0.692993,-3.83646 -0.372003,-2.13846 -0.642655,-3.02232 -1.020409,-3.33234 -0.282765,-0.23206 -1.446499,-0.5689 -2.586077,-0.74853 -1.139577,-0.17964 -2.564261,-0.4189 -3.165964,-0.53169 -0.601704,-0.11279 -1.286313,-0.0975 -1.521355,0.0341 -0.311605,0.17438 -0.427348,0.62839 -0.427348,1.6763 0,0.79044 -0.118387,2.24304 -0.263081,3.228 -0.144695,0.98497 -0.55811,3.69585 -0.9187,6.02418 -0.36059,2.32834 -0.721772,5.46368 -0.802627,6.96744 -0.08085,1.50376 -0.157789,2.81344 -0.170965,2.91042 -0.01318,0.097 -0.0099,0.30619 0.0074,0.46494 0.01723,0.15874 0.656411,0.42048 1.420395,0.58163 0.763984,0.16116 2.69875,0.48556 4.299479,0.72089 1.600729,0.23533 3.862917,0.6007 5.027083,0.81193 1.164167,0.21122 3.724011,0.6175 5.688542,0.90284 1.964531,0.28533 3.972199,0.63602 4.461483,0.7793 0.489284,0.14328 1.739441,0.38208 2.778125,0.53067 1.038685,0.1486 3.079142,0.45149 4.534351,0.67311 1.455208,0.22162 3.776927,0.63179 5.159375,0.91149 1.382448,0.2797 3.466041,0.58532 4.630208,0.67914 1.164167,0.0938 2.868196,0.34046 3.786731,0.54808 0.918535,0.20762 1.720713,0.3775 1.782618,0.3775 0.06191,0 0.426373,-0.49712 0.809929,-1.10471 0.383556,-0.6076 1.693098,-2.0982 2.9100938,-3.31246 1.2169958,-1.21426 2.4822492,-2.3242 2.811674,-2.46653 0.3294249,-0.14233 0.7775481,-0.36226 0.9958294,-0.48872 0.2182812,-0.12646 0.8135937,-0.38842 1.3229166,-0.58213 0.509323,-0.1937 1.461823,-0.35409 2.1166667,-0.3564 0.8060999,-0.003 1.75826679,0.2704 2.94824348,0.84608 0.96669012,0.46766 1.83450352,0.85029 1.92847412,0.85029 0.093971,0 1.2394039,0.81907 2.5454071,1.82016 1.3060033,1.00109 2.7377378,2.28101 3.1816323,2.84427 0.4438945,0.56326 1.0823069,1.28306 1.4186942,1.59956 0.4397388,0.41374 0.6635133,1.00856 0.7962973,2.11666 0.101575,0.84767 0.35789,2.56573 0.569586,3.81791 0.211697,1.25218 0.500613,2.68014 0.642035,3.17325 0.141422,0.49311 0.257131,1.37773 0.257131,1.96582 0,0.58809 -0.234671,1.73693 -0.521491,2.55298 -0.28682,0.81606 -0.600929,2.00255 -0.698021,2.63667 -0.09709,0.63411 -0.496548,1.86784 -0.8876813,2.74163 -0.391133,0.8738 -0.8806954,1.769 -1.0879165,1.98935 -0.2072211,0.22034 -0.908526,0.9937 -1.5584553,1.71858 -0.6499294,0.72487 -1.5428982,1.54394 -1.9843751,1.82015 -0.4414769,0.27621 -1.3979977,0.66936 -2.1256019,0.87366 -0.7391126,0.20754 -2.4938859,0.37022 -3.9763665,0.36865 -1.7412357,-0.002 -2.9764307,-0.13776 -3.5929375,-0.39536 -0.5167182,-0.21589 -1.0934163,-0.57801 -1.2815512,-0.8047 -0.188135,-0.22669 -0.4923854,-0.41216 -0.676112,-0.41216 -0.1837267,0 -0.5156242,-0.26789 -0.7375501,-0.59531 -0.221926,-0.32743 -0.7744112,-0.99291 -1.227745,-1.47887 -0.4533339,-0.48595 -1.0749055,-1.37892 -1.3812703,-1.98437 -0.3063643,-0.60545 -0.7624673,-1.39848 -1.0135613,-1.76228 -0.251094,-0.36381 -0.826719,-1.67349 -1.279167,-2.91042 -0.452448,-1.23693 -1.071422,-3.09547 -1.375499,-4.13008 -0.304076,-1.03462 -0.635638,-2.86904 -0.736803,-4.07649 l -0.183937,-2.19535 -1.190625,-0.10132 c -0.654844,-0.0557 -1.726407,-0.26485 -2.38125,-0.46473 -0.654844,-0.19988 -2.500313,-0.55627 -4.101042,-0.79198 -1.600729,-0.23572 -3.267604,-0.4933 -3.704167,-0.57242 -0.436562,-0.0791 -1.508125,-0.24799 -2.38125,-0.37529 -0.873125,-0.1273 -4.325937,-0.70245 -7.672916,-1.27813 -3.34698,-0.57567 -7.097448,-1.23043 -8.334375,-1.45501 -1.236928,-0.22458 -3.73724,-0.66703 -5.556251,-0.98322 -1.81901,-0.31619 -4.168337,-0.71732 -5.220726,-0.89141 -1.052389,-0.17408 -2.044074,-0.23578 -2.203744,-0.1371 -0.15967,0.0987 -0.457701,1.3572 -0.662291,2.79671 -0.20459,1.4395 -0.367459,4.52228 -0.361931,6.85061 0.0057,2.39885 -0.129786,4.86394 -0.312641,5.68854 -0.178806,0.80634 -0.324108,3.34283 -0.325867,5.68854 -0.0017,2.32834 0.04786,6.19787 0.110242,8.59896 l 0.113417,4.36563 1.5875,0.32135 c 0.873125,0.17675 2.178717,0.35534 2.901317,0.39688 l 1.313817,0.0755 0.181038,-1.22486 c 0.09957,-0.67367 0.420847,-1.76698 0.713947,-2.42958 l 0.532909,-1.20473 1.411819,-0.88661 c 0.776501,-0.48763 1.649944,-1.01537 1.940986,-1.17275 0.291042,-0.15738 0.5472,-0.5701 0.569241,-0.91714 0.02204,-0.34705 0.05181,-0.96265 0.06615,-1.36801 l 0.02607,-0.737 1.152624,-0.49408 c 0.633944,-0.27173 1.794803,-0.49925 2.579688,-0.50558 0.784885,-0.006 1.938091,0.1028 2.562681,0.24251 0.624589,0.13971 1.63662,0.57747 2.248958,0.97281 0.612338,0.39533 2.303966,1.74898 3.759175,3.0081 1.455208,1.25912 2.920519,2.58605 3.256246,2.94874 0.426622,0.46088 0.733568,1.3266 1.019444,2.87526 0.224968,1.21871 0.634892,2.77369 0.910942,3.45551 0.343024,0.84724 0.501909,1.88885 0.501909,3.29039 0,1.12789 -0.166941,2.77269 -0.37098,3.65511 -0.204039,0.88243 -0.515597,2.31878 -0.692351,3.19191 -0.176754,0.87312 -0.499655,1.94469 -0.717558,2.38125 -0.217904,0.43656 -0.710017,1.1318 -1.093587,1.54497 -0.383569,0.41318 -1.054586,0.94782 -1.491149,1.18811 l -0.79375,0.43687 -3.317035,-0.0365 -3.317035,-0.0365 -1.710048,-0.71457 c -0.940527,-0.39301 -2.092257,-1.00296 -2.559401,-1.35544 -0.467144,-0.35247 -1.261793,-1.2635 -1.765887,-2.0245 -0.504094,-0.761 -1.322179,-2.27661 -1.817967,-3.36802 -0.495788,-1.0914 -1.2095,-2.75828 -1.586028,-3.70416 -0.376527,-0.94589 -0.740043,-1.89839 -0.807813,-2.11667 -0.08519,-0.2744 -1.116042,-0.59065 -3.340316,-1.02478 -1.769404,-0.34535 -3.294351,-0.55066 -3.388771,-0.45624 -0.09442,0.0944 -0.212079,3.29401 -0.261464,7.1102 l -0.08979,6.93853 0.346299,0.66146 c 0.190464,0.3638 0.792799,0.87228 1.338522,1.12996 0.545723,0.25768 1.222768,0.8476 1.504543,1.31094 0.281776,0.46335 1.274182,1.44315 2.205348,2.17733 0.931165,0.73419 2.096355,1.55821 2.589311,1.83115 0.492956,0.27294 2.021518,1.08639 3.396806,1.80765 1.375287,0.72127 3.037219,1.68857 3.693181,2.14957 0.655961,0.46101 2.626351,1.9164 4.378644,3.23422 l 3.185986,2.39602 6.746875,1.36152 c 3.710781,0.74883 7.758906,1.50164 8.995833,1.67292 1.236927,0.17128 3.131207,0.53421 4.209511,0.80652 1.078304,0.27231 2.507054,0.49602 3.175,0.49713 0.667946,10e-4 1.981999,0.23541 2.9201171,0.52067 l 1.7056698,0.51864 0.4386228,-0.45452 0.4386228,-0.45452 -0.5965968,-0.71659 c -0.3419176,-0.4107 -0.6730118,-1.27221 -0.7756021,-2.01813 l -0.1790051,-1.30152 0.6833611,-0.68336 0.6833611,-0.68336 1.1229484,-0.0253 c 0.6176216,-0.0139 1.4801359,0.0532 1.9166984,0.14908 l 0.79375,0.17439 0.6614583,1.34932 c 0.3638021,0.74213 0.9399329,1.68236 1.2802907,2.08939 0.3403577,0.40703 0.7722635,0.74006 0.95979064,0.74006 0.18752712,0 0.48748656,-0.17655 0.66657654,-0.39234 0.17908999,-0.21579 0.74355238,-0.50775 1.25436092,-0.64879 l 0.9287427,-0.25644 0.9608485,0.45073 0.9608484,0.45072 0.083961,0.87362 c 0.052493,0.54619 -0.1299392,1.23615 -0.4867484,1.8409 -0.3138902,0.532 -0.6057044,1.44839 -0.648476,2.03642 -0.042772,0.58803 0.1455506,1.79472 0.4184937,2.68154 0.2729431,0.88682 0.8543967,2.40225 1.2921191,3.36763 0.4377224,0.96537 0.7958589,2.10045 0.7958589,2.52239 0,0.42194 -0.1488281,0.87996 -0.3307292,1.01782 -0.181901,0.13786 -0.8378124,0.39566 -1.4575808,0.57289 l -1.1268516,0.32224 -1.1882526,-0.52562 c -0.86429732,-0.38232 -1.18825253,-0.67722 -1.18825253,-1.08169 0,-0.30584 -0.30019283,-0.85626 -0.66709518,-1.22317 -0.39716559,-0.39716 -0.89674819,-0.63318 -1.23465219,-0.58328 l -0.5675571,0.0838 -0.575037,1.66345 c -0.3239115,0.93701 -0.945303,2.04548 -1.4228867,2.53822 l -0.8478496,0.87476 -0.980482,-0.0752 c -0.5392651,-0.0414 -1.1265653,-0.0822 -1.3051117,-0.0908 -0.1785463,-0.009 -0.523189,-0.31866 -0.7658726,-0.68904 l -0.4412429,-0.67342 0.4798646,-1.64169 c 0.2639255,-0.90292 0.8764588,-2.3675 1.3611851,-3.25461 0.4847263,-0.8871 0.8813206,-1.86631 0.8813206,-2.17601 0,-0.35595 -0.2871621,-0.71159 -0.7806109,-0.96676 -0.4293359,-0.22202 -1.0283852,-0.40367 -1.3312205,-0.40367 -0.3028354,0 -0.6158962,-0.17014 -0.6956906,-0.37808 -0.095015,-0.2476 -0.7541047,-0.43972 -1.9099251,-0.55671 -0.970665,-0.0983 -2.00297,-0.32596 -2.294011,-0.50601 -0.291042,-0.18005 -1.005417,-0.41677 -1.5875,-0.52605 -0.582084,-0.10928 -1.951302,-0.36315 -3.042709,-0.56417 -1.091406,-0.20101 -3.542121,-0.77143 -5.446033,-1.26759 -1.903913,-0.49616 -4.076803,-0.98672 -4.828646,-1.09012 l -1.366987,-0.18801 v 0.33058 c 0,0.18182 0.921216,1.22529 2.047147,2.31882 1.125931,1.09352 3.154157,2.86953 4.507169,3.94667 1.353012,1.07715 3.385388,2.81306 4.516392,3.85758 1.131004,1.04452 3.099815,2.6135 4.375137,3.48663 1.275321,0.87312 4.0069628,2.88747 6.0703145,4.47633 2.0633517,1.58886 4.7762677,3.5534 6.0287022,4.36563 1.25243457,0.81223 2.462584,1.59585 2.68922101,1.74137 0.22663699,0.14552 1.34504289,0.96919 2.48534639,1.83037 1.1403035,0.86119 2.9237925,2.37923 3.963309,3.37344 l 1.89003,1.80765 h 0.7888769 0.788876 z M 156.69867,316.33337 c 0.0491,-0.34586 -0.0668,-0.72531 -0.2576,-0.84323 -0.20242,-0.1251 -0.43077,-0.0825 -0.54827,0.10237 -0.11075,0.17422 -0.20319,0.59339 -0.20542,0.93148 -0.003,0.44374 0.12473,0.59017 0.45897,0.52646 0.25466,-0.0485 0.50321,-0.37122 0.55232,-0.71708 z M 76.4491,307.98325 c 0.468697,-0.3575 1.086228,-1.10164 1.372292,-1.65365 0.292545,-0.56452 0.598604,-1.85945 0.699503,-2.95959 l 0.179388,-1.95593 -0.565979,-1.16916 -0.56598,-1.16916 -0.431559,0.17391 c -0.237358,0.0957 -0.565036,0.22887 -0.728174,0.29604 -0.163137,0.0672 -0.496938,-0.0782 -0.741778,-0.32304 -0.24484,-0.24484 -0.734215,-0.44517 -1.0875,-0.44517 -0.353284,0 -0.778203,-0.16371 -0.944264,-0.3638 -0.166061,-0.20009 -0.487581,-0.3638 -0.71449,-0.3638 -0.226908,0 -1.293261,-0.3125 -2.369673,-0.69444 l -1.957112,-0.69444 -0.640638,0.29189 c -0.425326,0.19379 -0.640639,0.51086 -0.640639,0.94341 0,0.35833 0.115827,0.7231 0.257393,0.81059 0.141567,0.0875 0.367752,0.60054 0.502634,1.1401 0.134883,0.53956 0.314022,1.28868 0.398087,1.66471 0.08406,0.37604 0.512724,1.13655 0.952574,1.69003 0.439851,0.55348 0.799729,1.201 0.799729,1.43894 0,0.23793 0.625078,1.09661 1.389062,1.90818 0.763985,0.81156 1.627188,1.60893 1.918229,1.77192 0.291042,0.16299 0.875116,0.29997 1.297943,0.3044 0.422827,0.004 1.152255,-0.28445 1.620952,-0.64194 z m 74.14226,0.0547 c 0.15901,-0.32742 0.48381,-1.60734 0.72178,-2.84427 0.23797,-1.23693 0.5468,-4.09443 0.68628,-6.35 0.13949,-2.25557 0.36941,-4.59556 0.51093,-5.19998 0.14153,-0.60441 0.37478,-3.25139 0.51834,-5.88217 0.14356,-2.63078 0.18906,-7.97032 0.10111,-11.86565 -0.0879,-3.89532 -0.26594,-7.2163 -0.39553,-7.37994 -0.1296,-0.16364 -0.799,-0.36022 -1.48756,-0.43683 -0.68855,-0.0766 -2.68067,-0.39629 -4.42692,-0.71039 -1.74625,-0.3141 -3.82984,-0.6899 -4.63021,-0.83511 -0.80036,-0.14521 -2.76489,-0.49631 -4.36562,-0.78024 -1.60073,-0.28392 -4.3987,-0.77212 -6.21771,-1.08489 -1.81901,-0.31277 -4.0812,-0.57966 -5.02709,-0.59309 l -1.71979,-0.0244 0.075,2.91042 c 0.0412,1.60073 0.0907,6.72041 0.10991,11.37708 0.0192,4.65667 -0.0431,11.02651 -0.13855,14.15521 -0.0954,3.1287 -0.27222,6.10526 -0.39287,6.61458 -0.12065,0.50933 -0.15157,1.58089 -0.0687,2.38125 l 0.15066,1.45521 0.83002,-0.0631 c 0.47998,-0.0365 0.96787,0.10299 1.15688,0.33073 0.17977,0.21661 0.54359,0.39383 0.8085,0.39383 0.2649,0 0.8754,0.22416 1.35666,0.49813 0.48126,0.27397 2.18471,0.80022 3.78544,1.16943 1.60073,0.36921 3.56526,0.74702 4.36562,0.83957 0.80037,0.0926 2.46724,0.39046 3.70417,0.66202 1.23693,0.27156 3.55865,0.78834 5.15938,1.1484 1.60073,0.36007 3.27725,0.66701 3.7256,0.6821 0.59942,0.0202 0.89171,-0.13013 1.1043,-0.56788 z m -74.325745,-16.04566 0.08958,-0.63369 -1.607705,-1.50628 c -0.943977,-0.88442 -2.031325,-1.6332 -2.633814,-1.81371 -0.564361,-0.16909 -1.499859,-0.30743 -2.078885,-0.30743 -0.673715,0 -1.196949,0.16671 -1.453192,0.46302 -0.220229,0.25466 -0.536338,0.86774 -0.702465,1.3624 -0.166127,0.49466 -0.30205,1.17449 -0.30205,1.51073 v 0.61136 l 0.992188,0.26477 c 0.545703,0.14562 1.468437,0.37111 2.050521,0.5011 0.582083,0.12998 2.070364,0.22398 3.307291,0.20887 l 2.248959,-0.0275 z M 53.58251,285.57444 c -0.01806,-1.65147 -0.05613,-3.95517 -0.0846,-5.11933 -0.02847,-1.16417 0.102878,-3.96214 0.291881,-6.21771 0.189002,-2.25557 0.574959,-5.14684 0.857681,-6.42503 0.282722,-1.27819 0.618144,-2.59779 0.745381,-2.93245 0.127238,-0.33466 0.493342,-1.84871 0.813566,-3.36456 0.408417,-1.93333 0.593093,-3.78288 0.61863,-6.19567 l 0.03641,-3.43958 -1.322916,-0.16553 c -0.727605,-0.091 -2.256125,-0.35893 -3.396713,-0.59531 -1.140587,-0.23638 -2.510185,-0.42979 -3.04355,-0.42979 -0.533365,0 -1.802813,-0.24174 -2.820996,-0.53721 l -1.851241,-0.53722 -3.96875,0.0446 -3.968751,0.0446 -1.852083,-0.7099 c -1.018646,-0.39045 -2.56486,-0.94671 -3.436031,-1.23613 l -1.583949,-0.52622 -1.974812,0.0973 -1.974813,0.0973 -0.195072,0.72941 c -0.10729,0.40117 -0.33114,2.05808 -0.497443,3.68202 -0.168481,1.6452 -0.254701,5.29577 -0.194717,8.24429 0.05921,2.91042 0.02136,6.3037 -0.0841,7.54063 -0.105464,1.23692 -0.321469,3.20145 -0.480011,4.36562 -0.158542,1.16417 -0.482626,3.48589 -0.720186,5.15938 -0.23756,1.67349 -0.537486,3.45942 -0.666502,3.96875 l -0.234576,0.92604 0.549882,0.45457 c 0.302435,0.25002 0.98787,0.53382 1.523189,0.63067 0.535319,0.0969 1.270964,0.32608 1.634766,0.50938 0.363802,0.1833 1.435365,0.5169 2.38125,0.74133 0.945886,0.22443 2.910417,0.64829 4.365625,0.9419 1.455208,0.29361 3.657865,0.73134 4.894792,0.97273 1.236927,0.24139 2.784739,0.55012 3.439583,0.68607 0.654844,0.13594 1.488281,0.29111 1.852084,0.34482 0.363802,0.0537 1.971145,0.35643 3.571875,0.67271 1.600729,0.31627 3.624791,0.72749 4.497916,0.91381 l 1.5875,0.33877 0.361322,-0.33613 0.361322,-0.33613 z m 151.19318,2.94295 c 0.47761,-0.29518 1.2251,-1.09885 1.66111,-1.78594 0.43601,-0.68709 1.11935,-2.02317 1.51854,-2.96905 0.52219,-1.23734 0.73297,-2.20225 0.75137,-3.43958 l 0.0256,-1.7198 -2.26791,0.0504 -2.26791,0.0504 -1.7985,-0.65282 c -0.98918,-0.35905 -2.04894,-0.82823 -2.35502,-1.04263 -0.34672,-0.24285 -1.18268,-0.3898 -2.21745,-0.3898 -1.15479,0 -1.65952,0.10078 -1.65633,0.33073 0.003,0.1819 0.12313,1.45646 0.26803,2.83234 0.17826,1.69268 0.56954,3.33491 1.21002,5.07852 0.61866,1.68419 1.15398,2.71279 1.54526,2.96917 0.32928,0.21575 1.18169,0.57127 1.89425,0.79004 0.71256,0.21877 1.63869,0.40605 2.05808,0.41619 0.41939,0.0101 1.15328,-0.22308 1.63088,-0.51825 z m -241.812091,-6.54498 c 0.161596,-0.10691 0.474539,-0.55157 0.695427,-0.98814 0.220889,-0.43656 0.539887,-1.44673 0.708883,-2.24482 l 0.307267,-1.45108 -0.457951,-0.33486 c -0.251873,-0.18417 -0.67332,-0.34974 -0.936548,-0.36793 -0.263229,-0.0182 -0.587738,-0.048 -0.721132,-0.0661 -0.133394,-0.0182 -0.331832,-0.12237 -0.440972,-0.23151 -0.109141,-0.10914 -0.427866,-0.19844 -0.708278,-0.19844 -0.280411,0 -0.564541,-0.20836 -0.6314,-0.46302 -0.08046,-0.30645 -0.422424,-0.48474 -1.011321,-0.52726 -0.489369,-0.0353 -1.227192,-0.20114 -1.639607,-0.36846 -0.412415,-0.16733 -1.255861,-0.34117 -1.874325,-0.38633 l -1.124479,-0.0821 v 0.52426 c 0,0.28835 0.370293,1.26501 0.822872,2.17036 0.45258,0.90536 1.314012,2.2887 1.914294,3.0741 0.600281,0.78539 1.450379,1.5844 1.889106,1.77558 0.438728,0.19117 1.273936,0.35042 1.85602,0.35389 0.582083,0.003 1.190548,-0.0812 1.352144,-0.18808 z M 205.81859,271.79809 c 0.71585,-0.0528 1.08134,-0.21428 1.13681,-0.50231 0.045,-0.23348 -0.31397,-0.94705 -0.79763,-1.58571 -0.48365,-0.63867 -1.29287,-1.37607 -1.79826,-1.63867 -0.62604,-0.32529 -1.28585,-0.44008 -2.07031,-0.36019 -0.82586,0.0841 -1.35581,0.33132 -1.87428,0.87433 -0.39757,0.41639 -1.15935,1.08957 -1.69285,1.49595 -0.53349,0.40639 -0.96999,0.84013 -0.96999,0.96388 0,0.12375 0.20836,0.31196 0.46302,0.41824 0.25466,0.10628 1.1774,0.26867 2.05052,0.36087 0.87313,0.0922 2.24235,0.14148 3.04271,0.10953 0.80037,-0.032 1.92998,-0.0931 2.51026,-0.13592 z m -241.592312,-2.58777 c -0.01706,-0.50933 -0.171863,-1.43723 -0.344017,-2.062 -0.229506,-0.83292 -0.798794,-1.62271 -2.133996,-2.96056 -1.001544,-1.00353 -2.18619,-2.01346 -2.632546,-2.24428 -0.446356,-0.23082 -0.811556,-0.53567 -0.811556,-0.67746 0,-0.14178 -0.224432,-0.25779 -0.498737,-0.25779 -0.274305,0 -0.681728,0.27928 -0.905383,0.62062 -0.223655,0.34134 -0.981489,0.98991 -1.684075,1.44125 -0.702587,0.45135 -1.480142,1.21387 -1.7279,1.69449 -0.247758,0.48062 -0.579635,1.37937 -0.737505,1.99722 -0.193982,0.7592 -0.201061,1.28402 -0.02184,1.61891 l 0.265199,0.49553 2.721264,0.19124 c 1.496695,0.10518 3.407859,0.36634 4.247031,0.58034 0.839172,0.214 1.732141,0.32489 1.984375,0.24641 0.252234,-0.0785 0.637201,-0.0257 0.855483,0.11738 0.218281,0.14303 0.635,0.22961 0.926041,0.1924 l 0.529167,-0.0677 z m 143.628582,-1.52136 c 0.3791,-0.40018 1.17361,-1.62057 1.76557,-2.71198 0.59196,-1.0914 1.07797,-2.16706 1.08001,-2.39035 0.002,-0.22328 -0.34207,-0.61024 -0.7647,-0.85989 -0.55288,-0.3266 -1.35994,-0.45392 -2.87715,-0.45392 -1.1981,0 -2.59449,-0.17139 -3.23359,-0.39688 -0.61868,-0.21828 -1.35176,-0.39687 -1.62907,-0.39687 -0.27731,0 -0.57055,0.17287 -0.65163,0.38416 -0.0811,0.21129 0.28398,1.55075 0.81124,2.97656 0.52727,1.42582 1.25387,3.03889 1.61469,3.58459 l 0.65603,0.99219 h 1.26966 1.26966 z M 1.2635351,256.11252 c 0.5526613,-0.26226 1.5807384,-1.191 2.2935208,-2.07192 0.886869,-1.09606 1.4566849,-2.14118 1.8176142,-3.33375 0.2891626,-0.95544 0.6483693,-2.27294 0.798237,-2.92778 0.1498678,-0.65485 0.2735742,-1.84547 0.2749033,-2.64584 0.00133,-0.80036 -0.099023,-1.61526 -0.2230049,-1.81089 l -0.2254214,-0.35568 -0.7627146,0.39251 c -0.5572141,0.28676 -1.3686583,0.36355 -3.0116729,0.28502 -1.23692714,-0.0591 -2.97726374,-0.16191 -3.8674147,-0.22843 -0.890151,-0.0665 -1.9396988,-0.24309 -2.3323285,-0.39236 -0.3926297,-0.14928 -1.3030493,-0.27142 -2.0231546,-0.27142 -0.7201054,0 -1.5403772,-0.14432 -1.8228263,-0.32071 -0.282449,-0.17639 -0.5988438,-0.23541 -0.7030995,-0.13116 -0.1042557,0.10426 -0.1653044,0.87366 -0.1356639,1.70978 0.029726,0.83853 0.4074721,2.58801 0.8424003,3.90147 0.4336796,1.30968 1.2929854,3.30009 1.9095685,4.42312 0.7607863,1.38568 1.5850389,2.43636 2.5648169,3.26939 l 1.4437567,1.22752 1.08041337,-0.12178 c 0.59422735,-0.067 1.53115894,-0.33567 2.08207023,-0.59709 z M 111.91287,254.7872 c 0.0959,-0.51116 0.0949,-1.56519 -0.002,-2.3423 -0.0971,-0.77712 -0.33704,-1.93648 -0.5332,-2.57636 -0.19617,-0.63989 -0.59818,-1.71942 -0.89336,-2.39895 -0.29518,-0.67953 -0.97346,-1.71897 -1.50729,-2.30986 -0.57106,-0.63209 -1.36591,-1.18349 -1.9309,-1.33949 -0.6786,-0.18737 -1.21076,-0.17458 -1.81417,0.0436 -0.52564,0.19007 -0.97411,0.599 -1.16662,1.06376 -0.172,0.41525 -0.50476,0.85929 -0.73946,0.98675 -0.2347,0.12745 -0.65866,0.68845 -0.94213,1.24665 -0.28347,0.55821 -0.70586,1.25305 -0.93864,1.54409 -0.23279,0.29104 -0.6334,1.14173 -0.89024,1.89042 -0.25685,0.74869 -0.42977,1.87978 -0.38428,2.51354 l 0.0827,1.15229 1.71979,0.0471 c 0.94589,0.0259 2.96995,0.15722 4.49792,0.29184 1.52797,0.13463 3.19484,0.43115 3.70417,0.65895 0.50932,0.2278 1.06947,0.42389 1.24478,0.43576 0.17531,0.0119 0.3972,-0.39663 0.49309,-0.90778 z m -53.867138,-7.92653 c 0.177665,-0.21407 0.485066,-2.0893 0.683112,-4.16718 0.198046,-2.07788 0.500185,-4.84953 0.671419,-6.15922 0.171235,-1.30968 0.357346,-3.33375 0.413581,-4.49791 0.05623,-1.16417 0.278156,-2.73031 0.493157,-3.48031 0.215002,-0.75 0.390913,-1.52911 0.390913,-1.73136 0,-0.2349 -0.549501,-0.48102 -1.521354,-0.6814 -0.836745,-0.17253 -2.652448,-0.50327 -4.034896,-0.73498 -1.382448,-0.23172 -3.168386,-0.58486 -3.96875,-0.78475 -0.800365,-0.1999 -2.407709,-0.49895 -3.571875,-0.66455 -1.164167,-0.16561 -2.71198,-0.40834 -3.439584,-0.53941 -0.727604,-0.13106 -3.121945,-0.47426 -5.320757,-0.76266 -2.198813,-0.28839 -4.520532,-0.60269 -5.159375,-0.69843 -0.638844,-0.0957 -1.816378,-0.35132 -2.616743,-0.56794 -0.800364,-0.21663 -1.783721,-0.4537 -2.185236,-0.52682 -0.401515,-0.0731 -0.90753,0.0144 -1.124479,0.19441 -0.216948,0.18005 -0.394452,0.53016 -0.394452,0.77802 0,0.24785 0.297657,0.73028 0.661459,1.07205 0.363802,0.34178 0.661458,0.87638 0.661458,1.18801 0,0.31999 -0.526027,1.09262 -1.208607,1.7752 l -1.208607,1.20861 -0.228109,3.2719 c -0.125461,1.79955 -0.261696,4.74459 -0.302746,6.54453 l -0.07464,3.27262 0.614623,0.49769 c 0.338043,0.27373 0.813066,0.49769 1.055607,0.49769 0.242541,0 0.735366,0.2081 1.095167,0.46243 0.370862,0.26216 1.456309,0.54727 2.506267,0.65832 1.018646,0.10773 2.923646,0.25688 4.233334,0.33143 1.309687,0.0745 3.200394,0.31903 4.201569,0.54329 1.001176,0.22426 2.149529,0.57799 2.551896,0.78606 0.402366,0.20808 1.250098,0.508 1.883847,0.6665 0.633749,0.15849 2.640552,0.58898 4.459563,0.95663 1.81901,0.36764 4.616979,0.88409 6.217708,1.14766 1.600729,0.26356 2.985135,0.49133 3.076458,0.50615 0.09132,0.0148 0.311403,-0.1482 0.489069,-0.36228 z M 4.7921827,236.77336 c 0.052604,-0.15954 -0.4353606,-1.01139 -1.0843661,-1.89301 -0.8541302,-1.16025 -1.404496,-1.65223 -1.9928734,-1.78146 -0.4470748,-0.0982 -0.81286333,-0.34767 -0.81286333,-0.55439 0,-0.20672 -0.14882812,-0.38851 -0.33072917,-0.40398 -0.18190104,-0.0155 -0.50932292,-0.0486 -0.72760417,-0.0736 -0.21828125,-0.025 -0.94673973,-0.14258 -1.61879653,-0.26127 l -1.2219215,-0.2158 -0.7707824,0.39859 c -0.4239303,0.21922 -1.3387106,1.00575 -2.0328451,1.74783 -0.6941344,0.74209 -1.1917248,1.46306 -1.1057563,1.60216 0.085969,0.1391 0.5444644,0.23831 1.0188797,0.22048 0.4744153,-0.0178 1.1543474,0.15793 1.5109602,0.39058 0.3589275,0.23417 1.4752127,0.48536 2.5004703,0.56266 1.01864579,0.0768 2.2092708,0.25434 2.64583331,0.39451 0.43656249,0.14017 1.49867509,0.23279 2.36025029,0.20582 0.8615752,-0.027 1.6095401,-0.17957 1.6621442,-0.33912 z m -39.2973937,-18.4165 c 0.389583,-0.14265 1.015517,-0.70263 1.390964,-1.2444 0.375446,-0.54177 1.096314,-1.98943 1.601929,-3.21703 0.505614,-1.22759 0.921477,-2.38082 0.92414,-2.56272 0.0027,-0.1819 -0.300672,-0.33073 -0.674076,-0.33073 -0.373404,0 -1.772388,-0.25971 -3.108854,-0.57713 -1.336466,-0.31742 -2.58727,-0.73414 -2.779565,-0.92604 -0.192296,-0.1919 -0.609015,-0.35022 -0.926042,-0.35182 -0.317028,-0.002 -1.01046,-0.0747 -1.54096,-0.16243 l -0.964547,-0.15951 -0.18145,0.82614 c -0.109153,0.49696 -0.0033,1.53664 0.26576,2.60933 0.245965,0.98077 0.746904,2.37462 1.113196,3.09747 0.366293,0.72284 1.029916,1.76712 1.474718,2.32062 l 0.808731,1.00636 0.943861,-0.0344 c 0.519123,-0.0189 1.262611,-0.15109 1.652195,-0.29373 z m 2.924835,-13.38186 0.288745,-0.34791 -1.034916,-2.03808 -1.034915,-2.03807 -0.881445,-0.0845 c -0.484795,-0.0465 -1.258701,0.051 -1.719792,0.21657 -0.46109,0.16559 -1.49319,0.35671 -2.293555,0.4247 -1.043636,0.0887 -1.586163,0.27891 -1.918229,0.67265 -0.254661,0.30196 -0.463021,0.95254 -0.463021,1.44575 0,0.4932 -0.02976,0.98238 -0.06615,1.08707 -0.03638,0.10469 0.811354,0.33727 1.883854,0.51684 1.072499,0.17957 2.020931,0.39743 2.107626,0.48412 0.08669,0.0867 1.211848,0.12414 2.500338,0.0832 1.533465,-0.0487 2.442452,-0.19459 2.631456,-0.42233 z"
       id="path2" /></g></svg>
