<?xml version="1.0" encoding="UTF-8" standalone="no"?>
<!-- Created with Inkscape (http://www.inkscape.org/) -->

<svg
   width="159.48541mm"
   height="110.34825mm"
   viewBox="0 0 159.48541 110.34825"
   version="1.1"
   id="svg1"
   xml:space="preserve"
   xmlns="http://www.w3.org/2000/svg"
   xmlns:svg="http://www.w3.org/2000/svg"><defs
     id="defs1" /><g
     id="layer1"
     transform="translate(-21.783085,-62.554287)"><path
       style="fill:#ddaabb;fill-opacity:1"
       d="m 82.873657,172.66178 c -0.234211,-0.13107 -1.234357,-0.25526 -2.222548,-0.27597 -0.988191,-0.0207 -2.511085,-0.009 -3.38421,0.0267 -0.873125,0.0354 -3.075782,-0.0111 -4.894792,-0.10328 -1.819011,-0.0922 -4.140729,-0.063 -5.159375,0.065 -1.018646,0.12797 -2.804584,0.15061 -3.96875,0.0503 -1.164167,-0.10029 -6.127714,-0.0552 -11.030105,0.10018 l -8.913439,0.28252 -1.325026,-0.90419 c -0.749134,-0.51121 -1.393917,-1.17867 -1.483531,-1.53572 -0.09685,-0.3859 0.01665,-0.89886 0.291831,-1.31883 0.318565,-0.48619 0.503888,-1.55183 0.63336,-3.64192 l 0.183026,-2.95463 0.579423,-1.19693 c 0.379912,-0.78479 0.849806,-1.30893 1.364673,-1.52219 0.443627,-0.18376 1.158656,-0.25119 1.64356,-0.155 0.472071,0.0936 1.042816,0.4132 1.268323,0.71013 0.225507,0.29692 0.880351,0.64892 1.455208,0.78222 0.574858,0.1333 1.584231,0.2452 2.243052,0.24867 0.65882,0.003 2.861477,0.2418 4.894791,0.52961 2.033315,0.28781 4.382782,0.65126 5.221038,0.80766 0.838255,0.15641 1.641927,0.21156 1.785937,0.12255 0.14401,-0.089 0.261837,-0.57934 0.261837,-1.08964 0,-0.5103 0.125288,-1.16192 0.278417,-1.44805 0.15313,-0.28612 0.34422,-1.37962 0.424644,-2.43 0.08042,-1.05038 0.322159,-2.2503 0.537188,-2.6665 0.215029,-0.4162 0.429946,-1.66636 0.477593,-2.77813 0.04765,-1.11177 0.158776,-2.20151 0.246951,-2.42165 0.08818,-0.22015 0.188185,-1.41077 0.222243,-2.64584 l 0.06192,-2.24557 -9.525,-0.0295 c -5.23875,-0.0162 -11.132344,-0.15577 -13.096875,-0.31014 -1.964532,-0.15436 -4.822032,-0.28541 -6.350001,-0.29123 -1.527968,-0.006 -3.552031,-0.0887 -4.497916,-0.18407 -0.945886,-0.0954 -2.672292,-0.19758 -3.836459,-0.22703 -1.33752,-0.0338 -2.4918,-0.22259 -3.135772,-0.51278 l -1.019105,-0.45924 0.184096,-2.4326 0.184097,-2.4326 0.647746,-1.12451 0.647746,-1.12452 0.291323,-2.97652 0.291323,-2.97653 -0.315435,-7.80521 c -0.173487,-4.29279 -0.423634,-10.96029 -0.555879,-14.8166 -0.132245,-3.8563 -0.305055,-8.559267 -0.384021,-10.451037 -0.07897,-1.891771 -0.273366,-5.822603 -0.431997,-8.735182 -0.210598,-3.866703 -0.208695,-6.234837 0.0071,-8.776491 0.16251,-1.914492 0.278237,-3.579598 0.257172,-3.700235 -0.02107,-0.120638 -0.02238,-1.826686 -0.0029,-3.791217 0.02392,-2.414234 0.118508,-3.443248 0.291864,-3.175 0.141064,0.218281 0.258303,0.731323 0.260532,1.140094 0.0023,0.427303 0.116516,0.673712 0.268634,0.579698 0.145521,-0.08994 0.264584,-0.692276 0.264584,-1.338532 0,-0.868065 -0.103675,-1.17501 -0.396875,-1.17501 -0.218281,0 -0.396875,-0.119063 -0.396875,-0.264583 0,-0.145521 -0.155238,-0.264584 -0.344973,-0.264584 -0.189735,0 -0.737591,-0.40508 -1.217459,-0.900177 l -0.872486,-0.900177 0.359973,-0.751059 c 0.197985,-0.413082 0.716076,-0.930737 1.151313,-1.150343 l 0.79134,-0.399285 8.835682,-0.05534 c 5.748036,-0.036 9.353943,-0.167866 10.318751,-0.377356 0.94028,-0.204164 3.758686,-0.317518 7.700776,-0.30972 3.41974,0.0068 8.420365,0.0901 11.1125,0.185182 2.692136,0.09509 6.502136,0.293487 8.466667,0.440894 1.964532,0.147406 5.834063,0.438186 8.598959,0.646177 3.469077,0.260963 5.970087,0.310004 8.069792,0.158239 1.67349,-0.12096 3.1273,-0.172314 3.230691,-0.114121 0.10339,0.05819 3.258547,0.239315 7.011458,0.402492 3.752913,0.163177 7.537843,0.330184 8.410973,0.371126 0.87312,0.04094 4.1863,0.199623 7.36261,0.352626 3.17631,0.153003 5.8606,0.331024 5.9651,0.395603 0.10449,0.06458 1.49428,-0.05648 3.08843,-0.269014 1.59414,-0.212537 3.55329,-0.385227 4.35365,-0.383755 0.80037,0.0015 2.14593,-0.06609 2.99014,-0.150143 0.84422,-0.08405 1.81816,-0.08173 2.16432,0.0051 0.34615,0.08688 0.80337,0.331959 1.01603,0.544621 0.2746,0.274597 0.36061,0.830617 0.29677,1.918513 -0.0494,0.842521 -0.27463,2.241173 -0.50044,3.108117 -0.22581,0.866944 -0.41057,1.897524 -0.41057,2.290179 0,0.392654 -0.36593,2.659592 -0.81319,5.03764 l -0.81319,4.323724 -0.1056,4.630208 c -0.0581,2.546615 -0.1689,5.463646 -0.24625,6.482292 -0.0774,1.018646 -0.26093,3.340364 -0.40794,5.159375 -0.14701,1.81901 -0.32744,4.438381 -0.40096,5.820831 -0.0735,1.38245 -0.31683,3.93535 -0.5407,5.67311 l -0.40704,3.15957 0.33139,1.86751 c 0.18227,1.02714 0.338,4.01064 0.34608,6.63002 0.008,2.61937 -0.10055,7.79859 -0.24141,11.50937 -0.14086,3.71079 -0.24456,7.26356 -0.23046,7.89506 0.0141,0.63151 0.16543,1.40939 0.33629,1.72864 l 0.31065,0.58044 -0.38826,0.74837 c -0.21354,0.4116 -0.72131,0.94982 -1.12839,1.19604 l -0.74013,0.44768 -1.46534,-0.20609 c -0.80594,-0.11336 -3.1427,-0.13485 -5.1928,-0.0478 l -3.72746,0.15833 -2.09337,-0.41895 c -1.15136,-0.23042 -3.10541,-0.53687 -4.34234,-0.681 -1.23692,-0.14413 -4.29748,-0.40961 -6.80123,-0.58996 l -4.552264,-0.32791 -4.443562,0.31793 c -2.443958,0.17486 -4.919811,0.32136 -5.501894,0.32556 -0.76115,0.005 -1.293205,0.20892 -1.894758,0.72448 l -0.836425,0.71685 -0.273713,1.5875 c -0.150542,0.87313 -0.467356,3.23876 -0.704031,5.25697 -0.236675,2.01821 -0.451488,5.32618 -0.477363,7.35105 l -0.04704,3.68157 0.396875,0.25168 c 0.218281,0.13842 1.527969,0.25114 2.910417,0.25048 1.382448,-6.5e-4 3.346979,-0.1261 4.365625,-0.27878 1.018646,-0.15267 2.268802,-0.32992 2.778125,-0.39388 0.509323,-0.064 1.241728,-0.1817 1.627568,-0.26163 0.385839,-0.0799 1.200529,-0.19498 1.810422,-0.25566 0.639679,-0.0636 1.514268,0.0591 2.066918,0.28997 0.52691,0.22016 1.17074,0.59279 1.43072,0.82808 0.25999,0.23529 0.47271,0.63233 0.47271,0.88232 0,0.24999 -0.23748,0.99137 -0.52772,1.64752 -0.30843,0.69726 -0.56647,1.95886 -0.62097,3.03609 -0.0513,1.0137 -0.19894,2.01004 -0.32812,2.21407 -0.12919,0.20404 -0.2367,0.48842 -0.23893,0.63195 -0.002,0.14352 -0.24218,0.30516 -0.53322,0.3592 -0.291044,0.054 -0.648232,0.1906 -0.793753,0.30349 -0.145521,0.11289 -3.848343,0.20411 -8.228494,0.20272 -4.38015,-0.001 -8.155537,-0.10977 -8.389748,-0.24084 z m 11.483051,-2.74615 c 0.631977,-0.22297 1.46837,-0.73202 1.858652,-1.13121 0.390281,-0.39919 0.735327,-0.96089 0.766768,-1.24824 0.03144,-0.28734 0.04345,-0.66061 0.0267,-0.8295 -0.02185,-0.2202 -0.866754,-0.2757 -2.987044,-0.1962 -1.626117,0.061 -3.382289,0.22058 -3.902604,0.35469 -0.520316,0.13411 -1.898528,0.32201 -3.062695,0.41755 -1.164166,0.0955 -2.533385,0.29908 -3.042708,0.4523 -0.509323,0.15322 -1.240529,0.39013 -1.624902,0.52645 -0.492282,0.1746 -0.883327,0.14414 -1.322917,-0.10305 -0.343231,-0.19301 -0.713353,-0.46999 -0.822494,-0.61551 -0.124693,-0.16625 -0.291393,-0.11998 -0.448569,0.12453 l -0.250132,0.3891 -1.006639,-0.36538 c -0.553651,-0.20095 -1.304295,-0.42457 -1.668097,-0.49693 -0.363803,-0.0724 -3.042709,-0.15269 -5.953126,-0.17854 l -5.291666,-0.047 -1.190625,-0.4107 c -0.654844,-0.22588 -1.845469,-0.53836 -2.645834,-0.6944 -0.800364,-0.15605 -2.764896,-0.51561 -4.365625,-0.79904 -1.600729,-0.28343 -3.89765,-0.66039 -5.104268,-0.8377 -1.206618,-0.17731 -2.966064,-0.32965 -3.909879,-0.33853 -1.183637,-0.0111 -1.838105,0.10593 -2.109513,0.37734 -0.216417,0.21642 -0.495779,1.22092 -0.620805,2.23223 -0.125026,1.01132 -0.175782,1.92805 -0.112792,2.03719 0.06299,0.10914 0.434923,0.19914 0.826517,0.2 0.391595,8.5e-4 1.902615,0.18558 3.357823,0.41049 l 2.645834,0.40894 14.948958,0.0327 c 10.95716,0.024 15.26689,0.12 16.139584,0.35959 0.694894,0.19078 2.966917,0.33673 5.456839,0.35054 l 4.266214,0.0237 z m -15.899184,-6.74239 0.396875,-0.26054 -0.396875,-0.26053 c -0.265392,-0.17422 -0.287306,-0.26187 -0.06615,-0.26458 0.181901,-0.002 0.568854,-0.24218 0.859896,-0.53322 0.378098,-0.3781 0.530968,-0.88795 0.535478,-1.78594 0.0035,-0.69122 0.121696,-1.73302 0.262719,-2.3151 0.141024,-0.58208 0.498589,-3.14193 0.794588,-5.68854 0.296,-2.54662 0.662116,-5.33054 0.813593,-6.1865 0.199847,-1.1293 0.193889,-1.63745 -0.02172,-1.85209 -0.200132,-0.19923 -1.868648,-0.28331 -5.111207,-0.25755 -2.647744,0.021 -5.290331,0.14794 -5.872414,0.28204 l -1.058333,0.2438 0.0754,0.70533 c 0.04147,0.38793 -0.104088,0.97926 -0.323467,1.31408 l -0.398871,0.60875 -0.0059,4.22472 c -0.0032,2.32359 -0.02361,4.55213 -0.04524,4.95231 -0.02163,0.40019 -0.129837,0.72761 -0.240462,0.72761 -0.110624,0 -0.160808,1.03773 -0.111519,2.30607 l 0.08961,2.30608 0.440571,0.32215 c 0.243813,0.17828 0.354519,0.46139 0.247887,0.63392 -0.105976,0.17148 -0.03942,0.4065 0.147912,0.52227 0.187328,0.11578 1.353444,0.22145 2.591369,0.23484 1.237925,0.0134 2.310379,0.0839 2.383232,0.15679 0.07285,0.0728 0.916287,0.13064 1.874299,0.12841 0.958012,-0.002 1.920434,-0.12129 2.138716,-0.26458 z M 67.477315,142.09016 c 2.464919,-0.30967 6.138653,-0.45374 12.964584,-0.5084 5.23875,-0.042 11.549063,-0.21443 14.022917,-0.38327 l 4.497917,-0.30698 4.762497,0.30777 c 2.61938,0.16926 5.83407,0.42387 7.14375,0.56578 1.30969,0.14191 3.45282,0.44786 4.7625,0.67988 l 2.38125,0.42186 2.85915,-0.25775 c 1.57253,-0.14177 2.98704,-0.38566 3.14336,-0.54198 0.15632,-0.15632 0.32958,-0.97711 0.38502,-1.82398 0.0554,-0.84687 0.17051,-3.68289 0.25572,-6.30226 0.0852,-2.61938 0.17231,-7.62 0.19357,-11.1125 0.0213,-3.4925 -0.0668,-7.32439 -0.1958,-8.51531 -0.15902,-1.46863 -0.13714,-2.66044 0.068,-3.70417 0.16635,-0.84637 0.4342,-3.56292 0.59522,-6.03677 0.16102,-2.47385 0.3284,-4.974167 0.37196,-5.556251 0.0436,-0.582083 0.20947,-2.961301 0.36869,-5.287151 0.15923,-2.32585 0.2895,-5.548809 0.2895,-7.162132 0,-1.977023 0.3019,-4.985384 0.92604,-9.227795 0.50932,-3.461964 0.92604,-6.763752 0.92604,-7.337306 V 68.95862 l -0.99219,-0.427457 -0.99218,-0.427458 -4.23334,-0.08282 c -2.32833,-0.04555 -7.24691,-0.206847 -10.93018,-0.358441 -3.68327,-0.151594 -6.79472,-0.215144 -6.91433,-0.141222 -0.11961,0.07392 -1.15415,0.02163 -2.29898,-0.116212 -1.14483,-0.137839 -3.986507,-0.314613 -6.314841,-0.392832 -2.328333,-0.07822 -7.38849,-0.189781 -11.244792,-0.247913 -3.856302,-0.05813 -8.559271,-0.242684 -10.451042,-0.410114 -1.891771,-0.16743 -5.939896,-0.42611 -8.995833,-0.574845 -3.055938,-0.148735 -8.532813,-0.280443 -12.170834,-0.292684 -4.731288,-0.01592 -7.066575,0.08117 -8.202084,0.341004 -0.873125,0.199793 -2.54,0.38937 -3.704166,0.421282 -1.164167,0.03191 -4.487431,0.123884 -7.385032,0.204383 l -5.268365,0.146362 -0.618614,0.405331 c -0.41025,0.268806 -0.618615,0.660747 -0.618615,1.163632 0,0.417065 0.113763,2.825336 0.252806,5.351713 0.139042,2.526377 0.31381,7.093726 0.388371,10.149663 0.07456,3.055938 0.262452,6.449219 0.417535,7.540625 0.155083,1.091406 0.32775,3.532188 0.383706,5.423958 0.05596,1.891771 0.170839,6.178025 0.255295,9.525005 0.08446,3.34698 0.208462,6.79979 0.275566,7.67292 0.06711,0.87312 0.189492,6.64477 0.271972,12.82588 l 0.149963,11.23839 -0.520108,0.40328 c -0.286059,0.2218 -0.597603,0.72209 -0.692319,1.11174 l -0.17221,0.70846 0.824741,0.42649 0.824741,0.42649 0.968844,-0.26751 0.968844,-0.26751 2.132898,0.50419 c 1.173093,0.27731 3.085397,0.57681 4.249564,0.66557 1.164167,0.0888 3.783542,0.33571 5.820833,0.54879 2.037292,0.21308 4.478073,0.4162 5.423959,0.45137 0.945885,0.0352 4.696354,0.0302 8.334375,-0.0109 4.081359,-0.0462 7.93186,-0.24039 10.054167,-0.50702 z m 52.519795,-1.91314 c -0.65485,-0.0965 -1.42875,-0.30479 -1.71979,-0.46295 -0.29105,-0.15815 -0.82683,-0.41553 -1.19063,-0.57195 -0.3638,-0.15643 -1.13771,-0.40019 -1.71979,-0.54169 -0.58208,-0.1415 -2.36802,-0.38356 -3.96875,-0.53792 -1.71379,-0.16527 -6.98981,-0.23857 -12.832292,-0.17828 -5.575495,0.0575 -10.617297,0.22971 -11.509376,0.39306 -0.873125,0.15987 -3.194844,0.29047 -5.159375,0.29021 -1.964531,-2.6e-4 -4.583906,-0.11915 -5.820833,-0.2642 -1.236928,-0.14504 -4.511146,-0.50179 -7.276042,-0.79277 -2.764896,-0.29099 -5.979584,-0.6514 -7.143751,-0.80092 -1.164166,-0.14952 -2.831041,-0.37754 -3.704166,-0.50672 -0.873125,-0.12917 -2.850277,-0.3042 -4.393671,-0.38894 -1.717071,-0.0943 -3.360064,-0.0363 -4.233333,0.14941 -0.78494,0.16693 -3.034507,0.32563 -4.999038,0.35267 -1.964532,0.027 -4.440195,0.12732 -5.501475,0.22283 -1.061281,0.0955 -2.132843,0.27768 -2.381251,0.40482 -0.248407,0.12715 -1.166025,0.13865 -2.03915,0.0256 -0.873125,-0.11309 -1.768784,-0.21567 -1.990353,-0.22795 -0.22157,-0.0123 -0.61503,-0.41631 -0.874357,-0.89786 l -0.471504,-0.87552 0.26042,-3.29166 c 0.143231,-1.81041 0.212515,-5.49432 0.153965,-8.18645 -0.05855,-2.69214 -0.169428,-7.03792 -0.246395,-9.65729 -0.07697,-2.61938 -0.195222,-5.53641 -0.262788,-6.4823 -0.06757,-0.94588 -0.179143,-2.91041 -0.247948,-4.36562 -0.06881,-1.45521 -0.196871,-3.776928 -0.284589,-5.159376 -0.08772,-1.382448 -0.27999,-2.966714 -0.427273,-3.520591 -0.147282,-0.553877 -0.250072,-2.756534 -0.228421,-4.894792 0.02165,-2.138258 0.03925,-6.20946 0.03912,-9.047117 -1.37e-4,-2.837656 -0.06542,-5.516562 -0.145074,-5.953124 -0.07965,-0.436563 -0.225479,-1.580785 -0.324057,-2.542715 -0.120447,-1.17533 -0.08308,-1.80839 0.113929,-1.930148 0.161238,-0.09965 1.039993,-0.449107 1.952787,-0.776569 l 1.659626,-0.595385 1.852083,0.364342 c 1.018646,0.200388 2.209271,0.400109 2.645833,0.443825 0.436563,0.04372 0.912813,0.108977 1.058334,0.145025 0.145521,0.03605 1.276614,0.0379 2.513542,0.0041 1.236927,-0.03378 2.393453,-0.179284 2.570059,-0.323343 0.212489,-0.17333 1.264312,-0.160375 3.109609,0.0383 1.658012,0.178512 7.373803,0.294557 14.098692,0.286238 6.2206,-0.0077 11.965026,-0.114199 12.76539,-0.236675 0.800365,-0.122476 2.46724,-0.18848 3.704167,-0.146676 1.236927,0.0418 3.082396,0.195862 4.101042,0.342349 1.018646,0.146487 5.185834,0.232381 9.260417,0.190874 5.191556,-0.05289 7.764601,-0.180758 8.598959,-0.427344 0.805198,-0.237969 2.389718,-0.328563 4.894788,-0.279856 2.03729,0.03961 4.12088,0.08169 4.63021,0.09351 0.50932,0.01182 1.81901,-0.05183 2.91041,-0.141427 1.09349,-0.08977 3.11284,-0.01794 4.49792,0.160001 1.38245,0.177602 2.98979,0.294594 3.57188,0.259982 0.58208,-0.03461 1.47505,-0.144507 1.98437,-0.244211 0.50932,-0.0997 1.00923,-0.310802 1.1109,-0.469106 0.12312,-0.191692 0.44283,-0.0971 0.95721,0.283196 0.53178,0.393158 0.85756,0.485816 1.0459,0.297473 0.18834,-0.188343 0.50829,-0.161156 1.02717,0.08728 l 0.75361,0.360829 0.22383,1.667704 0.22383,1.667705 -0.41631,0.460017 c -0.22897,0.253009 -0.7236,1.642714 -1.09917,3.088234 -0.4348,1.67343 -0.67768,3.302271 -0.66858,4.483666 0.008,1.020497 -0.0333,3.879512 -0.0914,6.353366 -0.0581,2.473854 -0.1817,5.748073 -0.27461,7.276041 -0.0929,1.527969 -0.23351,3.373438 -0.31242,4.101042 -0.0789,0.727604 -0.20144,3.882766 -0.27228,7.011456 -0.0708,3.1287 -0.16862,6.92693 -0.21728,8.44051 -0.0487,1.51359 -0.16251,3.77577 -0.25299,5.02709 -0.0905,1.25131 -0.21572,3.52527 -0.27832,5.05324 -0.0626,1.52797 -0.13169,4.2664 -0.15353,6.08541 -0.0218,1.81901 0.0465,3.51853 0.15187,3.77671 0.10537,0.25818 0.10751,1.47857 0.005,2.71198 l -0.1868,2.24256 h -0.39518 c -0.21734,0 -0.34503,0.14883 -0.28375,0.33073 0.0613,0.1819 -0.0776,0.47577 -0.30868,0.65305 -0.23106,0.17727 -0.53916,0.31019 -0.68468,0.29537 -0.14552,-0.0148 -0.80037,-0.10586 -1.45521,-0.20233 z m -32.676044,-4.81793 c 1.164166,-0.15016 6.283854,-0.32124 11.377083,-0.38018 5.093231,-0.059 11.224951,0.0132 13.626041,0.16044 2.4011,0.14718 4.75061,0.32971 5.22114,0.40561 l 0.85552,0.138 -0.15457,-0.77283 c -0.0886,-0.44318 -0.0303,-0.84961 0.13667,-0.95283 0.185,-0.11433 0.29148,-1.30841 0.29188,-3.27323 3.6e-4,-1.70128 0.11806,-4.64105 0.26156,-6.53282 0.1435,-1.89178 0.3847,-5.58271 0.536,-8.20209 0.15129,-2.61937 0.33564,-8.69156 0.40965,-13.49375 0.074,-4.802185 0.23405,-9.147966 0.35564,-9.657289 0.1216,-0.509323 0.2327,-3.606037 0.24689,-6.881588 0.0142,-3.27555 0.14609,-6.787894 0.2931,-7.805208 0.14701,-1.017314 0.26965,-2.33176 0.27253,-2.92099 l 0.005,-1.071327 -0.89192,-0.322524 c -0.49056,-0.177388 -1.08739,-0.247517 -1.32629,-0.155843 -0.2389,0.09167 -0.61424,0.01739 -0.8341,-0.16507 -0.21985,-0.182462 -0.90294,-0.381547 -1.51798,-0.442411 -0.61504,-0.06086 -2.30888,-0.144683 -3.76408,-0.186267 -1.45521,-0.04158 -3.7174,-0.26812 -5.02709,-0.503413 -1.30968,-0.235294 -3.09562,-0.480144 -3.96875,-0.544112 -0.87312,-0.06397 -2.42093,0.05737 -3.43958,0.269629 -1.110399,0.231383 -3.888345,0.424621 -6.936887,0.48254 -2.796642,0.05313 -5.183318,0.157491 -5.303725,0.231907 -0.120407,0.07442 -1.761308,0.09121 -3.646447,0.03732 -1.885139,-0.05389 -5.332526,-0.167037 -7.660859,-0.251445 -2.328333,-0.08441 -10.305521,-0.144471 -17.727084,-0.133474 -7.421563,0.011 -13.97,0.08734 -14.552084,0.16966 -0.582083,0.08232 -2.526562,0.129542 -4.321063,0.104948 -1.794502,-0.0246 -3.78503,-0.142294 -4.423397,-0.261554 -0.638367,-0.11926 -1.218049,-0.159454 -1.288182,-0.08932 -0.07013,0.07013 -0.134098,2.55054 -0.142145,5.512016 -0.008,2.961476 -0.145455,6.311065 -0.305354,7.443533 -0.175425,1.242437 -0.218459,3.26006 -0.108507,5.087412 0.100219,1.66561 0.290187,3.689673 0.422152,4.497917 0.131965,0.808244 0.358446,3.553129 0.503291,6.099743 0.144845,2.54662 0.33118,5.64224 0.414078,6.87917 0.0829,1.23693 0.194528,4.27302 0.248068,6.74688 0.05354,2.47385 0.100869,7.38153 0.105176,10.90594 l 0.0078,6.40803 0.607568,0.13198 c 0.334163,0.0726 1.635436,0.31559 2.891719,0.54001 l 2.28415,0.40804 4.595016,-0.14571 c 2.52726,-0.0801 6.083298,-0.13066 7.902309,-0.11228 1.81901,0.0184 4.140729,0.1365 5.159375,0.26248 1.018646,0.12598 3.399896,0.41642 5.291667,0.64543 1.891771,0.22901 4.68974,0.59786 6.217708,0.81965 1.527969,0.2218 3.032148,0.46633 3.342619,0.5434 0.310472,0.0771 2.09641,0.23208 3.968751,0.34447 1.87234,0.11239 4.297224,0.21561 5.388631,0.22937 1.091406,0.0138 2.936875,-0.0978 4.101042,-0.24797 z M 24.658911,70.925899 c -0.09701,-0.09701 -0.176389,-0.01764 -0.176389,0.176389 0,0.194028 0.07937,0.273403 0.176389,0.176389 0.09701,-0.09701 0.09701,-0.255764 0,-0.352778 z M 149.73441,149.14554 c -0.30662,-0.11589 -0.93169,-0.6647 -1.38906,-1.21956 -0.45737,-0.55486 -0.83157,-1.2171 -0.83157,-1.47163 0,-0.25453 0.30156,-0.66037 0.67014,-0.90187 l 0.67014,-0.4391 1.51267,0.17689 c 0.83197,0.0973 2.34611,0.24117 3.36475,0.31974 l 1.85209,0.14285 3.54178,-1.93727 c 1.94798,-1.06549 4.05537,-2.3886 4.68308,-2.94025 0.62771,-0.55164 1.85821,-1.94292 2.73444,-3.09173 0.87623,-1.14881 2.09253,-2.90012 2.70288,-3.89181 0.61035,-0.99168 1.74476,-3.05321 2.52092,-4.58118 0.77616,-1.52797 1.41131,-2.93798 1.41144,-3.13336 1.4e-4,-0.19538 0.28925,-1.20741 0.64247,-2.24896 0.35322,-1.04155 1.05958,-3.50106 1.56969,-5.4656 0.51012,-1.96453 1.05175,-4.28625 1.20362,-5.15937 0.15188,-0.87313 0.34122,-2.24234 0.42077,-3.04271 0.0795,-0.80036 0.14037,-4.17004 0.13518,-7.48818 l -0.009,-6.032968 -0.50608,-3.49203 c -0.27834,-1.920616 -0.75627,-4.424478 -1.06206,-5.564137 -0.3058,-1.139659 -0.90176,-2.747003 -1.32437,-3.571875 -0.42261,-0.824872 -1.66241,-2.52666 -2.7551,-3.78175 -1.23399,-1.417375 -3.12054,-3.135006 -4.97923,-4.533388 -1.64587,-1.238272 -3.82593,-2.784174 -4.84458,-3.435338 -1.01864,-0.651164 -2.92331,-1.68307 -4.2326,-2.293125 -1.30928,-0.610055 -3.26647,-1.341245 -4.34931,-1.624866 -1.08283,-0.283621 -2.48806,-0.515675 -3.12272,-0.515675 -0.63467,0 -1.5018,-0.179886 -1.92696,-0.399746 -0.42516,-0.21986 -1.07409,-0.842811 -1.44207,-1.384335 -0.36797,-0.541525 -0.66904,-1.303674 -0.66904,-1.693665 v -0.709075 l 0.99218,-0.161769 0.99219,-0.161768 4.7625,1.72732 c 2.61938,0.950026 6.43152,2.569114 8.47142,3.597974 2.24928,1.134463 4.85295,2.721873 6.61587,4.033589 1.59882,1.189613 3.73981,3.002365 4.75775,4.028337 1.01794,1.025972 2.60983,2.772791 3.53754,3.881819 0.9277,1.109028 1.91813,2.531783 2.20094,3.161679 0.2828,0.629896 0.73004,1.800109 0.99386,2.600473 0.26382,0.800365 0.61098,2.229115 0.77148,3.175 0.1605,0.945885 0.46663,3.029479 0.6803,4.630208 0.21367,1.60073 0.45229,5.381689 0.53027,8.402131 0.078,3.02045 0.023,6.71138 -0.12226,8.20209 -0.14522,1.4907 -0.44812,3.5438 -0.6731,4.56245 -0.22498,1.01864 -0.53626,2.38786 -0.69174,3.0427 -0.15547,0.65485 -0.45546,1.72641 -0.66663,2.38125 -0.21117,0.65485 -0.48567,1.66688 -0.60999,2.24896 -0.12433,0.58209 -0.40304,1.84386 -0.61935,2.80394 -0.21632,0.96008 -1.1191,3.19349 -2.00619,4.96312 -0.88709,1.76963 -2.1651,4.07974 -2.84001,5.13356 -0.67491,1.05383 -1.91216,2.80902 -2.74943,3.90042 -0.83728,1.09141 -2.19668,2.61179 -3.0209,3.37862 -0.82422,0.76684 -2.233,1.76498 -3.13062,2.2181 -0.89763,0.45312 -2.36781,1.28853 -3.26707,1.85646 -1.08133,0.68293 -2.2474,1.15618 -3.44337,1.39751 -0.99459,0.2007 -2.99898,0.42042 -4.45419,0.48826 -1.4552,0.0678 -2.8967,0.0285 -3.20332,-0.0874 z m 0.68978,-10.55756 c -0.65484,-0.0973 -1.60734,-0.39567 -2.11666,-0.66302 -0.50933,-0.26735 -1.01352,-0.61831 -1.12043,-0.7799 -0.10691,-0.1616 -0.19621,-0.55495 -0.19844,-0.87412 -0.002,-0.31917 0.26104,-0.76599 0.58505,-0.99294 0.3897,-0.27296 0.87642,-0.35872 1.43796,-0.25337 0.46688,0.0876 1.30311,0.0111 1.8583,-0.17003 0.55519,-0.1811 1.29338,-0.55008 1.64042,-0.81996 0.34705,-0.26988 0.90579,-0.49069 1.24165,-0.49069 0.33586,0 1.06395,-0.26005 1.61797,-0.57789 0.55402,-0.31784 1.90028,-1.34756 2.99168,-2.28826 1.09141,-0.9407 2.38063,-2.13917 2.86494,-2.66325 0.4843,-0.52409 1.82806,-2.12527 2.98613,-3.55819 1.15807,-1.43291 2.50133,-3.39745 2.98504,-4.36562 0.4837,-0.96818 1.06971,-2.35564 1.30223,-3.08324 0.23253,-0.72761 0.60638,-2.58836 0.83077,-4.135 0.22438,-1.54665 0.40798,-3.77045 0.40798,-4.94179 0,-1.17135 -0.1275,-3.04636 -0.28332,-4.16671 -0.15583,-1.12035 -0.62485,-3.08212 -1.04228,-4.359489 -0.41742,-1.277367 -1.17238,-3.143454 -1.67769,-4.146859 -0.50531,-1.003406 -1.31621,-2.311203 -1.802,-2.906218 -0.48579,-0.595014 -1.62737,-2.017846 -2.53684,-3.161849 -0.90947,-1.144003 -2.45728,-2.803297 -3.43958,-3.68732 -0.9823,-0.884023 -2.14319,-1.825825 -2.57975,-2.092893 -0.43657,-0.267068 -1.21835,-0.76519 -1.73729,-1.106937 l -0.94355,-0.621359 -2.89291,-0.307557 -2.89292,-0.307557 -0.61182,-0.545553 c -0.33651,-0.300054 -0.85451,-0.938216 -1.15111,-1.418136 -0.32796,-0.530646 -0.48066,-1.106168 -0.38968,-1.46866 l 0.1496,-0.596076 1.46939,-0.06149 c 0.96706,-0.04047 1.7617,0.09092 2.32442,0.384315 0.47027,0.245191 1.27175,0.536659 1.78108,0.647706 0.50932,0.111048 1.63091,0.448732 2.49243,0.75041 0.86151,0.301678 2.45103,1.02568 3.53228,1.608894 1.16749,0.629739 2.97791,1.991132 4.4578,3.352154 1.37055,1.260471 2.91214,2.896067 3.42575,3.634658 0.51362,0.738591 1.21546,1.73214 1.55965,2.207887 0.34419,0.475748 0.98364,1.272551 1.421,1.770675 0.43736,0.498123 1.2442,1.70856 1.79297,2.689859 0.54877,0.981299 1.3353,2.788619 1.74784,4.016268 0.41253,1.227648 0.97695,3.259377 1.25425,4.514937 0.32555,1.474 0.52787,3.54843 0.57104,5.85473 0.0446,2.38257 -0.0898,4.62903 -0.40368,6.74687 -0.2588,1.74625 -0.71281,3.71078 -1.00892,4.36563 -0.29611,0.65484 -0.96343,2.08359 -1.48294,3.175 -0.66922,1.40591 -1.82279,3.00632 -3.95726,5.4901 -1.65698,1.92815 -3.09631,3.50573 -3.19851,3.50573 -0.1022,0 -1.11296,0.88886 -2.24614,1.97523 -1.13317,1.08638 -2.46948,2.22812 -2.96958,2.53719 -0.50009,0.30908 -1.03101,0.78944 -1.17981,1.06748 l -0.27054,0.50552 h -1.18132 c -0.82135,0 -1.18131,0.10997 -1.18131,0.36091 0,0.22879 -0.44938,0.42251 -1.22756,0.52917 -0.67515,0.0925 -1.35976,0.15234 -1.52135,0.1329 -0.16159,-0.0194 -0.82958,-0.11497 -1.48443,-0.21229 z m -0.41985,-14.00009 c -0.30367,-0.0946 -0.92875,-0.4918 -1.38906,-0.88258 -0.51526,-0.43744 -0.83692,-0.9578 -0.83692,-1.35391 0,-0.45595 0.30395,-0.84452 1.04337,-1.33385 0.57386,-0.37976 1.70742,-1.58839 2.51903,-2.68585 0.81161,-1.09746 1.77097,-2.66314 2.13191,-3.4793 0.36094,-0.81615 0.78047,-2.27248 0.93228,-3.23628 0.15181,-0.96381 0.38887,-2.17835 0.5268,-2.69898 0.13794,-0.52063 0.31404,-2.06845 0.39135,-3.43958 0.10071,-1.78625 0.0146,-3.09303 -0.30369,-4.60965 -0.24434,-1.164164 -0.60272,-2.435077 -0.79639,-2.824248 -0.19367,-0.389171 -0.80021,-1.131544 -1.34787,-1.649717 -0.54766,-0.518172 -1.52297,-1.122494 -2.16736,-1.342936 -0.64439,-0.220443 -1.58858,-0.400805 -2.09821,-0.400805 -0.50963,0 -1.48856,-0.253975 -2.17541,-0.564389 -0.68684,-0.310415 -1.36737,-0.824616 -1.51228,-1.142669 -0.14492,-0.318053 -0.20246,-0.897515 -0.12787,-1.287693 l 0.13561,-0.709415 1.6228,-0.0038 c 0.91237,-0.0022 2.43362,0.243277 3.47489,0.560624 1.01864,0.310451 2.32832,0.75866 2.91039,0.99602 0.58208,0.23736 1.86131,1.219048 2.84275,2.181529 0.98143,0.96248 1.97332,2.202051 2.20419,2.754601 0.23087,0.552551 0.59855,1.84866 0.81707,2.880238 0.21852,1.03159 0.52833,2.63367 0.68846,3.56018 l 0.29115,1.68457 -0.34561,2.68105 c -0.19009,1.47458 -0.38263,2.97872 -0.42787,3.34252 -0.0452,0.3638 -0.34262,1.49489 -0.66085,2.51354 -0.31823,1.01865 -0.9302,2.6164 -1.35992,3.55056 -0.42973,0.93416 -1.50411,2.58302 -2.38752,3.66412 -0.8834,1.08111 -2.08305,2.31109 -2.66589,2.7333 -0.58284,0.4222 -1.13114,0.75578 -1.21845,0.74127 -0.0873,-0.0145 -0.4072,-0.1038 -0.71088,-0.19844 z"
       id="path1" /></g></svg>
