<?xml version="1.0" encoding="UTF-8" standalone="no"?>
<!-- Created with Inkscape (http://www.inkscape.org/) -->

<svg
   width="195.86186mm"
   height="231.33168mm"
   viewBox="0 0 195.86186 231.33168"
   version="1.1"
   id="svg1"
   xml:space="preserve"
   xmlns="http://www.w3.org/2000/svg"
   xmlns:svg="http://www.w3.org/2000/svg"><defs
     id="defs1" /><g
     id="layer1"
     transform="translate(114.59863,-195.39459)"><path
       style="fill:#ddaabb;fill-opacity:1"
       d="m -112.25212,426.71541 -1.425,-0.0812 -0.49036,-0.58024 c -0.2697,-0.31913 -0.46188,-0.81234 -0.42708,-1.09601 0.0348,-0.28367 0.48,-0.75992 0.98932,-1.05833 l 0.92604,-0.54257 2.97657,0.0765 2.97656,0.0765 v -0.65618 c 0,-0.3609 -0.11906,-0.72977 -0.26459,-0.8197 -0.14552,-0.0899 -0.26458,-0.75273 -0.26458,-1.47288 0,-0.72014 0.23693,-3.00507 0.52652,-5.07761 0.28958,-2.07255 0.63153,-5.07795 0.75989,-6.67868 0.12836,-1.60073 0.20034,-5.52979 0.15995,-8.73125 -0.0404,-3.20146 -0.20628,-8.38068 -0.36866,-11.50938 -0.16238,-3.12869 -0.2287,-8.12932 -0.14739,-11.1125 0.0813,-2.98317 0.25654,-6.43599 0.38939,-7.67291 0.13285,-1.23693 0.36439,-3.97537 0.51453,-6.08542 0.15014,-2.11005 0.39381,-6.51536 0.54149,-9.78958 0.14768,-3.27422 0.32526,-7.38188 0.39461,-9.12813 0.0694,-1.74625 0.19291,-5.31812 0.27456,-7.9375 0.0817,-2.61937 0.2628,-7.02468 0.40255,-9.78958 0.13975,-2.7649 0.31744,-6.21771 0.39487,-7.67292 0.0774,-1.45521 0.19598,-3.12208 0.26345,-3.70416 0.0675,-0.58209 0.17511,-1.83224 0.2392,-2.77813 0.0641,-0.94589 0.18575,-3.74385 0.27035,-6.21771 0.0846,-2.47385 0.21681,-6.04573 0.2938,-7.9375 0.077,-1.89177 0.23715,-5.04693 0.35592,-7.01146 0.11877,-1.96453 0.24705,-8.21531 0.28507,-13.89062 0.038,-5.67531 0.0674,-17.16485 0.0653,-25.53229 -0.002,-8.36745 0.0134,-18.5473 0.0346,-22.62188 0.0211,-4.07458 0.0269,-10.08724 0.0129,-13.36146 -0.0183,-4.28043 -0.18558,-7.31135 -0.59521,-10.78707 -0.31333,-2.65867 -0.5697,-5.12922 -0.5697,-5.49011 v -0.65615 h 0.87802 c 0.48291,0 1.47236,0.1765 2.198773,0.39222 l 1.320755,0.39222 0.316686,3.77497 c 0.174177,2.07623 0.440605,4.72746 0.592062,5.89163 0.182718,1.40445 0.204329,5.67776 0.06423,12.7 -0.116132,5.82083 -0.190446,11.35724 -0.165143,12.30313 0.0253,0.94588 0.05214,11.72104 0.05963,23.94479 0.0075,12.22375 -0.03849,23.35609 -0.102192,24.73854 -0.0637,1.38245 -0.238334,5.90682 -0.388079,10.05417 -0.149746,4.14734 -0.338168,9.50515 -0.418716,11.90625 -0.08055,2.40109 -0.315499,6.74687 -0.522113,9.65729 -0.206613,2.91042 -0.501546,7.43479 -0.655407,10.05417 -0.153861,2.61937 -0.512876,10.89421 -0.797816,18.38854 -0.28493,7.49432 -0.64286,15.47151 -0.79538,17.72708 -0.15253,2.25557 -0.39654,5.64885 -0.54224,7.54063 -0.14571,1.89177 -0.33615,6.43249 -0.42321,10.09049 -0.10538,4.42767 -0.0364,8.58453 0.20624,12.43541 0.20049,3.18148 0.35347,8.22529 0.33996,11.20847 -0.0135,2.98318 -0.16854,6.67412 -0.34449,8.20208 -0.17595,1.52797 -0.41231,3.40998 -0.52523,4.18224 l -0.20533,1.4041 0.4776,0.25561 c 0.26268,0.14058 0.60888,0.5009 0.76934,0.80071 l 0.29173,0.54511 -0.43074,0.47597 c -0.27209,0.30065 -0.4902,1.18519 -0.59217,2.40149 l -0.16143,1.92554 2.357018,-0.1759 c 1.296362,-0.0967 2.952334,-0.28731 3.679938,-0.42349 0.727604,-0.13617 2.11055,-0.3737 3.073214,-0.52782 0.962664,-0.15412 2.331882,-0.27852 3.042708,-0.27644 0.710826,0.002 2.899755,-0.17801 4.864286,-0.40019 1.964531,-0.22218 6.310312,-0.69765 9.657292,-1.05658 3.346979,-0.35894 7.811822,-0.77026 9.921874,-0.91406 2.110052,-0.14379 6.991615,-0.3882 10.847917,-0.54313 3.856302,-0.15494 9.035521,-0.40046 11.509375,-0.54562 2.473854,-0.14515 7.534009,-0.30265 11.244791,-0.34999 3.710781,-0.0473 10.794999,0.005 15.742708,0.11714 4.947708,0.11177 13.2820826,0.27894 18.5208326,0.37149 5.23875,0.0925 9.8134024,0.22935 10.1658924,0.30399 0.352491,0.0746 4.79304,0.13194 9.867888,0.12733 5.074847,-0.005 9.310821,-0.0582 9.413274,-0.119 0.102453,-0.0608 2.567529,-0.18322 5.477945,-0.27196 2.910417,-0.0887 7.45822,-0.23788 10.106229,-0.33142 l 4.814562,-0.17008 0.180205,-0.42596 c 0.09911,-0.23427 0.274577,-3.46204 0.389921,-7.17283 0.143006,-4.60071 0.380293,-7.79891 0.745958,-10.05416 0.294934,-1.81901 0.666834,-4.02167 0.826446,-4.89479 0.159612,-0.87313 0.388028,-2.12329 0.507591,-2.77813 0.119563,-0.65484 0.701624,-3.51234 1.293468,-6.35 0.591844,-2.83766 1.56788,-7.77875 2.16897,-10.98021 0.601089,-3.20146 1.500264,-8.44021 1.998166,-11.64166 0.497901,-3.20146 1.260934,-8.08303 1.695626,-10.84792 0.434693,-2.7649 1.027437,-6.63443 1.317208,-8.59896 0.289772,-1.96453 0.709931,-5.35781 0.933688,-7.54062 0.223756,-2.18282 0.58238,-6.11188 0.796941,-8.73125 0.214561,-2.61938 0.569072,-6.6675 0.787803,-8.99584 0.218731,-2.32833 0.51721,-5.18583 0.663286,-6.35 0.146076,-1.16416 0.500658,-4.37885 0.787961,-7.14375 0.287302,-2.76489 0.644862,-6.33677 0.794578,-7.9375 0.149716,-1.60073 0.396634,-4.81541 0.548706,-7.14375 0.152072,-2.32833 0.513035,-6.19786 0.80214,-8.59896 0.289106,-2.40109 0.699083,-5.61578 0.911062,-7.14375 0.211978,-1.52797 0.562707,-5.09984 0.779398,-7.9375 0.216691,-2.83765 0.462429,-6.40953 0.546084,-7.9375 0.08366,-1.52797 0.263373,-4.14734 0.399373,-5.82083 0.136,-1.67349 0.36918,-5.42396 0.51818,-8.33438 0.14899,-2.91041 0.33554,-6.30369 0.41455,-7.54062 0.079,-1.23693 0.31997,-3.73724 0.53547,-5.55625 0.2155,-1.81901 0.56061,-4.61698 0.7669,-6.21771 0.2063,-1.60073 0.45667,-4.10104 0.55637,-5.55625 0.0997,-1.45521 0.21306,-3.06255 0.2519,-3.57188 0.0388,-0.50932 0.15136,-1.75947 0.25005,-2.77812 0.0987,-1.01865 0.28351,-2.20927 0.41071,-2.64583 0.1272,-0.43657 0.3105,-1.58741 0.40735,-2.55743 l 0.17607,-1.76368 -1.0819,-0.78372 -1.08189,-0.78372 -4.074352,0.13693 -4.074347,0.13693 -2.611257,-0.44294 c -1.436192,-0.24362 -2.908914,-0.50385 -3.272716,-0.57829 -0.363802,-0.0744 -2.268802,-0.26717 -4.233333,-0.42827 -1.964531,-0.1611 -4.881562,-0.28797 -6.482291,-0.28194 -1.60073,0.006 -11.006667,0.0817 -20.902083,0.16822 -9.895417,0.0865 -19.4204174,0.1782 -21.1666674,0.20379 -1.74625,0.0256 -8.413749,-0.044 -14.816666,-0.15464 -6.4029166,-0.11065 -14.3801036,-0.33788 -17.7270826,-0.50496 l -6.085417,-0.30378 -5.291667,0.31975 c -2.910416,0.17587 -7.425167,0.42781 -10.03278,0.55988 -2.676274,0.13554 -6.190812,0.14311 -8.069791,0.0174 -1.830773,-0.12251 -4.102584,-0.35366 -5.048469,-0.51366 -0.945886,-0.16 -2.119123,-0.34233 -2.607195,-0.40518 -0.488072,-0.0628 -2.512134,-0.23143 -4.497917,-0.37463 -1.985782,-0.14319 -5.575044,-0.26373 -7.976138,-0.26784 -2.486444,-0.004 -5.618412,-0.18488 -7.276042,-0.41958 -1.600729,-0.22665 -3.743854,-0.52137 -4.7625,-0.65492 -1.018645,-0.13356 -2.566458,-0.25308 -3.439583,-0.2656 -0.873125,-0.0125 -2.361406,-0.19823 -3.307291,-0.41269 -0.945886,-0.21446 -2.463933,-0.69894 -3.373438,-1.07663 -0.909505,-0.37769 -1.653646,-0.8347 -1.653646,-1.01559 0,-0.18088 -0.178593,-0.3974 -0.396875,-0.48117 -0.250417,-0.0961 -0.396875,-0.50151 -0.396875,-1.09863 v -0.94633 l 0.859896,0.13187 c 0.472943,0.0725 1.321907,0.2053 1.886587,0.29504 0.56468,0.0897 1.457649,0.43512 1.984375,0.76752 l 0.957684,0.60437 2.778125,0.19493 c 1.527969,0.10722 4.61569,0.48179 6.861604,0.83239 l 4.083479,0.63744 4.383188,0.008 c 2.410753,0.004 6.526312,0.17276 9.145687,0.37469 2.619375,0.20194 5.536406,0.49612 6.482291,0.65373 0.945886,0.15761 3.029479,0.3867 4.630209,0.50909 1.600729,0.12238 4.04151,0.17885 5.423958,0.12548 1.382448,-0.0534 5.073385,-0.2795 8.202083,-0.50251 3.128698,-0.22301 7.05776,-0.40774 8.731249,-0.41052 1.67349,-0.003 5.662084,0.12028 8.863542,0.27347 3.201458,0.15318 11.416771,0.34768 18.2562496,0.43221 6.83947899,0.0845 13.983229,0.13912 15.875,0.1213 1.8917704,-0.0178 5.0469274,-0.1371 7.0114584,-0.26508 1.964531,-0.12797 7.14375,-0.16485 11.509375,-0.082 4.365625,0.0829 8.770937,0.18226 9.789583,0.22079 1.018646,0.0385 3.280833,-0.0801 5.027083,-0.26362 1.74625,-0.18353 4.033217,-0.35495 5.082148,-0.38093 1.048932,-0.026 2.656276,0.0936 3.571875,0.26575 0.9156,0.17214 2.855352,0.34102 4.31056,0.37528 1.455208,0.0343 3.847473,0.183 5.316144,0.33051 1.468671,0.14752 2.951078,0.41848 3.294238,0.60214 0.451541,0.24165 1.470078,0.29137 3.68644,0.17993 1.684382,-0.0847 3.416658,-0.29324 3.849508,-0.46344 0.43285,-0.1702 1.62044,-0.42808 2.63909,-0.57306 1.01864,-0.14498 2.25108,-0.25869 2.73875,-0.25268 0.48767,0.006 1.46994,0.22065 2.18282,0.477 0.71287,0.25634 1.31149,0.59139 1.33025,0.74454 0.0188,0.15316 0.0608,0.63565 0.0933,1.07222 0.0326,0.43656 -0.042,1.38906 -0.16573,2.11666 -0.12371,0.72761 -0.34657,1.8587 -0.49524,2.51354 -0.14866,0.65485 -0.50098,2.55985 -0.78293,4.23334 -0.28195,1.67349 -0.63235,4.35239 -0.77866,5.95312 -0.14631,1.60073 -0.45123,4.87495 -0.6776,7.27604 -0.22636,2.4011 -0.52379,4.96094 -0.66094,5.68855 -0.13716,0.7276 -0.42741,3.46604 -0.64502,6.08541 -0.2176,2.61938 -0.46932,6.72704 -0.55936,9.12813 -0.09,2.40109 -0.27313,5.67531 -0.40685,7.27604 -0.13373,1.60073 -0.35951,5.05354 -0.50174,7.67292 -0.14222,2.61937 -0.32151,5.41734 -0.39842,6.21771 -0.0769,0.80036 -0.20915,2.28864 -0.29387,3.30729 -0.0847,1.01864 -0.33272,3.04271 -0.55111,4.49792 -0.21839,1.4552 -0.49863,3.41973 -0.62275,4.36562 -0.12412,0.94589 -0.40669,3.56526 -0.62792,5.82083 -0.22124,2.25558 -0.53458,5.82745 -0.69633,7.9375 -0.16174,2.11006 -0.41228,4.96756 -0.55675,6.35 -0.14448,1.38245 -0.376571,3.58511 -0.51577,4.8948 -0.139199,1.30968 -0.367615,3.09562 -0.507591,3.96875 -0.139976,0.87312 -0.43819,3.4925 -0.662697,5.82083 -0.224508,2.32833 -0.527116,5.36443 -0.672463,6.74687 -0.145347,1.38245 -0.443838,4.47808 -0.663314,6.87917 -0.219475,2.40109 -0.503807,5.73484 -0.631848,7.40833 -0.128041,1.67349 -0.4898,4.88818 -0.803909,7.14375 -0.314109,2.25558 -0.981938,6.95855 -1.484065,10.45105 -0.502126,3.4925 -0.971758,6.53702 -1.043626,6.7656 -0.07187,0.22858 -0.478562,2.78842 -0.903766,5.68854 -0.425203,2.90012 -1.019609,6.64216 -1.320902,8.31565 -0.301293,1.67349 -0.791007,4.23333 -1.088253,5.68854 -0.297247,1.45521 -0.76551,3.7174 -1.040585,5.02708 -0.275075,1.30969 -0.866342,4.28625 -1.313925,6.61459 -0.447584,2.32833 -0.938775,4.82864 -1.091536,5.55625 -0.152761,0.7276 -0.513595,2.75166 -0.801853,4.49791 l -0.524105,3.175 -0.116874,7.81966 c -0.07049,4.71599 -0.233043,8.15289 -0.40956,8.65925 l -0.292684,0.83959 -0.968345,0.26897 c -0.53259,0.14792 -1.169678,0.26962 -1.415751,0.27043 -0.246074,8.1e-4 -0.512861,-0.10443 -0.592861,-0.23387 -0.08,-0.12944 -0.593042,-0.3176 -1.140094,-0.41812 -0.547052,-0.10053 -6.233389,-0.14345 -12.636306,-0.0954 -6.402916,0.0481 -13.963385,0.0874 -16.801041,0.0874 -2.837656,0 -13.1960944,-0.15072 -23.01875041,-0.33493 -9.82263159,-0.18463 -21.55028759,-0.38366 -26.06143359,-0.44271 -4.511146,-0.0591 -9.988021,-0.004 -12.170833,0.12215 -2.182812,0.12624 -6.885781,0.35815 -10.451041,0.51537 -3.565261,0.15722 -8.565885,0.39987 -11.1125,0.53924 -2.546615,0.13937 -6.058958,0.37277 -7.805208,0.51869 -1.74625,0.14591 -4.246563,0.38384 -5.55625,0.52873 -1.309688,0.14489 -3.33375,0.38601 -4.497917,0.53582 -1.164166,0.14981 -3.843073,0.45193 -5.953125,0.67138 -2.110052,0.21946 -5.020792,0.51514 -6.468313,0.65709 -1.44752,0.14194 -2.816738,0.31412 -3.042708,0.38261 -0.225969,0.0685 -2.553978,0.36914 -5.173353,0.6681 -2.619377,0.29895 -6.012657,0.67475 -7.540627,0.83512 -1.52797,0.16037 -3.13531,0.42585 -3.57187,0.58996 -0.43657,0.1641 -1.43501,0.26182 -2.21876,0.21715 z m 23.026743,-16.35568 c -0.488316,-0.21366 -0.948687,-0.62112 -1.023046,-0.90548 -0.07436,-0.28435 -0.299907,-0.517 -0.501216,-0.517 -0.201309,0 -0.366016,-0.24989 -0.366016,-0.55532 0,-0.30543 0.170978,-0.93051 0.379951,-1.38907 0.208973,-0.45855 0.517918,-1.30998 0.686545,-1.89207 0.168627,-0.58208 0.402437,-2.7252 0.519577,-4.7625 0.147115,-2.55862 0.374268,-4.15677 0.734509,-5.16767 l 0.521527,-1.4635 -0.213782,-2.24066 c -0.11758,-1.23237 -0.226499,-3.19317 -0.242043,-4.35733 -0.01554,-1.16417 -0.198007,-2.59292 -0.405475,-3.175 l -0.377214,-1.05834 0.454973,-0.41578 c 0.250236,-0.22867 1.109817,-0.6084 1.910182,-0.84382 0.800364,-0.23543 1.995843,-0.4577 2.656619,-0.49395 0.660775,-0.0362 1.315619,0.003 1.455208,0.0868 0.139589,0.084 0.908641,0.27652 1.709006,0.4278 0.800365,0.15128 3.122083,0.36416 5.159375,0.47306 2.037292,0.10889 4.180417,0.1982 4.7625,0.19845 0.582083,2.6e-4 4.570677,-0.0881 8.863541,-0.19636 4.292865,-0.10825 9.353021,-0.36841 11.244792,-0.57813 1.891771,-0.20972 4.570677,-0.44943 5.953125,-0.53267 1.382448,-0.0833 3.466041,-0.14055 4.630208,-0.12734 1.164167,0.0132 2.847656,0.0945 3.741088,0.18076 0.893432,0.0862 2.024525,0.0345 2.513541,-0.11491 0.489016,-0.14941 1.663027,-0.41716 2.608912,-0.595 0.945885,-0.17785 2.241932,-0.40882 2.880103,-0.51329 0.638171,-0.10446 1.53114,-0.0737 1.984375,0.0684 0.453235,0.14209 1.121301,0.39788 1.48459,0.56843 0.412843,0.19381 0.714826,0.60411 0.805331,1.09421 0.08454,0.45782 -0.04196,1.22454 -0.303996,1.84246 -0.246841,0.58208 -0.753962,2.96333 -1.126937,5.29166 -0.372975,2.32834 -0.815667,5.24537 -0.983761,6.4823 -0.168094,1.23692 -0.332126,4.03638 -0.364515,6.22102 -0.04238,2.85819 -0.162674,4.13824 -0.428984,4.56467 -0.203551,0.32594 -0.772453,0.7254 -1.264227,0.8877 l -0.894133,0.2951 -1.931503,-0.31159 c -1.062327,-0.17137 -2.327795,-0.249 -2.812152,-0.1725 -0.484357,0.0765 -2.309399,0.20437 -4.055649,0.28417 -1.74625,0.0798 -4.544218,0.2703 -6.217708,0.42332 -1.67349,0.15302 -4.590521,0.49893 -6.482292,0.76868 -1.89177,0.26975 -5.106458,0.56735 -7.143749,0.66134 -2.037292,0.094 -4.835261,0.34893 -6.217709,0.56655 -1.382448,0.21761 -4.537604,0.43653 -7.011458,0.48649 -2.473854,0.05 -5.569479,0.21759 -6.879166,0.37253 -1.309688,0.15493 -3.988594,0.33572 -5.953125,0.40175 l -3.571875,0.12004 z m 17.424305,-3.52701 c 2.692135,-0.14859 6.085416,-0.45424 7.540625,-0.67923 1.455208,-0.22499 4.312708,-0.47145 6.35,-0.5477 2.037291,-0.0763 5.549635,-0.37994 7.805208,-0.67487 2.255573,-0.29494 6.303698,-0.63588 8.995833,-0.75764 2.692135,-0.12177 5.584292,-0.30728 6.427016,-0.41225 1.034267,-0.12883 1.611045,-0.33813 1.774758,-0.64404 0.133394,-0.24924 0.361571,-1.69079 0.50706,-3.20344 0.145489,-1.51264 0.397991,-3.76229 0.561115,-4.99921 0.163125,-1.23693 0.583365,-4.01899 0.933869,-6.18235 0.350503,-2.16336 0.590669,-4.00883 0.533702,-4.10104 -0.05697,-0.0922 -3.299886,-0.14789 -7.206486,-0.12372 -3.9066,0.0242 -9.424628,0.202 -12.262284,0.39519 -2.858061,0.19459 -9.643985,0.35202 -15.213541,0.35295 -5.529792,9.2e-4 -12.04855,-0.0579 -14.48613,-0.13062 l -4.431962,-0.13229 1.92e-4,2.81384 1.92e-4,2.81384 0.661458,0.43341 0.661458,0.4334 -0.0052,0.98609 c -0.0029,0.54235 -0.377496,1.99812 -0.8325,3.23505 -0.455003,1.23692 -0.87052,2.78473 -0.92337,3.43958 -0.05285,0.65484 -0.224665,2.47527 -0.381813,4.04539 l -0.285722,2.85476 0.345231,0.41598 c 0.189877,0.22879 0.58749,0.52212 0.883584,0.65186 0.296093,0.12973 2.026633,0.17992 3.845644,0.11154 1.81901,-0.0684 5.509947,-0.2459 8.202083,-0.39448 z m 93.265623,-0.57883 c -1.455208,-0.11114 -4.788958,-0.301 -7.408333,-0.42192 -2.619375,-0.12093 -4.9216484,-0.31855 -5.1161614,-0.43916 -0.194514,-0.12062 -1.682795,-0.31973 -3.307292,-0.44248 -1.624497,-0.12275 -3.965661,-0.33472 -5.20258801,-0.47106 -1.236928,-0.13633 -2.72520899,-0.3742 -3.30729199,-0.52858 -0.582083,-0.15439 -2.035927,-0.40133 -3.230764,-0.54876 -1.194838,-0.14743 -2.43955,-0.42082 -2.766028,-0.60752 -0.326478,-0.1867 -0.809423,-0.57757 -1.07321,-0.86862 -0.3320436,-0.36635 -0.4458496,-0.81409 -0.3698796,-1.4552 0.06035,-0.50933 0.23813,-1.4023 0.3950576,-1.98438 0.156929,-0.58208 0.289599,-1.59411 0.294824,-2.24896 0.0062,-0.77739 0.243623,-1.60023 0.684065,-2.3708 0.371011,-0.64909 0.621038,-1.38486 0.555616,-1.63503 -0.06542,-0.25018 0.211907,-1.44551 0.616288,-2.65629 0.404381,-1.21078 0.918096,-2.61814 1.141589,-3.12746 0.223493,-0.50932 0.921096,-1.42054 1.55023,-2.02493 0.629133,-0.60438 1.892104,-1.57736 2.806602,-2.16216 0.914498,-0.58481 2.64090399,-1.36309 3.836458,-1.72951 1.195554,-0.36642 2.769048,-0.75103 3.496652,-0.85468 0.727604,-0.10366 2.491054,-0.17258 3.918777,-0.15318 1.5554484,0.0211 3.0792314,0.1994 3.8018834,0.44475 0.663312,0.2252 2.04144,0.47152 3.062507,0.54739 1.021066,0.0759 2.737895,0.44233 3.815174,0.81434 1.077279,0.37202 2.187808,0.61648 2.467842,0.54325 0.280033,-0.0732 0.647171,0.0332 0.81586,0.23642 0.16869,0.20326 0.582759,0.36956 0.920155,0.36956 0.337396,0 0.695475,0.13272 0.795731,0.29494 0.111535,0.18047 0.677416,0.24737 1.45798,0.17237 0.701632,-0.0674 1.370771,-0.0305 1.486976,0.0821 0.116204,0.11255 1.401906,0.23231 2.857114,0.26614 1.921725,0.0447 2.971682,-0.0575 3.836459,-0.37316 0.654843,-0.23906 1.964531,-0.43458 2.910416,-0.43449 0.945886,9e-5 2.224346,0.15111 2.841023,0.33559 l 1.121231,0.33543 0.921784,1.8321 c 0.506981,1.00766 0.921542,2.0753 0.921246,2.37254 -2.96e-4,0.29724 0.04728,1.49293 0.105728,2.6571 0.05845,1.16416 0.0377,2.23401 -0.0461,2.37744 -0.0838,0.14342 -0.118877,0.64944 -0.07795,1.12448 0.04603,0.53424 -0.04602,0.8637 -0.241301,0.8637 -0.187665,0 -0.258383,0.21924 -0.17436,0.54054 0.09286,0.3551 -0.0327,0.64924 -0.366016,0.85739 -0.279054,0.17428 -0.50737,0.60749 -0.50737,0.9627 0,0.35521 -0.525193,1.72555 -1.167095,3.04521 -0.641902,1.31965 -1.319011,2.9168 -1.504687,3.54921 -0.244919,0.8342 -0.523744,1.21601 -1.015717,1.39088 -0.37297,0.13257 -1.035314,0.44857 -1.471876,0.70224 -0.473044,0.27486 -1.702418,0.53907 -3.042708,0.65391 -1.236928,0.10599 -3.856302,0.23231 -5.820834,0.28071 -1.964531,0.0484 -4.7625,-0.003 -6.217708,-0.11406 z m 7.503199,-3.00194 c 0.77978,-0.0479 1.547733,-0.21709 1.706562,-0.37592 0.158829,-0.15883 0.931574,-0.28878 1.71721,-0.28878 h 1.42843 l 0.738231,-0.79028 0.738232,-0.79028 -0.07626,-1.21154 c -0.04194,-0.66635 -0.147784,-1.28306 -0.235202,-1.37048 -0.08742,-0.0874 -0.158944,-0.32345 -0.158944,-0.5245 0,-0.20106 0.235144,-0.85225 0.522542,-1.4471 0.287398,-0.59485 0.460541,-1.18186 0.384763,-1.30447 -0.07578,-0.12261 0.121628,-0.57379 0.438679,-1.00263 0.317052,-0.42883 0.597849,-0.99693 0.623993,-1.26244 0.02614,-0.2655 0.142873,-0.93054 0.259398,-1.47785 0.116525,-0.54731 0.312228,-1.05714 0.434897,-1.13295 0.122669,-0.0758 0.150605,-0.34239 0.06208,-0.59239 -0.08852,-0.25 -0.339902,-0.66291 -0.558618,-0.91757 -0.218716,-0.25466 -0.56575,-0.46302 -0.771187,-0.46302 -0.205437,0 -0.752531,-0.28586 -1.215764,-0.63524 l -0.842242,-0.63524 -1.56902,0.0951 c -0.862962,0.0523 -2.70843,-0.079 -4.101042,-0.29176 -1.392612,-0.21277 -3.544053,-0.57633 -4.78098,-0.80792 -1.236927,-0.23158 -2.84427,-0.71833 -3.571875,-1.08165 -0.944074,-0.47143 -2.232136,-0.77267 -4.497916,-1.05195 -1.74625,-0.21524 -3.948906,-0.52343 -4.894792,-0.68486 -0.9458854,-0.16143 -2.7318234,-0.28633 -3.9687504,-0.27756 -1.637734,0.0116 -2.624667,0.16663 -3.631355,0.57036 -0.760318,0.30492 -1.890672,0.9226 -2.51189701,1.37261 -0.621225,0.45001 -1.427897,1.19857 -1.79260299,1.66346 -0.364707,0.46489 -0.811931,1.11003 -0.993832,1.43365 -0.181901,0.32362 -0.330729,0.76555 -0.330729,0.98207 0,0.21652 0.357187,0.57838 0.79375,0.80413 l 0.79374999,0.41047 v 0.80179 0.8018 l -1.85208299,1.74517 c -1.059484,0.99832 -1.852084,1.96529 -1.852084,2.25954 0,0.28291 -0.186176,1.1548 -0.413725,1.93754 -0.274279,0.94348 -0.330417,1.57203 -0.166558,1.86483 0.142338,0.25435 1.01916,0.63572 2.067372,0.89922 1.001111,0.25165 2.65363999,0.55616 3.67228599,0.6767 1.01864601,0.12053 2.04968501,0.22488 2.29119701,0.23188 0.241513,0.007 0.529247,0.10203 0.63941,0.21117 0.110163,0.10914 0.785693,0.19844 1.501178,0.19844 0.715485,0 2.213688,0.22964 3.32934,0.51032 1.115652,0.28067 2.5642404,0.57464 3.2190834,0.65327 0.654844,0.0786 4.048125,0.21629 7.540625,0.30594 3.4925,0.0897 6.409199,0.22198 6.481554,0.29408 0.07236,0.0721 0.548605,0.0525 1.058333,-0.0435 0.509729,-0.096 1.564782,-0.21377 2.344562,-0.2617 z m -13.890455,-7.02014 -3.212256,-0.16506 -1.550244,-0.77465 -1.5502444,-0.77464 -0.529166,-1.11489 c -0.291042,-0.61319 -0.659542,-1.11921 -0.818889,-1.12448 -0.159347,-0.005 -0.506153,0.22957 -0.770679,0.52186 -0.264526,0.2923 -0.911992,0.6606 -1.438814,0.81844 l -0.957856,0.28698 -1.314173,-0.62284 c -0.865951,-0.41041 -1.340993,-0.80953 -1.39281,-1.1702 l -0.07864,-0.54737 2.0899,-1.23409 2.0899,-1.23409 1.868808,-0.12359 1.868809,-0.12359 0.6381404,0.50197 c 0.350977,0.27607 1.022605,1.22329 1.492507,2.10491 0.469902,0.88163 1.056082,1.70597 1.302622,1.83188 0.24654,0.12591 1.579349,0.19359 2.961797,0.1504 1.382447,-0.0432 3.346979,-0.277 4.365624,-0.51958 1.265287,-0.30131 3.365528,-0.46922 6.628907,-0.52995 3.373062,-0.0628 4.966996,0.005 5.423958,0.23204 0.380372,0.18865 0.679362,0.59469 0.725314,0.985 0.05079,0.43138 -0.14514,0.87385 -0.559172,1.26281 l -0.637351,0.59876 -5.11788,0.11764 c -2.814834,0.0647 -5.480238,0.22679 -5.923119,0.36018 -0.442882,0.13339 -1.162427,0.28949 -1.59899,0.34688 -0.436562,0.0574 -2.239265,0.0301 -4.006006,-0.0607 z m -80.131492,-24.83708 c -0.727604,-0.2603 -1.999012,-0.68726 -2.825349,-0.94879 -1.077057,-0.34089 -1.863613,-0.42418 -2.778125,-0.29417 -0.701631,0.0997 -1.884344,0.24863 -2.628251,0.33086 -0.987849,0.1092 -1.629937,0.0226 -2.38125,-0.32128 -0.56578,-0.25893 -1.594514,-0.86763 -2.286075,-1.35265 -0.691561,-0.48503 -1.363168,-0.88186 -1.492461,-0.88186 -0.129292,0 -0.754095,0.23551 -1.38845,0.52335 -0.658515,0.29881 -1.735228,0.52585 -2.509513,0.52917 -0.88003,0.004 -1.878588,-0.22524 -2.84427,-0.65231 l -1.488131,-0.65813 v -0.63393 c 0,-0.42819 0.193208,-0.69181 0.595313,-0.81225 0.327422,-0.0981 1.250156,-0.28025 2.05052,-0.40485 0.800365,-0.12459 2.166449,-0.47764 3.035743,-0.78456 l 1.580535,-0.55803 1.462174,0.15251 1.462173,0.1525 1.083488,1.15671 c 0.733818,0.78341 1.390008,1.21421 2.033275,1.33489 0.522384,0.098 1.344502,0.0568 1.826929,-0.0916 0.482428,-0.1484 1.664167,-0.33821 2.626088,-0.4218 l 1.748946,-0.15199 1.199112,0.63758 c 0.659512,0.35066 1.867807,0.72112 2.685101,0.82323 l 1.485989,0.18566 0.935011,-1.02079 c 0.515802,-0.56312 1.358435,-1.14039 1.87942,-1.28754 0.519425,-0.14671 1.585927,-0.22596 2.370004,-0.17612 l 1.425595,0.0906 v 0.50069 c 0,0.27537 -0.66184,1.36568 -1.470757,2.42291 -0.872428,1.14023 -1.911909,2.1644 -2.555156,2.51753 -0.699494,0.38401 -1.515717,0.59042 -2.299555,0.58153 -0.668336,-0.008 -1.810469,-0.22676 -2.538073,-0.48707 z m 58.9971366,-6.31628 c -0.288322,-0.0416 -1.165836,-0.2809 -1.95003,-0.53184 -0.788722,-0.25237 -1.591686,-0.70906 -1.797044,-1.02205 l -0.3712346,-0.56583 0.2530856,-2.2123 c 0.139197,-1.21677 0.256643,-2.42066 0.26099,-2.67532 0.0043,-0.25467 0.01855,-1.38576 0.03156,-2.51355 0.01301,-1.12778 0.196814,-2.90191 0.408459,-3.94251 0.211644,-1.04059 0.855413,-3.24325 1.430598,-4.89479 0.575184,-1.65154 1.184732,-3.77671 1.354551,-4.72259 0.184408,-1.02718 0.244553,-2.73208 0.149337,-4.23333 -0.106315,-1.67628 -0.03619,-3.17455 0.210521,-4.49792 0.203466,-1.09141 0.782421,-3.82985 1.286566,-6.08542 0.504145,-2.25557 1.227889,-5.76792 1.608321,-7.80521 0.380432,-2.03729 0.902414,-4.89206 1.159959,-6.34392 l 0.468265,-2.63977 1.42215899,-0.31581 1.42215901,-0.31581 0.693986,0.29523 c 0.381693,0.16238 1.004355,0.61786 1.383693,1.01218 l 0.689707,0.71695 3.193424,0.0316 c 1.756384,0.0174 5.0178914,0.20419 7.2477944,0.41511 2.229902,0.21092 5.54265,0.56417 7.36166,0.785 1.81901,0.22083 4.20026,0.40303 5.291667,0.40488 1.091406,0.002 3.889375,0.19288 6.217708,0.42448 2.328333,0.2316 5.361791,0.45778 6.741017,0.50261 1.379226,0.0448 3.078784,-0.009 3.776796,-0.1191 0.706502,-0.11168 1.76473,-0.0848 2.387108,0.0607 0.614897,0.14373 1.35612,0.35373 1.647162,0.46668 0.291042,0.11295 0.739313,0.27264 0.996158,0.35487 0.256846,0.0822 0.594236,0.47998 0.749757,0.88389 0.157602,0.40931 0.209013,1.3009 0.116146,2.01424 -0.09164,0.70392 -0.279636,1.47783 -0.417766,1.71979 -0.13813,0.24197 -0.495714,1.63056 -0.79463,3.08577 -0.298917,1.45521 -0.706275,3.7174 -0.90524,5.02708 -0.198965,1.30969 -0.560711,4.16719 -0.80388,6.35 -0.288296,2.58791 -0.852137,5.57171 -1.620563,8.57588 -0.648142,2.53392 -1.230675,4.69164 -1.294518,4.79494 -0.06384,0.1033 -0.374978,1.6615 -0.691411,3.46267 -0.316433,1.80117 -0.606414,4.16782 -0.644401,5.25922 -0.03799,1.09141 -0.151447,3.10856 -0.252131,4.48256 -0.100684,1.374 -0.36611,2.88204 -0.589835,3.3512 -0.292173,0.61269 -0.640159,0.89679 -1.235182,1.00842 -0.455625,0.0855 -3.623268,0.0779 -7.039206,-0.0168 -3.415939,-0.0947 -8.489872,-0.14247 -11.275407,-0.10608 l -5.064609,0.0662 -1.417682,-0.40246 c -0.779726,-0.22135 -2.310651,-0.53704 -3.402058,-0.70153 -1.091406,-0.16449 -4.1275004,-0.28184 -6.7468754,-0.26078 -2.619375,0.0211 -5.77453101,0.15397 -7.011458,0.29537 -1.236927,0.1414 -2.667902,0.45863 -3.179944,0.70497 -0.512043,0.24633 -1.166887,0.41386 -1.455209,0.37228 z m 41.2612984,-2.92301 1.039687,-0.18464 0.198726,-0.74307 c 0.109299,-0.40868 0.314574,-0.88428 0.456168,-1.05687 0.141593,-0.1726 0.338236,-1.02819 0.436983,-1.90132 0.09875,-0.87312 0.336027,-1.94468 0.527288,-2.38125 0.191261,-0.43656 0.425605,-1.32953 0.520765,-1.98437 0.09516,-0.65485 0.350135,-2.28611 0.566613,-3.62504 0.216477,-1.33892 0.69158,-3.42251 1.055784,-4.6302 0.364204,-1.20769 1.013734,-3.56502 1.4434,-5.23851 l 0.781211,-3.04271 0.54102,-6.21771 c 0.297561,-3.41974 0.766923,-7.40538 1.043025,-8.85697 0.329433,-1.73198 0.41384,-2.7455 0.245538,-2.94829 -0.141057,-0.16996 -1.05612,-0.44906 -2.033473,-0.62021 -0.977353,-0.17115 -2.550912,-0.47344 -3.496797,-0.67175 -0.945886,-0.19832 -3.089011,-0.54026 -4.7625,-0.75988 -1.67349,-0.21962 -4.53099,-0.46797 -6.35,-0.5519 -1.81901,-0.0839 -4.795573,-0.32858 -6.614583,-0.54368 -1.819011,-0.21509 -5.986198,-0.5659 -9.260417,-0.77957 -3.2742184,-0.21367 -6.5667644,-0.4594 -7.3167694,-0.54607 -0.847133,-0.0979 -1.429604,-0.0508 -1.537787,0.1242 -0.09578,0.15497 -0.509897,2.21594 -0.920262,4.57992 -0.410366,2.36399 -1.00591501,5.27917 -1.32344201,6.47818 l -0.577323,2.18002 0.413833,0.59083 c 0.230118,0.32854 0.413834,1.13237 0.413834,1.8107 0,0.67092 -0.360051,2.34009 -0.800112,3.70927 -0.440062,1.36917 -0.91660999,3.14522 -1.05899699,3.94678 -0.142387,0.80156 -0.385397,2.29082 -0.540023,3.30946 -0.154627,1.01865 -0.507671,2.74506 -0.784544,3.83646 -0.276872,1.09141 -0.867574,2.97867 -1.312671,4.19392 -0.51712,1.41189 -0.850784,2.89237 -0.92427,4.10104 -0.06325,1.04032 -0.185547,3.04614 -0.271767,4.45736 l -0.156765,2.56587 8.414679,-0.0167 8.4146784,-0.0167 2.645833,0.61838 2.645834,0.61839 5.159374,-0.0509 c 2.837657,-0.028 6.171407,0.0475 7.408334,0.16791 1.236927,0.12036 2.784739,0.22908 3.439583,0.24161 0.654844,0.0125 1.658484,-0.0603 2.230312,-0.16187 z M 8.3676756,354.1685 c -0.363802,-0.28457 -0.851364,-0.52005 -1.083472,-0.52328 -0.232107,-0.003 -0.63987,-0.24661 -0.90614,-0.54084 l -0.484126,-0.53495 0.436809,-0.85411 c 0.240245,-0.46976 0.945665,-1.64505 1.567599,-2.61175 0.621934,-0.9667 2.2212204,-3.35409 3.5539694,-5.30532 1.33275,-1.95122 2.612671,-3.70494 2.844271,-3.89715 0.2316,-0.19221 0.42109,-0.50807 0.42109,-0.70191 0,-0.19384 -0.928392,-2.3574 -2.063094,-4.80792 -1.134701,-2.45051 -2.563451,-5.15422 -3.1749994,-6.00824 -0.611549,-0.85401 -1.111907,-1.68333 -1.111907,-1.84291 0,-0.15959 0.212938,-0.42314 0.473196,-0.58568 0.260257,-0.16253 0.965016,-0.37861 1.5661314,-0.48016 0.744411,-0.12577 1.319883,-0.0657 1.804614,0.18823 0.391423,0.20509 1.1079,1.07713 1.59217,1.93788 0.484271,0.86074 1.167481,2.1603 1.518246,2.8879 0.350764,0.72761 0.971452,2.12659 1.379307,3.10886 0.407855,0.98226 0.849387,1.78594 0.981182,1.78594 0.131795,0 1.691512,-1.29144 3.466037,-2.86986 1.774525,-1.57842 4.178909,-3.78033 5.343075,-4.89314 1.164167,-1.1128 2.711979,-2.31096 3.439584,-2.66258 0.823497,-0.39795 1.588539,-0.58843 2.026528,-0.50456 0.428387,0.082 0.763331,0.35733 0.856283,0.70379 0.08397,0.31298 0.154297,0.87567 0.156284,1.25042 0.0026,0.48907 -0.693069,1.45979 -2.464971,3.43958 -1.357721,1.51702 -3.292486,3.43571 -4.299479,4.26375 -1.006992,0.82803 -2.832887,2.51723 -4.057544,3.75375 l -2.226649,2.24824 1.612433,2.1098 c 0.886838,1.16039 1.804399,2.48103 2.039024,2.93474 0.234625,0.45372 0.362413,0.92878 0.283973,1.0557 -0.07844,0.12692 -0.492123,0.3526 -0.919295,0.50151 l -0.776677,0.27075 -1.538914,-0.91276 c -0.846402,-0.50202 -1.864656,-1.26698 -2.262787,-1.69991 -0.398131,-0.43293 -0.82855,-0.78714 -0.956486,-0.78714 -0.127937,0 -1.803374,2.38074 -3.723195,5.29054 -1.91982,2.9098 -3.7139964,5.41012 -3.9870574,5.55625 -0.273061,0.14614 -0.534067,0.26306 -0.580014,0.25983 -0.04595,-0.003 -0.381197,-0.23872 -0.744999,-0.52329 z M -34.83898,347.12157 c -0.04518,-0.0452 -3.111617,-0.15123 -6.814305,-0.23567 l -6.732163,-0.15352 -5.159374,-0.78348 c -2.837657,-0.43091 -5.814219,-0.90959 -6.614584,-1.06372 -0.800364,-0.15414 -2.705364,-0.5599 -4.233333,-0.90169 -1.527969,-0.34179 -4.087812,-0.82699 -5.688542,-1.07822 -1.600729,-0.25124 -4.755885,-0.50322 -7.011458,-0.55997 -2.255573,-0.0567 -4.444613,-0.0955 -4.864535,-0.0862 -0.419921,0.009 -0.945689,0.11896 -1.168372,0.24358 -0.222684,0.12462 -0.873232,0.16376 -1.445664,0.087 -0.600824,-0.0806 -1.308654,-0.40747 -1.674465,-0.77328 -0.348525,-0.34852 -0.707258,-1.0938 -0.797185,-1.65617 l -0.163503,-1.0225 0.536501,-0.28712 0.536502,-0.28713 0.08859,-8.4476 c 0.04872,-4.64619 0.175319,-8.53421 0.281322,-8.64006 0.106003,-0.10584 1.058503,-0.27891 2.116667,-0.38459 l 1.923934,-0.19215 1.058333,0.47926 c 0.582084,0.26359 2.725209,0.79753 4.7625,1.18654 l 3.704167,0.70728 3.042708,-0.14464 c 1.67349,-0.0795 4.411927,-0.26502 6.085417,-0.41217 1.673489,-0.14714 4.769114,-0.35137 6.879166,-0.45384 2.110052,-0.10246 5.027083,-0.18397 6.482292,-0.18113 1.455208,0.003 4.802938,0.0168 7.439399,0.0309 2.636462,0.0142 5.195519,-0.0895 5.686795,-0.2304 0.491275,-0.1409 2.322764,-0.25996 4.069975,-0.26459 2.313916,-0.006 3.310543,-0.10976 3.669356,-0.38154 0.270936,-0.20521 1.104373,-0.44786 1.852084,-0.53922 0.953268,-0.11647 1.649275,-0.0437 2.329373,0.24348 l 0.969899,0.40959 0.204983,0.86565 c 0.11274,0.47611 0.165638,0.98472 0.117552,1.13024 -0.04809,0.14552 -0.303207,1.03849 -0.566933,1.98438 -0.263727,0.94588 -0.554589,2.55323 -0.646361,3.57187 -0.09177,1.01865 -0.271013,2.20927 -0.398312,2.64584 -0.1273,0.43656 -0.256214,1.86531 -0.286477,3.175 -0.03026,1.30968 -0.159776,2.67112 -0.287809,3.02542 -0.128033,0.35429 -0.236935,1.72351 -0.242005,3.0427 -0.0051,1.3192 -0.148486,2.80897 -0.318703,3.31059 l -0.309484,0.91205 -2.555342,0.8519 c -1.405438,0.46854 -3.280094,0.96159 -4.165902,1.09566 -0.885809,0.13407 -1.647525,0.2068 -1.692704,0.16162 z m 1.799365,-3.47745 c 0.436563,-0.21706 1.107634,-0.61524 1.49127,-0.88485 0.445563,-0.31314 0.765459,-0.84983 0.885605,-1.4858 0.103448,-0.54758 0.294242,-2.30528 0.423988,-3.90601 0.129745,-1.60073 0.427978,-4.10104 0.662739,-5.55625 0.234761,-1.45521 0.48397,-3.31401 0.553798,-4.13066 l 0.12696,-1.48484 -0.616972,-0.20402 c -0.339334,-0.11221 -1.212284,-0.2345 -1.939888,-0.27177 -0.727604,-0.0373 -5.013854,-0.13181 -9.524999,-0.21011 -4.511146,-0.0783 -12.190677,-0.0195 -17.065625,0.1307 -4.874948,0.15019 -10.225586,0.32771 -11.890308,0.39448 l -3.026766,0.12141 -4.084576,-0.7055 -4.084577,-0.70549 -0.219786,0.35562 c -0.120882,0.19559 -0.280155,0.95196 -0.353939,1.68082 -0.07379,0.72886 -0.206168,3.54077 -0.294184,6.24869 l -0.160031,4.9235 0.434316,0.43431 c 0.238874,0.23888 0.515108,0.4435 0.613854,0.45472 0.09875,0.0112 1.012977,0.0923 2.031622,0.18026 1.018646,0.0879 2.358099,0.15386 2.976563,0.14653 0.618463,-0.007 1.763911,-0.0374 2.545439,-0.0669 0.782897,-0.0295 2.772923,0.25665 4.43177,0.63727 1.655946,0.37995 4.796749,1.09502 6.979561,1.58904 2.182813,0.49403 4.385469,0.95967 4.894792,1.03476 0.509323,0.0751 2.711979,0.45306 4.894791,0.83994 l 3.96875,0.70342 6.482292,0.18057 c 3.56526,0.0993 6.839479,0.12885 7.276041,0.0657 0.436563,-0.0632 1.150938,-0.29249 1.5875,-0.50955 z m -46.302082,-28.20216 c -0.727604,-0.34176 -1.522765,-0.84661 -1.767025,-1.1219 -0.244259,-0.27528 -0.690968,-1.07646 -0.992686,-1.78039 l -0.548579,-1.27987 -0.813551,0.68456 c -0.447453,0.37651 -1.046365,0.68456 -1.330916,0.68456 -0.28455,0 -0.905215,-0.16206 -1.379255,-0.36012 -0.47404,-0.19807 -1.065528,-0.56376 -1.314418,-0.81265 -0.248891,-0.24889 -0.452528,-0.67632 -0.452528,-0.94985 0,-0.33831 0.571013,-0.81869 1.785937,-1.50245 l 1.785938,-1.00514 2.248958,0.0616 2.248958,0.0616 0.558712,0.69056 c 0.307292,0.37981 0.702881,1.33477 0.879086,2.12214 0.214993,0.96069 0.500683,1.52808 0.868538,1.72495 l 0.548164,0.29337 1.022298,-0.33739 c 0.562264,-0.18557 2.063126,-0.34778 3.33525,-0.36048 1.272124,-0.0127 3.767112,0.18864 5.544419,0.44741 1.777306,0.25877 3.533478,0.39469 3.902604,0.30204 0.369125,-0.0926 0.976301,-0.0919 1.349279,0.002 l 0.678143,0.17021 -0.08283,0.71837 -0.08283,0.71838 -1.190625,0.60351 -1.190625,0.60352 -2.961924,-0.15041 c -1.629058,-0.0827 -3.570931,-0.33126 -4.315273,-0.55231 l -1.35335,-0.4019 -2.29931,0.67646 c -1.26462,0.37205 -2.537434,0.67527 -2.828476,0.67381 -0.291041,-0.002 -1.124479,-0.28226 -1.852083,-0.62402 z m 0,-17.87383 c -0.436562,-0.12234 -1.305678,-0.23652 -1.931368,-0.25374 -0.62569,-0.0172 -1.469409,-0.20288 -1.874931,-0.41258 -0.405521,-0.20971 -1.064955,-0.81085 -1.465408,-1.33587 -0.400453,-0.52502 -0.6618,-1.12735 -0.58077,-1.33851 0.08103,-0.21116 0.389189,-0.38393 0.684798,-0.38393 0.315396,0 0.537471,-0.17422 0.537471,-0.42164 0,-0.23191 -0.233035,-0.48259 -0.517856,-0.55707 -0.291631,-0.0763 -0.645828,-0.52318 -0.8108,-1.02305 -0.16112,-0.4882 -0.296397,-1.99369 -0.300616,-3.34554 -0.0042,-1.35185 0.199767,-3.82713 0.453301,-5.50062 0.253534,-1.67349 0.532549,-5.50373 0.620033,-8.51165 0.08749,-3.00792 0.252823,-5.5623 0.367418,-5.67641 0.114596,-0.11411 0.948033,-0.22995 1.852083,-0.25743 0.936365,-0.0285 1.985311,0.10594 2.437478,0.31231 0.436563,0.19925 1.604954,0.42226 2.596426,0.49558 0.991472,0.0733 1.898864,0.19276 2.016427,0.26542 0.117563,0.0727 3.533077,0.15269 7.590032,0.17784 4.056955,0.0252 8.549519,0.15191 9.983476,0.28168 l 2.607194,0.23594 2.949056,-0.46196 c 1.62198,-0.25408 3.842024,-0.45086 4.93343,-0.43728 1.091407,0.0136 4.425157,0.15891 7.408334,0.32297 2.983176,0.16405 5.54302,0.30292 5.688541,0.30859 0.145521,0.006 2.310809,-0.0174 4.811752,-0.0514 3.158486,-0.0428 4.660766,0.0326 4.919136,0.24704 0.204581,0.16979 0.428637,0.25204 0.497901,0.18277 0.06926,-0.0693 1.008738,0.0423 2.08772,0.24787 1.400734,0.2669 2.096482,0.54014 2.432765,0.95543 0.259039,0.3199 0.548266,0.88957 0.642727,1.26593 0.09446,0.37637 0.02573,1.34358 -0.152736,2.14936 -0.178466,0.80578 -0.612621,3.19147 -0.96479,5.30152 -0.352169,2.11005 -0.645046,4.37224 -0.650839,5.02708 -0.0058,0.65485 -0.137643,1.72641 -0.293002,2.38125 -0.155359,0.65485 -0.316475,2.72939 -0.358035,4.61009 l -0.07556,3.41946 -0.479817,0.35085 c -0.346262,0.2532 -1.662476,0.36025 -4.728726,0.38462 -2.3369,0.0186 -4.546565,0.0748 -4.910367,0.12502 -0.363802,0.0502 -5.781146,0.15677 -12.038541,0.23685 -6.257396,0.0801 -13.222552,0.25961 -15.478125,0.39895 -2.255573,0.13935 -7.613385,0.31035 -11.90625,0.38 -4.292864,0.0696 -8.162396,0.0265 -8.598958,-0.0958 z m 22.489583,-2.94616 c 2.473854,-0.14062 6.998229,-0.24246 10.054166,-0.22629 3.055938,0.0162 6.925469,-0.0391 8.598958,-0.12281 1.67349,-0.0837 5.00724,-0.22643 7.408333,-0.31717 2.401094,-0.0907 4.514453,-0.28675 4.696354,-0.43557 0.181901,-0.14883 0.33073,-0.71601 0.33073,-1.26041 0,-0.54441 0.10941,-1.57162 0.243134,-2.28271 0.133724,-0.71109 0.317434,-2.18585 0.408244,-3.27726 0.09081,-1.09141 0.284833,-2.93687 0.431162,-4.10104 0.146329,-1.16417 0.446316,-3.10023 0.666639,-4.30235 0.220322,-1.20213 0.363373,-2.56552 0.317891,-3.02976 l -0.0827,-0.84408 -2.38125,-0.5936 c -1.309688,-0.32648 -2.865656,-0.60019 -3.457707,-0.60826 -0.592052,-0.008 -1.703101,0.17143 -2.468998,0.39888 l -1.392541,0.41354 -1.632044,-0.39165 c -0.897624,-0.21541 -2.286887,-0.46133 -3.087252,-0.54649 -0.800364,-0.0852 -3.326142,-0.27553 -5.612839,-0.42304 l -4.157632,-0.2682 -2.060077,0.42819 -2.060076,0.42819 -4.894792,-0.20245 c -2.692135,-0.11135 -8.288073,-0.22152 -12.435416,-0.24483 -4.147344,-0.0233 -8.207432,-0.13727 -9.022419,-0.25325 l -1.481793,-0.21086 -0.166377,3.93439 c -0.09151,2.16391 -0.407348,5.48219 -0.70187,7.37396 -0.294521,1.89177 -0.610465,4.71801 -0.702098,6.28052 -0.118302,2.01729 -0.07584,2.9503 0.146454,3.21815 0.172182,0.20747 0.902745,0.45832 1.623473,0.55744 0.720729,0.0991 1.399348,0.32734 1.508044,0.50715 0.108695,0.17981 0.733409,0.45813 1.388253,0.61849 0.788232,0.19303 3.604982,0.24886 8.334374,0.16521 3.929063,-0.0695 9.167813,-0.24141 11.641667,-0.38203 z m 60.9055406,-0.96249 c -0.553827,-0.0628 -1.072319,-0.28459 -1.152204,-0.49277 -0.07989,-0.20818 -0.238341,-0.32097 -0.352125,-0.25064 -0.113784,0.0703 -0.354012,-0.0494 -0.533839,-0.26611 -0.179828,-0.21668 -0.490975,-0.39396 -0.691438,-0.39396 -0.219903,0 -0.36447801,-0.28436 -0.36447801,-0.71689 0,-0.51455 -0.346596,-1.0351 -1.227969,-1.84429 l -1.22796899,-1.1274 0.187163,-1.52915 c 0.10294,-0.84103 0.2441,-2.7793 0.31368999,-4.30727 0.06959,-1.52797 0.23749,-3.19715 0.373113,-3.70929 0.135623,-0.51213 0.313612,-2.00042 0.395532,-3.30729 0.08192,-1.30687 0.324379,-4.40019 0.538798,-6.87404 0.214419,-2.47386 0.514393,-5.80761 0.66661,-7.40834 0.15221601,-1.60073 0.56369701,-4.33916 0.91440001,-6.08541 0.350704,-1.74625 0.815294,-4.36563 1.032422,-5.82084 0.217129,-1.45521 0.540633,-4.81345 0.718898,-7.46275 l 0.32412,-4.81693 0.678408,-0.2717 c 0.430264,-0.17232 1.048402,-0.18521 1.689941,-0.0352 0.556343,0.13006 1.244506,0.44732 1.529252,0.70501 0.336758,0.30476 1.37041,0.58478 2.9572184,0.80111 1.341724,0.18291 3.213404,0.4612 4.15929,0.61842 0.945885,0.15721 2.731822,0.51524 3.968749,0.7956 1.236928,0.28037 3.022865,0.58764 3.96875,0.68282 0.945886,0.0952 3.089011,0.39674 4.7625,0.67015 1.67349,0.27341 3.995209,0.69824 5.159375,0.94405 1.546473,0.32655 3.577789,0.45662 7.540625,0.48288 l 5.423958,0.0359 2.719861,0.49619 2.719861,0.49619 2.475633,-0.2897 c 1.361598,-0.15933 2.840419,-0.47833 3.28627,-0.70889 0.445851,-0.23056 1.130159,-0.4192 1.520685,-0.4192 0.390525,0 1.174258,0.13908 1.741627,0.30907 0.75947,0.22754 1.141903,0.54156 1.449817,1.19044 0.23792,0.50138 0.35489,1.19514 0.271307,1.60916 -0.08081,0.40028 -0.496939,1.79935 -0.924729,3.10904 -0.427789,1.30969 -0.985297,3.15516 -1.238904,4.10104 -0.253608,0.94589 -0.852697,3.02948 -1.331309,4.63021 -0.478612,1.60073 -1.116928,3.98198 -1.41848,5.29167 -0.301552,1.30968 -0.675267,3.21468 -0.83048,4.23333 -0.155212,1.01865 -0.38947,2.62599 -0.520574,3.57187 -0.131104,0.94589 -0.479425,2.73183 -0.774047,3.96875 -0.294622,1.23693 -0.716027,3.91584 -0.936455,5.95313 -0.220428,2.03729 -0.570352,4.65667 -0.777609,5.82083 -0.228868,1.28557 -0.281617,2.21536 -0.134339,2.36802 0.133369,0.13825 0.24249,0.57698 0.24249,0.97497 0,0.39798 -0.109942,1.01277 -0.244315,1.3662 -0.134373,0.35343 -0.439923,0.71766 -0.679,0.80941 -0.239076,0.0917 -3.162725,0.23974 -6.496998,0.3289 -4.147062,0.11088 -6.795477,0.0608 -8.38298,-0.15864 -1.276366,-0.1764 -2.68079,-0.42761 -3.120942,-0.55824 -0.440153,-0.13063 -2.872462,-0.34202 -5.405131,-0.46974 -2.772523,-0.13983 -5.401953,-0.13441 -6.608056,0.0136 -1.101761,0.13521 -2.955702,0.48339 -4.119869,0.77374 -1.164166,0.29034 -3.512188,0.70242 -5.217826,0.91573 -1.705638,0.21331 -3.9082944,0.57385 -4.8947914,0.8012 -0.986498,0.22735 -2.091289,0.44867 -2.455091,0.49183 -0.363802,0.0431 -1.114589,0.027 -1.668416,-0.0358 z m 6.0670774,-4.19969 c 2.455684,-0.37374 5.393036,-0.91344 6.527448,-1.19933 1.134413,-0.28589 3.3966,-0.61443 5.027084,-0.7301 1.630483,-0.11567 3.949726,-0.17842 5.153873,-0.13946 1.204148,0.039 3.763991,0.26302 5.688542,0.49789 1.924551,0.23488 4.034964,0.55098 4.689808,0.70245 0.748375,0.1731 2.762506,0.20822 5.422438,0.0945 2.450833,-0.10474 4.577702,-0.32538 5.053682,-0.52425 l 0.821869,-0.3434 0.283039,-2.60972 c 0.155672,-1.43534 0.459976,-3.7408 0.676232,-5.12325 0.216255,-1.38245 0.524647,-3.45446 0.685316,-4.60448 0.16067,-1.15002 0.596929,-3.35267 0.969467,-4.89479 0.372537,-1.54212 0.910005,-4.4112 1.194373,-6.37573 0.284368,-1.96453 0.76082,-4.46484 1.058782,-5.55625 0.297962,-1.09141 0.887149,-2.93687 1.309305,-4.10104 0.422155,-1.16417 0.946864,-3.06917 1.16602,-4.23333 0.219155,-1.16417 0.478606,-2.4008 0.576557,-2.74807 l 0.178093,-0.63139 -1.214491,0.18212 c -0.66797,0.10017 -2.144619,0.17721 -3.281441,0.1712 -1.136822,-0.006 -2.424137,-0.0704 -2.860699,-0.14309 -0.436563,-0.0727 -1.686719,-0.26328 -2.778125,-0.42355 -1.091407,-0.16026 -3.890621,-0.32187 -6.220477,-0.35913 -2.329856,-0.0373 -4.889699,-0.22244 -5.688541,-0.41151 -0.798842,-0.18907 -2.014952,-0.49772 -2.702467,-0.68589 -0.687515,-0.18817 -2.890171,-0.53803 -4.894792,-0.77746 -2.00462,-0.23944 -4.83539,-0.66932 -6.290598,-0.95529 -1.455208,-0.28598 -4.074583,-0.75699 -5.820833,-1.04669 -1.74625,-0.2897 -3.889375,-0.62578 -4.7625,-0.74685 -0.9968984,-0.13823 -1.7105424,-0.12226 -1.9182294,0.0429 -0.218665,0.17393 -0.330804,1.03654 -0.33095,2.54578 -1.22e-4,1.25549 -0.123817,3.58607 -0.274878,5.17908 -0.151061,1.59301 -0.555754,4.21239 -0.899318,5.82084 -0.343563,1.60845 -0.699555,3.51976 -0.791092,4.24737 -0.09154,0.7276 -0.219238,2.03729 -0.283779,2.91041 -0.06454,0.87313 -0.296952,3.31391 -0.516468,5.42396 -0.219516,2.11005 -0.530815,6.21771 -0.691774,9.12813 -0.16096,2.91041 -0.325061,5.94651 -0.36467,6.74687 -0.03961,0.80037 -0.196698,2.04335 -0.349086,2.76218 -0.152388,0.71884 -0.216552,1.67989 -0.142587,2.13569 l 0.134482,0.82871 0.832924,0.27451 c 0.458109,0.15098 0.907323,0.29125 0.998253,0.31171 0.09093,0.0205 2.174524,-0.26859 4.6302084,-0.64234 z m 0.94063,-7.94003 c -0.730306,-0.62512 -1.1059584,-1.1632 -1.1059584,-1.58418 0,-0.4556 0.3007644,-0.82739 1.0539774,-1.30287 0.579688,-0.36594 1.85961,-1.41293 2.844271,-2.32664 0.984662,-0.91371 2.504669,-2.25835 3.377794,-2.9881 0.873125,-0.72976 2.569765,-2.02512 3.770312,-2.87859 1.200547,-0.85347 2.182813,-1.70531 2.182813,-1.89297 0,-0.18766 -0.150537,-0.43641 -0.334526,-0.55278 -0.183989,-0.11637 -0.817578,-0.8069 -1.407975,-1.5345 -0.590397,-0.72761 -1.673411,-2.21589 -2.406697,-3.3073 -0.733287,-1.0914 -1.776906,-2.73133 -2.319154,-3.64428 -0.542248,-0.91295 -1.45104,-2.74818 -2.019538,-4.07829 -0.568497,-1.3301 -1.198925,-2.60721 -1.400951,-2.838 -0.202025,-0.2308 -0.448956,-0.68752 -0.548735,-1.01495 -0.09978,-0.32742 -0.10918,-0.82291 -0.02089,-1.10108 0.117426,-0.36997 0.509396,-0.55375 1.459906,-0.68448 l 1.29938,-0.17871 1.025161,0.82384 1.025161,0.82384 0.861725,2.57262 c 0.473948,1.41494 1.403789,3.58465 2.066312,4.82158 0.662523,1.23692 1.712057,3.02286 2.332296,3.96875 0.620239,0.94588 1.540901,2.19351 2.045916,2.7725 l 0.918208,1.05271 2.21793,-2.08819 c 1.219862,-1.1485 3.527618,-2.94456 5.128348,-3.99123 1.600729,-1.04668 3.803079,-2.63701 4.894112,-3.53407 1.091033,-0.89706 2.613546,-1.86668 3.383363,-2.15471 0.769817,-0.28802 1.627723,-0.52368 1.906458,-0.52368 0.278736,0 0.804203,0.13551 1.167705,0.30113 0.382046,0.17407 0.728094,0.60701 0.820131,1.02605 0.08757,0.39871 0.0041,1.09768 -0.185442,1.55328 -0.213545,0.51324 -1.200209,1.4823 -2.593619,2.54735 -1.236927,0.94545 -3.915834,2.83069 -5.953125,4.18943 -2.153463,1.43621 -4.451828,3.22809 -5.490104,4.28025 -0.982266,0.99539 -1.785938,1.88982 -1.785938,1.98762 0,0.0978 0.68461,0.66334 1.521354,1.25677 0.836745,0.59344 1.855782,1.44086 2.264527,1.88315 l 0.743172,0.80419 -0.08171,1.12683 -0.08171,1.12684 -0.716051,0.25036 -0.716051,0.25036 -1.400615,-1.23233 c -0.770339,-0.67779 -1.968397,-1.7299 -2.662352,-2.33803 l -1.261736,-1.10569 -0.612481,0.32779 c -0.336865,0.18029 -1.638715,1.10056 -2.893,2.04505 -1.254286,0.94449 -3.640336,3.0158 -5.302333,4.60292 -1.661998,1.58712 -3.342227,3.00749 -3.733842,3.15639 -0.391616,0.14889 -1.040034,0.27071 -1.44093,0.27071 -0.453594,0 -1.146623,-0.35756 -1.834859,-0.94666 z m -71.502761,-17.02032 c -0.373503,-0.11966 -1.199317,-0.56112 -1.835143,-0.98102 l -1.156046,-0.76346 h -5.705482 -5.705482 l -1.015524,-0.45927 c -0.558537,-0.2526 -1.46864,-0.81815 -2.022449,-1.25677 -0.55381,-0.43863 -1.26005,-0.7975 -1.569422,-0.7975 -0.309373,0 -1.034014,0.29765 -1.610314,0.66146 -0.576299,0.3638 -1.223175,0.66145 -1.437501,0.66145 -0.214326,0 -0.722707,-0.14178 -1.129737,-0.31507 -0.407029,-0.1733 -1.007944,-0.55124 -1.335366,-0.83987 -0.327422,-0.28864 -0.595312,-0.77704 -0.595312,-1.08534 v -0.56055 l 1.389062,-0.44064 c 0.763985,-0.24236 1.805781,-0.56139 2.315104,-0.70897 0.569432,-0.16499 1.31057,-0.17942 1.924581,-0.0375 0.549196,0.12698 1.22594,0.1714 1.503874,0.0987 0.277935,-0.0727 0.921064,0.005 1.429176,0.17275 0.508111,0.16769 1.498243,0.74507 2.200292,1.28306 l 1.276452,0.97816 2.248959,-0.0525 c 1.236927,-0.0289 3.558645,-0.0729 5.159374,-0.0978 1.605531,-0.025 3.444234,0.0986 4.101042,0.27556 0.654844,0.17645 1.387469,0.49637 1.628057,0.71093 l 0.437431,0.39011 1.28236,-0.36077 c 0.716013,-0.20144 2.012684,-0.3158 2.936006,-0.25894 l 1.653646,0.10184 v 0.72925 c 0,0.40108 -0.20836,0.91271 -0.463021,1.13696 -0.254661,0.22424 -1.078259,0.71597 -1.830217,1.09271 -0.751958,0.37675 -1.823521,0.74249 -2.38125,0.81275 -0.55773,0.0703 -1.319647,0.0299 -1.69315,-0.0898 z m 2.134305,-30.29463 c -0.509323,-0.19184 -1.230535,-0.4726 -1.602693,-0.62392 -0.372158,-0.15132 -1.215222,-0.79856 -1.873475,-1.43831 -0.658253,-0.63975 -1.881211,-2.1917 -2.717685,-3.44877 -0.836474,-1.25707 -1.823306,-2.48376 -2.192961,-2.72597 -0.44979,-0.29471 -0.946092,-0.38721 -1.500455,-0.27965 -0.455596,0.0884 -1.4832,0.42156 -2.283565,0.74037 -0.800364,0.31881 -1.990989,0.89048 -2.645833,1.27037 -0.654844,0.3799 -1.69905,0.89222 -2.320458,1.13848 -0.649412,0.25736 -1.854617,0.44775 -2.834346,0.44775 -1.062343,0 -2.231575,-0.19946 -3.1035,-0.52944 -0.98996,-0.37465 -1.824452,-0.98076 -2.854196,-2.07304 -0.800364,-0.84897 -1.901692,-2.2835 -2.447395,-3.18784 -0.545703,-0.90433 -0.992188,-1.8042 -0.992188,-1.99969 0,-0.1955 0.201291,-0.4327 0.447313,-0.5271 0.246022,-0.0944 1.263725,-0.0912 2.261563,0.007 l 1.81425,0.17877 1.062852,1.93657 c 0.584569,1.06512 1.476009,2.29933 1.980977,2.7427 0.504969,0.44337 1.078086,0.80612 1.273594,0.80612 0.195509,0 1.352225,-0.55186 2.570481,-1.22636 1.218256,-0.67451 2.963336,-1.5085 3.877955,-1.85331 l 1.662944,-0.62695 2.041223,0.0329 c 1.122672,0.0181 2.622976,0.21221 3.334008,0.43133 0.711033,0.21912 1.765694,0.82564 2.343692,1.34783 0.577999,0.52218 1.49961,1.60856 2.048026,2.41417 0.548415,0.8056 1.670697,2.16427 2.493958,3.01925 l 1.49684,1.55451 0.905793,-0.14699 c 0.498186,-0.0808 2.01218,-0.6435 3.364432,-1.25035 1.352252,-0.60685 3.173015,-1.25409 4.04614,-1.43831 0.873125,-0.18423 2.242344,-0.41597 3.042708,-0.515 0.800365,-0.099 2.632728,-0.47512 4.071919,-0.83578 1.439191,-0.36066 3.879971,-1.15427 5.423958,-1.76357 l 2.807248,-1.10783 2.778125,-0.01 c 1.527968,-0.005 3.373437,0.0876 4.101041,0.20677 0.727604,0.11921 1.799167,0.20288 2.38125,0.18595 0.582084,-0.0169 1.83224,-0.19756 2.778125,-0.40139 0.945886,-0.20383 2.60209,-0.56096 3.680454,-0.79364 l 1.960662,-0.42304 1.214338,0.30356 c 0.667886,0.16696 1.7121,0.36245 2.320477,0.43443 l 1.106138,0.13088 -0.0396,0.52568 c -0.02178,0.28913 -0.221885,0.621 -0.44468,0.73749 -0.222795,0.11649 -1.298051,0.35401 -2.389457,0.52782 -1.091406,0.17381 -2.996406,0.63421 -4.233333,1.02312 l -2.248959,0.70711 -3.307292,-0.025 c -1.81901,-0.0138 -4.259791,-0.068 -5.423958,-0.12058 l -2.116667,-0.0956 -1.5875,0.60875 c -0.873125,0.33482 -3.373437,1.13515 -5.55625,1.77852 -2.182812,0.64337 -5.10248,1.3393 -6.488152,1.54651 -1.547261,0.23137 -3.207467,0.68546 -4.302589,1.17681 -0.980753,0.44003 -2.568235,1.04254 -3.527738,1.3389 -0.959503,0.29636 -2.416619,0.53361 -3.238036,0.52722 -0.821416,-0.006 -1.910202,-0.16857 -2.419525,-0.36041 z"
       id="path2" /></g></svg>
