<?xml version="1.0" encoding="UTF-8" standalone="no"?>
<!-- Created with Inkscape (http://www.inkscape.org/) -->

<svg
   width="105.9282mm"
   height="151.30136mm"
   viewBox="0 0 105.92819 151.30135"
   version="1.1"
   id="svg1"
   xml:space="preserve"
   xmlns="http://www.w3.org/2000/svg"
   xmlns:svg="http://www.w3.org/2000/svg"><defs
     id="defs1" /><g
     id="layer1"
     transform="translate(88.070188,-294.97432)"><path
       style="fill:#ddaabb;fill-opacity:1"
       d="m -86.865795,446.12066 c -0.335645,-0.0641 -0.743942,-0.41002 -0.907328,-0.76861 l -0.297065,-0.65199 0.545372,-1.11359 c 0.299954,-0.61247 1.254887,-2.06609 2.122073,-3.23025 0.867186,-1.16417 3.069323,-4.37886 4.893638,-7.14375 1.824315,-2.7649 4.613051,-6.75349 6.197191,-8.86355 1.58414,-2.11005 3.431135,-4.61036 4.104434,-5.55625 0.673298,-0.94588 2.559755,-3.20807 4.192126,-5.02708 1.63237,-1.81901 3.796449,-4.14561 4.809063,-5.17023 1.012615,-1.02462 2.097285,-2.27477 2.410379,-2.77813 0.313094,-0.50335 0.770859,-1.06335 1.017255,-1.24445 0.246396,-0.1811 0.531927,-0.83594 0.634514,-1.45521 0.102586,-0.61926 0.313694,-1.36406 0.46913,-1.6551 0.155435,-0.29104 0.364508,-1.42214 0.464606,-2.51354 0.100098,-1.09141 0.371109,-2.81782 0.602246,-3.83646 0.231137,-1.01865 0.477659,-2.68552 0.547827,-3.70417 0.07017,-1.01865 0.331966,-2.92365 0.581775,-4.23333 l 0.454197,-2.38125 0.04947,-9.525 c 0.03119,-6.00524 0.162272,-10.05165 0.354727,-10.95018 0.167891,-0.78384 0.305256,-2.26406 0.305256,-3.28936 0,-1.02531 0.244933,-3.99498 0.544296,-6.59928 l 0.544297,-4.73509 -0.31211,-0.37606 c -0.171661,-0.20684 -0.505891,-0.37724 -0.742734,-0.37866 -0.236843,-10e-4 -1.085468,-0.30685 -1.885832,-0.67872 -1.028385,-0.47782 -2.193456,-1.42839 -3.972183,-3.24084 l -2.516975,-2.56469 -1.107817,-2.12937 c -0.609299,-1.17115 -1.346925,-3.01559 -1.639168,-4.09877 -0.292243,-1.08317 -0.716352,-3.0579 -0.942465,-4.38829 -0.26243,-1.54407 -0.420136,-4.22339 -0.436058,-7.40834 -0.01372,-2.74419 0.115686,-6.00147 0.287568,-7.23839 0.171882,-1.23693 0.666897,-3.1364 1.100033,-4.22105 0.433137,-1.08465 1.223241,-2.69199 1.755786,-3.57188 0.532545,-0.87988 1.672365,-2.5866 2.532933,-3.79272 0.860568,-1.20612 2.651168,-3.25731 3.979111,-4.55821 1.327944,-1.30089 2.981622,-2.7235 3.674841,-3.16134 0.693219,-0.43785 1.740195,-1.04086 2.326613,-1.34002 0.586417,-0.29917 1.983769,-0.77518 3.105226,-1.0578 1.121457,-0.28262 2.396201,-0.51452 2.832763,-0.51534 0.436563,-8.1e-4 1.434063,0.2966 2.216667,0.66091 0.782605,0.36432 1.794636,0.96273 2.248959,1.3298 0.454322,0.36708 1.599947,1.29029 2.545833,2.05157 0.945885,0.76129 2.13651,1.68749 2.645833,2.05823 0.509323,0.37074 1.659971,1.11525 2.556996,1.65446 0.897024,0.53921 2.013247,1.41579 2.480494,1.94795 0.467247,0.53217 1.031762,1.39296 1.254478,1.91286 0.222716,0.51991 0.553199,1.56576 0.734406,2.32411 0.235094,0.98387 0.26678,2.15859 0.110618,4.10104 -0.120367,1.49722 -0.464485,3.91284 -0.764706,5.36805 -0.300222,1.45521 -0.67322,3.12209 -0.828884,3.70417 -0.155665,0.58208 -0.827325,2.72521 -1.492577,4.7625 -0.665252,2.03729 -1.899851,5.44686 -2.743553,7.57682 -0.843701,2.12996 -1.915536,4.63027 -2.381854,5.55625 -0.466319,0.92598 -1.213315,2.21938 -1.659991,2.87422 -0.446677,0.65484 -1.413114,1.82983 -2.147638,2.61107 -0.734524,0.78125 -1.828614,1.76036 -2.431311,2.17581 -0.602698,0.41544 -1.733791,0.98921 -2.513542,1.27504 -0.77975,0.28583 -1.986587,0.60065 -2.681858,0.69961 -0.849119,0.12086 -1.353301,0.34654 -1.535744,0.68744 -0.149387,0.27913 -0.435686,1.54504 -0.636219,2.81313 -0.200533,1.26808 -0.49005,3.67483 -0.643372,5.34832 -0.153322,1.67349 -0.399842,4.65005 -0.547822,6.61458 -0.14798,1.96453 -0.268705,4.30899 -0.268279,5.20991 4.26e-4,0.90091 0.128492,1.71696 0.284592,1.81343 0.156099,0.0965 1.138365,-0.0304 2.182812,-0.28202 1.044448,-0.2516 2.568451,-0.7401 3.386675,-1.08556 0.818224,-0.34547 2.366037,-0.81577 3.439584,-1.04511 1.073547,-0.22934 2.190028,-0.5164 2.48107,-0.63791 0.291042,-0.1215 1.080406,-0.47346 1.754143,-0.78212 l 1.224976,-0.56121 1.093718,0.17489 1.093719,0.1749 0.157236,0.62647 c 0.08648,0.34456 0.09102,0.79903 0.01009,1.00993 -0.08093,0.2109 -0.778934,0.67244 -1.551121,1.02565 -0.772187,0.35321 -2.29639,0.84488 -3.387118,1.09261 -1.090729,0.24774 -2.459393,0.63159 -3.041477,0.85302 -0.582083,0.22142 -1.475052,0.56639 -1.984375,0.76661 -0.509322,0.20021 -1.610651,0.55415 -2.447395,0.78654 -0.836745,0.23238 -1.520438,0.5629 -1.519317,0.73447 0.0011,0.17158 0.507137,0.60771 1.124479,0.96919 0.617343,0.36147 1.658223,0.88891 2.313067,1.17208 0.654844,0.28317 1.983118,1.01958 2.951722,1.63647 0.968603,0.61689 3.17126,1.79328 4.894792,2.61421 1.723532,0.82093 3.449721,1.664 3.835976,1.87349 0.386255,0.20949 0.773208,0.38089 0.859896,0.38089 0.08669,0 0.157614,-0.2442 0.157614,-0.54267 0,-0.36914 0.293392,-0.66525 0.917544,-0.92604 0.504649,-0.21085 1.274799,-0.38337 1.711445,-0.38337 h 0.793902 l 1.061881,1.43741 c 0.584035,0.79058 1.410173,1.64316 1.835864,1.89462 0.481922,0.28468 0.833929,0.75694 0.932845,1.25152 0.103329,0.51664 0.02422,0.94308 -0.226292,1.2199 l -0.385154,0.42559 2.743515,2.81078 c 1.508933,1.54593 3.054019,3.26978 3.433525,3.83079 0.379506,0.56101 0.990664,1.43673 1.35813,1.94606 0.367465,0.50932 1.760994,2.11666 3.096729,3.57187 1.335736,1.45521 3.279714,3.5388 4.3199511,4.63021 1.040237,1.0914 2.4312945,2.81781 3.0912388,3.83646 0.6599443,1.01864 1.6823471,2.50692 2.2720062,3.30729 0.5896591,0.80036 1.6860727,2.34818 2.4364747,3.43958 0.750402,1.09141 1.98939901,2.64453 2.75332668,3.45139 0.76392762,0.80686 1.91977652,2.29514 2.56855312,3.30729 0.6487765,1.01215 1.6343934,2.2396 2.1902597,2.72765 0.5558663,0.48805 1.4573422,1.44055 2.0032798,2.11667 0.5459376,0.67611 2.183108,2.44968 3.6381559,3.94127 1.455049,1.49159 2.839355,2.71198 3.076236,2.71198 0.236881,0 0.503941,0.20836 0.593466,0.46302 0.08953,0.25466 0.433119,0.76068 0.76354,1.12448 0.330422,0.3638 0.967812,1.33473 1.416423,2.15763 0.44861,0.82289 0.815656,1.73712 0.815656,2.03162 0,0.2945 -0.187099,0.72255 -0.415774,0.95123 -0.228676,0.22867 -0.819845,0.41577 -1.31371,0.41577 -0.626679,0 -1.179875,-0.24754 -1.831228,-0.81944 -0.51331,-0.45069 -1.517828,-1.6934 -2.232262,-2.76156 -0.714434,-1.06817 -1.424353,-2.09841 -1.577598,-2.28942 -0.153246,-0.19101 -1.8994327,-2.13322 -3.8804163,-4.31604 -1.9809836,-2.18281 -4.6354606,-5.33777 -5.89883781,-7.01103 -1.26337723,-1.67325 -2.85111149,-3.65612 -3.52829829,-4.40638 -0.6771869,-0.75027 -2.0215878,-2.5364 -2.9875576,-3.96918 -0.9659698,-1.43279 -2.4715836,-3.6171 -3.3458084,-4.85403 -0.8742246,-1.23693 -2.9826366,-3.78261 -4.6853596,-5.65708 -1.702722,-1.87446 -3.869765,-4.27031 -4.815651,-5.32409 -0.945885,-1.05379 -2.539805,-2.94774 -3.542045,-4.20878 -1.002239,-1.26104 -2.073801,-2.425 -2.38125,-2.58657 -0.307448,-0.16157 -0.916184,-0.5903 -1.352747,-0.95272 -0.436562,-0.36243 -1.375961,-1.32701 -2.087552,-2.14351 -0.711591,-0.8165 -1.664091,-1.68642 -2.116667,-1.93316 -0.452575,-0.24674 -1.082014,-0.56789 -1.398753,-0.71367 -0.316739,-0.14578 -2.102677,-1.02468 -3.96875,-1.95311 -1.866074,-0.92844 -4.464424,-2.34809 -5.774111,-3.15479 -1.309688,-0.8067 -3.740094,-2.1404 -5.400902,-2.96377 -1.660809,-0.82337 -3.138198,-1.45752 -3.283087,-1.40923 -0.156515,0.0522 -0.248588,1.26339 -0.226855,2.98425 0.0243,1.92449 -0.141306,3.84422 -0.493526,5.72086 -0.304223,1.62091 -0.463514,3.25566 -0.373826,3.83646 0.09761,0.63208 -0.0022,1.45473 -0.265839,2.19119 -0.232165,0.64854 -0.548513,2.31541 -0.702997,3.70417 -0.154483,1.38875 -0.556166,3.59657 -0.892629,4.90626 -0.336463,1.30968 -0.692385,2.99393 -0.790938,3.74276 l -0.179188,1.36152 0.458697,0.88744 c 0.252284,0.48809 0.93043,1.52616 1.506991,2.30682 0.576562,0.78066 1.944079,3.16191 3.038928,5.29167 1.094849,2.12976 2.947074,5.36057 4.116057,7.17958 1.168982,1.81901 2.739505,4.49791 3.490051,5.95312 0.750546,1.45521 1.497667,3.03279 1.66027,3.50573 0.162602,0.47294 0.412557,0.8599 0.555455,0.8599 0.142897,0 0.765399,0.92273 1.383336,2.05052 0.617937,1.12779 1.400183,2.31272 1.738324,2.6332 0.338142,0.32047 0.614803,0.83431 0.614803,1.14187 0,0.30756 -0.123252,0.78949 -0.273892,1.07097 -0.169543,0.31679 -0.552981,0.51177 -1.006431,0.51177 -0.48302,0 -1.009924,-0.2929 -1.546886,-0.85989 -0.447892,-0.47295 -1.131243,-1.33615 -1.518558,-1.91823 -0.387316,-0.58209 -1.117019,-1.65365 -1.621561,-2.38125 -0.504543,-0.72761 -1.115558,-1.8587 -1.357812,-2.51355 -0.242254,-0.65484 -0.911703,-2.08359 -1.487663,-3.175 -0.57596,-1.0914 -1.883241,-3.29406 -2.905069,-4.89479 -1.021828,-1.60073 -2.058183,-3.20807 -2.303012,-3.57187 -0.24483,-0.3638 -1.201767,-2.14974 -2.126529,-3.96875 -0.924761,-1.81901 -2.033214,-3.84307 -2.463229,-4.49792 -0.430015,-0.65484 -1.084249,-1.51805 -1.453853,-1.91823 -0.369604,-0.40018 -0.864951,-0.7276 -1.100771,-0.7276 -0.235819,0 -1.672059,1.28475 -3.191644,2.85501 -1.519585,1.57025 -3.698386,3.92174 -4.841779,5.22552 -1.143393,1.30378 -2.572143,3.05714 -3.175,3.89635 -0.602857,0.83921 -2.527533,3.45859 -4.277058,5.82083 -1.749525,2.36225 -3.946918,5.54515 -4.883095,7.07312 -0.936178,1.52797 -2.633981,4.0675 -3.772895,5.64339 -1.138915,1.5759 -2.4241,3.52743 -2.855967,4.33673 -0.431867,0.8093 -0.785213,1.6291 -0.785213,1.82178 0,0.19267 -0.230298,0.47357 -0.511773,0.62421 -0.281475,0.15064 -0.727959,0.25768 -0.992188,0.23786 -0.264228,-0.0198 -0.755032,-0.0885 -1.090676,-0.15265 z m 39.449951,-98.65346 c 0.885402,-0.22943 2.041664,-0.63746 2.569472,-0.90673 0.527807,-0.26926 1.676915,-1.25633 2.553572,-2.19348 0.876657,-0.93715 2.178803,-2.76155 2.893656,-4.05422 0.714854,-1.29266 1.759935,-3.33826 2.322401,-4.54575 0.562466,-1.2075 0.945316,-2.27281 0.850777,-2.36735 -0.09454,-0.0945 -0.544814,0.0484 -1.000611,0.31765 l -0.828722,0.48954 -3.065742,0.15801 c -1.686158,0.0869 -3.452537,0.12072 -3.925286,0.0751 -0.487325,-0.047 -0.96839,-0.28626 -1.110895,-0.55253 -0.138243,-0.25831 -0.186596,-0.71728 -0.10745,-1.01994 0.07915,-0.30265 0.491999,-0.69446 0.917451,-0.87069 0.433704,-0.17965 1.207257,-0.25078 1.760744,-0.16192 0.542957,0.0872 1.165788,0.18084 1.384069,0.20814 0.218281,0.0273 1.081142,0.0309 1.917467,0.008 l 1.520592,-0.0417 1.025018,-0.92604 c 0.563759,-0.50932 1.144836,-0.92604 1.291282,-0.92604 0.146445,0 0.414484,0.17859 0.595641,0.39688 0.181158,0.21828 0.419391,0.39687 0.529408,0.39687 0.110016,0 0.617116,-1.22039 1.126887,-2.71198 0.509772,-1.49159 1.175078,-3.60495 1.478459,-4.69635 0.303381,-1.09141 0.798176,-3.03555 1.099544,-4.32031 0.301368,-1.28476 0.658887,-3.18976 0.794486,-4.23333 0.1356,-1.04357 0.250221,-2.63568 0.254714,-3.53803 0.0045,-0.90234 -0.116985,-2.21203 -0.26995,-2.91041 -0.152965,-0.69839 -0.59945,-1.73324 -0.992188,-2.29967 -0.462747,-0.66741 -1.575277,-1.55207 -3.160985,-2.51355 -1.345804,-0.81601 -3.150977,-2.10649 -4.011495,-2.86773 -0.860519,-0.76123 -2.103565,-1.67064 -2.762324,-2.02091 -0.65876,-0.35026 -1.568512,-0.90085 -2.021671,-1.22353 l -0.823926,-0.58669 -1.206841,0.30389 c -0.663763,0.16714 -1.877901,0.64975 -2.698084,1.07247 -0.820183,0.42271 -1.821646,0.99342 -2.225472,1.26824 -0.403827,0.27481 -1.799797,1.48454 -3.102155,2.68828 -1.302359,1.20373 -2.817424,2.84095 -3.366812,3.63826 -0.549388,0.7973 -1.325325,2.00479 -1.724304,2.68331 -0.39898,0.67852 -1.088266,1.92414 -1.531748,2.76806 -0.443481,0.84392 -1.107347,2.36889 -1.475258,3.38883 -0.36791,1.01993 -0.777837,2.8893 -0.910948,4.15414 -0.13311,1.26485 -0.243799,3.72847 -0.245975,5.47472 -0.0022,1.74625 0.12374,4.24656 0.279812,5.55625 0.156071,1.30969 0.520313,3.33375 0.809426,4.49791 0.289113,1.16417 0.987225,3.06917 1.55136,4.23334 0.616675,1.27259 1.691602,2.86443 2.695558,3.9918 0.918421,1.03133 2.086576,2.23521 2.595899,2.67529 0.509323,0.44009 1.34276,1.01867 1.852083,1.28574 0.509323,0.26708 1.580885,0.63079 2.38125,0.80827 0.800365,0.17747 1.557085,0.33265 1.681601,0.34485 0.124515,0.0122 0.950811,-0.16554 1.836213,-0.39497 z m 3.447704,-26.73983 c -0.461829,-0.1896 -0.917186,-0.58889 -1.011904,-0.88732 -0.09472,-0.29843 -0.09413,-0.8981 0.0013,-1.3326 0.09543,-0.43451 0.372196,-0.89596 0.615029,-1.02545 0.242834,-0.1295 0.739172,-0.26075 1.102974,-0.29167 0.363802,-0.0309 1.0293,-0.043 1.478884,-0.0269 0.603587,0.0216 0.897752,0.20558 1.12448,0.70319 0.168879,0.37065 0.307052,0.94751 0.307052,1.28191 0,0.33441 -0.22942,0.81563 -0.509822,1.06939 -0.280402,0.25376 -0.90548,0.54977 -1.389062,0.6578 -0.553575,0.12366 -1.190257,0.0687 -1.718931,-0.14831 z"
       id="path2" /></g></svg>
