<?xml version="1.0" encoding="UTF-8" standalone="no"?>
<!-- Created with Inkscape (http://www.inkscape.org/) -->

<svg
   width="1403.2994mm"
   height="798.09015mm"
   viewBox="0 0 1403.2994 798.09015"
   version="1.1"
   id="svg1"
   xml:space="preserve"
   xmlns="http://www.w3.org/2000/svg"
   xmlns:svg="http://www.w3.org/2000/svg"><defs
     id="defs1" /><g
     id="layer1"
     transform="translate(884.02901,215.42939)"><path
       style="fill:#ddaabb;fill-opacity:1"
       d="m 492.88176,159.94868 c -0.19403,-0.0509 -3.44841,-0.27169 -7.23195,-0.49055 -10.60367,-0.61336 -19.89542,-1.41196 -23.24348,-1.99771 -3.32465,-0.58165 -8.80168,-1.27327 -16.44402,-2.07649 -2.71639,-0.2855 -6.05014,-0.67447 -7.40834,-0.86438 -6.14081,-0.85863 -10.77634,-1.49591 -13.05277,-1.79444 -1.3582,-0.17811 -6.7557,-0.48506 -11.99445,-0.6821 -5.23875,-0.19705 -12.85875,-0.52737 -16.93333,-0.73405 -4.07459,-0.20668 -13.83771,-0.34373 -21.69584,-0.30456 -12.5482,0.0625 -29.82421,-0.26351 -30.34544,-0.57273 -0.10062,-0.0597 -5.33937,-0.20487 -11.64167,-0.32262 -22.67553,-0.42365 -28.15043,-0.56581 -35.27123,-0.91584 -3.97757,-0.19553 -8.97819,-0.43132 -11.1125,-0.524 -2.1343,-0.0927 -4.84923,-0.23987 -6.03318,-0.3271 -1.26922,-0.0935 -2.93413,0.0494 -4.05694,0.34822 -2.69573,0.71746 -2.91473,0.67541 -4.52137,-0.86825 -1.43524,-1.37897 -1.77744,-2.37122 -1.06387,-3.0848 0.80166,-0.80165 2.38088,-8.14258 2.61402,-12.15107 0.12853,-2.20999 0.45562,-6.39942 0.72687,-9.30984 0.27125,-2.91042 0.47941,-7.43479 0.46258,-10.05417 -0.0168,-2.61937 0.14714,-5.75469 0.36439,-6.96736 0.21725,-1.21267 0.56215,-3.15943 0.76644,-4.32614 0.4321,-2.467746 0.15996,-8.831353 -0.54293,-12.695387 -0.49719,-2.73328 -0.78702,-4.891747 -1.0658,-7.937501 -0.0888,-0.970138 -0.40631,-4.224514 -0.70559,-7.231944 -0.29928,-3.007431 -0.7813,-8.702745 -1.07117,-12.656254 -0.28986,-3.953509 -0.59918,-7.304947 -0.68737,-7.44764 -0.0882,-0.142692 -0.25748,-2.861128 -0.37621,-6.040968 -0.11872,-3.17984 -0.46245,-7.686527 -0.76383,-10.014861 -0.74624,-5.765088 -0.94232,-12.438863 -0.4716,-16.051389 0.62606,-4.804761 0.731,-8.723489 0.89079,-33.265901 0.0831,-12.766454 0.23825,-24.43458 0.34474,-25.929167 0.10649,-1.494588 0.35588,-5.019308 0.55421,-7.832711 0.19833,-2.813402 0.50716,-7.179028 0.68629,-9.701389 0.17912,-2.522361 0.4271,-7.840486 0.55106,-11.818055 0.15108,-4.847962 0.62685,-10.488117 1.44327,-17.109723 l 1.21788,-9.877778 0.33655,-12.347222 c 0.1851,-6.79097 0.57382,-15.44285 0.86382,-19.22639 0.34337,-4.47982 0.45216,-8.78634 0.31191,-12.34722 -0.21261,-5.39813 -0.0704,-7.35349 1.1546,-15.875 0.31972,-2.22407 0.52686,-6.16429 0.51839,-9.86099 -0.0119,-5.18387 0.46719,-14.40744 0.76255,-14.68176 0.0477,-0.0443 0.95985,0.0623 2.027,0.23683 1.39674,0.22847 3.91677,0.12165 8.99584,-0.38131 4.73372,-0.46877 11.06072,-0.76217 19.22639,-0.89158 6.69395,-0.10609 12.72646,-0.25796 13.40555,-0.3375 2.88376,-0.33775 21.03859,-0.27353 25.57639,0.0905 2.71639,0.2179 9.46327,0.48664 14.99306,0.59721 10.09228,0.2018 17.40096,0.63462 21.34306,1.26394 1.16416,0.18585 6.87916,0.57309 12.7,0.86054 10.97502,0.54197 14.2737,0.82025 21.65965,1.82718 l 4.37354,0.59625 9.2084,-0.43935 c 9.09887,-0.43412 14.15916,-0.89909 21.37924,-1.96443 2.0373,-0.3006 6.00605,-0.70467 8.81945,-0.89793 2.8134,-0.19326 5.90903,-0.43838 6.87917,-0.54472 0.97014,-0.10635 3.66889,-0.25629 5.99722,-0.33321 4.21675,-0.13932 8.05042,-0.45618 8.92826,-0.73795 0.95468,-0.30643 10.3717,-0.68354 17.00091,-0.68081 l 6.87917,0.003 3.52777,0.67789 3.52778,0.67789 1.28418,1.26751 c 1.70505,1.68291 2.09552,3.20507 1.65292,6.44363 -0.1931,1.413 -0.33027,4.07721 -0.30482,5.92047 0.0255,1.84326 -0.11597,5.41514 -0.31428,7.9375 -0.1983,2.52236 -0.39414,8.23736 -0.43519,12.7 l -0.0747,8.11389 0.64106,3.88055 0.64106,3.88056 -0.23304,7.9375 c -0.23096,7.86673 -0.76026,15.56128 -1.14055,16.58056 -0.10859,0.29104 -0.33003,4.894787 -0.4921,10.230551 -0.35631,11.730465 -0.91496,18.36068 -2.63062,31.220834 -1.36081,10.200291 -1.49114,11.780442 -1.76966,21.456057 -0.1107,3.845693 -0.36557,8.131943 -0.56639,9.525001 -0.20081,1.393057 -0.50204,7.850956 -0.66941,14.350887 -0.16737,6.499931 -0.47391,13.1674307 -0.6812,14.8166668 -0.42125,3.3515912 -0.20015,26.6874922 0.36099,38.1000002 0.18603,3.783542 0.4329,11.324167 0.5486,16.756945 l 0.21036,9.877778 -0.54573,5.997222 c -0.66158,7.270236 -0.67479,12.690993 -0.0486,19.931945 0.50833,5.877943 0.6309,10.287133 0.53662,19.303213 -0.0345,3.29794 0.10654,6.33909 0.33295,7.17991 l 0.39277,1.45864 -0.41757,1.81592 c -0.22966,0.99876 -0.74293,2.92718 -1.1406,4.28537 -0.70245,2.39914 -0.82353,3.056 -1.59324,8.64306 -0.48206,3.49911 -0.31597,13.48061 0.2595,15.59519 0.25686,0.94382 0.3974,2.85888 0.32565,4.4372 l -0.12624,2.77673 -0.99826,1.30876 c -2.26259,2.96638 -5.75814,4.32549 -11.70174,4.54979 -2.32834,0.0879 -4.39209,0.11808 -4.58611,0.0671 z m 4.81329,-4.90219 c 2.44961,-0.5192 4.8158,-1.55232 5.53209,-2.41539 0.23122,-0.2786 0.58794,-1.41284 0.7927,-2.52052 l 0.37231,-2.01397 -0.55376,-3.22373 -0.55376,-3.22373 0.36192,-5.65861 c 0.45914,-7.17843 0.96726,-11.3557 1.76112,-14.47806 0.40593,-1.59655 0.51595,-2.68047 0.31127,-3.06643 -0.38085,-0.71817 -0.0774,-12.29307 0.40052,-15.27802 0.45127,-2.81841 0.42939,-9.125382 -0.0453,-13.052773 -0.54826,-4.536225 -0.58884,-16.785215 -0.0748,-22.577778 0.39857,-4.491203 0.62665,-22.853837 0.31549,-25.4 -0.35661,-2.918104 -1.10098,-31.910364 -1.01933,-39.7012251 0.0214,-2.04483992 0.22081,-4.9174961 0.44305,-6.3836804 0.22225,-1.4661843 0.55501,-7.8100085 0.73945,-14.0973875 0.18445,-6.287378 0.49361,-12.304722 0.68702,-13.371875 0.19342,-1.067153 0.44087,-5.194653 0.54989,-9.172222 0.2694,-9.828478 1.31596,-21.53433 2.33395,-26.105556 0.4775,-2.144157 0.95796,-6.764181 1.19233,-11.465278 0.10641,-2.134306 0.35967,-4.991806 0.5628,-6.35 0.20313,-1.358195 0.43087,-5.795703 0.50609,-9.861129 0.0752,-4.065426 0.29583,-8.589806 0.49025,-10.054166 1.18648,-8.93639 1.48584,-24.09103 0.59963,-30.35554 -0.71314,-5.04113 -0.70944,-4.93553 -0.42053,-11.99444 0.13103,-3.20146 0.27409,-10.54246 0.31791,-16.31333 l 0.0797,-10.49249 -1.14469,-0.21475 c -0.62958,-0.11811 -1.35165,-0.14133 -1.6046,-0.0516 -0.25294,0.0897 -1.02398,-0.11963 -1.7134,-0.46522 -2.46404,-1.23514 -12.26233,-1.22375 -24.67567,0.0287 -1.84326,0.18597 -5.57389,0.40798 -8.29028,0.49334 -2.71639,0.0854 -5.97076,0.31913 -7.23194,0.51948 -1.26118,0.20035 -3.48368,0.43699 -4.93889,0.52587 -6.24152,0.38118 -9.15714,0.65856 -11.67051,1.1103 -3.71806,0.66827 -23.76849,1.68473 -27.84061,1.41139 -1.84326,-0.12373 -5.41514,-0.53578 -7.9375,-0.91567 -2.52236,-0.37988 -7.84048,-0.84202 -11.81805,-1.02698 -9.98597,-0.46433 -12.42337,-0.6471 -21.5302,-1.61443 l -7.94825,-0.84427 -10.39619,-0.0599 c -5.71791,-0.0329 -13.41245,-0.29645 -17.09898,-0.58562 l -6.70278,-0.52576 -10.75972,0.42158 c -5.91785,0.23187 -14.88722,0.47528 -19.93194,0.54091 -8.45007,0.10994 -18.18844,0.59389 -23.81251,1.18336 l -2.29305,0.24034 0.107,8.11389 0.107,8.11389 -0.76057,4.93889 -0.76057,4.93889 -0.27842,11.81806 c -0.15312,6.49993 -0.55074,14.99305 -0.88358,18.87361 -0.38902,4.53553 -0.54452,8.88257 -0.43536,12.17083 0.1774,5.344016 -0.34847,13.675821 -1.28028,20.284722 -1.09303,7.75238 -1.29211,10.026854 -1.48324,16.946214 -0.17556,6.355281 -0.39376,9.701508 -1.59793,24.505176 -0.19728,2.425347 -0.4316,15.680972 -0.5207,29.456945 -0.19024,29.41258 -0.081,24.528631 -0.74583,33.3375 -0.56723,7.515373 -0.47775,11.275372 0.4114,17.286111 0.27267,1.843264 0.59215,5.573889 0.70996,8.290278 0.11782,2.716389 0.36038,5.812014 0.53903,6.879167 0.17865,1.067153 0.57317,5.274028 0.8767,9.348611 0.30353,4.074584 0.7085,8.678334 0.89992,10.230556 0.19143,1.552222 0.58542,5.282847 0.87555,8.290278 0.63738,6.607052 1.39003,10.779053 2.15529,11.94699 l 0.56895,0.868329 -0.28318,2.852757 c -0.32967,3.321137 -0.32681,4.379156 0.0178,6.588446 l 0.25254,1.61903 -0.95634,0.75226 c -1.34105,1.05487 -1.573,2.37479 -1.93353,11.00274 -0.17431,4.1716 -0.48171,8.9341 -0.68311,10.58334 -0.20141,1.64923 -0.53173,5.15655 -0.73406,7.79404 -0.20233,2.63749 -0.60946,5.72293 -0.90472,6.85652 -0.29527,1.1336 -0.45679,2.26972 -0.35894,2.52471 0.11105,0.2894 0.78383,0.46362 1.79038,0.46362 0.88687,0 3.07466,0.16222 4.86177,0.36049 7.9788,0.88523 23.57078,1.39568 46.11179,1.50963 0.48507,0.002 6.59695,0.21963 13.58195,0.48262 6.985,0.263 18.0975,0.46199 24.69444,0.4422 14.94733,-0.0448 25.65672,0.0353 25.91328,0.19385 0.10772,0.0666 2.57629,0.21563 5.48573,0.33125 15.9311,0.63307 21.02161,0.88786 25.39822,1.27122 3.68341,0.32264 5.30254,0.5149 11.46528,1.36144 1.45521,0.19989 4.78896,0.61373 7.40833,0.91964 9.47161,1.10616 11.18837,1.31797 15.875,1.95859 2.61938,0.35804 7.9375,0.90172 11.81806,1.20818 3.88056,0.30645 8.64306,0.68926 10.58333,0.85067 5.85197,0.48683 13.17504,0.43571 15.74941,-0.10994 z M 347.07772,127.29003 c -0.42196,-0.15609 -2.23742,-0.52939 -4.03436,-0.82955 -1.79695,-0.30017 -4.69592,-0.79464 -6.44217,-1.09883 -1.74625,-0.3042 -4.60375,-0.78288 -6.35,-1.06373 -3.2211,-0.51807 -3.80736,-0.74455 -7.99659,-3.08921 l -2.35215,-1.31646 -3.16887,1.22382 c -1.74288,0.6731 -3.65913,1.47734 -4.25834,1.7872 -0.59921,0.30987 -3.00451,1.1146 -5.34512,1.78829 l -4.25564,1.22491 -1.18811,-0.49643 c -3.18958,-1.33269 -1.91162,-4.08393 1.89699,-4.08393 1.84883,0 3.60956,-0.58049 9.91249,-3.26803 3.00655,-1.28198 6.20484,-2.43617 7.10732,-2.56487 l 1.64087,-0.23399 2.10028,1.93085 c 2.36047,2.17005 3.22644,2.52668 7.49437,3.08637 1.64924,0.21628 4.58611,0.76611 6.52639,1.22185 1.94028,0.45574 4.55965,0.93406 5.82083,1.06293 1.26118,0.12888 2.89013,0.40561 3.61989,0.61495 0.96854,0.27785 2.54034,0.26248 5.82083,-0.0569 4.35764,-0.42425 11.1556,-0.77619 16.74562,-0.86695 l 2.72662,-0.0443 0.92672,0.92732 c 1.07988,1.08059 0.92451,2.33423 -0.31805,2.56625 -2.57691,0.48116 -9.49831,1.07915 -13.11746,1.13329 -2.32833,0.0348 -5.50333,0.18236 -7.05556,0.32783 -4.3019,0.40316 -5.61931,0.42709 -6.4568,0.11728 z m 94.36278,-23.61476 c -1.00551,-0.31825 -2.84775,-0.99913 -4.09387,-1.51306 l -2.26569,-0.93443 -8.14126,-0.009 c -4.47769,-0.005 -8.82328,-0.16594 -9.65687,-0.35821 -1.41528,-0.32646 -3.2876,-1.167553 -7.12745,-3.20185 l -1.5875,-0.841035 -4.05694,0.02902 c -2.65541,0.01899 -5.27567,0.284157 -7.58473,0.767555 -1.94027,0.406196 -4.55965,0.94741 -5.82083,1.202699 -1.26118,0.255289 -4.11868,0.441907 -6.35,0.414707 -4.17325,-0.05087 -4.42441,-0.103734 -11.64167,-2.450258 l -2.99861,-0.974929 -6.52639,0.130838 c -3.58951,0.07196 -9.70139,0.138367 -13.58194,0.147567 l -7.05556,0.01673 -2.99861,-0.7886 c -3.86557,-1.016601 -6.38388,-1.216469 -9.58752,-0.760925 -1.42082,0.202034 -3.78088,0.455758 -5.24457,0.563831 l -2.66125,0.196496 -1.84705,-0.794579 c -2.33169,-1.003068 -4.87557,-3.746397 -5.44368,-5.870492 -0.22522,-0.842076 -0.57784,-1.531046 -0.7836,-1.531046 -0.20576,0 -0.96626,0.402377 -1.69,0.894171 -1.93336,1.313752 -4.38147,2.280829 -5.77382,2.280829 -1.99264,0 -4.01018,-1.386676 -4.01018,-2.756231 0,-0.531249 1.81517,-1.088661 3.35139,-1.029161 l 1.41111,0.05465 2.50694,-1.496107 c 1.37882,-0.822859 3.03694,-1.648107 3.68471,-1.833886 2.39395,-0.686575 4.99406,0.808375 5.47745,3.1493 0.43685,2.115519 1.55837,3.922036 2.80349,4.515792 l 1.24814,0.595197 5.28081,-0.648476 c 5.77206,-0.708801 8.19602,-0.613002 12.17534,0.481189 3.57151,0.982055 7.76136,1.173689 17.04471,0.779586 8.13156,-0.345207 13.3507,-0.122829 15.73697,0.670526 0.58807,0.195515 2.57735,0.849845 4.42061,1.454065 l 3.35139,1.098583 3.88056,0.03984 3.88055,0.03984 6.17361,-1.215517 6.17362,-1.215516 4.23333,-0.01893 4.23333,-0.01892 4.05695,2.017882 c 2.23132,1.109835 4.77132,2.175923 5.64444,2.369083 0.89981,0.199063 3.57417,0.261718 6.17361,0.144636 6.33489,-0.285332 11.63718,0.297995 14.94142,1.643766 1.82041,0.741427 3.1868,1.05657 4.58098,1.05657 2.92667,0 9.35167,-1.013929 12.58038,-1.985319 1.55223,-0.467001 4.85743,-1.322599 7.3449,-1.901328 l 4.52267,-1.052234 h 6.29833 c 3.46409,0 7.06451,-0.156912 8.00094,-0.348693 0.93644,-0.191781 2.85838,-0.591655 4.27099,-0.888608 2.78822,-0.586129 3.95801,-0.3372 3.95801,0.842259 0,0.863076 -0.8636,1.534848 -3.17036,2.466143 -2.91382,1.176385 -6.67218,1.644122 -12.32157,1.533451 -5.76374,-0.112912 -8.58656,0.31787 -14.49418,2.211909 -6.09997,1.95571 -7.57717,2.29786 -11.54885,2.67496 -6.0537,0.57479 -7.43524,0.5679 -9.37713,-0.0467 z m -110.13098,-39.723398 -3.175,-1.297789 -4.05694,-0.257464 c -5.54979,-0.352204 -6.96597,-0.876805 -10.40726,-3.855222 l -1.50535,-1.302873 -1.8406,-0.217992 c -1.11593,-0.132165 -2.80786,-0.01453 -4.29732,0.298793 -3.1642,0.665611 -4.51735,0.651583 -6.3722,-0.06606 -1.75665,-0.679651 -2.67426,-1.432342 -3.54583,-2.908557 l -0.62828,-1.06414 0.86711,-0.568146 0.8671,-0.568146 1.31031,0.361796 c 0.72068,0.198988 1.68091,0.709944 2.13384,1.135457 l 0.82353,0.77366 3.27178,-0.651788 c 6.27422,-1.249922 8.98481,-0.671012 12.3002,2.626998 0.97005,0.964959 2.27237,1.909164 2.89404,2.098231 0.62167,0.189068 2.89745,0.42507 5.05728,0.524449 l 3.92696,0.180688 2.59943,0.93331 c 1.42968,0.513321 3.11253,1.087651 3.73965,1.276291 l 1.14023,0.342981 6.09172,-1.112112 c 7.00471,-1.27879 12.329,-1.681207 14.08551,-1.064601 0.64814,0.227521 2.36905,0.504885 3.82426,0.616366 l 2.64584,0.202692 4.10316,-0.924354 c 2.25674,-0.508395 4.79674,-1.169653 5.64445,-1.469461 1.89047,-0.668607 6.51116,-1.176658 9.126,-1.003414 1.06715,0.0707 4.79778,0.391727 8.29028,0.713387 10.33918,0.952238 11.07321,0.959589 15.23811,0.152605 8.69559,-1.684842 12.82615,-1.811362 16.60091,-0.508491 l 2.67697,0.923968 1.792,-0.25725 c 0.98561,-0.141487 2.74451,-0.395772 3.90868,-0.565077 1.16416,-0.169305 3.94735,-0.410318 6.18485,-0.535585 l 4.06819,-0.227758 3.12817,0.974931 3.12818,0.974931 4.09252,-0.412471 c 8.60556,-0.867323 13.43914,-1.169309 18.38003,-1.148324 5.80593,0.02466 7.13802,-0.18751 12.41972,-1.978148 l 3.77667,-1.28039 0.72125,0.652723 c 1.03042,0.932515 0.91094,2.124145 -0.29938,2.98597 -0.56135,0.399714 -2.74416,1.313334 -4.85069,2.030267 l -3.83007,1.303513 -5.46805,0.08364 c -5.03277,0.07698 -8.73424,0.295107 -20.28473,1.19536 -4.69338,0.365806 -8.38893,0.05589 -10.58333,-0.887537 l -1.41111,-0.606671 -3.70417,0.208373 c -2.03729,0.114606 -4.65667,0.403277 -5.82083,0.641493 -2.99953,0.613775 -7.42481,0.507602 -9.34861,-0.224295 -2.45419,-0.933679 -6.68659,-1.081091 -10.58334,-0.368611 -6.91996,1.265245 -8.36643,1.444466 -11.28889,1.398727 -1.64923,-0.02581 -4.74486,-0.285991 -6.87916,-0.578174 -9.26082,-1.267791 -13.10489,-1.109752 -22.02086,0.905332 -3.9623,0.895513 -7.90868,1.628206 -8.76973,1.628206 -0.86105,0 -2.90644,-0.351686 -4.54532,-0.781524 l -2.97978,-0.781524 -3.9491,0.615017 c -2.17201,0.338259 -5.13973,0.864343 -6.59494,1.169076 -1.45521,0.304733 -3.99521,0.61896 -5.64445,0.698283 l -2.99861,0.144223 z m 10.05417,-34.088926 c -1.72196,-0.870983 -2.19496,-3.685285 -0.74942,-4.458919 1.3592,-0.727416 4.2772,0.897335 4.2772,2.381551 0,0.910031 -1.32009,2.535115 -2.05408,2.528664 -0.32546,-0.0029 -0.98863,-0.205943 -1.4737,-0.451296 z m -47.13762,-0.941793 c -1.69146,-0.698292 -3.23615,-4.767143 -3.35307,-8.832266 -0.12172,-4.231977 0.45401,-14.5989504 0.83753,-15.0812501 0.42746,-0.5375497 1.08517,-0.551948 2.84831,-0.062354 l 1.34933,0.3746836 -0.1856,2.5337657 c -0.10208,1.3935711 -0.28899,4.9150158 -0.41535,7.8254328 l -0.22975,5.291667 0.768,3.249918 c 0.42239,1.787456 0.71648,3.613081 0.65352,4.056945 -0.12595,0.887983 -1.0482,1.149067 -2.27292,0.643458 z m 11.38531,-0.374386 c -2.2238,-0.666725 -2.60531,-2.616903 -0.78373,-4.006287 1.42786,-1.089084 1.87085,-1.125045 2.93395,-0.23817 l 0.79375,0.662173 v 1.422754 1.422754 l -0.78405,0.54917 c -0.8723,0.610988 -0.77574,0.602601 -2.15992,0.187606 z m 15.67798,-1.142941 c -0.46636,-0.239675 -1.17784,-0.880094 -1.58106,-1.423153 l -0.73312,-0.987381 0.69912,-1.202185 c 5.44152,-9.357139 7.78572,-14.0172776 7.38076,-14.6725184 -0.47085,-0.7618448 -4.12057,0.3246061 -6.18607,1.8414704 -0.71337,0.523886 -2.23454,0.157921 -3.15039,-0.757923 -0.8858,-0.8858049 -0.9349,-2.7616159 -0.0792,-3.0265068 0.33955,-0.1051127 1.64924,-0.582471 2.91042,-1.0607962 1.26118,-0.4783252 3.11539,-0.9968775 4.12046,-1.1523384 2.4369,-0.3769313 5.76783,0.1866973 7.02432,1.1885908 l 0.99683,0.7948413 -0.99849,2.955508 c -1.06407,3.1496043 -2.76218,6.7081823 -5.11115,10.7110203 -0.79522,1.355115 -1.44586,2.630305 -1.44586,2.833754 0,0.234998 0.87367,0.320542 2.3955,0.234551 1.63469,-0.09237 2.81113,0.0383 3.70417,0.411439 l 1.30867,0.546797 v 1.056331 c 0,0.691666 -0.27067,1.245914 -0.78406,1.605501 l -0.78405,0.54917 -4.41942,-0.0052 c -2.80471,-0.0033 -4.72923,-0.164417 -5.26736,-0.440972 z m 30.2607,-1.935078 c -0.27627,-0.706238 -0.24991,-2.409597 0.0969,-6.261805 0.59102,-6.564391 0.58154,-12.0574057 -0.0227,-13.1788467 -0.58523,-1.0860731 -0.15807,-1.4943201 1.79142,-1.7121009 l 1.52999,-0.1709168 1.02056,0.8052259 1.02056,0.8052259 -0.20854,5.4909836 c -0.21042,5.540722 -1.24332,13.056187 -1.98481,14.441668 -0.29199,0.545581 -0.73814,0.750705 -1.63281,0.750705 h -1.23104 z m 108.29357,-2.089565 -0.93534,-0.47322 -4.88549,0.352254 c -2.68702,0.193739 -7.47028,0.353648 -10.62946,0.355351 l -5.74397,0.0031 -1.25493,-0.524342 c -0.69021,-0.288388 -1.71725,-0.913363 -2.28232,-1.388835 l -1.02739,-0.864494 -1.32232,0.181553 c -0.72728,0.09985 -3.11139,0.582327 -5.29802,1.072161 l -3.97569,0.890607 -2.90347,-0.234435 c -2.76617,-0.223349 -8.07609,-1.896546 -8.57365,-2.701625 -0.30466,-0.49295 -2.32336,-0.363435 -4.40816,0.282818 -1.12368,0.348322 -3.16472,0.603639 -4.93526,0.617361 l -3.01914,0.0234 -4.08545,-2.07066 -4.08545,-2.07066 -3.30235,0.233065 -3.30235,0.233066 -1.23473,-0.669536 c -0.67909,-0.368244 -1.46887,-1.080584 -1.75505,-1.582977 l -0.52032,-0.913442 0.8731,-0.934475 0.87311,-0.934474 1.5875,0.247855 c 0.87312,0.136321 3.01625,0.222927 4.7625,0.192458 3.63711,-0.06346 5.1061,0.351446 7.87527,2.224329 3.36731,2.277425 5.32695,2.45177 10.92634,0.972096 3.44375,-0.910033 4.77696,-0.76679 7.03273,0.755611 3.19163,2.154 6.66406,2.521529 12.66851,1.340858 1.91274,-0.376107 4.22615,-0.790164 5.14091,-0.920127 2.28134,-0.324118 4.9059,0.359773 6.07875,1.583962 l 0.94664,0.988082 9.23765,-0.125183 c 5.08071,-0.06885 9.87265,-0.205379 10.64876,-0.303395 0.77611,-0.09802 2.01912,-0.03523 2.76225,0.139521 0.76315,0.179461 2.25482,0.190001 3.42767,0.02422 1.47187,-0.208048 2.77338,-0.144446 4.46969,0.218422 l 2.39317,0.511938 4.24242,-0.230907 4.24242,-0.230906 0.47135,0.567942 c 0.7266,0.875499 0.27095,1.471426 -1.96329,2.567699 l -2.05401,1.00784 -8.11389,0.02967 -8.11389,0.02967 z m -25.87577,-67.713086 c -4.77544,-1.824216 -5.93292,-1.895079 -13.10588,-0.802366 -2.96751,0.452063 -6.82491,0.763279 -9.82467,0.792656 l -4.93889,0.04837 -2.29306,-1.00886 c -1.26118,-0.554874 -3.17905,-1.258366 -4.26193,-1.563316 l -1.96888,-0.554455 -6.55167,0.466846 c -7.03376,0.501198 -9.92173,0.370463 -14.91058,-0.674986 -1.74625,-0.36594 -5.87375,-0.830641 -9.17222,-1.032671 l -5.99722,-0.367326 -3.35139,-0.931089 c -6.45585,-1.793577 -8.2726,-1.830029 -14.96245,-0.30021 -11.90496,2.722396 -15.53808,2.588104 -21.19728,-0.783515 -2.98499,-1.778391 -4.97338,-2.063446 -11.30623,-1.620857 l -5.27432,0.368611 -1.02109,-0.584103 c -1.41285,-0.808202 -1.90167,-1.653246 -1.40923,-2.436187 l 0.38829,-0.617361 5.25435,-0.279992 c 9.85886,-0.525357 12.6367,-0.09036 16.56397,2.593821 0.78751,0.538245 2.35134,1.245934 3.47518,1.57264 l 2.04333,0.594012 2.79701,-0.408976 c 1.53835,-0.224938 4.4989,-0.800879 6.57899,-1.279871 6.46,-1.487572 7.2189,-1.601127 10.51209,-1.57294 3.20181,0.02741 6.0051,0.480384 9.69643,1.566833 1.16595,0.343168 5.03244,0.783122 9.525,1.083816 4.23926,0.28374 8.56998,0.767352 9.85541,1.100556 l 2.29305,0.594398 5.99722,-0.04455 c 3.29848,-0.02451 7.10848,-0.125251 8.46667,-0.223881 3.76163,-0.273164 7.53732,0.27879 9.9291,1.451498 l 2.06535,1.012655 3.35139,0.0078 c 1.84326,0.0043 5.49451,-0.280844 8.11388,-0.633663 2.61938,-0.35282 6.58813,-0.673595 8.81945,-0.712834 l 4.05694,-0.07134 2.29306,1.029931 2.29306,1.029932 2.99861,-0.41456 c 1.64923,-0.228008 3.87173,-0.573837 4.93889,-0.768509 1.06715,-0.194671 4.05994,-0.593617 6.65065,-0.886544 2.59071,-0.292928 5.36883,-0.666945 6.17361,-0.831149 2.05866,-0.420042 2.74824,-0.465707 6.93129,-0.459006 l 3.70417,0.0059 2.99861,0.85169 2.99861,0.851691 2.82223,-0.280385 c 1.55222,-0.154212 4.88499,-0.524141 7.40617,-0.822065 2.52117,-0.297925 5.10086,-0.541681 5.73264,-0.541681 h 1.14869 v 0.66236 c 0,0.364298 -0.21074,0.837252 -0.4683,1.051009 -0.74261,0.616314 -4.61832,1.706828 -9.52617,2.680396 -5.65687,1.12215 -9.52482,1.173571 -12.62555,0.167847 -3.40589,-1.104701 -5.31053,-1.175414 -10.18832,-0.378256 -2.42535,0.396365 -6.0766,0.899021 -8.11389,1.117014 -2.03729,0.217993 -5.33941,0.702089 -7.33805,1.075768 -4.32773,0.809145 -7.14533,0.843146 -9.06612,0.109406 z m -26.08433,-28.41968 c -5.26732,-2.121497 -7.96123,-2.677862 -16.16961,-3.339462 -8.61806,-0.69462 -13.33489,-0.742934 -16.52689,-0.169285 -7.13723,1.282666 -12.53577,1.934789 -16.00806,1.933713 -6.95419,-0.0022 -14.89663,-0.71915 -18.87361,-1.703793 l -3.70417,-0.917097 -5.82083,0.225798 -5.82084,0.225798 -2.00105,-0.757801 c -2.36454,-0.895454 -4.13838,-2.689406 -5.06918,-5.126671 l -0.64358,-1.685194 -1.99676,0.208702 c -1.09821,0.114786 -2.77573,0.552853 -3.72781,0.973481 -0.95209,0.420629 -2.74734,1.046901 -3.98945,1.391716 l -2.25839,0.626937 -1.54838,-0.75226 -1.54838,-0.752261 0.1026,-0.716454 c 0.0727,-0.507881 0.56475,-0.856779 1.6901,-1.198474 0.87313,-0.265111 2.90383,-0.951349 4.51266,-1.524973 5.52047,-1.968297 9.3968,-2.148643 11.92183,-0.554661 l 1.41511,0.893317 0.67887,1.997216 c 0.37338,1.098469 0.978,2.267595 1.3436,2.598057 l 0.66473,0.600842 7.45869,0.0088 7.45868,0.0088 2.99861,0.775676 c 1.97823,0.511724 4.55921,0.84057 7.58473,0.966378 2.52236,0.104886 5.25935,0.325589 6.0822,0.490452 1.87913,0.376492 6.01188,0.0046 15.41249,-1.387072 l 7.38358,-1.093037 4.43448,0.163734 c 5.6442,0.208401 15.84442,1.132192 18.36919,1.663622 1.06716,0.22462 3.92466,1.123237 6.35,1.996925 l 4.40973,1.588525 2.18395,-0.217866 c 1.20117,-0.119827 4.13805,-0.835651 6.52639,-1.590722 2.38834,-0.75507 5.61244,-1.733513 7.16466,-2.174318 l 2.82222,-0.801462 8.11389,-0.18886 c 12.83639,-0.298781 14.52216,-0.242809 17.28611,0.573947 4.70762,1.391115 17.4511,2.128891 23.49039,1.359962 4.96791,-0.632521 8.47133,-0.801864 9.05336,-0.437607 2.05374,1.2853 -3.06292,3.271525 -11.72986,4.553384 -4.32961,0.640358 -19.25517,-0.507132 -24.69444,-1.898532 -1.90568,-0.487485 -3.27929,-0.510562 -14.2875,-0.240037 l -7.23195,0.177723 -4.58611,1.518663 c -6.65173,2.202679 -10.64773,3.163788 -13.05278,3.139425 l -2.11667,-0.02144 z m 52.08725,-28.144067 c -0.63854,-0.1572 -1.44479,-0.54266 -1.79167,-0.85659 -0.4275,-0.38688 -1.28582,-0.57076 -2.66416,-0.57076 -1.11841,0 -3.64591,-0.33297 -5.61667,-0.73993 -4.08921,-0.84442 -6.59544,-0.76994 -11.00383,0.32703 -1.54546,0.38456 -3.85773,0.80363 -5.13838,0.93125 l -2.32847,0.23205 -2.9632,-0.69895 c -1.62976,-0.38443 -3.67758,-0.80385 -4.5507,-0.93206 -0.87313,-0.1282 -3.4925,-0.72599 -5.82084,-1.32841 l -4.23333,-1.09531 -3.175,-0.0235 c -1.74625,-0.0129 -5.55625,0.19773 -8.46667,0.46816 l -5.29167,0.49169 -3.06111,-0.75628 c -3.73659,-0.92315 -3.81692,-0.92369 -8.99395,-0.0607 -2.29499,0.38259 -6.71271,0.94391 -9.81716,1.24739 -6.08955,0.59529 -9.12514,1.03416 -12.17083,1.7596 -4.46838,1.06429 -7.74356,0.98856 -14.99306,-0.34668 -3.33411,-0.61409 -7.14239,-0.6844 -8.52834,-0.15746 -2.10611,0.80074 -6.67036,1.45617 -8.69969,1.24928 -2.67886,-0.27311 -3.82548,-0.84732 -8.22821,-4.12058 l -3.65533,-2.71759 -1.49561,-0.21849 c -0.82258,-0.12017 -1.89248,-0.14063 -2.37754,-0.0454 -2.46206,0.48306 -3.26799,0.68989 -6.52639,1.67495 l -3.52778,1.06649 -3.175,0.0447 -3.175,0.0447 -0.94052,-0.63853 c -2.32043,-1.57536 -1.30617,-2.87566 1.99885,-2.56256 l 2.11667,0.20052 3.70416,-1.02775 c 2.0373,-0.56526 4.5773,-1.27731 5.64445,-1.58233 3.4373,-0.98248 8.1992,-0.60204 11.00526,0.87922 0.44704,0.23598 1.66148,1.2009 2.69877,2.14426 4.19501,3.81517 6.17413,4.24698 12.04875,2.62885 3.50609,-0.96573 6.79644,-1.17 9.34861,-0.58037 0.77611,0.17931 2.20486,0.41346 3.175,0.52033 0.97014,0.10687 2.24014,0.26776 2.82222,0.35754 0.58209,0.0898 2.16959,0.265 3.52778,0.38938 l 2.46945,0.22615 2.99861,-0.71051 c 4.65184,-1.10224 9.22272,-1.82746 12.7,-2.01499 2.9974,-0.16165 7.09713,-0.63419 9.70139,-1.11818 1.55222,-0.28848 4.54228,-0.60794 6.64458,-0.7099 l 3.82235,-0.1854 1.38484,0.62447 1.38483,0.62447 5.90531,-0.25266 c 3.24792,-0.13897 7.57219,-0.23502 9.60948,-0.21344 l 3.70417,0.0392 4.00683,1.04013 c 2.20376,0.57208 4.40969,1.04014 4.90205,1.04014 0.49237,0 2.30272,0.34955 4.023,0.77678 l 3.1278,0.77678 2.72988,-0.4314 c 1.50143,-0.23727 3.76176,-0.6652 5.02294,-0.95095 1.26118,-0.28575 3.64243,-0.61427 5.29166,-0.73005 l 2.99862,-0.2105 1.5875,0.58201 c 0.87312,0.3201 3.25437,0.73253 5.29166,0.91651 4.41002,0.39825 5.50367,0.61639 5.98245,1.19329 l 0.35954,0.43322 10.85193,-0.15411 10.85192,-0.15412 3.1204,-0.67927 c 1.71623,-0.3736 3.57366,-0.91365 4.12763,-1.20012 0.55396,-0.28647 1.38736,-0.52085 1.852,-0.52085 0.82886,0 2.03142,0.97467 1.99295,1.61528 -0.0398,0.66218 -2.20445,2.01861 -5.1937,3.25446 l -3.07706,1.27215 -11.1125,0.0357 c -6.11188,0.0196 -11.66813,0.13441 -12.34722,0.25509 -0.6791,0.12067 -1.75717,0.0908 -2.3957,-0.0664 z M 312.74757,-134.4718 c -0.72012,-0.7709 -1.01959,-1.41632 -0.947,-2.041 l 0.10617,-0.91359 1.81351,0.013 c 2.10646,0.0151 2.94899,0.56572 2.94899,1.9273 0,1.10523 -0.45144,1.56363 -1.87522,1.90416 l -0.99329,0.23756 z m 25.29856,-0.75553 c -1.754,-1.00347 -2.28612,-1.8069 -1.74852,-2.64004 l 0.39837,-0.61736 1.84656,0.0517 c 1.3212,0.037 2.04545,0.25056 2.54565,0.75077 l 0.69911,0.6991 -0.38588,0.72103 c -0.45172,0.84403 -1.39573,1.83689 -1.73862,1.82858 -0.13166,-0.003 -0.85917,-0.36038 -1.61667,-0.79375 z m -34.9876,-0.2478 c -0.40388,-0.16338 -1.17457,-0.82025 -1.71263,-1.45971 l -0.9783,-1.16264 0.21571,-1.42834 c 0.40023,-2.65021 0.99789,-9.87894 1.00133,-12.11108 l 0.003,-2.21607 0.67486,-0.36117 c 0.3835,-0.20524 1.3587,-0.25863 2.25875,-0.12366 1.78629,0.26787 2.43441,1.05091 2.11592,2.5564 -0.26378,1.24694 -0.99144,10.56127 -1.04821,13.41764 l -0.0445,2.23763 -0.67886,0.4964 c -0.7665,0.56047 -0.79764,0.56314 -1.8075,0.1546 z m 23.13572,-0.70613 -0.88195,-0.67946 0.0927,-7.86756 c 0.051,-4.32716 0.17815,-8.13725 0.28263,-8.46687 0.10448,-0.32963 0.50604,-0.69964 0.89236,-0.82225 1.0808,-0.34303 3.4681,0.18109 3.80776,0.83599 0.5349,1.03133 -0.45358,16.43053 -1.10756,17.25432 -0.51653,0.65065 -2.07843,0.522 -3.0859,-0.25417 z m 24.8898,0.22348 -0.64504,-0.47167 0.1947,-1.90958 c 0.10708,-1.05027 0.45994,-3.97334 0.78413,-6.4957 0.56098,-4.36472 0.55067,-8.57506 -0.0279,-11.37708 l -0.23672,-1.14653 1.54341,0.0352 c 2.53674,0.0578 3.26423,0.39791 3.72835,1.74308 1.05689,3.06318 0.10053,14.53132 -1.56536,18.77106 l -0.51981,1.32292 h -1.30538 c -0.71796,0 -1.59565,-0.21226 -1.95043,-0.47167 z m 90.46854,-1.97528 c -2.57632,-0.51985 -5.97661,-2.85548 -6.70016,-4.60228 -0.24255,-0.58557 -0.5408,-1.06677 -0.66278,-1.06933 -0.12198,-0.003 -1.88866,0.38125 -3.92595,0.85293 -4.35925,1.00927 -7.35746,1.50852 -10.77863,1.7948 l -2.48836,0.20823 -2.9797,-1.03282 c -4.48102,-1.55319 -5.90789,-1.6269 -11.10879,-0.57383 -4.8593,0.98389 -5.67134,0.9444 -8.35155,-0.40617 L 392.8927,-143.6 h -2.40705 c -2.57412,0 -6.11497,0.76886 -7.39357,1.60544 -1.20294,0.78707 -3.08726,0.63939 -4.21461,-0.33032 l -0.97835,-0.84153 0.5177,-0.62387 c 0.688,-0.82907 4.34818,-2.44925 6.64686,-2.94223 1.01369,-0.2174 3.59972,-0.39527 5.74672,-0.39527 h 3.90365 l 1.74404,0.94923 1.74404,0.94922 2.53703,-0.41446 c 1.39537,-0.22796 3.54299,-0.5888 4.7725,-0.80188 2.84658,-0.49333 8.03043,0.0316 10.40559,1.05366 2.38156,1.02484 4.31551,0.92654 10.72092,-0.54488 7.00351,-1.60882 8.71833,-1.87297 10.60983,-1.63438 l 1.51624,0.19126 0.51223,0.99054 c 0.28172,0.5448 0.51223,1.31342 0.51223,1.70805 0,0.39463 0.46349,1.23595 1.02997,1.8696 l 1.02997,1.15209 2.586,-0.0469 c 1.4223,-0.0258 3.69725,-0.31155 5.05545,-0.63501 4.22069,-1.00517 7.49897,-1.27936 15.22515,-1.2734 l 7.46405,0.006 3.96647,-0.87731 c 2.18157,-0.48252 4.61712,-0.87643 5.41235,-0.87535 2.05774,0.003 4.02393,0.62334 4.44033,1.40139 0.53493,0.99953 0.43014,2.68283 -0.19955,3.20543 l -0.55648,0.46183 -1.64838,-0.48434 c -2.19255,-0.64422 -3.56238,-0.5485 -7.62684,0.53294 l -3.41257,0.908 -6.59338,-0.38822 -6.59337,-0.38822 -5.29167,0.93374 c -8.95127,1.57949 -10.23788,1.70753 -12.52361,1.24632 z"
       id="path1" /><path
       d="m -722.43774,61.816743 c -5.2817,-0.56363 -13.34702,-1.801881 -18.62569,-2.859552 -5.04377,-1.010604 -17.20589,-4.571171 -21.59097,-6.320943 -1.06715,-0.425824 -3.21028,-1.205263 -4.7625,-1.732085 -6.62203,-2.247511 -24.38434,-10.801074 -41.62778,-20.046142 -14.78871,-7.928971 -16.84237,-9.201077 -26.01504,-16.114634 l -5.38218,-4.056621 -12.18944,-12.099981 c -6.70419,-6.654989 -12.91293,-13.05248 -13.7972,-14.216647 -4.77522,-6.286701 -9.62429,-15.083968 -12.7961,-23.214903 -3.67051,-9.409318 -4.81905,-15.2872 -4.80422,-24.586489 0.0174,-10.9318 1.55372,-16.90512 8.66487,-33.690279 3.72638,-8.795757 7.94222,-16.085967 13.73283,-23.747437 1.9527,-2.58359 3.94724,-5.29714 4.43231,-6.0301 0.48507,-0.73296 1.48014,-2.03224 2.21128,-2.88728 0.73113,-0.85505 2.47738,-3.00908 3.88055,-4.78674 6.17945,-7.82867 13.54722,-16.24428 18.60262,-21.24829 18.72704,-18.5367 25.59914,-24.71872 31.61051,-28.43627 0.62749,-0.38805 2.70152,-1.75579 4.60894,-3.03941 1.90743,-1.28361 7.03993,-4.12033 11.40555,-6.30382 4.36563,-2.18348 8.75673,-4.42418 9.75802,-4.97933 4.56931,-2.5334 11.27729,-5.71763 15.13349,-7.18376 1.17554,-0.44694 3.08054,-1.24712 4.23334,-1.77816 7.19838,-3.31603 12.03994,-5.3204 14.97238,-6.19845 4.12595,-1.23543 9.68399,-1.92075 13.1165,-1.61729 3.22235,0.28488 8.8744,1.68232 10.82116,2.67549 0.80856,0.41249 2.69866,0.90503 4.20024,1.09454 3.25175,0.41038 8.18259,1.60343 9.52824,2.30541 0.52966,0.27631 1.20645,0.50336 1.50398,0.50455 0.85241,0.003 10.48553,2.43312 13.21737,3.33372 1.35819,0.44776 3.73944,1.17169 5.29167,1.60875 9.25636,2.60628 19.59298,6.35881 26.9875,9.79734 1.06715,0.49623 3.36903,1.55209 5.11528,2.34633 6.82209,3.1029 11.30802,5.94326 17.81528,11.28012 1.06715,0.87521 3.4468,2.74915 5.28811,4.1643 6.78014,5.21092 14.84824,14.39597 19.9232,22.68134 0.95077,1.55222 2.71797,4.34648 3.92712,6.20946 2.664,4.10452 5.48242,9.58125 6.48006,12.59198 1.03034,3.10942 2.67403,10.26467 3.17712,13.83051 0.23268,1.64923 0.80047,4.58611 1.26176,6.52639 0.46129,1.94027 1.17392,5.43277 1.58363,7.76111 l 0.74493,4.23333 -0.0115,5.820834 c -0.007,3.304897 -0.25778,7.650606 -0.58124,10.054168 -0.31333,2.328333 -0.78646,6.376458 -1.0514,8.995833 -1.0897,10.773811 -3.17451,19.837728 -7.44822,32.381886 -0.68029,1.996773 -1.18622,3.893594 -1.12429,4.215158 0.0784,0.406886 0.48762,0.590188 1.34598,0.602837 l 1.23339,0.01818 v 1.04513 1.04513 l -1.23472,0.314453 c -2.20445,0.561418 -3.175,1.02276 -3.175,1.509205 0,0.262311 -0.30967,1.155864 -0.68815,1.985673 -0.37849,0.829808 -1.10962,2.619993 -1.62475,3.978187 -1.01747,2.68273 -9.03992,18.902355 -10.90554,22.048612 -1.90765,3.21716 -6.29046,10.480273 -7.41907,12.294771 -0.58208,0.935834 -1.772,2.640164 -2.64426,3.7874 -0.87226,1.147237 -1.90413,2.516783 -2.29305,3.043435 -3.82434,5.178679 -7.8614,9.714481 -14.79856,16.626779 -7.95843,7.929906 -10.85438,10.552992 -15.79864,14.310033 -3.03752,2.308152 -9.05921,6.307813 -11.56131,7.679131 -1.06715,0.58487 -2.72542,1.564162 -3.68504,2.176205 -0.95962,0.612043 -1.88529,1.112805 -2.05706,1.112805 -0.17176,0 -1.40416,0.547973 -2.73867,1.217718 -5.47169,2.746047 -12.13208,4.954993 -20.27062,6.722837 l -5.99723,1.302707 -7.23194,0.11159 c -3.97757,0.0614 -8.42257,-0.0155 -9.87778,-0.17075 z m 12.87639,-2.491591 c 8.90214,-0.831484 18.04829,-3.223598 26.9875,-7.058398 2.99678,-1.285579 8.87741,-4.329058 10.28502,-5.32294 0.51502,-0.363646 1.02549,-0.661174 1.13439,-0.661174 0.38281,0 6.42672,-4.058265 9.17767,-6.162473 1.52999,-1.170293 3.19686,-2.435745 3.70417,-2.812116 4.3345,-3.215788 22.97098,-22.014313 22.97098,-23.170715 0,-0.170639 -1.72277,-0.310252 -3.82838,-0.310252 h -3.82837 l -3.49177,0.851037 c -6.38551,1.556322 -5.18295,1.347515 -10.93462,1.898633 l -3.5623,0.341335 -3.46208,1.717692 -3.46208,1.717692 -2.01475,-0.01161 -2.01475,-0.0116 -1.36782,-0.954387 c -0.75229,-0.524913 -1.70888,-1.203041 -2.12575,-1.506953 l -0.75794,-0.552566 -2.6982,0.783996 -2.6982,0.783996 -2.13559,-0.397153 c -2.58171,-0.480121 -3.9223,-1.441151 -5.78169,-4.144733 -0.76902,-1.118164 -1.66618,-2.200468 -1.99369,-2.405122 l -0.59548,-0.372098 -6.12164,6.246199 c -4.19455,4.279893 -6.36178,6.246198 -6.88445,6.246198 -1.049,0 -2.47986,-0.693685 -2.71961,-1.318478 -0.22637,-0.589898 1.40526,-2.667516 5.75227,-7.324577 1.62998,-1.74625 3.11575,-3.505952 3.3017,-3.910447 0.18595,-0.404496 0.82819,-1.024956 1.4272,-1.378801 0.59901,-0.353846 1.68475,-1.181477 2.41275,-1.83918 1.57036,-1.418727 3.18811,-1.963194 4.96953,-1.672539 l 1.29956,0.212037 2.33188,3.513799 c 1.67959,2.530902 2.67368,3.676795 3.55381,4.096501 l 1.22194,0.582703 2.81011,-0.948565 c 1.54556,-0.521711 3.46096,-0.948565 4.25646,-0.948565 h 1.44635 l 1.2971,1.445532 c 0.71341,0.795042 1.5823,1.598327 1.93087,1.785079 l 0.63376,0.339548 2.19794,-1.229157 c 2.65542,-1.484994 6.05709,-2.701809 7.68574,-2.74927 1.71901,-0.05009 7.99469,-0.937843 12.30852,-1.741146 2.03729,-0.379375 5.29167,-0.77057 7.23195,-0.869321 1.94027,-0.09875 4.71734,-0.467543 6.17126,-0.819537 l 2.64349,-0.639988 1.86391,-2.435176 c 1.79214,-2.341413 2.77031,-3.878161 7.38829,-11.607397 2.46315,-4.122638 6.80388,-11.974389 6.80388,-12.307226 0,-0.126393 1.33512,-2.965223 2.96694,-6.308513 2.82492,-5.787751 5.14695,-11.18315 5.14695,-11.9593 0,-0.378252 -2.66553,-0.146912 -4.93889,0.428643 -2.74599,0.695216 -7.34162,0.984782 -10.7698,0.678596 -6.51342,-0.581746 -10.91533,-1.061423 -12.68992,-1.382825 -0.97014,-0.175706 -3.58952,-0.58311 -5.82084,-0.905344 -2.23132,-0.322233 -5.08731,-0.837865 -6.34664,-1.145847 l -2.28971,-0.559967 -5.57165,0.06653 -5.57165,0.06653 -2.54559,0.680478 c -1.40008,0.374263 -3.65684,0.78096 -5.01504,0.903772 -1.35819,0.122812 -3.89819,0.634473 -5.64444,1.137025 l -3.175,0.91373 -6.35,0.251196 -6.35,0.251196 -2.64584,0.774765 c -1.8507,0.541931 -4.18308,0.854057 -7.76111,1.038613 -2.8134,0.145116 -5.46203,0.451084 -5.88583,0.679928 -0.94478,0.510156 -3.0975,0.541993 -3.9997,0.05915 -1.03529,-0.55407 -1.39925,-2.580381 -1.40139,-7.802072 -0.001,-3.454965 -0.1497,-5.16119 -0.52705,-6.064305 l -0.52508,-1.256694 0.55259,-0.552588 c 0.30393,-0.303924 0.87267,-0.723891 1.26388,-0.933261 0.45822,-0.245229 0.64925,-0.617951 0.5369,-1.047555 -0.0959,-0.366785 -0.0307,-1.266005 0.14504,-1.998267 0.17568,-0.732262 0.32105,-3.192874 0.32304,-5.468029 0.002,-2.275154 0.15112,-4.524646 0.33142,-4.998871 0.1803,-0.474226 0.35983,-2.025861 0.39896,-3.44808 0.0391,-1.422218 0.28665,-3.202952 0.55006,-3.957187 0.33575,-0.9614 0.45221,-2.859616 0.38957,-6.35 -0.0523,-2.912218 0.0933,-5.93042 0.35062,-7.27172 0.24198,-1.26118 0.68836,-4.356805 0.99194,-6.879166 0.30359,-2.522362 0.69731,-5.062362 0.87494,-5.644446 0.56418,-1.848773 1.04985,-8.839114 1.39709,-20.108334 0.18534,-6.01487 0.59202,-13.55548 0.90375,-16.75694 0.37335,-3.83432 0.59898,-10.21523 0.66114,-18.69722 0.0519,-7.08202 0.26738,-14.78139 0.47886,-17.10974 0.21148,-2.32833 0.48511,-7.16515 0.60808,-10.7485 0.12296,-3.58334 0.29121,-6.62462 0.37389,-6.75839 0.0827,-0.13377 0.24338,-1.88507 0.35712,-3.89178 0.11374,-2.0067 0.36495,-5.63292 0.55825,-8.05827 0.1933,-2.42535 0.37775,-5.09126 0.40988,-5.92426 l 0.0584,-1.51453 -2.99861,-0.99533 c -3.82952,-1.27114 -7.13627,-2.02061 -11.04159,-2.50257 -1.70725,-0.21069 -3.4535,-0.52183 -3.88056,-0.69141 -0.42705,-0.16959 -2.58229,-0.48706 -4.78942,-0.7055 -4.33849,-0.42939 -6.89477,-1.33411 -6.52107,-2.30795 l 0.20257,-0.52789 h -1.46903 c -0.80796,0 -2.13463,0.1518 -2.94816,0.33734 -0.81352,0.18553 -2.76647,0.58271 -4.33989,0.88262 -2.66264,0.50753 -6.79117,2.11757 -15.00814,5.85288 -1.67874,0.76312 -4.29811,1.87531 -5.82084,2.47153 -1.52272,0.59621 -4.8581,2.10576 -7.41195,3.35455 -2.55385,1.24879 -4.80815,2.27053 -5.00955,2.27053 -0.20141,0 -0.49314,0.19844 -0.64831,0.44097 -0.15516,0.24253 -1.71086,1.13328 -3.45711,1.97943 -1.74625,0.84615 -5.92631,3.10834 -9.28903,5.02708 -3.36272,1.91875 -6.26708,3.48863 -6.45413,3.48863 -0.34912,0 -2.89138,1.71059 -8.7749,5.90428 -5.83637,4.1601 -6.44843,4.648 -10.2033,8.13359 -2.0223,1.87727 -4.2448,3.83321 -4.93889,4.34652 -0.69409,0.51332 -3.32039,2.93074 -5.83623,5.37205 l -4.57426,4.43874 0.82334,1.11362 0.82333,1.11362 -0.48241,0.30561 c -0.52189,0.33062 -1.18631,0.43372 -2.15811,0.33486 -0.37089,-0.0377 -0.61736,0.17707 -0.61736,0.53806 v 0.60086 l 5.02709,-0.28147 c 2.76489,-0.1548 8.28145,-0.33204 12.25902,-0.39387 3.97757,-0.0618 10.01007,-0.28232 13.40556,-0.48998 3.39549,-0.20766 7.12611,-0.43267 8.29028,-0.50004 1.16417,-0.0674 3.34537,-0.23952 4.84712,-0.38257 1.90517,-0.18148 2.87987,-0.13608 3.22482,0.15019 0.5949,0.49373 0.94574,2.4725 0.56911,3.20982 -0.14866,0.29104 -0.37591,2.26581 -0.50499,4.38837 -0.12908,2.12256 -0.38041,4.98006 -0.55851,6.35 -0.1781,1.36994 -0.32872,3.55971 -0.33471,4.86616 -0.007,1.46636 -0.39841,3.82889 -1.02353,6.17362 -0.55694,2.08903 -1.18693,4.98887 -1.39998,6.44407 -0.81587,5.57286 -1.15952,8.42619 -1.48707,12.34723 -0.18639,2.23132 -0.47955,4.93007 -0.65147,5.99722 -0.17191,1.06715 -0.22645,3.25101 -0.1212,4.85303 l 0.19137,2.912744 -0.64529,0.713042 -0.6453,0.713043 -4.43435,-0.02961 c -17.53579,-0.117105 -24.1952,0.112261 -30.7163,1.057946 -1.26118,0.182895 -3.16618,0.420487 -4.23333,0.527982 -1.06716,0.107494 -2.73403,0.344355 -3.70417,0.526356 -5.45859,1.02405 -23.73846,1.498084 -27.18264,0.704901 -2.90661,-0.66938 -8.34153,-0.484547 -11.03844,0.375401 -1.2916,0.411844 -2.70014,0.920042 -3.13009,1.129328 l -0.78173,0.38052 -0.55614,-0.461558 c -0.73147,-0.607069 -0.91463,-0.359466 -2.21992,3.00104 -2.66165,6.852523 -5.12187,14.817846 -4.76704,15.434028 0.0838,0.145521 0.78825,0.264583 1.56544,0.264583 0.7772,0 2.1926,0.335334 3.14532,0.745186 1.93157,0.830937 1.91423,0.832084 8.45274,-0.558704 5.58068,-1.187053 6.89166,-1.050148 10.90791,1.139113 l 2.99829,1.634371 2.83648,-0.0056 c 5.22004,-0.01035 8.44477,-0.40839 15.53649,-1.91773 0.77611,-0.16518 2.40623,-0.307242 3.62249,-0.315692 1.53011,-0.01063 3.38503,-0.394778 6.02099,-1.246928 l 3.80961,-1.231564 3.58009,-0.183674 c 1.96905,-0.101021 3.98314,-0.336913 4.47576,-0.524205 0.49261,-0.187291 2.20462,-0.449493 3.80447,-0.582669 1.80731,-0.150446 3.54311,-0.535809 4.58385,-1.017658 2.76667,-1.280927 4.6204,-0.248124 3.26566,1.819462 -0.75354,1.150059 -2.30327,1.783686 -5.52786,2.260136 -1.42331,0.210302 -3.30222,0.598452 -4.17534,0.862555 -0.87313,0.264103 -3.57188,0.553957 -5.99722,0.644119 -3.10166,0.115303 -4.82831,0.345127 -5.82084,0.774777 -2.41415,1.045045 -5.047,1.585285 -7.72586,1.585285 -1.75334,0 -3.91688,0.351802 -6.77376,1.101445 l -4.1976,1.101446 -4.23333,0.168343 c -5.0687,0.201563 -9.34996,-0.489518 -11.79153,-1.903388 -0.88772,-0.51406 -2.22127,-1.24899 -2.96346,-1.633178 l -1.34943,-0.698524 -2.00196,0.455157 c -1.10108,0.250336 -2.90076,0.746045 -3.99929,1.101575 -1.09853,0.35553 -2.84478,0.744849 -3.88056,0.865154 l -1.88322,0.218736 -3.34632,-0.893226 c -1.84047,-0.491275 -3.41704,-0.8225 -3.50348,-0.736057 -0.32306,0.323064 -0.68427,3.960681 -0.70917,7.141807 -0.0674,8.614978 1.40779,16.738317 4.20728,23.167656 0.33794,0.776111 1.04839,2.522361 1.57877,3.880555 1.42625,3.652317 5.96612,12.22866 8.34966,15.77349 l 2.08451,3.100123 h 0.8285 c 0.45567,0 1.50341,-0.238125 2.32831,-0.529167 1.91143,-0.674393 4.60475,-0.679898 5.48882,-0.01122 1.05046,0.794527 1.73613,0.659271 4.58547,-0.904537 l 2.63272,-1.444923 1.84858,0.229346 c 1.01671,0.12614 2.56295,0.207511 3.43607,0.180826 4.34893,-0.132918 6.38465,-0.03335 8.64306,0.42273 1.80669,0.364859 4.221,0.455884 8.99583,0.339166 3.58952,-0.08774 7.53487,-0.173701 8.76744,-0.191017 l 2.24106,-0.03148 1.18083,1.406939 1.18083,1.406939 0.98784,-0.407215 c 0.54331,-0.223968 2.01593,-0.838214 3.27248,-1.364991 l 2.28464,-0.957776 1.59591,0.39129 c 0.87776,0.215209 2.80171,0.371309 4.27545,0.346888 l 2.67954,-0.0444 1.11282,0.657363 c 0.70273,0.415108 1.11283,0.938434 1.11283,1.420051 0,1.4548 -0.68018,1.613525 -6.06149,1.414475 l -5.05101,-0.186832 -2.72265,1.04544 c -1.49745,0.574992 -3.12992,1.04544 -3.6277,1.04544 -1.15269,0 -4.25529,-1.55908 -4.53067,-2.27669 -0.22045,-0.574486 -2.19208,-0.683237 -4.28842,-0.236542 l -1.05834,0.225513 -0.17639,1.228049 c -0.24645,1.715846 -1.15668,1.780912 -2.65716,0.189943 l -1.20857,-1.281458 -3.09422,-0.103218 c -1.70182,-0.05677 -4.52296,-0.322179 -6.26921,-0.589797 -1.74625,-0.267617 -3.88938,-0.45386 -4.7625,-0.413873 -0.87313,0.03999 -3.01625,0.114725 -4.7625,0.166083 l -3.175,0.09338 -1.65906,0.993911 c -2.16436,1.296629 -4.98523,1.61943 -7.09862,0.812319 -1.58126,-0.603888 -4.11229,-0.414402 -4.3592,0.326352 -0.10694,0.320799 13.99644,14.518428 22.32978,22.479001 l 3.56845,3.408835 1.19405,-0.388981 c 0.65672,-0.21394 1.59092,-0.589939 2.07599,-0.835555 0.48506,-0.245615 1.61308,-0.555692 2.5067,-0.689061 l 1.62475,-0.242488 0.9194,1.174776 0.9194,1.174776 1.03806,-0.613192 c 1.44649,-0.854464 3.43212,-0.765176 5.97663,0.268752 1.19377,0.485069 2.31522,0.881944 2.49211,0.881944 0.1769,0 1.10631,-0.705488 2.06536,-1.567751 l 1.74371,-1.567752 1.88294,0.01458 c 1.35627,0.01051 2.17136,0.226998 2.91409,0.774002 l 1.03116,0.759416 2.66512,-0.08024 c 1.46582,-0.04413 4.07097,-0.338595 5.78922,-0.654365 1.71825,-0.315771 3.36135,-0.483085 3.65133,-0.371808 0.83318,0.319721 0.61633,1.600757 -0.45177,2.668864 l -0.97902,0.979015 -2.98974,0.414446 c -1.64435,0.227945 -3.70411,0.570808 -4.57723,0.761917 l -1.5875,0.347472 -2.80541,-0.678226 -2.8054,-0.678226 -2.48194,1.249883 -2.48193,1.249884 -1.94461,-0.392729 c -1.06953,-0.216 -2.61472,-0.58608 -3.43377,-0.8224 l -1.48916,-0.429673 -1.25683,0.599341 c -1.69825,0.809839 -3.54489,0.754194 -5.00944,-0.150946 -0.82805,-0.511764 -1.3288,-0.635481 -1.57513,-0.389155 -0.24632,0.246325 0.23853,0.801989 1.52513,1.74787 2.98879,2.197285 9.09889,6.209721 11.41127,7.49365 1.16416,0.646394 3.94229,2.213365 6.17361,3.482158 4.47772,2.546161 21.51426,11.330395 29.85248,15.392276 9.34325,4.551472 13.93903,6.431445 23.64427,9.672049 10.74763,3.588658 16.73398,5.161744 23.76158,6.244043 7.29243,1.123085 11.65636,1.643558 15.875,1.893366 2.42534,0.143618 4.56847,0.285396 4.7625,0.315061 0.19403,0.02967 2.09903,-0.109167 4.23333,-0.308517 z M -853.1419,-44.170343 c -0.77612,-0.246096 -2.09174,-0.797356 -2.92361,-1.225022 l -1.5125,-0.777575 -3.42639,0.05897 -3.42639,0.05897 -2.45196,-0.950596 c -1.6225,-0.629026 -3.55929,-1.044026 -5.72538,-1.226788 l -3.27344,-0.276192 -1.41836,-0.982927 c -1.58872,-1.100987 -1.55309,-1.034389 -1.05317,-1.968496 0.40426,-0.75538 1.54541,-0.877373 3.00744,-0.321508 0.52202,0.198471 2.08017,0.409138 3.46255,0.46815 1.81397,0.07743 3.15156,0.386446 4.80648,1.110401 l 2.29306,1.003108 4.93889,0.210062 4.93889,0.210063 1.72054,0.788125 c 2.02751,0.928739 3.31546,0.983165 5.80071,0.245124 1.00567,-0.29865 2.66167,-0.530239 3.68,-0.514641 1.01834,0.0156 2.48653,0.03642 3.26264,0.04628 0.77611,0.0099 2.68111,-0.407329 4.23333,-0.927073 1.6344,-0.547259 4.30292,-1.086373 6.3403,-1.28091 1.93494,-0.184757 5.0705,-0.729441 6.96791,-1.21041 l 3.44984,-0.874489 3.79181,0.560968 c 2.0855,0.308532 4.88448,0.789871 6.21998,1.069642 3.21083,0.672635 6.55488,0.34827 8.0907,-0.784781 2.89287,-2.134217 5.52817,-2.602548 5.82998,-1.036074 0.21191,1.099871 -3.34791,4.170043 -6.12343,5.281158 l -2.45576,0.983111 -2.24157,-0.240051 c -1.23286,-0.132028 -2.7775,-0.463978 -3.43253,-0.737666 -0.65502,-0.273688 -1.69107,-0.497614 -2.30232,-0.497614 -0.61125,0 -2.42897,-0.271216 -4.03938,-0.602702 l -2.92801,-0.602701 -1.91199,0.602701 c -1.05159,0.331486 -2.37428,0.606244 -2.93931,0.610573 -1.49818,0.01148 -8.77716,1.245613 -9.31794,1.579834 -0.40949,0.253078 -5.61417,1.4474 -7.65443,1.756468 -0.42658,0.06462 -1.2997,-5e-4 -1.94028,-0.144711 -0.75674,-0.170363 -2.0914,-0.03726 -3.81051,0.38003 -3.06851,0.744828 -4.56441,0.781316 -6.52639,0.159196 z m 153.37109,8.434159 c 3.62735,-0.172442 4.82397,-0.363705 8.37752,-1.339031 l 2.64583,-0.726189 4.64895,0.05802 4.64894,0.05802 3.28856,-0.849452 c 1.8087,-0.467199 4.79668,-1.116046 6.63994,-1.441882 1.84327,-0.325836 4.54816,-0.889348 6.01088,-1.25225 1.73394,-0.43019 4.37357,-0.706609 7.58473,-0.794264 l 4.92523,-0.134444 5.29166,0.836192 c 8.69787,1.374442 11.90887,1.905962 13.58195,2.248239 0.87312,0.178622 2.46062,0.39354 3.52778,0.477595 1.06715,0.08405 3.94812,0.336742 6.40215,0.561526 3.20646,0.293708 4.84423,0.30253 5.82083,0.03135 0.74743,-0.207539 1.99396,-0.380577 2.77008,-0.384527 0.77611,-0.004 2.39897,-0.240109 3.60636,-0.524798 1.20739,-0.284689 2.685,-0.554934 3.28357,-0.600543 0.59856,-0.04561 1.21262,-0.246898 1.36457,-0.447308 0.272,-0.358751 3.7602,-11.000875 4.28216,-13.064382 0.14723,-0.582083 0.84402,-3.122083 1.54841,-5.644445 1.4629,-5.23851 2.67338,-11.881273 3.69639,-20.284723 2.06451,-16.95882 1.99294,-21.27997 -0.54925,-33.16111 -0.47743,-2.23132 -1.17293,-5.88257 -1.54554,-8.11389 -0.37262,-2.23132 -1.15733,-6.20007 -1.74379,-8.81944 l -1.06631,-4.7625 -2.44902,-5.00827 c -1.34697,-2.75455 -3.54607,-6.64392 -4.88691,-8.64306 -1.34084,-1.99913 -2.97236,-4.58728 -3.62559,-5.75145 -1.26141,-2.24803 -1.46142,-2.55401 -4.7271,-7.23195 -2.05914,-2.9496 -9.29646,-10.56412 -11.22664,-11.81175 l -0.9859,-0.63727 -0.95437,0.89257 c -1.41592,1.32423 -3.03439,2.03145 -4.64891,2.03145 h -1.43651 l -1.60544,-1.47984 -1.60545,-1.47984 -0.73682,0.46015 c -1.30167,0.81291 -4.57242,1.79398 -5.98087,1.79398 -1.89378,0 -3.59914,-0.78907 -5.83663,-2.70062 l -1.90876,-1.63071 -2.60649,0.19713 c -2.94372,0.22263 -5.72765,-0.35079 -7.28189,-1.49989 l -0.97505,-0.72088 -3.45462,0.22639 -3.45463,0.2264 -2.19068,-1.10586 c -2.64561,-1.3355 -3.36103,-1.3579 -7.14969,-0.22391 -1.62061,0.48507 -3.25196,0.88195 -3.62522,0.88195 -0.83492,0 -3.19504,-2.29273 -2.99143,-2.90601 0.0839,-0.25274 1.0509,-0.54668 2.23573,-0.67959 1.14832,-0.12882 2.96099,-0.5864 4.02814,-1.01685 4.00612,-1.61592 5.85392,-1.57809 7.76111,0.15891 0.48507,0.44178 1.38654,1.00187 2.00327,1.24464 l 1.12133,0.44139 1.93158,-0.56152 c 1.06237,-0.30884 2.60011,-0.56153 3.41721,-0.56153 h 1.48562 l 1.14749,1.25277 c 1.52649,1.66654 2.60835,1.90237 5.9243,1.29142 l 2.74331,-0.50544 1.13725,0.46414 c 0.62549,0.25527 1.95021,1.30468 2.94383,2.33201 1.10569,1.14321 2.10805,1.86788 2.58363,1.86788 0.42739,0 1.95933,-0.39687 3.40433,-0.88194 4.23029,-1.42007 6.8393,-1.12419 8.04211,0.912 0.72531,1.22785 0.84442,1.24038 2.68285,0.28214 l 1.43149,-0.74614 -0.43782,-0.52754 c -0.77443,-0.93313 -9.20496,-7.55709 -11.6396,-9.14536 -5.69121,-3.71275 -19.23669,-9.84555 -28.68745,-12.98842 -10.33059,-3.43545 -22.19125,-6.88431 -22.5276,-6.5506 -0.16643,0.16512 -0.38766,1.38642 -0.49163,2.71401 -0.10397,1.32759 -0.34176,2.5129 -0.52842,2.63403 -0.55616,0.36092 -0.96214,3.30367 -1.33237,9.65754 -0.1922,3.29847 -0.41998,6.3941 -0.50618,6.87917 -0.0862,0.48507 -0.25301,3.50132 -0.37068,6.70278 -0.22615,6.15316 -0.47049,9.50407 -0.72279,9.91229 -0.084,0.13591 -0.13329,4.58905 -0.10955,9.89588 0.063,14.08439 0.0403,14.88759 -0.5521,19.52633 -0.51461,4.02964 -1.01785,13.31944 -1.43331,26.45856 -0.25045,7.92081 -0.41379,9.852163 -1.22326,14.463881 -1.18449,6.748374 -1.89012,13.208404 -2.13862,19.579167 -0.13244,3.395487 -0.58578,8.608621 -1.00741,11.584744 -0.42163,2.976123 -0.67367,5.912998 -0.56009,6.526389 0.11359,0.613391 0.0164,3.417132 -0.21599,6.230535 -0.23239,2.813403 -0.40247,5.728199 -0.37797,6.477324 0.0287,0.87847 -0.2041,1.678168 -0.65582,2.252437 l -0.70038,0.89039 v 2.704091 c 0,3.334934 0.26737,3.67712 2.64583,3.386168 0.97014,-0.118675 3.15338,-0.281828 4.85165,-0.362564 z m 20.52241,-8.615287 -4.61205,-0.206404 -1.47336,-0.975028 c -1.58081,-1.046128 -1.98032,-2.309611 -0.82576,-2.611534 l 0.6476,-0.169353 -0.0267,-2.531648 c -0.0147,-1.392406 0.18837,-4.674773 0.45129,-7.294149 0.26293,-2.619375 0.51833,-5.953125 0.56756,-7.408333 0.0492,-1.455209 0.20217,-2.911794 0.33985,-3.236856 0.34868,-0.823237 2.53049,-1.113596 4.61788,-0.614555 2.42049,0.578677 26.12465,0.600519 28.5619,0.02632 1.16511,-0.274493 4.51827,-0.379206 9.87777,-0.308464 l 8.11389,0.107098 1.5875,0.842225 1.5875,0.842226 4.38126,0.26477 4.38125,0.264771 0.87404,0.652564 c 1.45493,1.086259 1.5303,1.894166 0.38798,4.158826 -0.56684,1.123766 -1.02957,2.611022 -1.03066,3.312595 -10e-4,0.700262 -0.15184,1.828828 -0.33502,2.507926 -0.18318,0.679097 -0.39366,3.060347 -0.46774,5.291667 -0.0891,2.683801 -0.30406,4.327589 -0.63511,4.856563 l -0.50044,0.799618 -3.175,-0.200434 c -1.74625,-0.110238 -4.445,-0.339775 -5.99722,-0.51008 -7.05612,-0.774179 -15.22127,-0.409785 -26.9875,1.204395 -6.88144,0.944047 -13.40368,1.244386 -20.31067,0.935275 z m 11.89128,-3.227662 c 2.45857,0.01735 4.90283,-0.132975 5.43169,-0.334049 0.52887,-0.201074 2.56839,-0.523244 4.53228,-0.715933 1.96388,-0.192689 5.07882,-0.602095 6.92208,-0.90979 l 3.35139,-0.559448 5.64445,0.222331 c 3.10444,0.122283 7.33561,0.402392 9.40259,0.622465 l 3.75815,0.400133 1.09255,-0.452547 1.09254,-0.452546 -0.004,-1.809285 c -0.002,-0.995106 0.2622,-3.593361 0.58767,-5.773901 l 0.59178,-3.964616 -0.40372,-0.886078 c -0.27876,-0.611817 -0.68447,-0.886079 -1.31075,-0.886079 -0.49887,0 -1.33571,-0.218699 -1.85965,-0.485998 -0.52394,-0.267299 -2.30199,-0.753151 -3.95123,-1.079671 -1.64924,-0.32652 -3.55424,-0.729635 -4.23333,-0.895811 -2.7013,-0.66101 -5.04773,-0.733118 -11.64167,-0.35776 -3.78354,0.215376 -8.78417,0.357499 -11.1125,0.315828 -7.38883,-0.132242 -16.51896,-0.267813 -18.33667,-0.272278 -0.97461,-0.0024 -1.87076,0.181182 -2.01373,0.412511 -0.14169,0.229254 -0.34912,1.291317 -0.46096,2.360141 -0.27438,2.622126 -0.87414,7.225243 -1.19901,9.202231 -0.25245,1.536362 -0.0212,5.39932 0.34514,5.765678 0.27516,0.275156 7.46429,0.841351 8.4295,0.663883 0.48146,-0.08852 2.88694,-0.146758 5.34551,-0.129411 z m 10.88883,-5.035326 c -1.46895,-0.752207 -3.48551,-1.391591 -5.61103,-1.779074 -1.82489,-0.332677 -3.57876,-0.744432 -3.89749,-0.91501 -0.31873,-0.170579 -2.08001,-0.350713 -3.91397,-0.400298 -4.29505,-0.116128 -5.39887,-0.4136 -5.93976,-1.60073 l -0.43024,-0.944273 0.51331,-0.513306 0.5133,-0.513306 4.91005,0.378762 c 2.70053,0.208319 5.33074,0.538705 5.8449,0.734191 0.51417,0.195485 2.40791,0.606224 4.20831,0.912751 1.8004,0.306529 4.08867,0.963956 5.08505,1.460949 l 1.81161,0.903625 1.53978,-0.374038 c 0.84689,-0.205721 2.73042,-0.795595 4.18563,-1.310831 l 2.64583,-0.936795 2.11667,0.207235 c 1.16416,0.11398 2.74089,0.06231 3.50383,-0.114824 0.85462,-0.198416 2.00583,-0.192069 2.99862,0.01653 0.88629,0.186225 2.16706,0.427685 2.84616,0.536577 l 1.23472,0.197985 1.5875,-1.081982 c 1.05314,-0.717782 2.0248,-1.084143 2.88664,-1.088402 l 1.29915,-0.0064 0.22478,0.708226 c 0.28207,0.888738 -0.88525,2.389276 -2.82752,3.634628 -1.67248,1.072374 -3.74897,1.267535 -6.47893,0.608927 l -1.89727,-0.45772 -1.90963,0.427356 c -1.05029,0.235046 -2.50939,0.326027 -3.24243,0.202181 -0.87123,-0.147194 -1.87413,-0.02436 -2.89588,0.354694 -2.16138,0.801828 -6.67142,1.924323 -7.73669,1.925568 -0.48507,5.67e-4 -1.91382,-0.527363 -3.175,-1.173176 z m 30.77067,-38.169048 -1.86128,-0.942242 -2.9423,0.583849 c -3.93067,0.779972 -5.56477,0.355551 -8.3624,-2.171947 l -1.40317,-1.267678 -3.42645,1.120075 c -3.25944,1.065479 -7.21187,1.529904 -8.13974,0.95645 -0.19671,-0.121577 -1.66067,-0.384432 -3.25325,-0.584124 -3.37154,-0.422755 -4.23369,-0.812275 -6.12798,-2.76861 -1.53438,-1.584634 -2.01985,-1.680994 -4.57058,-0.907203 -3.74061,1.134754 -5.96958,0.43681 -8.13704,-2.547902 -0.58702,-0.808361 -1.27774,-1.479451 -1.53493,-1.491301 -0.49736,-0.0229 -5.1339,2.557538 -6.11057,3.400836 -0.31952,0.275893 -1.43077,0.587897 -2.46944,0.693342 l -1.88849,0.191719 -0.97013,-0.768222 c -1.27094,-1.006416 -1.31716,-2.395411 -0.0882,-2.650569 0.48507,-0.100716 1.31851,-0.273346 1.85208,-0.383636 0.53358,-0.11029 2.20203,-0.92005 3.70767,-1.79947 3.33493,-1.94787 5.53423,-2.65383 7.35871,-2.36208 1.58194,0.25296 2.99325,1.51191 3.30962,2.95231 0.32491,1.47935 0.98566,1.871941 2.72709,1.620342 3.20019,-0.462362 5.93324,-0.635432 6.75949,-0.428052 0.47408,0.11898 1.70847,0.98088 2.74309,1.915324 l 1.88114,1.698991 3.52778,0.596398 c 4.08729,0.690989 5.54564,0.539507 8.36841,-0.869246 l 2.01841,-1.007324 h 2.1572 2.1572 l 1.90073,1.978197 1.90073,1.978197 1.50838,-0.21323 c 0.82961,-0.117277 2.80736,-0.312437 4.39501,-0.433688 l 2.88662,-0.220456 1.54628,0.748545 c 2.59891,1.258111 3.35682,1.063619 8.03848,-2.062823 4.06874,-2.71713 5.70062,-3.538631 7.02933,-3.538631 h 1.07239 v 0.632104 c 0,0.856088 -2.40594,3.137532 -5.82083,5.519635 -3.76931,2.629328 -5.61536,3.475502 -7.93751,3.638319 l -1.94027,0.136043 z m -52.20343,-32.002613 c -0.62595,-0.43656 -1.23363,-1.08388 -1.35041,-1.43849 -0.32109,-0.97507 0.59343,-6.67918 1.18069,-7.36422 0.58359,-0.68079 2.17711,-0.52468 3.52262,0.34507 0.94948,0.61376 0.98331,1.06884 0.20136,2.70861 -0.32582,0.68324 -0.4911,1.34355 -0.36729,1.46736 0.1238,0.12381 1.14444,-0.67445 2.26808,-1.77392 1.12364,-1.09946 2.8791,-2.40932 3.90102,-2.91081 l 1.85804,-0.9118 1.83735,0.17654 1.83735,0.17655 1.2435,1.39768 c 0.68393,0.76872 1.62639,1.60168 2.09436,1.85101 l 0.85085,0.45334 3.10867,-0.44559 c 3.97203,-0.56932 6.52258,-0.30149 9.8299,1.03226 2.61034,1.05267 4.45846,1.29867 5.80339,0.77246 0.37846,-0.14807 1.3588,-0.14392 2.17855,0.009 l 1.49044,0.27845 2.55926,-1.24552 c 1.4076,-0.68504 3.54683,-1.50454 4.75385,-1.82112 l 2.19458,-0.57559 1.70779,0.53036 c 1.23238,0.38272 1.93618,0.86926 2.52822,1.74779 0.45123,0.66958 1.03092,1.33523 1.2882,1.47921 0.25729,0.14398 2.03251,-0.2475 3.94495,-0.86996 l 3.47717,-1.13174 2.99861,-0.0113 c 1.99583,-0.007 3.35253,0.16727 4.05694,0.52264 l 1.05834,0.53392 v 1.05358 1.05358 l -2.46945,-0.11323 c -2.57782,-0.1182 -3.25493,0.003 -8.46667,1.51392 l -3.175,0.92054 -1.5875,-0.21797 c -1.94114,-0.26652 -2.97957,-0.8724 -4.58611,-2.67579 l -1.23472,-1.38602 -3.93641,1.956 -3.93642,1.95599 -2.58997,0.005 c -1.42449,0.003 -3.30435,0.0231 -4.17748,0.0451 -0.97417,0.0245 -3.15489,-0.47171 -5.64444,-1.28435 l -4.05695,-1.32428 -2.15734,0.39068 c -4.62592,0.83773 -7.19003,0.35117 -9.53365,-1.80911 l -1.56295,-1.44068 -1.48939,0.74384 c -0.81916,0.40911 -2.6789,1.83783 -4.13275,3.17494 -1.45385,1.3371 -2.99012,2.61523 -3.41392,2.84028 -1.18989,0.63187 -2.6547,0.48763 -3.90526,-0.38456 z m 34.37637,-27.02827 c -0.54511,-0.35942 -1.41824,-1.16048 -1.94028,-1.78013 l -0.94916,-1.12665 -3.41277,1.43095 -3.41277,1.43095 -1.2627,-0.16166 c -1.92142,-0.24601 -4.05621,-1.34483 -6.17002,-3.17585 -1.09933,-0.95227 -2.14821,-1.58744 -2.46944,-1.49543 -0.30713,0.088 -2.43295,0.73455 -4.72404,1.43684 -4.56806,1.40025 -5.89635,1.53243 -7.7243,0.76866 -2.51332,-1.05013 -6.96188,-5.88154 -6.50698,-7.06699 0.1426,-0.37162 0.69462,-0.53867 1.78008,-0.53867 1.66585,0 2.34013,0.43638 3.18597,2.0619 0.73674,1.41583 2.12668,2.5653 3.25123,2.68875 0.55342,0.0607 2.75274,-0.49399 4.88737,-1.23275 2.13463,-0.73876 4.38669,-1.44597 5.00458,-1.57156 1.87425,-0.38098 3.46039,0.30854 5.48868,2.38605 1.08808,1.11447 2.3243,2.02581 2.92734,2.15801 l 1.04388,0.22885 3.64085,-1.41935 c 2.10135,-0.81919 4.24128,-1.41934 5.06084,-1.41934 1.76286,0 3.30957,0.87974 3.8529,2.19146 0.50329,1.21504 0.92173,1.50987 1.48378,1.04545 0.66905,-0.55285 4.60306,-1.47303 6.29727,-1.47296 0.84512,3e-5 2.79014,0.23993 4.32227,0.53311 1.76329,0.33741 3.77016,0.46422 5.46805,0.34552 l 2.68237,-0.18754 1.73401,0.62456 c 0.9537,0.34351 1.90351,0.8994 2.11069,1.23531 l 0.37668,0.61074 -0.62384,0.62398 -0.62383,0.62398 -3.60352,0.14737 c -4.46579,0.18265 -6.17536,0.16319 -7.30769,-0.0832 -4.94819,-1.07652 -5.07763,-1.0745 -9.12118,0.14279 -2.78476,0.83833 -3.49653,0.84085 -4.74632,0.0168 z m -195.15333,51.434371 c 2.91041,-0.203591 9.57791,-0.84616 14.81666,-1.427931 l 9.525,-1.05776 10.75973,-0.0955 c 5.91784,-0.0525 11.11511,-0.22031 11.54948,-0.37287 0.43437,-0.15255 1.09169,-0.77526 1.4607,-1.38379 l 0.67094,-1.10643 0.25823,-4.7625 c 0.14203,-2.61938 0.28821,-5.55625 0.32486,-6.52639 0.0366,-0.97014 0.24897,-2.39889 0.47183,-3.175 0.22286,-0.77611 0.58402,-2.99861 0.80257,-4.93889 0.21855,-1.94028 0.78052,-5.01359 1.24882,-6.82959 0.4683,-1.816 0.85146,-3.91197 0.85146,-4.65771 0,-0.74574 0.15264,-1.72055 0.3392,-2.16624 0.30081,-0.71861 1.43093,-12.12095 1.42647,-14.39229 l -0.002,-0.88195 -8.20211,0.056 c -4.51116,0.0308 -12.56774,0.18952 -17.9035,0.35278 -12.7263,0.38937 -18.96899,0.34655 -20.35431,-0.13962 l -1.12792,-0.39583 -1.28867,1.47447 c -0.70876,0.81095 -2.20426,2.50634 -3.32333,3.76752 -1.11907,1.26118 -2.49223,2.84797 -3.05147,3.52619 -0.55924,0.67822 -2.48934,2.9801 -4.2891,5.11528 -5.43323,6.44579 -5.8612,6.96873 -6.91644,8.45125 -0.55909,0.78546 -1.43221,1.84079 -1.94028,2.34518 -0.50807,0.50439 -1.78943,2.17126 -2.84747,3.70417 -1.05804,1.5329 -2.36389,3.3042 -2.9019,3.93621 -2.97549,3.49536 -11.93134,18.72634 -11.93134,20.291309 v 0.528571 l 2.55764,0.246555 c 1.4067,0.135605 4.22452,0.237044 6.26181,0.22542 2.03729,-0.01162 4.97416,0.18434 6.52639,0.435476 3.02717,0.489769 7.74567,0.447306 16.22778,-0.14604 z"
       style="fill:#ddaabb;fill-opacity:1"
       id="path1-6" /><path
       d="m -345.66,457.11345 c -1.5465,-1.08322 -2.85218,-2.69178 -2.85218,-3.51383 0,-0.44954 0.47697,-1.36057 1.05992,-2.02452 1.23277,-1.40405 1.68002,-3.34506 1.71356,-7.43667 l 0.0229,-2.79845 -0.86913,-2.58911 c -1.07387,-3.19899 -2.20467,-4.93756 -4.857,-7.46745 -2.28713,-2.18155 -3.05533,-2.58231 -6.51042,-3.39636 -1.30786,-0.30815 -3.01292,-0.72128 -3.78903,-0.91806 l -1.41111,-0.35779 -1.28473,0.46145 c -1.27952,0.45958 -3.97061,3.30045 -6.00984,6.34432 -1.3343,1.99166 -2.7596,6.64302 -2.7596,9.00574 0,1.08276 0.29679,3.01765 0.65953,4.29975 0.36274,1.2821 0.6794,2.96609 0.7037,3.7422 0.0243,0.77611 0.1342,2.12827 0.24424,3.00481 l 0.20007,1.59369 -0.89599,0.84174 c -0.64274,0.60383 -1.33043,0.85135 -2.43306,0.87575 l -1.53708,0.034 -1.38112,-0.94531 -1.38113,-0.94531 -7.23194,-0.0197 c -7.46276,-0.0203 -11.38892,-0.35347 -14.79085,-1.25511 -1.08135,-0.2866 -3.31547,-0.68716 -4.96471,-0.89013 -1.64923,-0.20297 -3.87173,-0.5462 -4.93889,-0.76274 -1.2233,-0.24823 -7.74122,-0.41756 -17.63889,-0.45823 -16.81804,-0.0691 -29.70908,-0.60919 -34.60455,-1.44979 -1.66701,-0.28624 -3.73076,-0.51123 -4.58611,-0.49997 -0.85534,0.0113 -2.66642,0.006 -4.02462,-0.0118 -2.25697,-0.0295 -6.33703,0.35357 -10.9778,1.03068 -2.0019,0.29208 -4.35268,-0.22926 -5.43002,-1.20423 -0.35857,-0.3245 -0.90876,-1.1312 -1.22264,-1.79266 l -0.5707,-1.20265 0.51695,-1.14652 c 0.28432,-0.63059 0.69516,-2.25778 0.91298,-3.61598 0.21782,-1.35819 0.70702,-3.62215 1.08711,-5.03102 0.83566,-3.09754 0.86165,-3.93868 0.13801,-4.46782 l -0.55305,-0.4044 1.25599,-3.69143 c 0.69079,-2.03029 1.25716,-4.34446 1.25861,-5.14259 0.001,-0.79814 0.15738,-2.26719 0.34652,-3.26457 0.18915,-0.99737 0.58734,-3.91623 0.88486,-6.48634 0.29752,-2.57012 0.68988,-5.22856 0.87192,-5.90766 0.18203,-0.6791 0.58507,-3.06035 0.89563,-5.29167 1.13492,-8.15417 2.71596,-17.57542 3.38497,-20.17074 0.1839,-0.71342 0.4898,-2.38029 0.67977,-3.70416 0.18998,-1.32387 0.4858,-3.12142 0.65738,-3.99454 0.17159,-0.87313 0.49857,-2.77813 0.72664,-4.23333 0.22807,-1.45521 0.58144,-3.28084 0.78525,-4.05695 0.20382,-0.77611 0.4482,-2.16517 0.54307,-3.0868 l 0.17248,-1.6757 h -1.82113 c -1.00162,0 -2.16788,-0.18942 -2.59168,-0.42093 -0.42381,-0.23152 -1.80244,-0.43986 -3.06362,-0.463 -3.2226,-0.0591 -5.62003,-0.98123 -8.81986,-3.39238 -5.89716,-4.44364 -7.14338,-6.80311 -7.24957,-13.72555 l -0.0624,-4.06714 0.9714,-3.87036 c 0.61595,-2.45414 1.52216,-4.90305 2.47655,-6.69258 2.45705,-4.60709 3.23004,-5.24295 9.09921,-7.48496 4.07277,-1.55579 5.48375,-2.00126 9.93465,-3.13657 1.26118,-0.32169 3.052,-0.80671 3.9796,-1.07781 1.07359,-0.31378 2.31727,-0.40925 3.42204,-0.2627 l 1.7355,0.23022 0.15935,-0.83687 c 0.88981,-4.67301 1.71083,-15.59874 1.60045,-21.29798 -0.0376,-1.94028 0.0841,-5.3534 0.27031,-7.58472 0.18625,-2.23132 0.28389,-7.86695 0.21698,-12.52361 -0.21794,-15.16692 -0.14345,-18.99789 0.38603,-19.85461 0.73163,-1.1838 5.76002,-0.39247 6.11428,0.96222 0.15918,0.60868 2.02305,1.47226 3.63491,1.68414 0.48507,0.0638 1.91717,0.42305 3.18246,0.79842 l 2.30051,0.68248 5.63699,-0.18667 c 3.10034,-0.10267 6.43073,-0.35479 7.40087,-0.56029 0.97014,-0.20549 3.11327,-0.41325 4.7625,-0.4617 1.64924,-0.0484 4.10986,-0.35518 5.46806,-0.68165 4.84005,-1.16338 10.40967,-1.74656 15.69861,-1.64377 13.06305,0.25388 15.15122,0.35909 17.57376,0.88543 2.64235,0.57411 6.79371,0.70963 7.93623,0.25908 l 0.63916,-0.25205 -1.08013,-1.35917 c -0.59407,-0.74754 -1.08013,-1.70935 -1.08013,-2.13737 0,-0.42801 -0.29353,-1.6365 -0.65229,-2.68552 -0.99674,-2.91446 -1.52377,-7.19262 -1.34316,-10.90314 l 0.16312,-3.35139 1.14807,-2.46944 c 0.63143,-1.3582 1.81361,-3.42195 2.62706,-4.58612 0.81345,-1.16416 1.54253,-2.29338 1.62018,-2.50937 0.0777,-0.21599 1.41914,-1.48599 2.98109,-2.82223 4.80254,-4.10854 8.72872,-5.3486 17.44482,-5.50987 l 5.11528,-0.0947 3.35139,1.71533 3.35139,1.71534 2.91417,2.93746 c 1.60279,1.61561 3.31465,3.7348 3.80412,4.70932 0.48947,0.97451 1.04341,1.86669 1.23097,1.98261 0.18756,0.11592 0.34102,0.54731 0.34102,0.95864 0,0.74028 0.12915,1.24922 1.1873,4.67854 0.55341,1.79353 0.77294,6.69195 0.47429,10.58333 -0.2146,2.79638 -1.86219,6.37786 -3.92369,8.52922 -0.89015,0.92895 -1.61846,1.94908 -1.61846,2.26695 v 0.57794 l 2.39998,0.23649 c 2.95917,0.29159 4.49683,1.15102 4.83793,2.70403 l 0.24968,1.13678 4.81107,-0.29985 c 2.64608,-0.16492 10.12919,-0.30774 16.62912,-0.31737 l 11.81805,-0.0175 1.8728,0.81246 1.8728,0.81247 2.8897,-0.0812 c 5.87634,-0.16519 12.12666,-0.007 14.35498,0.36309 4.37119,0.72616 26.43095,0.0406 27.89958,-0.86709 0.232,-0.14338 3.53481,-0.30889 7.33959,-0.36779 3.80478,-0.0589 7.07652,-0.12515 7.27055,-0.1472 0.38661,-0.0439 1.49126,0.13857 3.26583,0.53957 1.49053,0.33683 3.39682,2.45673 3.13129,3.48218 -0.59536,2.29918 -1.61862,7.86756 -1.9521,10.62298 -0.21135,1.74625 -0.78532,5.23875 -1.27549,7.76111 -0.49017,2.52236 -1.11971,6.25299 -1.39898,8.29028 -0.27926,2.03729 -0.84234,6.08542 -1.25128,8.99583 -0.40895,2.91042 -0.87512,6.95854 -1.03594,8.99584 -0.65889,8.34683 -1.41418,14.76426 -2.13828,18.16805 -0.20637,0.97014 -0.43022,2.39889 -0.49743,3.175 -0.32096,3.70635 -0.6675,5.81812 -1.27358,7.76111 -0.77192,2.47462 -1.75336,7.92175 -1.74999,9.71271 0.001,0.68532 0.21342,2.05976 0.4714,3.05432 l 0.46907,1.80828 -0.66722,1.78864 -0.66722,1.78864 -1.38358,0.37255 -1.38357,0.37256 -1.02135,-0.52816 c -0.56175,-0.29049 -1.12371,-0.79488 -1.2488,-1.12087 -0.12509,-0.32599 -0.32324,-0.4969 -0.44034,-0.37981 -0.11709,0.11709 -0.71355,0.004 -1.32548,-0.25198 -2.88285,-1.20453 -7.00694,-0.92336 -10.12776,0.69048 -1.3701,0.7085 -4.28158,3.62895 -5.00344,5.01886 -0.2734,0.52642 -1.11554,1.98899 -1.87142,3.25017 l -1.37434,2.29306 0.0533,2.99861 0.0533,2.99861 0.83893,1.76389 c 1.57152,3.30417 4.56226,5.84037 8.14546,6.90749 l 2.46952,0.73546 2.09732,-0.24342 2.09731,-0.24342 0.58943,-0.96925 c 0.83233,-1.36864 2.67174,-2.83547 3.5557,-2.83547 0.41161,0 1.35577,0.18956 2.09813,0.42125 1.4315,0.44677 1.77824,0.96565 2.90105,4.34125 l 0.58671,1.76389 -0.6281,1.76389 c -1.10721,3.10937 -1.72229,6.92901 -1.93148,11.99444 -0.11218,2.71639 -0.35122,6.12951 -0.53122,7.58472 -0.17999,1.45521 -0.35443,4.0416 -0.38765,5.74754 -0.0539,2.76686 -0.46679,5.57061 -1.75131,11.89135 -0.83713,4.11931 -1.02731,5.16584 -1.20974,6.65722 -0.10373,0.84806 -0.33997,2.19744 -0.52496,2.99861 -0.185,0.80117 -0.34024,2.45512 -0.34498,3.67544 -0.005,1.22032 -0.17905,3.74716 -0.38735,5.6152 -0.27043,2.42521 -0.26987,4.0215 0.002,5.5823 l 0.38065,2.18585 -0.872,1.97173 -0.87199,1.97173 -1.45683,0.39228 c -1.5976,0.43019 -2.82877,0.15771 -4.49155,-0.99404 -1.67917,-1.1631 -3.97013,-1.53203 -9.79166,-1.5768 -5.3298,-0.041 -21.3725,0.35909 -25.55872,0.63739 -1.06715,0.0709 -5.75027,0.29622 -10.40694,0.50063 -4.65666,0.2044 -9.57791,0.52829 -10.9361,0.71977 -1.3582,0.19147 -3.66007,0.52044 -5.11528,0.73104 -1.45521,0.21059 -5.50333,0.51396 -8.99583,0.67415 -4.12645,0.18926 -6.95641,0.48863 -8.08177,0.85493 -2.15205,0.70049 -2.32711,0.69947 -3.35356,-0.0195 z m 20.91049,-5.94171 c 3.48944,-0.4859 7.9444,-0.88756 9.89992,-0.89256 1.95551,-0.005 5.0636,-0.15556 6.90685,-0.33455 1.84327,-0.179 6.36764,-0.41671 10.05417,-0.52824 3.68653,-0.11153 10.35403,-0.37366 14.81667,-0.58251 8.99926,-0.42118 14.74645,-0.28282 17.03399,0.41008 l 1.51177,0.45791 0.92074,-0.68743 c 0.63561,-0.47455 0.94756,-1.06654 1.00735,-1.91165 0.26766,-3.78333 0.91188,-8.72055 1.51975,-11.64717 0.38103,-1.83447 0.80308,-4.44665 0.9379,-5.80484 0.13481,-1.35819 0.54694,-3.65028 0.91584,-5.09352 0.36889,-1.44325 0.67071,-3.08367 0.67071,-3.64539 0,-0.56172 0.31328,-2.2483 0.69618,-3.74796 0.38289,-1.49965 0.78539,-4.11739 0.89444,-5.81721 0.10905,-1.69981 0.42983,-4.62677 0.71286,-6.50435 0.28302,-1.87759 0.51552,-5.0345 0.51667,-7.01535 0.001,-1.98086 0.18105,-4.80491 0.3998,-6.27566 0.21875,-1.47075 0.3057,-2.76612 0.19322,-2.8786 -0.11247,-0.11247 -1.52605,-0.18199 -3.14128,-0.15447 -3.71161,0.0632 -5.12902,-0.36746 -11.9142,-3.62013 l -3.35203,-1.6069 -1.3113,-1.56874 c -2.07272,-2.47964 -3.40563,-5.00132 -4.33041,-8.19251 l -0.85672,-2.95638 0.51583,-1.46202 c 0.28371,-0.80411 0.51583,-1.70344 0.51583,-1.99851 0,-0.29507 0.5373,-1.34668 1.19399,-2.3369 0.6567,-0.99022 1.44979,-2.41351 1.76242,-3.16287 0.31263,-0.74935 1.42185,-2.4956 2.46494,-3.88055 l 1.89653,-2.51809 2.34769,-1.16623 c 1.29123,-0.64143 3.09752,-1.39572 4.01398,-1.6762 l 1.66629,-0.50997 4.45032,0.22714 4.45033,0.22714 0.24559,-1.63775 c 0.13508,-0.90076 0.37014,-1.63774 0.52235,-1.63774 0.42382,0 1.30667,-4.49193 2.14939,-10.93611 0.41866,-3.20146 1.0667,-6.93209 1.44009,-8.29028 0.37339,-1.3582 0.6801,-2.86632 0.68159,-3.35139 10e-4,-0.48507 0.2391,-1.66124 0.52804,-2.61371 0.28895,-0.95247 0.53093,-2.85747 0.53775,-4.23333 0.007,-1.37587 0.23936,-3.53345 0.51677,-4.79463 0.27741,-1.26118 0.50996,-3.58778 0.51677,-5.17023 0.007,-1.58245 0.40927,-4.90712 0.89434,-7.38817 0.48507,-2.48105 0.88194,-5.08953 0.88194,-5.79662 0,-1.53169 0.78796,-6.87906 1.55894,-10.57961 0.30397,-1.45897 0.62399,-3.41342 0.71114,-4.3432 0.0872,-0.92979 0.31945,-2.51421 0.5162,-3.52093 0.60124,-3.07634 1.09428,-6.82948 1.09428,-8.32983 v -1.42463 l -0.91342,-0.22926 c -0.50238,-0.12609 -1.86982,-0.14253 -3.03875,-0.0365 -1.39227,0.12625 -2.61351,0.0205 -3.54066,-0.30664 -1.67663,-0.59154 -4.75967,-0.65226 -6.15434,-0.12119 -0.54621,0.20798 -3.35353,0.52777 -6.23849,0.71064 -2.88497,0.18286 -5.35188,0.39829 -5.48202,0.47873 -0.45722,0.28257 -7.67237,0.18288 -12.90871,-0.17837 -2.91042,-0.20079 -8.86354,-0.40955 -13.22917,-0.46393 -5.78815,-0.0721 -8.55842,-0.25125 -10.23055,-0.66164 -4.37352,-1.07338 -9.85157,-1.33671 -20.2928,-0.97547 -5.42833,0.1878 -11.00129,0.44165 -12.38434,0.56409 -3.12017,0.27624 -3.78251,0.0728 -4.72422,-1.4509 -0.51766,-0.83759 -1.14677,-1.31315 -2.04599,-1.54661 -1.87535,-0.48689 -8.19775,-1.05379 -9.33271,-0.83682 l -0.96662,0.18478 -1.20621,-1.31688 c -2.60082,-2.83943 -2.43609,-4.53819 0.57843,-5.96494 2.49351,-1.18016 4.70884,-3.49435 5.50251,-5.74805 0.35013,-0.99421 0.79879,-2.02013 0.99704,-2.27981 0.19825,-0.25968 0.70558,-1.39908 1.12741,-2.53201 0.99413,-2.67002 1.01772,-6.17835 0.0616,-9.15196 -0.38798,-1.20655 -1.04009,-3.22561 -1.44914,-4.48679 l -0.74373,-2.29305 -1.98007,-1.8562 c -1.28294,-1.20268 -3.14537,-2.41565 -5.28992,-3.44523 l -3.30986,-1.58904 -3.93247,-0.0773 -3.93247,-0.0773 -2.58609,0.83154 c -1.42235,0.45734 -3.40673,1.38007 -4.40972,2.05051 -2.06515,1.38043 -4.11669,3.25294 -4.11669,3.75746 0,0.18586 -0.59531,0.84784 -1.32292,1.47106 -1.40789,1.20593 -3.41701,4.82614 -3.8138,6.87205 -0.13171,0.67909 -0.3088,2.9826 -0.39353,5.11889 l -0.15406,3.88418 1.11198,3.17138 c 0.61159,1.74426 1.41431,3.49911 1.78382,3.89967 0.36951,0.40056 0.67184,0.9165 0.67184,1.14653 0,0.23003 0.20955,0.41824 0.46567,0.41824 0.25612,0 1.11479,0.55562 1.90816,1.23472 0.79337,0.6791 1.61268,1.23472 1.82067,1.23472 0.51727,0 0.87004,1.56803 0.59727,2.65481 -0.12298,0.49 -0.53706,1.20438 -0.92018,1.5875 -0.74427,0.74426 -2.61885,0.94377 -3.00451,0.31975 -0.12809,-0.20725 -0.4625,-0.28872 -0.74314,-0.18102 -0.28064,0.10769 -1.65364,0.0449 -3.05112,-0.13947 -10.08564,-1.3308 -14.36648,-1.58209 -21.76726,-1.27777 -0.87313,0.0359 -1.855,-0.0607 -2.18195,-0.21468 -0.32694,-0.15398 -2.23491,-0.37124 -4.23994,-0.4828 -3.50944,-0.19526 -8.67523,0.33136 -12.45173,1.26938 -4.84643,1.20378 -28.43911,2.43154 -30.69166,1.59719 -0.38806,-0.14373 -1.44808,-0.56313 -2.3556,-0.93199 -0.90753,-0.36887 -1.88992,-0.57862 -2.18309,-0.46611 l -0.53305,0.20454 0.1738,5.87964 c 0.22439,7.59074 0.21341,8.16469 -0.22031,11.52409 -0.29431,2.27951 -0.28955,7.01684 0.009,8.81944 0.0321,0.19403 -0.15385,2.01965 -0.41327,4.05695 -0.25941,2.03729 -0.42989,5.03727 -0.37883,6.66662 0.051,1.62935 -0.0899,3.93123 -0.31317,5.11528 -0.22329,1.18405 -0.44461,3.51997 -0.49182,5.19093 -0.0472,1.67097 -0.28322,3.6362 -0.52447,4.36719 -0.30974,0.93852 -0.36612,2.44792 -0.19186,5.13659 l 0.24678,3.80752 -0.71032,0.38016 c -0.92821,0.49676 -2.48397,0.48159 -4.44664,-0.0433 l -1.58339,-0.42349 -4.68348,0.40527 c -5.31304,0.45976 -5.02538,0.40211 -9.21508,1.84656 -3.92929,1.35467 -4.22351,1.51671 -6.32785,3.48508 -1.9916,1.8629 -2.63164,3.00913 -3.86859,6.92813 -1.46146,4.63031 -1.78556,6.59705 -1.57807,9.57619 0.28574,4.10276 0.75445,5.26359 3.11993,7.72699 2.45994,2.56176 3.35645,2.98893 8.89764,4.23955 4.18244,0.94395 5.04271,0.96431 8.64946,0.20471 l 1.53869,-0.32406 1.06325,0.95002 1.06325,0.95001 -0.59458,1.14978 -0.59457,1.14978 0.75717,1.28331 0.75717,1.2833 -0.87245,1.9566 c -0.91362,2.04892 -1.88887,6.24072 -2.42505,10.42326 -0.49609,3.86986 -1.46534,9.51151 -2.42433,14.11111 -0.93499,4.48449 -1.30462,6.69656 -2.09267,12.52361 -0.38049,2.81341 -0.8582,5.90903 -1.06159,6.87917 -0.2034,0.97014 -0.44816,2.96328 -0.54392,4.42919 -0.0958,1.46592 -0.42143,3.7678 -0.72371,5.11528 -0.30228,1.34749 -0.63638,3.18555 -0.74244,4.08459 l -0.19285,1.63461 0.80491,1.08869 0.80491,1.08869 -0.55689,1.33364 c -1.17536,2.81476 -1.6667,4.37149 -2.49588,7.90779 -1.02549,4.37353 -1.82326,8.11915 -1.82517,8.56943 -7.7e-4,0.17981 0.95111,0.40688 2.11527,0.50462 2.21018,0.18555 2.37583,0.18711 10.00687,0.0942 3.12815,-0.0381 5.38418,0.11375 6.70278,0.45106 2.40247,0.61458 7.89624,1.19425 13.62925,1.43808 2.32833,0.099 6.2177,0.28503 8.64305,0.41335 2.42535,0.12832 7.10847,0.17255 10.40695,0.0983 10.4483,-0.23524 15.08355,-0.1639 18.16805,0.27963 1.64924,0.23715 4.90381,0.67766 7.23237,0.97891 2.32857,0.30126 5.10669,0.77839 6.17361,1.06028 2.15587,0.56962 15.90617,1.36647 19.22142,1.11392 l 2.11212,-0.1609 0.52364,-1.18253 c 0.3655,-0.8254 0.58138,-3.00964 0.71484,-7.23254 l 0.1912,-6.05001 1.55572,-3.02604 c 1.0846,-2.10963 2.1789,-3.61936 3.61348,-4.98524 1.13177,-1.07757 2.48225,-2.60066 3.00107,-3.38465 0.51882,-0.78399 1.53729,-1.72847 2.26326,-2.09883 l 1.31996,-0.67339 2.05602,0.366 c 1.13081,0.20129 2.69102,0.58542 3.46713,0.85362 0.77611,0.26819 2.20244,0.59196 3.16961,0.71948 3.12818,0.41246 5.70386,1.91499 9.59504,5.59732 l 3.59243,3.39961 1.74522,3.31508 1.74522,3.31508 0.22667,3.64544 c 0.12467,2.00499 0.24417,3.96293 0.26556,4.35099 0.0214,0.38805 -0.19537,1.53225 -0.48167,2.54265 -0.28631,1.0104 -0.39502,1.9629 -0.24158,2.11666 0.5486,0.54978 10.03082,0.0981 16.317,-0.77724 z m -59.21683,-81.442 c -3.24731,-0.94054 -6.32692,-3.59367 -8.81956,-7.59815 -0.19408,-0.31181 -0.645,-0.89967 -1.00204,-1.30637 -1.40165,-1.5966 -3.98717,-8.9845 -4.26207,-12.17853 -0.11052,-1.28405 -0.4235,-3.58593 -0.69553,-5.11528 -0.27202,-1.52935 -0.68856,-4.44751 -0.92563,-6.4848 -0.52248,-4.49001 -1.01517,-5.78767 -2.83054,-7.45514 l -1.3952,-1.28153 -2.57394,-0.60615 -2.57394,-0.60616 -5.20353,1.64665 -5.20352,1.64664 -1.83274,1.49401 c -1.00801,0.8217 -2.52031,2.39861 -3.36067,3.50423 -2.13923,2.8145 -3.17552,2.66314 -3.77867,-0.55191 l -0.24659,-1.31443 1.68866,-2.47144 c 0.92876,-1.35929 1.81892,-2.47143 1.97815,-2.47143 0.15922,0 0.88526,-0.53272 1.61342,-1.18382 1.56727,-1.40139 2.61607,-1.99118 3.54082,-1.99118 0.37167,0 2.88242,-0.72982 5.57944,-1.62182 l 4.90367,-1.62181 2.55247,0.3816 c 1.40385,0.20987 3.53736,0.71339 4.74114,1.11891 l 2.18868,0.73731 1.43247,1.62185 c 2.82433,3.19773 3.16507,4.14594 3.89861,10.84923 0.29725,2.71639 0.70657,5.44527 0.90959,6.06417 0.20302,0.6189 0.33267,1.33327 0.28812,1.5875 -0.14537,0.8295 0.43602,4.65774 0.95878,6.31324 0.28095,0.88973 0.57317,1.9415 0.64939,2.33727 0.67918,3.52667 3.4148,8.15157 5.52225,9.33602 0.75711,0.42552 1.37656,0.90106 1.37656,1.05675 0,0.5941 2.43697,1.31095 3.4596,1.01766 0.95116,-0.27279 3.64065,-2.03202 6.78912,-4.44086 2.42945,-1.85872 5.85393,-6.44646 7.75953,-10.39536 2.82224,-5.84841 5.41502,-10.78658 7.59424,-14.46389 0.86237,-1.45521 1.81854,-3.19002 2.12481,-3.85514 1.02232,-2.22013 4.52155,-5.47013 7.23748,-6.72198 l 2.48851,-1.14703 1.82266,0.17009 c 1.60855,0.15011 2.90393,0.62761 5.79142,2.13483 0.43656,0.22787 0.79375,0.61978 0.79375,0.8709 0,0.25112 0.24605,0.55101 0.54679,0.66641 0.8818,0.33838 2.87476,3.75228 3.49734,5.99086 1.02444,3.68356 1.21326,4.81644 1.58741,9.52408 0.39297,4.9443 0.57473,5.5665 2.80903,9.61566 0.79161,1.43462 1.62572,3.26025 1.85358,4.05695 0.22785,0.79669 0.98144,2.42821 1.67465,3.62559 l 1.26036,2.17705 1.0161,0.20457 c 1.34116,0.27002 2.61566,-0.54977 5.54921,-3.56939 2.63895,-2.71637 4.20904,-5.30758 5.08837,-8.39761 0.33128,-1.16417 0.72103,-2.27542 0.86609,-2.46945 0.14507,-0.19403 1.09733,-2.41653 2.11614,-4.93889 4.28839,-10.61726 6.7417,-14.22173 11.96466,-17.57879 l 3.19964,-2.05657 2.68861,-0.25682 c 2.88111,-0.2752 9.83841,0.318 11.96636,1.02028 0.74579,0.24614 1.44348,0.79982 1.7467,1.38619 l 0.50489,0.97635 -0.51212,0.73116 c -0.28167,0.40213 -1.0667,0.91418 -1.74452,1.13788 l -1.2324,0.40673 -3.08803,-0.37874 c -4.8443,-0.59413 -5.7757,-0.50461 -8.72269,0.83837 -3.66096,1.66836 -5.65336,3.38413 -6.95578,5.99004 -0.58811,1.17671 -1.42489,2.61573 -1.8595,3.19781 -0.87122,1.16685 -2.30701,4.24444 -2.30701,4.94504 0,0.24509 -0.55717,1.57301 -1.23816,2.95093 -0.68098,1.37792 -1.45594,3.41939 -1.72212,4.53661 -0.26618,1.11722 -1.13776,3.37229 -1.93683,5.01126 -0.79909,1.63897 -1.45288,3.18898 -1.45288,3.44445 0,0.55391 -6.27904,6.92216 -8.29028,8.40807 l -1.41111,1.04253 -1.64802,-0.0523 c -1.89819,-0.0602 -4.77923,-1.48026 -6.33548,-3.12271 -1.41768,-1.49619 -2.82292,-3.69599 -2.59579,-4.0635 0.10566,-0.17095 -0.1349,-0.48583 -0.53457,-0.69972 -0.39967,-0.2139 -0.69575,-0.57905 -0.65797,-0.81145 0.17957,-1.10447 -1.0739,-4.69776 -3.05455,-8.75644 -0.81654,-1.67322 -1.57427,-3.49884 -1.68385,-4.05694 -0.10957,-0.5581 -0.45091,-1.88785 -0.75852,-2.955 l -0.5593,-1.94028 0.32661,-1.54721 0.32661,-1.54721 -0.51342,-1.4514 c -0.28239,-0.79827 -0.43681,-1.74659 -0.34316,-2.10736 0.15864,-0.61121 -1.29853,-3.78539 -2.43522,-5.30467 -0.27528,-0.36793 -1.25977,-0.86788 -2.18777,-1.11101 l -1.68727,-0.44204 -0.88195,0.52931 c -0.48507,0.29112 -1.12789,0.809 -1.42849,1.15083 -0.3006,0.34183 -0.95746,0.84172 -1.4597,1.11086 -1.37676,0.73778 -5.27052,6.17143 -6.29148,8.77962 -0.26583,0.6791 -1.07291,2.02847 -1.7935,2.99861 -0.7206,0.97014 -1.63553,2.76244 -2.03318,3.98288 -0.39766,1.22045 -1.0243,2.60203 -1.39255,3.07018 -0.36824,0.46815 -0.86978,1.5664 -1.11453,2.44054 -0.24475,0.87415 -0.95413,2.19132 -1.57642,2.92705 -0.62228,0.73573 -1.7882,2.31242 -2.59093,3.50377 -1.5659,2.32399 -3.28596,3.94469 -6.4047,6.03474 -1.07819,0.72257 -2.67477,1.893 -3.54795,2.60097 -2.40938,1.95352 -4.6928,2.4342 -7.58462,1.59661 z"
       style="fill:#ddaabb;fill-opacity:1"
       id="path1-2" /><path
       d="m 227.99844,582.46267 c -0.65885,-0.0804 -1.4087,-0.35691 -1.66633,-0.61454 -0.25764,-0.25764 -1.02288,-0.8111 -1.70054,-1.22991 l -1.2321,-0.76148 -0.21097,-1.30155 c -0.11603,-0.71585 -0.69564,-2.73029 -1.28802,-4.47654 -3.39708,-10.01414 -4.2251,-12.74585 -5.0258,-16.58056 -1.13034,-5.41346 -4.81931,-19.32191 -5.64529,-21.28437 -0.48273,-1.14691 -1.65539,-3.5166 -2.60592,-5.26598 -0.95052,-1.74938 -2.16519,-4.37876 -2.69925,-5.84306 -0.53406,-1.46431 -1.17473,-2.74055 -1.4237,-2.83608 -0.58589,-0.22483 -1.59076,0.88127 -3.00077,3.3031 -0.62131,1.06715 -1.51366,2.33715 -1.983,2.82222 -1.66519,1.721 -4.74669,6.58707 -6.92543,10.93611 -1.21503,2.42535 -2.93864,5.4416 -3.83026,6.70278 -0.89162,1.26118 -2.04742,3.00743 -2.56845,3.88056 -1.45629,2.4404 -1.7259,2.87536 -2.76918,4.46746 -0.53357,0.81427 -0.97014,1.5791 -0.97014,1.69963 0,0.12052 -0.89517,2.07629 -1.98927,4.34616 -1.09409,2.26986 -2.45446,5.1589 -3.02304,6.42008 -0.56857,1.26118 -1.47805,3.16618 -2.02105,4.23333 -0.543,1.06716 -1.08769,2.4976 -1.21043,3.17877 -0.12273,0.68116 -0.62639,1.67335 -1.11923,2.20486 l -0.89607,0.96626 h -1.42003 c -1.54384,0 -2.52468,-0.39618 -3.75489,-1.51669 -1.02744,-0.93581 -1.00249,-1.70888 0.0973,-3.01596 0.4901,-0.58245 1.06772,-1.58682 1.28359,-2.23192 0.21587,-0.64511 0.67274,-1.49043 1.01525,-1.87848 0.34252,-0.38806 0.95677,-1.83809 1.365,-3.22229 0.40823,-1.3842 0.97859,-2.71288 1.26746,-2.95262 0.69162,-0.57399 2.37831,-3.93101 3.15181,-6.27306 0.52264,-1.58245 4.06337,-7.35281 8.27213,-13.4812 0.59963,-0.87312 1.97217,-3.30545 3.05008,-5.40516 1.07792,-2.09971 2.79529,-5.03659 3.81638,-6.52639 1.02109,-1.4898 2.37508,-3.62154 3.00887,-4.7372 0.63378,-1.11566 1.29199,-2.02847 1.46269,-2.02847 0.42106,0 4.92953,-6.87445 4.92953,-7.51647 0,-0.28106 0.24159,-0.71153 0.53687,-0.9566 0.31102,-0.25812 0.50542,-0.91267 0.46211,-1.55587 -0.0411,-0.61066 0.0723,-1.34241 0.252,-1.6261 0.49263,-0.77756 0.9584,-5.6042 1.03704,-10.74635 0.0701,-4.5811 0.92606,-13.79657 1.62205,-17.4625 0.2026,-1.06715 0.44109,-2.57528 0.52997,-3.35139 0.0889,-0.77611 0.30784,-2.52236 0.48656,-3.88056 0.17872,-1.35819 0.4235,-3.58069 0.54394,-4.93888 0.12045,-1.3582 0.44101,-3.66007 0.71236,-5.11528 1.59777,-8.5686 1.99091,-10.88188 2.608,-15.34584 1.17857,-8.5256 1.43343,-12.45811 1.34709,-20.78608 l -0.0838,-8.08609 -1.99184,-0.45228 c -3.33732,-0.75778 -6.14991,-2.4918 -9.65636,-5.95332 -4.26618,-4.21152 -5.27375,-6.047 -8.3271,-15.16945 l -1.06269,-3.175 -0.19869,-4.2834 c -0.24602,-5.30376 0.25387,-8.97722 1.8894,-13.8843 0.67896,-2.0371 1.69188,-5.45023 2.25093,-7.58473 1.93682,-7.39495 1.95989,-7.45072 4.34086,-10.49396 3.21813,-4.11327 8.55531,-9.12808 11.52077,-10.82493 0.48507,-0.27756 1.80489,-1.02873 2.93294,-1.66926 2.73037,-1.55039 7.21769,-2.90943 10.47292,-3.17185 l 2.64614,-0.21331 2.82192,0.76423 c 1.55205,0.42033 3.24729,1.07229 3.76718,1.4488 0.66191,0.47935 1.3726,0.64832 2.37085,0.56369 1.7353,-0.14712 2.62711,0.41859 3.56833,2.26353 0.38576,0.75615 1.41636,2.11048 2.29022,3.00962 0.87387,0.89914 1.68565,2.05592 1.80396,2.57061 0.3039,1.32212 2.13111,4.54572 3.5824,6.32015 1.36444,1.66826 2.51947,5.2333 2.54162,7.84483 0.007,0.87313 0.38752,3.25438 0.84469,5.29167 l 0.83123,3.70417 -0.2664,2.82222 c -0.14652,1.55222 -0.51319,4.20409 -0.81483,5.89304 -0.30164,1.68895 -0.45999,3.61587 -0.35188,4.28205 0.1408,0.86769 6.8e-4,1.49758 -0.49405,2.22084 -1.58513,2.31741 -3.55758,5.88154 -6.32637,11.43151 l -2.93904,5.89125 -1.52087,1.36843 c -7.28528,6.55508 -11.88073,9.04753 -17.70155,9.60086 l -2.46419,0.23424 -0.28331,1.41111 c -0.15582,0.77611 -0.28268,4.98299 -0.28192,9.34861 7.7e-4,4.36563 -0.13652,9.2075 -0.30509,10.75973 -0.63797,5.87476 -1.42793,12.07856 -1.82633,14.34277 -0.22727,1.29159 -0.31608,2.60145 -0.19737,2.9108 l 0.21584,0.56247 2.0394,-0.89865 c 1.12167,-0.49426 2.59502,-1.33252 3.27412,-1.86281 1.91613,-1.49623 2.82956,-2.01506 5.66141,-3.21567 1.44587,-0.613 4.1675,-1.99128 6.04805,-3.06283 1.88055,-1.07155 4.524,-2.41247 5.87433,-2.97982 1.35034,-0.56735 4.4127,-2.15604 6.80525,-3.53042 2.51221,-1.44312 5.24696,-2.72665 6.47289,-3.03799 1.16753,-0.29651 2.16759,-0.57992 2.22234,-0.62979 0.0548,-0.0499 0.33414,-2.20433 0.62085,-4.78767 0.28671,-2.58334 0.68164,-5.29246 0.87761,-6.02027 0.19598,-0.7278 0.2907,-2.64395 0.21048,-4.25809 -0.15661,-3.15121 0.29739,-4.70406 1.44991,-4.95929 0.34219,-0.0758 2.70113,-0.0662 5.2421,0.0212 2.64317,0.0909 4.88059,0.0131 5.22911,-0.18197 0.34429,-0.19268 1.32668,-0.22997 2.25923,-0.0858 0.96117,0.14863 1.8277,0.11097 2.07557,-0.0902 0.23404,-0.18993 0.55829,-0.26328 0.72056,-0.16299 0.16227,0.10029 0.92329,0.26317 1.69115,0.36195 4.48836,0.57743 6.88847,2.616 6.14246,5.21719 -0.15685,0.54692 -0.3914,2.86143 -0.52121,5.14336 -0.1298,2.28192 -0.47533,5.10145 -0.76783,6.26562 -0.45999,1.83079 -0.70575,3.6713 -1.34251,10.05416 -0.0677,0.6791 -0.21763,3.53652 -0.33307,6.34981 l -0.20989,5.11509 -0.80488,0.80489 c -1.06523,1.06522 -2.99441,1.35742 -4.51283,0.68351 -3.16092,-1.40288 -8.16025,-2.04687 -12.22145,-1.57429 l -2.91454,0.33914 -1.22843,-0.58293 c -2.49085,-1.18198 -3.75615,-4.44278 -2.32711,-5.9972 l 0.66955,-0.72829 -0.39698,-1.6757 -0.39698,-1.67569 h -0.98876 c -1.11597,0 -4.63745,1.40137 -6.56604,2.61295 -0.70434,0.44248 -2.23312,1.15373 -3.39728,1.58055 -2.89101,1.05994 -4.24984,1.7114 -6.33549,3.03744 -0.97812,0.62188 -3.28653,1.79247 -5.12979,2.60132 -1.84327,0.80885 -3.58952,1.62406 -3.88056,1.81158 -0.29104,0.18752 -1.75337,1.09718 -3.24962,2.02147 -1.49625,0.92429 -2.67876,1.83927 -2.6278,2.0333 0.13361,0.5087 3.50849,2.12032 6.58298,3.1436 1.4552,0.48433 3.392,1.26723 4.30398,1.73977 2.37477,1.23047 6.97428,1.85048 10.42735,1.4056 3.80057,-0.48966 5.73416,0.0148 9.36109,2.44247 5.07737,3.39845 9.38736,7.96331 12.40565,13.13926 0.56524,0.9693 2.17137,3.42993 3.56919,5.46806 1.39781,2.03812 3.82249,6.32506 5.38816,9.52652 1.56568,3.20146 3.79207,7.24958 4.94755,8.99583 3.72865,5.63507 8.129,13.96874 10.83977,20.52907 1.71435,4.14891 3.44213,7.54617 4.86364,9.56315 1.55342,2.20416 3.03097,5.16732 4.60869,9.2425 0.71362,1.84327 2.13473,4.62139 3.15801,6.17361 1.02328,1.55223 2.27557,3.5366 2.78287,4.40973 0.5073,0.87312 1.72349,2.58048 2.70265,3.79414 0.97916,1.21365 1.78029,2.34069 1.78029,2.50455 0,0.16385 0.47336,0.99649 1.05191,1.8503 0.57856,0.85382 1.05481,1.8813 1.05834,2.2833 0.004,0.402 0.26398,1.48682 0.57879,2.41072 l 0.57236,1.6798 -0.38841,0.85248 -0.38842,0.85249 -1.15409,-0.002 c -0.63475,-10e-4 -1.61092,-0.30349 -2.16926,-0.67159 -1.24049,-0.81781 -4.80566,-4.85321 -4.80566,-5.4395 0,-0.23319 -0.31436,-0.97713 -0.69857,-1.6532 -0.3842,-0.67607 -1.22982,-2.34047 -1.87914,-3.69866 -0.64931,-1.3582 -1.94383,-3.5807 -2.87671,-4.93889 -1.76059,-2.5633 -4.49901,-7.87723 -5.63567,-10.93611 -0.77236,-2.07853 -2.85417,-6.33006 -3.71393,-7.58473 -1.03693,-1.5132 -3.07004,-5.62329 -5.32244,-10.75972 -1.19118,-2.71639 -2.75897,-6.05014 -3.48398,-7.40833 -2.58695,-4.84621 -5.06944,-9.17972 -6.96128,-12.15179 -1.05647,-1.65971 -3.43521,-6.03391 -5.28608,-9.72043 -1.85088,-3.68653 -4.2238,-8.01247 -5.27316,-9.6132 -1.04937,-1.60073 -2.78601,-4.24523 -3.85922,-5.87667 -2.1588,-3.28173 -6.0499,-7.17889 -8.36532,-8.37834 -0.94138,-0.48767 -2.29101,-0.81495 -3.61812,-0.87739 -1.16417,-0.0548 -3.38667,-0.15957 -4.93889,-0.23289 -3.63103,-0.17149 -5.36573,-0.48515 -8.41044,-1.52072 -1.36007,-0.46259 -2.88162,-0.84353 -3.38121,-0.84654 -0.49959,-0.003 -2.0196,-0.63649 -3.37779,-1.40773 -4.89906,-2.78189 -10.92935,-5.66902 -11.63092,-5.56855 l -0.71631,0.10258 -0.24338,2.82222 c -0.48068,5.57376 -0.95669,9.58113 -1.52952,12.87639 -0.35451,2.03942 -0.62603,5.90629 -0.69357,9.87778 -0.061,3.58951 -0.23791,7.55826 -0.39304,8.81945 -0.15514,1.26118 -0.25073,4.3271 -0.21244,6.81317 l 0.0696,4.52011 0.8838,1.5081 c 0.4861,0.82946 0.88381,1.914 0.88381,2.41009 0,1.68683 1.4049,5.45772 3.73067,10.01351 1.27607,2.49961 2.61872,5.33849 2.98366,6.30863 0.92473,2.45822 4.39527,15.23769 5.29705,19.50512 0.1759,0.83241 0.79282,2.97553 1.37094,4.7625 0.96493,2.98265 1.4425,4.32417 4.00382,11.247 0.47892,1.29444 1.17977,2.80256 1.55745,3.35139 1.16901,1.69879 1.87045,3.51799 1.9286,5.00186 l 0.0557,1.42253 -0.85077,0.89662 c -0.46792,0.49314 -0.93014,0.87396 -1.02716,0.84626 -0.097,-0.0277 -0.71545,-0.11612 -1.3743,-0.19648 z m 40.18858,-126.05172 c 0.21248,-0.39702 0.77458,-3.69108 1.2491,-7.32014 0.47452,-3.62905 1.10213,-8.02703 1.39468,-9.77328 0.87371,-5.2153 1.22884,-8.0036 1.05516,-8.28463 -0.0901,-0.14581 -1.55652,-0.53639 -3.25867,-0.86795 -1.70215,-0.33156 -3.75464,-0.76589 -4.56107,-0.96519 -0.80644,-0.1993 -2.1083,-0.25389 -2.89301,-0.12131 l -1.42676,0.24105 -0.20021,1.47124 c -0.11011,0.80918 -0.36253,2.89999 -0.56092,4.64624 -0.77021,6.77946 -1.37552,11.38419 -1.79181,13.63086 l -0.43395,2.34198 0.43143,1.92782 0.43142,1.92782 1.37038,0.41058 c 0.75371,0.22582 2.29535,0.4966 3.42586,0.60174 1.13052,0.10514 2.69048,0.32228 3.46659,0.48253 0.77612,0.16025 1.52459,0.30962 1.66329,0.33193 0.13869,0.0223 0.42602,-0.28427 0.63849,-0.68129 z m -4.4976,-3.2978 c -1.59511,-0.54699 -2.47791,-1.55922 -2.85955,-3.27879 l -0.32794,-1.47762 0.77412,-0.72724 0.77411,-0.72725 h 1.7928 1.79281 l 1.09487,1.247 c 1.38892,1.58189 1.42894,2.8985 0.12474,4.10334 -1.28158,1.18395 -1.80668,1.32668 -3.16596,0.86056 z m -44.27589,-34.96498 c 2.91106,-0.68634 5.18509,-1.87079 7.85065,-4.0891 4.6908,-3.90372 5.85911,-5.29059 8.04741,-9.55284 1.15482,-2.24929 3.0897,-5.86614 4.29974,-8.03744 l 2.20006,-3.94781 0.33009,-2.70728 c 0.18155,-1.489 0.47967,-3.18353 0.66249,-3.76561 0.18282,-0.58209 0.52002,-2.35597 0.74933,-3.94198 l 0.41693,-2.88364 -0.44265,-2.58441 c -0.24347,-1.42143 -0.57044,-4.02483 -0.72662,-5.78534 -0.30923,-3.48574 -0.51296,-4.03223 -2.49739,-6.69908 -0.73099,-0.98236 -1.83972,-2.79771 -2.46385,-4.0341 -1.1291,-2.23674 -3.05965,-4.47519 -4.54541,-5.27034 -0.42849,-0.22932 -1.252,-1.18555 -1.83003,-2.12497 l -1.05096,-1.70803 -1.49043,-0.60008 c -3.2928,-1.32578 -9.65903,-0.94401 -13.13209,0.78749 -5.75706,2.8702 -10.28201,6.57697 -14.07699,11.53166 -2.22047,2.89901 -3.33692,5.43019 -4.6033,10.43643 -0.46627,1.84326 -1.26053,4.6154 -1.76502,6.16031 -1.78603,5.46944 -1.99925,6.76476 -2.00954,12.20816 l -0.01,5.22203 0.59418,2.05128 c 0.32679,1.1282 0.72285,2.21002 0.88012,2.40405 0.15727,0.19403 0.86497,2.01965 1.57267,4.05695 0.7077,2.03729 1.67192,4.36172 2.14271,5.1654 1.11875,1.90978 4.92684,5.38029 7.09482,6.46586 3.29161,1.64821 9.65316,2.22082 13.80295,1.24243 z m 8.5481,-15.70728 c -1.45521,-0.57441 -3.0824,-1.04496 -3.61597,-1.04567 -1.08334,-10e-4 -1.95418,-0.74429 -3.1926,-2.72333 -2.03611,-3.25376 -1.28166,-4.25569 3.0361,-4.03203 0.58018,0.0301 1.3834,0.46537 1.94027,1.05155 0.52264,0.55015 1.5522,1.36095 2.28791,1.80177 l 1.33765,0.8015 1.13179,-0.23952 c 0.62249,-0.13173 1.8715,-0.32188 2.77559,-0.42255 l 1.6438,-0.18304 0.76802,0.76803 0.76803,0.76802 -0.23532,0.93759 c -0.12943,0.51568 -0.41038,1.14853 -0.62434,1.40633 -0.57333,0.69083 -2.72736,1.70235 -4.14037,1.9443 l -1.23473,0.21142 z m 0.54021,-20.58302 c -0.46136,-0.46136 -1.03476,-1.4928 -1.27424,-2.29209 l -0.4354,-1.45326 0.63939,-0.70652 c 0.35167,-0.38859 0.97198,-0.70564 1.37847,-0.70456 1.31498,0.004 3.4132,0.73188 4.10704,1.42573 l 0.67632,0.67632 -0.2958,0.80008 c -0.16269,0.44004 -0.23178,0.98114 -0.15353,1.20244 0.22154,0.62656 -1.63494,1.89069 -2.77662,1.89069 -0.61081,0 -1.36664,-0.33984 -1.86563,-0.83883 z"
       style="fill:#ddaabb;fill-opacity:1"
       id="path1-3" /></g></svg>
