<?xml version="1.0" encoding="UTF-8" standalone="no"?>
<!-- Created with Inkscape (http://www.inkscape.org/) -->

<svg
   width="135.15877mm"
   height="161.01024mm"
   viewBox="0 0 135.15875 161.01023"
   version="1.1"
   id="svg1"
   xml:space="preserve"
   xmlns="http://www.w3.org/2000/svg"
   xmlns:svg="http://www.w3.org/2000/svg"><defs
     id="defs1" /><g
     id="layer1"
     transform="translate(6.4624033,-318.38745)"><path
       style="fill:#ddaabb;fill-opacity:1"
       d="m 59.833122,478.75123 -0.611535,-0.65095 0.149662,-1.11581 c 0.08231,-0.6137 0.573156,-1.95788 1.090761,-2.98707 0.517605,-1.0292 1.289948,-2.76424 1.716319,-3.85564 0.426371,-1.09141 1.323425,-3.11547 1.993454,-4.49792 0.670028,-1.38245 1.744332,-3.34698 2.387341,-4.36562 0.643008,-1.01865 1.582302,-2.58061 2.087319,-3.47102 0.505017,-0.89041 1.540987,-2.49171 2.302155,-3.55845 0.761168,-1.06674 2.122618,-3.13619 3.025446,-4.59878 0.902828,-1.46259 2.297342,-3.90941 3.098921,-5.43738 0.801579,-1.52797 1.830347,-3.44277 2.286152,-4.25511 0.455806,-0.81235 1.103076,-1.60199 1.43838,-1.75477 l 0.609642,-0.27777 0.349838,-2.36111 c 0.19241,-1.29861 0.306894,-2.58131 0.254408,-2.85045 -0.05249,-0.26913 -0.274022,-0.51462 -0.492304,-0.54552 -0.218281,-0.0309 -0.992187,0.10147 -1.719791,0.29416 l -1.322917,0.35036 -9.657292,-0.17042 c -5.31151,-0.0937 -12.812447,-0.17629 -16.66875,-0.18347 -3.856302,-0.007 -9.333177,0.14724 -12.170833,0.34315 -2.837656,0.19591 -9.147969,0.44965 -14.022917,0.56386 -5.082712,0.11908 -9.484274,0.34334 -10.31875,0.52575 -0.800364,0.17496 -1.959018,0.24969 -2.574786,0.16608 -0.615769,-0.0836 -2.241607,0.0164 -3.6129736,0.22228 -1.371367,0.20586 -2.9511503,0.30086 -3.5106297,0.21111 -0.5594794,-0.0898 -1.4934852,-0.15604 -2.0755685,-0.1473 -0.5820834,0.009 -2.1894271,0.0358 -3.57187504,0.0601 -1.38244796,0.0243 -2.94246826,0.17132 -3.46671196,0.32663 -0.6947522,0.20583 -1.107213,0.19994 -1.5213541,-0.0217 -0.3125012,-0.16724 -0.5681839,-0.48963 -0.5681839,-0.71642 0,-0.22678 0.238125,-0.4746 0.5291666,-0.55071 0.2910417,-0.0761 0.5291667,-0.26395 0.5291667,-0.41742 0,-0.15347 -0.1975605,-0.49734 -0.4390234,-0.76415 l -0.4390234,-0.48512 0.3177842,-1.78467 c 0.1747813,-0.98158 0.3244662,-3.27296 0.3326333,-5.09197 0.00817,-1.81901 -0.1081459,-4.0812 -0.2584732,-5.02708 -0.1503273,-0.94589 -0.2580427,-3.53478 -0.2393674,-5.75309 l 0.033955,-4.03329 0.47833,-0.15181 c 0.2630815,-0.0835 0.5844961,-0.35211 0.7142547,-0.59692 0.1297586,-0.24481 0.2527124,-1.75479 0.2732306,-3.35552 0.022919,-1.78801 -0.1761951,-4.33894 -0.516304,-6.61458 -0.3052664,-2.04252 -0.6619289,-6.31533 -0.7950759,-9.525 -0.1328064,-3.20146 -0.3622748,-6.35662 -0.5099299,-7.01146 -0.1476551,-0.65484 -0.3907362,-3.27422 -0.5401803,-5.82083 -0.1494441,-2.54662 -0.3833588,-8.32115 -0.5198105,-12.8323 -0.1364517,-4.51114 -0.1892398,-9.33317 -0.117307,-10.71562 0.071933,-1.38245 0.2961172,-3.7637 0.4981874,-5.29167 0.2020703,-1.52797 0.5035763,-4.14734 0.6700135,-5.82083 0.1664372,-1.67349 0.4636823,-3.69755 0.6605448,-4.49792 0.1968625,-0.80036 0.4405589,-2.1471 0.5415477,-2.99275 l 0.1836159,-1.53755 -0.561676,-0.52328 c -0.3089218,-0.2878 -0.561676,-0.80955 -0.561676,-1.15943 0,-0.36081 0.2576667,-0.81511 0.5953125,-1.04963 0.4199979,-0.29172 0.6741342,-0.85312 0.8629661,-1.90633 0.1538216,-0.85795 0.4519043,-1.60908 0.7008836,-1.76613 0.3187291,-0.20105 0.6151131,-0.1541 1.121409,0.17764 l 0.6881788,0.45091 v 1.27435 1.27435 l 0.7236844,0.32973 c 0.4585907,0.20895 2.5181373,0.37278 5.6223958,0.44724 2.6942913,0.0646 5.1533722,0.17243 5.4646242,0.23956 0.311252,0.0671 1.799533,-0.0518 3.307291,-0.2642 1.507759,-0.21245 4.110598,-0.62078 5.784088,-0.9074 1.673489,-0.28663 4.828646,-0.71018 7.011458,-0.94123 2.182813,-0.23106 4.92125,-0.59429 6.085417,-0.8072 1.164166,-0.2129 4.081198,-0.68817 6.482291,-1.05616 2.401094,-0.36799 5.377657,-0.85834 6.614584,-1.08967 1.236927,-0.23133 3.558646,-0.70185 5.159375,-1.04559 1.600729,-0.34375 4.220104,-0.80248 5.820833,-1.01942 1.600729,-0.21694 4.934479,-0.58511 7.408333,-0.81816 2.473855,-0.23305 5.331355,-0.52738 6.35,-0.65407 1.018646,-0.12669 3.224965,-0.41274 4.90293,-0.63566 1.818303,-0.24157 5.39918,-0.42235 8.863542,-0.44747 3.232848,-0.0234 6.986995,-0.20431 8.458528,-0.40751 1.455209,-0.20096 3.836459,-0.47986 5.291667,-0.61979 1.455208,-0.13992 3.598337,-0.25905 4.762497,-0.26473 1.16417,-0.006 3.54542,-0.25 5.29167,-0.54295 1.74625,-0.29295 3.53219,-0.63986 3.96875,-0.77092 0.43656,-0.13106 1.32953,-0.31015 1.98437,-0.39797 0.66019,-0.0885 2.19258,0.0176 3.43959,0.23829 1.23693,0.21888 3.49911,0.40212 5.02708,0.40719 l 2.77813,0.009 1.05833,0.59329 c 0.65917,0.36952 1.24833,0.98158 1.56208,1.62278 l 0.50374,1.02949 -0.44899,1.7463 c -0.24695,0.96047 -0.55796,3.6844 -0.69114,6.05318 -0.13318,2.36878 -0.28931,4.39285 -0.34695,4.49792 -0.0577,0.10507 0.0331,1.14354 0.20158,2.30771 0.17213,1.18914 0.21827,2.58043 0.10529,3.175 -0.11061,0.58208 -0.20629,1.6776 -0.21263,2.43449 -0.006,0.75688 -0.189,2.05753 -0.40591,2.89032 -0.21692,0.8328 -0.45548,2.47571 -0.53013,3.65093 -0.0747,1.17522 -0.26466,2.61301 -0.42223,3.19509 -0.15758,0.58209 -0.50161,2.36803 -0.76452,3.96875 -0.26292,1.60073 -0.59408,4.87495 -0.73591,7.27605 -0.14184,2.40109 -0.20812,8.35421 -0.14728,13.22916 0.0608,4.87495 0.14665,11.78058 0.19068,15.34584 0.044,3.56526 0.21164,7.19666 0.37245,8.06979 0.1608,0.87312 0.43052,3.07578 0.59938,4.89479 0.16886,1.81901 0.35737,5.9862 0.41892,9.26042 0.0615,3.27421 0.21896,6.36984 0.34981,6.87916 0.13086,0.50932 0.31288,1.78151 0.40449,2.82709 0.10522,1.20082 0.0589,2.10228 -0.12582,2.44739 -0.16082,0.3005 -0.46006,0.54635 -0.66497,0.54635 -0.20491,0 -0.52814,0.21435 -0.71829,0.47633 -0.19015,0.26199 -0.70292,0.61031 -1.13948,0.77407 -0.43657,0.16375 -1.62719,0.36428 -2.64584,0.44561 -1.01864,0.0813 -3.69755,0.0283 -5.95312,-0.11775 -2.25557,-0.14609 -4.67933,-0.33584 -5.38612,-0.42166 -0.82438,-0.10011 -1.96261,0.009 -3.175,0.30486 -1.03946,0.2535 -2.54477,0.54843 -3.34513,0.65539 -0.80037,0.10697 -3.06255,0.46105 -5.027085,0.78684 -1.964531,0.3258 -3.965086,0.64576 -4.445677,0.71102 -0.48059,0.0653 -0.940357,0.2921 -1.021703,0.50408 -0.08135,0.21199 0.388542,1.18768 1.044195,2.16822 0.655654,0.98053 1.383311,2.16383 1.617016,2.62954 0.233706,0.46572 0.424919,1.08106 0.424919,1.36743 0,0.28636 -0.07227,0.70899 -0.160599,0.93918 -0.106776,0.27825 -0.491758,0.41851 -1.148714,0.41851 -0.677922,0 -1.16865,-0.18688 -1.563212,-0.59531 -0.316304,-0.32742 -0.997835,-1.09466 -1.514513,-1.70497 -0.516678,-0.61031 -1.169712,-1.73972 -1.451188,-2.5098 -0.281476,-0.77009 -0.513597,-1.58043 -0.515826,-1.80077 -0.0022,-0.22033 -0.101302,-0.55389 -0.220164,-0.74123 l -0.216114,-0.34062 -1.168897,0.66817 c -0.642894,0.36748 -1.539315,0.66959 -1.992046,0.67134 l -0.823149,0.003 -0.185499,1.65365 c -0.102024,0.9095 -0.278009,2.54661 -0.391078,3.63802 -0.113068,1.0914 -0.397788,2.4138 -0.632711,2.93865 l -0.427131,0.95428 0.926228,3.80822 c 0.509425,2.09452 1.209659,4.76072 1.556074,5.92489 0.346415,1.16417 1.118574,3.84307 1.715908,5.95312 0.597334,2.11006 1.331183,4.61037 1.630775,5.55625 0.299593,0.94589 0.709724,2.07698 0.911403,2.51355 0.201679,0.43656 0.722962,1.92484 1.158406,3.30729 0.435445,1.38245 0.99322,3.09476 1.239501,3.80513 0.316195,0.91204 0.369712,1.41743 0.182113,1.71979 -0.146118,0.23551 -0.579904,0.58247 -0.963969,0.77102 l -0.698298,0.34282 -1.063234,-0.31855 c -0.773968,-0.23189 -1.074197,-0.46912 -1.103533,-0.87199 -0.02217,-0.30439 -0.06199,-0.67249 -0.0885,-0.81801 -0.02651,-0.14552 -0.138493,-0.8599 -0.248847,-1.5875 -0.110353,-0.72761 -0.536207,-2.46925 -0.946341,-3.87033 -0.410134,-1.40107 -0.925257,-2.89463 -1.144718,-3.31902 -0.21946,-0.42439 -0.593231,-1.54025 -0.830602,-2.47968 -0.23737,-0.93943 -0.851471,-3.25587 -1.364668,-5.14764 -0.513197,-1.89177 -1.173933,-4.21349 -1.468304,-5.15938 -0.29437,-0.94588 -0.820946,-2.91041 -1.170169,-4.36562 -0.349222,-1.45521 -0.696771,-2.91372 -0.772331,-3.24115 -0.07556,-0.32742 -0.241247,-0.59531 -0.368195,-0.59531 -0.126948,0 -0.430534,0.49915 -0.674637,1.10922 -0.244102,0.61008 -0.687073,1.45084 -0.984379,1.86837 -0.297306,0.41752 -0.818824,1.28249 -1.158929,1.92214 -0.340105,0.63965 -1.735813,2.92427 -3.101573,5.07695 -1.36576,2.15267 -2.919636,4.66447 -3.453059,5.58177 -0.533423,0.9173 -0.969861,1.74136 -0.969861,1.83125 0,0.0899 -0.172522,0.35406 -0.383382,0.58706 -0.210861,0.233 -0.88703,1.37347 -1.5026,2.53437 -0.615569,1.16091 -1.505231,2.88465 -1.977028,3.83054 -0.471796,0.94588 -1.348248,2.91041 -1.94767,4.36562 -0.599422,1.45521 -1.330243,3.14928 -1.624046,3.7646 -0.293803,0.61532 -0.605062,1.56782 -0.691686,2.11667 -0.08662,0.54884 -0.287915,1.08537 -0.447314,1.19229 -0.159398,0.10691 -0.536952,0.1962 -0.839007,0.19843 -0.302056,0.002 -0.824382,-0.28887 -1.160726,-0.64689 z M 4.9222065,432.29831 c 0.7276042,0.0562 1.8586979,0.10089 2.5135417,0.0994 0.6548437,-0.001 2.8574998,-0.13785 4.8947918,-0.30299 2.037291,-0.16515 4.213008,-0.42445 4.834924,-0.57623 0.621917,-0.15178 3.59848,-0.27171 6.614584,-0.26652 3.016104,0.005 5.900544,0.0212 6.409867,0.0355 0.509323,0.0144 3.604948,-0.17071 6.879166,-0.41124 3.274219,-0.24053 7.024688,-0.53764 8.334375,-0.66025 1.309688,-0.1226 4.643438,-0.17419 7.408334,-0.11465 2.764896,0.0596 9.038325,0.18071 13.940954,0.26924 6.488893,0.11718 9.116115,0.0774 9.657292,-0.14605 0.408881,-0.16886 1.814983,-0.35143 3.12467,-0.40571 1.309688,-0.0543 2.52819,-0.11212 2.707783,-0.12851 0.225629,-0.0206 0.328321,-0.62257 0.332323,-1.94804 0.0032,-1.05503 0.0546,-2.58941 0.114263,-3.40974 0.05966,-0.82034 0.311055,-1.88327 0.558655,-2.36208 l 0.450183,-0.87055 -0.478527,-0.34991 c -0.26319,-0.19245 -0.619368,-0.34991 -0.791507,-0.34991 -0.17214,0 -0.856697,-0.30389 -1.521239,-0.67531 -0.664542,-0.37142 -2.169849,-1.69116 -3.345125,-2.93276 -1.175277,-1.2416 -2.759916,-2.74319 -3.521421,-3.33687 -0.761505,-0.59368 -2.337054,-1.86507 -3.501221,-2.82533 -1.164167,-0.96025 -3.128698,-2.42226 -4.365625,-3.24891 -1.236927,-0.82665 -2.977886,-2.25386 -3.868797,-3.17159 -0.890912,-0.91773 -1.749091,-2.05891 -1.907065,-2.53595 -0.157974,-0.47705 -0.21998,-1.04259 -0.137791,-1.25677 0.09928,-0.25873 0.528681,-0.38942 1.27944,-0.38942 0.621503,0 1.535604,0.16946 2.031334,0.37659 0.622638,0.26016 1.080938,0.73624 1.482211,1.53971 0.34877,0.69834 1.296637,1.76261 2.372129,2.66343 0.985186,0.82518 2.648732,2.12661 3.69677,2.89207 1.048037,0.76545 2.713197,1.98705 3.700356,2.71465 0.987159,0.72761 2.749049,2.27618 3.915311,3.44126 1.166262,1.16509 2.814118,2.70532 3.661902,3.42273 l 1.541424,1.30438 0.240462,-0.38002 c 0.132253,-0.20901 0.24442,-1.03486 0.249258,-1.83522 0.0048,-0.80037 0.191437,-2.5863 0.414664,-3.96875 0.223226,-1.38245 0.563326,-3.58266 0.755776,-4.88935 l 0.34991,-2.37581 -0.390948,-0.81982 -0.390948,-0.81983 -1.494053,-0.48637 c -0.821729,-0.2675 -2.1129,-0.82894 -2.869269,-1.24763 -0.756368,-0.4187 -1.690459,-1.13591 -2.075756,-1.59381 -0.385298,-0.4579 -1.225534,-1.91153 -1.867192,-3.23028 l -1.166652,-2.39773 -0.663754,-3.91768 -0.663754,-3.91767 0.301423,-3.09316 c 0.170651,-1.75118 0.575866,-3.93477 0.933994,-5.03302 0.347914,-1.06693 0.822954,-2.31708 1.055644,-2.77812 0.232689,-0.46105 1.046617,-1.67441 1.808728,-2.69636 0.762111,-1.02196 2.131249,-2.6037 3.042529,-3.51498 l 1.656873,-1.65687 2.939186,-1.44597 c 1.616552,-0.79527 3.08412,-1.44596 3.261263,-1.44596 0.177144,0 0.4003,-0.12656 0.495905,-0.28125 0.0956,-0.15469 -0.02481,-0.50074 -0.267578,-0.769 -0.27679,-0.30585 -0.409796,-0.81766 -0.356648,-1.37239 l 0.08476,-0.88465 1.5875,-0.65696 1.5875,-0.65695 2.513541,-0.002 2.513542,-0.002 2.741702,1.13174 c 1.50794,0.62245 3.20689,1.36905 3.77546,1.65911 0.56856,0.29007 1.99495,1.50605 3.16974,2.7022 1.17479,1.19615 2.28972,2.47247 2.47763,2.83627 0.1879,0.3638 0.53849,1.55443 0.77908,2.64583 0.24059,1.09141 0.67892,2.99641 0.97405,4.23334 l 0.53662,2.24895 -0.27187,1.5875 c -0.14953,0.87313 -0.55926,2.95672 -0.91051,4.63021 l -0.63863,3.04271 -1.50777,2.91042 c -0.82927,1.60073 -1.86205,3.6093 -2.29506,4.46349 -0.43301,0.85419 -1.60755,2.53514 -2.6101,3.73544 -1.00254,1.2003 -2.29677,2.55776 -2.87606,3.01656 -0.57929,0.45881 -1.575435,1.06518 -2.213655,1.3475 -0.638221,0.28231 -2.170123,0.68938 -3.404226,0.90459 -1.234104,0.21521 -2.929452,0.41902 -3.767441,0.45293 -0.837988,0.0339 -1.716669,0.2028 -1.952624,0.37534 -0.260253,0.1903 -0.506839,0.92686 -0.626867,1.87246 -0.108822,0.85733 -0.339158,2.45174 -0.511858,3.54315 -0.172701,1.0914 -0.455494,3.2377 -0.62843,4.76955 l -0.314429,2.78518 1.492662,3.9617 c 0.820965,2.17893 1.786489,4.67606 2.14561,5.54919 l 0.652947,1.5875 1.304514,-0.0443 c 0.717484,-0.0244 1.602171,-0.0652 1.965973,-0.0907 0.363803,-0.0255 1.792553,-0.20646 3.175,-0.40211 1.382448,-0.19565 4.180424,-0.67496 6.217714,-1.06512 l 3.70417,-0.70939 3.0427,0.21726 c 1.67349,0.11949 4.76912,0.19636 6.87917,0.17082 2.11005,-0.0255 4.19365,-0.14871 4.63021,-0.27371 l 0.79375,-0.22727 -0.0431,-1.03673 c -0.0237,-0.5702 -0.17562,-4.07282 -0.33757,-7.7836 -0.16196,-3.71078 -0.38584,-8.71273 -0.49752,-11.11544 -0.11169,-2.40271 -0.29801,-4.52218 -0.41405,-4.70994 -0.11604,-0.18776 -0.32082,-3.163 -0.45507,-6.61164 -0.13425,-3.44865 -0.2981,-8.37697 -0.36411,-10.95183 -0.066,-2.57486 -0.19146,-4.96621 -0.27878,-5.31412 -0.0873,-0.34791 -0.022,-3.47996 0.14524,-6.96011 0.1672,-3.48015 0.29453,-7.57951 0.28295,-9.10969 -0.0116,-1.53018 0.10236,-3.19705 0.2532,-3.70416 0.15085,-0.50712 0.56727,-2.28556 0.9254,-3.9521 0.35812,-1.66655 0.65151,-3.57155 0.65197,-4.23334 4.7e-4,-0.66179 0.18947,-2.27482 0.42,-3.58451 0.23889,-1.35711 0.41095,-3.74675 0.40008,-5.55625 -0.0105,-1.74625 -0.0412,-3.88937 -0.0683,-4.7625 -0.0271,-0.87312 0.15634,-3.66656 0.40758,-6.20764 l 0.4568,-4.62014 -0.42566,-1.73694 c -0.23411,-0.95531 -0.51376,-1.87949 -0.62144,-2.05372 -0.10768,-0.17423 -1.82413,-0.61753 -3.81433,-0.98511 -1.9902,-0.36758 -4.0239,-0.66832 -4.51934,-0.66832 -0.49543,0 -2.31478,0.29825 -4.04299,0.66278 -2.16521,0.4567 -4.70527,0.74595 -8.16929,0.93028 -2.7649,0.14712 -6.455842,0.44771 -8.202092,0.66796 -1.74625,0.22026 -3.353594,0.46864 -3.571875,0.55196 -0.218281,0.0833 -3.790156,0.24639 -7.9375,0.36238 l -7.540625,0.21088 -5.07624,0.6816 c -2.791933,0.37487 -6.244745,0.75372 -7.672917,0.84188 -1.428172,0.0882 -3.846832,0.32606 -5.374801,0.52867 -1.527969,0.20261 -4.564063,0.7793 -6.746875,1.28153 -2.182813,0.50223 -6.230938,1.28016 -8.995834,1.72873 -2.764895,0.44856 -7.229739,1.16651 -9.921875,1.59543 -2.692135,0.42892 -6.025885,0.90869 -7.408333,1.06615 -1.382448,0.15747 -4.111218,0.57971 -6.063934,0.93833 l -3.550393,0.65203 -7.4298158,0.15376 c -4.0863985,0.0846 -7.78700287,0.17373 -8.22356537,0.19814 l -0.79375003,0.0444 -0.148073,2.11667 c -0.08144,1.16417 -0.3450433,3.48589 -0.5857846,5.15938 -0.2407413,1.67349 -0.6162688,4.65005 -0.8345055,6.61458 -0.2182367,1.96453 -0.4537659,4.7625 -0.5233982,6.21771 -0.069632,1.45521 -0.00948,6.63442 0.1336755,11.50937 0.1431538,4.87495 0.3617033,10.58995 0.4856656,12.7 0.1239622,2.11005 0.4143473,5.14615 0.6453002,6.74688 0.2309529,1.60073 0.4233848,4.3987 0.4276265,6.21771 0.00424,1.81901 0.1969074,4.91463 0.4281459,6.87916 0.23123854,1.96453 0.41318687,5.23941 0.40432962,7.27751 -0.009151,2.10571 -0.20374468,4.84734 -0.45070512,6.35 -0.2390306,1.4544 -0.4962215,3.53734 -0.5715354,4.62874 -0.075314,1.09141 0.014298,3.3812 0.199137,5.08843 l 0.3360714,3.10406 0.62233758,0.40777 c 0.34228565,0.22428 0.62233755,0.6247 0.62233755,0.88983 0,0.26514 -0.238125,0.69756 -0.52916667,0.96095 -0.29104166,0.26339 -0.52916666,0.71895 -0.52916666,1.01236 0,0.29341 0.19704695,0.75121 0.43788212,1.01733 0.24083517,0.26612 0.58999933,0.48385 0.77592035,0.48385 0.18592102,0 0.40829255,0.22136 0.49415895,0.4919 0.0858664,0.27054 0.0794492,0.69169 -0.0142604,0.9359 -0.0937096,0.2442 -0.58182224,0.61591 -1.08469467,0.82603 -0.63310465,0.26453 -0.88671325,0.52534 -0.82457495,0.848 0.050908,0.26434 0.43180014,0.54491 0.88025781,0.6484 0.43478553,0.10034 1.50489409,0.10623 2.37801909,0.0131 0.873125,-0.0931 2.1828125,-0.12337 2.9104167,-0.0672 z m 22.7541665,-9.97276 c -0.436562,-0.0545 -1.389062,-0.28851 -2.116667,-0.51996 -0.727604,-0.23145 -2.00413,-0.76143 -2.836725,-1.17774 -0.832595,-0.41631 -1.861025,-0.75692 -2.285399,-0.75692 -0.424374,0 -1.548041,0.36334 -2.497039,0.80743 l -1.725449,0.80744 -1.579477,0.008 c -1.108052,0.005 -2.122095,-0.20653 -3.397485,-0.70973 -0.999905,-0.39451 -2.0263682,-0.89877 -2.2810297,-1.12058 -0.2546614,-0.22181 -0.4630208,-0.61878 -0.4630208,-0.88215 0,-0.26336 0.2105513,-0.59153 0.4678917,-0.72925 0.2573404,-0.13773 0.8854499,-0.32875 1.3957988,-0.42449 l 0.927907,-0.17408 1.029356,0.81803 c 0.566145,0.44992 1.323176,0.89178 1.682291,0.98191 0.410863,0.10312 1.154804,-0.0571 2.006616,-0.43207 0.744525,-0.32778 2.068056,-0.77189 2.941181,-0.98692 0.873125,-0.21504 2.043822,-0.33096 2.601548,-0.25761 0.557726,0.0734 1.986476,0.62572 3.175,1.22749 1.442956,0.7306 2.644458,1.14124 3.61616,1.2359 l 1.455209,0.14176 1.719791,-0.9137 c 0.945886,-0.50254 2.175625,-0.9963 2.732754,-1.09725 l 1.012961,-0.18354 1.045707,0.54505 c 0.575139,0.29978 1.190869,0.54496 1.368288,0.54485 0.17742,-1.2e-4 1.038002,-0.33867 1.912403,-0.75233 0.874402,-0.41367 2.013663,-0.83164 2.531691,-0.92882 0.518028,-0.0972 1.331481,-0.0988 1.807672,-0.004 0.476192,0.0952 1.253959,0.57283 1.728371,1.06132 0.474412,0.48849 0.958114,0.88816 1.074893,0.88816 0.116779,0 0.869379,-0.31084 1.672444,-0.69075 l 1.460118,-0.69074 1.243587,0.11949 c 0.683973,0.0657 1.586221,0.36224 2.004995,0.65893 0.444016,0.31457 1.433218,0.61664 2.373045,0.72465 1.125992,0.1294 1.883415,0.0768 2.513542,-0.17473 0.496048,-0.19796 1.169795,-0.31824 1.497217,-0.26728 l 0.595312,0.0927 v 0.72923 c 0,0.41461 -0.256838,0.96982 -0.595312,1.28689 -0.327422,0.30671 -0.933144,0.68566 -1.346048,0.84211 l -0.750736,0.28446 -2.609965,-0.39025 c -1.43548,-0.21464 -3.037679,-0.56896 -3.560442,-0.78738 l -0.950478,-0.39714 -1.425288,0.69903 -1.425288,0.69902 -1.490078,-0.33346 c -0.95156,-0.21295 -1.826052,-0.62846 -2.419719,-1.1497 l -0.929642,-0.81624 -1.476197,0.724 c -0.811908,0.39819 -2.04121,0.79091 -2.73178,0.8727 -0.820506,0.0972 -1.690772,4.2e-4 -2.511486,-0.27923 l -1.255903,-0.42793 -1.614464,0.7827 c -1.012962,0.49109 -2.156634,0.81795 -3.069674,0.87731 -0.800364,0.052 -1.812395,0.05 -2.248958,-0.005 z M 9.1300774,408.92458 C 8.5838931,408.67724 8.1787663,408.21296 7.9145069,407.53153 7.69651,406.9694 7.3638351,405.9395 7.1752294,405.24287 l -0.3429196,-1.26659 0.5001567,-0.39416 c 0.3249487,-0.25608 0.8610838,-0.35235 1.5304759,-0.27482 0.5666756,0.0656 1.1154289,0.25704 1.2194516,0.42536 0.104023,0.16831 0.335244,0.95892 0.513825,1.7569 0.178582,0.79798 0.488095,1.51358 0.687809,1.59022 0.199714,0.0766 1.350317,-0.5124 2.556897,-1.30897 1.20658,-0.79656 2.564846,-1.63569 3.018369,-1.86471 0.453523,-0.22903 1.525086,-0.52775 2.38125,-0.66383 0.856164,-0.13607 2.092444,-0.15162 2.747287,-0.0346 0.654844,0.11707 1.615819,0.29491 2.1355,0.39518 l 0.944874,0.18232 2.321779,-1.25536 2.321779,-1.25536 h 1.377624 c 0.757693,0 2.008964,0.1618 2.780603,0.35957 l 1.402979,0.35957 1.096494,-0.6288 c 0.603071,-0.34583 1.630819,-0.89834 2.283883,-1.22778 0.86399,-0.43585 1.241213,-0.51437 1.385011,-0.28829 0.108692,0.17088 0.199445,0.527 0.201673,0.79137 0.0022,0.26437 -0.297993,0.87668 -0.667158,1.36068 -0.369165,0.484 -1.254441,1.1309 -1.967278,1.43755 -0.898447,0.3865 -1.849222,0.5571 -3.099103,0.55608 -0.991669,-8.1e-4 -2.256945,-0.12752 -2.811723,-0.28158 l -1.008689,-0.2801 -1.243519,0.79797 c -0.683935,0.43888 -1.718306,0.9968 -2.298602,1.23982 -0.588434,0.24643 -1.757216,0.44186 -2.642585,0.44186 -0.873125,0 -2.048525,-0.19309 -2.611999,-0.42908 -0.563475,-0.23599 -1.27785,-0.4263 -1.5875,-0.4229 -0.309651,0.003 -1.122535,0.33082 -1.80641,0.7276 -0.683875,0.39679 -2.163476,1.31244 -3.288002,2.03479 l -2.044593,1.31336 -1.60679,0.0797 c -0.97791,0.0485 -1.9274196,-0.0655 -2.4260016,-0.29129 z M 19.264465,388.49042 c -0.03012,-0.0268 -1.245384,-0.12351 -2.700592,-0.21495 -1.455208,-0.0914 -3.598333,-0.24431 -4.7625,-0.33971 -1.164167,-0.0954 -2.473854,-0.15902 -2.9104165,-0.14139 -0.4365625,0.0176 -1.3689968,0.0453 -2.0720763,0.0615 -0.7030794,0.0162 -1.44722,-0.11071 -1.6536458,-0.28203 -0.2064258,-0.17132 -0.3753196,-0.53045 -0.3753196,-0.79806 0,-0.33963 0.2996392,-0.56513 0.9921875,-0.74669 0.5457032,-0.14307 1.3144865,-0.33788 1.7084074,-0.4329 0.393921,-0.095 1.5250147,-0.0468 2.5135413,0.10709 0.988527,0.15393 3.029403,0.34448 4.535279,0.42344 1.505876,0.079 3.351344,0.21207 4.101041,0.29579 0.842478,0.0941 1.969405,-10e-4 2.950585,-0.24945 0.873125,-0.22091 2.361407,-0.69193 3.307292,-1.04671 0.945886,-0.35478 2.612761,-0.78669 3.704167,-0.95981 1.091406,-0.17312 2.936875,-0.54208 4.101041,-0.81992 1.164167,-0.27784 3.18823,-0.55667 4.497917,-0.61963 1.309688,-0.063 3.00203,0.009 3.760761,0.16079 0.956963,0.19094 1.686345,0.1906 2.38125,-0.001 0.550956,-0.152 2.073302,-0.58281 3.382989,-0.95736 1.309688,-0.37455 2.741711,-0.68249 3.182275,-0.68429 0.440563,-0.002 1.095407,-0.20238 1.455208,-0.4457 0.359801,-0.24333 1.221884,-0.96449 1.91574,-1.60258 0.693855,-0.63809 1.765418,-1.38889 2.38125,-1.66845 0.615831,-0.27955 1.387584,-0.51089 1.715006,-0.51408 l 0.595313,-0.006 v 0.72429 0.72429 l -1.857407,1.78521 c -1.021574,0.98186 -2.189941,1.95717 -2.59637,2.16734 -0.406429,0.21017 -2.155378,0.69981 -3.886552,1.08808 -1.731174,0.38827 -3.726485,0.93412 -4.434023,1.21301 -0.707539,0.27888 -1.84346,0.52709 -2.52427,0.55158 -0.68081,0.0245 -1.891565,-0.0986 -2.690566,-0.27341 -1.064726,-0.23302 -1.972945,-0.24557 -3.40048,-0.047 -1.071263,0.149 -2.030012,0.32175 -2.130553,0.38388 -0.100541,0.0621 -1.688678,0.35774 -3.529194,0.65689 -2.017682,0.32794 -4.166777,0.87157 -5.412552,1.36914 -1.345206,0.53729 -2.785627,0.88843 -4.128067,1.00633 -1.134049,0.0996 -2.086549,0.15917 -2.116666,0.13238 z m -8.91286,-16.2611 c -0.3608093,-0.15171 -0.879325,-0.47793 -1.1522567,-0.72493 -0.3626359,-0.32818 -0.972725,-0.44909 -2.2660351,-0.44909 -1.2594914,0 -1.9796436,-0.1375 -2.4975733,-0.47686 -0.4002777,-0.26227 -0.8405754,-0.77354 -0.9784393,-1.13615 -0.1378638,-0.36261 -0.3215952,-0.94191 -0.408292,-1.28734 l -0.1576304,-0.62804 0.5802531,-0.31055 c 0.3313846,-0.17735 0.9623321,-0.23886 1.4710944,-0.14342 l 0.8908412,0.16713 0.2821221,1.04772 c 0.1551671,0.57624 0.3888445,1.04772 0.519283,1.04772 0.1304385,0 0.5265169,-0.11001 0.8801742,-0.24447 0.3977661,-0.15123 1.075638,-0.14727 1.7773115,0.0104 0.623864,0.14018 1.4876383,0.55218 1.9194973,0.91556 l 0.785199,0.66071 0.69586,-0.45916 c 0.382722,-0.25253 1.172109,-0.72389 1.754192,-1.04745 0.582084,-0.32357 1.713178,-0.75635 2.513542,-0.96175 0.800365,-0.20539 1.931458,-0.31742 2.513542,-0.24894 0.582083,0.0685 1.459526,0.39679 1.949874,0.72958 0.556634,0.37778 1.053586,0.53305 1.322916,0.41333 0.237257,-0.10546 1.219222,-0.56053 2.182144,-1.01126 0.962922,-0.45073 2.395516,-0.96379 3.183541,-1.14015 l 1.432775,-0.32064 1.578958,0.43928 c 0.868427,0.2416 1.849592,0.50728 2.180366,0.59039 0.430047,0.10805 1.221623,-0.22796 2.778125,-1.17929 1.197194,-0.73172 2.677968,-1.4638 3.290608,-1.62686 0.61264,-0.16305 2.458109,-0.26338 4.101042,-0.22296 l 2.987151,0.0735 1.653646,-0.62757 c 0.909505,-0.34517 1.653645,-0.72793 1.653645,-0.85059 0,-0.12266 -0.238125,-0.35045 -0.529166,-0.50621 -0.291042,-0.15576 -0.529167,-0.50226 -0.529167,-0.76999 0,-0.33353 0.260306,-0.53885 0.826823,-0.65215 0.454753,-0.091 1.137573,-0.16536 1.517379,-0.16536 0.379806,0 1.88297,-0.53088 3.340365,-1.17973 1.556353,-0.6929 3.444122,-1.30986 4.574696,-1.49508 l 1.924888,-0.31536 1.558478,0.47187 c 0.857162,0.25953 1.836431,0.40742 2.176153,0.32864 0.339722,-0.0788 1.391583,-0.47258 2.337468,-0.87512 0.945886,-0.40254 2.404699,-0.78495 3.241807,-0.84978 0.938199,-0.0727 1.664381,2.6e-4 1.893163,0.19014 l 0.371149,0.30802 1.748818,-0.56498 c 0.963477,-0.31127 2.2345,-0.97076 2.830349,-1.46858 0.594842,-0.49698 1.367833,-0.97545 1.717758,-1.06328 0.385482,-0.0967 0.896158,0.0106 1.295759,0.27246 0.362742,0.23768 0.65953,0.55112 0.65953,0.69654 0,0.14541 -0.499839,0.80665 -1.110755,1.46942 -0.610915,0.66277 -1.465079,1.38826 -1.898142,1.6122 -0.433063,0.22395 -1.748926,0.64011 -2.92414,0.92482 l -2.136754,0.51764 -1.366328,-0.32047 c -0.75148,-0.17627 -1.584918,-0.2522 -1.852083,-0.16874 -0.267166,0.0835 -1.319193,0.46759 -2.337839,0.85363 l -1.852084,0.70189 -1.852083,-0.16806 c -1.018646,-0.0924 -2.520306,-0.23162 -3.337022,-0.30932 l -1.484939,-0.14127 -1.822793,0.91794 c -1.002536,0.50487 -2.437321,1.10044 -3.188411,1.32349 -0.751089,0.22305 -1.426528,0.34464 -1.500974,0.27019 -0.07445,-0.0744 -0.39115,-0.0542 -0.703785,0.0451 l -0.568428,0.18042 0.452713,0.50024 0.452712,0.50024 -0.367245,0.44462 c -0.201984,0.24454 -1.013861,0.73105 -1.80417,1.08113 -0.790309,0.35008 -2.060303,0.75174 -2.822208,0.89259 -0.893839,0.16523 -1.950915,0.16499 -2.979689,-6.9e-4 -0.989754,-0.1594 -1.926256,-0.16409 -2.469459,-0.0124 -0.481278,0.13442 -1.887083,0.85686 -3.12401,1.60543 l -2.248959,1.36103 -1.355347,0.12719 -1.355347,0.12719 -1.610569,-0.72278 c -1.111219,-0.49869 -1.825769,-0.66877 -2.304657,-0.54858 -0.381748,0.0958 -1.161473,0.46926 -1.732722,0.82987 -0.57125,0.36061 -1.637327,0.89164 -2.369062,1.18007 -0.731735,0.28842 -1.891566,0.52179 -2.577403,0.51859 -0.685837,-0.003 -1.765994,-0.24132 -2.400349,-0.52916 -0.634354,-0.28785 -1.382147,-0.52336 -1.661761,-0.52336 -0.279613,0 -1.367939,0.49571 -2.418502,1.10157 l -1.910114,1.10158 -1.5875,0.0864 c -0.873125,0.0475 -1.882708,-0.0378 -2.243518,-0.18946 z M 8.8300231,352.65246 c -0.6155967,-0.1215 -1.627628,-0.44629 -2.2489583,-0.72176 -0.6213304,-0.27547 -1.2887698,-0.69359 -1.4831988,-0.92914 -0.1944289,-0.23556 -0.2773563,-0.5515 -0.1842832,-0.7021 0.111951,-0.18114 0.500234,-0.13438 1.1472572,0.13814 0.5379182,0.22658 1.5116693,0.51296 2.1638913,0.63641 l 1.1858582,0.22445 1.9891415,-0.63539 c 1.094028,-0.34946 2.496773,-0.63691 3.117211,-0.63877 0.620439,-0.002 1.343171,0.13096 1.606072,0.29514 l 0.478001,0.29852 1.701221,-1.2688 c 0.935671,-0.69783 2.008767,-1.54978 2.384657,-1.8932 0.376585,-0.34406 1.029949,-0.63083 1.455208,-0.63872 0.424475,-0.008 1.3387,0.0705 2.031611,0.17424 l 1.259839,0.18854 1.580803,-0.70942 c 0.869441,-0.39018 2.225551,-0.84466 3.013576,-1.00995 l 1.432774,-0.30053 1.778013,0.87531 1.778013,0.87532 2.193133,-1.12752 c 1.206223,-0.62014 2.531205,-1.12814 2.944405,-1.12891 0.413199,-7.6e-4 1.644241,0.14016 2.735647,0.31315 1.091406,0.17299 2.478717,0.38293 3.082914,0.46652 l 1.098539,0.15199 1.415003,-0.66702 c 0.778251,-0.36686 1.911482,-0.79977 2.51829,-0.96202 l 1.103288,-0.295 1.388592,0.54733 1.388593,0.54734 0.760041,-0.31482 c 0.418023,-0.17315 1.216661,-0.6456 1.774752,-1.04988 0.558091,-0.40427 1.497207,-0.9812 2.086926,-1.28205 0.698953,-0.35658 1.101844,-0.75574 1.157326,-1.14661 l 0.08511,-0.59962 1.058333,-0.14222 c 0.691148,-0.0929 1.527192,0.0296 2.409718,0.35303 l 1.351384,0.49525 1.823616,-0.91391 c 1.002988,-0.50265 2.627117,-1.18354 3.609173,-1.51308 l 1.785558,-0.59918 1.827306,0.13074 c 1.256189,0.0899 2.127518,0.31629 2.787842,0.72439 l 0.960535,0.59364 2.353413,-0.18626 c 1.572899,-0.12449 2.665864,-0.0832 3.295515,0.12465 l 0.942101,0.31092 1.178382,-0.96559 c 0.64811,-0.53108 1.781579,-1.19479 2.51882,-1.47492 0.737241,-0.28013 1.751691,-0.50933 2.254333,-0.50933 0.646221,0 0.997699,0.15659 1.200022,0.53463 0.157371,0.29405 0.223397,0.63614 0.146725,0.7602 -0.07667,0.12406 -0.790751,0.54423 -1.586842,0.93372 -0.796091,0.38949 -2.01626,1.17822 -2.711486,1.75272 -0.695226,0.5745 -1.650896,1.11712 -2.123711,1.20582 -0.472815,0.0887 -1.368312,0.0863 -1.989992,-0.005 -0.621681,-0.0916 -2.380485,-0.20273 -3.908454,-0.24694 -1.614197,-0.0467 -3.110675,-0.23193 -3.571875,-0.44212 -0.436562,-0.19896 -0.999437,-0.53334 -1.250833,-0.74309 -0.313547,-0.26159 -0.804107,-0.3348 -1.562162,-0.23312 -0.607793,0.0815 -2.247574,0.72263 -3.643958,1.42469 l -2.53888,1.27648 h -2.38125 -2.38125 l -1.322917,0.77154 c -0.727604,0.42434 -1.799166,1.15274 -2.38125,1.61867 -0.582083,0.46592 -1.318396,0.98193 -1.636251,1.14669 -0.317855,0.16475 -0.913168,0.30108 -1.322917,0.30295 -0.409749,0.002 -1.578436,-0.1911 -2.597082,-0.4288 l -1.852083,-0.43218 -1.767255,0.83599 -1.767256,0.83598 -3.214364,-0.53948 c -1.7679,-0.29672 -3.4461,-0.53949 -3.729333,-0.53949 -0.283234,0 -1.268124,0.47566 -2.188646,1.05702 -0.920521,0.58137 -2.050918,1.13247 -2.511993,1.22469 -0.524348,0.10487 -1.274582,10e-4 -2.003165,-0.2772 -0.640666,-0.24467 -1.307867,-0.61718 -1.482669,-0.82781 -0.174801,-0.21062 -0.690195,-0.38285 -1.14532,-0.38274 -0.455124,1.2e-4 -1.583296,0.35776 -2.507048,0.79477 -0.923752,0.437 -2.114377,0.86252 -2.645834,0.94559 -0.531456,0.0831 -1.447944,0.0412 -2.036641,-0.093 -0.588696,-0.13423 -1.303071,-0.15635 -1.5875,-0.0491 -0.284428,0.1072 -1.349475,0.93222 -2.366771,1.83337 l -1.849629,1.63847 -1.19308,-0.1667 c -0.656193,-0.0917 -1.609798,-0.17368 -2.119121,-0.18221 -0.509323,-0.009 -1.283229,0.0373 -1.719792,0.10192 -0.436562,0.0646 -1.128922,0.25595 -1.538578,0.42522 -0.409656,0.16928 -1.064499,0.29474 -1.455208,0.27879 -0.390709,-0.0159 -1.2140502,-0.12839 -1.8296469,-0.24989 z m 79.4657729,76.4306 c 0.08735,-0.14133 -0.02522,-0.75383 -0.250141,-1.36111 -0.224925,-0.60728 -0.539852,-1.61017 -0.699837,-2.22863 -0.164512,-0.63596 -0.448767,-1.12448 -0.654303,-1.12448 -0.217241,0 -0.434682,0.42179 -0.540585,1.04863 -0.09744,0.57674 -0.09944,1.17438 -0.0044,1.32808 0.09499,0.15371 0.03434,0.69877 -0.134796,1.21125 -0.169134,0.51248 -0.250589,1.08013 -0.181013,1.26144 0.08227,0.2144 0.507587,0.29332 1.216404,0.22573 0.599445,-0.0572 1.161367,-0.21958 1.248715,-0.36091 z m 5.454919,-27.64355 c 1.639506,-0.2889 2.651485,-0.63336 3.487383,-1.18704 0.647694,-0.42901 1.663892,-1.26629 2.258218,-1.86062 0.594324,-0.59432 1.621244,-1.80896 2.282054,-2.6992 0.6608,-0.89023 1.37341,-1.82832 1.58358,-2.08464 0.21017,-0.25633 0.38302,-0.55399 0.3841,-0.66146 0.001,-0.10748 0.54469,-1.14558 1.20802,-2.3069 0.66333,-1.16131 1.62349,-3.30444 2.13369,-4.7625 0.5102,-1.45806 1.0956,-3.66305 1.3009,-4.89997 0.2053,-1.23693 0.37534,-2.85243 0.37789,-3.59 0.003,-0.73758 -0.16266,-1.9282 -0.36711,-2.64584 -0.20444,-0.71763 -0.45328,-1.9001 -0.55296,-2.62771 -0.0997,-0.7276 -0.42609,-1.89489 -0.72535,-2.59398 -0.3796,-0.88679 -1.18505,-1.86085 -2.66423,-3.22193 l -2.12013,-1.95087 -2.447336,-1.07755 -2.447341,-1.07754 h -1.47386 c -0.810623,0 -1.943331,0.18784 -2.517129,0.41743 -0.573798,0.22959 -1.109981,0.59129 -1.191519,0.80377 -0.08154,0.21248 -0.0014,0.42732 0.17802,0.47741 0.179447,0.0501 0.862049,0.24488 1.516893,0.43286 0.654844,0.18799 1.29134,0.42776 1.414436,0.53283 0.123096,0.10506 -0.293622,0.27539 -0.926041,0.3785 -0.632419,0.10311 -2.042822,0.5534 -3.134228,1.00066 -1.091406,0.44726 -2.758281,1.22847 -3.704167,1.73602 -0.945885,0.50756 -2.22968,1.33095 -2.852876,1.82977 -0.623196,0.49882 -1.772282,1.69947 -2.553523,2.66812 -0.781241,0.96864 -1.852098,2.41601 -2.37968,3.21638 -0.527583,0.80036 -1.267452,2.40771 -1.644154,3.57187 l -0.684911,2.11667 -0.138663,3.27072 c -0.08725,2.05813 -0.01641,3.97091 0.191096,5.15937 0.181368,1.03876 0.491351,2.48397 0.688852,3.21158 0.197501,0.7276 0.821793,2.27721 1.387316,3.44357 0.590473,1.21782 1.426862,2.47066 1.964578,2.94278 0.514995,0.45218 1.608109,1.15079 2.429142,1.55249 0.821033,0.40169 1.875999,0.82633 2.344368,0.94365 0.468369,0.11731 1.80408,0.15367 2.968247,0.0808 1.164166,-0.0729 3.156058,-0.31564 4.426425,-0.5395 z m -6.519193,-3.91356 c -0.749323,-0.20123 -1.50438,-0.61352 -1.784323,-0.97433 -0.266918,-0.34402 -0.59346,-1.0422 -0.72565,-1.55153 -0.13219,-0.50932 -0.316174,-2.03247 -0.408852,-3.38476 l -0.168506,-2.45873 1.134841,0.054 c 0.624163,0.0297 1.343201,0.15805 1.597862,0.28522 l 0.463021,0.2312 0.0015,1.77663 c 8.12e-4,0.97715 0.121913,2.21023 0.269113,2.74018 0.1472,0.52995 0.43968,1.10633 0.649955,1.28085 l 0.382319,0.31729 1.39909,-0.30398 c 0.769499,-0.16719 2.342321,-0.41327 3.495159,-0.54685 1.152839,-0.13358 2.373229,-0.17331 2.711979,-0.0883 0.35448,0.089 0.61591,0.35327 0.61591,0.62267 0,0.25745 -0.166689,0.60643 -0.37042,0.77551 -0.203731,0.16909 -1.066935,0.42068 -1.91823,0.5591 -0.851294,0.13842 -2.381246,0.42931 -3.399892,0.64642 -1.018646,0.21711 -2.030677,0.38878 -2.248958,0.38149 -0.218281,-0.007 -0.981433,-0.17025 -1.695893,-0.36211 z M 84.323656,384.0258 c -0.567536,-0.20225 -1.131259,-0.52445 -1.252719,-0.71599 -0.12146,-0.19154 -0.222659,-0.42298 -0.224887,-0.5143 -0.0022,-0.0913 0.154937,-0.29799 0.349257,-0.45926 0.19432,-0.16127 0.826278,-0.25312 1.404352,-0.20411 0.578073,0.049 1.371584,0.29914 1.763358,0.55584 0.391773,0.25669 0.712314,0.56235 0.712314,0.67924 0,0.11688 -0.07227,0.40084 -0.160599,0.63102 -0.09229,0.24051 -0.458028,0.41358 -0.859895,0.40691 -0.384614,-0.006 -1.163645,-0.1771 -1.731181,-0.37935 z m 12.122101,-0.26873 -0.659688,-0.65969 0.300565,-0.56161 0.300565,-0.56161 1.348137,0.17884 c 0.741475,0.0984 1.444274,0.23825 1.561774,0.31087 0.117501,0.0726 0.209852,0.33337 0.205224,0.57944 -0.0046,0.24607 -0.166582,0.65577 -0.359898,0.91043 -0.205336,0.27049 -0.701901,0.46302 -1.194237,0.46302 -0.545557,0 -1.075393,-0.23264 -1.502442,-0.65969 z"
       id="path2" /></g></svg>
