<?xml version="1.0" encoding="UTF-8" standalone="no"?>
<!-- Created with Inkscape (http://www.inkscape.org/) -->

<svg
   width="98.147865mm"
   height="53.021839mm"
   viewBox="0 0 98.147866 53.021839"
   version="1.1"
   id="svg1"
   xml:space="preserve"
   xmlns="http://www.w3.org/2000/svg"
   xmlns:svg="http://www.w3.org/2000/svg"><defs
     id="defs1" /><g
     id="layer1"
     transform="translate(-44.118105,-95.62181)"><path
       d="m 69.246487,147.31851 c -2.90368,-2.48236 -4.05508,-3.37419 -6.75656,-5.23331 -2.0826,-1.43322 -3.41386,-2.66045 -6.2177,-5.73186 -1.96225,-2.1495 -5.50249,-5.83335 -7.8672,-8.18633 -3.92993,-3.91043 -4.87609,-5.13516 -3.96875,-5.13725 0.1819,-4.2e-4 0.56885,-0.36517 0.85989,-0.81056 0.29104,-0.44539 1.49858,-1.63764 2.68341,-2.64944 1.18483,-1.0118 3.16429,-2.939 4.39881,-4.28267 1.23452,-1.34366 3.94619,-3.99084 6.02593,-5.88261 2.07974,-1.89177 5.63212,-5.19693 7.89417,-7.34481 2.26206,-2.147873 4.44948,-4.052873 4.86094,-4.233333 0.4325,-0.18969 0.81492,-0.60715 0.9065,-0.98957 0.38955,-1.62663 1.40836,-1.61745 1.40836,0.0127 0,0.55793 0.10762,1.08093 0.23916,1.16222 0.13154,0.0813 1.0054,1.30872 1.94192,2.727603 0.93652,1.41888 2.41902,3.47275 3.29445,4.56416 0.9102,1.13475 2.35248,3.48472 3.36857,5.48858 2.1011,4.14362 3.15599,5.60647 5.36053,7.43365 0.90031,0.7462 1.9653,1.80513 2.36665,2.35318 0.40137,0.54806 0.8201,1.10406 0.93052,1.23556 0.21205,0.25252 2.33275,-1.08568 4.61412,-2.91159 0.74559,-0.59674 1.99789,-1.51376 2.78288,-2.03781 0.78499,-0.52406 3.332253,-2.52751 5.660593,-4.45212 3.90384,-3.22695 6.198,-5.39297 11.1125,-10.49189 3.08695,-3.202793 2.97258,-3.147343 3.80158,-1.84308 2.04268,3.21373 3.27246,4.54652 7.43841,8.06146 0.65221,0.55028 1.72377,1.48576 2.38125,2.07884 0.65748,0.59307 2.02886,1.73783 3.04751,2.5439 3.49134,2.76274 10.45104,10.3795 10.45104,11.43772 0,0.0845 -0.20836,0.15562 -0.46302,0.15809 -0.60813,0.006 -6.35043,5.63203 -8.50189,8.32988 -2.09146,2.62262 -4.92902,5.60028 -9.55437,10.02606 -1.96091,1.87632 -3.57876,3.54319 -3.59521,3.70417 -0.0164,0.16098 -0.048,0.44152 -0.0702,0.62342 -0.0222,0.1819 -0.27843,0.33073 -0.56947,0.33073 -0.29398,0 -0.52917,0.17638 -0.52917,0.39687 0,0.21828 -0.11487,0.39688 -0.25527,0.39688 -0.39787,0 -0.80306,-0.93848 -0.80306,-1.86 0,-0.93957 -0.32659,-1.45044 -3.20864,-5.01917 -3.45895,-4.28309 -6.74585,-7.1177 -10.22457,-8.81765 -1.74153,-0.85103 -4.08758,-2.39354 -5.990003,-3.93836 -0.88614,-0.71958 -2.08741,-1.55138 -2.6695,-1.84845 -0.58208,-0.29707 -1.62415,-0.9426 -2.31571,-1.4345 -0.69157,-0.49191 -1.40594,-0.89317 -1.5875,-0.89171 -0.9506,0.008 -6.80638,6.46898 -9.59055,10.58229 -0.87312,1.28994 -3.07578,4.03037 -4.89479,6.08983 -1.819,2.05946 -3.94661,4.59725 -4.72803,5.63953 -0.7814,1.04228 -1.51261,1.93044 -1.62491,1.97368 -0.1123,0.0432 -0.94193,-0.55207 -1.84361,-1.32292 z m 1.29866,-1.77047 c -0.16186,-0.75471 -0.21852,-1.56963 -0.12593,-1.81093 0.16825,-0.43844 0.19725,-24.82996 0.0315,-26.46721 -0.0482,-0.47621 0.0764,-1.72637 0.27702,-2.77813 0.20058,-1.05176 0.36484,-3.32161 0.36501,-5.04412 2.7e-4,-2.75998 0.53383,-8.6732 0.94497,-10.472863 0.15975,-0.69925 -0.83723,0.11927 -5.79718,4.759483 -1.33293,1.24701 -3.71923,3.3825 -5.30288,4.74553 -1.58366,1.36303 -4.67928,4.28491 -6.87917,6.49306 -2.19989,2.20816 -5.10113,4.93325 -6.44719,6.05576 -1.34607,1.12251 -2.4474,2.19533 -2.4474,2.38403 0,0.18871 0.48914,0.805 1.08698,1.36955 3.08546,2.91365 6.34232,6.21786 7.40319,7.51084 2.70694,3.29919 7.51963,7.83377 10.16296,9.57567 1.4552,0.95895 3.41973,2.4518 4.36561,3.31744 1.52241,1.39326 2.35897,1.973 2.58518,1.79155 0.0394,-0.0316 -0.0608,-0.67495 -0.22265,-1.42966 z m 2.71358,-1.26315 c 0.48236,-0.6066 2.32753,-2.71486 4.10037,-4.68502 1.77284,-1.97016 3.54983,-4.15275 3.94885,-4.85021 1.48616,-2.59765 4.68039,-6.5448 7.95257,-9.82707 0.63091,-0.63285 1.14711,-1.26384 1.14711,-1.4022 0,-0.76108 -1.15134,-2.24494 -3.66476,-4.7232 -2.70965,-2.67175 -2.90303,-2.94022 -5.05019,-7.01146 -1.22796,-2.32833 -2.90002,-5.06677 -3.71569,-6.08542 -0.81566,-1.01864 -2.18493,-2.89521 -3.04283,-4.17013 -0.85789,-1.27493 -1.65658,-2.221283 -1.77487,-2.102993 -0.3722,0.3722 -1.00315,6.402103 -1.0163,9.712713 -0.007,1.74625 -0.15672,4.00843 -0.33285,5.02708 -0.48456,2.80255 -0.28412,32.09499 0.21613,31.58395 0.19549,-0.19972 0.7501,-0.85943 1.23246,-1.46604 z m 53.756803,-6.18339 c 1.43492,-1.3768 3.95013,-4.17015 5.58935,-6.20744 1.63922,-2.03729 3.67989,-4.29664 4.53481,-5.02077 0.85492,-0.72413 1.96056,-1.7719 2.45697,-2.32837 0.89434,-1.00255 0.89873,-1.01984 0.48109,-1.89563 -0.54501,-1.1429 -6.39685,-7.20285 -8.79199,-9.10467 -4.66376,-3.70316 -10.18961,-8.75745 -11.46358,-10.48532 l -0.97184,-1.31809 -0.15383,3.96393 c -0.0846,2.18016 -0.30602,7.26776 -0.49202,11.30577 -0.25105,5.45046 -0.26575,8.28062 -0.0571,10.98589 0.19118,2.4783 0.19747,4.70023 0.0197,6.94565 -0.25925,3.2739 -0.17331,5.6854 0.30048,8.43114 0.42579,2.4676 0.5407,2.45722 3.39557,-0.30653 1.39891,-1.35426 3.71749,-3.58876 5.1524,-4.96556 z m -9.89214,-0.45275 c 0.13991,-7.80426 0.13875,-7.95358 -0.0888,-11.44323 -0.20079,-3.07958 0.0344,-9.96243 0.59629,-17.45115 0.11418,-1.52173 0.15197,-3.92213 0.084,-5.33421 l -0.12363,-2.56743 -1.87023,2.02692 c -3.25753,3.53042 -6.84638,6.99876 -9.30608,8.99359 -1.30969,1.06216 -3.18136,2.58054 -4.15926,3.37418 -0.9779,0.79364 -2.658993,2.06583 -3.735763,2.8271 -1.07676,0.76127 -2.71744,1.94641 -3.64595,2.63365 -0.92851,0.68724 -1.92633,1.42018 -2.21737,1.62877 -0.51987,0.37258 -0.51532,0.39383 0.2595,1.20993 0.43376,0.45688 1.6891,1.35006 2.78965,1.98486 1.10054,0.63479 2.59111,1.6199 3.31238,2.18913 1.682533,1.32788 4.786913,3.36684 5.809313,3.81558 1.70112,0.74663 5.69764,3.65276 7.30595,5.31264 1.75699,1.81332 4.53521,5.07941 4.68849,5.51181 0.0485,0.13684 0.11618,0.2488 0.15039,0.2488 0.0342,0 0.10221,-2.23243 0.15113,-4.96094 z"
       style="fill:#ddaabb;fill-opacity:1"
       id="path1-3" /></g></svg>
