<?xml version="1.0" encoding="UTF-8" standalone="no"?>
<!-- Created with Inkscape (http://www.inkscape.org/) -->

<svg
   width="60.882648mm"
   height="67.726921mm"
   viewBox="0 0 60.88264 67.726918"
   version="1.1"
   id="svg1"
   xml:space="preserve"
   xmlns="http://www.w3.org/2000/svg"
   xmlns:svg="http://www.w3.org/2000/svg"><defs
     id="defs1" /><g
     id="layer1"
     transform="translate(-25.653167,-461.54626)"><path
       style="fill:#ddaabb;fill-opacity:1"
       d="m 38.70198,528.79363 c -0.240835,-0.26612 -0.437882,-0.68183 -0.437882,-0.9238 0,-0.24197 0.238125,-0.58865 0.529167,-0.77041 0.291042,-0.18176 0.529167,-0.45967 0.529167,-0.61758 0,-0.15791 -0.288985,-0.5586 -0.642188,-0.89042 -0.353203,-0.33181 -1.143087,-1.63249 -1.755298,-2.89039 -0.612212,-1.2579 -1.500088,-3.12052 -1.973059,-4.13917 -0.472971,-1.01864 -1.230899,-2.65607 -1.684285,-3.63872 -0.453385,-0.98266 -0.824337,-1.89472 -0.824337,-2.02681 0,-0.13209 -0.602576,-1.59028 -1.339058,-3.24044 -0.736482,-1.65015 -1.50149,-3.35747 -1.700019,-3.79403 -0.198528,-0.43656 -0.50631,-1.38906 -0.683959,-2.11666 -0.177649,-0.72761 -0.466915,-1.62058 -0.642814,-1.98438 -0.175899,-0.3638 -0.448527,-1.37583 -0.60584,-2.24896 -0.157313,-0.87312 -0.363179,-2.24234 -0.45748,-3.04271 -0.0943,-0.80036 -0.339289,-2.12424 -0.544417,-2.94194 -0.205127,-0.8177 -0.502454,-3.00205 -0.660726,-4.85409 -0.211319,-2.47279 -0.208059,-3.96634 0.01227,-5.62203 0.165022,-1.24006 0.579594,-2.98478 0.921272,-3.87715 0.341678,-0.89237 1.054716,-2.56272 1.58453,-3.71188 0.529813,-1.14916 1.551594,-2.94038 2.270624,-3.98049 0.719029,-1.04011 1.935572,-2.4335 2.703429,-3.09642 0.767857,-0.66292 1.752175,-1.39196 2.187374,-1.6201 0.435199,-0.22813 1.267349,-0.90641 1.849224,-1.50728 l 1.057953,-1.0925 1.720172,-0.49793 c 0.946094,-0.27386 2.494078,-0.57332 3.439963,-0.66548 0.945885,-0.0922 2.315104,-0.33365 3.042708,-0.53665 0.727604,-0.20301 2.275417,-0.49282 3.439584,-0.64403 l 2.116666,-0.27492 1.284915,0.39164 c 0.706704,0.2154 1.684612,0.63866 2.173129,0.94058 0.488518,0.30192 1.301816,1.22981 1.807329,2.06197 0.505513,0.83217 1.270262,2.25553 1.699441,3.16303 0.42918,0.9075 0.861941,2.30321 0.961691,3.10159 0.09975,0.79837 0.236178,1.45158 0.303174,1.45158 0.06699,0 0.981162,-0.8663 2.031482,-1.92512 1.349915,-1.36083 2.433745,-2.17376 3.697604,-2.7734 0.983362,-0.46655 2.352581,-1.01657 3.042708,-1.22225 0.690127,-0.20568 2.564465,-0.5194 4.165194,-0.69715 1.600729,-0.17775 4.123916,-0.38203 5.607082,-0.45395 l 2.696666,-0.13076 1.404376,0.44561 c 0.772406,0.24509 1.750295,0.72405 2.173086,1.06435 l 0.76871,0.61873 0.262809,1.54478 c 0.144546,0.84964 0.279624,2.31869 0.300174,3.26458 0.02055,0.94589 -0.169334,2.79135 -0.421965,4.10104 -0.252632,1.30969 -0.572584,2.73844 -0.711006,3.175 -0.138422,0.43656 -0.914822,2.19397 -1.725334,3.90534 -0.810512,1.71137 -1.990445,3.8545 -2.622074,4.7625 -0.631628,0.908 -1.505597,2.31436 -1.942154,3.12524 -0.436556,0.81088 -1.382199,2.29236 -2.101429,3.29219 -0.71923,0.99983 -1.911815,2.47951 -2.650189,3.28818 -0.738373,0.80867 -1.920446,2.24421 -2.626828,3.19009 -0.706382,0.94589 -1.947727,2.4937 -2.758544,3.43959 -0.810817,0.94588 -3.026696,3.38666 -4.924174,5.42396 -1.897478,2.03729 -4.32156,4.71619 -5.386849,5.95312 -1.06529,1.23693 -2.764947,3.05263 -3.777017,4.0349 -1.012069,0.98226 -1.991909,1.78593 -2.17742,1.78593 -0.185511,0 -0.777937,0.47625 -1.3165,1.05834 -0.538564,0.58208 -1.071996,1.05833 -1.185405,1.05833 -0.113409,0 -0.971814,0.59425 -1.907565,1.32055 -0.935752,0.72631 -1.854153,1.32162 -2.040892,1.32292 -0.186738,10e-4 -0.901113,0.30603 -1.5875,0.67718 -0.686386,0.37115 -1.724225,0.9645 -2.306308,1.31856 -0.659442,0.40112 -1.4667,0.64539 -2.141805,0.6481 -0.717861,0.003 -1.231233,-0.15892 -1.521355,-0.4795 z m 4.756073,-3.66889 c 0.801062,-0.39225 2.089634,-1.25545 2.863493,-1.91823 0.773858,-0.66279 2.434122,-1.96123 3.689474,-2.88544 1.349987,-0.99387 3.659317,-3.16026 5.652664,-5.30277 1.853613,-1.99232 4.322706,-4.6774 5.486872,-5.96684 1.164167,-1.28944 2.487878,-2.71319 2.941581,-3.16389 0.453702,-0.4507 1.33121,-1.50407 1.950017,-2.34081 0.618808,-0.83675 1.222903,-1.52136 1.342435,-1.52136 0.119532,0 0.782518,-0.74414 1.473302,-1.65364 0.690784,-0.90951 1.933162,-2.42755 2.76084,-3.37344 0.827678,-0.94589 2.501872,-3.23484 3.720431,-5.08656 1.218558,-1.85172 2.6568,-4.06281 3.196093,-4.91353 0.539292,-0.85072 1.567244,-2.78848 2.284337,-4.30615 0.717094,-1.51766 1.570553,-3.80657 1.896575,-5.08647 l 0.592768,-2.32708 -0.115199,-3.00961 c -0.06971,-1.8213 -0.243101,-3.16372 -0.439137,-3.39992 -0.178166,-0.21468 -0.76618,-0.4804 -1.306699,-0.59049 -0.540518,-0.11009 -2.292448,-0.18273 -3.893177,-0.16142 -1.600729,0.0213 -4.04151,0.22651 -5.423958,0.456 -1.382448,0.2295 -2.907301,0.64687 -3.388561,0.9275 -0.481261,0.28063 -1.018695,0.51023 -1.194298,0.51023 -0.175603,0 -1.126462,0.72851 -2.113019,1.61892 -0.986557,0.8904 -2.258627,2.30349 -2.826822,3.14019 -0.568195,0.83671 -1.10952,1.82584 -1.202945,2.19807 -0.09342,0.37224 -0.39817,0.88341 -0.677211,1.13594 -0.308368,0.27906 -0.884662,0.44495 -1.4694,0.42297 -0.529129,-0.0199 -1.165886,-0.22063 -1.415016,-0.44609 l -0.452963,-0.40993 -0.14427,-3.23472 -0.14427,-3.23473 -0.589568,-1.5875 c -0.324262,-0.87312 -0.738916,-1.76609 -0.921452,-1.98437 -0.182536,-0.21828 -0.588684,-0.90756 -0.902551,-1.53173 -0.313866,-0.62418 -0.952816,-1.36787 -1.419889,-1.65266 -0.618787,-0.37729 -1.329164,-0.51807 -2.617937,-0.51879 -0.972792,-5.4e-4 -2.103886,0.13129 -2.513541,0.29296 -0.409656,0.16167 -2.030523,0.45647 -3.601926,0.65513 -1.571404,0.19865 -3.246806,0.54611 -3.723117,0.77214 -0.47631,0.22602 -1.653945,1.09207 -2.616965,1.92456 -0.96302,0.83248 -2.294952,1.93032 -2.959848,2.43964 -0.664896,0.50932 -1.554682,1.40727 -1.977303,1.99544 -0.422621,0.58818 -1.375086,2.26811 -2.11659,3.73319 -0.741503,1.46509 -1.614739,3.42464 -1.940525,4.35456 l -0.592338,1.69077 0.01397,4.63021 0.01397,4.63021 0.42666,1.4552 c 0.234663,0.80037 0.496052,2.05052 0.580865,2.77813 0.08481,0.7276 0.228378,1.91823 0.319034,2.64583 0.09066,0.72761 0.279597,1.62057 0.41987,1.98438 0.140273,0.3638 0.478877,1.52889 0.752453,2.58908 0.273576,1.0602 0.679794,2.18802 0.902707,2.50627 0.222913,0.31825 0.405296,0.74718 0.405296,0.95318 0,0.206 0.783815,2.11428 1.741811,4.24061 0.957996,2.12634 2.219113,4.93763 2.802483,6.24732 0.583371,1.30968 1.912915,3.95857 2.954544,5.88641 1.041629,1.92784 1.931131,3.50542 1.976671,3.50573 0.04554,3.1e-4 0.738216,-0.32036 1.539279,-0.7126 z"
       id="path2" /></g></svg>
