<?xml version="1.0" encoding="UTF-8" standalone="no"?>
<!-- Created with Inkscape (http://www.inkscape.org/) -->

<svg
   width="77.028992mm"
   height="35.656689mm"
   viewBox="0 0 77.028993 35.656688"
   version="1.1"
   id="svg1"
   xml:space="preserve"
   xmlns="http://www.w3.org/2000/svg"
   xmlns:svg="http://www.w3.org/2000/svg"><defs
     id="defs1" /><g
     id="layer1"
     transform="translate(-46.881083,-173.24412)"><path
       style="fill:#ddaabb;fill-opacity:1"
       d="m 46.895582,208.57041 c -0.118859,-0.19232 0.499413,-0.92467 1.619424,-1.91823 0.996428,-0.88392 2.915562,-2.71211 4.264742,-4.06263 1.349181,-1.35051 2.871307,-2.63024 3.382502,-2.84383 1.256165,-0.52486 1.560314,-1.20534 1.652208,-3.69651 0.04294,-1.16417 0.194374,-2.88612 0.336514,-3.82656 0.142139,-0.94044 0.221352,-1.74697 0.17603,-1.79229 -0.219652,-0.21965 -3.428382,2.46936 -5.257949,4.40632 -1.893367,2.0045 -2.529809,2.4 -2.758427,1.71415 -0.08562,-0.25686 4.675192,-4.97736 7.291263,-7.22953 1.339999,-1.1536 1.360976,-1.19475 1.360976,-2.66951 0,-1.33232 -0.07155,-1.53045 -0.647465,-1.79285 -1.114595,-0.50785 -1.533041,-1.46528 -1.55773,-3.56418 -0.01964,-1.67013 0.107882,-2.21238 0.999804,-4.25119 1.012442,-2.31431 1.037905,-2.34451 2.63521,-3.12578 1.277612,-0.6249 1.826684,-0.75602 2.641373,-0.63074 1.312295,0.20179 2.915984,1.34713 3.450564,2.46437 0.84215,1.76002 0.43009,3.14408 -2.002502,6.72623 -0.908051,1.33716 -1.351493,1.72355 -2.623032,2.28553 l -1.530237,0.67633 -0.178344,1.77587 c -0.170148,1.69426 -0.127462,1.88941 0.928807,4.24652 0.608933,1.35885 1.456889,3.08654 1.884347,3.8393 0.4887,0.86062 0.674644,1.43204 0.500925,1.53941 -0.43872,0.27114 -1.357282,-0.95873 -2.702391,-3.61826 l -1.246621,-2.46481 -0.01177,1.76872 c -0.0065,0.97279 -0.122474,2.05988 -0.257779,2.41576 -0.135304,0.35588 -0.266132,1.40543 -0.290728,2.33233 -0.04744,1.78767 0.550524,3.75695 2.118503,6.97694 0.42517,0.87313 0.981068,2.06375 1.235329,2.64584 0.254261,0.58208 0.511598,1.15764 0.57186,1.27903 0.06026,0.12139 -0.167606,0.18092 -0.506373,0.13229 -0.338767,-0.0486 -0.762711,-0.38606 -0.942097,-0.74987 -0.951208,-1.92909 -2.726738,-6.04778 -2.880001,-6.68073 -0.0969,-0.40018 -0.207673,-0.7276 -0.246159,-0.7276 -0.03849,0 -0.609766,0.23878 -1.26951,0.53061 -0.764355,0.33811 -2.672324,1.9191 -5.259154,4.35785 -2.232791,2.10499 -4.201421,3.83074 -4.374734,3.83502 -0.173313,0.004 -0.401632,-0.13222 -0.507378,-0.30332 z m 14.458616,-24.62589 c 0.882142,-0.44484 1.529445,-1.10441 2.560889,-2.60945 2.298994,-3.35459 2.445084,-5.19994 0.516056,-6.51867 -1.36013,-0.92983 -3.287836,-0.71026 -4.606116,0.52463 -0.881148,0.82542 -2.185079,4.42283 -2.185079,6.02841 0,2.86764 1.319698,3.78258 3.71425,2.57508 z m -12.974666,24.72531 c 0,-0.27383 0.572828,-0.84666 0.846666,-0.84666 0.116417,0 0.211667,0.23812 0.211667,0.52916 0,0.35278 -0.176389,0.52917 -0.529167,0.52917 -0.291041,0 -0.529166,-0.0952 -0.529166,-0.21167 z m 28.045829,-0.10006 c 0,-0.17145 0.86321,-1.22103 1.91823,-2.33239 2.57592,-2.71347 5.49473,-6.13444 5.89632,-6.91073 0.2928,-0.56599 1.18129,-6.13321 1.18129,-7.40185 0,-0.87191 -0.78499,-0.56039 -2.22566,0.88326 -2.53634,2.54158 -3.91144,3.67481 -4.28513,3.53141 -0.70835,-0.27182 -0.35598,-0.91628 1.22186,-2.2347 0.87464,-0.73082 1.88963,-1.68457 2.25554,-2.11943 0.36591,-0.43486 1.19804,-1.12714 1.84918,-1.53839 1.29246,-0.81632 1.53521,-1.42471 1.5652,-3.92274 l 0.0159,-1.32292 -0.92604,0.0347 c -0.50932,0.0191 -1.69646,0.16257 -2.63808,0.31889 -1.46946,0.24394 -1.77875,0.22384 -2.18282,-0.14183 -0.25892,-0.23432 -0.46299,-0.55642 -0.45349,-0.71577 0.0368,-0.61698 4.48399,-5.64851 6.10249,-6.9043 0.93775,-0.7276 2.22097,-1.82893 2.85161,-2.4474 1.13472,-1.11283 2.33632,-1.49446 2.49919,-0.79375 0.30094,1.2947 2.44241,7.37696 2.84657,8.08492 0.27474,0.48126 0.49953,1.09716 0.49953,1.36866 0,0.44971 -0.17069,0.48076 -1.91823,0.3489 -1.06468,-0.0803 -2.58142,-0.007 -3.40865,0.16504 -1.46028,0.3035 -1.49707,0.3335 -1.81907,1.48358 -0.18076,0.6456 -0.27513,1.81926 -0.20971,2.60814 0.11296,1.36215 0.22114,1.54432 2.1498,3.62034 1.11698,1.20231 2.03086,2.28529 2.03086,2.40661 0,0.68482 -1.10109,-0.0133 -2.67751,-1.69765 -1.36246,-1.45572 -1.7995,-1.79064 -1.81257,-1.38906 -0.0164,0.50281 -0.26998,2.78304 -0.76508,6.87917 -0.21665,1.79236 -0.19409,1.91181 0.69947,3.70417 0.50784,1.01864 1.38343,2.53015 1.94577,3.35892 1.09027,1.60682 1.23758,2.06503 0.66388,2.06503 -0.45441,0 -2.17932,-2.46015 -3.50092,-4.99318 l -1.01765,-1.95047 -0.6703,0.79667 c -0.36866,0.43817 -2.03952,2.29656 -3.71301,4.12977 -2.73168,2.9924 -3.96875,3.93636 -3.96875,3.0284 z m 8.99584,-24.46262 c 0.65484,-0.0694 2.1524,-0.29814 3.32791,-0.50824 1.1755,-0.21009 2.58723,-0.38199 3.13716,-0.38199 0.76848,0 0.96553,-0.0895 0.85145,-0.38679 -0.0816,-0.21273 -0.65992,-1.81907 -1.28508,-3.56965 -0.62516,-1.75057 -1.26176,-3.18386 -1.41467,-3.18509 -0.72454,-0.006 -5.24855,3.87676 -6.8511,5.87969 -0.95393,1.19227 -1.73442,2.27817 -1.73442,2.41311 0,0.14373 0.57535,0.16662 1.38906,0.0553 0.76398,-0.10454 1.92484,-0.24688 2.57969,-0.31631 z m 19.926439,23.54987 c -0.10365,-0.2701 0.046,-0.59078 0.40131,-0.8599 0.31163,-0.23604 0.83624,-0.80329 1.16578,-1.26055 0.32955,-0.45726 1.26649,-1.70742 2.08211,-2.77812 2.26359,-2.97157 2.29566,-3.04604 2.60464,-6.04778 0.15729,-1.52797 0.36067,-3.18851 0.45197,-3.69009 l 0.16601,-0.91197 -1.04709,0.82931 c -0.57591,0.45613 -1.54781,1.37253 -2.15979,2.03645 -1.19908,1.30084 -1.40865,1.39693 -1.8602,0.85285 -0.22936,-0.27636 0.0658,-0.6982 1.34217,-1.91823 0.8999,-0.86017 2.20826,-2.11249 2.90746,-2.78292 l 1.27127,-1.21897 v -1.87427 c 0,-1.03085 -0.10441,-1.9388 -0.23203,-2.01767 -0.12762,-0.0789 -1.1312,-0.19271 -2.23019,-0.25298 -1.09898,-0.0603 -2.12566,-0.18838 -2.2815,-0.2847 -0.44102,-0.27256 -0.33535,-0.88566 0.25426,-1.47526 0.29569,-0.29569 0.65408,-1.15175 0.79643,-1.90235 0.5541,-2.92175 1.0721,-6.9031 0.94219,-7.24164 -0.20083,-0.52336 0.3253,-0.74598 1.95709,-0.82808 4.87511,-0.24531 5.9039,-0.23278 7.92117,0.0964 1.22795,0.2004 2.6133,0.29295 3.07856,0.20567 0.46525,-0.0873 0.91994,-0.0389 1.0104,0.10744 0.0905,0.14638 -0.12853,1.19887 -0.48667,2.33887 -0.35813,1.14 -0.78426,3.14429 -0.94696,4.45397 -0.16269,1.30969 -0.33158,2.61938 -0.3753,2.91042 -0.0437,0.29104 -0.0947,0.72153 -0.11327,0.95664 -0.038,0.48126 -2.477,0.81075 -5.62105,0.75936 -2.23009,-0.0365 -2.6148,0.29547 -2.6148,2.25603 0,0.78139 0.11907,1.49428 0.26459,1.58422 0.14552,0.0899 0.26458,0.45991 0.26458,0.82217 0,0.45808 0.56397,1.23733 1.85208,2.55906 1.01865,1.04523 1.85209,2.0515 1.85209,2.23616 0,0.75086 -0.8235,0.2336 -2.59186,-1.62802 l -1.86537,-1.96376 -0.27684,1.76532 c -0.15226,0.97093 -0.39831,3.12564 -0.54678,4.78826 -0.30804,3.44963 -0.36734,3.27248 2.0397,6.09267 0.76399,0.89512 1.38906,1.79287 1.38906,1.99501 0,0.7382 -0.50327,0.64848 -1.08508,-0.19345 -0.328,-0.47465 -1.15507,-1.46459 -1.83791,-2.19985 -0.68285,-0.73527 -1.32457,-1.59848 -1.42606,-1.91823 -0.10149,-0.31976 -0.2709,-0.58138 -0.37648,-0.58138 -0.10557,0 -1.31283,1.48828 -2.6828,3.30729 -1.36997,1.81901 -2.64852,3.30729 -2.84123,3.30729 -0.19271,0 -0.42476,-0.19383 -0.51566,-0.43073 z m 13.30878,-22.74207 1.8821,-0.14891 0.31289,-1.04435 c 0.17209,-0.57439 0.42348,-1.96474 0.55864,-3.08966 0.13515,-1.12493 0.42294,-2.69463 0.63953,-3.48822 0.21659,-0.7936 0.36841,-1.46241 0.33739,-1.48625 -0.031,-0.0238 -0.94937,-0.20511 -2.04077,-0.40282 -2.77036,-0.50185 -8.34933,-0.48031 -8.82453,0.0341 -0.34999,0.37885 -0.60818,1.69345 -1.26375,6.43459 -0.17818,1.28862 -0.48257,2.50156 -0.67643,2.69542 -0.29357,0.29356 -0.16417,0.37699 0.77435,0.49926 2.57812,0.33586 4.02297,0.33531 8.30058,-0.003 z"
       id="path1" /></g></svg>
