<?xml version="1.0" encoding="UTF-8" standalone="no"?>
<!-- Created with Inkscape (http://www.inkscape.org/) -->

<svg
   width="113.00251mm"
   height="39.10841mm"
   viewBox="0 0 113.00251 39.10841"
   version="1.1"
   id="svg1"
   xml:space="preserve"
   xmlns="http://www.w3.org/2000/svg"
   xmlns:svg="http://www.w3.org/2000/svg"><defs
     id="defs1" /><g
     id="layer1"
     transform="translate(-39.691052,-205.62912)"><path
       style="fill:#ddaabb;fill-opacity:1;stroke-width:1.07992"
       d="m 40.890684,244.64054 c -0.987906,-0.43311 -1.569784,-3.6883 -0.93377,-5.22376 0.347638,-0.83929 1.636661,-1.74219 2.483947,-1.73991 0.290055,7.8e-4 0.913107,0.30988 1.384561,0.68691 0.819325,0.65521 0.857188,0.78299 0.857188,2.89318 0,2.02678 -0.05909,2.25208 -0.721024,2.74931 -0.748408,0.56218 -2.438933,0.91134 -3.070902,0.63427 z m 2.434711,-1.32046 c 0.434821,-0.34788 0.478674,-3.16931 0.06138,-3.94904 -0.330627,-0.61778 -1.407988,-0.73472 -1.932907,-0.20979 -0.424031,0.42403 -0.452625,3.48983 -0.03974,4.2613 0.310492,0.58016 1.111726,0.5372 1.911272,-0.10248 z m 16.215141,0.0863 c -1.597256,-0.65161 -2.729301,-2.77998 -2.328339,-4.37755 0.238749,-0.95126 1.251415,-1.92378 2.200924,-2.11367 0.455908,-0.0911 0.976128,-0.34316 1.156046,-0.55995 0.179917,-0.21679 0.626808,-0.39416 0.99309,-0.39416 0.517256,0 0.796559,0.29522 1.250796,1.3221 0.760018,1.71815 0.738068,2.24802 -0.164298,3.96617 -1.260021,2.39914 -1.724582,2.72154 -3.108219,2.15706 z m 1.949145,-2.34383 c 0.783638,-1.40843 0.854128,-1.71663 0.61124,-2.67253 -0.151003,-0.59429 -0.554248,-1.26466 -0.8961,-1.4897 -0.57628,-0.37937 -0.61027,-0.36604 -0.466701,0.18297 0.126684,0.48444 0.02264,0.59213 -0.572062,0.59213 -1.079648,0 -2.005986,1.30595 -1.804974,2.54465 0.158796,0.97854 1.49917,2.6824 1.983235,2.52104 0.142763,-0.0476 0.658176,-0.80293 1.145362,-1.67856 z m -2.073637,-0.79816 c -0.339972,-0.21513 -0.346214,-0.3367 -0.03645,-0.70995 0.679061,-0.81821 1.637944,-0.42396 1.274213,0.52389 -0.195224,0.50876 -0.62557,0.57344 -1.237765,0.18606 z m 17.213478,1.12892 c -0.344429,-0.14212 -0.843652,-0.59022 -1.109386,-0.99578 -0.418599,-0.63886 -0.439381,-0.95533 -0.155541,-2.36868 0.423783,-2.11017 0.946573,-2.61676 2.782907,-2.69666 2.175534,-0.0946 2.9656,0.5264 2.9656,2.33122 0,0.7719 -0.127761,1.7395 -0.283912,2.1502 -0.422813,1.11209 -2.991415,2.07827 -4.199668,1.5797 z m 2.011939,-1.00393 c 0.758681,-0.317 1.092852,-0.67149 1.279405,-1.35721 0.221296,-0.81343 0.213059,-2.43631 -0.01348,-2.65488 -0.08852,-0.0854 -1.893276,-0.20518 -2.402676,-0.15946 -0.786224,0.0705 -1.39097,3.12787 -0.788771,3.98763 0.510754,0.72921 0.600041,0.73774 1.925515,0.18392 z m -36.67328,-8.79389 c -1.684969,-0.84192 -2.31171,-4.5899 -1.108532,-6.62913 0.638513,-1.0822 1.820556,-1.86313 2.820101,-1.86313 0.833487,0 2.753262,1.02383 2.967725,1.58271 0.63046,1.64295 -1.07389,6.01618 -2.665389,6.83916 -1.011293,0.52297 -1.101815,0.52613 -2.013905,0.0704 z m 2.859555,-2.97133 c 1.284916,-2.83382 1.143211,-3.88129 -0.59381,-4.38936 -0.914171,-0.2674 -1.042308,-0.21938 -1.908584,0.71534 -0.787637,0.84987 -0.92862,1.21669 -0.92862,2.41623 0,2.4596 0.93124,4.02359 2.041838,3.42921 0.293839,-0.15725 0.918968,-1.13439 1.389176,-2.17142 z m 14.108913,0.79196 c -1.59375,-0.97183 -2.643238,-4.10059 -1.753381,-5.22722 0.196439,-0.2487 0.917216,-0.79778 1.601725,-1.22018 1.092085,-0.6739 1.424643,-0.74395 2.714428,-0.57168 1.868967,0.24962 2.378561,0.71381 2.603985,2.372 0.209187,1.53876 -0.372293,3.51438 -1.336447,4.54067 -0.774258,0.82415 -2.57138,0.87409 -3.83031,0.10637 z m 3.075918,-0.8126 c 0.971518,-1.1632 1.343956,-2.98884 0.926878,-4.54344 -0.203516,-0.75857 -2.068312,-1.1198 -2.569973,-0.49782 -0.17269,0.2141 -0.393689,0.30957 -0.491109,0.21215 -0.285157,-0.28516 -1.562793,0.68718 -1.772938,1.34928 -0.254412,0.80159 0.60239,3.00734 1.379638,3.55174 0.821076,0.5751 2.015489,0.54113 2.527504,-0.0719 z m 14.840352,-0.0383 c -1.26683,-0.34872 -1.880539,-1.56716 -1.881834,-3.73614 -0.0013,-2.19709 0.451923,-2.98889 1.891912,-3.30517 1.101,-0.24183 3.011401,0.0958 3.541444,0.62581 0.579207,0.5792 0.550298,3.31323 -0.04837,4.57484 -0.701289,1.47785 -2.117638,2.22204 -3.503149,1.84066 z m 1.418716,-0.89873 c 0.738341,-0.39515 1.319318,-1.58212 1.536088,-3.13832 0.224603,-1.61243 -0.03694,-2.00082 -1.477563,-2.19404 -2.050471,-0.27503 -2.879454,1.39105 -2.079677,4.17971 0.393772,1.373 0.98229,1.70863 2.021152,1.15265 z m -1.138187,-2.68117 c -0.474392,-0.5716 -0.151338,-1.02482 0.730502,-1.02482 0.579622,0 0.699804,0.12286 0.626028,0.63997 -0.109472,0.76731 -0.861947,0.98078 -1.35653,0.38485 z m -34.618823,-9.96244 c -1.660569,-1.11906 -2.002825,-2.43044 -1.385529,-5.30879 0.252771,-1.17864 0.491832,-1.54113 1.42252,-2.15704 0.615279,-0.40717 1.272044,-0.74031 1.459478,-0.74031 0.187433,0 0.576454,-0.21328 0.864487,-0.47394 0.463591,-0.41955 0.658166,-0.42956 1.695273,-0.0873 1.635761,0.53986 2.054404,1.32484 2.18224,4.09188 0.129731,2.80807 -0.338645,3.77886 -2.275536,4.7165 -1.619977,0.78421 -2.755827,0.77246 -3.962933,-0.041 z m 3.685258,-0.7845 c 0.940615,-0.57348 1.768614,-2.03062 1.768614,-3.11245 0,-2.58532 -1.27816,-4.68893 -2.476345,-4.07562 -0.288097,0.14746 -1.013089,0.478 -1.611094,0.73451 -1.305094,0.55982 -1.912877,1.78569 -1.912877,3.85822 0,2.72589 2.002826,3.95425 4.231702,2.59534 z m -2.170096,-3.20446 c -0.420938,-0.5072 0.01356,-1.15663 0.687061,-1.02692 0.657102,0.12654 0.723832,1.19478 0.08235,1.31832 -0.250179,0.0482 -0.596414,-0.0829 -0.769411,-0.2914 z m 16.30886,3.03271 c -1.064581,-0.52493 -1.611277,-1.83088 -1.617961,-3.86499 -0.0086,-2.62796 2.094611,-4.13124 4.615646,-3.29901 1.398507,0.46167 1.94556,2.13237 1.462886,4.46765 -0.567608,2.74621 -2.271089,3.77594 -4.460571,2.69635 z m 2.738276,-1.12682 c 0.657142,-0.83542 1.035993,-2.81882 0.769865,-4.03048 -0.117514,-0.53504 -0.469682,-0.94585 -1.019477,-1.18921 -1.971147,-0.87251 -3.498097,1.28655 -2.842531,4.01926 0.484812,2.02092 1.987779,2.6044 3.092143,1.20043 z m 13.309914,0.63699 c -1.197693,-1.1977 -1.451652,-2.18982 -1.050314,-4.10322 0.391286,-1.86547 1.016707,-2.73051 2.490691,-3.44497 0.90075,-0.4366 1.324543,-0.49471 2.000106,-0.27424 2.01752,0.65843 2.754411,1.98679 2.389093,4.3067 -0.400539,2.54357 -0.927927,3.56905 -2.083904,4.05205 -1.644914,0.68729 -2.668639,0.54071 -3.745672,-0.53632 z m 3.551518,-0.40259 c 0.371673,-0.30823 0.784697,-1.24607 1.076809,-2.44509 0.433635,-1.77991 0.435521,-2.02549 0.0222,-2.89221 -0.556335,-1.16666 -1.590895,-1.49302 -2.781336,-0.87742 -1.185776,0.61319 -1.724968,1.55773 -1.909419,3.3449 -0.141362,1.36966 -0.07624,1.62906 0.61522,2.45083 0.88762,1.05487 2.017919,1.21398 2.976519,0.41899 z"
       id="path1" /><path
       d="m 127.12744,243.36492 c -1.51454,-1.10377 -2.66285,-2.43821 -3.18698,-3.70357 -0.36007,-0.8693 -0.31197,-1.12498 0.5409,-2.87491 0.51487,-1.05641 1.39227,-2.63507 1.94979,-3.50813 0.55752,-0.87306 1.5652,-2.49918 2.23927,-3.61361 0.67408,-1.11441 1.82439,-2.95086 2.55624,-4.08101 0.73184,-1.13014 1.93438,-3.25069 2.67229,-4.71233 0.73791,-1.46164 1.4614,-2.73155 1.60774,-2.82199 0.14634,-0.0904 0.29021,-0.89382 0.3197,-1.78527 0.17839,-5.39278 3.17297,-8.17696 9.09177,-8.45296 2.36654,-0.11036 2.96951,-0.0333 4.17412,0.53284 1.71058,0.80407 2.45929,1.59922 3.12433,3.31811 0.65541,1.69401 0.63879,2.77892 -0.0712,4.64744 -0.31757,0.83579 -0.52351,1.5735 -0.45764,1.63937 0.19521,0.19522 -3.18911,3.51508 -4.18007,4.10046 -0.50208,0.29659 -0.91288,0.77715 -0.91288,1.0679 0,0.29077 -0.13789,0.61387 -0.30641,0.71803 -0.16851,0.10411 -0.30639,0.0433 -0.30639,-0.13512 0,-0.63221 -0.49474,-0.30084 -2.60977,1.74802 -2.66063,2.57739 -4.42688,5.18565 -7.10353,10.4899 -3.28734,6.51446 -4.44104,7.94713 -6.59008,8.18346 -1.10138,0.12113 -1.51521,-0.001 -2.55121,-0.75663 z m 4.33475,-1.47198 c 0.79134,-0.84977 2.19831,-3.16476 3.58473,-5.89821 2.71001,-5.34302 4.91452,-8.75854 7.20544,-11.16364 1.24753,-1.30971 1.53317,-1.7618 1.11313,-1.7618 -0.82816,0 -4.417,-2.2257 -5.63977,-3.49764 -0.58075,-0.6041 -1.14625,-1.09836 -1.25667,-1.09836 -0.11036,0 -0.99727,1.55115 -1.97079,3.44701 -0.97352,1.89584 -2.01211,3.79169 -2.30798,4.213 -0.29589,0.42129 -0.94894,1.4554 -1.45127,2.29799 -0.50231,0.84261 -1.7937,2.99028 -2.86975,4.77261 -2.78187,4.60784 -3.13267,5.34906 -2.91634,6.16215 0.24165,0.90824 0.36415,1.06112 2.10206,2.62344 1.93378,1.73842 2.71434,1.72131 4.40721,-0.0966 z m 14.99606,-20.69395 c 0.83345,-0.5231 1.81738,-1.22879 2.18647,-1.5682 l 0.67109,-0.61711 -1.51772,-0.8064 c -5.60057,-2.97569 -7.39304,-4.42845 -7.93154,-6.42833 -0.30982,-1.15055 -0.41595,-1.26657 -0.83811,-0.91622 -1.0376,0.86114 -1.86209,2.62709 -2.05618,4.40411 l -0.19964,1.82765 1.3109,1.41017 c 4.99412,5.3723 3.48502,3.02667 4.52811,3.4226 1.10636,0.41995 2.41059,0.17302 3.84662,-0.72827 z m 4.38088,-4.6407 c 0.91205,-1.90898 1.06488,-2.82724 0.66979,-4.02439 -0.4664,-1.41323 -1.38001,-2.53943 -2.55147,-3.14522 -1.41155,-0.72995 -5.5902,-0.64119 -7.39481,0.15709 l -1.38562,0.61292 0.65021,1.56458 c 0.71077,1.7103 1.00827,1.96917 4.84841,4.21888 4.06174,2.37956 4.307,2.40882 5.16349,0.61614 z"
       style="fill:#ddaabb;fill-opacity:1;stroke-width:1.15805"
       id="path1-4" /></g></svg>
