<?xml version="1.0" encoding="UTF-8" standalone="no"?>
<!-- Created with Inkscape (http://www.inkscape.org/) -->

<svg
   width="53.14782mm"
   height="138.09981mm"
   viewBox="0 0 53.147814 138.09979"
   version="1.1"
   id="svg1"
   xml:space="preserve"
   xmlns="http://www.w3.org/2000/svg"
   xmlns:svg="http://www.w3.org/2000/svg"><defs
     id="defs1" /><g
     id="layer1"
     transform="translate(62.364943,-506.1168)"><path
       style="fill:#ddaabb;fill-opacity:1"
       d="m -61.505048,643.88187 c -0.472942,-0.21007 -0.859895,-0.48608 -0.859895,-0.61337 0,-0.12728 0.163753,-0.36733 0.363897,-0.53343 0.200143,-0.16611 0.493418,-0.80576 0.651722,-1.42146 0.158304,-0.6157 0.366674,-1.7719 0.463045,-2.56933 0.09637,-0.79742 0.33637,-1.90662 0.533333,-2.46487 0.196963,-0.55826 0.57709,-1.33456 0.844726,-1.72513 0.267636,-0.39057 0.703035,-1.48403 0.967555,-2.42992 0.264519,-0.94588 0.69641,-2.03362 0.959757,-2.41719 0.263348,-0.38357 0.784075,-1.44865 1.157171,-2.36685 0.373096,-0.91819 0.896092,-1.91405 1.162213,-2.21301 0.266122,-0.29896 0.63895,-0.96029 0.828508,-1.46961 0.189557,-0.50933 0.612054,-1.52136 0.938881,-2.24896 0.326828,-0.7276 0.783054,-1.7666 1.013837,-2.30888 0.230782,-0.54228 0.743134,-1.49478 1.138559,-2.11666 0.395424,-0.62189 0.735006,-1.32589 0.754625,-1.56445 0.01962,-0.23855 0.413728,-1.02288 0.875796,-1.74295 0.462069,-0.72007 0.840125,-1.4074 0.840125,-1.52739 0,-0.11999 0.559836,-1.18113 1.24408,-2.35808 0.684244,-1.17696 1.32304,-2.19946 1.419547,-2.27222 0.09651,-0.0728 0.260513,-0.42994 0.364458,-0.79375 0.103944,-0.3638 0.373741,-1.07817 0.599547,-1.5875 0.225806,-0.50932 0.793142,-1.40229 1.260745,-1.98437 0.467604,-0.58208 0.991406,-1.32521 1.164004,-1.65138 0.172599,-0.32618 0.293074,-1.28433 0.267722,-2.12922 -0.02535,-0.84488 0.08578,-1.78257 0.246969,-2.08375 0.215007,-0.40174 0.21255,-0.98053 -0.0092,-2.17306 l -0.302286,-1.62546 0.302221,-2.04773 c 0.166221,-1.12625 0.377162,-3.71346 0.468757,-5.74934 0.09159,-2.03588 0.204932,-5.93031 0.251861,-8.65428 0.04693,-2.72397 0.144334,-5.04816 0.216458,-5.16485 0.07212,-0.1167 -0.0369,-0.44199 -0.24228,-0.72286 l -0.373413,-0.51067 -0.40951,0.51359 c -0.225231,0.28248 -0.753906,1.04937 -1.174834,1.70422 -0.420928,0.65484 -2.271191,2.65544 -4.111695,4.44576 -1.840505,1.79033 -3.603783,3.69995 -3.918396,4.24361 -0.314613,0.54365 -0.97916,1.54938 -1.476771,2.23496 -0.497611,0.68558 -0.986362,1.2465 -1.086112,1.2465 -0.09975,0 -0.520028,0.53578 -0.933951,1.19063 -0.413923,0.65484 -0.920993,1.19062 -1.126822,1.19062 -0.20583,0 -0.835635,-0.25932 -1.399567,-0.57627 -0.563932,-0.31695 -1.096033,-0.79902 -1.182445,-1.07129 -0.08641,-0.27226 0.03034,-0.7811 0.259448,-1.13077 0.229109,-0.34966 0.893826,-1.07733 1.47715,-1.61704 0.583324,-0.53971 1.060589,-1.17058 1.060589,-1.40193 0,-0.23135 0.47625,-0.94165 1.058333,-1.57844 0.582083,-0.63679 1.058333,-1.31474 1.058333,-1.50656 0,-0.19182 0.615864,-0.86138 1.368587,-1.48792 0.752723,-0.62653 2.002879,-1.73373 2.778125,-2.46043 0.775246,-0.72671 1.409538,-1.44113 1.409538,-1.58762 0,-0.14649 0.482348,-0.79402 1.071885,-1.43896 0.589536,-0.64495 1.256843,-1.48574 1.482904,-1.86843 0.226061,-0.38269 0.755402,-0.92652 1.176313,-1.20851 0.420911,-0.28199 0.769597,-0.6913 0.774857,-0.90958 0.0053,-0.21828 0.240736,-0.67426 0.523282,-1.01329 0.282545,-0.33903 0.844131,-0.70467 1.247968,-0.81254 0.523304,-0.13977 0.749087,-0.38075 0.785895,-0.83879 0.0284,-0.35347 0.136758,-1.11892 0.240785,-1.701 0.104027,-0.58209 0.198457,-1.41552 0.209844,-1.85209 0.01139,-0.43656 0.123898,-0.86803 0.250025,-0.95883 0.126127,-0.0908 0.291069,-0.93432 0.366538,-1.8745 0.08009,-0.99774 0.01791,-1.93234 -0.149357,-2.24488 -0.192171,-0.35907 -0.660528,-0.58728 -1.421777,-0.69277 -0.624362,-0.0865 -2.206766,-0.46684 -3.516453,-0.84515 -1.309688,-0.37831 -3.33375,-1.14868 -4.497917,-1.71194 -1.345471,-0.65098 -2.639592,-1.53758 -3.551915,-2.43343 -0.789387,-0.77513 -1.934579,-2.18324 -2.544871,-3.12912 -0.610292,-0.94589 -1.34731,-2.19604 -1.637817,-2.77813 -0.290508,-0.58208 -0.841957,-2.25863 -1.225442,-3.72565 l -0.697247,-2.66733 v -2.80348 -2.80348 l 1.025863,-3.12815 c 0.564225,-1.72049 1.470912,-4.19636 2.014862,-5.50193 0.543949,-1.30558 1.562759,-3.39159 2.264022,-4.63558 0.701263,-1.24399 2.037277,-3.15516 2.968919,-4.24704 0.931643,-1.09188 2.814711,-2.99673 4.184595,-4.23299 1.369883,-1.23627 2.907416,-2.50175 3.416739,-2.81218 0.509323,-0.31043 1.716539,-0.80624 2.682702,-1.1018 1.067669,-0.32661 2.987486,-0.60911 4.894791,-0.72027 l 3.138132,-0.18289 1.711424,0.43915 c 0.941284,0.24154 2.98648,0.61699 4.544882,0.83435 1.558401,0.21736 3.482423,0.61848 4.275603,0.89137 0.79318,0.2729 1.762222,0.66388 2.153428,0.86885 0.391205,0.20497 1.992401,1.63869 3.558213,3.18603 1.565813,1.54734 3.17115,3.2812 3.567416,3.85301 0.396267,0.57181 1.299383,2.75114 2.006925,4.84296 0.707542,2.09182 1.4316294,4.54808 1.6090825,5.45837 0.177453,0.91029 0.265606,2.54381 0.1958956,3.63004 l -0.1267462,1.97498 -0.8692019,1.7656 c -0.51772,1.05164 -1.937487,3.00711 -3.51104,4.83583 -1.453012,1.68863 -3.540141,4.02309 -4.638066,5.18769 -1.097924,1.1646 -2.959115,2.8809 -4.135979,3.814 -1.176864,0.9331 -3.294643,2.44952 -4.706175,3.36983 -1.411532,0.92031 -3.67372,2.26445 -5.027083,2.98697 -1.353364,0.72253 -2.946524,1.39099 -3.540357,1.48547 l -1.079696,0.17179 -0.32765,3.17921 c -0.180207,1.74857 -0.438485,3.47073 -0.57395,3.82703 -0.135465,0.3563 -0.2463,1.24454 -0.2463,1.97386 v 1.32605 l 0.758097,0.70725 c 0.416953,0.38899 1.678098,1.48116 2.802545,2.42704 1.124447,0.94589 2.293859,2.07698 2.598694,2.51354 0.304835,0.43657 1.811893,2.04886 3.349017,3.58289 1.537125,1.53402 4.292932,4.39152 6.124015,6.34999 1.831084,1.95848 3.4736,3.83104 3.650036,4.16124 l 0.320792,0.60037 -0.344699,0.72255 c -0.225462,0.47261 -0.588755,0.75084 -1.050242,0.80433 -0.38805,0.045 -1.161076,-0.1518 -1.717837,-0.43728 -0.556761,-0.28547 -1.272418,-0.79853 -1.59035,-1.14011 -0.317931,-0.34158 -1.032306,-1.23362 -1.5875,-1.9823 -0.555193,-0.74868 -1.771614,-2.23697 -2.703156,-3.30729 -0.931543,-1.07033 -3.572262,-3.88082 -5.868265,-6.24553 -2.296003,-2.36472 -4.361566,-4.29948 -4.590141,-4.29948 h -0.415589 l -0.0089,2.3151 c -0.0049,1.27331 -0.08063,4.75589 -0.168271,7.73906 -0.08764,2.98318 -0.156053,6.94201 -0.152035,8.7974 0.004,1.85539 0.03411,3.5818 0.06686,3.83646 0.03276,0.25466 -0.0071,2.36802 -0.0886,4.69635 -0.08868,2.53392 -0.04008,4.64574 0.12107,5.26067 0.148075,0.56503 0.542949,1.63659 0.877498,2.38125 0.334549,0.74465 1.56158,3.55657 2.726737,6.24871 1.165157,2.69213 2.949925,6.85932 3.966151,9.26041 1.016225,2.4011 2.154239,5.31813 2.52892,6.4823 0.37468,1.16416 1.113119,3.06916 1.640976,4.23333 0.527857,1.16417 1.249771,2.54005 1.604254,3.05751 0.354483,0.51747 1.016251,2.02748 1.470595,3.35558 l 0.82608,2.41473 -0.186087,1.73765 -0.186087,1.73765 h -0.922376 c -0.507307,0 -1.152674,-0.12325 -1.434149,-0.27389 -0.347238,-0.18583 -0.511773,-0.55457 -0.511773,-1.14693 0,-0.48016 -0.248137,-1.63684 -0.551415,-2.57037 -0.303278,-0.93354 -0.89859,-2.24355 -1.322916,-2.91114 -0.424326,-0.66758 -0.771502,-1.28913 -0.771502,-1.38122 0,-0.0921 -0.282347,-0.79604 -0.627438,-1.56433 -0.345091,-0.7683 -1.009477,-2.46847 -1.476412,-3.77816 -0.466936,-1.30968 -1.927057,-5.11968 -3.244713,-8.46666 -1.317656,-3.34698 -3.213333,-7.93089 -4.212615,-10.18646 -0.999282,-2.25558 -2.025017,-4.51776 -2.279412,-5.02709 -0.263979,-0.52851 -0.689694,-0.95478 -0.991702,-0.993 l -0.529166,-0.067 -0.926042,2.0315 c -0.509323,1.11733 -1.521354,3.05819 -2.248958,4.31302 -0.727605,1.25483 -1.888071,3.40688 -2.578816,4.78234 -0.690744,1.37545 -1.807434,3.81051 -2.481533,5.41124 -0.674099,1.60073 -1.698759,3.74385 -2.277023,4.7625 -0.578264,1.01865 -1.289877,2.4474 -1.581363,3.175 -0.291487,0.7276 -0.554619,1.44198 -0.584739,1.5875 -0.03012,0.14552 -0.329253,0.8599 -0.664739,1.5875 -0.335487,0.7276 -0.954345,2.06478 -1.37524,2.97151 -0.420896,0.90673 -0.990718,2.5736 -1.266271,3.70417 -0.275554,1.13056 -0.661248,2.53182 -0.8571,3.1139 l -0.356093,1.05834 -0.661458,0.0504 c -0.363803,0.0278 -1.048412,-0.12142 -1.521355,-0.33149 z m 26.744057,-91.68459 c 0.897878,-0.46655 2.406412,-1.32191 3.352298,-1.90078 0.945885,-0.57888 2.132849,-1.28846 2.637697,-1.57684 0.504849,-0.28839 1.159692,-0.74369 1.455209,-1.01179 0.295516,-0.2681 1.430271,-1.18588 2.521677,-2.03951 1.091406,-0.85363 2.877344,-2.48135 3.96875,-3.61715 1.091406,-1.13581 2.490391,-2.57975 3.108854,-3.20876 0.618464,-0.62901 1.124479,-1.20949 1.124479,-1.28995 0,-0.0805 0.60148,-0.89104 1.336622,-1.80128 0.735143,-0.91024 1.717408,-2.42857 2.182813,-3.37407 l 0.84619,-1.71909 -0.02185,-2.51424 -0.02185,-2.51425 -1.251275,-3.74964 c -0.688202,-2.0623 -1.60104,-4.27768 -2.02853,-4.92307 -0.427489,-0.64539 -1.854079,-2.2115 -3.170198,-3.48025 -1.349144,-1.30058 -2.904993,-2.53331 -3.566831,-2.82607 -0.645638,-0.28559 -2.7538,-0.75099 -4.684804,-1.03422 -1.931004,-0.28322 -3.945432,-0.63816 -4.476506,-0.78875 -0.531074,-0.1506 -1.840761,-0.26426 -2.910417,-0.2526 -1.069655,0.0117 -2.358228,0.007 -2.863496,-0.01 -0.505268,-0.017 -1.695893,0.29425 -2.645834,0.69157 -0.94994,0.39732 -2.203414,1.07857 -2.785497,1.51389 -0.582083,0.43532 -1.873755,1.57538 -2.870382,2.53346 -0.996627,0.95809 -2.484231,2.57541 -3.305787,3.59405 -0.821556,1.01865 -2.054471,2.78469 -2.73981,3.92453 -0.685339,1.13985 -1.839776,3.58063 -2.565416,5.42396 -0.72564,1.84333 -1.624101,4.52541 -1.99658,5.96017 -0.372478,1.43476 -0.677233,3.07882 -0.677233,3.65348 0,0.57466 0.12637,1.85931 0.280822,2.85478 0.154452,0.99547 0.552602,2.58773 0.884777,3.53835 0.332176,0.95063 1.10755,2.5619 1.723055,3.58059 0.615504,1.01869 1.690575,2.38672 2.389045,3.04006 0.69847,0.65334 1.981733,1.54719 2.851695,1.98635 0.869962,0.43915 2.641195,1.09701 3.936073,1.46189 1.294878,0.36489 2.65198,0.72092 3.015783,0.79118 0.363802,0.0703 1.712768,0.0837 2.997702,0.0298 l 2.336243,-0.0979 z m -8.289369,-5.29603 c -0.509323,-0.29936 -1.246114,-0.96121 -1.637313,-1.47078 -0.463096,-0.60322 -0.768874,-1.4036 -0.876365,-2.2939 -0.0908,-0.75208 -0.127917,-2.49851 -0.08248,-3.88096 l 0.08262,-2.51354 1.313374,0.0698 c 0.722355,0.0384 1.4295,0.18596 1.571432,0.3279 0.142975,0.14297 0.226777,1.42292 0.187913,2.87007 -0.03858,1.43661 0.06254,3.10477 0.224703,3.70701 0.209657,0.7786 0.435117,1.09498 0.780309,1.09498 0.267002,0 2.137648,-0.83348 4.156989,-1.85219 2.175304,-1.09738 4.156735,-1.91543 4.862155,-2.00736 0.654844,-0.0854 1.518047,-0.0287 1.918229,0.12585 0.440275,0.17005 0.727605,0.47978 0.727605,0.78434 0,0.27683 -0.148829,0.6126 -0.33073,0.74616 -0.181901,0.13356 -1.045104,0.52805 -1.918229,0.87665 -0.873125,0.34859 -3.044741,1.38499 -4.825813,2.3031 -2.313702,1.19267 -3.522413,1.66755 -4.233333,1.66321 -0.547261,-0.003 -1.411739,-0.25101 -1.921062,-0.55037 z m -3.643785,-17.50521 c -0.603699,-0.62286 -0.79514,-1.02448 -0.686455,-1.4401 0.09494,-0.36305 0.434925,-0.63877 0.918664,-0.74502 0.502611,-0.11039 1.110377,-10e-4 1.759031,0.31562 0.545098,0.26636 1.029047,0.68986 1.075442,0.94112 0.04639,0.25126 -0.216083,0.75728 -0.583286,1.12448 -0.367203,0.3672 -0.887822,0.66764 -1.156932,0.66764 -0.26911,0 -0.866019,-0.38868 -1.326464,-0.86374 z m 15.020998,-1.25274 c -0.341839,-0.48007 -0.501764,-0.99304 -0.40482,-1.29848 0.08814,-0.2777 0.352898,-0.57883 0.588356,-0.66918 0.235458,-0.0904 1.004832,0.0273 1.70972,0.2614 l 1.281614,0.42569 v 0.52529 c 0,0.28892 -0.123251,0.7556 -0.273892,1.03707 -0.198853,0.37156 -0.556362,0.51178 -1.3049,0.51178 h -1.031008 z"
       id="path2" /></g></svg>
