<?xml version="1.0" encoding="UTF-8" standalone="no"?>
<!-- Created with Inkscape (http://www.inkscape.org/) -->

<svg
   width="178.05092mm"
   height="150.95264mm"
   viewBox="0 0 178.05091 150.95264"
   version="1.1"
   id="svg1"
   xml:space="preserve"
   sodipodi:docname="reverse_swiss_chees_model.svg"
   inkscape:export-filename="permanent.svg"
   inkscape:export-xdpi="96"
   inkscape:export-ydpi="96"
   xmlns:inkscape="http://www.inkscape.org/namespaces/inkscape"
   xmlns:sodipodi="http://sodipodi.sourceforge.net/DTD/sodipodi-0.dtd"
   xmlns="http://www.w3.org/2000/svg"
   xmlns:svg="http://www.w3.org/2000/svg"><sodipodi:namedview
     id="namedview1"
     pagecolor="#ffffff"
     bordercolor="#000000"
     borderopacity="0.25"
     inkscape:showpageshadow="2"
     inkscape:pageopacity="0.0"
     inkscape:pagecheckerboard="0"
     inkscape:deskcolor="#d1d1d1"
     inkscape:document-units="mm" /><defs
     id="defs1" /><path
     style="fill:#ddaabb;fill-opacity:1"
     d="m 13.709776,261.6708 c -0.388056,-0.29965 -0.978386,-0.54986 -1.311845,-0.55603 -0.372991,-0.007 -0.533237,-0.2016 -0.416443,-0.50596 0.113272,-0.29518 -0.211352,-0.7354 -0.804822,-1.09142 -0.547067,-0.32817 -1.4315003,-1.21929 -1.9654053,-1.98026 -0.533905,-0.76096 -1.40703,-1.65889 -1.940278,-1.99538 -1.234985,-0.77932 -5.493326,-5.27147 -6.097633,-6.43243 -0.25242802,-0.48496 -0.65853102,-1.91371 -0.90245302,-3.175 -0.407159,-2.10539 -0.385018,-2.4166 0.270252,-3.79856 0.392559,-0.82791 0.99335202,-1.65493 1.33509502,-1.83782 0.341743,-0.1829 0.815353,-1.02545 1.052468,-1.87234 0.237115,-0.84689 1.172356,-2.50527 2.078313,-3.68529 0.905957,-1.18001 1.844522,-2.43821 2.085699,-2.79598 0.241178,-0.35778 0.955553,-1.41498 1.5875,-2.34934 2.1832513,-3.22801 3.0765323,-4.65442 3.4515583,-5.51152 0.207048,-0.47319 0.688611,-1.07899 1.07014,-1.34623 0.381529,-0.26723 1.024841,-1.13498 1.429581,-1.92834 0.404741,-0.79336 1.724684,-2.64818 2.933207,-4.12183 1.208523,-1.47365 2.7309,-3.47311 3.383061,-4.44325 1.613166,-2.39971 2.784617,-3.85118 6.651228,-8.24112 1.818239,-2.06433 4.060572,-4.86457 4.982962,-6.22277 0.922391,-1.35819 2.014429,-2.77186 2.426751,-3.14148 0.412322,-0.36962 0.749676,-0.8012 0.749676,-0.95906 0,-1.00185 12.842359,-17.6396 16.580557,-21.48072 0.873125,-0.89716 3.01625,-3.35298 4.7625,-5.45736 4.616602,-5.56342 8.91479,-10.27585 11.684127,-12.81021 1.334842,-1.22158 3.389008,-3.11477 4.564812,-4.20709 1.175805,-1.09231 2.460152,-2.12985 2.854104,-2.30564 0.393952,-0.17579 1.04082,-0.98135 1.437483,-1.79014 0.396663,-0.80878 1.731692,-2.72575 2.96673,-4.25991 2.906223,-3.61011 4.53858,-5.78973 4.53858,-6.06018 0,-0.11878 0.48834,-0.67214 1.085201,-1.22969 1.306582,-1.22054 1.353544,-1.01752 -1.660649,-7.17876 -1.235726,-2.52591 -2.246775,-4.85507 -2.246775,-5.1759 0,-0.32084 -0.32651,-1.32146 -0.725578,-2.22362 -0.594664,-1.34434 -0.737878,-2.46632 -0.79375,-6.21846 -0.03749,-2.51798 -0.174923,-4.57816 -0.305397,-4.57816 -0.130473,0 -0.412056,-0.52975 -0.625739,-1.17722 -0.340973,-1.03316 -0.255584,-1.47563 0.697814,-3.61597 1.983188,-4.452175 2.896848,-5.94562 5.068487,-8.284812 1.183721,-1.275051 3.342844,-4.03801 4.798053,-6.13991 1.455208,-2.1019 3.598333,-5.01071 4.7625,-6.464022 1.164167,-1.453313 2.432866,-3.055979 2.819333,-3.56148 0.386466,-0.505501 2.026579,-2.569911 3.644699,-4.587578 1.61811,-2.017668 3.31859,-4.240168 3.77883,-4.938889 0.46023,-0.698722 1.39516,-1.984778 2.07761,-2.857903 0.68245,-0.873125 2.15253,-2.936875 3.26686,-4.586112 2.34053,-3.464053 3.80655,-5.282718 7.62238,-9.455884 3.54497,-3.876957 6.51873,-7.869044 12.2717,-16.474015 4.23926,-6.340838 6.32039,-9.112701 12.09985,-16.115782 1.07038,-1.297003 2.26072,-2.963873 2.6452,-3.704163 0.38448,-0.7403 1.10905,-1.74286 1.61016,-2.22793 0.5011,-0.48507 1.18724,-1.14688 1.52474,-1.47069 0.33751,-0.32381 1.04452,-0.69677 1.57114,-0.82882 0.53881,-0.1351 1.06127,-0.57183 1.1948,-0.99876 0.13052,-0.41727 0.61246,-1.20742 1.07098,-1.7558802 0.45852,-0.54847 0.83367,-1.22874 0.83367,-1.51172 0,-0.28298 0.26368,-0.91694 0.58596,-1.4088 0.32228,-0.49186 0.83821,-1.39545 1.14653,-2.00799 0.58457,-1.16141 2.80403,-2.2966 7.08695,-3.62479999 4.70138,-1.45796 16.77236,-1.11476 26.45834,0.75225999 3.58494,0.69102 14.06062,4.71629 15.75505,6.05387 0.74507,0.58816 2.32784,1.68438 3.51727,2.4360502 2.80112,1.77018 8.8333,7.52641 9.45628,9.02369 0.26601,0.63933 0.80029,3.067419 1.18729,5.395753 0.94799,5.703459 0.67234,11.108496 -0.71201,13.961614 -0.51062,1.052362 -1.27188,3.095371 -1.69169,4.540018 -1.05057,3.615173 -3.4667,8.250429 -5.60996,10.762468 -0.98554,1.155116 -1.88241,2.385428 -1.99305,2.734028 -0.11064,0.348599 -0.35602,0.633817 -0.54529,0.633817 -0.58583,0 -3.84487,3.228213 -5.87641,5.820833 -1.06426,1.358195 -2.27945,2.786945 -2.70043,3.175 -1.18703,1.094197 -5.25836,5.832425 -6.40527,7.454471 -0.56672,0.801486 -2.63108,3.500236 -4.58749,5.997222 -7.49834,9.570243 -10.07668,13.169282 -10.01133,13.974581 0.29128,3.589829 -0.67782,5.205671 -3.12209,5.205671 -1.28372,0 -1.52918,0.182237 -3.63201,2.696494 -4.53654,5.42412 -5.83211,7.03713 -6.90143,8.59239 -0.60031,0.87313 -1.95356,2.55234 -3.00721,3.73159 -1.05366,1.17925 -3.91208,4.59785 -6.35203,7.59689 -2.43996,2.99904 -4.70747,5.67785 -5.0389,5.95292 -0.33144,0.27507 -1.49304,1.69834 -2.58133,3.16284 -1.0883,1.46449 -2.88422,3.64524 -3.99092,4.84611 -3.04527,3.30437 -5.84435,6.91814 -6.41337,8.28001 -1.08818,2.60439 -6.76541,6.35558 -11.71451,7.74029 -2.45664,0.68735 -9.35024,0.61717 -11.64167,-0.11851 -0.97014,-0.31147 -2.55764,-0.6715 -3.52778,-0.80006 -0.97014,-0.12857 -2.87195,-0.53813 -4.22624,-0.91014 -1.35429,-0.37201 -2.49468,-0.67638 -2.5342,-0.67638 -0.0395,0 -1.94771,1.86808 -4.240424,4.15128 -4.072502,4.0556 -5.661481,5.87539 -7.002425,8.01955 -0.364029,0.58209 -1.239697,1.77271 -1.945928,2.64584 -0.706231,0.87312 -2.201082,3.33375 -3.321892,5.46805 -1.12081,2.13431 -2.366339,4.24044 -2.767844,4.6803 -0.725639,0.79495 -5.26935,6.95318 -11.690826,15.84494 -1.847078,2.55763 -3.495604,4.73508 -3.663392,4.83878 -0.167788,0.1037 -1.512577,1.97984 -2.988419,4.16921 -1.475843,2.18936 -3.541635,4.85379 -4.590649,5.92094 -1.049015,1.06715 -2.762528,3.07558 -3.807808,4.46317 -1.04528,1.38759 -2.853009,3.54428 -4.017176,4.79265 -2.308184,2.47513 -3.028729,3.34702 -5.165786,6.25081 -0.779064,1.05858 -2.019133,2.64608 -2.755708,3.52778 -1.916272,2.29383 -3.458853,4.35341 -5.824565,7.7767 -1.139728,1.64924 -2.862942,3.95111 -3.829364,5.11528 -0.966423,1.16417 -2.011057,2.674 -2.321411,3.35517 -0.310353,0.68118 -1.687997,2.34806 -3.061431,3.70417 -1.373434,1.35611 -3.139431,3.41816 -3.924438,4.58233 -0.785007,1.16416 -2.802998,3.68562 -4.484423,5.60324 -1.681426,1.91761 -3.023963,3.74324 -2.983415,4.05694 0.08924,0.69041 -0.7049,2.44694 -1.506987,3.33326 -0.804984,0.88953 -3.103008,1.14776 -4.006363,0.4502 z m 3.40147,-9.19071 c 3.02437,-3.20395 4.505437,-5.11473 5.757492,-7.42793 0.525101,-0.97014 1.702112,-2.55764 2.615581,-3.52778 4.160953,-4.41909 7.528904,-8.63921 11.46651,-14.3678 1.297345,-1.88743 3.015699,-4.1893 3.818567,-5.11528 0.802867,-0.92597 2.334645,-2.87421 3.403952,-4.32942 1.069306,-1.45521 3.233979,-4.07459 4.810384,-5.82084 1.576406,-1.74625 3.491672,-3.96875 4.256146,-4.93888 0.764475,-0.97014 2.581068,-3.13389 4.036872,-4.80833 1.455805,-1.67444 3.519711,-4.45256 4.586457,-6.17361 1.066747,-1.72105 2.433044,-3.6848 3.036217,-4.3639 3.70885,-4.1757 15.926376,-21.34421 17.699921,-24.87257 1.561549,-3.10661 6.581561,-10.68506 8.177726,-12.34548 0.932592,-0.97014 2.289873,-2.63702 3.016179,-3.70417 0.726305,-1.06715 1.725577,-2.37518 2.220603,-2.90674 0.495026,-0.53155 0.832246,-1.01796 0.749377,-1.08091 -2.158254,-1.63943 -3.628249,-3.07606 -4.913171,-4.80164 -0.873125,-1.17256 -1.825625,-2.12956 -2.116667,-2.12668 -1.27049,0.0126 -4.156272,3.51088 -4.707338,5.70651 -0.25725,1.02496 -3.148683,4.67792 -4.616815,5.83275 -0.498522,0.39214 -0.906403,0.89249 -0.906403,1.11191 0,0.21941 -0.396875,0.54982 -0.881945,0.73424 -0.485069,0.18443 -0.881944,0.498 -0.881944,0.69683 0,0.19883 -0.220661,0.36151 -0.490358,0.36151 -1.358719,0 -7.370997,5.1881 -10.629307,9.17222 -1.031425,1.26118 -2.941155,3.40431 -4.243846,4.7625 -1.30269,1.35819 -3.20215,3.50132 -4.221022,4.7625 -1.018872,1.26118 -2.365891,2.76931 -2.993376,3.35139 -2.437334,2.26098 -9.547233,11.19681 -13.192523,16.58055 -1.313745,1.94028 -2.940812,4.32153 -3.615703,5.29167 -1.412644,2.03064 -4.691149,6.18231 -5.293072,6.70278 -1.551053,1.34115 -10.633523,13.41657 -12.470992,16.58056 -0.450723,0.77611 -1.09597,1.72861 -1.433883,2.11666 -0.337913,0.38806 -1.203926,1.81681 -1.924474,3.175 -1.768047,3.33268 -2.668408,4.79224 -3.419553,5.54338 -0.346626,0.34663 -0.630229,0.79793 -0.630229,1.0029 0,0.20496 -0.462936,0.80028 -1.028748,1.32291 -0.565811,0.52264 -1.543441,1.90276 -2.1725113,3.06692 -0.62907,1.16417 -1.594883,2.63813 -2.146252,3.27547 -0.551369,0.63734 -1.002489,1.37545 -1.002489,1.64025 0,0.26479 -0.555625,1.30709 -1.234723,2.31623 -1.421396,2.11218 -1.472923,2.34629 -0.578862,2.63006 0.360723,0.11449 2.359938,1.87144 4.4427,3.90433 2.2056673,2.15285 4.0761243,3.69616 4.4796613,3.69616 0.404529,0 1.724382,-1.09281 3.171861,-2.62623 z M 124.83226,147.48008 c 3.03508,-1.06675 3.82691,-1.543 5.05423,-3.0399 0.60469,-0.73751 1.4739,-1.73781 1.93157,-2.22288 0.45767,-0.48507 1.45493,-1.67227 2.21612,-2.63823 0.76119,-0.96595 2.81274,-3.4354 4.55899,-5.48765 1.74625,-2.05225 4.56684,-5.46879 6.26798,-7.59232 1.70113,-2.12353 4.0454,-4.97221 5.20949,-6.33041 1.16408,-1.35819 3.10063,-3.73944 4.30346,-5.29167 1.20282,-1.55222 2.83055,-3.53659 3.61716,-4.40972 0.78662,-0.87312 2.21502,-2.61937 3.17423,-3.88055 0.95921,-1.26118 3.03583,-3.80118 4.61471,-5.64445 1.57889,-1.843261 3.76116,-4.510654 4.8495,-5.927536 l 1.9788,-2.57615 -0.10319,-5.714128 c -0.0887,-4.911677 -0.20368,-5.912294 -0.8188,-7.125239 -0.39359,-0.776111 -0.80351,-2.302673 -0.91092,-3.39236 -0.10742,-1.089687 -0.75639,-3.65805 -1.44217,-5.707473 -0.68578,-2.049423 -1.4936,-5.387834 -1.79516,-7.418692 -0.30155,-2.030857 -0.94651,-5.018745 -1.43324,-6.63975 -0.48674,-1.621004 -1.11196,-4.063188 -1.38938,-5.427073 -0.27743,-1.363886 -0.82289,-3.222761 -1.21213,-4.130833 -1.24829,-2.912128 -1.30311,-3.992546 -0.25203,-4.966654 0.50494,-0.467967 0.91808,-0.964284 0.91808,-1.102925 0,-0.262003 -2.36707,-3.475743 -5.55309,-7.539363 -1.06219,-1.354785 -2.24705,-3.408967 -2.7846,-4.827656 -0.51463,-1.358194 -1.06731,-2.639197 -1.22818,-2.846673 -0.16087,-0.207477 -0.53884,-1.477477 -0.83993,-2.822223 -0.60293,-2.692823 -1.53682,-5.090822 -1.98259,-5.090822 -0.15773,0 -0.47666,0.35718 -0.70874,0.79375 -0.45906,0.86354 -0.53735,0.95019 -5.41061,5.987645 -3.68154,3.80559 -6.1377,6.926833 -10.20959,12.974157 -6.59962,9.801362 -9.28794,13.493236 -12.71571,17.4625 -4.56009,5.280448 -5.99173,7.029192 -8.66424,10.583334 -4.1438,5.510801 -5.8429,7.700384 -7.84648,10.111566 -1.11566,1.342627 -2.02847,2.558063 -2.02847,2.700968 0,0.142906 0.33346,0.545342 0.74101,0.894302 0.61264,0.524557 0.69688,0.858995 0.48624,1.930485 -0.48879,2.486482 -0.55298,14.49396 -0.18512,34.633513 0.36647,20.06328 0.54311,22.74999 1.76259,26.80878 0.20366,0.67782 0.37028,1.66389 0.37028,2.19127 0,1.09294 0.66371,1.35032 5.7643,2.23539 1.58332,0.27474 3.43438,0.64541 4.11348,0.82371 2.21093,0.58049 5.36941,0.43967 7.58215,-0.33804 z m -15.85242,-11.33849 c -0.74238,-1.05989 -0.70162,-1.31128 0.39877,-2.45984 1.13351,-1.18313 1.59379,-1.22034 3.15555,-0.25512 1.30575,0.807 1.47417,1.52258 0.639,2.71496 -0.42557,0.60759 -0.89744,0.78405 -2.09666,0.78405 -1.19922,0 -1.67109,-0.17646 -2.09666,-0.78405 z m 14.63268,-3.4261 c -0.55922,-1.0449 -0.44079,-1.69411 0.41886,-2.29624 2.21416,-1.55085 5.18166,0.36166 3.66376,2.36125 -0.68897,0.90761 -3.58678,0.86147 -4.08262,-0.065 z m 5.5781,-13.22986 c -0.84994,-1.86541 0.90157,-3.01656 3.488,-2.2924 1.21616,0.3405 1.50482,0.57787 1.50482,1.23742 0,1.12354 -1.27433,1.91443 -3.08467,1.91443 -1.26474,0 -1.58159,-0.14271 -1.90815,-0.85945 z m -6.80749,-7.22573 c -0.24144,-0.39065 1.75168,-0.8815 2.27246,-0.55964 0.20193,0.1248 0.27581,0.37469 0.16418,0.55531 -0.2622,0.42425 -2.17501,0.42765 -2.43664,0.004 z m 12.20232,-5.16154 c -0.41513,-0.52775 -0.75478,-1.06654 -0.75478,-1.19732 0,-1.42907 3.37936,-2.34666 4.59402,-1.24741 1.37588,1.24516 0.5244,2.73485 -1.81077,3.16802 -1.10968,0.20584 -1.37089,0.1127 -2.02847,-0.72329 z m -21.30409,0.30354 c -0.33955,-0.0887 -0.61736,-0.29546 -0.61736,-0.45939 0,-0.16393 -0.0917,-0.53689 -0.20367,-0.8288 -0.27688,-0.72154 1.06725,-1.99641 2.10486,-1.99641 1.26642,0 2.47343,1.11576 2.18615,2.02089 -0.19924,0.62777 -1.9495,1.59942 -2.64068,1.46597 -0.11657,-0.0225 -0.48975,-0.11353 -0.8293,-0.20226 z m 35.59704,-4.98807 c -0.32111,-0.35483 -0.58384,-0.89401 -0.58384,-1.19818 0,-0.59003 2.24604,-2.742792 2.86163,-2.742792 0.4583,0 2.43004,1.943102 2.43004,2.394732 0,0.18279 -0.32902,0.75062 -0.73116,1.26186 -0.90282,1.14774 -3.05599,1.30172 -3.97667,0.28438 z m -37.05577,-5.868838 c -0.75161,-1.147101 -0.72039,-1.454388 0.21431,-2.109074 1.08189,-0.757789 2.47333,-0.687018 3.57809,0.181989 1.11517,0.877193 1.14639,1.168641 0.22397,2.091062 -1.05676,1.056763 -3.27588,0.966163 -4.01637,-0.163977 z m 17.26808,-2.843647 c -0.49747,-0.536777 -0.90449,-1.092089 -0.90449,-1.234027 0,-0.459387 0.85396,-0.945424 2.06485,-1.17522 1.23984,-0.23529 3.22682,0.607429 3.22682,1.368562 0,0.825354 -0.94189,1.604327 -2.18348,1.805809 -1.11039,0.180192 -1.43067,0.06899 -2.2037,-0.765124 z m 29.16982,-13.650717 c -0.88889,-0.428697 -1.11564,-2.281436 -0.37041,-3.026659 0.60268,-0.602687 3.1565,-0.524003 4.08428,0.125837 2.35418,1.648933 -0.95319,4.232247 -3.71387,2.900822 z m -8.90578,-0.942986 c -1.02076,-0.284026 -1.23378,-0.94616 -0.73038,-2.270213 0.31167,-0.819737 0.55576,-0.942349 1.87602,-0.942349 1.48345,0 3.08584,0.751463 3.08584,1.447151 0,0.191845 -0.38966,0.738468 -0.86591,1.214718 -0.8679,0.867896 -1.72284,1.007785 -3.36557,0.550693 z m -6.50252,-2.708064 c -0.64669,-0.646688 -1.06824,-2.075961 -0.75958,-2.575377 0.11798,-0.1909 0.78528,-0.535462 1.48289,-0.765693 1.10944,-0.366148 1.3851,-0.331785 2.19995,0.274239 0.51236,0.381063 0.98102,1.02434 1.04146,1.429505 0.25349,1.699351 -2.68795,2.914091 -3.96472,1.637326 z m -20.65392,-4.364542 c -0.83234,-0.133741 -1.37082,-0.479801 -1.67872,-1.078845 -0.76355,-1.485554 -0.42243,-2.565407 1.0587,-3.351389 l 1.32957,-0.705555 1.31626,0.766749 c 1.1023,0.642109 1.30764,0.944759 1.26319,1.861814 -0.0924,1.906149 -1.30011,2.826802 -3.289,2.507226 z m 12.6025,-6.045991 c -0.7008,-0.408175 -0.86392,-2.599949 -0.22298,-2.99607 0.21691,-0.134059 0.95929,-0.37115 1.64973,-0.526869 2.73188,-0.616139 4.42826,1.629324 2.48293,3.286613 -0.79664,0.678692 -2.9289,0.807579 -3.90968,0.236326 z m 17.29766,-4.446031 c -0.63326,-0.166318 -1.22845,-2.249377 -0.82789,-2.897491 0.12305,-0.199102 0.76793,-0.464096 1.43306,-0.588876 0.91023,-0.170761 1.51792,-0.03615 2.45707,0.544276 1.48985,0.920776 1.56162,1.473824 0.31822,2.451886 -0.87644,0.689405 -2.00106,0.852488 -3.38046,0.490205 z m -4.15669,-15.986823 c -0.38805,-0.388056 -0.70555,-1.014054 -0.70555,-1.391107 0,-0.814919 1.26233,-1.783893 2.32397,-1.783893 0.92154,0 2.61492,1.273077 2.61492,1.965882 0,0.86155 -1.35827,1.914673 -2.46945,1.914673 -0.58796,0 -1.37191,-0.31358 -1.76389,-0.705555 z m -6.15361,-2.900718 c -0.81836,-1.168377 -0.70563,-2.343569 0.24458,-2.549677 1.66818,-0.361838 2.24032,-0.341257 3.35139,0.120555 1.208,0.502098 1.44911,1.283072 0.78134,2.53081 -0.55863,1.043817 -3.62485,0.972587 -4.37731,-0.101688 z m -40.56323,98.768077 c -0.24044,-1.85591 -0.29478,-2.58198 -0.68987,-9.21724 -0.28688,-4.81796 -0.659789,-24.47183 -0.708104,-37.320047 -0.02165,-5.756169 -0.140897,-10.567292 -0.265001,-10.691385 -0.124105,-0.124093 -1.110612,0.854874 -2.192238,2.175484 -1.081626,1.320609 -2.408836,2.930091 -2.949355,3.576626 -2.407828,2.88009 -2.855004,3.703106 -2.470529,4.546937 0.327602,0.719009 0.138623,1.018417 -1.787764,2.832437 -2.51145,2.364956 -3.882691,5.015938 -3.279412,6.339988 0.451531,0.991 1.130207,1.02484 1.968831,0.0982 1.297967,-1.43424 5.561054,-0.61218 4.959177,0.95628 -0.108172,0.2819 -0.196677,0.65423 -0.196677,0.8274 0,0.47944 -1.964345,1.39132 -2.997128,1.39132 -0.506161,0 -1.309833,-0.39433 -1.797443,-0.88194 -0.48507,-0.48507 -0.946675,-0.88195 -1.02579,-0.88195 -0.07912,0 -0.485777,0.75406 -0.903693,1.6757 -0.620326,1.368 -0.76169,2.35584 -0.769877,5.37986 -0.01149,4.2452 0.576104,6.32689 3.783973,13.40555 1.011177,2.23132 2.367699,5.40632 3.014493,7.05556 1.535121,3.91434 3.495249,7.0056 5.697907,8.98598 2.42002,2.1758 2.91709,2.12727 2.6085,-0.25473 z M 89.394729,119.83286 c -0.655197,-0.78946 -0.304334,-1.65706 0.954408,-2.36001 1.982001,-1.10685 3.819328,0.13998 2.966022,2.01278 -0.328578,0.72115 -0.641308,0.85945 -1.943458,0.85945 -0.926246,0 -1.723244,-0.2065 -1.976972,-0.51222 z M 181.39357,80.481191 c 0.3252,-0.485069 1.54377,-2.092793 2.70794,-3.572719 1.16416,-1.479926 3.06916,-3.93221 4.23333,-5.449519 1.16417,-1.51731 3.4751,-4.354587 5.13542,-6.305059 3.34061,-3.924426 4.56597,-5.57715 4.56597,-6.158411 0,-0.212583 -0.52819,-0.386514 -1.17375,-0.386514 -1.37938,0 -7.09133,-1.834073 -9.50952,-3.053449 -0.92809,-0.46799 -2.51559,-1.378281 -3.52778,-2.022867 -1.01219,-0.644587 -3.11034,-1.809785 -4.66256,-2.589329 -1.55222,-0.779544 -4.45095,-2.256099 -6.44161,-3.281233 -1.99067,-1.025134 -3.70539,-1.777884 -3.8105,-1.672777 -0.1051,0.105106 0.597,3.424089 1.56024,7.375517 0.96323,3.951429 2.15712,9.010041 2.65308,11.24136 0.49596,2.23132 1.4739,5.88257 2.17319,8.113889 1.41019,4.499688 2.12448,7.403385 2.47323,10.054167 l 0.23206,1.763889 1.4,-1.5875 c 0.77,-0.873125 1.66607,-1.984375 1.99126,-2.469445 z M 180.12763,74.1183 c -0.74331,-0.298619 -1.49418,-1.592044 -1.49418,-2.57382 0,-0.553683 4.04359,-2.15831 4.58916,-1.821128 0.62839,0.38837 1.34016,2.298235 1.14073,3.060879 -0.19401,0.741893 -1.81476,1.712147 -2.80195,1.677377 -0.34919,-0.0123 -0.99438,-0.166788 -1.43376,-0.343308 z m 8.79505,-10.075165 c -0.59972,-0.420056 -0.77644,-0.842134 -0.69586,-1.66192 0.0947,-0.963244 0.27642,-1.133603 1.47245,-1.380335 1.09867,-0.226645 1.59686,-0.137829 2.55764,0.45597 0.65627,0.405593 1.19321,1.01739 1.19321,1.359548 0,1.603853 -2.87634,2.383214 -4.52744,1.226737 z m -5.67897,-0.806301 c -0.96637,-0.174138 -1.26718,-0.430733 -1.49119,-1.271997 -0.34516,-1.296282 0.16226,-1.891875 1.84436,-2.164842 0.91196,-0.147991 1.44958,-0.0083 2.18043,0.566603 0.53352,0.419664 0.97003,0.917468 0.97003,1.106233 0,0.437268 -1.63982,2.090251 -2.01244,2.028587 -0.15434,-0.02554 -0.82537,-0.144605 -1.49119,-0.264584 z m -6.11346,-2.16812 c -1.59538,-0.280496 -1.52379,-0.207165 -1.77161,-1.814865 -0.22691,-1.4721 0.0671,-1.703214 2.16684,-1.703214 1.61826,0 2.87186,0.836832 2.87186,1.917086 0,1.380412 -1.19395,1.96549 -3.26709,1.600993 z m 24.91596,-6.913108 c 0.75028,-0.282043 2.36984,-1.401252 3.59904,-2.487132 1.97734,-1.746798 2.41464,-2.385552 3.79459,-5.542611 0.85783,-1.962556 1.6797,-4.123908 1.82637,-4.803006 0.14668,-0.679097 0.65385,-2.107847 1.12704,-3.175 1.57719,-3.556882 1.80323,-9.863449 0.58502,-16.322172 -0.28087,-1.489101 -6.50173,-8.194975 -8.57855,-9.247385 -0.93884,-0.47574 -2.44075,-1.50006 -3.33758,-2.27626 -1.02837,-0.8900502 -2.44199,-1.6644102 -3.82756,-2.0966802 -1.20833,-0.37697 -3.46696,-1.2011 -5.01918,-1.83139 -1.55223,-0.63029 -3.45723,-1.28554 -4.23334,-1.45611 -2.87375,-0.63156 -9.70679,-1.1243 -15.875,-1.14477 -5.82676,-0.0193 -6.53895,0.0477 -8.64305,0.81382 -3.55609,1.29476 -4.84979,2.83649 -4.22073,5.02991 0.61388,2.1404602 0.42677,3.4431702 -0.62439,4.3473402 -0.93529,0.8045 -0.95135,0.87909 -0.52917,2.45759 0.23947,0.89534 0.4354,2.15006 0.4354,2.78825 0,1.405378 2.1091,7.88856 3.03732,9.336473 1.47495,2.300724 7.72555,10.430733 9.55291,12.425251 1.72714,1.885116 7.30091,5.073464 20.07995,11.486273 5.18107,2.599976 7.48967,2.961153 10.85091,1.697609 z m -22.2461,-25.620943 c -0.98009,-1.080147 -0.71218,-3.247094 0.55632,-4.499757 1.43655,-1.418615 2.76782,-1.824903 4.75956,-1.452563 2.62217,0.490195 2.97632,1.524185 1.30994,3.824558 -2.10813,2.910192 -5.05671,3.857073 -6.62582,2.127762 z"
     id="path1"
     sodipodi:nodetypes="scsssssssssssssssssssssssssssssssssssssssssssssssssssssssssssssssssssssssscssssssssssssssssssssssssssssssssssssssssssssssssssssssssssssssssssssssssssssssssssssssssssssscsssssssssssssssssssssssssssssssssssssssssssssssssssssssssssssssssssssssssssssssssssssssssssssssssscssssssssssssssssssssssssssssssssssssssssssssssssssssssssssssssssssscsssssssssssssssssssssssssssssssssssssccsssssssssssss" /></svg>
