<?xml version="1.0" encoding="UTF-8" standalone="no"?>
<!-- Created with Inkscape (http://www.inkscape.org/) -->

<svg
   width="163.75246mm"
   height="196.32864mm"
   viewBox="0 0 163.75245 196.32864"
   version="1.1"
   id="svg1"
   xml:space="preserve"
   xmlns="http://www.w3.org/2000/svg"
   xmlns:svg="http://www.w3.org/2000/svg"><defs
     id="defs1" /><g
     id="layer1"
     transform="translate(54.671244,-242.46457)"><path
       style="fill:#ddaabb;fill-opacity:1"
       d="m -74.729445,414.91883 c -0.545703,-0.2499 -0.992187,-0.55732 -0.992187,-0.68316 0,-0.12583 -1.71764,-1.94482 -3.816977,-4.04219 -2.099337,-2.09737 -4.051456,-4.19883 -4.338042,-4.6699 -0.286587,-0.47108 -0.601277,-1.57115 -0.699312,-2.44461 -0.110222,-0.98204 -0.06384,-1.89078 0.121542,-2.38125 0.164883,-0.43623 0.580756,-1.0908 0.924164,-1.4546 0.343407,-0.36381 0.865476,-1.30049 1.160152,-2.08152 0.294677,-0.78104 0.714981,-1.61448 0.934009,-1.85209 0.219029,-0.23761 0.61212,-0.67834 0.873536,-0.9794 0.261417,-0.30106 0.743193,-0.92131 1.070615,-1.37835 0.327422,-0.45703 0.595313,-0.92727 0.595313,-1.04497 0,-0.1177 0.47625,-0.79033 1.058333,-1.49473 0.582083,-0.7044 1.058333,-1.3994 1.058333,-1.54445 0,-0.14505 0.297656,-0.61747 0.661459,-1.04983 0.363802,-0.43235 0.661458,-0.95137 0.661458,-1.15336 0,-0.202 0.218123,-0.484 0.484719,-0.62668 0.266595,-0.14268 0.772611,-0.83148 1.124479,-1.53067 0.351868,-0.69918 1.304454,-2.04515 2.116859,-2.99104 0.812404,-0.94588 1.995269,-2.49369 2.62859,-3.43958 0.633321,-0.94589 1.992689,-2.73076 3.020818,-3.9664 1.02813,-1.23563 2.509006,-2.96203 3.290836,-3.83645 0.781831,-0.87442 1.898756,-2.30423 2.482057,-3.17736 0.583301,-0.87312 1.196892,-1.70656 1.363536,-1.85208 0.166644,-0.14552 0.980866,-1.27662 1.809383,-2.51354 0.828518,-1.23693 2.754223,-3.85631 4.279345,-5.82084 1.525122,-1.96453 3.403974,-4.32552 4.175226,-5.24665 0.771252,-0.92113 2.116651,-2.48013 2.989776,-3.46444 0.873125,-0.98431 2.301875,-2.6042 3.175,-3.59975 0.873125,-0.99555 2.039654,-2.41312 2.592288,-3.15015 0.552633,-0.73702 1.285954,-1.6377 1.629601,-2.00151 0.343647,-0.3638 1.730523,-1.79255 3.081946,-3.175 1.351423,-1.38244 3.022456,-2.98979 3.713407,-3.57187 0.690951,-0.58208 2.007076,-1.70191 2.924724,-2.4885 0.917648,-0.78659 1.973856,-1.98575 2.347129,-2.66479 0.373273,-0.67904 1.385305,-2.09988 2.248958,-3.15742 0.863654,-1.05754 2.02889,-2.56936 2.589414,-3.3596 0.560524,-0.79023 1.245134,-1.55774 1.521354,-1.70557 0.276221,-0.14783 0.50222,-0.52296 0.50222,-0.83363 0,-0.31066 -0.782692,-2.18099 -1.739316,-4.15628 -0.956624,-1.97529 -1.807066,-3.94934 -1.889871,-4.38678 -0.08281,-0.43744 -0.306037,-1.10505 -0.496071,-1.48357 -0.190034,-0.37852 -0.462519,-1.83186 -0.605521,-3.22964 -0.172697,-1.68802 -0.170835,-2.86436 0.0055,-3.50315 l 0.26555,-0.96174 -0.395377,-0.43883 c -0.217457,-0.24136 -0.476416,-0.76356 -0.575463,-1.16045 -0.12869,-0.51567 0.06201,-1.30856 0.668171,-2.77813 0.466541,-1.13108 1.199088,-2.67669 1.627882,-3.4347 0.428793,-0.75801 1.291589,-1.82957 1.917323,-2.38125 0.625734,-0.55168 1.899716,-2.13415 2.83107,-3.5166 0.931354,-1.38244 2.047828,-2.98979 2.481053,-3.57187 0.433225,-0.58208 1.394331,-1.77271 2.13579,-2.64583 0.741459,-0.87313 1.631422,-2.00422 1.977695,-2.51355 0.346273,-0.50932 0.718934,-0.98908 0.828136,-1.06613 0.109202,-0.0771 0.6507195,-0.74653 1.2033726,-1.48772 0.552653,-0.7412 2.4329022,-3.238 4.1783313,-5.54845 1.7454292,-2.31045 3.5908979,-4.88324 4.10104159,-5.7173 0.51014367,-0.83407 1.83597537,-2.50636 2.94629261,-3.71621 1.1103173,-1.20985 2.9799424,-3.38494 4.1547225,-4.83352 1.1747801,-1.44858 2.3668509,-2.93477 2.6490462,-3.30262 0.2821953,-0.36786 2.2647502,-3.28489 4.4056782,-6.48229 2.140927,-3.19741 4.802915,-6.9273 5.915528,-8.28866 1.112613,-1.36135 2.535794,-3.08776 3.162624,-3.83646 0.626831,-0.74869 1.424228,-1.91047 1.771994,-2.58172 0.347767,-0.67125 1.220648,-1.71305 1.939736,-2.3151 0.719088,-0.60206 1.475456,-1.09465 1.680818,-1.09465 0.205362,0 0.51626,-0.14287 0.690885,-0.3175 0.174625,-0.17462 0.3175,-0.51106 0.3175,-0.74763 0,-0.23657 0.297657,-0.70976 0.661459,-1.05154 0.363802,-0.34177 0.661458,-0.89128 0.661458,-1.22113 0,-0.32984 0.121327,-0.6747 0.269615,-0.76635 0.148288,-0.0917 0.555475,-0.73075 0.904861,-1.42023 l 0.635247,-1.2536 1.807118,-0.68019 c 0.993914,-0.3741 2.521492,-0.90288 3.394617,-1.17507 l 1.5875,-0.49488 h 4.7625 c 2.963641,0 6.361486,0.18671 8.995833,0.49432 3.108076,0.36293 4.901455,0.72203 6.746875,1.35099 1.382448,0.47116 3.704166,1.30629 5.159375,1.85585 1.598087,0.60351 3.326868,1.49598 4.365625,2.25372 0.945885,0.68999 2.290607,1.60606 2.98827,2.03571 0.697663,0.42965 2.395251,1.89395 3.772416,3.254 l 2.503938,2.47282 0.295577,1.07879 c 0.162567,0.59334 0.425106,1.91223 0.583419,2.93088 0.158313,1.01865 0.260311,3.63802 0.226661,5.82083 l -0.06118,3.96875 -0.658056,1.32292 c -0.361931,0.7276 -0.943287,2.27542 -1.291902,3.43958 -0.348615,1.16417 -1.122626,3.06917 -1.720025,4.23334 -0.5974,1.16416 -1.684755,2.83104 -2.416345,3.70416 -0.73159,0.87313 -2.427485,2.72362 -3.768655,4.11221 -1.34117,1.38859 -3.855094,4.14354 -5.586497,6.12212 -1.731403,1.97858 -3.270361,3.81902 -3.419906,4.08988 -0.149545,0.27085 -1.362594,1.86168 -2.695665,3.53517 -1.333071,1.67349 -3.812473,4.88713 -5.509782,7.14143 l -3.086016,4.09873 v 1.59709 c 0,1.01727 -0.149531,1.81057 -0.411878,2.18513 l -0.411878,0.58803 h -1.069788 -1.069789 l -0.833438,0.88127 c -0.45839,0.4847 -1.551576,1.70509 -2.429301,2.71198 -0.877725,1.00689 -2.043558,2.42602 -2.59074,3.15363 -0.547182,0.7276 -1.376856,1.82095 -1.84372,2.42966 -0.466863,0.60871 -2.218061,2.74168 -3.891551,4.73993 -1.673489,1.99825 -3.964333,4.7149 -5.090762,6.037 -1.12643,1.32211 -2.733774,3.29471 -3.571875,4.38356 -0.838102,1.08886 -2.240997,2.75573 -3.117546,3.70417 -0.876548,0.94844 -2.067173,2.30319 -2.645833,3.01056 -0.57866,0.70737 -1.409296,1.95753 -1.845858,2.77813 l -0.79375,1.49199 -1.846376,1.37097 c -1.015507,0.75404 -2.630225,1.67851 -3.588264,2.05438 -0.958038,0.37588 -2.6274819,0.8717 -3.7098741,1.10184 -1.3076802,0.27804 -2.5999957,0.36763 -3.8516382,0.26702 -1.0360087,-0.0833 -2.8814774,-0.38285 -4.10104151,-0.66573 -1.21956419,-0.28288 -3.38755089,-0.77533 -4.81774839,-1.09433 l -2.6003591,-0.58 -0.8366738,0.7573 c -0.4601706,0.41651 -0.9395001,0.91768 -1.0651766,1.1137 -0.1256765,0.19602 -0.5352554,0.61274 -0.9101753,0.92604 -0.37492,0.3133 -1.285273,1.20666 -2.023006,1.98523 -0.737733,0.77857 -1.962924,2.26685 -2.722646,3.30729 -0.759722,1.04044 -1.838287,2.48702 -2.396811,3.21462 -0.558524,0.72761 -1.703054,2.62822 -2.5434,4.22359 -0.840346,1.59536 -1.852077,3.26988 -2.248292,3.72114 -0.396214,0.45127 -1.881551,2.42019 -3.300749,4.37538 -1.419197,1.95519 -3.821324,5.22177 -5.338059,7.25906 -1.516736,2.03729 -3.441282,4.7162 -4.276771,5.95312 -0.835488,1.23693 -2.534315,3.39376 -3.77517,4.79297 -1.240856,1.3992 -2.732351,3.15952 -3.314434,3.91183 -0.582084,0.75231 -1.684481,2.04829 -2.449771,2.87995 -0.765291,0.83167 -1.836853,2.0831 -2.38125,2.78095 -0.544397,0.69786 -2.004681,2.54333 -3.245076,4.10104 -1.240395,1.55772 -3.145395,4.12445 -4.233333,5.70385 -1.087939,1.5794 -2.555347,3.54393 -3.260907,4.36563 -0.705561,0.82169 -1.567351,2.05279 -1.91509,2.73577 -0.347739,0.68298 -1.125601,1.63548 -1.728582,2.11667 -0.602981,0.48119 -2.084276,2.2006 -3.291767,3.82091 -1.20749,1.62032 -3.083551,3.97986 -4.169024,5.24342 -1.401949,1.63197 -1.934863,2.44549 -1.839889,2.80867 0.07353,0.28119 7.5e-4,0.51126 -0.161744,0.51126 -0.162493,0 -0.299403,0.20836 -0.304244,0.46302 -0.0048,0.25466 -0.225221,0.72219 -0.489733,1.03895 -0.264512,0.31676 -0.885629,0.64204 -1.38026,0.72285 -0.569911,0.0931 -1.262762,-0.0195 -1.891517,-0.30744 z m 2.970503,-6.95572 c 1.063624,-1.17036 2.285854,-2.56935 2.716066,-3.10886 0.430212,-0.53951 1.023947,-1.45297 1.319413,-2.02992 0.295465,-0.57694 1.171274,-1.76756 1.946244,-2.64583 0.774969,-0.87826 2.37264,-2.72794 3.55038,-4.11038 1.17774,-1.38245 3.107366,-3.9423 4.288059,-5.68855 1.180693,-1.74625 2.759871,-3.88937 3.509285,-4.7625 0.749414,-0.87312 2.08241,-2.53999 2.962214,-3.70416 0.879804,-1.16417 2.539292,-3.18823 3.68775,-4.49792 1.148458,-1.30969 2.619582,-3.03609 3.269163,-3.83646 0.649581,-0.80036 1.971364,-2.34817 2.937295,-3.43958 0.965932,-1.09141 1.912418,-2.28203 2.103302,-2.64583 0.190885,-0.36381 0.970676,-1.61937 1.732869,-2.79014 0.762194,-1.17078 1.595656,-2.30187 1.85214,-2.51354 0.256483,-0.21168 1.488659,-1.74486 2.738168,-3.40707 1.24951,-1.66221 2.98621,-4.01765 3.859335,-5.23431 0.873125,-1.21666 2.313832,-3.24995 3.201571,-4.51842 0.887738,-1.26847 2.184098,-3.31835 2.8808,-4.55527 0.696702,-1.23693 1.651491,-2.84427 2.121754,-3.57188 0.470263,-0.7276 1.293716,-2.01992 1.829895,-2.87183 0.53618,-0.8519 1.714803,-2.39971 2.619162,-3.43958 0.90436,-1.03987 1.928614,-2.30739 2.27612,-2.81671 0.347505,-0.50933 1.059636,-1.37987 1.582513,-1.93455 l 0.950685,-1.00851 -0.396875,-0.22883 c -0.218281,-0.12586 -0.836173,-0.565 -1.373093,-0.97587 -0.536919,-0.41087 -1.519185,-1.45245 -2.182812,-2.31464 -0.663627,-0.86218 -1.206595,-1.66585 -1.206595,-1.78593 0,-0.12009 -0.130448,-0.21834 -0.289885,-0.21834 -0.159437,0 -0.629982,0.24217 -1.045655,0.53816 -0.415673,0.29598 -1.100022,1.04824 -1.520776,1.67168 -0.420753,0.62343 -1.064757,1.78025 -1.431118,2.57069 -0.433947,0.93627 -1.455353,2.23787 -2.93055,3.73448 -1.245441,1.26351 -2.660971,2.50125 -3.145623,2.75051 -0.484651,0.24927 -1.536028,0.95926 -2.336393,1.57777 -0.800364,0.6185 -1.990989,1.64391 -2.645833,2.27868 -0.654844,0.63477 -1.657994,1.74849 -2.229222,2.47493 -0.571228,0.72645 -1.293595,1.55893 -1.60526,1.84998 -0.311665,0.29104 -1.570703,1.666 -2.797861,3.05546 -1.227159,1.38947 -2.579119,2.93728 -3.004355,3.43959 -0.425236,0.5023 -1.55737,1.74672 -2.515853,2.76536 -0.958482,1.01865 -2.404013,2.68552 -3.212291,3.70417 -0.808278,1.01864 -2.065039,2.62599 -2.792802,3.57187 -0.727763,0.94589 -2.124177,2.91042 -3.103141,4.36563 -0.978964,1.45521 -2.332787,3.41974 -3.008495,4.36562 -0.675708,0.94589 -2.35115,3.02948 -3.723204,4.63021 -1.372055,1.60073 -3.731291,4.54823 -5.242747,6.54999 -1.511456,2.00177 -2.748101,3.69244 -2.748101,3.75705 0,0.0646 -0.376418,0.68899 -0.836484,1.38751 -0.460066,0.69852 -1.043446,1.50816 -1.296402,1.7992 -0.252955,0.29104 -1.004619,1.58516 -1.670365,2.87581 -0.665745,1.29065 -1.600411,2.88149 -2.077035,3.5352 -0.476624,0.6537 -1.291461,1.68131 -1.810749,2.28357 -0.519288,0.60225 -1.275961,1.74985 -1.681496,2.55021 -0.405536,0.80037 -1.003473,1.75287 -1.32875,2.11667 -0.325276,0.3638 -0.745468,1.05218 -0.933759,1.52973 -0.188291,0.47755 -0.693584,1.31024 -1.122872,1.85043 l -0.780524,0.98217 0.5857,0.39852 c 0.322135,0.21919 1.876376,1.61892 3.453868,3.1105 1.973728,1.86625 3.06326,2.71198 3.493765,2.71198 0.445582,0 1.182068,-0.61231 2.55946,-2.12792 z m 81.4138282,-78.88356 1.9004788,-0.77937 1.091839,-1.23947 c 0.600512,-0.68171 1.361811,-1.53712 1.691776,-1.90093 0.329965,-0.3638 1.122241,-1.3163 1.760613,-2.11666 0.638372,-0.80037 1.946233,-2.34818 2.906358,-3.43959 0.960124,-1.0914 2.56624,-3.05593 3.569147,-4.36562 1.002907,-1.30969 2.611503,-3.27422 3.574658,-4.36563 0.963155,-1.0914 2.749853,-3.23453 3.970441,-4.7625 1.220587,-1.52796 2.822163,-3.4925 3.559059,-4.36562 0.736895,-0.87313 1.929323,-2.36141 2.64984,-3.30729 0.720516,-0.94589 2.32606,-2.91042 3.567874,-4.36563 1.241814,-1.45521 2.822362,-3.38093 3.512327,-4.27938 l 1.254484,-1.63355 -0.0063,-4.05499 -0.0063,-4.05499 -0.653953,-1.5875 c -0.359674,-0.87313 -0.654505,-2.01359 -0.655179,-2.53435 -6.73e-4,-0.52077 -0.421865,-2.24717 -0.935981,-3.83646 -0.514116,-1.58929 -1.127651,-4.08024 -1.363412,-5.53544 -0.23576,-1.45521 -0.783875,-3.89599 -1.218032,-5.42396 -0.434158,-1.52797 -0.939755,-3.4925 -1.123549,-4.36563 -0.183794,-0.87312 -0.652208,-2.47256 -1.04092,-3.55431 l -0.706749,-1.96681 0.328002,-0.61288 c 0.180401,-0.33708 0.479449,-0.61287 0.664552,-0.61287 0.185103,0 0.413451,-0.12443 0.507439,-0.2765 0.09399,-0.15208 -0.34547,-0.93785 -0.976573,-1.74617 -0.631103,-0.80831 -1.564179,-2.04246 -2.073502,-2.74254 -0.509322,-0.70008 -1.259619,-1.68979 -1.667325,-2.19935 -0.407707,-0.50956 -1.163257,-1.91919 -1.679,-3.13252 -0.515744,-1.21333 -1.215322,-3.26302 -1.554618,-4.55487 -0.339297,-1.29185 -0.735302,-2.46721 -0.880012,-2.61192 -0.14471,-0.14471 -0.200144,-0.4272 -0.123186,-0.62775 0.08252,-0.21505 -0.03171,-0.36463 -0.278465,-0.36463 -0.230113,0 -0.588726,0.32742 -0.796918,0.7276 -0.208192,0.40018 -0.687499,1.01625 -1.065128,1.36904 -0.377628,0.35279 -0.686597,0.74013 -0.686597,0.86076 0,0.12063 -1.225843,1.43933 -2.724095,2.93044 -1.498252,1.49112 -3.55208,3.8957 -4.564062,5.34353 -1.011983,1.44783 -2.078093,3.0181 -2.369135,3.4895 -0.291041,0.47139 -1.117055,1.66805 -1.835585,2.65925 -0.718531,0.99119 -2.058944,2.91186 -2.978696,4.26816 -0.919752,1.35629 -2.117801,3.03534 -2.6623307,3.73122 -0.5445299,0.69587 -2.099717,2.56274 -3.4559712,4.14859 -1.3562542,1.58585 -3.0826604,3.61404 -3.8364582,4.50708 -0.7537978,0.89304 -1.84679146,2.30842 -2.42887478,3.14529 -0.58208332,0.83688 -1.65364582,2.29518 -2.38124992,3.24068 -0.7276042,0.9455 -2.0054564,2.50668 -2.8396717,3.46929 -0.8342153,0.96261 -1.5188246,1.89902 -1.5213541,2.08092 -0.00253,0.1819 0.2240658,0.33073 0.503545,0.33073 0.3472225,0 0.5622746,0.24646 0.6790725,0.77823 0.094011,0.42803 0.050676,1.00293 -0.0963,1.27756 -0.1565756,0.29256 -0.2813103,3.22965 -0.3012361,7.09312 -0.018704,3.62659 0.034727,10.28474 0.1187361,14.79588 0.084009,4.51115 0.213951,10.59461 0.28876,13.5188 0.07701,3.01022 0.3082157,6.22409 0.5329555,7.40833 0.2183167,1.15039 0.5506384,2.79498 0.7384929,3.65465 l 0.3415536,1.56303 1.0933495,0.32283 c 0.6013423,0.17755 1.7847553,0.40431 2.62980659,0.50391 0.84505133,0.0996 2.19130071,0.34959 2.99166521,0.55552 0.8003646,0.20594 1.7528646,0.41135 2.1166667,0.45646 0.363802,0.0451 1.1972395,0.0336 1.8520832,-0.0257 0.6548438,-0.0592 2.0458407,-0.4584 3.0911043,-0.88706 z m -12.4649135,-8.03971 c -0.2286756,-0.22867 -0.4157738,-0.68417 -0.4157738,-1.01221 0,-0.32804 0.2755643,-0.85532 0.6123652,-1.17173 0.3368008,-0.3164 0.7720468,-0.57528 0.9672132,-0.57528 0.1951664,0 0.75795082,0.30746 1.25063202,0.68325 l 0.89578401,0.68324 -0.16992195,0.57353 c -0.0934571,0.31543 -0.35924972,0.72235 -0.59065032,0.90425 -0.2314006,0.1819 -0.80618626,0.33073 -1.27730146,0.33073 -0.4711152,0 -1.0436713,-0.1871 -1.2723469,-0.41578 z M 7.9179251,318.1112 7.599629,317.41262 8.1861594,316.78828 c 0.3479492,-0.37037 0.8906412,-0.62433 1.3341597,-0.62433 0.4111962,0 0.9857539,0.23813 1.2767959,0.52917 0.291042,0.29104 0.529167,0.62173 0.529167,0.73488 0,0.11314 -0.185345,0.47032 -0.411878,0.79375 l -0.411878,0.58803 H 9.3693735 8.2362211 Z m 4.2116589,-9.73461 c -0.189447,-0.35398 -0.278571,-0.81528 -0.198053,-1.02511 0.08052,-0.20983 0.491236,-0.50171 0.912706,-0.64864 0.551504,-0.19225 1.045001,-0.17133 1.760531,0.0747 0.546822,0.18799 1.055765,0.40334 1.130984,0.47856 0.07522,0.0752 0.0615,0.37391 -0.0305,0.66375 -0.09199,0.28985 -0.53735,0.65601 -0.989682,0.81369 -0.452331,0.15769 -1.141722,0.2867 -1.53198,0.2867 -0.480826,0 -0.820595,-0.20747 -1.054008,-0.64361 z m -4.5287635,-5.73123 c 0.4238976,-0.16943 0.7322724,-0.16376 0.9128125,0.0168 0.1871429,0.18714 -0.01362,0.26738 -0.6401636,0.25587 l -0.9128125,-0.0168 z m 8.8011835,-3.30462 c -0.319564,-0.22383 -0.577806,-0.68693 -0.577806,-1.03616 0,-0.35259 0.259691,-0.81335 0.588038,-1.04333 0.323421,-0.22654 0.959812,-0.41188 1.414202,-0.41188 0.47991,0 1.019678,0.21383 1.287892,0.5102 0.295056,0.32604 0.398899,0.70817 0.287672,1.05862 -0.09573,0.30162 -0.374354,0.65087 -0.61916,0.77611 -0.244806,0.12523 -0.750636,0.30048 -1.124067,0.38943 -0.417511,0.0994 -0.901464,0.006 -1.256771,-0.24299 z m -16.16389573,-0.1529 -0.58901861,-0.2179 0.0839087,-0.72342 c 0.0511386,-0.4409 0.3260237,-0.84348 0.70385003,-1.03082 0.34341263,-0.17028 0.92447811,-0.22595 1.30267321,-0.1248 0.3755025,0.10042 0.8058987,0.37785 0.956436,0.6165 l 0.2737042,0.43391 -0.4677306,0.51684 c -0.2572517,0.28426 -0.7393221,0.56875 -1.0712674,0.63221 -0.3319453,0.0634 -0.86859533,0.0173 -1.19255553,-0.10252 z m 26.75746073,-3.5441 c -0.32342,-0.22653 -0.588038,-0.60697 -0.588038,-0.84542 0,-0.23845 0.319932,-0.76748 0.71096,-1.17562 0.391028,-0.40815 0.956575,-0.73812 1.256771,-0.73328 0.300196,0.005 0.813702,0.23229 1.141123,0.50543 0.329971,0.27527 0.595313,0.79535 0.595313,1.16682 0,0.39262 -0.243546,0.84078 -0.588038,1.08207 -0.323421,0.22653 -0.892241,0.41188 -1.264045,0.41188 -0.371804,0 -0.940625,-0.18535 -1.264046,-0.41188 z m -27.79943462,-4.49129 c -0.31341868,-0.39844 -0.56985218,-0.82938 -0.56985218,-0.95763 0,-0.12825 0.42526778,-0.43598 0.94503956,-0.68384 l 0.94503961,-0.45066 0.97318953,0.52911 c 0.6978185,0.37939 0.9482162,0.67657 0.8849313,1.05025 -0.048542,0.28663 -0.1676045,0.60435 -0.2645834,0.70604 -0.096979,0.10169 -0.6640322,0.26281 -1.26011863,0.35804 l -1.08379356,0.17314 z M 12.474028,289.43488 c -0.314624,-0.12329 -0.651883,-0.47571 -0.749463,-0.78316 -0.09758,-0.30745 -0.04469,-0.71892 0.117535,-0.91439 0.162224,-0.19547 0.66924,-0.41033 1.126701,-0.47748 0.487604,-0.0716 1.140234,0.0534 1.577316,0.30195 0.410063,0.23322 0.746322,0.50013 0.747242,0.59315 9.2e-4,0.093 -0.206687,0.40788 -0.461348,0.69969 -0.254662,0.2918 -0.760677,0.59217 -1.124479,0.66747 -0.363802,0.0753 -0.918879,0.036 -1.233504,-0.0872 z m 21.60642,-10.64993 c -0.400531,-0.20369 -0.693218,-0.60787 -0.741969,-1.0246 -0.0443,-0.37868 0.112949,-0.88166 0.349628,-1.11834 0.236576,-0.23658 0.842542,-0.43014 1.34659,-0.43014 0.504049,0 1.209919,0.19228 1.568601,0.4273 0.358683,0.23502 0.65215,0.63329 0.65215,0.88504 0,0.25175 -0.20836,0.64152 -0.463021,0.86616 -0.254662,0.22464 -0.820208,0.48101 -1.256771,0.5697 -0.447486,0.0909 -1.082303,0.0145 -1.455208,-0.17512 z m -7.319969,-1.05173 c -0.114097,-0.1819 -0.169037,-0.56885 -0.12209,-0.85989 0.04695,-0.29105 0.207382,-0.678 0.356522,-0.8599 0.14914,-0.1819 0.70307,-0.32694 1.230955,-0.32231 0.527885,0.005 1.16815,0.16658 1.422811,0.35989 0.254662,0.19332 0.463021,0.53822 0.463021,0.76644 0,0.22822 -0.187098,0.60205 -0.415774,0.83073 -0.251106,0.2511 -0.873652,0.41577 -1.571885,0.41577 -0.637861,0 -1.249104,-0.14826 -1.36356,-0.33073 z m -4.237518,-1.69797 c -0.306628,-0.26666 -0.632347,-0.81417 -0.72382,-1.21667 l -0.166314,-0.73184 0.684785,-0.26035 c 0.376632,-0.1432 0.97469,-0.26036 1.329019,-0.26036 0.354328,0 0.888449,0.24422 1.186935,0.54271 0.376195,0.37619 0.488836,0.72119 0.367137,1.12447 -0.09656,0.31998 -0.255199,0.66885 -0.352532,0.77526 -0.09733,0.10641 -0.534883,0.26506 -0.972336,0.35255 -0.563975,0.11279 -0.957561,0.018 -1.352874,-0.32577 z M 5.9348463,272.37013 c -0.2441982,-0.24419 -0.4293977,-0.85938 -0.4293977,-1.42636 v -0.99696 l 0.6739078,-0.30706 c 0.3706493,-0.16888 0.9123431,-0.30705 1.2037641,-0.30705 0.2914211,0 0.8811313,0.18165 1.3104672,0.40367 0.429336,0.22202 0.7806108,0.52129 0.7806108,0.66505 0,0.14376 -0.1375679,0.52765 -0.3057064,0.8531 -0.1681386,0.32545 -0.3886238,0.77032 -0.4899673,0.9886 -0.1081858,0.23302 -0.6239667,0.42981 -1.2492708,0.47664 -0.7152998,0.0536 -1.2060086,-0.0612 -1.4944077,-0.34963 z m 10.4773897,-4.24306 c -0.383066,-0.26831 -0.588038,-0.6856 -0.588038,-1.19717 v -0.7853 l 0.678683,-0.25803 c 0.373275,-0.14192 1.001627,-0.25804 1.396337,-0.25804 0.39471,0 0.982271,0.18535 1.305692,0.41188 0.323421,0.22654 0.588038,0.63461 0.588038,0.90684 0,0.27223 -0.313713,0.74173 -0.697139,1.04333 -0.383427,0.3016 -1.011779,0.54837 -1.396337,0.54837 -0.384559,0 -0.963815,-0.18534 -1.287236,-0.41188 z m 12.494095,-3.63217 c -0.07174,-0.18694 -0.157295,-0.68701 -0.190134,-1.11128 l -0.05971,-0.77139 0.926041,-0.19421 c 0.675679,-0.1417 1.140405,-0.0699 1.718927,0.26571 0.436087,0.25295 0.832872,0.66755 0.881744,0.92132 0.04887,0.25377 -0.05461,0.63428 -0.229969,0.84557 -0.199481,0.24036 -0.80502,0.38416 -1.617652,0.38416 -0.813645,0 -1.347545,-0.12696 -1.42925,-0.33988 z m -1.916786,-11.24985 -0.873196,-0.0874 -0.262082,-0.68933 c -0.144146,-0.37913 -0.200743,-0.84918 -0.125773,-1.04455 0.07497,-0.19537 0.45891,-0.47787 0.853199,-0.62778 0.507858,-0.19309 0.931586,-0.18363 1.453216,0.0324 0.40498,0.16774 0.869174,0.46506 1.031543,0.66071 0.162368,0.19564 0.223558,0.58148 0.135978,0.85742 -0.08758,0.27594 -0.424839,0.61067 -0.749464,0.74384 -0.324624,0.13317 -0.983164,0.20278 -1.463421,0.15469 z m -5.147171,-2.23474 c -0.238129,-0.18191 -0.509463,-0.64837 -0.602963,-1.0366 l -0.169999,-0.70586 0.534999,-0.28633 c 0.294249,-0.15747 0.904203,-0.28632 1.355452,-0.28632 0.451249,0 1.11392,0.19229 1.472602,0.42731 0.358683,0.23501 0.65215,0.63328 0.65215,0.88503 0,0.25175 -0.217735,0.65478 -0.483855,0.89561 -0.266119,0.24084 -0.898207,0.43788 -1.404638,0.43788 -0.506431,0 -1.115618,-0.14882 -1.353748,-0.33072 z m -30.4897803,75.204 c 0.091231,-0.14762 0.016773,-0.95129 -0.1654634,-1.78594 -0.1822359,-0.83465 -0.2979667,-1.63661 -0.2571795,-1.78213 0.040787,-0.14552 -0.054412,-1.93146 -0.2115535,-3.96875 -0.1571416,-2.03729 -0.3617355,-8.10948 -0.4546531,-13.49375 -0.092918,-5.38427 -0.1676938,-10.02771 -0.1661694,-10.31875 0.00152,-0.29104 0.00872,-2.55323 0.015986,-5.02708 0.00727,-2.47385 0.028065,-5.28995 0.046217,-6.25799 0.018152,-0.96804 -0.081092,-1.83059 -0.2205418,-1.91678 -0.139449,-0.0862 -1.129177,0.93476 -2.199394,2.26877 -1.070218,1.334 -2.406392,3.01155 -2.969276,3.72788 l -1.023426,1.30242 0.343149,0.64118 0.343149,0.64118 -1.513964,1.34937 c -0.832681,0.74216 -1.806478,1.92662 -2.163994,2.63215 -0.357516,0.70552 -0.65003,1.48571 -0.65003,1.73375 0,0.24804 0.186783,0.65738 0.415073,0.90964 l 0.415072,0.45865 -0.61351,1.41426 -0.61351,1.41427 0.0176,2.77812 0.0176,2.77813 0.750073,2.24896 c 0.41254,1.23692 1.275652,3.38005 1.918027,4.7625 0.642374,1.38245 1.582554,3.5851 2.089289,4.89479 0.506734,1.30969 1.405289,3.18452 1.996788,4.16629 0.5915,0.98177 1.783199,2.44029 2.64822,3.24115 0.8650214,0.80085 1.6780156,1.4561 1.8066536,1.4561 0.128638,0 0.3085307,-0.12078 0.3997617,-0.26839 z m -9.1918257,-17.88455 -0.314587,-0.69044 0.518697,-0.37939 c 0.285283,-0.20866 0.795367,-0.44885 1.13352,-0.53376 0.338152,-0.0849 0.903699,-0.0228 1.25677,0.13811 0.353071,0.16087 0.641948,0.51472 0.641948,0.78632 0,0.27161 -0.217735,0.69088 -0.483854,0.93172 -0.266354,0.24105 -0.923044,0.43788 -1.460881,0.43788 h -0.977026 z m -0.13709,-9.95304 c -0.327421,-0.34948 -0.595312,-0.82935 -0.595312,-1.06638 0,-0.23703 0.264617,-0.61631 0.588038,-0.84284 0.323421,-0.22654 0.910983,-0.41188 1.305692,-0.41188 0.39471,0 1.023062,0.11611 1.396337,0.25803 0.465002,0.1768 0.678683,0.45545 0.678683,0.88504 0,0.34485 -0.223358,0.82913 -0.496351,1.07619 -0.272993,0.24705 -0.898071,0.514 -1.389062,0.59322 l -0.892712,0.14403 z m 69.167958,-19.12214 c 1.156045,-1.45521 2.778038,-3.53881 3.604428,-4.63021 0.826389,-1.09141 2.069616,-2.71383 2.762726,-3.60539 0.693109,-0.89155 1.915043,-2.36378 2.715407,-3.27162 0.800365,-0.90783 1.959973,-2.3215 2.576907,-3.14149 0.616933,-0.81998 1.122949,-1.58017 1.124479,-1.68931 0.0015,-0.10915 -0.324641,-0.20124 -0.724823,-0.20467 -0.400183,-0.003 -1.561042,-0.23318 -2.579688,-0.51057 -1.018646,-0.27738 -2.603841,-0.8045 -3.522656,-1.17137 -0.918815,-0.36686 -2.407096,-1.12885 -3.307292,-1.6933 -0.900195,-0.56445 -3.779591,-2.14789 -6.398657,-3.51876 -2.619066,-1.37086 -4.966762,-2.57654 -5.2171,-2.67928 -0.250339,-0.10274 -0.515917,-0.0885 -0.590172,0.0317 -0.07426,0.12015 0.08699,0.91858 0.358329,1.77429 0.271337,0.85572 0.864028,3.10366 1.317093,4.99543 0.453064,1.89177 1.055099,4.57068 1.337856,5.95313 0.282757,1.38245 0.832358,3.5851 1.221336,4.89479 0.388977,1.30969 0.797142,2.73844 0.907032,3.175 0.109891,0.43656 0.444281,1.50812 0.743089,2.38125 0.298807,0.87312 0.621191,2.36141 0.716407,3.30729 0.09522,0.94589 0.223374,1.87852 0.284796,2.07252 0.06142,0.19401 0.214484,0.31307 0.340139,0.26459 0.125654,-0.0485 1.174318,-1.27878 2.330364,-2.73398 z m -0.640876,-4.92622 c -0.472943,-0.13656 -0.859896,-0.27544 -0.859896,-0.30862 0,-0.0332 -0.109503,-0.44214 -0.24334,-0.9088 l -0.243341,-0.84848 1.441492,-0.65994 c 0.79282,-0.36296 1.620006,-0.59143 1.838191,-0.50771 0.218184,0.0837 0.512453,0.36852 0.653931,0.63287 0.141479,0.26436 0.257234,0.77803 0.257234,1.14149 0,0.42743 -0.271405,0.85409 -0.768448,1.20801 -0.422647,0.30096 -0.869131,0.53645 -0.992188,0.52333 -0.123057,-0.0131 -0.610692,-0.1356 -1.083635,-0.27215 z m 6.622499,-7.38223 c -0.323069,-0.12999 -0.663786,-0.54071 -0.75715,-0.9127 -0.09865,-0.39306 -0.03299,-0.84114 0.156773,-1.06979 0.179589,-0.21639 0.740061,-0.39344 1.245493,-0.39344 0.505432,0 1.26476,0.20427 1.687395,0.45392 0.422635,0.24966 0.768427,0.60685 0.768427,0.79375 0,0.18691 -0.238125,0.57796 -0.529167,0.869 -0.291041,0.29104 -0.856588,0.52162 -1.25677,0.51239 -0.400183,-0.009 -0.991933,-0.12313 -1.315001,-0.25313 z m -5.356419,-1.3002 c -0.150641,-0.28148 -0.273893,-0.74849 -0.273893,-1.03782 0,-0.36228 0.276409,-0.61726 0.887931,-0.81908 0.614742,-0.20288 1.105252,-0.21042 1.59428,-0.0245 0.388492,0.1477 0.778482,0.45653 0.866643,0.68627 0.08816,0.22975 0.02813,0.70778 -0.133399,1.06231 l -0.293693,0.64458 H 53.27772 52.090732 Z m -4.620619,-1.4915 c -0.228675,-0.22868 -0.415774,-0.75172 -0.415774,-1.16232 0,-0.43667 0.173714,-0.8132 0.418515,-0.90714 0.230183,-0.0883 0.749908,-0.1606 1.154944,-0.1606 0.405036,0 1.050142,0.24676 1.433568,0.54837 0.383427,0.3016 0.69714,0.69987 0.69714,0.88503 0,0.18517 -0.217734,0.53371 -0.483854,0.77455 -0.26612,0.24083 -0.912459,0.43788 -1.43631,0.43788 -0.52385,0 -1.139553,-0.1871 -1.368229,-0.41577 z m 19.509381,-4.66696 c 0.589234,-0.17654 1.449261,-0.69891 1.911172,-1.16082 0.46191,-0.46191 1.096756,-0.97733 1.410767,-1.14539 0.314012,-0.16805 1.094969,-1.34897 1.735461,-2.62427 0.640491,-1.27529 1.430137,-3.2052 1.754768,-4.28869 0.324632,-1.08349 0.820134,-2.42887 1.101116,-2.98975 0.287075,-0.57303 0.634922,-2.11178 0.794038,-3.51253 l 0.283161,-2.49276 -0.354118,-3.18469 -0.354117,-3.18468 -0.543806,-0.74545 c -0.299093,-0.40999 -1.348298,-1.67186 -2.331566,-2.80414 -0.983268,-1.13229 -1.995299,-2.20399 -2.248958,-2.38155 -0.253659,-0.17756 -1.056511,-0.64888 -1.784115,-1.04738 -0.727604,-0.39849 -1.752578,-1.13479 -2.277721,-1.63621 -0.652515,-0.62304 -1.573947,-1.10418 -2.910416,-1.51972 -1.075587,-0.33443 -2.729519,-0.92733 -3.675404,-1.31757 -0.945886,-0.39024 -1.957917,-0.81392 -2.248958,-0.94152 -0.291042,-0.1276 -0.707761,-0.23971 -0.926042,-0.24912 -0.218281,-0.009 -1.706964,-0.11263 -3.308183,-0.22938 -1.60122,-0.11674 -3.070673,-0.31075 -3.265453,-0.43113 -0.194779,-0.12038 -2.221314,-0.20711 -4.503412,-0.19272 -2.282097,0.0144 -4.781323,0.14602 -5.553836,0.29252 -0.772512,0.1465 -1.913646,0.49156 -2.535853,0.76679 -0.622207,0.27523 -1.459926,0.93129 -1.861599,1.45791 l -0.730313,0.9575 0.295991,1.17548 c 0.162796,0.64652 0.295992,1.47132 0.295992,1.83288 0,0.39356 -0.277303,0.87551 -0.690972,1.2009 l -0.690972,0.54352 0.158084,0.99704 c 0.08695,0.54837 0.266566,1.77094 0.399156,2.71683 0.132589,0.94588 0.605655,2.77614 1.051258,4.06724 0.445602,1.29109 0.963872,2.55289 1.151712,2.804 0.187839,0.25111 0.911505,1.21882 1.608146,2.15047 0.696642,0.93165 1.708673,2.26902 2.248959,2.97193 0.540285,0.70291 1.577649,2.0316 2.305254,2.95264 0.727604,0.92104 1.676828,1.95327 2.109387,2.29385 0.432558,0.34059 1.459172,0.97643 2.281363,1.41299 0.822192,0.43657 3.266249,1.718 5.431238,2.84763 2.16499,1.12963 4.65072,2.46997 5.523845,2.97854 0.873125,0.50856 2.480468,1.22207 3.571874,1.58557 1.398937,0.46593 2.326214,0.62157 3.143056,0.52757 0.637275,-0.0734 1.640782,-0.27779 2.230016,-0.45433 z m -16.4267,-19.14165 -0.588038,-0.41187 v -1.1636 -1.1636 l 0.627192,-0.62719 c 0.344955,-0.34495 1.029565,-0.79441 1.521354,-0.99879 0.491789,-0.20439 1.132287,-0.34182 1.423329,-0.30541 0.291042,0.0364 0.91612,0.12866 1.389062,0.20501 l 0.859896,0.13881 v 0.87435 c 0,0.55034 -0.292217,1.27775 -0.788533,1.9629 -0.433694,0.59869 -1.142156,1.2714 -1.574361,1.4949 -0.432205,0.22351 -1.122435,0.40637 -1.533845,0.40637 -0.41141,0 -1.012635,-0.18534 -1.336056,-0.41188 z"
       id="path2" /></g></svg>
