<?xml version="1.0" encoding="UTF-8" standalone="no"?>
<!-- Created with Inkscape (http://www.inkscape.org/) -->

<svg
   width="23.644419mm"
   height="67.837379mm"
   viewBox="0 0 23.644419 67.837379"
   version="1.1"
   id="svg1"
   xml:space="preserve"
   xmlns="http://www.w3.org/2000/svg"
   xmlns:svg="http://www.w3.org/2000/svg"><defs
     id="defs1" /><g
     id="layer1"
     transform="translate(-68.955236,-86.752342)"><path
       d="m 69.730758,153.99441 c 0.102031,-0.32742 1.019686,-2.00819 2.039233,-3.73504 1.019547,-1.72684 1.994827,-3.57231 2.167289,-4.10104 0.665287,-2.0396 3.446094,-7.41117 4.998238,-9.65489 l 1.625596,-2.3499 -0.04016,-4.53243 c -0.02209,-2.49283 -0.141151,-6.28358 -0.264584,-8.42388 l -0.224423,-3.89147 -1.356294,0.91009 c -0.745961,0.50055 -3.09789,2.59169 -5.226508,4.647 -2.722312,2.62854 -3.995332,3.6889 -4.292057,3.57503 -0.349377,-0.13407 -0.272615,-0.33203 0.446855,-1.15241 2.060737,-2.34975 7.465917,-7.41995 8.814924,-8.26862 1.038814,-0.65353 1.429463,-1.05035 1.334583,-1.35568 -0.07378,-0.23743 0.03921,-0.49821 0.251091,-0.57952 0.302991,-0.11627 0.389069,-0.76232 0.403178,-3.02601 l 0.01794,-2.87818 -1.508722,-0.62533 c -1.991226,-0.82531 -3.520466,-2.40333 -4.788187,-4.94089 -1.223635,-2.44932 -1.749368,-4.888123 -1.761133,-8.169646 -0.0086,-2.387262 -0.0044,-2.402249 1.275741,-4.630208 0.70638,-1.229357 1.559935,-2.520496 1.896789,-2.869198 0.752163,-0.778621 2.473099,-1.165656 5.28555,-1.18871 1.754559,-0.01438 2.373544,0.102041 3.618216,0.68054 2.334134,1.084858 3.818985,2.628507 5.011719,5.210176 0.957033,2.071492 1.027357,2.389765 1.027357,4.649607 0,2.03285 -0.12792,2.776409 -0.789523,4.589239 -0.919899,2.52059 -3.378191,6.40291 -4.401363,6.95097 -0.38985,0.20883 -1.405114,0.37968 -2.256143,0.37968 h -1.547325 l -0.04748,1.19063 c -0.136202,3.41554 -0.10475,5.29166 0.08871,5.29166 0.11877,0 0.192968,0.27763 0.164885,0.61696 -0.07859,0.94954 2.517537,4.83895 4.645134,6.95914 2.855863,2.84593 6.259771,6.85385 6.259771,7.37056 0,0.074 -0.161962,0.13458 -0.359915,0.13458 -0.197953,0 -1.299281,-1.09619 -2.447396,-2.43598 -1.148115,-1.33979 -2.880146,-3.21502 -3.848959,-4.16718 -0.968812,-0.95216 -2.438219,-2.74323 -3.265349,-3.98016 l -1.503872,-2.24896 0.193334,3.83646 c 0.106333,2.11005 0.229702,6.14501 0.274154,8.96657 l 0.08082,5.13013 0.762055,0.95529 c 1.304599,1.63541 3.883984,5.59554 5.53371,8.49591 0.869106,1.52797 2.255467,3.77301 3.080804,4.98897 1.583269,2.33263 1.730656,2.68395 1.125969,2.68395 -0.582009,0 -3.52261,-4.09772 -4.893788,-6.81948 -1.39126,-2.76162 -6.1906,-9.78412 -6.867229,-10.04828 -0.514839,-0.20099 -4.84989,7.80472 -5.823052,10.75366 -0.162872,0.49355 -1.01114,2.05427 -1.885038,3.46827 -0.873899,1.414 -1.719301,2.94495 -1.87867,3.40212 -0.19259,0.55246 -0.46452,0.83121 -0.810876,0.83121 -0.418992,0 -0.484759,-0.11666 -0.335602,-0.59531 z m 15.21068,-46.11694 c 0.875844,-0.79263 3.023258,-4.6296 3.793988,-6.77906 0.635418,-1.772089 0.714603,-2.32648 0.623555,-4.365623 -0.23394,-5.239429 -3.156234,-8.654243 -7.871825,-9.198536 -1.202074,-0.138749 -1.74236,-0.05106 -3.105966,0.504096 -0.907917,0.369634 -1.789457,0.641863 -1.958977,0.604954 -0.16952,-0.03691 -0.723233,0.647266 -1.230473,1.520391 -2.036939,3.506237 -2.273705,5.067146 -1.406179,9.270411 0.806291,3.906577 2.647868,6.966367 4.87737,8.103767 2.071509,1.05681 5.293437,1.23108 6.278507,0.3396 z m -6.119494,-3.18504 c -0.75967,-0.91535 -0.03259,-3.54853 0.979827,-3.54853 0.273447,0 0.363273,-0.14544 0.258484,-0.41851 -0.08833,-0.23019 -0.160599,-0.59663 -0.160599,-0.814323 0,-0.217692 -0.39227,0.119463 -0.87171,0.749243 -0.999692,1.31316 -1.771621,1.54443 -2.551604,0.76444 -0.74992,-0.74992 -0.758761,-3.304463 -0.01675,-4.840244 0.455534,-0.942846 0.484398,-1.216719 0.208613,-1.979388 -0.27121,-0.75002 -0.249328,-1.016498 0.143349,-1.745656 0.25488,-0.473284 0.88305,-1.195347 1.395931,-1.604585 l 0.932512,-0.744069 1.372018,0.444926 c 2.459264,0.797506 5.718751,3.345443 5.386693,4.210773 -0.08531,0.222308 -0.04124,0.474568 0.09792,0.560576 0.139165,0.08601 0.253028,0.747032 0.253028,1.46894 0,1.37005 -0.924332,3.282367 -1.737356,3.594357 -0.215514,0.0827 -0.869354,0.96797 -1.452979,1.96728 -0.583625,0.9993 -1.287353,1.93798 -1.56384,2.08595 -0.76412,0.40895 -2.279803,0.32324 -2.673537,-0.15118 z m 2.741702,-1.40865 c 0.444569,-0.75259 0.443211,-0.75669 -0.361683,-1.09008 -1.162603,-0.48157 -1.714898,0.17986 -1.597359,1.913 0.04655,0.68643 1.404376,0.11606 1.959042,-0.82292 z m -2.827664,-4.422586 0.464286,-1.215715 -0.642494,-0.493865 c -0.832738,-0.640099 -0.897071,-0.631518 -1.261482,0.168277 -0.33918,0.744419 -0.419428,3.358859 -0.112517,3.665769 0.282393,0.28239 1.016998,-0.72304 1.552207,-2.124466 z m 3.126409,1.857526 c 0.44418,-0.17045 0.586416,-0.897737 0.175571,-0.897737 -0.54279,0 -1.079973,0.343097 -1.079973,0.689767 0,0.40013 0.252386,0.45817 0.904402,0.20797 z m -1.301277,-4.072737 c -0.709606,-0.740668 -1.461091,-1.049063 -1.450636,-0.595312 0.0057,0.247031 1.616659,1.389062 1.959432,1.389062 0.138416,0 -0.09054,-0.357187 -0.508796,-0.79375 z m 3.042708,-0.629061 c 0,-0.806308 -0.691626,-1.430979 -1.115286,-1.007319 -0.222424,0.222424 -0.221003,0.470535 0.0055,0.967745 0.391059,0.858282 1.109745,0.88391 1.109745,0.03957 z m -2.502477,-0.658993 c -0.168008,-0.529349 0.793832,-1.357779 1.576436,-1.357779 0.579995,0 0.075,-0.910314 -0.836213,-1.507361 -0.6758,-0.442801 -0.697686,-0.435516 -1.578191,0.525281 -0.491089,0.53587 -0.890311,1.184417 -0.887162,1.441216 0.0046,0.371743 0.676799,0.879144 1.798041,1.357147 0.04619,0.01969 0.01338,-0.186636 -0.07291,-0.458504 z m 3.343488,-1.162281 -0.59362,-0.592373 0.306051,0.879942 c 0.220342,0.633517 0.386583,0.799409 0.593619,0.592373 0.207036,-0.207037 0.121328,-0.453461 -0.30605,-0.879942 z m -6.132677,-0.246017 c 0,-0.301651 0.425196,-0.949468 0.94488,-1.439594 0.917211,-0.865041 0.84896,-1.161785 -0.144877,-0.6299 -0.698764,0.373967 -1.62941,1.983813 -1.436881,2.485538 0.214287,0.558421 0.636878,0.282361 0.636878,-0.416044 z"
       style="fill:#ddaabb;fill-opacity:1"
       id="path1-1" /></g></svg>
