<?xml version="1.0" encoding="UTF-8" standalone="no"?>
<!-- Created with Inkscape (http://www.inkscape.org/) -->

<svg
   width="50.401985mm"
   height="118.83425mm"
   viewBox="0 0 50.40198 118.83423"
   version="1.1"
   id="svg1"
   xml:space="preserve"
   xmlns="http://www.w3.org/2000/svg"
   xmlns:svg="http://www.w3.org/2000/svg"><defs
     id="defs1" /><g
     id="layer1"
     transform="translate(-155.873,-461.70446)"><path
       style="fill:#ddaabb;fill-opacity:1"
       d="m 156.64906,580.23139 c -0.33058,-0.15932 -0.66769,-0.55516 -0.74913,-0.87964 -0.0814,-0.32448 0.028,-0.93049 0.24325,-1.34669 0.21522,-0.4162 0.65942,-0.99457 0.98712,-1.28527 0.32769,-0.2907 1.69497,-2.19541 3.0384,-4.23271 1.34343,-2.03729 2.81362,-4.44432 3.26708,-5.34895 0.45346,-0.90463 1.44986,-2.54812 2.2142,-3.65221 0.76435,-1.10408 1.53077,-2.26121 1.70314,-2.5714 0.17238,-0.31019 1.18441,-1.63931 2.24896,-2.9536 1.06455,-1.31429 2.42301,-2.87981 3.01879,-3.47891 0.59579,-0.59911 1.81334,-1.69689 2.70569,-2.4395 0.89234,-0.74262 1.82593,-1.46409 2.07464,-1.60328 0.24871,-0.13918 0.47711,-0.61286 0.50755,-1.05262 0.0305,-0.43975 0.19318,-1.21716 0.36163,-1.72756 0.21406,-0.64861 0.23333,-1.47185 0.064,-2.73436 -0.13325,-0.9935 -0.15414,-2.04448 -0.0464,-2.33552 0.10771,-0.29105 0.33899,-1.12448 0.51396,-1.85209 0.17497,-0.7276 0.4236,-2.78601 0.5525,-4.57424 0.1289,-1.78823 0.28593,-3.33605 0.34895,-3.43959 0.063,-0.10354 0.24636,-1.73606 0.40743,-3.62783 0.16107,-1.89177 0.363,-4.00513 0.44873,-4.69636 0.0857,-0.69122 0.0554,-1.25421 -0.0674,-1.25109 -0.12279,0.003 -1.17576,0.89699 -2.33993,1.98638 -1.16416,1.08938 -2.41432,2.27579 -2.77812,2.63647 -0.42414,0.42049 -1.09855,0.71556 -1.87973,0.82243 -0.87554,0.11978 -1.48223,0.0414 -2.15658,-0.2786 -0.51607,-0.24489 -1.00194,-0.68854 -1.0797,-0.98589 -0.0935,-0.35771 0.0697,-0.7322 0.48255,-1.10678 0.34316,-0.31138 0.99619,-0.84798 1.45118,-1.19244 0.45499,-0.34447 0.89357,-0.55998 0.97462,-0.47893 0.0811,0.0811 0.33324,0.006 0.5604,-0.16745 0.22716,-0.17316 1.38889,-1.26733 2.5816,-2.43149 1.19272,-1.16417 2.63128,-2.81447 3.19681,-3.66734 0.56552,-0.85287 1.22248,-1.8649 1.4599,-2.24896 l 0.43167,-0.69829 0.16133,-4.63021 0.16133,-4.6302 -2.84196,-0.009 c -1.56308,-0.005 -3.49681,-0.16421 -4.29717,-0.35359 -0.80037,-0.18938 -2.55183,-0.88555 -3.89214,-1.54705 l -2.43693,-1.20272 -1.87487,-1.81992 -1.87487,-1.81991 -0.78639,-1.75271 c -0.43251,-0.96399 -0.97941,-2.59984 -1.21533,-3.63523 l -0.42894,-1.88251 0.15273,-3.70417 c 0.0946,-2.29342 0.35954,-4.58532 0.69575,-6.01781 0.29867,-1.2725 0.82172,-2.99891 1.16234,-3.83646 0.34062,-0.83755 1.27384,-2.53484 2.07384,-3.77177 0.79999,-1.23693 2.21917,-3.08457 3.15373,-4.10587 0.93456,-1.0213 2.02234,-2.24574 2.41729,-2.72097 0.39494,-0.47522 1.40697,-1.25928 2.24895,-1.74235 0.84199,-0.48307 1.88807,-1.06679 2.32463,-1.29718 0.43656,-0.23038 2.34156,-0.98283 4.23333,-1.67211 l 3.43959,-1.25323 1.98437,-0.11383 1.98438,-0.11382 2.38125,0.79099 c 1.30968,0.43505 3.32493,1.24052 4.47833,1.78994 1.1534,0.54942 2.54394,1.40265 3.09009,1.89607 0.54616,0.49341 1.51899,1.7541 2.16185,2.80151 0.64285,1.04742 1.72745,2.91642 2.41021,4.15335 0.68276,1.23693 1.65797,2.80521 2.16714,3.48507 0.66096,0.88253 1.04373,1.79074 1.33812,3.175 0.26239,1.23377 0.36257,2.61244 0.27548,3.79097 -0.0837,1.13217 -0.55049,3.10129 -1.20097,5.06583 -0.58525,1.76756 -1.43114,4.02324 -1.87974,5.01262 -0.44861,0.98937 -1.47446,2.67417 -2.27967,3.74399 -0.80521,1.06982 -2.18446,2.5046 -3.06499,3.1884 -0.90934,0.70616 -2.86071,1.78528 -4.51698,2.49791 -1.60381,0.69005 -3.64453,1.39022 -4.53494,1.55592 -0.89041,0.16571 -1.78127,0.34719 -1.97968,0.40329 -0.22836,0.0646 -0.30521,0.31438 -0.20943,0.68066 0.09,0.34409 -0.0572,0.91609 -0.36316,1.41109 l -0.51447,0.83245 -0.0699,4.54733 c -0.0476,3.10056 0.0232,4.60775 0.22254,4.73725 0.16082,0.10446 0.44197,0.66618 0.62478,1.24826 0.18282,0.58209 0.7274,1.77693 1.21018,2.65522 0.48278,0.87829 1.61498,2.6047 2.516,3.83646 0.90102,1.23177 2.53397,3.09127 3.62879,4.13222 1.33366,1.26806 1.93935,2.02613 1.83536,2.29711 -0.0854,0.22246 0.13561,1.00729 0.49105,1.74408 0.35544,0.73678 0.64625,1.42309 0.64625,1.52512 0,0.10204 0.29965,0.61792 0.66589,1.1464 0.47845,0.69041 0.68327,1.36471 0.72761,2.39547 l 0.0617,1.43459 -1.56309,-0.009 -1.56309,-0.009 -1.413,-1.57888 c -0.77715,-0.86838 -1.41321,-1.70458 -1.41347,-1.85821 -2.6e-4,-0.15363 -0.27989,-0.65804 -0.62139,-1.12092 -0.3415,-0.46288 -0.68991,-0.77261 -0.77424,-0.68828 -0.0843,0.0843 -0.3407,-0.20901 -0.56971,-0.65187 -0.22902,-0.44286 -0.41639,-1.10174 -0.41639,-1.46418 0,-0.36244 -0.11906,-0.73257 -0.26458,-0.8225 -0.14552,-0.0899 -0.27067,-0.36486 -0.27811,-0.61093 -0.007,-0.24607 -0.3944,-0.99548 -0.8599,-1.66534 -0.4655,-0.66987 -1.41928,-2.07132 -2.11951,-3.11435 -0.70023,-1.04303 -1.38484,-1.82739 -1.52136,-1.74301 -0.13651,0.0844 -0.24821,0.84135 -0.24821,1.68219 0,0.84084 -0.18713,2.70904 -0.41585,4.15157 -0.22872,1.44253 -0.45726,3.45622 -0.50788,4.47487 -0.0506,1.01864 -0.2247,2.74505 -0.38685,3.83645 -0.16215,1.09141 -0.34293,2.52016 -0.40174,3.175 -0.0731,0.81461 0.0466,1.4821 0.37906,2.11354 l 0.48598,0.9229 -0.53768,1.05394 c -0.29572,0.57966 -0.63168,1.38169 -0.74656,1.78228 -0.11489,0.40058 -0.10062,1.05882 0.0317,1.46274 0.13232,0.40392 0.61658,1.92502 1.07613,3.38023 0.45954,1.45521 1.4571,4.07458 2.21678,5.82083 0.75969,1.74625 1.58886,3.82985 1.84259,4.63021 0.25374,0.80037 1.26294,3.12209 2.24267,5.15938 0.97972,2.03729 2.08622,4.7162 2.45888,5.95312 0.37266,1.23693 0.86373,2.875 1.09126,3.64016 0.22753,0.76516 0.34726,1.5643 0.26607,1.77586 -0.0812,0.21157 -0.34497,0.43767 -0.58619,0.50244 -0.24121,0.0648 -0.7843,0.19524 -1.20686,0.28991 -0.42255,0.0947 -1.07739,0.039 -1.4552,-0.12377 -0.37781,-0.16275 -0.95284,-0.71066 -1.27783,-1.21758 -0.325,-0.50692 -0.73379,-1.72008 -0.90842,-2.69591 -0.17463,-0.97583 -0.5338,-2.29012 -0.79816,-2.92065 -0.26435,-0.63053 -0.48065,-1.3091 -0.48065,-1.50793 0,-0.19884 -0.57682,-1.58796 -1.28182,-3.08692 -0.70501,-1.49897 -1.54318,-3.53887 -1.86261,-4.5331 -0.31943,-0.99424 -1.10709,-2.97874 -1.75036,-4.41001 -0.64326,-1.43127 -1.42275,-3.386 -1.73221,-4.34386 l -0.56263,-1.74155 h -0.59882 c -0.32935,0 -1.06317,0.34335 -1.6307,0.763 -0.56754,0.41965 -1.57986,1.34238 -2.24961,2.05052 -0.66975,0.70813 -1.86696,2.12095 -2.66047,3.1396 -0.79352,1.01865 -2.10475,2.86412 -2.91387,4.10104 -0.80911,1.23693 -1.91912,3.14193 -2.46669,4.23334 -0.54757,1.0914 -1.675,2.9964 -2.5054,4.23333 -0.8304,1.23693 -1.87767,2.84427 -2.32726,3.57187 -0.44959,0.72761 -1.00814,1.80433 -1.24122,2.39272 -0.2829,0.71416 -0.79094,1.30788 -1.52822,1.78594 -0.60745,0.39388 -1.40804,0.70808 -1.77909,0.69823 -0.37105,-0.01 -0.94512,-0.14826 -1.27571,-0.30758 z m 29.1781,-77.41665 c 1.65103,-0.30782 3.94293,-0.96843 5.29167,-1.52525 1.30857,-0.54023 2.94408,-1.40471 3.63446,-1.92105 0.69039,-0.51635 1.59084,-1.36135 2.001,-1.87779 0.41017,-0.51644 1.36667,-2.02041 2.12555,-3.34215 0.75889,-1.32173 1.84119,-3.77298 2.40512,-5.4472 0.56393,-1.67422 1.10739,-3.81041 1.2077,-4.74709 0.10354,-0.96684 0.0575,-2.37846 -0.10645,-3.26546 l -0.28882,-1.56242 -1.42422,-2.13525 c -0.78332,-1.17439 -1.61902,-2.49244 -1.85711,-2.929 -0.23809,-0.43656 -1.01525,-1.86531 -1.72702,-3.175 -0.74469,-1.37025 -1.75306,-2.78916 -2.37506,-3.34203 -0.59451,-0.52843 -1.85546,-1.34594 -2.80211,-1.81669 -0.94665,-0.47074 -2.56753,-1.01716 -3.60194,-1.21426 l -1.88076,-0.35836 -1.49265,0.54745 c -0.82095,0.30109 -2.1835,0.77249 -3.02788,1.04755 -0.84439,0.27506 -2.03501,0.78768 -2.64584,1.13917 -0.61082,0.35148 -1.60783,0.71901 -2.21557,0.81672 l -1.10497,0.17767 -1.27628,1.37986 c -0.70195,0.75893 -1.83738,2.0894 -2.52319,2.9566 -0.68581,0.86721 -1.66236,2.13583 -2.17012,2.81917 -0.50776,0.68334 -1.17153,1.7292 -1.47504,2.32414 -0.30352,0.59494 -0.88783,2.00037 -1.29847,3.12319 -0.41065,1.12282 -0.88961,2.99399 -1.06436,4.15816 -0.17475,1.16416 -0.35576,2.9501 -0.40224,3.96875 -0.0465,1.01864 0.0262,2.55731 0.16145,3.41925 0.13529,0.86194 0.64967,2.44093 1.14309,3.50886 0.49341,1.06792 1.07725,2.12182 1.29742,2.34199 0.22017,0.22017 0.83707,0.93332 1.3709,1.58478 0.53382,0.65146 1.6407,1.58603 2.45973,2.07682 0.81903,0.49079 2.08446,1.08064 2.81206,1.31079 0.72761,0.23014 1.73964,0.46943 2.24896,0.53175 0.50932,0.0623 1.9976,0.0809 3.30729,0.0413 1.30969,-0.0396 3.69186,-0.31634 5.2937,-0.61499 z m -3.15283,-6.96309 c -0.56877,-0.12935 -1.69987,-0.60951 -2.51354,-1.06702 -0.81368,-0.45751 -2.09739,-1.31865 -2.85269,-1.91365 -0.7553,-0.595 -1.44261,-1.24742 -1.52736,-1.44982 -0.0847,-0.20241 0.0263,-0.64333 0.2468,-0.97983 0.23094,-0.35246 0.78552,-0.68397 1.30824,-0.78203 0.49904,-0.0936 1.24409,-0.0961 1.65564,-0.005 0.43669,0.0961 0.92874,0.4798 1.18163,0.92133 0.23834,0.41612 1.12985,1.27112 1.98112,1.9 l 1.54778,1.14341 1.08585,-0.0473 c 0.59722,-0.026 1.78931,-0.22785 2.64909,-0.44858 0.85978,-0.22072 2.26457,-0.7599 3.12176,-1.19817 0.85718,-0.43827 1.75015,-0.79307 1.98437,-0.78844 0.23422,0.005 0.65508,0.18184 0.93524,0.3938 l 0.50938,0.38538 -0.34589,0.6463 c -0.19024,0.35547 -1.01478,1.00213 -1.8323,1.43703 -0.81752,0.4349 -2.4389,1.02558 -3.60307,1.31263 -1.16417,0.28705 -2.65245,0.57898 -3.30729,0.64874 -0.65485,0.0698 -1.65599,0.021 -2.22476,-0.10835 z m -6.50649,-12.05744 c -0.21828,-0.0782 -0.66477,-0.38591 -0.99219,-0.6838 -0.32742,-0.29789 -0.59153,-0.72922 -0.5869,-0.95851 0.005,-0.2293 0.18427,-0.64945 0.39921,-0.93368 l 0.39078,-0.51677 1.65132,-0.0899 c 0.90823,-0.0494 1.79835,0.0104 1.97806,0.13305 0.17971,0.12262 0.39789,0.57866 0.48485,1.01343 0.11101,0.55508 0.0137,0.96471 -0.32675,1.37554 -0.30867,0.37246 -0.8694,0.62462 -1.54317,0.69394 -0.58209,0.0599 -1.23693,0.0449 -1.45521,-0.0333 z m 14.28856,-2.92047 c -0.50874,-0.0594 -1.08037,-0.23698 -1.27028,-0.39459 -0.18992,-0.15762 -0.30946,-0.64214 -0.26565,-1.07671 0.0481,-0.47658 0.34214,-0.97879 0.74112,-1.26555 0.3638,-0.26149 1.10134,-0.55317 1.63898,-0.64817 l 0.97752,-0.17273 0.67612,0.67612 c 0.37187,0.37187 0.67554,0.83037 0.67481,1.01888 -7.2e-4,0.18852 -0.26861,0.65992 -0.59531,1.04756 -0.3267,0.38764 -0.83212,0.75394 -1.12316,0.81401 -0.29105,0.0601 -0.94541,0.0606 -1.45415,10e-4 z"
       id="path2" /></g></svg>
