<?xml version="1.0" encoding="UTF-8" standalone="no"?>
<!-- Created with Inkscape (http://www.inkscape.org/) -->

<svg
   width="470.03577mm"
   height="230.67209mm"
   viewBox="0 0 470.03575 230.67209"
   version="1.1"
   id="svg1"
   xml:space="preserve"
   sodipodi:docname="reverse_swiss_chees_model.svg"
   inkscape:export-filename="reverse_swiss_chees_model_1.png"
   inkscape:export-xdpi="96"
   inkscape:export-ydpi="96"
   xmlns:inkscape="http://www.inkscape.org/namespaces/inkscape"
   xmlns:sodipodi="http://sodipodi.sourceforge.net/DTD/sodipodi-0.dtd"
   xmlns="http://www.w3.org/2000/svg"
   xmlns:svg="http://www.w3.org/2000/svg"><sodipodi:namedview
     id="namedview1"
     pagecolor="#ffffff"
     bordercolor="#000000"
     borderopacity="0.25"
     inkscape:showpageshadow="2"
     inkscape:pageopacity="0.0"
     inkscape:pagecheckerboard="0"
     inkscape:deskcolor="#d1d1d1"
     inkscape:document-units="mm" /><defs
     id="defs1" /><path
     style="fill:#ddaabb;fill-opacity:1"
     d="m 291.43038,209.62047 c -0.57949,-0.38918 -2.28405,-1.87746 -3.78793,-3.30729 -1.50387,-1.42984 -2.8238,-2.5997 -2.93316,-2.5997 -0.10937,0 -1.55783,-1.57265 -3.21881,-3.49478 -1.66098,-1.92213 -6.62081,-7.13112 -11.02185,-11.57552 -5.29604,-5.34823 -8.32861,-8.61755 -8.96808,-9.66824 -0.5314,-0.87312 -1.24243,-2.06789 -1.58005,-2.65504 -0.33763,-0.58715 -1.13091,-1.59918 -1.76286,-2.24896 -0.63195,-0.64978 -1.745,-1.65342 -2.47346,-2.23031 -0.72845,-0.57689 -1.73359,-1.57025 -2.23364,-2.20747 -0.50005,-0.63721 -1.5045,-1.73414 -2.2321,-2.43762 -0.72761,-0.70347 -1.79917,-1.60015 -2.38125,-1.99261 -0.58209,-0.39247 -1.41552,-1.04431 -1.85209,-1.44855 -0.43656,-0.40423 -1.29921,-1.17669 -1.91699,-1.71657 -0.61779,-0.53988 -1.76861,-1.89098 -2.55738,-3.00244 -0.78876,-1.11147 -2.2664,-2.85428 -3.28362,-3.87293 -1.01723,-1.01865 -2.1286,-2.12282 -2.46971,-2.45371 -0.34112,-0.3309 -0.92247,-0.92621 -1.29189,-1.32292 -0.36943,-0.39671 -0.9319,-1.09253 -1.24993,-1.54627 -0.41995,-0.59914 -0.86045,-0.87011 -1.60906,-0.98982 -0.56695,-0.0907 -1.18643,-0.35233 -1.37661,-0.5815 l -0.3458,-0.41666 0.29037,-0.84248 c 0.1597,-0.46336 0.36418,-1.43779 0.45439,-2.16539 0.0902,-0.7276 0.46335,-4.95432 0.82921,-9.39271 0.36586,-4.43838 0.7732,-9.73666 0.9052,-11.77396 0.132,-2.03729 0.30022,-4.12089 0.37383,-4.63021 0.0736,-0.50933 0.20254,-2.23573 0.28651,-3.83646 0.084,-1.60073 0.26715,-3.92245 0.40706,-5.15938 0.13992,-1.23693 0.37607,-3.02286 0.52479,-3.96875 0.14872,-0.94588 0.45028,-3.50573 0.67014,-5.68854 0.21986,-2.182814 0.56575,-5.754694 0.76863,-7.937504 0.20289,-2.18281 0.49806,-5.16681 0.65594,-6.6311 0.15789,-1.4643 0.45731,-3.66696 0.66539,-4.8948 0.20807,-1.22784 0.49484,-2.90153 0.63726,-3.71931 0.14241,-0.81778 0.37968,-1.94887 0.52725,-2.51354 0.14758,-0.56467 0.44563,-2.15776 0.66234,-3.54021 0.21671,-1.38245 0.45573,-3.29896 0.53117,-4.25892 0.0754,-0.95995 0.42351,-3.04355 0.7735,-4.6302 0.34999,-1.58666 0.77927,-3.65874 0.95395,-4.60463 0.17468,-0.94588 0.7311,-3.56526 1.23649,-5.82083 0.50539,-2.25557 1.22819,-5.23214 1.60623,-6.61459 0.37803,-1.38244 0.97712,-3.46604 1.33131,-4.6302 0.35419,-1.16417 0.75611,-2.48231 0.89315,-2.92921 0.13705,-0.44689 0.24918,-1.22675 0.24918,-1.73302 0,-0.50626 0.13983,-1.06032 0.31075,-1.23123 0.19919,-0.19919 0.28804,-1.09681 0.24749,-2.50032 -0.0348,-1.20425 -0.0703,-2.36815 -0.0788,-2.58643 -0.009,-0.21828 0.066,-1.52797 0.16562,-2.91042 0.0996,-1.382451 0.28426,-2.811201 0.41027,-3.175001 0.12601,-0.3638 0.3581,-1.67349 0.51575,-2.91042 0.15765,-1.23692 0.47878,-2.9038 0.71362,-3.70416 0.23484,-0.80037 0.51622,-1.637921 0.62529,-1.861221 0.10906,-0.22331 0.14099,-1.00239 0.0709,-1.73129 -0.0757,-0.78805 0.0259,-1.77853 0.2506,-2.443359 0.20787,-0.61494 0.77836,-1.6813302 1.26776,-2.3697502 0.60102,-0.84543 0.87259,-1.50929 0.83673,-2.04542 -0.0292,-0.4365701 0.0382,-0.9291998 0.14971,-1.0947498 0.11154,-0.16554 0.66383,-0.49296 1.2273,-0.7276 0.56348,-0.23464 1.54933,-0.4266099 2.19079,-0.4266099 0.64145,0 1.85002,0.2877799 2.6857,0.6395099 0.83568,0.35173 2.38391,0.7247 3.4405,0.82882 1.30355,0.12844 2.13851,0.3603097 2.59744,0.7213098 0.37199,0.29261 1.0451,1.304 1.4958,2.24753 0.4507,0.9435299 1.23705,2.1468602 1.74744,2.6740692 0.51039,0.5272 1.17623,1.31574 1.47963,1.7523 0.30341,0.43656 0.96488,1.62404 1.46993,2.638851 0.62878,1.26342 1.54385,2.47288 2.90265,3.83646 1.0914,1.09524 2.34156,2.45355 2.77812,3.01846 0.43656,0.5649 1.11482,1.40683 1.50725,1.87094 0.39242,0.46412 1.25384,1.18539 1.91426,1.602841 0.66042,0.41745 2.24435,2.01272 3.51984,3.54504 1.27549,1.53232 3.66235,4.4565 5.30414,6.49818 1.64178,2.04168 3.70521,4.51205 4.58538,5.48971 0.88017,0.97767 2.40218,3.01613 3.38223,4.52992 0.98005,1.51378 2.54803,3.52115 3.4844,4.46081 l 1.7025,1.70846 1.91934,3.81579 c 1.05563,2.09869 2.64252,5.18501 3.52641,6.8585 0.88389,1.67349 1.88056,3.34036 2.21482,3.70416 0.33426,0.36381 0.93455,1.4949 1.33399,2.51355 0.39943,1.01864 0.96632,2.32567 1.25976,2.90451 0.29344,0.57883 0.63561,1.9649 0.76038,3.08016 l 0.22686,2.02773 -0.39526,1.12029 c -0.21739,0.61616 -0.39526,1.86381 -0.39526,2.77255 0,0.90874 -0.23905,3.02893 -0.53123,4.71153 l -0.53123,3.05928 -0.0998,8.55051 -0.0998,8.550524 -0.54182,3.04271 c -0.298,1.67349 -0.6743,3.75708 -0.83622,4.63021 -0.16193,0.87312 -0.40673,2.18281 -0.54401,2.91041 -0.13728,0.72761 -0.43036,2.45013 -0.6513,3.82783 -0.22094,1.37771 -0.46552,4.05662 -0.54351,5.95313 -0.078,1.89652 -0.25614,4.34119 -0.39589,5.4326 -0.13975,1.0914 -0.38678,3.88937 -0.54894,6.2177 -0.16216,2.32834 -0.33435,4.94771 -0.38264,5.82084 -0.0483,0.87312 -0.22106,3.13531 -0.38394,5.02708 -0.16288,1.89177 -0.47371,4.51115 -0.69075,5.82083 -0.21703,1.30969 -0.50758,3.15516 -0.64566,4.10105 -0.13808,0.94588 -0.3659,3.14854 -0.50627,4.89479 -0.14037,1.74625 -0.37807,4.18703 -0.52822,5.42396 -0.15016,1.23692 -0.3885,3.97536 -0.52965,6.08541 -0.14116,2.11005 -0.37593,4.55084 -0.52171,5.42396 -0.14578,0.87313 -0.38736,2.42094 -0.53684,3.43958 -0.14948,1.01865 -0.39324,3.87615 -0.5417,6.35 -0.14845,2.47386 -0.39417,5.27183 -0.54603,6.21771 -0.15186,0.94589 -0.39218,2.31511 -0.53404,3.04271 -0.14186,0.7276 -0.36349,1.73964 -0.49252,2.24896 -0.12903,0.50932 -0.3775,1.46182 -0.55216,2.11667 -0.17467,0.65484 -0.47498,1.31864 -0.66736,1.4751 -0.19903,0.16187 -0.28477,0.5331 -0.19895,0.86131 0.083,0.31725 -0.012,0.77764 -0.21111,1.02308 -0.24739,0.305 -0.25727,0.38336 -0.0312,0.24755 0.1819,-0.10928 0.33073,-0.0923 0.33073,0.0378 0,0.13006 -0.38695,0.58329 -0.8599,1.00719 -0.47294,0.4239 -1.24641,0.97937 -1.71883,1.23436 -0.53544,0.28902 -1.43406,0.46364 -2.38598,0.46364 h -1.52704 z m 2.69393,-4.25334 c 0.0875,-0.25466 0.44977,-1.1774 0.80508,-2.05052 0.35531,-0.87313 0.82338,-2.18282 1.04015,-2.91042 0.21677,-0.7276 0.63377,-2.57307 0.92666,-4.10104 0.29289,-1.52797 0.63451,-4.74266 0.75916,-7.14375 0.13567,-2.6134 0.44803,-5.37448 0.77823,-6.87917 0.35301,-1.60863 0.63937,-4.27573 0.79542,-7.40833 0.13411,-2.69214 0.36303,-5.43057 0.50872,-6.08542 0.14568,-0.65484 0.334,-2.44078 0.41848,-3.96875 0.0845,-1.52797 0.22634,-3.3139 0.31524,-3.96875 0.0889,-0.65484 0.19723,-1.42875 0.24073,-1.71979 0.0435,-0.29104 0.20999,-1.18401 0.36997,-1.98437 0.15999,-0.80037 0.40546,-2.25567 0.54547,-3.234 0.14002,-0.97833 0.49711,-4.66927 0.79352,-8.20208 0.29641,-3.53282 0.58552,-6.95908 0.64246,-7.61392 0.0569,-0.65485 0.23212,-3.75047 0.38929,-6.87917 0.15717,-3.1287 0.53485,-7.47448 0.83927,-9.65729 0.30443,-2.18283 0.9691,-6.64767 1.47705,-9.92189 l 0.92354,-5.95312 0.112,-8.202094 c 0.0616,-4.51114 0.22327,-8.79739 0.35926,-9.525 0.13599,-0.7276 0.34356,-2.75166 0.46126,-4.49791 0.1177,-1.74625 0.20657,-4.48469 0.19749,-6.08542 l -0.0165,-2.91042 -2.06603,-3.83646 c -1.13631,-2.11005 -2.25962,-4.25317 -2.49623,-4.7625 -0.23661,-0.50932 -0.83529,-1.69994 -1.33039,-2.64583 -0.49511,-0.94588 -1.72342,-3.32233 -2.72958,-5.281 l -1.82938,-3.5612 -2.09987,-2.18728 c -1.15493,-1.203 -2.09987,-2.34601 -2.09987,-2.54002 0,-0.19401 -0.53331,-1.00048 -1.18513,-1.79215 -0.65183,-0.79166 -1.93175,-2.25383 -2.84428,-3.24926 -0.91252,-0.99543 -1.83773,-2.149 -2.05601,-2.56347 -0.21828,-0.41448 -0.90942,-1.26691 -1.53588,-1.8943 -0.62645,-0.62738 -2.17426,-2.41443 -3.43958,-3.97123 -1.26532,-1.55679 -2.7593,-3.42301 -3.31996,-4.14716 -0.56067,-0.72414 -1.90355,-2.18884 -2.98419,-3.25488 -1.08064,-1.06604 -2.39727,-2.53357 -2.92583,-3.261171 -0.52857,-0.72761 -1.82546,-2.21589 -2.88197,-3.3073 -1.32341,-1.36711 -2.3595,-2.78745 -3.33083,-4.56611 -0.77543,-1.41996 -2.06473,-3.371851 -2.86509,-4.337531 -0.80037,-0.96569 -1.93523,-2.285149 -2.52191,-2.932139 l -1.0667,-1.1763402 -1.42876,-0.37062 -1.42876,-0.37061 -0.45125,0.40837 c -0.24818,0.22461 -0.77843,1.1374302 -1.17831,2.0285002 -0.39989,0.891069 -0.8228,2.402819 -0.9398,3.359449 -0.117,0.95663 -0.50664,3.168081 -0.86586,4.914331 -0.35922,1.74625 -0.79013,4.78234 -0.95758,6.746871 -0.16745,1.96453 -0.354,3.75047 -0.41454,3.96875 -0.0606,0.21828 -0.23388,1.52797 -0.38519,2.91042 -0.15131,1.38245 -0.45669,3.5851 -0.67861,4.89479 -0.22193,1.30969 -0.81003,3.57187 -1.30689,5.02708 -0.49686,1.45521 -1.14923,3.59834 -1.44971,4.7625 -0.30049,1.16417 -0.66933,2.89058 -0.81965,3.83646 -0.15033,0.94589 -0.50863,2.73182 -0.79623,3.96875 -0.2876,1.23693 -0.65322,2.72521 -0.81248,3.30729 -0.15927,0.58209 -0.50211,2.09167 -0.76188,3.35464 -0.25977,1.26296 -0.60612,3.40609 -0.76968,4.7625 -0.16356,1.35641 -0.64886,4.3712 -1.07845,6.69953 -0.42959,2.32833 -0.96277,5.42396 -1.18486,6.87917 -0.22209,1.4552 -0.51647,3.28308 -0.65418,4.06194 -0.13771,0.77886 -0.31094,3.01581 -0.38495,4.971 -0.074,1.95519 -0.19108,3.64633 -0.26015,3.7581 -0.0691,0.11176 -0.31568,1.92293 -0.54802,4.02483 -0.23233,2.10189 -0.60012,5.607564 -0.81729,7.790384 -0.21718,2.18281 -0.56728,4.98078 -0.778,6.21771 -0.21072,1.23692 -0.45619,4.39208 -0.5455,7.01145 -0.0893,2.61938 -0.26782,5.23876 -0.39671,5.82085 -0.12888,0.58208 -0.24015,1.9513 -0.24727,3.04271 -0.007,1.0914 -0.11883,2.46062 -0.24826,3.0427 -0.12943,0.58209 -0.36901,3.20146 -0.53241,5.82084 -0.16339,2.61937 -0.42339,5.57126 -0.57777,6.55976 l -0.28069,1.79726 0.75342,1.50404 c 0.51194,1.02196 1.89827,2.69428 4.3253,5.21756 1.96453,2.04244 3.98859,4.28918 4.49791,4.99275 0.50933,0.70358 1.71008,2.19034 2.66834,3.30393 0.95826,1.11358 2.26795,2.37824 2.91042,2.81036 0.64246,0.43211 1.76343,1.25969 2.49103,1.83907 0.72761,0.57937 1.58653,1.35692 1.90872,1.72788 0.32219,0.37096 0.59008,0.7731 0.59531,0.89365 0.005,0.12055 0.46613,0.65633 1.02422,1.19063 0.55809,0.53429 1.7923,1.68582 2.7427,2.55894 0.9504,0.87313 2.54461,2.77813 3.54269,4.23333 0.99807,1.45521 2.21142,3.16985 2.69632,3.81032 0.48489,0.64046 1.32133,1.71083 1.85875,2.37859 0.53742,0.66777 2.22728,2.46949 3.75525,4.00383 1.52797,1.53433 4.50453,4.57485 6.61458,6.7567 2.11006,2.18185 5.01127,5.24932 6.44714,6.8166 1.43588,1.56728 3.51812,3.52068 4.62721,4.34089 1.10909,0.82021 2.4231,1.88615 2.92001,2.36875 0.49692,0.4826 1.00802,0.87745 1.13578,0.87745 0.12777,0 0.30388,-0.20836 0.39137,-0.46302 z M 279.66114,176.2845 c -0.21828,-0.0743 -0.77323,-0.30359 -1.23321,-0.50951 -0.45999,-0.20592 -1.35105,-0.80442 -1.98014,-1.33001 -0.71953,-0.60115 -1.56246,-1.73917 -2.27251,-3.06808 -0.6208,-1.16186 -1.12872,-2.47027 -1.12872,-2.90757 0,-0.4373 -0.16647,-1.46712 -0.36994,-2.28849 -0.20347,-0.82137 -0.37123,-2.05411 -0.3728,-2.73941 -0.002,-0.68531 -0.15652,-1.69734 -0.34431,-2.24896 -0.2064,-0.60628 -0.34673,-2.36331 -0.3548,-4.44253 l -0.0134,-3.43958 0.5341,-1.32292 c 0.29375,-0.7276 0.93386,-1.97776 1.42247,-2.77812 0.53443,-0.87542 1.56406,-1.98229 2.58426,-2.77813 0.93273,-0.7276 2.3208,-1.63928 3.0846,-2.02595 0.85436,-0.43251 1.79244,-0.69505 2.4379,-0.68229 l 1.04917,0.0207 0.99295,0.88074 c 0.54612,0.4844 1.12812,0.88073 1.29333,0.88073 0.1652,0 0.80955,0.44648 1.43187,0.99219 0.62232,0.5457 1.4867,1.29477 1.92085,1.66461 l 0.78935,0.67242 0.16052,1.84112 c 0.0883,1.01261 0.40005,3.38893 0.69282,5.2807 0.29277,1.89177 0.57615,4.97321 0.62973,6.84763 0.0619,2.16539 -0.029,4.01228 -0.24929,5.06518 -0.19069,0.91142 -0.59114,2.13624 -0.88988,2.72182 -0.29874,0.58557 -0.90318,1.59813 -1.34321,2.25013 -0.44002,0.65199 -1.22063,1.55473 -1.73469,2.00607 -0.51405,0.45135 -1.23198,0.82063 -1.59539,0.82063 -0.36341,0 -1.08818,0.17859 -1.6106,0.39687 -0.52243,0.21829 -1.44134,0.38748 -2.04203,0.37599 -0.60069,-0.0115 -1.27076,-0.0817 -1.48904,-0.15601 z m 4.3721,-4.85018 c 0.74344,-0.90176 1.36146,-2.00624 1.62496,-2.90404 l 0.42524,-1.44883 -0.16833,-2.91679 c -0.0926,-1.60424 -0.34866,-4.52415 -0.56908,-6.48868 -0.22042,-1.96453 -0.47086,-4.2861 -0.55654,-5.15904 l -0.15578,-1.58716 -1.09722,-1.02244 c -0.60347,-0.56234 -1.3393,-1.18435 -1.63517,-1.38224 l -0.53794,-0.3598 -1.04956,0.3049 c -0.57725,0.1677 -1.24828,0.47187 -1.49117,0.67594 -0.24289,0.20407 -0.89773,1.2245 -1.45521,2.26763 l -1.01359,1.89659 0.0303,2.64583 c 0.0172,1.5043 0.21585,3.34283 0.46038,4.26132 0.23655,0.88851 0.55779,2.55539 0.71388,3.70416 0.15609,1.14878 0.44179,2.6316 0.63491,3.29517 0.19311,0.66356 0.71772,1.93273 1.16581,2.82037 0.44808,0.88765 1.14582,1.8458 1.55055,2.12924 0.40472,0.28343 0.91445,0.58192 1.13273,0.6633 0.21828,0.0814 0.48558,0.12812 0.59399,0.10387 0.10842,-0.0242 0.737,-0.69894 1.39685,-1.4993 z m -30.51596,-19.59714 c -0.7175,-0.14125 -1.601,-0.61261 -2.38125,-1.27043 -0.68228,-0.57523 -1.60691,-1.44339 -2.05474,-1.92925 -0.44782,-0.48587 -1.17921,-1.47871 -1.62531,-2.20631 -0.44611,-0.7276 -0.8914,-1.59081 -0.98955,-1.91823 -0.0982,-0.32742 -0.27991,-0.59531 -0.40393,-0.59531 -0.12402,0 -0.40765,-0.56555 -0.63028,-1.25677 -0.22263,-0.69123 -0.5827,-1.91162 -0.80015,-2.71198 -0.21746,-0.80037 -0.62229,-2.11005 -0.89964,-2.91042 -0.33114,-0.95559 -0.55821,-2.55507 -0.66138,-4.65875 -0.0864,-1.76195 -0.0904,-3.45859 -0.009,-3.77031 0.0815,-0.31173 0.34268,-0.57018 0.58037,-0.57434 0.25234,-0.004 0.92375,-0.83321 1.6136,-1.99184 0.74559,-1.25226 1.51183,-2.17922 2.07705,-2.51271 0.49259,-0.29063 0.9537,-0.75052 1.02468,-1.02197 0.0841,-0.32155 0.65113,-0.66498 1.62712,-0.98546 0.92399,-0.30341 2.25846,-0.49143 3.48242,-0.49064 1.20066,7.7e-4 2.59042,0.19501 3.51887,0.49179 l 1.5345,0.4905 1.02896,1.3603 c 0.56593,0.74817 1.55836,1.92769 2.20541,2.62116 0.64704,0.69346 1.31896,1.64596 1.49315,2.11666 0.17418,0.4707 0.71684,1.63136 1.2059,2.57925 0.48906,0.94789 1.01535,2.28631 1.16952,2.97427 l 0.28032,1.25084 -0.39119,2.58198 c -0.21516,1.42009 -0.57475,3.29636 -0.7991,4.16948 -0.22434,0.87313 -0.79019,2.36141 -1.25744,3.30729 -0.46724,0.94589 -1.42264,2.51725 -2.1231,3.49191 l -1.27357,1.77212 -1.51018,0.81888 c -0.95059,0.51546 -1.72475,0.76531 -2.08927,0.67431 -0.3185,-0.0795 -0.65295,-0.0251 -0.74322,0.12098 -0.0903,0.14605 -0.36545,0.25251 -0.61153,0.23656 -0.24607,-0.0159 -0.96074,-0.13004 -1.58815,-0.25356 z m 3.71703,-4.4138 c 0.38,-0.40018 1.15826,-1.79917 1.72946,-3.10886 0.57121,-1.30968 1.25035,-3.25447 1.50921,-4.32174 0.31945,-1.31707 0.4278,-2.50712 0.33725,-3.70417 -0.0934,-1.23532 -0.47013,-2.59259 -1.25738,-4.53067 l -1.12395,-2.76701 -1.81381,-2.1716 c -1.27381,-1.52508 -2.08992,-2.26273 -2.74119,-2.47767 -0.51005,-0.16833 -1.14057,-0.23839 -1.40116,-0.15568 -0.26059,0.0827 -0.93417,0.59734 -1.49685,1.14363 -0.56269,0.54628 -1.22376,1.4695 -1.46905,2.05158 -0.2453,0.58208 -0.60109,1.62388 -0.79065,2.3151 l -0.34465,1.25678 h -0.51261 -0.51261 l 0.17168,1.38906 c 0.0944,0.76398 0.68718,2.93687 1.31723,4.82864 0.63004,1.89177 1.47099,4.15396 1.86876,5.02709 0.39777,0.87312 1.23957,2.32008 1.87065,3.21547 0.63109,0.89538 1.47708,1.87387 1.87999,2.17443 0.40291,0.30055 1.0377,0.55023 1.41066,0.55484 0.40377,0.005 0.95762,-0.28598 1.36902,-0.71922 z m 27.97086,-41.18459 c -1.29305,-0.19926 -2.45846,-0.57775 -3.30729,-1.07413 -0.72088,-0.42155 -1.6264,-1.08106 -2.01227,-1.46557 l -0.70158,-0.69911 -0.16671,-1.83232 c -0.0917,-1.00777 -0.40394,-2.963414 -0.6939,-4.345864 -0.28995,-1.38244 -0.76995,-4.12088 -1.06667,-6.08541 -0.38562,-2.55316 -0.49507,-4.21329 -0.38379,-5.82084 0.0856,-1.23692 0.20049,-2.76024 0.25524,-3.38516 0.0547,-0.62491 0.37917,-1.54683 0.72093,-2.04871 0.34177,-0.50188 0.71069,-0.91332 0.81983,-0.91432 0.10914,-9.9e-4 0.19843,-0.13939 0.19843,-0.30756 0,-0.16817 0.306,-0.70694 0.68,-1.19727 0.37399,-0.49033 1.07874,-1.09688 1.5661,-1.34789 0.48737,-0.25101 1.61089,-0.91195 2.49672,-1.46876 l 1.61061,-1.01239 1.78422,-0.25866 c 0.98133,-0.14227 2.61767,-0.18481 3.63631,-0.0945 1.01865,0.0903 2.4686,0.33566 3.22212,0.5453 l 1.37004,0.38118 0.97746,1.12261 c 0.53761,0.61744 1.24044,1.71794 1.56185,2.44554 0.32141,0.7276 0.77911,2.33495 1.01711,3.57187 0.238,1.23693 0.48349,2.72521 0.54553,3.3073 0.062,0.58208 2.6e-4,2.30849 -0.1373,3.83645 -0.13756,1.52797 -0.43264,3.42675 -0.65574,4.21951 -0.2231,0.79275 -0.76561,2.15447 -1.20558,3.02604 -0.43996,0.87156 -1.24406,2.18747 -1.78689,2.92425 -0.54283,0.73677 -1.25569,1.994424 -1.58415,2.794794 -0.32845,0.80036 -0.7569,1.70757 -0.95211,2.016 -0.19521,0.30844 -1.04697,1.0317 -1.8928,1.60724 -0.84583,0.57554 -1.89506,1.1742 -2.33162,1.33037 -0.43656,0.15616 -0.97234,0.34103 -1.19063,0.41082 -0.21828,0.0698 -1.29534,-0.0116 -2.39347,-0.18078 z m 3.07964,-4.18251 c 0.53304,-0.46801 1.17828,-1.33121 1.43387,-1.91822 0.25559,-0.587024 1.24619,-2.238404 2.20134,-3.669764 0.95515,-1.43135 1.95117,-3.21729 2.21336,-3.96875 l 0.47672,-1.36629 -0.008,-5.29166 -0.008,-5.29167 -0.58921,-1.47633 -0.58921,-1.47633 -1.3869,-1.12955 -1.38689,-1.12955 -1.45521,0.10721 -1.45521,0.10722 -1.45521,1.03269 c -0.80036,0.56798 -1.91739,1.41958 -2.48228,1.89245 -0.56489,0.47286 -1.43921,1.54393 -1.94295,2.38015 -0.60872,1.01051 -0.96341,1.98096 -1.05761,2.89369 -0.10095,0.97814 0.0204,1.90695 0.42159,3.22794 0.30984,1.02005 0.56334,2.25763 0.56334,2.75017 0,0.49253 0.17857,1.58111 0.39682,2.41905 0.21826,0.83793 0.50898,2.80148 0.64604,4.36343 0.13707,1.56195 0.36401,3.1338 0.50431,3.493004 0.1403,0.3592 0.71279,1.08515 1.27219,1.61322 0.5594,0.52807 1.19569,1.02469 1.41397,1.10359 0.21828,0.0789 0.60109,0.15287 0.85069,0.16435 0.2496,0.0115 0.88994,-0.36203 1.42298,-0.83005 z"
     id="path2" /></svg>
