<?xml version="1.0" encoding="UTF-8" standalone="no"?>
<!-- Created with Inkscape (http://www.inkscape.org/) -->

<svg
   width="118.55209mm"
   height="63.480072mm"
   viewBox="0 0 118.55207 63.48007"
   version="1.1"
   id="svg1"
   xml:space="preserve"
   xmlns="http://www.w3.org/2000/svg"
   xmlns:svg="http://www.w3.org/2000/svg"><defs
     id="defs1" /><g
     id="layer1"
     transform="translate(-5.2116455,-408.93132)"><path
       style="fill:#ddaabb;fill-opacity:1"
       d="m 14.37784,471.35599 c -2.182813,-0.5691 -4.7764218,-1.20174 -5.763576,-1.40586 l -1.7948259,-0.37114 -0.7140443,-0.75665 -0.7140442,-0.75665 -0.1468401,-1.85208 c -0.080762,-1.01865 -0.00747,-2.56646 0.1628608,-3.43959 0.1703355,-0.87312 0.4359044,-2.12328 0.5901531,-2.77812 0.1542487,-0.65484 0.4073692,-1.78594 0.5624899,-2.51354 0.1551207,-0.72761 0.3262559,-2.71026 0.3803005,-4.40589 0.054044,-1.69564 0.1894886,-3.23058 0.3009868,-3.41099 0.1114981,-0.18041 0.3080192,-1.23385 0.4367133,-2.34098 0.1286942,-1.10714 0.3354893,-2.90594 0.4595446,-3.99735 0.1240553,-1.09141 0.3474302,-2.52016 0.4963888,-3.175 0.1489586,-0.65484 0.2771293,-1.73592 0.284824,-2.4024 0.00769,-0.66647 0.1406302,-1.54486 0.2954124,-1.95197 0.1547823,-0.4071 0.3404635,-1.52868 0.4126251,-2.49239 0.072162,-0.96371 0.3055135,-3.50563 0.5185602,-5.64872 0.213046,-2.14308 0.634895,-5.2387 0.937442,-6.87916 0.302546,-1.64046 0.65318,-3.67109 0.779185,-4.51252 0.126006,-0.84143 0.554492,-2.50693 0.952192,-3.70112 0.439085,-1.31845 1.010067,-2.45822 1.453748,-2.9019 0.401861,-0.40186 0.973752,-0.73065 1.270867,-0.73065 0.297116,0 0.667651,0.23812 0.823412,0.52916 0.209466,0.39139 0.553991,0.52917 1.323249,0.52917 0.572027,0 1.490572,0.20655 2.041212,0.45901 0.55064,0.25245 1.528678,0.85111 2.173416,1.33034 0.644739,0.47923 2.044548,1.81028 3.110687,2.95787 1.06614,1.1476 2.741282,2.61725 3.72254,3.26591 0.981258,0.64865 2.011372,1.43327 2.289143,1.74361 0.27777,0.31033 0.932614,0.67865 1.455208,0.81849 0.602879,0.16132 1.530409,0.16274 2.53767,0.004 0.873125,-0.13769 2.361407,-0.42149 3.307292,-0.63066 0.945886,-0.20918 2.791354,-0.74293 4.101042,-1.18613 1.309687,-0.44319 3.036094,-0.97943 3.836458,-1.19164 0.800365,-0.21221 2.348178,-0.56392 3.439584,-0.78158 1.091406,-0.21766 3.234531,-0.65903 4.7625,-0.98082 1.527969,-0.32179 3.856147,-0.66731 5.17373,-0.76781 1.317582,-0.1005 2.513926,-0.25586 2.658542,-0.34524 0.144616,-0.0894 1.361646,-0.35313 2.704512,-0.58612 l 2.441574,-0.42362 1.149594,0.50852 c 0.632276,0.27968 1.231516,0.64107 1.331644,0.80308 0.100128,0.16201 0.434461,0.29457 0.742963,0.29457 0.308502,0 0.95632,0.14298 1.439594,0.31773 0.483274,0.17475 0.878681,0.4187 0.878681,0.5421 0,0.12341 0.502594,0.44939 1.116877,0.72441 0.805895,0.36081 1.211081,0.42186 1.455208,0.21925 0.186082,-0.15443 0.338331,-0.56387 0.338331,-0.90985 0,-0.34598 -0.119062,-0.62906 -0.264583,-0.62906 -0.145521,0 -0.264583,-0.22355 -0.264583,-0.49677 0,-0.27322 0.173924,-0.64112 0.386498,-0.81754 0.212574,-0.17642 0.858367,-0.38405 1.435095,-0.46141 l 1.048597,-0.14064 0.711269,0.71127 0.711269,0.71126 -0.105352,1.65454 c -0.07518,1.18061 -0.26947,1.86317 -0.678316,2.38293 l -0.572963,0.72841 0.979347,0.84054 c 0.538641,0.46229 1.017264,0.92452 1.063607,1.02717 0.04634,0.10264 0.671696,0.60866 1.389674,1.12447 0.717979,0.51582 1.355212,0.93785 1.416073,0.93785 0.06086,0 0.190179,-0.36206 0.287374,-0.80458 0.09719,-0.44253 0.06087,-0.94854 -0.08072,-1.12448 -0.141589,-0.17594 -0.336007,-0.68788 -0.432041,-1.13763 -0.114432,-0.53593 -0.05657,-0.91292 0.167886,-1.09393 0.18837,-0.1519 0.726769,-0.35834 1.196442,-0.45875 0.469673,-0.10041 1.06899,-0.11431 1.331816,-0.0309 0.262825,0.0834 0.676063,0.48719 0.918305,0.89727 l 0.44044,0.74561 -0.08405,2.00493 c -0.05489,1.30934 -0.233732,2.21864 -0.515485,2.6209 -0.237291,0.33878 -0.431438,0.69677 -0.431438,0.79554 0,0.0988 0.386953,0.42883 0.859896,0.73348 0.472943,0.30464 1.217083,0.79202 1.653646,1.08307 0.436563,0.29105 0.864201,0.5298 0.950307,0.53057 0.08611,7.7e-4 0.294466,-0.45891 0.463021,-1.02149 0.168555,-0.56259 0.306464,-1.58033 0.306464,-2.26165 v -1.23877 l -0.683507,-0.58792 -0.683506,-0.58793 0.318884,-0.69988 c 0.175386,-0.38493 0.57226,-0.76787 0.881943,-0.85097 0.309684,-0.0831 0.810539,-0.15273 1.113012,-0.15472 0.302473,-0.002 1.103087,0.36277 1.779143,0.81057 0.892443,0.59113 1.300033,1.07075 1.487774,1.7507 0.142221,0.51508 0.188357,1.30955 0.102525,1.7655 -0.08583,0.45595 -0.437326,1.06712 -0.781098,1.35816 -0.416101,0.35228 -0.713588,1.00637 -0.889931,1.95672 -0.185541,0.99992 -0.179158,1.53086 0.02131,1.77241 0.15741,0.18966 0.663629,0.46167 1.124931,0.60447 0.461302,0.14279 1.337662,0.33674 1.947466,0.431 l 1.108735,0.17139 0.293456,-1.08981 0.293455,-1.08981 -0.57868,-1.1587 c -0.318274,-0.63728 -0.505826,-1.34855 -0.416783,-1.58059 0.08904,-0.23204 0.491131,-0.54707 0.893528,-0.70006 0.402397,-0.15299 1.100781,-0.20891 1.551965,-0.12427 0.451184,0.0846 1.081517,0.4319 1.400727,0.7717 l 0.5804,0.6178 -0.1042,2.57376 -0.10419,2.57377 0.62088,0.23606 c 0.34148,0.12983 1.66428,0.24849 2.93955,0.26368 1.27527,0.0152 4.10461,-0.0516 6.28743,-0.14837 2.18281,-0.0968 4.44728,-0.18163 5.03215,-0.18854 0.58487,-0.007 1.53737,0.23042 2.11667,0.5274 0.57929,0.29697 1.30246,0.81943 1.60704,1.16101 0.30458,0.34159 1.17144,1.52758 1.92636,2.63555 0.75492,1.10797 1.49486,2.41765 1.64431,2.91042 0.16695,0.55048 0.21146,2.4772 0.11544,4.99697 -0.086,2.25557 -0.28405,5.1623 -0.44022,6.4594 l -0.28395,2.35835 0.31093,1.08123 c 0.17101,0.59467 0.48189,1.61701 0.69085,2.27185 0.20895,0.65485 0.36974,1.60735 0.35731,2.11667 -0.0124,0.50932 -0.16185,1.44035 -0.33204,2.06896 -0.17019,0.6286 -0.90475,1.90467 -1.63235,2.83572 -0.72761,0.93104 -1.64153,1.80645 -2.03093,1.94534 -0.38941,0.1389 -0.91832,0.57351 -1.17536,0.96581 -0.25704,0.39229 -0.99011,0.93734 -1.62903,1.21122 -0.63892,0.27387 -1.77689,0.49978 -2.52881,0.50201 -0.75192,0.002 -2.31962,0.24784 -3.48379,0.54578 -1.16417,0.29795 -3.36682,0.59831 -4.89479,0.66746 -1.52797,0.0692 -3.43297,0.16101 -4.23334,0.20412 -0.80036,0.0431 -2.229114,0.2217 -3.174999,0.39687 -0.945886,0.17517 -2.428066,0.44258 -3.293734,0.59425 -1.106148,0.1938 -2.836167,0.18849 -5.820834,-0.0179 -2.33579,-0.16151 -5.112825,-0.45245 -6.17119,-0.64655 l -1.924298,-0.35289 -1.515285,0.39457 -1.515285,0.39458 -7.9375,0.0482 c -4.562078,0.0277 -8.668842,0.17735 -9.657292,0.35188 -0.945885,0.16701 -2.196042,0.25024 -2.778125,0.18496 -0.582083,-0.0653 -3.499115,-0.19713 -6.482292,-0.29299 -2.983177,-0.0959 -6.43599,-0.17771 -7.672917,-0.1819 -1.236927,-0.004 -2.963333,0.11683 -3.836458,0.26894 l -1.5875,0.27656 -0.992006,-0.34988 c -0.686858,-0.24225 -2.111146,-0.32618 -4.630209,-0.27284 -2.278107,0.0482 -5.312536,0.34055 -8.116983,0.78195 -2.463329,0.3877 -4.90411,0.69578 -5.423958,0.68462 -0.519848,-0.0112 -2.731115,-0.48593 -4.913928,-1.05503 z m 7.14375,-1.82691 c 0.873125,-0.13517 3.137608,-0.48045 5.032184,-0.7673 l 3.444684,-0.52153 7.403233,-0.0786 c 4.071778,-0.0432 7.535023,0.003 7.696099,0.10337 0.161076,0.1001 2.363733,0.24032 4.894792,0.31161 2.531059,0.0713 5.792551,0.20649 7.247759,0.30046 1.922824,0.12416 3.188091,0.0597 4.630208,-0.23581 l 1.984375,-0.40665 6.563639,0.15415 6.563638,0.15416 1.02293,-0.57492 c 0.696954,-0.39171 1.429862,-0.56418 2.299904,-0.54122 0.805264,0.0212 1.742346,-0.17724 2.536794,-0.53733 0.692901,-0.31405 1.388203,-0.49167 1.545115,-0.39469 0.16756,0.10356 0.218385,0.53299 0.123158,1.04059 l -0.162138,0.86427 1.659731,0.15543 c 0.912851,0.0855 3.148011,0.22581 4.967022,0.31182 l 3.307291,0.15638 2.381251,-0.55965 c 1.44573,-0.33978 4.148341,-0.66601 6.879171,-0.83037 2.47385,-0.1489 5.34724,-0.44497 6.3853,-0.65792 1.30346,-0.26741 2.2855,-0.67024 3.17416,-1.30206 0.70772,-0.50317 1.43257,-0.91485 1.61079,-0.91485 0.17822,0 0.95251,-0.28227 1.72064,-0.62727 0.76813,-0.345 1.70841,-0.97007 2.08951,-1.38906 0.3811,-0.41899 0.9043,-1.33 1.16268,-2.02447 0.25837,-0.69446 0.39181,-1.34063 0.29652,-1.43591 -0.0953,-0.0953 -0.49943,0.13189 -0.89809,0.50486 -0.39867,0.37296 -1.11019,0.87252 -1.58117,1.11013 -0.47098,0.23762 -1.25873,0.78535 -1.75056,1.21718 l -0.89423,0.78515 -2.0859,0.27268 c -1.14725,0.14998 -2.80278,0.38768 -3.67896,0.52822 -1.09225,0.17521 -1.92401,0.16464 -2.64583,-0.0336 -0.57903,-0.15905 -1.40997,-0.47554 -1.84653,-0.70331 -0.52742,-0.27518 -1.37421,-0.39563 -2.52368,-0.359 -1.10099,0.0351 -2.351506,-0.13253 -3.439585,-0.46106 -0.940309,-0.28392 -3.138403,-0.63582 -4.884653,-0.78201 -1.74625,-0.14618 -6.151563,-0.28094 -9.789584,-0.29946 -3.638021,-0.0185 -7.626615,-0.14035 -8.863542,-0.27075 -1.236927,-0.1304 -4.153958,-0.31619 -6.482291,-0.41287 -2.809739,-0.11667 -6.724626,-0.0302 -11.641667,0.257 -4.074584,0.23803 -8.988301,0.5403 -10.919373,0.6717 l -3.511039,0.23891 -1.101662,0.81017 -1.101662,0.81017 -0.849701,-0.50133 -0.849702,-0.50134 -4.459473,0.8782 c -2.45271,0.48301 -5.411972,0.95924 -6.576139,1.0583 -1.41831,0.12067 -3.200834,0.038 -5.402698,-0.2506 -1.807317,-0.23689 -4.307629,-0.71827 -5.55625,-1.06974 -1.24862,-0.35147 -3.092395,-0.94886 -4.097276,-1.32753 -1.156451,-0.43578 -2.220946,-0.65936 -2.9002034,-0.60914 l -1.0731467,0.0794 -0.3580072,1.19063 c -0.2123046,0.70606 -0.3060649,1.82487 -0.2303794,2.74904 0.085097,1.0391 0.2891648,1.7122 0.6123774,2.01988 0.2666122,0.2538 1.2586558,0.70776 2.2045413,1.0088 0.945885,0.30105 2.434167,0.67729 3.307292,0.83609 0.873125,0.15881 2.182812,0.45404 2.910416,0.65606 0.727605,0.20203 1.680105,0.37297 2.116667,0.37987 0.436563,0.007 1.508125,-0.0981 2.38125,-0.23323 z m 11.377084,-8.62234 c 2.473854,-0.51526 5.271823,-1.04615 6.217708,-1.17976 0.945886,-0.13361 1.861379,-0.24683 2.034429,-0.25159 0.173051,-0.005 0.864902,-0.48491 1.537446,-1.06699 0.672545,-0.58208 1.342574,-1.05833 1.488954,-1.05833 0.14638,0 0.645154,-0.28402 1.108387,-0.63114 0.463234,-0.34713 1.516626,-0.94625 2.340873,-1.33138 0.824246,-0.38514 2.271836,-1.26394 3.216867,-1.95291 0.94503,-0.68896 2.460421,-1.94947 3.367535,-2.80113 0.907114,-0.85166 2.197961,-1.7863 2.86855,-2.07698 0.670588,-0.29067 1.933626,-0.8594 2.806751,-1.26383 1.030244,-0.47722 2.144757,-1.30955 3.175,-2.37113 0.873125,-0.89969 2.015948,-1.85783 2.539607,-2.1292 0.523659,-0.27138 1.814076,-1.29851 2.867595,-2.28252 1.053518,-0.98401 2.619367,-2.31217 3.479664,-2.95147 0.860297,-0.63929 1.564176,-1.26367 1.564176,-1.38749 0,-0.12383 -0.446484,-0.55282 -0.992187,-0.9533 -0.545703,-0.40049 -1.306138,-1.03163 -1.689854,-1.40253 -0.383716,-0.3709 -1.725923,-1.6864 -2.982681,-2.92333 -1.256758,-1.23692 -2.724699,-2.9038 -3.262092,-3.70416 -0.537393,-0.80037 -1.05674,-1.55464 -1.154106,-1.67617 -0.09737,-0.12152 -0.577661,-0.0174 -1.067325,0.23129 -0.489663,0.24873 -1.723734,1.09382 -2.74238,1.87798 -1.018646,0.78415 -2.268802,1.85498 -2.778125,2.37961 -0.509323,0.52463 -1.402292,1.17534 -1.984375,1.44602 -0.582083,0.27068 -1.307179,0.49476 -1.611323,0.49795 -0.304144,0.003 -1.494769,0.24863 -2.645833,0.54541 -1.151064,0.29677 -3.283469,0.78129 -4.738678,1.07671 -1.455208,0.29542 -3.479271,0.65383 -4.497916,0.79647 -1.018646,0.14263 -3.035217,0.40433 -4.481269,0.58155 -1.578392,0.19343 -3.542291,0.24925 -4.913863,0.13966 -1.524951,-0.12184 -3.246143,-0.50314 -5.176024,-1.14665 -1.59024,-0.53026 -3.427126,-1.27281 -4.08197,-1.6501 -0.654844,-0.3773 -1.547812,-0.96541 -1.984375,-1.30692 -0.436562,-0.34151 -1.052736,-0.87612 -1.369274,-1.18803 -0.316538,-0.3119 -1.269038,-1.86711 -2.116667,-3.45601 -0.847628,-1.58891 -1.868564,-3.50071 -2.268747,-4.24846 -0.400182,-0.74775 -0.729427,-1.72192 -0.731655,-2.16482 -0.0022,-0.44291 -0.105544,-0.96543 -0.229591,-1.16116 -0.165945,-0.26184 -0.272427,-0.16905 -0.402995,0.35118 -0.0976,0.38887 -0.354969,2.39448 -0.571929,4.45691 -0.216959,2.06243 -0.452911,4.16659 -0.524338,4.67591 -0.07143,0.50932 -0.256609,2.41432 -0.411517,4.23333 -0.154909,1.81901 -0.382293,4.49792 -0.505298,5.95313 -0.123006,1.45521 -0.412331,4.25003 -0.642945,6.21072 -0.230613,1.96068 -0.517773,3.92522 -0.638131,4.36562 -0.120359,0.44041 -0.163704,1.83303 -0.09632,3.09472 0.09008,1.68667 0.009,2.62725 -0.3064355,3.55286 -0.2359199,0.69239 -0.4289453,1.34383 -0.4289453,1.44765 0,0.10382 0.2897207,0.26149 0.6438238,0.35036 0.354103,0.0889 0.715878,0.38861 0.803945,0.66609 0.09836,0.3099 0.794022,0.75463 1.803572,1.153 0.903898,0.35668 2.516947,0.90984 3.584553,1.22925 1.067607,0.3194 2.734482,0.73887 3.704167,0.93216 0.969686,0.19329 3.251346,0.36433 5.070356,0.3801 l 3.307292,0.0287 z m 80.290026,-0.36148 c 0.92881,-0.34989 1.95573,-1.0407 2.87758,-1.93576 0.95196,-0.9243 1.72189,-2.01377 2.29239,-3.24381 0.61244,-1.32047 0.94823,-2.56881 1.16986,-4.3491 0.17098,-1.37336 0.38213,-4.23294 0.46922,-6.35463 l 0.15835,-3.8576 -0.4636,-0.92142 c -0.25499,-0.50678 -0.89744,-1.60389 -1.42768,-2.43802 -0.53023,-0.83413 -1.08542,-1.56399 -1.23375,-1.62191 -0.14833,-0.0579 -0.73702,-0.0294 -1.30821,0.0635 -0.57118,0.0928 -2.14567,0.0638 -3.49885,-0.0646 -1.80447,-0.17115 -2.66896,-0.14695 -3.24296,0.0908 -0.43044,0.17829 -0.96889,0.60846 -1.19656,0.95592 -0.22766,0.34746 -0.93737,0.90097 -1.57712,1.23001 -0.63976,0.32905 -1.82851,1.23009 -2.64167,2.00231 l -1.47848,1.40404 v 0.90176 c 0,0.63799 -0.15849,0.98657 -0.54183,1.19173 -0.29801,0.15949 -0.66123,0.60401 -0.80716,0.98783 l -0.26532,0.69785 0.44217,0.82106 0.44217,0.82106 -0.79895,1.44157 c -0.568132,1.02509 -0.852467,1.97663 -0.984199,3.29364 -0.101887,1.01865 -0.33334,2.20928 -0.514339,2.64584 -0.181,0.43656 -0.414942,1.25218 -0.519873,1.81249 l -0.190782,1.01875 0.455827,0.50368 0.455826,0.50369 -0.316469,0.69457 c -0.174059,0.38202 -0.282246,0.71936 -0.240418,0.74965 0.04183,0.0303 0.552302,0.24005 1.134386,0.46613 l 1.058331,0.41105 1.45521,-0.23617 c 0.80036,-0.1299 1.78362,-0.16677 2.18501,-0.0819 0.4014,0.0848 0.84823,0.37552 0.99298,0.64597 0.16872,0.31527 0.61895,0.52119 1.25457,0.57381 0.54527,0.0451 1.88437,6.6e-4 2.97577,-0.0988 1.09141,-0.0995 2.63427,-0.42572 3.42857,-0.72494 z m -60.710859,-1.99961 c 1.309687,-0.0719 4.107656,-0.27986 6.217708,-0.46219 2.110052,-0.18233 5.146146,-0.31834 6.746875,-0.30226 1.60073,0.0161 4.815417,0.17334 7.143751,0.34945 2.328333,0.17611 8.40817,0.34042 13.510748,0.36512 l 9.277415,0.0449 0.45813,-3.43958 c 0.251972,-1.89177 0.639606,-4.45162 0.86141,-5.68854 0.221805,-1.23693 0.573544,-2.98288 0.781643,-3.87989 0.208099,-0.89701 0.378363,-1.69529 0.378363,-1.77395 0,-0.0787 -0.446485,-0.22444 -0.992188,-0.32395 -0.545703,-0.0995 -1.289844,-0.38221 -1.653646,-0.6282 -0.363802,-0.246 -1.852083,-0.71702 -3.307292,-1.04673 -1.455208,-0.3297 -3.300677,-0.84453 -4.101041,-1.14407 -0.800365,-0.29953 -2.186102,-0.56419 -3.079416,-0.58812 l -1.624207,-0.0435 -0.819062,-0.6892 c -0.450484,-0.37905 -1.505528,-0.93462 -2.344543,-1.23458 -0.839014,-0.29996 -1.974874,-0.79069 -2.524132,-1.0905 -0.549258,-0.29982 -1.116747,-0.47214 -1.261087,-0.38293 -0.144339,0.0892 -0.190712,0.27824 -0.10305,0.42008 0.08766,0.14184 0.0027,0.44668 -0.188799,0.67743 -0.191501,0.23074 -2.059727,1.80311 -4.151613,3.49414 -2.091886,1.69103 -4.314724,3.43179 -4.939641,3.86835 -0.624917,0.43656 -2.044544,1.58481 -3.154725,2.55165 -1.272174,1.10793 -2.342488,1.81868 -2.894721,1.92228 -0.481914,0.0904 -1.159931,0.46639 -1.506703,0.83551 -0.346772,0.36912 -1.109954,0.89302 -1.695961,1.16421 -0.586006,0.27119 -2.137029,1.40041 -3.446716,2.50937 -1.48218,1.25503 -3.305518,2.48117 -4.829239,3.24754 -1.623178,0.81638 -2.336355,1.30419 -2.116667,1.44777 0.182227,0.1191 0.926635,0.15681 1.654239,0.0838 0.727604,-0.073 2.394479,-0.19155 3.704167,-0.26342 z m 47.060153,-18.4127 c 0.472496,-0.37167 0.697136,-0.80064 0.697136,-1.33122 0,-0.51305 0.15958,-0.83365 0.46302,-0.93023 0.25467,-0.0811 1.05834,-0.42146 1.78594,-0.75646 0.72761,-0.33501 1.56104,-0.7001 1.85209,-0.81132 0.38127,-0.1457 0.41824,-0.22077 0.13229,-0.26862 -0.21828,-0.0365 -1.59094,-0.27133 -3.05035,-0.52178 l -2.653463,-0.45537 -1.344545,0.82731 c -0.7395,0.45502 -1.662988,0.82731 -2.052196,0.82731 -0.389208,0 -0.99112,-0.18574 -1.337583,-0.41275 -0.346463,-0.22701 -0.698119,-0.59044 -0.781457,-0.80762 -0.08334,-0.21717 0.03006,-0.672 0.252002,-1.01072 l 0.403526,-0.61586 -1.076116,-0.5609 c -0.591864,-0.3085 -1.120221,-0.5609 -1.174126,-0.5609 -0.05391,0 -0.34496,0.41855 -0.646788,0.93011 -0.301829,0.51156 -0.879136,1.056 -1.282906,1.20987 -0.403769,0.15387 -1.046403,0.34249 -1.428075,0.41915 l -0.693948,0.13938 -0.861277,-0.76955 -0.861276,-0.76955 0.180149,-0.5676 c 0.09908,-0.31218 0.671124,-0.84094 1.271205,-1.17502 0.600082,-0.33408 1.135064,-0.74297 1.18885,-0.90863 0.05379,-0.16567 -0.47325,-0.55906 -1.171189,-0.87421 -0.69794,-0.31514 -1.804763,-0.84931 -2.459607,-1.18705 l -1.190625,-0.61406 -0.926042,0.34366 c -0.509323,0.18901 -1.413604,0.35271 -2.009514,0.36378 -0.775492,0.0144 -1.223581,-0.13469 -1.576377,-0.52452 l -0.492905,-0.54466 0.275668,-0.44753 c 0.151617,-0.24614 0.711838,-0.68566 1.244933,-0.9767 0.533096,-0.29104 0.969587,-0.59654 0.96998,-0.67888 3.93e-4,-0.0824 -0.445769,-0.40433 -0.991472,-0.71551 -0.545703,-0.31119 -1.567752,-1.10702 -2.27122,-1.76851 -0.703467,-0.6615 -1.426853,-1.20272 -1.607525,-1.20272 -0.180671,0 -0.584975,0.27301 -0.898453,0.60669 -0.313478,0.33368 -0.704329,0.99214 -0.868556,1.46325 -0.168823,0.48428 -0.624639,1.02515 -1.048791,1.24449 -0.549932,0.28438 -0.932006,0.31882 -1.431268,0.129 -0.37459,-0.14242 -0.797714,-0.56573 -0.940274,-0.9407 l -0.259202,-0.68175 1.057696,-1.75368 c 0.581733,-0.96453 1.057697,-1.92988 1.057697,-2.14522 0,-0.21534 -0.07964,-0.31189 -0.176967,-0.21456 -0.09733,0.0973 -0.385746,-0.012 -0.640922,-0.24291 -0.255176,-0.23093 -0.919682,-0.48031 -1.47668,-0.55418 l -1.012723,-0.13431 -0.529167,1.14892 c -0.348041,0.75566 -0.833178,1.30071 -1.41735,1.59239 -0.488501,0.24391 -1.173111,0.71115 -1.521354,1.03831 -0.348244,0.32716 -0.633171,0.69135 -0.633171,0.80932 0,0.11797 0.38121,0.84135 0.847134,1.60752 0.465924,0.76617 1.150533,1.78065 1.521354,2.25439 0.370821,0.47373 1.411489,1.22829 2.312594,1.67677 0.901105,0.44849 1.838724,1.13245 2.083598,1.51991 0.244873,0.38746 0.69823,0.91959 1.00746,1.18251 0.309229,0.26292 1.051429,0.69797 1.649332,0.96676 0.597902,0.2688 1.976313,1.02851 3.063135,1.68826 1.086821,0.65974 2.283054,1.27659 2.658295,1.37077 0.44217,0.11098 0.923116,0.0134 1.366708,-0.27723 0.40201,-0.26341 0.933896,-0.38587 1.28894,-0.29676 0.332468,0.0835 1.738387,0.90986 3.124264,1.83647 l 2.519776,1.68475 2.367768,0.47013 c 1.302272,0.25858 2.844018,0.62652 3.426101,0.81765 0.582083,0.19113 1.726886,0.35691 2.544006,0.3684 l 1.485673,0.0209 z m -62.071348,-8.46651 c 0.620614,-0.14032 1.989833,-0.23827 3.042708,-0.21767 1.092707,0.0214 3.106672,-0.2106 4.692445,-0.54051 1.527969,-0.31789 3.432969,-0.68822 4.233333,-0.82297 0.800365,-0.13474 2.108237,-0.45023 2.906383,-0.70107 0.798146,-0.25085 1.7422,-0.69888 2.097897,-0.99564 0.355697,-0.29676 1.071887,-0.90847 1.591534,-1.35937 0.519646,-0.4509 2.016374,-1.58336 3.326062,-2.51659 1.309687,-0.93323 2.884824,-2.02291 3.500305,-2.4215 0.61548,-0.39859 1.770634,-1.38679 2.567009,-2.19599 0.796375,-0.8092 1.527782,-1.72279 1.625349,-2.0302 0.118724,-0.37406 0.0309,-0.66604 -0.265542,-0.8828 -0.260452,-0.19045 -0.900591,-0.27261 -1.553779,-0.19942 -0.610963,0.0685 -1.884748,0.28709 -2.830634,0.48586 -0.945885,0.19877 -2.969948,0.49628 -4.497917,0.66115 -1.531543,0.16525 -3.297785,0.52873 -3.936237,0.81005 -0.636962,0.28066 -1.505462,0.5103 -1.929999,0.5103 -0.424538,0 -1.510731,0.16931 -2.413763,0.37626 -0.903032,0.20694 -2.77297,0.6382 -4.155418,0.95836 -1.382448,0.32015 -3.049323,0.79365 -3.704166,1.05222 -0.654844,0.25857 -2.024063,0.67289 -3.042709,0.92072 -1.018646,0.24783 -2.328333,0.55233 -2.910417,0.67666 -0.582083,0.12434 -1.728402,0.23125 -2.547375,0.23759 -0.818973,0.006 -1.894671,-0.15796 -2.39044,-0.36511 -0.495769,-0.20714 -1.313981,-0.80888 -1.818249,-1.3372 -0.504269,-0.52831 -1.382973,-1.20471 -1.952676,-1.50309 -0.569702,-0.29839 -1.703677,-1.09563 -2.519944,-1.77166 -0.816267,-0.67602 -1.916508,-1.90215 -2.44498,-2.72472 -0.618712,-0.96304 -1.385756,-1.7446 -2.154114,-2.19489 -0.656291,-0.38461 -1.566716,-0.8064 -2.023167,-0.93731 l -0.829911,-0.23802 -0.139869,0.3645 c -0.07693,0.20047 -0.01299,1.59293 0.142093,3.09436 0.157745,1.52722 0.580646,3.60233 0.959939,4.71025 0.372887,1.08921 1.200325,2.93468 1.838751,4.10104 0.638427,1.16636 1.561911,2.53738 2.052188,3.0467 0.490277,0.50933 1.375497,1.35815 1.967156,1.88627 0.591659,0.52812 1.775929,1.22755 2.631712,1.55427 1.093241,0.41738 2.421496,0.64487 4.466386,0.76494 1.60073,0.094 3.446198,0.1323 4.101042,0.0851 0.654844,-0.0472 1.6984,-0.20058 2.319014,-0.3409 z"
       id="path2" /></g></svg>
