<?xml version="1.0" encoding="UTF-8" standalone="no"?>
<!-- Created with Inkscape (http://www.inkscape.org/) -->

<svg
   width="178.05092mm"
   height="150.95264mm"
   viewBox="0 0 178.05091 150.95264"
   version="1.1"
   id="svg1"
   xml:space="preserve"
   xmlns="http://www.w3.org/2000/svg"
   xmlns:svg="http://www.w3.org/2000/svg"><defs
     id="defs1" /><path
     style="fill:#ddaabb;fill-opacity:1;stroke-width:0.819894"
     d="m 120.48633,150.37842 c -0.51702,-0.31523 -0.94002,-0.64541 -0.94002,-0.73373 0,-0.0883 0.26752,-0.52243 0.5945,-0.9647 0.36983,-0.5002 0.75485,-1.78026 1.01873,-3.38686 0.24696,-1.50354 0.77646,-3.31239 1.26721,-4.3289 0.46365,-0.96038 1.07193,-2.58736 1.35175,-3.6155 0.27982,-1.02816 0.8087,-2.27213 1.17531,-2.76439 0.3666,-0.49226 0.66654,-0.98418 0.66654,-1.09315 0,-0.10896 1.12093,-2.50462 2.49094,-5.32365 1.37002,-2.81904 3.15254,-6.49218 3.96117,-8.16255 0.80863,-1.67036 2.21767,-4.29714 3.13122,-5.83727 0.91354,-1.54015 2.14525,-3.92752 2.73714,-5.30529 0.59187,-1.37777 1.25079,-2.57205 1.46424,-2.65395 0.21345,-0.0818 0.38809,-0.2776 0.38809,-0.43488 0,-0.15728 0.29285,-0.69653 0.65079,-1.19833 0.86315,-1.21008 1.27573,-4.57411 1.06972,-8.721876 -0.0396,-0.79541 0.009,-2.22715 0.10647,-3.18164 0.62469,-6.07862 1.14748,-20.94759 0.75866,-21.57672 -0.19071,-0.30858 -0.39604,-0.24502 -0.97962,0.30322 -0.40609,0.38149 -0.73833,0.90187 -0.73833,1.15638 0,0.2545 -1.94888,2.41196 -4.33083,4.79436 -2.38196,2.38239 -4.49081,4.72209 -4.68631,5.19933 -0.19553,0.47726 -1.10674,1.74569 -2.02493,2.81876 -0.91819,1.07307 -1.88304,2.27703 -2.1441,2.67547 -0.56128,0.85661 -1.40503,0.92155 -2.50965,0.19317 -1.06142,-0.6999 -1.62936,-1.51163 -1.44114,-2.05977 0.0842,-0.24528 0.70283,-1.03169 1.37465,-1.74756 0.67183,-0.71587 1.52351,-1.85476 1.89264,-2.53086 0.36911,-0.67609 0.75941,-1.22927 0.86732,-1.22927 0.10797,0 0.87371,-0.91111 1.70179,-2.02469 0.82806,-1.11357 1.66321,-2.02468 1.85587,-2.02468 0.36926,0 3.94911,-3.48114 3.94911,-3.84022 0,-0.11503 0.22778,-0.46785 0.50618,-0.78406 0.27839,-0.31621 0.83157,-0.98726 1.22926,-1.49121 0.39771,-0.50397 1.27628,-1.5032 1.95237,-2.22053 0.67611,-0.71732 1.22928,-1.45533 1.22928,-1.64001 0,-0.47553 1.2811,-1.62054 1.91768,-1.71397 0.54307,-0.0797 0.55445,-0.11781 1.25956,-4.218235 0.15046,-0.874951 0.41927,-2.371766 0.59735,-3.326262 0.41302,-2.213675 0.0639,-3.326263 -1.04377,-3.326263 -2.41669,0 -9.3172,-2.49212 -11.73574,-4.238365 -4.94662,-3.571584 -8.74065,-12.231197 -8.27036,-18.876534 0.26058,-3.682048 3.16453,-11.765243 5.9921,-16.679126 1.6354,-2.842075 3.16392,-4.7260276 6.51071,-8.0246766 4.87234,-4.802272 7.27701,-5.893239 13.61057,-6.174964 2.99738,-0.133323 4.10697,-0.0719 5.37901,0.297917 0.88145,0.256241 3.04484,0.66705 4.80754,0.912912 5.67846,0.792002 7.24806,1.596236 11.37894,5.830287 3.41542,3.5007536 4.03839,4.5392896 5.71167,9.5219036 2.2785,6.784826 2.42818,10.225473 0.60284,13.857533 -1.50405,2.992755 -9.06844,11.45374 -13.2896,14.864805 -4.49962,3.636077 -11.77325,7.997991 -14.27708,8.561791 -1.47366,0.331828 -1.48674,0.344578 -1.50944,1.469899 -0.029,1.436809 -0.29631,3.365292 -0.89975,6.490851 -0.59103,3.061347 -0.42171,3.784577 1.14203,4.878217 1.38373,0.96774 4.65346,4.10876 7.41664,7.12468 1.01816,1.11129 2.20891,2.28498 2.6461,2.6082 0.43721,0.32321 1.31121,1.23432 1.94226,2.02468 0.63103,0.79037 2.60032,2.93384 4.37618,4.76329 1.77585,1.82945 3.30081,3.6051 3.38879,3.94591 0.23838,0.92347 -0.63618,2.41795 -1.41306,2.41467 -0.89933,-0.004 -3.54313,-1.57457 -4.17059,-2.47788 -1.71405,-2.4676 -5.36971,-6.78607 -8.1837,-9.66752 -1.78662,-1.82945 -3.90444,-4.07467 -4.70626,-4.98939 -0.80184,-0.91473 -1.62275,-1.66313 -1.82426,-1.66313 -0.20151,0 -0.42448,-0.1627 -0.4955,-0.36156 -0.43016,-1.20443 -0.65141,0.93806 -0.71932,6.96559 -0.0424,3.76511 -0.17259,7.69168 -0.28925,8.72572 -0.22714,2.01337 -0.22657,7.3004 8.3e-4,8.96646 0.076,0.55679 0.0434,2.96471 -0.0726,5.350956 -0.25127,5.16849 -0.30895,4.94981 3.71787,14.0947 1.45212,3.29779 3.08843,7.13744 3.63624,8.5326 0.5478,1.39514 1.34949,3.31757 1.78154,4.27206 0.43203,0.9545 1.26993,3.10211 1.86198,4.77247 1.4601,4.11937 2.63354,6.8104 3.70668,8.50036 0.49383,0.77768 1.29757,2.61371 1.78609,4.08008 0.85306,2.56057 0.87323,2.7336 0.50962,4.37085 l -0.3786,1.70473 -1.00529,-0.0893 c -1.80873,-0.16065 -1.85952,-0.21773 -2.36381,-2.65648 -0.449,-2.17145 -0.87437,-3.22629 -2.74175,-6.79919 -0.83814,-1.60365 -1.32848,-2.83914 -2.98462,-7.52026 -2.97869,-8.41933 -10.02962,-24.82057 -10.72826,-24.95511 -0.25156,-0.0485 -0.64506,0.31896 -0.92738,0.86586 -0.26972,0.5225 -0.61084,1.14523 -0.75803,1.38387 -0.14721,0.23862 -0.54606,1.06679 -0.88634,1.84038 -0.34028,0.77359 -1.17585,2.33548 -1.85683,3.47089 -1.48668,2.47871 -3.42505,6.4191 -5.28406,10.74157 -0.75258,1.74992 -1.82307,3.96204 -2.37886,4.91585 -0.55576,0.95381 -1.42288,2.77603 -1.92691,4.04938 -0.50403,1.27334 -1.25405,3.03103 -1.66671,3.90598 -1.10807,2.34944 -2.15208,5.18545 -2.50702,6.81026 -0.1722,0.78821 -0.51458,2.05136 -0.76085,2.807 -0.40945,1.25633 -0.52622,1.37381 -1.36455,1.37281 -0.50424,-5.9e-4 -1.33981,-0.25899 -1.85682,-0.57424 z m 28.0598,-99.571703 c 1.08618,-0.378643 5.79611,-3.065652 7.53468,-4.298519 0.66627,-0.472472 1.70311,-1.183632 2.30409,-1.580363 2.87149,-1.895556 9.30955,-8.203645 12.5264,-12.273528 2.95564,-3.739442 3.44774,-4.981221 3.4386,-8.677217 -0.006,-2.652539 -0.12301,-3.366594 -0.91949,-5.640195 -0.50158,-1.43174 -1.13182,-3.343785 -1.40052,-4.248989 -0.7964,-2.682835 -5.69748,-7.9184276 -8.62458,-9.2132306 -0.69638,-0.308034 -2.81226,-0.760132 -4.70197,-1.00465 -1.8897,-0.244516 -3.87398,-0.58633 -4.40953,-0.759582 -0.53553,-0.17326 -2.53534,-0.351472 -4.44401,-0.396034 -3.26389,-0.07617 -3.59121,-0.03116 -5.50235,0.756927 -2.55979,1.055565 -5.20694,3.210306 -8.31744,6.7702716 -2.80038,3.205017 -3.89691,4.766736 -5.29643,7.543293 -2.01827,4.004152 -4.29818,10.63319 -4.70074,13.667743 -0.42553,3.207813 1.09286,8.811737 3.31314,12.227868 2.24275,3.450684 4.15135,4.838224 8.69903,6.324184 1.5043,0.491527 3.3916,1.010464 4.194,1.153199 1.68525,0.299778 4.96338,0.117253 6.30712,-0.351178 z m -8.07005,-6.540373 c -0.62661,-0.453919 -1.34628,-1.141195 -1.59925,-1.527284 -0.75019,-1.144926 -1.15576,-3.683474 -1.05666,-6.613869 l 0.0929,-2.747786 0.90989,-0.08838 c 0.50044,-0.04862 1.34646,0.02541 1.88007,0.164528 l 0.97016,0.252921 -0.10298,2.872518 c -0.1071,2.988827 0.28302,5.251794 0.94944,5.507527 0.21029,0.08067 2.24122,-0.804579 4.51318,-1.967271 3.9336,-2.013046 4.22468,-2.113983 6.09596,-2.113983 1.09464,0 2.11237,0.147252 2.29756,0.332433 0.64951,0.649521 5.3e-4,1.47472 -1.68755,2.145755 -0.90915,0.361401 -3.44095,1.546092 -5.6262,2.632649 -4.6805,2.327238 -5.78264,2.493242 -7.63659,1.150247 z m -3.55517,-18.96687 c -0.76465,-0.788911 -0.92289,-1.143565 -0.77434,-1.735447 0.15382,-0.61283 0.3565,-0.743898 1.15038,-0.743898 2.56103,0 3.79075,1.369798 2.48115,2.763791 -0.90942,0.968041 -1.72161,0.887183 -2.85719,-0.284446 z m 16.16869,-1.480951 c -0.61849,-1.000731 -0.62095,-1.041013 -0.0993,-1.61748 0.39128,-0.432363 0.76905,-0.551994 1.4061,-0.445301 1.73621,0.290783 2.4619,0.723327 2.4619,1.467431 0,1.374881 -0.2652,1.621637 -1.74279,1.621637 -1.28208,0 -1.44163,-0.08085 -2.02595,-1.026287 z"
     id="path1" /><path
     style="fill:#ddaabb;fill-opacity:1;stroke-width:1.40935"
     d="m 21.809293,150.24006 -0.83865,-0.6791 0.45537,-2.02436 c 0.25045,-1.1134 0.80671,-3.11506 1.23613,-4.44815 0.42942,-1.33309 1.35931,-3.5984 2.06642,-5.03404 0.7071,-1.43562 1.68425,-3.14439 2.17143,-3.79724 0.48719,-0.65285 0.88579,-1.30955 0.88579,-1.45934 0,-0.14977 1.02819,-2.30017 2.28487,-4.77866 1.25668,-2.47848 3.04762,-5.68121 3.97986,-7.11715 0.93225,-1.43595 2.67182,-3.86933 3.86572,-5.40751 1.19391,-1.53817 2.84051,-3.63567 3.65913,-4.66113 0.81862,-1.02545 1.49077,-2.16895 1.49367,-2.54111 0.003,-0.37216 0.36459,-1.51189 0.80374,-2.53274 l 0.79847,-1.85609 -0.41758,-0.9165 c -0.26468,-0.5809 -0.29611,-1.22371 -0.0858,-1.7555 0.18245,-0.46145 0.59209,-2.600918 0.9103,-4.754364 0.31821,-2.153446 0.66426,-6.401146 0.76901,-9.439355 l 0.19043,-5.524008 -0.8737,0.676432 c -0.48053,0.372026 -2.19602,1.71549 -3.81219,2.985457 -1.61617,1.269966 -3.8614,3.148871 -4.9894,4.175329 -1.12799,1.026473 -2.34888,2.160804 -2.71309,2.520724 -0.45568,0.45033 -1.15342,0.629571 -2.23734,0.574775 -0.86634,-0.04383 -3.41288,-0.07018 -5.65898,-0.05863 -2.2461,0.01127 -4.28543,0.18836 -4.53185,0.392857 -0.24641,0.204511 -0.88375,1.26244 -1.41631,2.350953 -0.53256,1.088512 -0.9683,2.155715 -0.9683,2.371585 0,0.215857 -0.52844,0.576679 -1.17431,0.801837 -0.64588,0.225144 -1.6387,0.40936 -2.20627,0.40936 -0.56758,0 -1.09551,-0.190657 -1.17319,-0.423693 -0.10032,-0.300939 -0.35238,-0.312468 -0.87008,-0.03974 -0.40086,0.211163 -1.56785,0.563599 -2.5933,0.783219 -1.0254498,0.219602 -3.0172898,0.318975 -4.4262998,0.2208 C 4.9781432,99.156468 3.308633,98.786763 2.664083,98.429337 2.022203,98.073406 1.373733,97.61438 1.223063,97.409291 1.072383,97.204203 0.94653296,95.010392 0.94339296,92.534162 0.94039296,90.057947 1.194133,86.31681 1.507573,84.220555 c 0.31343,-2.096255 0.53242,-4.367622 0.48664,-5.047479 -0.0606,-0.90041 0.22914,-1.630041 1.06704,-2.68666 0.63265,-0.797819 1.4624202,-1.72871 1.8439202,-2.068645 0.38151,-0.33995 1.11315,-0.652178 1.62587,-0.693838 0.51273,-0.04172 1.3879,-0.05722 1.94482,-0.03453 0.5726,0.02339 1.49341,0.511298 2.1191298,1.122957 0.69641,0.680759 1.70081,1.182079 2.7099,1.352554 0.88185,0.148982 1.81675,0.543192 2.07757,0.87601 0.26081,0.332805 0.43931,1.32449 0.39665,2.203746 l -0.0776,1.598642 1.1324,0.688651 c 0.62281,0.378763 1.64974,0.802273 2.28207,0.941165 0.63232,0.138821 1.24813,0.509099 1.36848,0.822708 0.12034,0.313609 0.13375,0.707833 0.0298,0.876053 -0.10397,0.168234 -0.2165,1.006784 -0.25006,1.863458 -0.039,0.995707 0.12961,1.676438 0.46748,1.887065 0.29069,0.181214 2.27865,0.316991 4.41769,0.301714 2.13904,-0.01522 4.32045,-0.220183 4.84758,-0.455347 0.52713,-0.235165 1.80026,-0.93099 2.82917,-1.546256 1.02892,-0.615266 3.49999,-2.429905 5.49127,-4.032506 1.99128,-1.602615 3.83425,-3.352621 4.0955,-3.888911 0.26124,-0.536282 0.97839,-1.268356 1.59366,-1.626824 0.61527,-0.358455 1.37037,-0.664129 1.67801,-0.679265 l 0.55933,-0.02748 0.0393,-3.821864 c 0.0216,-2.102019 0.14094,-5.122315 0.26517,-6.711767 l 0.22589,-2.889903 h -0.66328 c -0.3648,0 -1.82653,-0.306097 -3.24829,-0.680223 -1.42176,-0.374127 -3.27788,-1.118532 -4.12471,-1.654226 -0.84683,-0.535695 -2.50151,-2.062741 -3.67707,-3.39345 -1.17555,-1.330711 -2.77316,-3.265623 -3.55025,-4.299833 -0.77708,-1.034196 -2.42803,-3.941406 -3.66879,-6.46048 l -2.25592,-4.580124 -0.36554,-2.970785 -0.36554,-2.970786 1.26163,-4.859922 c 0.6939,-2.672961 1.7041,-5.950619 2.24489,-7.28371 0.54079,-1.333091 2.08023,-4.599037 3.42098,-7.257678 1.34075,-2.658642 2.87778,-5.391559 3.41562,-6.073149 0.53783,-0.6815903 2.57199,-2.298229 4.52034,-3.592535 1.94836,-1.29432 4.14826,-2.627312 4.88867,-2.96223 0.74041,-0.334905 2.25062,-0.799582 3.35602,-1.032604 1.10539,-0.2330359 2.22521,-0.597128 2.48847,-0.809094 0.26327,-0.211981 1.27007,-0.391067 2.23735,-0.397987 0.96727,-0.007 3.53854,0.157805 5.71393,0.366023 l 3.95526,0.3785941 5.11961,2.5799579 5.11961,2.579944 2.95049,2.7354241 c 1.88532,1.7478919 3.40835,3.5652509 4.21877,5.0340199 0.69755,1.264244 1.45283,3.187825 1.67839,4.274646 0.22556,1.086821 0.40709,2.932634 0.40342,4.101804 -0.004,1.169169 -0.49822,4.12844 -1.099,6.576159 -0.60078,2.447719 -1.56844,5.384229 -2.15038,6.525592 -0.58192,1.141349 -2.08692,4.01868 -3.34443,6.394043 -1.25752,2.375377 -2.67902,4.897439 -3.1589,5.604581 -0.47989,0.707142 -1.90048,2.543738 -3.15688,4.081326 -1.25641,1.537574 -3.00262,3.444484 -3.88047,4.237568 -0.87785,0.793084 -3.1661,2.175643 -5.085,3.072357 -1.9189,0.8967 -4.6184,1.913702 -5.99889,2.259979 l -2.50998,0.6296 v 6.137837 6.137837 l 0.55934,0.180157 c 0.30763,0.09908 1.04325,0.700645 1.63469,1.336798 0.59144,0.636153 3.19236,3.330903 5.77981,5.988319 2.58745,2.657431 5.16696,5.4681 5.73224,6.245935 0.56528,0.77782 1.17302,1.414241 1.35052,1.414241 0.1775,0 1.393,1.081452 2.70112,2.40324 1.30811,1.321774 3.00538,3.073992 3.77172,3.893812 l 1.39332,1.490572 -0.21952,1.097588 c -0.12233,0.611417 -0.60199,1.302269 -1.08301,1.559719 -0.47493,0.25416 -1.29529,0.46212 -1.82305,0.46212 -0.52776,0 -1.46547,-0.20955 -2.08379,-0.46568 -0.61833,-0.2561 -2.00418,-1.552748 -3.07967,-2.881414 -1.07548,-1.32868 -2.49068,-3.111763 -3.14488,-3.962419 -0.65419,-0.850656 -2.1644,-2.706433 -3.35601,-4.123945 -1.19162,-1.417525 -2.83778,-3.23401 -3.65814,-4.036649 -0.82036,-0.80264 -2.0352,-1.884824 -2.69965,-2.404861 -0.73932,-0.578623 -1.44873,-0.853164 -1.82826,-0.707522 l -0.62017,0.237983 0.23477,4.632114 c 0.14247,2.811022 0.0772,5.416588 -0.16596,6.62746 l -0.40072,1.995346 0.57337,1.93074 c 0.34254,1.153441 0.43231,2.017935 0.22298,2.147297 -0.19271,0.11909 -0.35038,0.68957 -0.35038,1.26769 0,0.57811 -0.26923,1.69549 -0.59829,2.48304 -0.43327,1.03695 -0.49173,1.60253 -0.21196,2.05053 0.21249,0.34025 0.5046,1.26853 0.64914,2.06287 0.14454,0.79434 0.67744,2.27129 1.18424,3.28212 0.50679,1.01085 1.13595,2.44589 1.39813,3.189 0.26219,0.74311 1.05622,2.26526 1.76451,3.38258 0.7083,1.11733 2.29941,4.0451 3.5358,6.50618 1.23638,2.46108 3.18398,6.40441 4.32799,8.76294 1.14402,2.35854 2.43634,5.29054 2.87183,6.51556 0.51698,1.45424 0.71312,2.64672 0.56512,3.43567 l -0.22669,1.20837 -1.36127,0.37585 c -0.7487,0.20674 -1.73917,0.28103 -2.20104,0.16511 -0.5666,-0.14222 -0.92138,-0.59362 -1.0907,-1.38775 -0.13801,-0.64734 -0.75238,-2.26768 -1.36527,-3.60077 -0.61288,-1.3331 -1.58673,-3.43061 -2.1641,-4.66114 -0.57738,-1.23054 -1.15844,-2.72969 -1.29126,-3.33142 -0.13282,-0.60175 -1.03884,-2.69926 -2.0134,-4.66115 -0.97455,-1.96187 -2.79102,-5.41285 -4.0366,-7.66884 -1.24558,-2.256 -2.38682,-4.52131 -2.5361,-5.03405 -0.14928,-0.51272 -0.52759,-1.224 -0.84068,-1.58063 l -0.56926,-0.6484 -1.46407,1.39419 c -0.80524,0.7668 -1.94849,2.08539 -2.54056,2.9302 -0.59207,0.84479 -1.82134,2.40862 -2.73171,3.47514 -0.91037,1.06654 -2.15751,2.97624 -2.77141,4.24381 -0.61391,1.26756 -1.53512,3.14366 -2.04715,4.16912 -0.51202,1.02544 -2.04064,4.02771 -3.39693,6.6717 -1.35629,2.64398 -2.46598,5.01193 -2.46598,5.2621 0,0.25019 -0.50967,1.57893 -1.1326,2.95276 -0.62292,1.37384 -1.29423,3.36872 -1.49179,4.43305 -0.22013,1.18598 -0.66382,2.18779 -1.14606,2.58772 -0.43277,0.35891 -1.25308,0.65256 -1.82291,0.65256 -0.56983,0 -1.41344,-0.30559 -1.8747,-0.6791 z m 34.75623,-92.670618 3.60962,-1.732953 2.15497,-2.439376 c 1.18523,-1.34166 3.12318,-3.733836 4.30656,-5.315946 1.18338,-1.582123 2.95209,-4.470687 3.93047,-6.419045 0.97838,-1.948343 2.21494,-4.303763 2.74791,-5.234259 0.53298,-0.930482 1.34028,-2.683983 1.794,-3.896645 0.45372,-1.212676 1.07578,-3.286424 1.38234,-4.608339 0.30658,-1.321915 0.55742,-3.626979 0.55742,-5.122385 0,-1.495406 -0.17335,-3.35878 -0.38522,-4.140815 -0.21188,-0.782049 -1.01826,-2.369442 -1.79195,-3.527534 -0.77371,-1.158107 -2.27435,-2.839434 -3.33476,-3.736275 -1.06043,-0.896856 -3.07404,-2.285757 -4.4747,-3.0864376 -1.40066,-0.8006804 -3.30246,-1.8470814 -4.22623,-2.3253304 -1.17073,-0.60612 -2.41342,-0.893557 -4.1018,-0.948776 l -2.42222,-0.07921 -0.9938,0.662846 -0.9938,0.662846 -2.28648,-0.414617 c -1.25756,-0.228047 -2.65616,-0.304293 -3.108,-0.169446 -0.45184,0.134875 -2.02144,0.984206 -3.488,1.887474 -1.46656,0.903267 -3.56408,2.615784 -4.66114,3.805602 -1.40035,1.518759 -2.73864,3.656448 -4.49169,7.174709 -1.57939,3.16973 -3.08058,6.929907 -4.0849,10.231876 l -1.58786,5.220462 0.003,3.169575 0.003,3.169574 1.96429,4.288247 c 1.08035,2.358535 2.61355,5.127248 3.40709,6.152692 0.79355,1.025458 2.30947,2.834191 3.36871,4.019427 1.05924,1.185237 2.45348,2.428468 3.0983,2.762752 0.64482,0.33427 2.0114,0.920744 3.03685,1.303256 l 1.86445,0.695486 2.79669,-0.138257 2.79668,-0.138258 z m -10.04154,-10.98929 c -1.07648,-0.346376 -2.96772,-1.369551 -4.20276,-2.27372 -1.26377,-0.925197 -2.34186,-2.027761 -2.46587,-2.521851 -0.12119,-0.482858 -0.0241,-1.114332 0.21565,-1.403263 0.2398,-0.288945 1.08498,-0.634997 1.87818,-0.768998 0.80939,-0.136707 1.76704,-0.06976 2.18255,0.152576 0.40721,0.217928 1.09362,0.967802 1.52536,1.666375 0.43174,0.698573 1.36974,1.547608 2.08443,1.886754 0.7147,0.339147 2.1066,0.71223 3.09313,0.829065 l 1.79367,0.212432 1.65433,-0.843976 c 0.90988,-0.464184 2.55112,-1.574499 3.64721,-2.467365 1.24914,-1.017538 2.36284,-1.621501 2.98416,-1.618302 0.5452,0.0028 1.36882,0.106265 1.83028,0.229936 0.46145,0.1236 0.839,0.448329 0.839,0.721475 0,0.273146 -0.37755,0.898306 -0.839,1.389254 -0.46146,0.490933 -1.9039,1.672477 -3.20544,2.625649 -1.30154,0.953173 -3.21976,1.986438 -4.26271,2.296172 -1.04294,0.309719 -2.99846,0.552874 -4.3456,0.540345 -1.34713,-0.01268 -3.33009,-0.306182 -4.40657,-0.652558 z m -4.77174,-17.392916 c -0.50341,-0.503406 -0.91271,-1.048754 -0.90957,-1.211901 0.003,-0.163132 0.12898,-0.474148 0.27967,-0.691117 0.15067,-0.216984 0.68884,-0.678434 1.19593,-1.025458 0.50709,-0.347011 1.47957,-0.630939 2.16107,-0.630939 0.80927,0 1.54821,0.309113 2.13022,0.891119 0.60268,0.602681 0.82354,1.149509 0.68236,1.689417 -0.11482,0.439056 -0.56079,1.044865 -0.99104,1.346227 -0.43026,0.301361 -1.42378,0.547927 -2.20782,0.547927 -1.01635,0 -1.68827,-0.262717 -2.34082,-0.915275 z m 17.5931,-1.722029 c -0.55559,-0.437026 -0.98251,-1.147691 -0.98251,-1.63551 0,-0.620566 0.36899,-1.037776 1.31475,-1.48657 0.78295,-0.371533 1.65023,-0.522221 2.14413,-0.372519 0.45615,0.138257 1.20691,0.59693 1.66837,1.019285 0.46145,0.422368 0.839,0.98384 0.839,1.247741 0,0.263886 -0.36724,0.821947 -0.81609,1.240116 -0.46618,0.434305 -1.32398,0.760302 -2.00062,0.760302 -0.65148,0 -1.62664,-0.347771 -2.16703,-0.772845 z"
     id="path2" /></svg>
