<?xml version="1.0" encoding="UTF-8" standalone="no"?>
<!-- Created with Inkscape (http://www.inkscape.org/) -->

<svg
   width="80.904999mm"
   height="149.65416mm"
   viewBox="0 0 80.904995 149.65416"
   version="1.1"
   id="svg1"
   xml:space="preserve"
   sodipodi:docname="reverse_swiss_chees_model.svg"
   inkscape:export-filename="temporary.svg"
   inkscape:export-xdpi="96"
   inkscape:export-ydpi="96"
   xmlns:inkscape="http://www.inkscape.org/namespaces/inkscape"
   xmlns:sodipodi="http://sodipodi.sourceforge.net/DTD/sodipodi-0.dtd"
   xmlns="http://www.w3.org/2000/svg"
   xmlns:svg="http://www.w3.org/2000/svg"><sodipodi:namedview
     id="namedview1"
     pagecolor="#ffffff"
     bordercolor="#000000"
     borderopacity="0.25"
     inkscape:showpageshadow="2"
     inkscape:pageopacity="0.0"
     inkscape:pagecheckerboard="0"
     inkscape:deskcolor="#d1d1d1"
     inkscape:document-units="mm" /><defs
     id="defs1" /><path
     style="fill:#ddaabb;fill-opacity:1;stroke-width:1.40935"
     d="m 20.865965,148.97508 -0.838645,-0.6791 0.455367,-2.02436 c 0.250452,-1.1134 0.806711,-3.11506 1.236132,-4.44815 0.429421,-1.33309 1.359308,-3.5984 2.066416,-5.03404 0.707107,-1.43562 1.684254,-3.14439 2.171437,-3.79724 0.487182,-0.65285 0.885787,-1.30955 0.885787,-1.45934 0,-0.14977 1.028191,-2.30017 2.28487,-4.77866 1.256679,-2.47848 3.047616,-5.68121 3.979861,-7.11715 0.932245,-1.43595 2.67182,-3.86932 3.865722,-5.4075 1.193904,-1.53817 2.840509,-3.63567 3.659127,-4.66113 0.818616,-1.02545 1.490768,-2.16895 1.493668,-2.54111 0.003,-0.37216 0.364587,-1.51189 0.803743,-2.53274 l 0.798469,-1.85609 -0.417583,-0.9165 c -0.264678,-0.5809 -0.296112,-1.22371 -0.08584,-1.755502 0.182456,-0.46145 0.592094,-2.600915 0.910304,-4.754361 0.318212,-2.153446 0.664263,-6.401146 0.769004,-9.439355 l 0.190438,-5.524008 -0.873701,0.676432 c -0.480535,0.372026 -2.196023,1.71549 -3.812195,2.985457 -1.616172,1.269966 -3.861399,3.148871 -4.989395,4.175329 -1.127994,1.026473 -2.348886,2.160804 -2.713092,2.520724 -0.455684,0.45033 -1.153416,0.629571 -2.237345,0.574775 -0.866334,-0.04383 -3.412871,-0.07018 -5.658972,-0.05863 -2.246102,0.01127 -4.285434,0.18836 -4.531849,0.392857 -0.246416,0.204511 -0.883759,1.26244 -1.416319,2.350953 -0.53256,1.088512 -0.968291,2.155715 -0.968291,2.371585 0,0.215857 -0.528443,0.576679 -1.174316,0.801837 -0.645875,0.225144 -1.638697,0.40936 -2.206272,0.40936 -0.567574,0 -1.095508,-0.190657 -1.173185,-0.423693 -0.100317,-0.300939 -0.352381,-0.312468 -0.870078,-0.03974 -0.400866,0.211163 -1.567853,0.563599 -2.593303,0.783219 -1.0254531,0.219602 -3.0172863,0.318975 -4.4262993,0.2208 C 4.0347736,97.891495 2.3652689,97.521794 1.7207205,97.164368 1.0788343,96.808437 0.43037347,96.349411 0.27969697,96.144322 0.12902035,95.939234 0.00316955,93.745423 2.805001e-5,91.269193 -0.00307195,88.792978 0.25076715,85.051841 0.56420547,82.955586 0.87764237,80.859331 1.0966302,78.587964 1.0508446,77.908107 c -0.060644,-0.90041 0.2291422,-1.630041 1.0670395,-2.68666 0.6326577,-0.797819 1.4624245,-1.72871 1.8439274,-2.068645 0.3815029,-0.33995 1.1131451,-0.652178 1.6258698,-0.693838 0.5127248,-0.04172 1.3878938,-0.05722 1.9448201,-0.03453 0.5725968,0.02339 1.4934105,0.511298 2.1191296,1.122957 0.696406,0.680759 1.700811,1.182079 2.709897,1.352554 0.881848,0.148982 1.816754,0.543192 2.077567,0.87601 0.260814,0.332805 0.439309,1.32449 0.396655,2.203746 l -0.07756,1.598642 1.132394,0.688651 c 0.622816,0.378763 1.649748,0.802273 2.282071,0.941165 0.632322,0.138821 1.248138,0.509099 1.368483,0.822708 0.120344,0.313609 0.133747,0.707833 0.02978,0.876053 -0.103968,0.168234 -0.216496,1.006784 -0.250064,1.863458 -0.03901,0.995707 0.129618,1.676438 0.467489,1.887065 0.290687,0.181214 2.278646,0.316991 4.417687,0.301714 2.13904,-0.01522 4.320451,-0.220183 4.847581,-0.455347 0.527128,-0.235165 1.800257,-0.93099 2.829172,-1.546256 1.028917,-0.615266 3.499986,-2.429905 5.491265,-4.032506 1.991279,-1.602615 3.834253,-3.352621 4.095497,-3.888911 0.261243,-0.536282 0.978391,-1.268356 1.59366,-1.626824 0.615271,-0.358455 1.370375,-0.664129 1.678009,-0.679265 l 0.559336,-0.02748 0.03928,-3.821864 c 0.02161,-2.102019 0.140935,-5.122315 0.265168,-6.711767 l 0.225888,-2.889903 h -0.663277 c -0.364802,0 -1.826535,-0.306097 -3.248294,-0.680223 -1.42176,-0.374127 -3.277879,-1.118532 -4.124709,-1.654226 -0.846828,-0.535695 -2.501508,-2.062741 -3.677064,-3.39345 -1.175557,-1.330711 -2.773168,-3.265623 -3.550249,-4.299833 -0.777081,-1.034196 -2.428037,-3.941406 -3.668792,-6.46048 l -2.255919,-4.580124 -0.365539,-2.970785 -0.365541,-2.970786 1.261628,-4.859922 c 0.693895,-2.672961 1.704094,-5.950619 2.244885,-7.28371 0.540792,-1.333091 2.080236,-4.599037 3.420987,-7.257679 1.340751,-2.658642 2.877776,-5.3915581 3.415613,-6.0731481 C 34.79245,8.1130775 36.826606,6.496439 38.774961,5.2021331 40.723316,3.9078132 42.923217,2.5748207 43.66363,2.2399025 44.404042,1.9049983 45.914251,1.4403212 47.019647,1.207299 48.125043,0.97426285 49.244856,0.61017105 49.50812,0.39820467 49.771384,0.18622417 50.778189,0.00713797 51.745465,2.1796556e-4 52.712741,-0.00683203 55.284013,0.15802307 57.459402,0.36624057 l 3.955254,0.37859398 5.119609,2.57995825 5.119614,2.5799442 2.950491,2.7354239 c 1.885317,1.7478911 3.408347,3.5652501 4.218766,5.0340191 0.697558,1.264244 1.45283,3.187826 1.678396,4.274647 0.225553,1.086821 0.407091,2.932634 0.403413,4.101804 -0.0042,1.169169 -0.49822,4.12844 -1.098998,6.576159 -0.600778,2.447719 -1.568439,5.384229 -2.150374,6.525592 -0.581921,1.141349 -2.086925,4.01868 -3.344432,6.394043 -1.257522,2.375377 -2.679022,4.897439 -3.158906,5.604581 -0.479884,0.707142 -1.900478,2.543738 -3.15688,4.081326 -1.256405,1.537574 -3.002612,3.444484 -3.880463,4.237568 -0.877851,0.793084 -3.166103,2.175643 -5.085004,3.072357 -1.918902,0.8967 -4.618403,1.913702 -5.998889,2.259979 l -2.509977,0.6296 v 6.137837 6.137837 l 0.559336,0.180157 c 0.307635,0.09908 1.043246,0.700645 1.63469,1.336798 0.591445,0.636153 3.192358,3.330903 5.779808,5.988319 2.587449,2.657431 5.166959,5.4681 5.732243,6.245935 0.565284,0.77782 1.173017,1.414241 1.350518,1.414241 0.177502,0 1.393005,1.081452 2.70112,2.40324 1.308115,1.321774 3.005385,3.073992 3.77172,3.893812 l 1.393327,1.490572 -0.219521,1.097588 c -0.122332,0.611417 -0.60199,1.302267 -1.083016,1.559717 -0.474923,0.254159 -1.295292,0.462119 -1.823052,0.462119 -0.52776,0 -1.465464,-0.20955 -2.083791,-0.465679 -0.618327,-0.2561 -2.004174,-1.552746 -3.079662,-2.881412 -1.075488,-1.32868 -2.490684,-3.111763 -3.144879,-3.962419 -0.654197,-0.850656 -2.164406,-2.706433 -3.356018,-4.123945 -1.191613,-1.417525 -2.837774,-3.23401 -3.658133,-4.036649 -0.820359,-0.80264 -2.035203,-1.884824 -2.699653,-2.404861 -0.739322,-0.578623 -1.448731,-0.853164 -1.828261,-0.707522 l -0.620171,0.237983 0.234767,4.632114 c 0.14247,2.811022 0.07722,5.416588 -0.165954,6.62746 l -0.400722,1.995346 0.57337,1.93074 c 0.342536,1.153441 0.432308,2.017935 0.222985,2.147295 -0.192713,0.11909 -0.350387,0.689569 -0.350387,1.267691 0,0.57811 -0.269231,1.69549 -0.598291,2.48304 -0.43327,1.03695 -0.491731,1.60253 -0.211954,2.05053 0.212486,0.34025 0.504596,1.26853 0.649135,2.06287 0.14454,0.79434 0.677447,2.27129 1.18424,3.28212 0.506792,1.01085 1.135954,2.44589 1.398137,3.189 0.262184,0.74311 1.056212,2.26526 1.76451,3.38258 0.708298,1.11732 2.299404,4.04509 3.535792,6.50617 1.236387,2.46108 3.183986,6.40441 4.327997,8.76294 1.144013,2.35854 2.436334,5.29054 2.871828,6.51556 0.516978,1.45424 0.713123,2.64672 0.565116,3.43567 l -0.22669,1.20837 -1.36127,0.37585 c -0.748698,0.20674 -1.739163,0.28103 -2.201033,0.16511 -0.566608,-0.14222 -0.921387,-0.59362 -1.090701,-1.38775 -0.138017,-0.64734 -0.752386,-2.26768 -1.365271,-3.60077 -0.612883,-1.3331 -1.58673,-3.43061 -2.164106,-4.66114 -0.577375,-1.23054 -1.15844,-2.72969 -1.291255,-3.33142 -0.132817,-0.60175 -1.038845,-2.69926 -2.0134,-4.66115 -0.974555,-1.96187 -2.791026,-5.41285 -4.036602,-7.66884 -1.245575,-2.25599 -2.386821,-4.5213 -2.536101,-5.03404 -0.149281,-0.51272 -0.527587,-1.224 -0.84068,-1.58063 l -0.569263,-0.6484 -1.464068,1.39419 c -0.805238,0.7668 -1.948488,2.08539 -2.540558,2.9302 -0.592068,0.84479 -1.821338,2.40861 -2.731709,3.47513 -0.910372,1.06654 -2.157506,2.97624 -2.771413,4.24381 -0.613905,1.26756 -1.53512,3.14366 -2.047143,4.16912 -0.512024,1.02544 -2.040645,4.02771 -3.396934,6.6717 -1.35629,2.64398 -2.465981,5.01193 -2.465981,5.2621 0,0.25019 -0.509668,1.57893 -1.132595,2.95276 -0.622928,1.37384 -1.294233,3.36872 -1.491791,4.43305 -0.220137,1.18598 -0.663822,2.18779 -1.146059,2.58772 -0.432777,0.35891 -1.253088,0.65256 -1.822917,0.65256 -0.569829,0 -1.413441,-0.30559 -1.874695,-0.6791 z m 34.756237,-92.670607 3.609615,-1.732953 2.154967,-2.439376 c 1.185232,-1.34166 3.123187,-3.733836 4.306567,-5.315946 1.18338,-1.582123 2.95209,-4.470687 3.930468,-6.419045 0.978375,-1.948343 2.21494,-4.303763 2.747914,-5.234259 0.532975,-0.930482 1.340279,-2.683983 1.793992,-3.896645 0.453726,-1.212676 1.075786,-3.286424 1.382348,-4.608339 0.306576,-1.321915 0.557412,-3.626979 0.557412,-5.122385 0,-1.495406 -0.17335,-3.35878 -0.385218,-4.140815 C 75.508385,16.612661 74.702011,15.025267 73.928319,13.867175 73.154614,12.709068 71.653965,11.027741 70.593555,10.1309 69.533131,9.2340449 67.519521,7.8451438 66.118861,7.0444632 64.7182,6.2437826 62.816396,5.1973816 61.892628,4.7191324 60.721898,4.1130127 59.479212,3.8255756 57.79083,3.7703572 l -2.422224,-0.079206 -0.993798,0.6628461 -0.9938,0.662846 -2.286479,-0.414617 c -1.257564,-0.2280471 -2.656163,-0.304293 -3.108,-0.1694463 -0.451836,0.1348749 -2.021436,0.9842063 -3.488,1.8874736 -1.466565,0.9032672 -3.564076,2.6157843 -4.661136,3.8056014 -1.400353,1.518759 -2.738643,3.656448 -4.491697,7.17471 -1.579385,3.16973 -3.080576,6.929907 -4.0849,10.231876 l -1.587858,5.220462 0.0032,3.169575 0.0032,3.169574 1.964286,4.288247 c 1.080358,2.358535 2.61355,5.127248 3.407097,6.152692 0.793545,1.025458 2.309464,2.834191 3.368707,4.019427 1.059243,1.185237 2.453476,2.428468 3.098296,2.762752 0.644821,0.33427 2.011407,0.920744 3.036856,1.303256 l 1.864453,0.695486 2.796682,-0.138257 2.796681,-0.138258 z M 45.58066,45.315183 c -1.076483,-0.346376 -2.967726,-1.369551 -4.202763,-2.27372 -1.263771,-0.925197 -2.34186,-2.027761 -2.465867,-2.521851 -0.12119,-0.482858 -0.02414,-1.114332 0.215653,-1.403263 0.239798,-0.288945 1.084978,-0.634997 1.878178,-0.768998 0.809386,-0.136707 1.767036,-0.06976 2.18255,0.152576 0.407203,0.217928 1.093613,0.967802 1.525357,1.666375 0.431743,0.698573 1.369738,1.547608 2.084434,1.886754 0.714696,0.339147 2.106601,0.71223 3.093122,0.829065 l 1.793675,0.212432 1.654326,-0.843976 c 0.909879,-0.464184 2.551127,-1.574499 3.647218,-2.467365 1.249136,-1.017538 2.362836,-1.621501 2.984159,-1.618302 0.545197,0.0028 1.368819,0.106265 1.830272,0.229936 0.461452,0.1236 0.839004,0.448329 0.839004,0.721475 0,0.273146 -0.377552,0.898306 -0.839004,1.389254 -0.461453,0.490933 -1.9039,1.672477 -3.205438,2.625649 -1.30154,0.953173 -3.219756,1.986438 -4.262703,2.296172 -1.042948,0.309719 -2.998468,0.552874 -4.3456,0.540345 -1.347134,-0.01268 -3.330091,-0.306182 -4.406573,-0.652558 z M 40.808915,27.922267 c -0.503403,-0.503406 -0.912708,-1.048754 -0.909567,-1.211901 0.0031,-0.163132 0.128984,-0.474148 0.279667,-0.691117 0.150677,-0.216984 0.688848,-0.678434 1.195934,-1.025458 0.507085,-0.347011 1.479567,-0.630939 2.161072,-0.630939 0.809272,0 1.548212,0.309113 2.130214,0.891119 0.602681,0.602681 0.823546,1.149509 0.682359,1.689417 -0.11482,0.439056 -0.560785,1.044865 -0.991039,1.346227 -0.430252,0.301361 -1.423772,0.547927 -2.20782,0.547927 -1.016351,0 -1.688266,-0.262717 -2.34082,-0.915275 z M 58.40202,26.200238 c -0.555588,-0.437026 -0.982513,-1.147691 -0.982513,-1.63551 0,-0.620566 0.368995,-1.037776 1.314755,-1.48657 0.782951,-0.371533 1.650228,-0.522221 2.144124,-0.372519 0.45615,0.138257 1.206916,0.59693 1.668369,1.019285 0.461452,0.422368 0.839005,0.98384 0.839005,1.247741 0,0.263886 -0.367243,0.821947 -0.816095,1.240116 -0.466178,0.434305 -1.32398,0.760302 -2.000612,0.760302 -0.651485,0 -1.626649,-0.347771 -2.167033,-0.772845 z"
     id="path2" /></svg>
