<?xml version="1.0" encoding="UTF-8" standalone="no"?>
<!-- Created with Inkscape (http://www.inkscape.org/) -->

<svg
   width="57.405849mm"
   height="106.18655mm"
   viewBox="0 0 57.405844 106.18654"
   version="1.1"
   id="svg1"
   xml:space="preserve"
   xmlns="http://www.w3.org/2000/svg"
   xmlns:svg="http://www.w3.org/2000/svg"><defs
     id="defs1" /><g
     id="layer1"
     transform="translate(-50.48114,-447.01519)"><path
       style="fill:#ddaabb;fill-opacity:1"
       d="m 65.286509,552.71991 -0.595057,-0.48185 0.323104,-1.43638 c 0.177707,-0.79001 0.572399,-2.21028 0.877093,-3.15617 0.304694,-0.94589 0.964492,-2.55323 1.466218,-3.57188 0.501725,-1.01864 1.195056,-2.23109 1.540735,-2.69432 0.345678,-0.46323 0.628507,-0.92919 0.628507,-1.03547 0,-0.10627 0.729549,-1.63208 1.621221,-3.39068 0.891672,-1.7586 2.162425,-4.03108 2.823896,-5.04995 0.661471,-1.01887 1.89578,-2.74546 2.742909,-3.83687 0.84713,-1.0914 2.015473,-2.57968 2.59632,-3.30729 0.580846,-0.7276 1.057769,-1.53897 1.059827,-1.80303 0.0021,-0.26407 0.258691,-1.07276 0.570293,-1.7971 l 0.566551,-1.31698 -0.296295,-0.6503 c -0.187801,-0.41218 -0.210105,-0.86828 -0.06091,-1.24561 0.129461,-0.32742 0.420118,-1.84547 0.645903,-3.37344 0.225786,-1.52797 0.471325,-4.54191 0.545644,-6.69766 l 0.135124,-3.91954 -0.619931,0.47996 c -0.340962,0.26397 -1.55818,1.21722 -2.704929,2.11832 -1.146749,0.9011 -2.739842,2.23427 -3.540207,2.96259 -0.800364,0.72833 -1.666644,1.53319 -1.925065,1.78857 -0.323329,0.31953 -0.818402,0.44671 -1.5875,0.40783 -0.614704,-0.0311 -2.42159,-0.0498 -4.015303,-0.0416 -1.593713,0.008 -3.040714,0.13365 -3.215557,0.27875 -0.174843,0.14511 -0.627068,0.89576 -1.004944,1.66811 -0.377876,0.77235 -0.687047,1.52958 -0.687047,1.68275 0,0.15316 -0.374955,0.40918 -0.833232,0.56894 -0.458278,0.15975 -1.162731,0.29046 -1.565452,0.29046 -0.40272,0 -0.777314,-0.13528 -0.832429,-0.30063 -0.07118,-0.21353 -0.250031,-0.22171 -0.617361,-0.0282 -0.284433,0.14983 -1.112464,0.3999 -1.840068,0.55573 -0.727604,0.15582 -2.140902,0.22633 -3.140662,0.15667 -1.003906,-0.0699 -2.188497,-0.33222 -2.645834,-0.58583 -0.455448,-0.25255 -0.915561,-0.57825 -1.022473,-0.72377 -0.106912,-0.14552 -0.196209,-1.70213 -0.198438,-3.45913 -0.0022,-1.75699 0.177911,-4.4115 0.40031,-5.89889 0.222398,-1.48739 0.37778,-3.09903 0.345293,-3.58142 -0.04303,-0.63888 0.162587,-1.15659 0.757114,-1.90631 0.4489,-0.56609 1.037658,-1.2266 1.308352,-1.4678 0.270694,-0.24121 0.789828,-0.46275 1.15363,-0.49231 0.363802,-0.0296 0.984775,-0.0406 1.37994,-0.0245 0.406284,0.0166 1.059644,0.36279 1.503621,0.79679 0.494132,0.48303 1.206804,0.83874 1.922797,0.9597 0.625712,0.10571 1.289071,0.38542 1.47413,0.62157 0.18506,0.23614 0.31171,0.93979 0.281445,1.56366 l -0.05503,1.13431 0.803486,0.48863 c 0.441917,0.26875 1.170573,0.56925 1.619235,0.6678 0.448662,0.0985 0.885612,0.36123 0.971002,0.58375 0.08539,0.22252 0.0949,0.50224 0.02113,0.6216 -0.07377,0.11937 -0.153614,0.71436 -0.177432,1.32221 -0.02768,0.7065 0.09197,1.18951 0.331705,1.33896 0.206256,0.12858 1.616805,0.22492 3.134554,0.21408 1.517748,-0.0108 3.06556,-0.15623 3.439583,-0.32309 0.374022,-0.16686 1.277366,-0.66058 2.007429,-1.09714 0.730064,-0.43656 2.483402,-1.72413 3.896307,-2.86125 1.412905,-1.13713 2.72058,-2.37884 2.905945,-2.75936 0.185364,-0.38052 0.694214,-0.89996 1.130776,-1.15431 0.436563,-0.25434 0.972344,-0.47123 1.190625,-0.48197 l 0.396875,-0.0195 0.02787,-2.71179 c 0.01533,-1.49148 0.1,-3.63452 0.188149,-4.76231 l 0.160278,-2.05052 h -0.470626 c -0.258844,0 -1.296011,-0.21719 -2.304815,-0.48265 -1.008805,-0.26546 -2.325807,-0.79365 -2.926672,-1.17375 -0.600864,-0.3801 -1.774936,-1.46361 -2.609048,-2.40781 -0.834112,-0.9442 -1.967691,-2.31711 -2.519066,-3.05093 -0.551375,-0.73381 -1.722805,-2.79661 -2.603178,-4.58401 l -1.600679,-3.24981 -0.259367,-2.10791 -0.259368,-2.10791 0.895183,-3.44834 c 0.492351,-1.89659 1.209134,-4.22224 1.59285,-5.16813 0.383717,-0.94589 1.476024,-3.26323 2.427349,-5.14966 0.951325,-1.88643 2.041916,-3.82556 2.423536,-4.30918 0.381619,-0.48362 1.824947,-1.6307 3.207395,-2.54907 1.382448,-0.91838 2.94338,-1.8642 3.468737,-2.10184 0.525357,-0.23763 1.59692,-0.56734 2.38125,-0.73268 0.78433,-0.16535 1.578889,-0.42369 1.765687,-0.57409 0.186798,-0.15041 0.901173,-0.27748 1.5875,-0.28239 0.686327,-0.005 2.510764,0.11197 4.054303,0.25971 l 2.806436,0.26863 3.6326,1.8306 3.632604,1.83059 2.09351,1.94091 c 1.33772,1.24021 2.41838,2.52971 2.99341,3.57187 0.49495,0.89704 1.03085,2.26191 1.1909,3.03306 0.16004,0.77115 0.28885,2.08084 0.28624,2.91042 -0.003,0.82958 -0.35351,2.92932 -0.77979,4.66609 -0.42628,1.73677 -1.11288,3.82036 -1.52579,4.63021 -0.4129,0.80984 -1.48077,2.85144 -2.37303,4.53687 -0.89227,1.68544 -1.90089,3.47496 -2.24139,3.97671 -0.3405,0.50175 -1.348477,1.8049 -2.239953,2.89589 -0.891477,1.09098 -2.130492,2.44402 -2.753368,3.00675 -0.622876,0.56273 -2.246497,1.54372 -3.608046,2.17998 -1.36155,0.63625 -3.276971,1.35786 -4.25649,1.60356 l -1.780945,0.44673 v 4.35508 4.35508 l 0.396875,0.12783 c 0.218281,0.0703 0.740231,0.49714 1.159888,0.94852 0.419658,0.45138 2.265126,2.36343 4.101042,4.24899 1.835915,1.88557 3.666197,3.87987 4.067292,4.43178 0.401095,0.5519 0.83231,1.00347 0.958255,1.00347 0.125946,0 0.988402,0.76734 1.91657,1.70521 0.928168,0.93786 2.13246,2.18114 2.67621,2.76284 l 0.98863,1.05763 -0.15576,0.77879 c -0.0868,0.43383 -0.42714,0.92402 -0.76845,1.10669 -0.33698,0.18034 -0.91907,0.3279 -1.29354,0.3279 -0.37447,0 -1.039815,-0.14869 -1.478546,-0.33042 -0.438732,-0.18172 -1.422055,-1.10175 -2.185163,-2.0445 -0.763109,-0.94276 -1.767256,-2.20794 -2.231438,-2.81152 -0.464183,-0.60358 -1.535746,-1.92034 -2.38125,-2.92613 -0.845505,-1.0058 -2.013532,-2.29468 -2.595615,-2.86419 -0.582083,-0.56951 -1.444071,-1.33737 -1.915529,-1.70636 -0.524583,-0.41056 -1.027942,-0.60536 -1.297236,-0.50202 l -0.44004,0.16886 0.166578,3.2867 c 0.101089,1.99455 0.05479,3.84332 -0.117752,4.70249 l -0.284331,1.41579 0.406833,1.36995 c 0.243045,0.81842 0.306742,1.43182 0.158218,1.52361 -0.136739,0.0845 -0.248616,0.48928 -0.248616,0.89948 0,0.4102 -0.191032,1.20303 -0.424515,1.76183 -0.307425,0.73577 -0.348906,1.13707 -0.150391,1.45495 0.150768,0.24142 0.358034,0.90008 0.460591,1.4637 0.102558,0.56362 0.48068,1.61159 0.840273,2.32882 0.359593,0.71724 0.806012,1.73547 0.992043,2.26274 0.186032,0.52727 0.749432,1.60731 1.252002,2.4001 0.50257,0.79279 1.631534,2.87018 2.508808,4.61643 0.877274,1.74625 2.259186,4.54422 3.070915,6.21771 0.81173,1.67349 1.728692,3.75388 2.037695,4.62309 0.36682,1.03185 0.505994,1.87797 0.400976,2.43777 l -0.160847,0.85739 -0.965884,0.26669 c -0.531236,0.14669 -1.234017,0.1994 -1.561735,0.11715 -0.402035,-0.10091 -0.653767,-0.4212 -0.773903,-0.98467 -0.09793,-0.45932 -0.533853,-1.60903 -0.968723,-2.55492 -0.434869,-0.94589 -1.125859,-2.43417 -1.535534,-3.30729 -0.409674,-0.87313 -0.821967,-1.93684 -0.916205,-2.3638 -0.09424,-0.42697 -0.737109,-1.91525 -1.428601,-3.3073 -0.691492,-1.39204 -1.980362,-3.84067 -2.864156,-5.4414 -0.883793,-1.60073 -1.69356,-3.20807 -1.799481,-3.57188 -0.105922,-0.3638 -0.374348,-0.86849 -0.596502,-1.12153 l -0.403918,-0.46007 -1.038824,0.98924 c -0.571354,0.54408 -1.382543,1.47968 -1.802644,2.07911 -0.4201,0.59942 -1.292324,1.70902 -1.938274,2.46577 -0.645951,0.75676 -1.530851,2.11178 -1.966446,3.01118 -0.435594,0.89939 -1.089239,2.23057 -1.452543,2.95818 -0.363305,0.7276 -1.447932,2.85785 -2.410282,4.73388 -0.962351,1.87603 -1.749728,3.5562 -1.749728,3.73371 0,0.17752 -0.361633,1.12032 -0.803629,2.09512 -0.441996,0.9748 -0.918318,2.39026 -1.058495,3.14545 -0.156197,0.84151 -0.471012,1.55234 -0.813182,1.83611 -0.307075,0.25466 -0.889124,0.46302 -1.293444,0.46302 -0.40432,0 -1.002902,-0.21683 -1.330183,-0.48185 z m 24.661162,-65.75409 2.561189,-1.22961 1.529049,-1.73085 c 0.840977,-0.95197 2.216046,-2.64933 3.055709,-3.77191 0.839663,-1.12259 2.094645,-3.17216 2.788849,-4.55461 0.694203,-1.38244 1.571603,-3.05372 1.949773,-3.71395 0.37817,-0.66022 0.95099,-1.90441 1.27292,-2.76485 0.32194,-0.86045 0.76332,-2.33187 0.98084,-3.26983 0.21753,-0.93796 0.39551,-2.57351 0.39551,-3.63457 0,-1.06106 -0.123,-2.38321 -0.27333,-2.9381 -0.15034,-0.5549 -0.7225,-1.68123 -1.27147,-2.50295 -0.54898,-0.82173 -1.61376,-2.01471 -2.36617,-2.65106 -0.75242,-0.63636 -2.18117,-1.62185 -3.175003,-2.18997 -0.993834,-0.56812 -2.343252,-1.31059 -2.998708,-1.64993 -0.830687,-0.43007 -1.712431,-0.63402 -2.910416,-0.6732 l -1.71868,-0.0562 -0.705146,0.47032 -0.705147,0.47032 -1.622363,-0.29419 c -0.8923,-0.16181 -1.884671,-0.21591 -2.20527,-0.12023 -0.320599,0.0957 -1.434303,0.69834 -2.474898,1.33925 -1.040596,0.64091 -2.528877,1.85602 -3.307292,2.70025 -0.993615,1.07763 -1.943194,2.59442 -3.187067,5.09079 -1.120647,2.24907 -2.185812,4.91709 -2.898426,7.25999 l -1.126659,3.70416 0.0023,2.24896 0.0023,2.24896 1.393752,3.04271 c 0.766564,1.67349 1.854435,3.63802 2.417493,4.36562 0.563057,0.72761 1.638672,2.01099 2.390254,2.85197 0.751582,0.84098 1.740855,1.72311 2.198385,1.9603 0.45753,0.23718 1.427186,0.65331 2.15479,0.92472 l 1.322916,0.49348 1.984375,-0.0981 1.984375,-0.0981 z m -7.12494,-7.79741 c -0.763814,-0.24577 -2.105739,-0.97176 -2.982055,-1.61331 -0.896704,-0.65647 -1.661658,-1.43879 -1.749647,-1.78937 -0.08599,-0.34261 -0.01713,-0.79067 0.153016,-0.99568 0.170148,-0.20502 0.769842,-0.45056 1.332654,-0.54564 0.574297,-0.097 1.253794,-0.0495 1.548621,0.10826 0.288929,0.15463 0.775969,0.6867 1.082311,1.18237 0.306342,0.49567 0.971893,1.0981 1.479003,1.33874 0.50711,0.24064 1.494731,0.50536 2.194713,0.58826 l 1.272696,0.15073 1.173821,-0.59884 c 0.645601,-0.32936 1.810143,-1.11718 2.58787,-1.75071 0.88632,-0.72199 1.676542,-1.15053 2.117399,-1.14826 0.386843,0.002 0.971241,0.0754 1.298663,0.16315 0.327422,0.0877 0.595312,0.31811 0.595312,0.51192 0,0.19381 -0.26789,0.63739 -0.595312,0.98574 -0.327422,0.34834 -1.350905,1.1867 -2.274407,1.86302 -0.923503,0.67632 -2.284566,1.40947 -3.024585,1.62924 -0.74002,0.21976 -2.127552,0.39229 -3.083405,0.3834 -0.955854,-0.009 -2.362854,-0.21725 -3.126668,-0.46302 z m -3.385774,-12.34108 c -0.357188,-0.35719 -0.647609,-0.74414 -0.64538,-0.8599 0.0022,-0.11575 0.09152,-0.33643 0.198437,-0.49038 0.106912,-0.15396 0.488769,-0.48138 0.84857,-0.72761 0.359801,-0.24622 1.049822,-0.44768 1.533381,-0.44768 0.574216,0 1.098528,0.21933 1.511486,0.63229 0.42763,0.42763 0.584344,0.81563 0.484165,1.19872 -0.08147,0.31153 -0.397903,0.74138 -0.703188,0.95521 -0.305284,0.21383 -1.010232,0.38878 -1.566551,0.38878 -0.721148,0 -1.197903,-0.18641 -1.66092,-0.64943 z m 12.483124,-1.22186 c -0.394216,-0.31009 -0.697139,-0.81434 -0.697139,-1.16047 0,-0.44032 0.261819,-0.73635 0.93288,-1.05479 0.55554,-0.26362 1.170913,-0.37054 1.521355,-0.26432 0.32366,0.0981 0.856363,0.42355 1.183785,0.72323 0.327422,0.29969 0.595313,0.69808 0.595313,0.88533 0,0.18724 -0.260576,0.58321 -0.579057,0.87992 -0.330775,0.30816 -0.939425,0.53947 -1.419527,0.53947 -0.462259,0 -1.154183,-0.24676 -1.53761,-0.54837 z"
       id="path2" /></g></svg>
