<?xml version="1.0" encoding="UTF-8" standalone="no"?>
<!-- Created with Inkscape (http://www.inkscape.org/) -->

<svg
   width="446.45511mm"
   height="289.82095mm"
   viewBox="0 0 446.45509 289.82095"
   version="1.1"
   id="svg1"
   xml:space="preserve"
   xmlns="http://www.w3.org/2000/svg"
   xmlns:svg="http://www.w3.org/2000/svg"><defs
     id="defs1" /><g
     id="layer1"
     transform="translate(139.92489,-395.63419)"><path
       style="fill:#ddaabb;fill-opacity:1"
       d="m -41.771229,685.09356 c -0.360084,-0.19935 -1.011887,-0.36633 -1.448449,-0.37106 -0.436563,-0.005 -1.567656,-0.32214 -2.513542,-0.70532 -0.945885,-0.38319 -2.23903,-0.94908 -2.873654,-1.25754 -0.634625,-0.30845 -1.48591,-0.86535 -1.891745,-1.23755 -0.405835,-0.3722 -0.868198,-1.1461 -1.027474,-1.71979 -0.159276,-0.57369 -0.290257,-1.71219 -0.291068,-2.53001 -8.8e-4,-0.88633 0.319446,-2.56721 0.793029,-4.16135 0.436977,-1.47092 1.098262,-3.36125 1.469522,-4.20074 0.37126,-0.83948 1.038958,-2.09349 1.483774,-2.78667 0.549484,-0.8563 1.499124,-1.72854 2.962249,-2.7208 1.18442,-0.80326 2.748805,-1.88053 3.476409,-2.39394 0.727604,-0.51341 2.632604,-1.59314 4.233333,-2.39942 1.600729,-0.80627 3.02948,-1.5593 3.175,-1.67339 0.145521,-0.1141 1.098021,-0.45514 2.116667,-0.75787 1.018646,-0.30273 2.675712,-0.73974 3.682369,-0.97114 1.006657,-0.2314 2.55447,-0.48637 3.439583,-0.56662 0.885114,-0.0802 2.536997,-0.0149 3.67085,0.14526 l 2.061553,0.29116 0.601619,-0.3942 c 0.358866,-0.23513 0.788196,-0.98608 1.064013,-1.86107 0.276382,-0.87679 0.524331,-2.77773 0.616359,-4.7254 0.08468,-1.79219 0.07489,-3.57357 -0.02175,-3.95863 -0.09664,-0.38506 -0.290913,-0.70011 -0.431709,-0.70011 -0.140795,0 -0.436183,0.43126 -0.656417,0.95835 -0.220234,0.5271 -0.400426,1.16456 -0.400426,1.41658 0,0.25202 -0.304987,0.7873 -0.67775,1.18952 l -0.67775,0.7313 -1.080334,-0.17275 c -0.594184,-0.095 -1.42029,-0.41482 -1.835792,-0.71068 -0.415501,-0.29587 -0.755457,-0.74931 -0.755457,-1.00767 0,-0.25835 0.237269,-1.15936 0.527266,-2.00225 0.289996,-0.84289 0.971331,-2.20098 1.514078,-3.01798 0.542746,-0.81701 1.243634,-2.25937 1.557529,-3.20525 l 0.570717,-1.71979 -0.30349,-0.32592 c -0.166919,-0.17925 -0.942734,-0.44714 -1.724033,-0.59531 -0.781299,-0.14817 -2.21612,-0.2694 -3.188491,-0.2694 -0.972372,0 -2.355106,0.17048 -3.072742,0.37885 -0.717636,0.20837 -1.887848,0.46264 -2.600472,0.56505 -0.712623,0.1024 -1.605592,0.3479 -1.984375,0.54555 -0.378783,0.19766 -0.832721,0.36011 -1.008752,0.361 -0.176031,9e-4 -1.307973,0.74577 -2.515426,1.65528 -1.207454,0.9095 -2.849366,2.10585 -3.648694,2.65855 -0.799328,0.55271 -1.870043,1.30268 -2.379366,1.66663 -0.509323,0.36394 -1.860308,1.5786 -3.002189,2.69925 -1.141881,1.12065 -2.539028,2.65506 -3.104772,3.40979 l -1.028624,1.37224 -1.173953,0.17604 -1.173953,0.17605 -1.343402,-0.75454 c -0.949884,-0.53351 -1.343481,-0.91763 -1.343671,-1.31132 -1.75e-4,-0.36046 0.67613,-1.14937 1.91796,-2.2373 1.055026,-0.92427 2.70162,-2.45965 3.659097,-3.41196 0.957478,-0.9523 2.660716,-2.37395 3.784973,-3.15924 1.124257,-0.78528 2.900742,-2.21403 3.947744,-3.175 1.047002,-0.96096 2.402642,-2.13416 3.012534,-2.60711 0.609891,-0.47294 1.225289,-0.85989 1.36755,-0.85989 0.142261,0 0.595727,-0.17249 1.007702,-0.38331 0.411975,-0.21082 1.911455,-0.92197 3.332177,-1.58033 1.420721,-0.65836 2.670878,-1.21301 2.778125,-1.23256 0.107247,-0.0195 0.611713,-0.2458 1.121036,-0.50279 0.509323,-0.25699 1.640417,-0.67504 2.513542,-0.92899 1.031261,-0.29995 2.421858,-0.45348 3.96875,-0.43818 1.309687,0.013 2.643475,0.0289 2.963972,0.0353 0.320497,0.006 1.094403,0.23374 1.719792,0.50504 0.625388,0.2713 1.384512,0.77551 1.686942,1.12047 0.302431,0.34496 1.174568,1.559 1.938085,2.69785 l 1.388211,2.07066 -0.175403,1.0382 c -0.114656,0.67864 -0.315487,1.0382 -0.579881,1.0382 -0.295175,0 -0.356955,0.16087 -0.228619,0.59531 0.09672,0.32742 0.28274,2.55985 0.413372,4.96094 0.130632,2.40109 0.166322,6.81014 0.07931,9.79787 -0.10911,3.74654 -0.06744,5.60183 0.13427,5.97874 0.202541,0.37845 0.207836,0.63113 0.01722,0.82174 -0.190616,0.19062 -0.186808,0.32992 0.01238,0.45303 0.158201,0.0978 0.287637,0.35636 0.287637,0.57464 0,0.21828 -0.120775,0.32223 -0.268389,0.231 -0.167858,-0.10374 -0.252272,0.26206 -0.22536,0.97657 0.02367,0.62835 -0.02246,2.5712 -0.102498,4.31745 -0.08004,1.74625 -0.276245,3.88938 -0.43601,4.7625 -0.159765,0.87313 -0.451922,2.65906 -0.649238,3.96875 -0.233849,1.55218 -0.267472,2.44045 -0.09657,2.55129 0.144202,0.0935 0.189089,0.46128 0.09975,0.81724 l -0.162437,0.6472 0.933397,0.0351 c 0.513369,0.0193 1.040919,0.10154 1.172333,0.18276 0.131415,0.0812 0.966911,0.0304 1.8566577,-0.11286 0.9945488,-0.16016 2.1426668,-0.58353 2.9804494,-1.09902 0.7495002,-0.46117 1.8108978,-0.89861 2.3586615,-0.97208 0.5477636,-0.0735 1.3553684,0.0153 1.7946773,0.19727 0.4434217,0.18367 0.7987435,0.52995 0.7987435,0.77842 0,0.24616 -0.3274219,0.74449 -0.7276042,1.1074 -0.4001823,0.3629 -1.1686167,0.98238 -1.7076321,1.3766 -0.5390153,0.39423 -1.4941502,0.93716 -2.1225219,1.20651 -0.6650676,0.28508 -2.1904085,0.56741 -3.6501802,0.67561 -1.379228,0.10224 -2.924406,0.20244 -3.433729,0.22267 -0.509322,0.0202 -1.687687,-0.0374 -2.618587,-0.12802 -1.04814,-0.10206 -1.954758,-0.36035 -2.38125,-0.67841 -0.378787,-0.28248 -0.763914,-0.8582 -0.855838,-1.27938 -0.09192,-0.42119 -0.177433,-1.24204 -0.190023,-1.82412 -0.01259,-0.58209 0.151918,-1.28945 0.365571,-1.57193 0.213654,-0.28247 0.388461,-0.85794 0.388461,-1.27882 0,-0.45318 -0.122442,-0.72441 -0.300269,-0.66513 -0.165148,0.0551 -0.697362,0.80911 -1.182697,1.67569 -0.485335,0.86658 -0.885995,1.77747 -0.890356,2.02419 -0.0044,0.24672 -0.292529,0.60391 -0.640375,0.79375 -0.347846,0.18984 -1.552868,1.05954 -2.677827,1.93266 -1.12496,0.87313 -2.596531,1.9841 -3.270158,2.46883 -0.673627,0.48473 -1.462902,1.09589 -1.753944,1.35812 -0.291041,0.26223 -0.886354,0.65649 -1.322916,0.87612 l -0.79375,0.39935 -4.769259,0.003 -4.76926,0.003 z m 6.858624,-2.76824 c 1.237011,-0.16057 2.371343,-0.49682 3.083029,-0.91389 0.619277,-0.36292 1.908503,-1.32789 2.864948,-2.14437 0.956445,-0.81648 2.188457,-2.08078 2.737804,-2.80955 0.549347,-0.72877 1.35959,-1.9973 1.80054,-2.81895 0.440949,-0.82165 1.177232,-2.20828 1.636184,-3.08141 0.458951,-0.87312 1.372175,-2.71859 2.029387,-4.10104 l 1.194931,-2.51354 -0.02875,-1.25677 c -0.01581,-0.69123 -0.128954,-1.25677 -0.251427,-1.25677 -0.122472,0 -0.222677,-0.22985 -0.222677,-0.51077 0,-0.32824 -0.212736,-0.54098 -0.595313,-0.59531 l -0.595312,-0.0846 -0.0839,-0.87319 -0.0839,-0.8732 -0.709848,-0.27072 c -0.390417,-0.1489 -1.424224,-0.2747 -2.297349,-0.27955 -0.873125,-0.005 -2.571301,0.2031 -3.773724,0.46211 -1.307138,0.28157 -2.796593,0.82548 -3.704167,1.35267 -0.834868,0.48495 -2.708568,1.47401 -4.163776,2.1979 -1.455208,0.72389 -3.479271,1.96862 -4.497917,2.76605 -1.018646,0.79744 -2.246099,1.7702 -2.727675,2.1617 -0.481575,0.3915 -1.183419,1.31899 -1.559653,2.06111 -0.376234,0.74211 -1.038127,2.30179 -1.470873,3.46595 -0.432746,1.16417 -0.907097,2.76208 -1.054114,3.55091 l -0.267303,1.43423 0.435089,1.38026 c 0.308632,0.97909 0.60691,1.4352 1.026267,1.5693 0.325148,0.10398 0.824717,0.23954 1.110153,0.30124 0.285436,0.0617 0.91732,0.34723 1.404186,0.63449 0.486867,0.28725 1.26536,0.52458 1.729984,0.52739 0.464625,0.003 1.440085,0.17075 2.167689,0.37321 0.727604,0.20247 1.680104,0.37509 2.116667,0.38361 0.436562,0.009 1.674433,-0.0988 2.750823,-0.23855 z m 145.889975,2.35849 -0.84878,-0.24541 -0.20339,-0.9875 c -0.11186,-0.54312 -0.20615,-2.65437 -0.20954,-4.69167 -0.003,-2.03729 0.0944,-5.90682 0.21737,-8.59895 l 0.22353,-4.8948 -0.42197,-2.34976 c -0.23208,-1.29237 -0.42432,-3.61408 -0.42718,-5.15937 -0.003,-1.54529 -0.1653,-3.70258 -0.36098,-4.79399 -0.19568,-1.09141 -0.55667,-3.05594 -0.80222,-4.36562 -0.24554,-1.30969 -0.55425,-3.01199 -0.68602,-3.7829 -0.1485,-0.86877 -0.1433,-1.65487 0.0137,-2.06774 0.13929,-0.36636 0.25326,-1.36592 0.25326,-2.22126 0,-1.11225 0.16076,-1.82763 0.5645,-2.51191 0.31048,-0.52622 0.85443,-1.93201 1.20877,-3.12398 0.35435,-1.19197 0.81916,-2.76253 1.03292,-3.49013 0.25086,-0.85391 0.52178,-4.09005 0.76417,-9.12813 0.20653,-4.29286 0.3789,-10.42458 0.38303,-13.62604 0.004,-3.20146 -0.11171,-7.54724 -0.25742,-9.65729 -0.14571,-2.11005 -0.38631,-5.80099 -0.53468,-8.20208 -0.14837,-2.4011 -0.38672,-6.27063 -0.52968,-8.59896 -0.14296,-2.32833 -0.31509,-7.38849 -0.3825,-11.24479 -0.0674,-3.8563 -0.14319,-8.7189 -0.16838,-10.80576 l -0.0458,-3.7943 -0.40613,-0.15585 c -0.22338,-0.0857 -1.90163,-0.003 -3.72944,0.18488 -2.13851,0.21925 -8.747131,0.37626 -18.536854,0.4404 l -15.213542,0.0997 -3.836458,0.52976 c -2.110052,0.29137 -6.693959,0.65353 -10.186459,0.80481 -3.4925,0.15127 -7.183437,0.38239 -8.202083,0.5136 -1.018646,0.13121 -3.876146,0.47789 -6.35,0.77038 -2.473855,0.2925 -6.760105,0.60263 -9.525001,0.68917 -2.764895,0.0865 -6.634427,0.27546 -8.598958,0.4198 -1.964531,0.14435 -4.643438,0.37411 -5.953125,0.51058 -1.309688,0.13647 -3.214688,0.31302 -4.233334,0.39234 -1.018645,0.0793 -3.638021,0.26172 -5.8208331,0.40533 -2.1828125,0.14361 -5.1593751,0.32682 -6.6145835,0.40713 -1.4552083,0.0803 -3.53880211,0.25818 -4.6302084,0.39527 -1.0914063,0.13708 -2.6392188,0.31958 -3.4395834,0.40556 -0.8003646,0.086 -3.5375682,0.45169 -6.0826746,0.81268 -2.545107,0.361 -5.878857,0.76409 -7.408334,0.89577 -1.529477,0.13167 -5.043054,0.36542 -7.80795,0.51944 -2.764896,0.15402 -5.80099,0.40777 -6.746875,0.56389 -1.00185,0.16536 -5.530409,0.27868 -10.847917,0.27146 -5.862885,-0.008 -10.973696,0.13193 -14.2875,0.39106 -3.088662,0.24152 -8.183095,0.39566 -12.693253,0.38404 l -7.533877,-0.0194 -4.769248,0.55251 -4.769248,0.55251 -5.159375,-0.16051 c -2.837657,-0.0883 -6.945316,-0.0406 -9.128126,0.1059 -2.18281,0.14652 -5.30014,0.38656 -6.92739,0.53341 -1.62726,0.14685 -5.48604,0.32328 -8.57507,0.39206 -3.08903,0.0688 -7.35358,0.25769 -9.47677,0.41977 -2.78794,0.21284 -4.56971,0.21545 -6.41381,0.009 -1.4044,-0.15692 -2.74385,-0.35837 -2.97656,-0.44767 -0.23271,-0.0893 -0.42311,-0.26869 -0.42311,-0.39864 0,-0.12995 0.44649,-0.2502 0.99219,-0.26721 0.5457,-0.017 1.88516,-0.0719 2.97656,-0.12185 1.09141,-0.05 2.69875,-0.20976 3.57188,-0.35503 0.87312,-0.14526 2.26025,-0.33564 3.0825,-0.42306 0.82226,-0.0874 3.62023,-0.15899 6.21771,-0.15904 2.59749,-5e-5 5.6752,-0.10919 6.83937,-0.24254 1.16417,-0.13336 3.00959,-0.31616 4.10093,-0.40624 1.09135,-0.0901 2.09886,-0.23461 2.23893,-0.32117 0.14007,-0.0866 3.95012,-0.20116 8.466778,-0.25466 4.516662,-0.0535 8.866957,-0.12998 9.667321,-0.16998 0.800365,-0.04 3.300677,-0.27952 5.55625,-0.53227 l 4.101042,-0.45954 5.68683,0.11142 c 3.851299,0.0755 7.05377,-0.0176 9.921875,-0.28828 2.403528,-0.22685 7.724964,-0.42869 12.304837,-0.46673 4.438386,-0.0369 9.85573,-0.1347 12.038542,-0.21743 2.182813,-0.0827 4.683125,-0.26498 5.55625,-0.405 0.873125,-0.14001 3.313907,-0.32519 5.423959,-0.4115 2.110052,-0.0863 4.372239,-0.20672 5.027083,-0.26757 0.654844,-0.0609 2.083594,-0.18152 3.175,-0.26813 1.091407,-0.0866 3.175,-0.27806 4.630209,-0.42545 1.455208,-0.14739 3.479271,-0.44232 4.497916,-0.65539 1.018646,-0.21308 2.4473964,-0.43407 3.1750006,-0.49109 0.7276041,-0.057 3.2279167,-0.28997 5.5562501,-0.51767 2.32833335,-0.2277 5.5430209,-0.47811 7.1437501,-0.55647 1.6007292,-0.0784 4.4582293,-0.25014 6.3500002,-0.38174 1.891771,-0.1316 5.794734,-0.48249 8.673252,-0.77976 2.878518,-0.29726 7.76008,-0.61026 10.847917,-0.69555 3.087836,-0.0853 6.923936,-0.27205 8.524665,-0.41502 1.600729,-0.14297 3.624792,-0.37587 4.497917,-0.51755 0.873125,-0.14169 3.254375,-0.44117 5.291666,-0.6655 2.037292,-0.22434 5.966355,-0.46554 8.731251,-0.53602 2.764895,-0.0705 5.681927,-0.24303 6.482291,-0.38347 0.800365,-0.14043 2.726681,-0.4346 4.280702,-0.65372 2.041903,-0.2879 5.417221,-0.40661 12.170833,-0.42807 5.139938,-0.0163 11.644337,-0.0127 14.454221,0.008 3.200515,0.0236 6.329852,-0.11279 8.377542,-0.3652 1.79777,-0.22159 3.92793,-0.4029 4.7337,-0.4029 1.048,0 1.53036,-0.11671 1.69449,-0.41 0.1262,-0.2255 0.19191,-5.31542 0.14603,-11.31094 -0.0459,-5.99551 -0.15796,-12.50828 -0.24905,-14.47281 -0.0911,-1.96453 -0.19469,-12.62062 -0.23021,-23.68021 -0.0355,-11.05958 -0.18639,-23.08489 -0.33528,-26.72291 -0.14889,-3.63802 -0.26371,-7.62662 -0.25517,-8.86355 0.009,-1.23692 -0.0682,-5.22552 -0.1706,-8.86354 -0.10237,-3.63802 -0.17874,-11.7938 -0.16969,-18.12396 0.009,-6.33015 0.19501,-15.3789 0.41328,-20.10833 0.23698,-5.13511 0.33083,-10.41081 0.23298,-13.09687 -0.0901,-2.47386 -0.17693,-5.56948 -0.19292,-6.87917 -0.016,-1.30969 0.0613,-3.05024 0.17162,-3.8679 l 0.20068,-1.48666 1.45123,-0.17056 c 0.80809,-0.095 1.66663,-0.0553 1.93729,0.0896 0.26734,0.14308 0.5482,0.58514 0.62413,0.98237 0.0759,0.39723 0.0181,1.02591 -0.12854,1.39708 -0.16286,0.41227 -0.29246,5.71937 -0.33306,13.63943 -0.0366,7.13052 -0.19564,14.22169 -0.35354,15.75816 -0.16678,1.62288 -0.2815,8.22012 -0.27374,15.74271 0.007,7.12202 0.10934,15.86616 0.22667,19.43142 0.11733,3.56526 0.29017,11.0662 0.38408,16.66875 0.0939,5.60256 0.22006,17.92553 0.28033,27.38438 0.0603,9.45885 0.22753,21.18651 0.37169,26.06146 0.14416,4.87495 0.26657,11.45315 0.27204,14.61823 l 0.01,5.75468 0.7276,-0.0154 c 0.40019,-0.008 2.09683,-0.15986 3.77032,-0.33644 2.06315,-0.2177 4.61851,-0.25772 7.9375,-0.12431 2.69213,0.10821 5.4901,0.13798 6.21771,0.0662 0.7276,-0.0718 5.07125,-0.31129 9.65256,-0.53214 4.58131,-0.22085 8.5699,-0.46147 8.86354,-0.53469 0.29364,-0.0732 1.12921,-0.18225 1.85681,-0.24226 0.72761,-0.06 4.95433,-0.22781 9.39271,-0.37288 4.43839,-0.14507 9.43901,-0.4419 11.1125,-0.65962 1.67349,-0.21772 4.41193,-0.57685 6.08542,-0.79807 1.67349,-0.22122 4.59052,-0.52087 6.48229,-0.6659 1.89177,-0.14503 6.65427,-0.33059 10.58333,-0.41236 3.92907,-0.0818 9.04875,-0.26811 11.37709,-0.41409 2.32833,-0.14597 5.78114,-0.38252 7.67291,-0.52566 1.89177,-0.14314 4.86834,-0.38454 6.61459,-0.53644 1.74625,-0.1519 7.40172,-0.3447 12.56771,-0.42844 5.95648,-0.0966 10.84463,-0.0431 13.36145,0.14621 2.18282,0.16416 6.40954,0.35804 9.39271,0.43084 2.98318,0.0728 11.13714,0.26691 18.11992,0.43136 6.98278,0.16445 13.76934,0.22016 15.08125,0.12381 1.31191,-0.0963 3.69498,-0.40077 5.29571,-0.6765 1.60073,-0.27572 3.74385,-0.62475 4.7625,-0.77561 1.01864,-0.15087 2.75734,-0.35002 3.86376,-0.44256 l 2.01169,-0.16825 0.15618,0.40701 c 0.10419,0.27151 -0.12511,0.57193 -0.68877,0.90243 -0.46472,0.27249 -1.07901,0.58406 -1.36508,0.69239 -0.28608,0.10833 -1.71483,0.42397 -3.175,0.70142 -1.46018,0.27746 -4.02408,0.7104 -5.69757,0.96208 -2.13942,0.32177 -4.77075,0.46252 -8.86354,0.47411 -3.20146,0.009 -10.58334,-0.0673 -16.40417,-0.16966 -5.82084,-0.10239 -13.02412,-0.34052 -16.00729,-0.52917 -3.1269,-0.19775 -10.41026,-0.3393 -17.19792,-0.33426 -7.33112,0.005 -12.77235,0.12676 -14.41979,0.32148 -1.45521,0.17199 -5.32474,0.49632 -8.59896,0.72073 -3.27422,0.22441 -9.34641,0.52507 -13.49375,0.66814 -4.14735,0.14306 -9.80281,0.38758 -12.56771,0.54337 -2.7649,0.15579 -5.20568,0.34372 -5.42396,0.41762 -0.21828,0.0739 -1.28984,0.24149 -2.38125,0.37241 -1.0914,0.13092 -3.59172,0.47938 -5.55625,0.77436 -2.26838,0.3406 -4.92365,0.53758 -7.27604,0.53977 -2.03729,0.002 -6.20448,0.17994 -9.26042,0.39567 -3.05593,0.21572 -6.44922,0.51142 -7.54062,0.65711 -1.09141,0.14569 -4.96094,0.41467 -8.59896,0.59774 -3.63802,0.18307 -9.61803,0.2949 -13.28891,0.24852 -3.67088,-0.0464 -8.07619,0.047 -9.78958,0.20742 -1.7134,0.16046 -3.62128,0.36076 -4.23974,0.4451 l -1.12448,0.15335 0.001,7.57673 c 7.9e-4,4.94811 0.22836,11.34023 0.65593,18.42465 0.3601,5.96635 0.78118,12.45526 0.93572,14.41979 0.15455,1.96453 0.38688,5.89359 0.5163,8.73125 0.12941,2.83765 0.18122,7.89781 0.11512,11.24479 -0.0661,3.34698 -0.2471,7.78422 -0.40222,9.86054 -0.15513,2.07632 -0.50363,4.63616 -0.77445,5.68854 -0.27083,1.05238 -0.73639,2.79834 -1.0346,3.8799 -0.2982,1.08156 -0.54219,2.36931 -0.54219,2.86166 0,0.49236 -0.13112,1.1402 -0.29139,1.43966 -0.16027,0.29946 -0.33006,1.45249 -0.37732,2.56229 -0.0473,1.10981 0.0866,3.38704 0.29759,5.06053 0.21093,1.67349 0.49619,3.75709 0.63392,4.63021 0.13772,0.87313 0.31839,3.19485 0.40149,5.15938 0.0831,1.96453 0.34005,4.5839 0.571,5.82083 l 0.41991,2.24896 -0.33863,5.30817 c -0.18624,2.9195 -0.27521,7.09711 -0.19771,9.28359 0.0799,2.25416 0.0343,4.16586 -0.10525,4.41527 -0.16496,0.29476 -0.5691,0.43197 -1.22519,0.41598 -0.53847,-0.0131 -1.361,-0.13429 -1.82783,-0.26927 z m -188.328299,-2.43484 c -0.582083,-0.15391 -1.09143,-0.30095 -1.131882,-0.32674 -0.04045,-0.0258 0.05636,-0.38859 0.215142,-0.80621 0.209692,-0.55153 0.206331,-1.3761 -0.01228,-3.01326 -0.168044,-1.25846 -0.301118,-5.75916 -0.301302,-10.19038 -1.97e-4,-4.76008 -0.141769,-9.28498 -0.353731,-11.30592 -0.194372,-1.85322 -0.293543,-3.59839 -0.220381,-3.87816 0.08852,-0.33851 -0.02997,-0.55957 -0.354188,-0.66081 -0.267965,-0.0837 -2.392209,0.0238 -4.720543,0.23874 -2.328333,0.21499 -5.487412,0.51152 -7.020175,0.65896 -1.532764,0.14744 -3.973545,0.56931 -5.423959,0.93749 -1.450414,0.36819 -3.053835,0.77797 -3.563162,0.91063 -0.50932,0.13266 -1.16416,0.18994 -1.45521,0.12728 l -0.52916,-0.11393 -1.18266,1.64754 c -0.65046,0.90614 -2.11335,3.01675 -3.25086,4.69024 -1.13751,1.67349 -2.66355,3.87615 -3.39119,4.89479 -0.72763,1.01865 -1.90604,2.69829 -2.61867,3.73253 -0.71264,1.03424 -1.66074,2.24547 -2.10689,2.69162 -0.44616,0.44616 -0.81119,0.89416 -0.81119,0.99556 0,0.1014 -0.64511,1.27142 -1.43357,2.60004 -0.78846,1.32862 -1.78955,3.06623 -2.22463,3.86135 l -0.79105,1.44568 -0.88423,0.32013 c -0.48633,0.17607 -1.12235,0.32852 -1.4134,0.33878 -0.29104,0.0103 -0.98148,-0.10695 -1.53432,-0.26047 -0.64984,-0.18046 -1.11053,-0.51039 -1.30324,-0.93335 l -0.29809,-0.65422 1.05393,-1.1157 c 0.57966,-0.61363 1.36049,-1.59195 1.73517,-2.17403 0.37467,-0.58208 1.1241,-1.86542 1.66539,-2.85187 0.54129,-0.98644 1.50287,-2.47473 2.13685,-3.30729 0.63397,-0.83257 1.86542,-2.40672 2.73655,-3.49813 0.87113,-1.09141 2.91776,-3.94891 4.54806,-6.35 1.6303,-2.40109 3.1902,-4.66328 3.46645,-5.02708 0.27624,-0.36381 1.03173,-1.36589 1.67886,-2.22686 0.64712,-0.86096 2.0274,-2.94456 3.06727,-4.6302 1.03988,-1.68565 2.09358,-3.36247 2.34155,-3.72628 0.24798,-0.3638 0.95713,-1.61395 1.575896,-2.77812 0.618767,-1.16417 1.523095,-2.77151 2.009618,-3.57188 0.486524,-0.80036 1.570277,-2.52677 2.408341,-3.83645 0.838064,-1.30969 2.869405,-4.33225 4.514091,-6.71681 1.644686,-2.38455 2.990339,-4.4558 2.990339,-4.60277 0,-0.14697 0.544202,-0.84901 1.209338,-1.56009 0.665136,-0.71109 1.44194,-1.81872 1.726231,-2.46141 0.284292,-0.64269 0.841418,-1.40097 1.238058,-1.68508 0.39664,-0.2841 1.078352,-0.99436 1.514914,-1.57834 l 0.79375,-1.0618 1.403053,-0.17566 c 0.846966,-0.10604 1.534045,-0.0669 1.733559,0.0986 0.181779,0.15086 0.570754,0.21147 0.864389,0.13468 0.309293,-0.0809 0.679152,0.0354 0.879211,0.27648 l 0.345329,0.4161 -0.04779,8.56164 c -0.02629,4.7089 0.07453,9.56032 0.224039,10.78094 0.149507,1.22062 0.396171,4.89821 0.548142,8.17243 l 0.276311,5.95313 0.64111,0.52917 c 0.35261,0.29104 0.887077,0.70776 1.187705,0.92604 l 0.546596,0.39687 -0.168256,0.99219 -0.168257,0.99219 h -0.611225 c -0.336173,0 -0.669671,0.0946 -0.741105,0.21015 -0.07143,0.11558 -0.01115,2.05035 0.133958,4.29948 0.145111,2.24913 0.234952,5.04182 0.199647,6.20599 -0.0353,1.16417 -0.04494,2.83104 -0.02141,3.70417 0.02353,0.87312 0.107643,3.07578 0.186922,4.89479 0.07928,1.81901 0.323806,4.23456 0.543394,5.3679 0.220726,1.1392 0.321814,2.47338 0.226072,2.98373 -0.09525,0.50772 -0.389621,1.03896 -0.654161,1.18054 -0.26454,0.14158 -0.994825,0.24237 -1.622855,0.22398 -0.628031,-0.0184 -1.618124,-0.15937 -2.200207,-0.31329 z m -18.388542,-31.50478 c 0.363802,-0.0426 0.959115,-0.17415 1.322917,-0.29236 0.363802,-0.11821 1.137708,-0.21228 1.719791,-0.20905 0.582084,0.003 1.181328,-0.091 1.331653,-0.20952 0.150326,-0.11847 1.579076,-0.28845 3.175,-0.37773 1.595925,-0.0893 3.522471,-0.16011 4.281215,-0.15739 0.758743,0.003 1.45038,-0.10969 1.536969,-0.24979 0.08659,-0.14011 0.39556,-0.25474 0.686602,-0.25474 0.291042,0 0.455582,0.11906 0.365645,0.26458 -0.09193,0.14874 0.118745,0.26459 0.481155,0.26459 0.354572,0 0.764097,-0.14883 0.910056,-0.33073 0.178073,-0.22193 0.147924,-2.28924 -0.09164,-6.28386 -0.196363,-3.27422 -0.482495,-7.14375 -0.635849,-8.59895 -0.153354,-1.45521 -0.210841,-4.46154 -0.127748,-6.68073 l 0.151078,-4.0349 h -0.404629 c -0.222546,0 -0.479596,0.29869 -0.571222,0.66376 -0.09709,0.38685 -0.414855,0.72607 -0.761684,0.81312 -0.327299,0.0822 -0.859611,0.46806 -1.182916,0.85759 -0.323305,0.38953 -1.798519,2.57271 -3.278254,4.85152 -1.479734,2.2788 -3.639563,5.55302 -4.799619,7.27604 -1.160055,1.72302 -2.244282,3.37089 -2.409392,3.66193 -0.16511,0.29104 -1.164237,2.13651 -2.220283,4.10104 -1.056046,1.96453 -2.085179,3.70406 -2.286962,3.86563 -0.201784,0.16156 -0.366879,0.52867 -0.366879,0.8158 0,0.28712 0.06279,0.58483 0.139537,0.66158 0.07675,0.0767 0.642293,0.0316 1.256771,-0.10023 0.614479,-0.13187 1.41489,-0.27461 1.778692,-0.3172 z m 225.432951,7.18209 c -0.35944,-0.18778 -0.93763,-0.75641 -1.28487,-1.26361 l -0.63134,-0.92219 0.15517,-2.2823 c 0.0853,-1.25527 0.23587,-4.97462 0.3345,-8.26521 l 0.17933,-5.9829 0.65576,-0.42966 c 0.47738,-0.3128 1.05252,-0.39677 2.11448,-0.3087 1.02932,0.0854 1.56845,0.26937 1.83142,0.62508 0.21203,0.28681 0.30907,0.78925 0.22511,1.16557 -0.0812,0.3638 -0.2623,1.67195 -0.40253,2.90699 -0.15472,1.36271 -0.15949,2.34099 -0.0121,2.48834 0.14734,0.14734 1.48735,0.10801 3.40841,-0.10005 1.74109,-0.18857 3.30651,-0.42993 3.47872,-0.53636 0.1722,-0.10642 0.53704,-1.42908 0.81076,-2.93923 0.27371,-1.51015 0.49962,-3.249 0.50201,-3.86411 l 0.004,-1.11838 0.59531,-0.37543 c 0.32742,-0.20648 0.87355,-0.45866 1.21363,-0.56039 0.34007,-0.10174 1.02558,-0.10857 1.52335,-0.0152 0.55293,0.10373 1.07675,0.43185 1.34639,0.84336 l 0.44134,0.67358 -0.42652,1.36458 c -0.23458,0.75052 -0.54854,1.90036 -0.69769,2.55521 -0.14915,0.65484 -0.37911,1.75005 -0.51102,2.4338 -0.1773,0.91901 -0.14818,1.40196 0.11168,1.85209 0.19334,0.33489 0.4356,0.77633 0.53836,0.98097 0.1206,0.24015 -0.12807,0.65344 -0.70135,1.16566 l -0.88819,0.7936 -0.29851,3.3041 -0.29852,3.3041 -0.60657,0.49117 c -0.3489,0.28253 -1.02626,0.49117 -1.59458,0.49117 -0.62115,0 -1.15061,-0.17966 -1.4259,-0.48385 l -0.43788,-0.48386 0.0223,-1.83125 c 0.0123,-1.00718 0.10629,-2.5017 0.20892,-3.32116 0.10262,-0.81945 0.14218,-1.62312 0.0879,-1.78593 -0.0543,-0.16282 -0.59477,-0.29032 -1.2011,-0.28335 -0.60634,0.007 -2.09198,0.21533 -3.30142,0.46302 l -2.19899,0.45034 -0.11629,3.22348 c -0.0639,1.77291 -0.003,3.52259 0.13643,3.88816 l 0.25271,0.66468 -0.45098,0.54282 c -0.24804,0.29854 -0.80817,0.60578 -1.24473,0.68274 -0.43656,0.077 -1.08783,-0.0137 -1.44726,-0.2015 z m 33.32955,-4.73781 c -1.67349,-0.13333 -3.69755,-0.42945 -4.49791,-0.65804 -0.80037,-0.22859 -1.78263,-0.72345 -2.18281,-1.09968 -0.40019,-0.37623 -0.72761,-0.94768 -0.72761,-1.26988 0,-0.388 0.30979,-0.76861 0.91739,-1.1271 0.50457,-0.2977 1.48684,-1.32671 2.18282,-2.28669 0.69598,-0.95997 1.82754,-2.72246 2.51457,-3.91663 0.68704,-1.19417 1.25259,-2.39231 1.25677,-2.66254 l 0.008,-0.49133 -0.46302,0.21826 c -0.25466,0.12005 -0.99314,0.20601 -1.64106,0.19103 l -1.17804,-0.0272 -0.60658,-0.75803 c -0.33363,-0.41692 -0.60037,-0.93664 -0.59277,-1.15492 0.008,-0.21828 0.60248,-0.88286 1.32197,-1.47684 0.78516,-0.64821 2.32284,-1.48157 3.84624,-2.08452 1.8507,-0.73249 2.89892,-0.99644 3.87032,-0.97455 0.73273,0.0165 1.48107,0.15354 1.66299,0.30452 0.18192,0.15098 0.39834,0.61244 0.48095,1.02546 0.10657,0.53287 -0.15709,1.46367 -0.90793,3.20527 -0.58197,1.34988 -1.60457,3.4203 -2.27246,4.60093 -0.66788,1.18064 -1.70077,2.92051 -2.29531,3.8664 -0.59454,0.94589 -1.23251,1.815 -1.41772,1.93138 -0.18521,0.11637 -0.33675,0.37886 -0.33675,0.58332 0,0.21648 0.35913,0.42574 0.8599,0.50104 0.47294,0.0711 2.11005,0.26439 3.63802,0.42948 1.52797,0.1651 3.42292,0.44647 4.211,0.62526 0.90224,0.2047 1.56834,0.5291 1.79866,0.87599 l 0.36578,0.5509 -1.00491,0.62475 -1.00491,0.62475 -2.38125,0.0358 c -1.30968,0.0197 -3.75047,-0.0733 -5.42396,-0.20659 z m 55.29792,-10.70978 -1.19062,-0.43247 -3.96875,-0.032 -3.96875,-0.032 -1.80372,-0.87651 -1.80372,-0.87651 -1.67333,0.78304 c -0.92034,0.43068 -2.05456,0.86678 -2.52051,0.96912 -0.46595,0.10234 -1.25698,0.18607 -1.75786,0.18607 -0.50087,0 -1.54773,-0.31168 -2.32635,-0.69263 -0.98362,-0.48124 -1.51542,-0.93343 -1.74251,-1.48166 -0.17975,-0.43398 -0.44665,-0.78904 -0.59309,-0.78904 -0.14645,0 -1.05474,0.58273 -2.01843,1.29496 -0.96368,0.71223 -2.2114,1.42054 -2.77271,1.57401 l -1.02056,0.27904 -1.03237,-0.41308 c -0.71003,-0.28409 -1.08511,-0.62318 -1.20127,-1.086 -0.12168,-0.48481 -0.0329,-0.77238 0.31756,-1.02864 0.26756,-0.19564 0.69114,-0.35571 0.9413,-0.35571 0.25016,0 1.03407,-0.45785 1.74201,-1.01745 0.70795,-0.5596 1.79576,-1.33851 2.41735,-1.7309 0.78642,-0.49644 1.6294,-0.75814 2.77148,-0.8604 0.93601,-0.0838 1.96017,-0.0226 2.38332,0.14233 0.49188,0.19176 0.91449,0.6792 1.25369,1.44602 0.28142,0.63621 0.67505,1.29233 0.87473,1.45804 l 0.36304,0.3013 1.55827,-0.70594 1.55826,-0.70595 2.47064,-0.12214 2.47063,-0.12214 0.70437,0.52075 c 0.3874,0.28641 1.10412,0.72747 1.59272,0.98013 l 0.88836,0.45938 3.08314,-0.18402 3.08314,-0.18402 1.81106,0.55938 c 0.99608,0.30766 2.24578,0.55938 2.77712,0.55938 0.53134,0 1.35413,-0.11129 1.82843,-0.24732 0.47429,-0.13603 1.97249,-0.37987 3.32932,-0.54187 l 2.46696,-0.29456 2.35747,0.34094 c 1.29661,0.18752 3.752,0.30294 5.45643,0.25648 1.70443,-0.0464 3.76487,0.0538 4.57876,0.22274 l 1.4798,0.30721 2.50463,-0.45097 c 1.51723,-0.27318 3.04995,-0.38953 3.88791,-0.29513 0.7608,0.0857 1.97859,0.23146 2.70619,0.32389 l 1.32292,0.16806 1.34935,-0.90845 c 0.74214,-0.49964 1.87323,-1.11933 2.51354,-1.37707 0.64031,-0.25774 2.05716,-0.52259 3.14857,-0.58856 l 1.98437,-0.11994 1.32292,0.63191 1.32292,0.63191 2.11666,-0.77736 2.11667,-0.77737 4.23334,-0.24573 c 2.32833,-0.13515 4.59052,-0.19855 5.02708,-0.14089 0.43656,0.0577 1.577,0.41894 2.5343,0.80284 1.04591,0.41943 2.26023,0.69961 3.04271,0.70204 0.71618,0.002 1.4627,0.10579 1.65892,0.23014 0.19622,0.12435 0.31383,0.44995 0.26136,0.72356 -0.0553,0.28862 -0.48281,0.63003 -1.01822,0.81325 -0.50755,0.17369 -1.51813,0.32098 -2.24574,0.32732 -0.7276,0.006 -2.07946,-0.22563 -3.00413,-0.51548 l -1.68122,-0.52699 -1.75836,0.14506 c -0.96711,0.0798 -1.93697,0.19485 -2.15525,0.25568 -0.21828,0.0608 -1.32407,0.17556 -2.45732,0.25495 -1.29713,0.0909 -2.66178,0.38868 -3.68364,0.8039 -0.92835,0.37722 -2.15223,0.65956 -2.85907,0.65956 -0.67973,0 -1.928,-0.23812 -2.77393,-0.52917 -0.84592,-0.29104 -1.76609,-0.52916 -2.04482,-0.52916 -0.27873,0 -1.06376,0.31484 -1.74452,0.69964 -0.68076,0.38481 -1.67135,0.9874 -2.20133,1.33909 -0.59886,0.3974 -1.52751,0.69763 -2.45342,0.7932 -1.01768,0.10503 -2.03072,0.007 -3.19656,-0.30823 l -1.70673,-0.46199 -2.80893,0.46073 c -2.06623,0.33891 -3.30985,0.40528 -4.7034,0.25099 -1.04195,-0.11535 -3.5018,-0.225 -5.46633,-0.24365 -1.96453,-0.0187 -4.82203,-0.13432 -6.35,-0.25702 -1.92564,-0.15465 -3.10288,-0.12999 -3.83646,0.0804 -0.58208,0.16691 -2.36802,0.36125 -3.96875,0.43187 l -2.91041,0.12839 z m -62.07766,-34.24312 c -0.45464,-0.13764 -0.96892,-0.42172 -1.14284,-0.63128 -0.23345,-0.2813 -0.2405,-0.5225 -0.0269,-0.92155 0.17481,-0.32663 0.83648,-0.69855 1.67201,-0.93982 0.7605,-0.21961 2.02405,-0.51976 2.8079,-0.66701 0.78384,-0.14724 1.45555,-0.26772 1.49267,-0.26772 0.0371,0 0.1475,-0.31876 0.24528,-0.70836 0.0978,-0.38959 0.40362,-2.56248 0.67963,-4.82864 0.27602,-2.26616 0.6252,-5.07279 0.77596,-6.23695 0.15076,-1.16417 0.45039,-3.00964 0.66585,-4.10105 0.21545,-1.0914 0.5829,-3.21479 0.81655,-4.71863 0.23364,-1.50384 0.35188,-2.80719 0.26275,-2.89631 -0.0891,-0.0891 -1.08121,0.73668 -2.20462,1.83513 -1.12342,1.09845 -2.46583,2.24831 -2.98314,2.55525 l -0.94056,0.55807 -1.42188,-0.37508 c -0.78203,-0.2063 -1.64523,-0.59844 -1.91822,-0.87143 l -0.49634,-0.49633 0.31068,-0.68187 c 0.1954,-0.42885 0.73535,-0.84405 1.45513,-1.11893 0.63123,-0.24107 1.99565,-1.22516 3.04262,-2.19449 1.04399,-0.96658 2.37362,-2.40101 2.95472,-3.18762 l 1.05655,-1.4302 1.66208,0.10583 1.66207,0.10583 1.10215,0.7638 c 0.60618,0.42008 1.22162,0.98702 1.36764,1.25986 0.17953,0.33546 0.16671,1.3268 -0.0396,3.06191 -0.1678,1.41121 -0.6989,4.76849 -1.1802,7.46063 -0.48131,2.69214 -1.06447,6.6212 -1.2959,8.73125 -0.23144,2.11005 -0.45201,4.30991 -0.49016,4.88857 l -0.0694,1.05212 1.22458,0.17812 c 0.67352,0.098 1.48642,0.31825 1.80646,0.48953 0.3574,0.19127 0.52293,0.46504 0.42907,0.70963 -0.084,0.21903 -0.15282,0.4887 -0.15282,0.59929 0,0.11058 -0.50601,0.34914 -1.12447,0.53012 -0.61847,0.18098 -1.5,0.54626 -1.95897,0.81172 -0.45897,0.26546 -2.12584,0.75066 -3.70417,1.07821 -1.57832,0.32756 -3.46499,0.63002 -4.19259,0.67212 -0.72761,0.0421 -1.6949,-0.0361 -2.14954,-0.17372 z m -27.91738,-1.612 -0.56588,-0.56588 0.17792,-2.27839 c 0.0978,-1.25312 0.21784,-3.34996 0.26664,-4.65965 0.0488,-1.30969 0.23561,-3.57187 0.41514,-5.02708 0.21802,-1.76726 0.2651,-4.00193 0.14178,-6.7297 -0.10155,-2.24612 -0.28394,-4.34503 -0.40531,-4.66425 -0.14659,-0.38557 -0.096,-0.75839 0.15074,-1.11064 0.20427,-0.29164 0.74985,-0.5858 1.21239,-0.65368 0.46254,-0.0679 1.2911,0.009 1.84124,0.17191 0.55014,0.16243 1.08325,0.37832 1.18468,0.47975 0.10142,0.10143 0.36092,1.2305 0.57665,2.50905 0.21573,1.27856 0.36957,3.2978 0.34187,4.4872 l -0.0504,2.16257 0.48346,0.25473 c 0.26591,0.1401 1.81747,0.34046 3.44793,0.44525 l 2.96446,0.19052 0.12766,-0.62344 c 0.0702,-0.34289 0.1896,-1.63547 0.2653,-2.8724 0.0817,-1.33517 0.44371,-3.27024 0.89095,-4.7625 l 0.75331,-2.51354 0.90471,-0.0873 c 0.49759,-0.048 1.39693,-0.0135 1.99854,0.0767 l 1.09384,0.16403 0.30136,0.66142 0.30136,0.66142 -0.62822,1.24625 c -0.34552,0.68543 -0.75519,2.07968 -0.91037,3.09833 -0.15518,1.01864 -0.35612,2.92364 -0.44653,4.23333 -0.0904,1.30969 -0.38667,3.57187 -0.65836,5.02708 -0.2717,1.45521 -0.62381,3.7174 -0.78248,5.02709 -0.15866,1.30968 -0.31554,3.03607 -0.34861,3.83642 l -0.0601,1.45518 -1.07034,0.22464 c -0.78626,0.16502 -1.3305,0.11594 -2.05053,-0.18491 l -0.98018,-0.40954 0.004,-1.79944 c 0.002,-0.98969 0.2404,-3.46288 0.52917,-5.49598 0.28876,-2.0331 0.52503,-3.85226 0.52503,-4.04258 v -0.34603 l -3.50573,0.0738 -3.50573,0.0738 -0.18238,1.32292 c -0.10031,0.7276 -0.30074,3.40651 -0.44539,5.95312 -0.14466,2.54662 -0.34322,4.83857 -0.44124,5.09323 l -0.17823,0.46302 h -1.55919 -1.5592 z m -239.14663,-9.707 c -0.94589,-0.26747 -2.25283,-0.7606 -2.90431,-1.09585 -0.65148,-0.33525 -1.78258,-1.05578 -2.51354,-1.60119 -0.73097,-0.54541 -1.67012,-1.35366 -2.08701,-1.79612 -0.48977,-0.51981 -0.91107,-0.74725 -1.19062,-0.64277 -0.23796,0.0889 -1.0861,0.79639 -1.88477,1.57213 -0.92717,0.90055 -1.95898,1.60007 -2.8542,1.93501 -0.8941,0.33452 -2.04552,0.523 -3.17808,0.52023 l -1.77601,-0.004 -1.05834,-0.59812 c -0.62076,-0.35082 -1.09163,-0.82866 -1.13888,-1.15574 -0.0517,-0.3581 0.18346,-0.76529 0.65729,-1.138 0.51873,-0.40804 0.95515,-0.53691 1.46972,-0.434 0.40254,0.0805 1.05679,0.0228 1.45388,-0.12812 0.5047,-0.19189 0.75019,-0.1899 0.81569,0.007 0.0515,0.1546 0.29711,0.28109 0.54572,0.28109 0.24862,0 0.98284,-0.54301 1.6316,-1.20668 0.64876,-0.66367 1.5617,-1.44431 2.02874,-1.73474 0.56487,-0.35127 1.66674,-0.61265 3.29106,-0.7807 1.62833,-0.16847 2.53103,-0.16349 2.70947,0.0149 0.14717,0.14717 0.48893,0.26759 0.75945,0.26759 0.27053,0 0.41828,0.11906 0.32835,0.26458 -0.0899,0.14552 0.013,0.26458 0.22867,0.26458 0.2157,0 0.75883,0.30851 1.20694,0.68558 0.44812,0.37707 0.73652,0.81218 0.64088,0.96692 -0.0956,0.15474 -0.052,0.20601 0.097,0.11394 0.14898,-0.0921 0.93394,0.41281 1.74434,1.12197 0.8104,0.70917 1.40144,1.36142 1.3134,1.44945 -0.088,0.088 0.0909,0.16006 0.3976,0.16006 0.3067,0 0.62173,0.10368 0.70005,0.23041 0.0783,0.12672 0.50936,0.3038 0.95786,0.3935 0.52562,0.10513 1.35044,-0.032 2.32061,-0.38583 0.82783,-0.30191 1.74327,-0.61143 2.03431,-0.68781 0.29105,-0.0764 1.00542,-0.35852 1.5875,-0.62698 0.58209,-0.26846 1.77271,-0.68611 2.645837,-0.9281 0.873125,-0.24199 2.288453,-0.41751 3.145173,-0.39004 0.85672,0.0275 2.162753,0.28845 2.902296,0.57995 l 1.344623,0.53 1.727913,-0.30308 c 0.950352,-0.16669 2.56135,-0.64508 3.579996,-1.06308 1.018645,-0.418 2.625989,-1.05343 3.571875,-1.41207 0.945885,-0.35863 2.374635,-0.83562 3.175,-1.05997 0.800364,-0.22435 2.779975,-0.55488 4.399134,-0.73452 l 2.943926,-0.32662 1.487096,0.54781 c 1.088227,0.40087 2.037288,0.53659 3.538366,0.50598 l 2.05127,-0.0418 3.704166,-1.8016 c 2.037292,-0.99088 4.478073,-2.08031 5.423959,-2.42095 0.945885,-0.34065 2.255573,-0.76394 2.910417,-0.94066 0.684809,-0.1848 3.382493,-0.35283 6.35,-0.39551 3.481551,-0.0501 5.718649,-0.20651 6.879167,-0.48105 0.945885,-0.22377 3.148541,-0.83112 4.894791,-1.34967 1.74625,-0.51855 4.008438,-1.07484 5.027084,-1.23619 1.174721,-0.18607 3.303573,-0.22759 5.820833,-0.11352 2.182813,0.0989 4.147344,0.18255 4.365625,0.18586 0.218282,0.003 0.731148,0.0678 1.139703,0.14328 l 0.742827,0.13726 -0.08137,0.68576 c -0.05946,0.50113 -0.295071,0.74866 -0.875119,0.9194 -0.436563,0.1285 -1.74625,0.27929 -2.910417,0.33508 -1.164166,0.0558 -3.405402,0.17383 -4.980523,0.26231 l -2.863857,0.16088 -3.353852,1.01289 c -1.844618,0.55709 -4.544476,1.26519 -5.999685,1.57355 l -2.645833,0.56065 -4.630209,0.002 c -3.072668,10e-4 -5.075219,0.12262 -5.953125,0.36129 -0.727604,0.1978 -1.97776,0.65734 -2.778125,1.02119 -0.800364,0.36385 -2.705364,1.25866 -4.233333,1.98848 -1.527969,0.72981 -3.373438,1.53525 -4.101042,1.78986 -0.851338,0.29791 -2.077443,0.45886 -3.439583,0.45151 -1.164167,-0.006 -2.950105,-0.21128 -3.96875,-0.45554 -1.018646,-0.24425 -2.566459,-0.44294 -3.439584,-0.44152 -0.873125,10e-4 -2.5093,0.24459 -3.635945,0.54039 -1.126645,0.2958 -2.79352,0.85303 -3.704167,1.23829 -0.910647,0.38526 -2.804691,1.10755 -4.208988,1.6051 -1.662507,0.58903 -3.277849,0.96019 -4.630208,1.06389 -1.498793,0.11492 -2.543209,0.0395 -3.751958,-0.27083 -0.921258,-0.23655 -2.008411,-0.43008 -2.415894,-0.43008 -0.407484,0 -1.499196,0.28523 -2.426027,0.63384 -0.926833,0.34862 -2.452203,0.88546 -3.389713,1.193 -0.93751,0.30753 -2.66391,0.61829 -3.83645,0.69058 l -2.1319,0.13144 z m 329.14167,-4.30848 c -1.0914,-0.43564 -2.51675,-0.97813 -3.16744,-1.20553 -0.65068,-0.22741 -1.63956,-0.40716 -2.19751,-0.39946 -0.55795,0.008 -1.60493,0.21013 -2.32664,0.44984 -0.90315,0.29998 -1.66148,0.37764 -2.4327,0.24914 -0.61627,-0.10268 -1.87989,-0.41999 -2.80804,-0.70514 -1.2312,-0.37825 -2.03989,-0.84803 -2.99055,-1.73727 l -1.30302,-1.21882 -1.44029,0.7769 c -0.79216,0.4273 -1.44071,0.87161 -1.44122,0.98737 -5.1e-4,0.11575 -0.29317,0.5027 -0.65035,0.85989 -0.4737,0.4737 -0.93669,0.64943 -1.71098,0.64943 h -1.06154 l -0.93486,-0.93486 c -0.51417,-0.51417 -0.93486,-1.05795 -0.93486,-1.20839 0,-0.15044 0.44649,-0.70018 0.99219,-1.22164 0.5457,-0.52147 1.88516,-1.36589 2.97656,-1.87651 1.09141,-0.51061 2.55207,-0.98429 3.24592,-1.05261 0.81372,-0.0801 1.67229,0.0326 2.41863,0.31766 0.73554,0.28091 1.70583,1.02638 2.66332,2.04621 l 1.50624,1.6043 1.48187,-0.18514 c 0.81504,-0.10184 1.74642,-0.28573 2.06974,-0.40865 0.32332,-0.12293 1.29946,-0.30402 2.16921,-0.40242 1.00339,-0.11352 1.95525,-0.0609 2.60436,0.14404 0.56265,0.17762 1.85447,0.81651 2.87071,1.41975 l 1.84771,1.09681 1.85646,-0.0314 c 1.27236,-0.0215 2.56405,-0.26899 4.10542,-0.78666 l 2.24895,-0.75532 3.04271,0.006 3.04271,0.006 2.20086,0.84635 c 1.21048,0.46549 2.64396,0.84635 3.18552,0.84635 0.54156,0 2.15224,-0.36497 3.57929,-0.81104 l 2.59463,-0.81103 2.55423,-0.0136 2.55422,-0.0136 2.24896,-1.12896 c 1.23693,-0.62094 3.08274,-1.37721 4.10181,-1.68062 l 1.85286,-0.55164 2.25226,0.15894 2.25227,0.15895 3.32713,-1.10393 c 2.32023,-0.76985 4.22215,-1.206 6.28462,-1.44118 1.62663,-0.18549 3.01485,-0.2799 3.08494,-0.20981 0.0701,0.0701 0.12744,0.44633 0.12744,0.83608 0,0.38976 -0.22221,0.90975 -0.4938,1.15554 -0.2716,0.24579 -1.2264,0.56487 -2.12178,0.70906 -0.89538,0.1442 -2.78652,0.68729 -4.20254,1.20688 -1.41602,0.51958 -2.93177,1.06616 -3.36834,1.21463 -0.43656,0.14846 -2.40109,0.35296 -4.36562,0.45444 l -3.57188,0.18451 -3.175,1.57082 -3.175,1.57083 -2.5672,-0.0685 -2.56721,-0.0685 -2.55499,0.66384 c -1.40524,0.36511 -3.199,0.66384 -3.98612,0.66384 -0.92254,0 -2.48377,-0.34029 -4.39314,-0.95755 l -2.962,-0.95755 -1.72946,0.13796 c -0.9512,0.0759 -2.90496,0.50678 -4.34169,0.95755 l -2.61223,0.81959 -1.88568,-0.0155 -1.88569,-0.0155 z m -83.60833,-59.07514 c -0.94589,-0.33024 -2.12878,-0.81396 -2.62866,-1.07493 -0.49988,-0.26096 -1.6905,-1.07829 -2.64583,-1.81629 -0.95534,-0.738 -1.88203,-1.52721 -2.05933,-1.75382 -0.1773,-0.2266 -0.68332,-1.12834 -1.12448,-2.00386 -0.44117,-0.87552 -0.80212,-1.79349 -0.80212,-2.03992 0,-0.24644 -0.3128,-1.67323 -0.6951,-3.17065 -0.38231,-1.49742 -0.81914,-2.96069 -0.97073,-3.25171 -0.1516,-0.29102 -0.3784,-1.95789 -0.504,-3.70416 -0.1256,-1.74627 -0.29824,-4.2084 -0.38365,-5.47139 l -0.15529,-2.29635 0.58415,-1.93698 c 0.32129,-1.06535 0.95628,-2.59183 1.41109,-3.3922 0.45482,-0.80036 2.02182,-2.65414 3.48222,-4.1195 1.4604,-1.46537 3.25058,-3.07225 3.97819,-3.57085 l 1.32291,-0.90654 2.19017,-0.0946 2.19016,-0.0946 1.40808,0.68891 c 0.77445,0.3789 1.68341,0.68891 2.01992,0.68891 0.33651,0 1.25704,0.20339 2.04564,0.45197 l 1.4338,0.45197 0.99824,1.20167 c 0.54903,0.66093 1.29782,1.67793 1.66398,2.26002 0.36616,0.58208 0.93151,1.29617 1.25632,1.58687 0.32482,0.2907 0.76389,0.86369 0.97571,1.27332 l 0.38514,0.74477 -0.29709,7.06106 c -0.16341,3.88358 -0.47684,8.01356 -0.69652,9.17773 -0.21969,1.16416 -0.86422,3.54541 -1.4323,5.29166 -0.56808,1.74625 -1.48195,3.93341 -2.03081,4.86036 -0.54887,0.92694 -1.66532,2.30369 -2.481,3.05944 -0.98382,0.91153 -2.01723,1.56885 -3.06987,1.95266 -0.87275,0.31822 -2.05084,0.5716 -2.61798,0.56306 -0.56715,-0.009 -1.80508,-0.28572 -2.75096,-0.61597 z m 4.43436,-3.23945 c 0.47565,-0.3628 1.35085,-1.30338 1.94488,-2.09017 0.59404,-0.78679 1.43775,-2.29748 1.87493,-3.3571 0.43718,-1.05962 1.02232,-2.57405 1.30031,-3.36541 0.27799,-0.79137 0.61902,-2.16058 0.75786,-3.04271 0.13883,-0.88213 0.43569,-3.92559 0.65967,-6.76325 0.22398,-2.83766 0.43267,-6.08096 0.46375,-7.20734 l 0.0565,-2.04797 -1.07842,-1.12703 c -0.59312,-0.61987 -1.14247,-1.30563 -1.22077,-1.52391 -0.0783,-0.21828 -0.51674,-0.90855 -0.97433,-1.53394 l -0.83198,-1.13707 -1.24599,0.0515 c -0.83391,0.0345 -1.66275,-0.14652 -2.50613,-0.5473 -0.69308,-0.32936 -1.32519,-0.70407 -1.40468,-0.83269 -0.0795,-0.12863 -0.36368,-0.23386 -0.63152,-0.23386 -0.26784,0 -1.12402,0.47368 -1.90262,1.05263 -0.77859,0.57895 -2.33848,2.097 -3.46642,3.37344 -1.20995,1.36926 -2.44605,3.11288 -3.01482,4.25267 l -0.96404,1.93187 0.006,1.7723 c 0.003,0.97476 0.13663,3.4987 0.29599,5.60875 0.1774,2.34908 0.49788,4.50322 0.82662,5.55625 0.29529,0.94589 0.7731,2.70501 1.06179,3.90916 0.2887,1.20416 0.71783,2.57337 0.95364,3.04271 0.2358,0.46934 0.977,1.41889 1.6471,2.11011 0.67011,0.69123 1.3571,1.25677 1.52665,1.25677 0.16955,0 0.46705,0.19132 0.66111,0.42514 0.19406,0.23383 0.94676,0.6981 1.67267,1.03172 l 1.31984,0.60659 0.67366,-0.25613 c 0.37051,-0.14087 1.06283,-0.55296 1.53849,-0.91576 z M 25.704282,529.32684 c -0.07276,-0.071 -1.739636,-0.21224 -3.704167,-0.31377 -1.964531,-0.10153 -5.357813,-0.22895 -7.540625,-0.28315 -2.182813,-0.0542 -5.8931684,-0.16726 -8.2452348,-0.25124 -3.1122887,-0.11112 -4.5039377,-0.26615 -5.111997,-0.56949 -0.45953185,-0.22925 -0.9599339,-0.68989 -1.11200453,-1.02365 -0.16983501,-0.37274 -0.18811117,-0.87197 -0.04737815,-1.29417 0.12601263,-0.37804 0.34128153,-0.6801 0.47837533,-0.67125 0.1370938,0.009 0.44882615,-0.61622 0.69273855,-1.38906 0.2439124,-0.77284 0.5847171,-3.07203 0.7573438,-5.10932 0.1726267,-2.0373 0.4426176,-4.8948 0.5999799,-6.35 0.1573622,-1.45521 0.3610583,-3.37949 0.4526579,-4.27619 0.106797,-1.04546 0.347124,-1.82988 0.6699027,-2.18655 0.3023979,-0.33414 0.6880094,-0.4976 0.9658662,-0.40941 0.2543795,0.0807 0.5390861,0.0229 0.6326813,-0.12855 0.093595,-0.15144 0.6323697,-0.27535 1.1972767,-0.27535 0.5649069,0 1.1006882,0.11907 1.190625,0.26459 0.089937,0.14552 0.3457693,0.26458 0.5685167,0.26458 0.2227473,0 0.6161693,0.26079 0.874271,0.57953 l 0.4692759,0.57953 7.3783435,-0.021 c 4.058089,-0.0116 11.96225,-0.0968 17.564802,-0.18946 5.602552,-0.0926 10.960365,-0.16842 11.90625,-0.16845 0.945885,-3e-5 3.108181,-0.23509 4.805102,-0.52237 1.696921,-0.28728 4.137702,-0.52622 5.423959,-0.53098 1.286256,-0.005 3.112554,-0.11667 4.058439,-0.24869 0.945886,-0.13202 2.017448,-0.30514 2.38125,-0.38471 0.363802,-0.0796 0.986742,-0.27888 1.384311,-0.4429 0.397569,-0.16402 0.899771,-0.23033 1.116006,-0.14735 0.216234,0.083 0.468333,0.0292 0.56022,-0.11946 0.100797,-0.16309 0.931542,-0.2214 2.094349,-0.14701 1.218019,0.0779 2.189717,0.29527 2.640393,0.59056 l 0.713109,0.46725 -0.219298,1.60954 c -0.120614,0.88526 -0.182073,4.58611 -0.136576,8.22414 0.05643,4.51187 -0.02414,7.22858 -0.253451,8.54607 -0.184895,1.06232 -0.477404,2.0487 -0.650021,2.19196 -0.172617,0.14326 -0.901882,0.33011 -1.620589,0.41523 -0.848936,0.10055 -1.823135,0.005 -2.780714,-0.27373 -0.810685,-0.23567 -2.05936,-0.42849 -2.774834,-0.42849 -0.715473,0 -2.423555,0.24673 -3.795737,0.54829 -1.372182,0.30155 -3.566439,0.77679 -4.876126,1.05607 -1.309688,0.27929 -3.746814,0.63698 -5.415837,0.79488 -1.669022,0.15789 -3.104979,0.33059 -3.191016,0.38376 -0.08604,0.0532 -0.804066,0.11659 -1.595622,0.14092 -0.791555,0.0243 -2.74888,0.21439 -4.349609,0.42235 -1.600729,0.20796 -3.624792,0.49007 -4.497917,0.62692 -0.873125,0.13684 -3.373437,0.32305 -5.55625,0.4138 -2.182812,0.0907 -4.028281,0.10686 -4.101041,0.0358 z m 8.121526,-3.10616 c 1.863317,-0.14896 4.87613,-0.43977 6.695141,-0.64623 1.81901,-0.20647 4.67651,-0.50756 6.35,-0.6691 1.673489,-0.16153 3.816614,-0.41267 4.7625,-0.55809 0.945885,-0.14542 3.208073,-0.60739 5.027083,-1.0266 1.819011,-0.41921 4.021667,-0.8457 4.894792,-0.94777 0.873125,-0.10206 1.855629,-0.28583 2.183342,-0.40837 0.372368,-0.13923 0.840513,-0.77604 1.248204,-1.69791 0.3588,-0.8113 0.637917,-1.85936 0.620262,-2.329 -0.01766,-0.46964 0.105261,-1.11056 0.273149,-1.42426 0.187449,-0.35025 0.303688,-1.93001 0.3012,-4.09349 -0.0022,-1.93772 -0.09153,-3.64696 -0.198438,-3.79832 -0.106912,-0.15135 -0.650413,-0.41103 -1.20778,-0.57705 -0.718007,-0.21388 -1.71796,-0.22897 -3.430566,-0.0518 -1.329444,0.13754 -3.611853,0.26162 -5.072022,0.27572 -1.460168,0.0141 -3.428757,0.19653 -4.374643,0.40539 -0.945885,0.20885 -3.029479,0.42883 -4.630208,0.48882 -1.600729,0.06 -4.696355,0.18605 -6.879167,0.28012 -2.182813,0.0941 -5.646677,0.0505 -7.697477,-0.0968 -2.355979,-0.16924 -4.498947,-0.17807 -5.820834,-0.024 -1.150658,0.13412 -5.068669,0.29024 -8.70669,0.34692 -3.808361,0.0593 -7.175828,0.23659 -7.9375,0.41778 -0.7276039,0.1731 -1.6031008,0.31848 -1.9455485,0.32308 l -0.622632,0.008 -0.3974594,0.95125 c -0.2330237,0.55771 -0.4059376,1.83021 -0.4179524,3.07579 -0.013259,1.37459 0.1499027,2.66293 0.4622327,3.6498 l 0.4827258,1.52528 -0.4329745,0.47843 c -0.238136,0.26314 -0.5068532,1.01744 -0.5971492,1.67622 -0.091156,0.66505 -0.042184,1.42573 0.1101064,1.71028 0.194034,0.36256 0.9577111,0.67936 2.6102162,1.0828 1.2847639,0.31366 2.6931229,0.63698 3.1296849,0.71848 0.436563,0.0815 1.924844,0.26268 3.307292,0.40263 1.382448,0.13996 3.942292,0.33349 5.688542,0.43008 1.74625,0.0966 3.224609,0.2199 3.285243,0.27401 0.06063,0.0541 1.33407,0.0984 2.829859,0.0984 1.49579,0 4.244149,-0.12188 6.107466,-0.27085 z m -125.516026,-2.89252 c -0.602346,-0.36728 -0.896241,-0.78582 -1.021819,-1.45521 -0.09695,-0.51681 -0.04313,-2.57631 0.119616,-4.57668 0.162743,-2.00037 0.427842,-5.00625 0.589109,-6.67974 0.161267,-1.67349 0.217743,-3.63802 0.125503,-4.36563 -0.09224,-0.7276 -0.282006,-2.33495 -0.4217,-3.57187 -0.139695,-1.23693 -0.387272,-2.81399 -0.550172,-3.50458 -0.18111,-0.76778 -0.220178,-1.89853 -0.100557,-2.91041 0.107593,-0.91014 0.222742,-4.45277 0.255886,-7.87251 0.03314,-3.41974 0.198708,-7.70599 0.36792,-9.525 0.169212,-1.81901 0.23665,-4.55745 0.149863,-6.08542 -0.08679,-1.52797 -0.01756,-7.60016 0.15385,-13.49375 0.171406,-5.89359 0.292052,-11.38872 0.268103,-12.2114 l -0.04354,-1.49578 1.07718,-0.18199 c 0.592449,-0.1001 1.664824,-0.10117 2.383056,-0.002 l 1.305877,0.17961 0.324731,0.73361 0.324731,0.73362 3.060619,0.22765 c 1.68334,0.12521 4.846556,0.20107 7.029368,0.16858 2.182813,-0.0325 4.742657,-0.22523 5.688542,-0.42833 1.086342,-0.23326 3.454598,-0.37489 6.429719,-0.38452 2.590459,-0.008 5.002938,0.0962 5.361064,0.23232 0.358126,0.13616 0.782888,0.53672 0.943916,0.89014 l 0.292779,0.64258 -0.45333,0.88409 c -0.249332,0.48625 -0.668814,1.77705 -0.932182,2.86846 -0.263368,1.09141 -0.602114,2.81781 -0.752768,3.83646 -0.150655,1.01865 -0.338454,2.80458 -0.417333,3.96875 -0.07888,1.16417 -0.212139,4.61698 -0.296132,7.67292 -0.08399,3.05593 -0.196625,6.09203 -0.250292,6.74687 -0.05367,0.65484 -0.18533,3.21469 -0.292585,5.68854 -0.107254,2.47386 -0.191888,5.27183 -0.188074,6.21771 0.0038,0.94589 0.03735,3.32714 0.07454,5.29167 0.0433,2.28765 -0.0827,4.52315 -0.350451,6.21771 -0.22993,1.4552 -0.560143,4.882 -0.733807,7.61511 l -0.315752,4.96927 0.2933,2.43906 0.293301,2.43906 -0.346272,1.4552 c -0.190449,0.80037 -0.63005,2.3344 -0.976889,3.40896 -0.416902,1.29162 -0.838363,2.08987 -1.243615,2.3554 -0.337148,0.22091 -1.469424,0.48351 -2.516169,0.58357 -1.404504,0.13425 -2.039918,0.089 -2.425064,-0.17259 -0.287041,-0.19498 -1.001461,-0.3545 -1.587599,-0.3545 -0.586139,0 -1.8991,0.17652 -2.917691,0.39228 -1.018592,0.21575 -2.588583,0.39435 -3.48887,0.39687 -0.900287,0.003 -2.626693,-0.23269 -3.836459,-0.52272 -1.209765,-0.29002 -3.062776,-0.52814 -4.117802,-0.52916 l -1.918229,-0.002 v 0.53572 c 0,0.3316 -0.258584,0.63403 -0.678683,0.79375 -0.373275,0.14192 -1.176947,0.25759 -1.785937,0.25705 -0.63026,-5.7e-4 -1.471506,-0.22309 -1.952794,-0.51655 z m 16.863388,-2.75172 c 0.794558,-0.19735 1.920901,-0.32681 2.502985,-0.28768 0.582083,0.0391 1.439597,-0.0449 1.905587,-0.18668 0.518081,-0.15766 0.908392,-0.48277 1.004614,-0.8368 0.08655,-0.31843 0.438278,-1.2338 0.781622,-2.03417 0.343345,-0.80036 0.808359,-2.16958 1.033366,-3.04271 0.261939,-1.01644 0.461635,-3.39585 0.55514,-6.61458 0.08032,-2.7649 0.262854,-5.7445 0.405629,-6.62134 0.142776,-0.87684 0.443261,-3.25084 0.667744,-5.27555 0.270297,-2.43792 0.339353,-4.31229 0.204458,-5.5495 -0.112032,-1.02751 -0.20327,-3.05882 -0.202752,-4.51403 5.19e-4,-1.45521 0.08994,-4.19364 0.198705,-6.08541 0.108769,-1.89177 0.254526,-4.57068 0.323904,-5.95313 0.06938,-1.38245 0.195968,-5.43057 0.28131,-8.99583 l 0.155169,-6.48229 0.671909,-3.36987 c 0.36955,-1.85343 0.602759,-3.55007 0.518243,-3.77031 -0.08452,-0.22025 -0.460971,-0.40045 -0.836567,-0.40045 -0.375596,0 -1.056434,-0.19316 -1.512974,-0.42925 l -0.830072,-0.42924 -2.265643,0.18534 c -1.246103,0.10194 -3.753924,0.24735 -5.572934,0.32314 -1.819011,0.0758 -3.604948,0.14533 -3.96875,0.15456 -0.363802,0.009 -1.87198,-0.0548 -3.351507,-0.14236 -1.479527,-0.0875 -3.10001,-0.23606 -3.601074,-0.33006 l -0.911025,-0.17091 -0.184478,0.48074 c -0.101462,0.26441 -0.231147,1.73306 -0.288187,3.26366 -0.05704,1.53061 -0.137168,5.99761 -0.17806,9.92667 -0.04089,3.92907 -0.0023,8.51297 0.08576,10.18646 0.09755,1.85384 0.01582,4.59341 -0.209167,7.01146 -0.2031,2.18281 -0.417704,7.12391 -0.476897,10.98021 l -0.107623,7.01146 0.549297,2.64566 0.549298,2.64566 -0.16926,5.02725 c -0.09309,2.76499 -0.24666,6.11681 -0.341261,7.44848 l -0.172002,2.42123 0.897364,0.46466 c 0.49355,0.25556 1.314083,0.51167 1.823406,0.56912 0.509323,0.0575 1.104635,0.10885 1.322917,0.1142 0.218281,0.005 1.458629,0.12943 2.75633,0.27573 1.2977,0.1463 2.607387,0.36629 2.910416,0.48888 0.303029,0.12258 0.793838,0.23042 1.090686,0.23965 0.296848,0.009 1.189817,-0.14471 1.984375,-0.34207 z m -54.51203,1.94903 c -0.29252,-0.29252 -0.64034,-0.53186 -0.77293,-0.53186 -0.13258,0 -0.53745,-0.35223 -0.8997,-0.78274 -0.42557,-0.50577 -0.72427,-1.27818 -0.84411,-2.18282 -0.10201,-0.77003 -0.42432,-2.53116 -0.71624,-3.91361 l -0.53076,-2.51354 -0.13691,-5.95312 c -0.0753,-3.27422 -0.13766,-10.35844 -0.13859,-15.74271 -9.2e-4,-5.38427 0.0437,-11.81365 0.0992,-14.2875 0.0739,-3.29616 -0.0607,-6.22986 -0.50368,-10.98021 -0.3325,-3.56526 -0.64988,-7.13713 -0.70529,-7.9375 -0.0554,-0.80036 -0.18373,-3.18161 -0.28517,-5.29167 l -0.18444,-3.83645 -0.48154,-0.84486 -0.48154,-0.84486 0.31285,-0.66291 c 0.17206,-0.3646 0.55101,-0.72693 0.8421,-0.80518 0.29109,-0.0782 1.0948,-0.14389 1.78602,-0.14587 0.69123,-0.002 1.25677,0.0991 1.25677,0.22458 0,0.12551 1.0418,0.32093 2.31511,0.43426 1.27331,0.11333 2.63144,0.23614 3.01806,0.27291 0.38663,0.0368 1.51772,0.20403 2.51354,0.37171 1.1344,0.19101 3.63861,0.25824 6.70538,0.18001 2.69213,-0.0687 5.22996,-0.25276 5.63962,-0.40909 0.40965,-0.15634 1.68255,-0.28425 2.82865,-0.28425 1.14611,0 2.15862,0.12101 2.25002,0.2689 0.0914,0.1479 0.26792,0.20603 0.39226,0.12918 0.12434,-0.0768 0.46799,0.20003 0.76367,0.61527 l 0.5376,0.75499 -0.65234,1.2254 -0.65233,1.2254 -0.13533,8.14304 c -0.0744,4.47867 -0.19137,10.46475 -0.25985,13.30241 -0.0685,2.83765 -0.25032,5.63562 -0.4041,6.21771 -0.15378,0.58208 -0.38599,4.51114 -0.51604,8.73125 -0.15072,4.89122 -0.38191,8.39232 -0.63769,9.65729 -0.22069,1.0914 -0.65088,3.38076 -0.95597,5.08745 -0.3051,1.70669 -0.51832,3.67122 -0.47384,4.36562 0.0582,0.9087 0.19211,1.26316 0.47775,1.26471 l 0.39688,0.002 0.0497,2.24679 c 0.0273,1.23574 0.10198,3.43742 0.16592,4.89263 0.0639,1.45521 0.0282,2.7649 -0.0793,2.91042 -0.10757,0.14552 -0.26762,0.56741 -0.35568,0.93752 l -0.16009,0.67295 -0.98807,0.0665 c -0.54344,0.0366 -1.13127,0.18539 -1.30629,0.33064 -0.17502,0.14525 -0.62881,0.18614 -1.00842,0.0909 -0.37961,-0.0953 -0.83748,-0.0516 -1.01749,0.097 -0.18001,0.14861 -0.96089,0.31749 -1.73529,0.37529 -0.7744,0.0578 -1.48877,0.21981 -1.5875,0.36003 -0.0987,0.14022 -0.53669,0.42293 -0.97326,0.62823 -0.46411,0.21826 -1.80237,0.39724 -3.22249,0.43096 -1.33581,0.0317 -2.88362,0.20755 -3.43958,0.39072 -0.55597,0.18317 -1.3085,0.5405 -1.6723,0.79407 -0.3638,0.25357 -1.16626,0.53364 -1.78324,0.62238 l -1.12179,0.16134 z m 316.17439,-1.33246 c -0.65484,-0.13235 -2.50031,-0.89769 -4.10104,-1.70075 -1.60073,-0.80307 -3.50573,-1.57226 -4.23333,-1.70933 -0.7276,-0.13706 -1.6801,-0.38781 -2.11667,-0.55722 -0.43656,-0.1694 -1.80578,-0.32146 -3.04271,-0.3379 l -2.24895,-0.0299 -3.52386,1.52405 -3.52387,1.52405 -0.97405,-0.3117 c -0.53573,-0.17144 -1.24195,-0.55593 -1.56937,-0.85441 -0.32742,-0.29848 -0.59531,-0.7638 -0.59531,-1.03405 0,-0.27024 0.14883,-0.53215 0.33073,-0.58202 0.1819,-0.0499 0.97374,-0.24033 1.75965,-0.42324 0.7859,-0.18291 2.15512,-0.66168 3.04271,-1.06394 0.88758,-0.40226 2.09003,-0.85908 2.67212,-1.01516 0.58208,-0.15608 1.89725,-0.3502 2.92259,-0.43138 1.32893,-0.10522 2.62051,0.006 4.49791,0.38908 1.44852,0.29518 3.55206,0.75821 4.67455,1.02896 1.3013,0.31388 2.73682,0.91288 3.9613,1.65293 l 1.9204,1.16066 1.46267,-0.0415 c 0.80446,-0.0228 4.26063,-0.10455 7.68037,-0.18166 4.50724,-0.10164 6.50885,-0.24687 7.27604,-0.52794 0.58208,-0.21326 2.42755,-1.04109 4.10104,-1.83963 1.67349,-0.79854 3.69755,-1.63309 4.49792,-1.85456 0.80036,-0.22147 1.99099,-0.48747 2.64583,-0.59112 0.65485,-0.10365 3.0834,-0.8881 5.39678,-1.74323 2.31339,-0.85512 4.51605,-1.55314 4.89479,-1.55116 0.37875,0.002 0.95653,0.0754 1.28395,0.16315 0.32743,0.0877 0.59532,0.33996 0.59532,0.56046 0,0.22051 -0.39527,0.77371 -0.87837,1.22933 -0.54692,0.51581 -2.16931,1.35138 -4.29948,2.21434 -1.88161,0.76226 -4.01643,1.55239 -4.74403,1.75583 -0.7276,0.20345 -1.94383,0.44499 -2.70273,0.53677 -0.75889,0.0918 -1.94952,0.43451 -2.64583,0.76163 -0.69631,0.32712 -2.03993,1.02699 -2.98581,1.55527 -0.94589,0.52828 -2.29816,1.15299 -3.00505,1.38825 -0.8262,0.27498 -2.71619,0.48633 -5.29166,0.59177 -2.20353,0.0902 -5.07798,0.19295 -6.38767,0.22831 -1.30969,0.0354 -3.09562,0.13027 -3.96875,0.21093 -0.87312,0.0806 -2.12328,0.0384 -2.77813,-0.094 z m -238.306141,-0.77286 c -0.317909,-0.13683 -0.714031,-0.50292 -0.88027,-0.81354 -0.166239,-0.31062 -0.230307,-0.75226 -0.142372,-0.98141 0.08794,-0.22915 0.224982,-2.6904 0.304549,-5.46943 0.09733,-3.39935 0.03824,-5.71047 -0.180572,-7.06262 l -0.325241,-2.00984 0.303009,-3.811 c 0.166654,-2.09604 0.601204,-5.3588 0.965665,-7.25057 0.364462,-1.89177 0.663544,-3.91584 0.664628,-4.49792 0.0011,-0.58208 0.298962,-3.07089 0.661951,-5.53068 l 0.659981,-4.47235 -0.0117,-5.31724 c -0.0064,-2.92448 0.119457,-6.2102 0.279757,-7.30161 0.160299,-1.0914 0.46694,-3.47265 0.681425,-5.29166 0.214484,-1.81901 0.464685,-5.61304 0.556003,-8.43118 l 0.166033,-5.12389 0.825719,-0.345 c 0.454146,-0.18976 2.251371,-0.47472 3.993834,-0.63325 1.742464,-0.15853 4.959407,-0.39903 7.148764,-0.53444 2.579645,-0.15955 4.395505,-0.15409 5.159375,0.0155 0.648299,0.14394 1.952633,0.5026 2.898518,0.79703 1.20696,0.37569 3.013525,0.60705 6.058349,0.77586 l 4.338556,0.24054 0.652107,0.42728 0.652107,0.42727 -0.171267,1.07105 c -0.0942,0.58908 -0.395872,1.38648 -0.670388,1.772 -0.274515,0.38552 -0.798399,1.94587 -1.164185,3.46744 -0.365787,1.52157 -0.785371,3.83805 -0.932409,5.14774 -0.147039,1.30968 -0.338033,3.6314 -0.424432,5.15937 -0.0864,1.52797 -0.380425,4.14734 -0.653391,5.82083 -0.272967,1.67349 -0.571535,4.47146 -0.663486,6.21771 -0.09195,1.74625 -0.341275,5.43719 -0.554055,8.20209 -0.21278,2.76489 -0.51428,6.03911 -0.67,7.27604 -0.15572,1.23692 -0.453533,3.14192 -0.661807,4.23333 -0.208273,1.09141 -0.494679,2.57969 -0.636458,3.30729 -0.141778,0.72761 -0.3722,2.87073 -0.512048,4.7625 -0.139848,1.89177 -0.259367,4.24597 -0.265598,5.23156 -0.0062,0.98558 -0.09809,2.47386 -0.204135,3.30729 -0.106044,0.83343 -0.162744,2.17014 -0.126,2.97047 0.03674,0.80033 -0.07489,1.71991 -0.248081,2.04352 -0.173189,0.3236 -0.700219,0.71554 -1.17118,0.87097 -0.602869,0.19897 -1.514488,0.20081 -3.080271,0.006 -1.223189,-0.152 -4.004346,-0.27627 -6.18035,-0.27615 -2.176003,1.1e-4 -4.789807,0.0514 -5.808453,0.11394 -1.018646,0.0626 -2.218708,-0.0133 -2.666804,-0.16855 -0.470271,-0.16295 -1.339513,-0.2036 -2.056001,-0.0961 -0.682704,0.10237 -1.361938,0.3273 -1.509408,0.49983 -0.14747,0.17254 -0.41554,0.52786 -0.595713,0.78962 -0.226282,0.32874 -0.775782,0.51256 -1.776914,0.59443 -0.79713,0.0652 -1.709434,0.007 -2.027343,-0.13027 z m 22.011748,-4.88066 c 0.25273,-0.38934 0.485947,-2.71073 0.773681,-7.70109 l 0.411894,-7.14375 0.765933,-3.83646 c 0.421263,-2.11005 0.844163,-4.66989 0.939778,-5.68854 0.09561,-1.01864 0.351699,-3.44765 0.569076,-5.3978 0.217376,-1.95015 0.39607,-5.1053 0.397098,-7.01146 0.0012,-2.31488 0.166852,-4.3004 0.49871,-5.97928 0.273263,-1.38245 0.630989,-3.40651 0.794945,-4.49792 0.163957,-1.0914 0.409354,-3.91923 0.545328,-6.28405 0.135974,-2.36483 0.433499,-5.16279 0.661166,-6.21771 0.227668,-1.05491 0.485838,-2.32283 0.573711,-2.8176 l 0.159771,-0.89957 -0.488502,-0.3572 c -0.268676,-0.19646 -0.867942,-0.3572 -1.331702,-0.3572 -0.541694,0 -0.972999,-0.1873 -1.206201,-0.5238 -0.208116,-0.30031 -1.379028,-0.8743 -2.744251,-1.34526 l -2.38125,-0.82145 -2.778125,-0.0438 c -1.527969,-0.0241 -3.838063,0.046 -5.133543,0.15569 -1.29548,0.10973 -2.514354,0.33141 -2.70861,0.49263 -0.194255,0.16121 -0.536002,0.22297 -0.759437,0.13723 -0.225714,-0.0866 -0.638735,0.0766 -0.929411,0.36727 l -0.523166,0.52317 v 1.83884 c 0,1.01137 -0.184321,3.95817 -0.409602,6.54844 -0.225281,2.59028 -0.582469,5.95071 -0.79375,7.46763 -0.238584,1.71294 -0.384285,4.92119 -0.38451,8.46666 -2.49e-4,3.93554 -0.12499,6.40716 -0.401614,7.95759 -0.22069,1.23693 -0.460692,3.0824 -0.53334,4.10105 -0.07265,1.01864 -0.196745,2.54779 -0.275773,3.39811 -0.07903,0.85031 -0.253941,1.83601 -0.388695,2.19044 -0.134754,0.35443 -0.439392,1.92091 -0.676974,3.48106 -0.246489,1.61864 -0.426506,4.37033 -0.419247,6.40851 0.007,1.96453 0.05091,5.75312 0.09759,8.41909 l 0.08487,4.84721 0.497402,0.2784 c 0.284287,0.15912 1.078123,0.21016 1.852787,0.11911 0.745462,-0.0876 1.712256,-0.0576 2.148432,0.0666 0.436175,0.12425 3.569702,0.2238 6.963394,0.22123 l 6.170347,-0.005 z M 3.75792,502.03451 c -0.1550995,-0.18689 -0.5636194,-0.28596 -0.9078221,-0.22016 -0.3442027,0.0658 -0.9883735,-0.0678 -1.4314907,-0.29699 -0.51498967,-0.26631 -0.91767868,-0.75603 -1.11612726,-1.35733 l -0.31045976,-0.9407 0.42681322,-0.6514 c 0.23474727,-0.35827 0.6026622,-0.6514 0.8175888,-0.6514 0.2149266,0 0.6289006,-0.23813 0.9199422,-0.52917 l 0.5291667,-0.52917 v -1.73497 c 0,-0.95423 -0.1341441,-2.54724 -0.298098,-3.54002 l -0.2980981,-1.80505 0.5983008,-3.00842 c 0.3290655,-1.65462 0.5971399,-3.54419 0.595721,-4.19904 -0.00142,-0.65484 -0.089387,-1.78718 -0.1954854,-2.51632 l -0.1929054,-1.3257 0.4905951,-0.59216 c 0.3123985,-0.37707 0.9230601,-0.65532 1.6812201,-0.76606 0.6548437,-0.0956 1.7859375,-0.16355 2.5135417,-0.15089 0.7276042,0.0127 1.9182292,0.0972 2.6458331,0.18781 0.727604,0.0906 2.037292,0.22283 2.910417,0.29375 0.873125,0.0709 3.194844,0.10247 5.159375,0.0701 1.964531,-0.0324 4.048125,-0.0497 4.630209,-0.0386 0.582083,0.0112 2.052252,0.13515 3.267043,0.27554 1.21479,0.14038 6.215415,0.20824 11.1125,0.1508 l 8.90379,-0.10444 1.64298,-0.40717 c 0.903638,-0.22395 2.630045,-0.41426 3.836458,-0.42292 1.206414,-0.009 3.026917,-0.0131 4.045563,-0.01 1.018645,0.003 2.387864,0.0271 3.042708,0.0531 0.654844,0.026 2.738438,0.0886 4.630208,0.13902 1.891771,0.0505 3.677709,0.10876 3.96875,0.12955 0.291042,0.0208 1.064948,0.17373 1.719792,0.33988 0.654844,0.16614 1.395023,0.54624 1.644844,0.84465 0.24982,0.29841 0.458179,0.84435 0.46302,1.21319 0.0048,0.36885 -0.23382,1.36094 -0.53036,2.20464 -0.296539,0.84371 -0.65005,2.3874 -0.78558,3.43042 -0.135531,1.04302 -0.250095,3.34037 -0.254588,5.10523 -0.006,2.35422 0.104258,3.47791 0.413965,4.21914 l 0.422134,1.01031 -0.172815,1.61373 -0.172815,1.61372 -0.580048,0.37544 -0.580048,0.37545 -5.556251,0.0487 -5.55625,0.0487 -1.455208,0.44771 c -0.97374,0.29957 -3.468621,0.56364 -7.540625,0.79812 -3.346979,0.19273 -8.031,0.54362 -10.408935,0.77975 l -4.323517,0.42933 -4.672316,-0.52872 c -2.569774,-0.2908 -6.815441,-0.64637 -9.434816,-0.79015 -2.619375,-0.14378 -6.131719,-0.22502 -7.805209,-0.18054 -1.673489,0.0445 -3.3778809,0.21696 -3.7875365,0.38329 -0.4096557,0.16633 -1.1576205,0.30242 -1.662144,0.30242 -0.5045235,0 -1.323129,0.16956 -1.8191235,0.3768 l -0.901808,0.3768 z m 38.350529,-3.05283 c 1.236927,-0.13938 4.000844,-0.32174 6.142037,-0.40523 2.663255,-0.10384 4.878175,-0.36286 7.011459,-0.81992 1.715108,-0.36747 4.111874,-0.78667 5.326146,-0.93156 1.214272,-0.14489 2.487967,-0.36996 2.830433,-0.50017 0.342467,-0.1302 0.825167,-0.54579 1.072667,-0.92352 l 0.45,-0.68679 0.262789,-6.52167 0.262788,-6.52167 -0.58718,-0.38988 -0.587181,-0.38987 -4.370018,-0.0626 c -2.40351,-0.0344 -5.134909,-0.21467 -6.069775,-0.40049 l -1.699757,-0.33786 -2.310225,0.46482 -2.310225,0.46482 -10.186458,-5.4e-4 c -5.602553,-3e-4 -13.813032,-0.0231 -18.245509,-0.0507 -5.760965,-0.0358 -8.087262,0.0345 -8.157986,0.24669 -0.05442,0.16325 -0.243445,0.29681 -0.420066,0.29681 -0.176622,0 -0.756199,0.44649 -1.2879497,0.99219 -0.5317508,0.5457 -1.1359986,1.4089 -1.342773,1.91823 -0.2067744,0.50932 -0.5273598,1.74897 -0.7124121,2.75478 -0.2303485,1.252 -0.2803483,2.87913 -0.1585413,5.15937 0.097855,1.83185 0.2462673,3.75847 0.329806,4.28138 l 0.1518885,0.95073 1.361875,-0.1243 c 0.7490312,-0.0684 1.5157486,-0.24708 1.7038176,-0.39713 0.23607,-0.18835 0.430793,-0.18397 0.628908,0.0141 0.186486,0.18649 0.506615,0.20346 0.914283,0.0485 0.370657,-0.14092 1.628874,-0.14229 3.075259,-0.003 1.346368,0.12934 2.763397,0.35693 3.148956,0.50575 0.385558,0.14882 2.766808,0.46526 5.291666,0.70321 2.524859,0.23794 5.245496,0.52857 6.045861,0.64585 0.800364,0.11727 3.419739,0.22677 5.820833,0.24332 2.401094,0.0165 5.377656,-0.084 6.614584,-0.22333 z m 137.846211,0.53972 c -0.36475,-0.11095 -1.05756,-0.40567 -1.53958,-0.65493 -0.48202,-0.24926 -1.22025,-0.83286 -1.64052,-1.29689 -0.42027,-0.46402 -0.90277,-1.1711 -1.07222,-1.57128 -0.17058,-0.40287 -0.51668,-0.72761 -0.77545,-0.72761 -0.25705,0 -1.22487,0.3526 -2.15071,0.78355 -0.92585,0.43096 -2.3386,0.95257 -3.13945,1.15915 -0.87693,0.22621 -2.19241,0.33031 -3.30729,0.26174 -1.01816,-0.0626 -2.29971,-0.30558 -2.8479,-0.53991 -0.54818,-0.23432 -1.23279,-0.80805 -1.52135,-1.27495 -0.28856,-0.4669 -0.52466,-1.04322 -0.52466,-1.2807 0,-0.23749 0.14883,-0.44657 0.33073,-0.46462 0.1819,-0.0181 0.98558,-0.005 1.78594,0.0282 0.80037,0.0335 1.80106,0.2395 2.22377,0.45768 0.46782,0.24147 1.11813,0.33996 1.66194,0.25172 0.49137,-0.0797 1.51474,-0.43874 2.27415,-0.79778 0.75942,-0.35905 1.85702,-0.83207 2.4391,-1.05116 0.58208,-0.2191 1.91734,-0.46072 2.96723,-0.53694 l 1.90889,-0.13857 0.55102,0.44684 c 0.30306,0.24577 0.99767,1.22075 1.54356,2.16664 0.65827,1.14059 1.18134,1.7473 1.55312,1.80147 0.30832,0.0449 1.15649,-0.22029 1.88483,-0.58937 0.72834,-0.36907 1.83951,-0.78764 2.46926,-0.93015 0.74909,-0.1695 2.03296,-0.16858 3.71298,0.003 1.41238,0.14397 2.98613,0.43649 3.49723,0.65003 0.51109,0.21355 1.48389,0.38827 2.16178,0.38827 h 1.23252 l 2.54629,-1.38906 2.54629,-1.38906 h 3.70417 3.70416 l 1.32292,-0.63899 c 0.7276,-0.35144 1.62057,-0.83963 1.98438,-1.08486 0.3638,-0.24524 1.24821,-0.6423 1.96536,-0.88237 0.80871,-0.27072 2.16522,-0.43611 3.57187,-0.4355 l 2.26797,9.9e-4 0.86629,0.52818 c 0.47646,0.29049 1.20606,0.52817 1.62134,0.52817 0.41527,0 1.18248,-0.17859 1.7049,-0.39687 0.52242,-0.21828 1.31869,-0.39688 1.7695,-0.39688 0.4508,0 1.0392,0.11751 1.30755,0.26112 0.3377,0.18074 0.44276,0.44546 0.34126,0.8599 -0.0807,0.32933 -0.25346,0.73601 -0.38403,0.90375 -0.13056,0.16773 -0.86675,0.60296 -1.63596,0.96716 -0.76922,0.36421 -2.28231,0.7945 -3.36242,0.9562 -1.3166,0.1971 -2.2562,0.20887 -2.85091,0.0357 -0.48789,-0.14207 -1.29375,-0.56849 -1.7908,-0.94761 l -0.90373,-0.68931 -1.51649,0.69392 c -0.83407,0.38165 -2.06465,1.04547 -2.73463,1.47516 -0.66997,0.42969 -1.82702,0.96208 -2.57123,1.18308 l -1.3531,0.40183 -1.74467,-0.40461 c -0.95956,-0.22254 -2.12682,-0.40462 -2.5939,-0.40462 -0.5634,0 -1.64398,0.48558 -3.21044,1.44265 -1.71432,1.04742 -2.72992,1.48872 -3.70708,1.61081 -0.89305,0.11158 -2.36356,-0.0177 -4.37054,-0.38432 -1.66356,-0.30386 -3.62418,-0.55131 -4.35695,-0.54989 -0.85203,0.002 -1.83141,0.23496 -2.71691,0.64723 -0.76154,0.35455 -2.06333,0.77011 -2.89286,0.92346 -0.82954,0.15334 -1.51615,0.26858 -1.5258,0.25607 -0.01,-0.0125 -0.31598,-0.11352 -0.68072,-0.22447 z m -137.184753,-24.78075 -1.852083,-0.68388 -4.233334,0.0554 c -2.328333,0.0305 -4.857843,0.0445 -5.621133,0.0311 -0.76329,-0.0134 -1.775321,-0.22723 -2.248959,-0.47522 l -0.861158,-0.45088 -2.248958,0.045 c -1.236928,0.0248 -2.725209,0.07 -3.307292,0.10045 -0.582083,0.0305 -3.011737,-0.0458 -5.39923,-0.16945 l -4.340896,-0.22485 -0.289312,0.3694 c -0.159122,0.20317 -0.706031,0.50897 -1.215354,0.67956 l -0.926042,0.31015 -1.6752822,-0.31556 c -1.0683931,-0.20124 -1.7680552,-0.48134 -1.9313764,-0.77317 -0.1408516,-0.25169 -0.4160331,-0.45762 -0.6115143,-0.45762 -0.1954812,0 -0.424377,-0.1797 -0.5086573,-0.39933 -0.08428,-0.21963 -0.2944244,-0.36846 -0.4669869,-0.33073 -0.1725625,0.0377 -0.4896261,-0.28858 -0.7045856,-0.72515 -0.2149596,-0.43656 -0.6246146,-1.25447 -0.9103444,-1.81757 l -0.5195087,-1.02382 0.03753,-6.12108 c 0.020641,-3.36659 0.080101,-6.5968 0.1321335,-7.17826 0.052032,-0.58145 0.1766424,-2.09898 0.276912,-3.37229 0.126443,-1.60568 0.093953,-2.3151 -0.1060263,-2.3151 -0.1585841,0 -0.2883347,-0.29766 -0.2883347,-0.66146 0,-0.3638 0.1153257,-0.66146 0.2562794,-0.66146 0.1409537,0 0.200423,-0.14883 0.132154,-0.33073 -0.068269,-0.1819 0.2883506,-0.61102 0.7924879,-0.95359 l 0.9166134,-0.62286 3.9121702,0.44501 c 2.1516934,0.24476 4.5565934,0.61287 5.3442224,0.81802 0.931546,0.24264 1.539438,0.28388 1.739306,0.11801 0.16899,-0.14025 0.715191,-0.24 1.213781,-0.22166 0.49859,0.0183 1.144652,-0.0413 1.435694,-0.13256 0.291042,-0.0912 0.658405,-0.0793 0.816362,0.0265 0.157958,0.10581 0.404268,0.40692 0.547356,0.66912 l 0.260161,0.47673 1.833894,0.1 c 1.008642,0.055 6.179675,0.17221 11.491186,0.26051 5.31151,0.0883 9.990368,0.22644 10.39746,0.30698 0.407093,0.0805 3.800375,0.19934 7.540626,0.26401 3.740251,0.0647 7.217175,0.13138 7.726498,0.14823 0.509323,0.0169 2.921495,0.008 5.360383,-0.0189 2.700997,-0.0302 4.827562,0.0682 5.440301,0.25182 l 1.005961,0.30139 0.334855,1.13409 0.334855,1.13408 -0.523073,1.02531 c -0.28769,0.56392 -0.766087,1.97621 -1.063105,3.13843 -0.297019,1.16222 -0.683672,3.14417 -0.859229,4.40433 -0.175558,1.26016 -0.251837,3.03405 -0.169508,3.94198 0.08233,0.90793 0.03884,1.94232 -0.09663,2.29865 -0.157601,0.41452 -0.145186,1.02345 0.03447,1.69063 l 0.280788,1.04277 -0.958148,1.57728 c -0.526982,0.86751 -1.098356,1.58696 -1.269721,1.59878 -0.171365,0.0118 -0.609228,0.0606 -0.973031,0.10839 -0.363802,0.0478 -2.223538,0.4516 -4.132746,0.89734 l -3.471288,0.81045 -1.820379,-0.54406 c -1.001208,-0.29924 -3.156235,-0.72653 -4.788948,-0.94953 -1.632713,-0.22301 -3.274033,-0.3288 -3.647379,-0.23509 -0.373345,0.0937 -0.781258,0.43983 -0.906472,0.76916 -0.125214,0.32934 -0.388893,0.73208 -0.585954,0.89498 -0.197061,0.1629 -0.775011,0.36582 -1.284334,0.45093 -0.647478,0.10821 -1.483169,-0.051 -2.778125,-0.52911 z M 28.184855,452.61391 c 0.203791,-0.32512 0.204113,-0.53728 0.0011,-0.74027 -0.202988,-0.20298 -0.485637,-0.1929 -0.986241,0.0352 -0.38594,0.17585 -0.701708,0.45936 -0.701708,0.63003 0,0.17067 0.0844,0.3947 0.187549,0.49786 0.103153,0.10315 0.418415,0.15276 0.700583,0.11024 0.282169,-0.0425 0.641579,-0.28239 0.798691,-0.53305 z m -2.877448,-0.20572 c 0.08994,-0.14552 0.03743,-0.26458 -0.116677,-0.26458 -0.154109,0 -0.280198,0.11906 -0.280198,0.26458 0,0.14553 0.0525,0.26459 0.116676,0.26459 0.06417,0 0.190262,-0.11906 0.280199,-0.26459 z M 130.2147,467.11414 c -0.65484,-0.19828 -1.86141,-0.73218 -2.68127,-1.18646 -0.81985,-0.45428 -1.97326,-1.34954 -2.56313,-1.98948 -0.58987,-0.63993 -1.38678,-1.78373 -1.77091,-2.54177 -0.38413,-0.75804 -0.86576,-2.16776 -1.07029,-3.13272 -0.21944,-1.03528 -0.3706,-3.27289 -0.36877,-5.45864 l 0.003,-3.70417 0.48915,-1.71979 c 0.26904,-0.94588 0.91261,-3.14854 1.43016,-4.89479 0.51755,-1.74625 1.07702,-3.55481 1.24328,-4.01901 0.16625,-0.46421 0.72803,-1.16875 1.24839,-1.56565 0.52036,-0.39689 1.78583,-1.47793 2.81217,-2.40231 1.02633,-0.92437 2.64526,-2.20067 3.59761,-2.83621 0.95235,-0.63555 1.99161,-1.28806 2.30946,-1.45003 0.31786,-0.16198 1.03223,-0.29741 1.5875,-0.30097 0.55527,-0.004 1.5277,-0.12593 2.16094,-0.27195 l 1.15137,-0.26549 1.77043,1.02073 c 0.97374,0.5614 2.15088,1.15335 2.61585,1.31545 0.46498,0.16209 1.38259,0.6643 2.03914,1.11601 0.65655,0.45172 1.19373,0.912 1.19373,1.02285 0,0.11085 0.54486,0.84927 1.2108,1.64094 0.66594,0.79166 1.55891,1.85285 1.98437,2.35819 0.42547,0.50534 0.78715,1.16018 0.80375,1.45521 0.0166,0.29502 0.0748,0.89359 0.12929,1.33016 0.0545,0.43656 -0.0313,1.68671 -0.19066,2.77812 -0.15939,1.09141 -0.43273,3.29406 -0.60742,4.89479 -0.1747,1.60073 -0.48943,3.23193 -0.6994,3.62489 -0.20998,0.39296 -1.30859,2.428 -2.44137,4.52231 -1.13278,2.09431 -2.6244,4.51124 -3.31471,5.37095 -0.69031,0.8597 -1.79114,1.92358 -2.44629,2.36417 -0.65514,0.44058 -2.46614,1.30283 -4.02444,1.9161 -1.9851,0.78123 -3.36883,1.15306 -4.62225,1.24205 -1.11177,0.0789 -2.23966,-0.009 -2.97959,-0.23348 z m 5.0452,-3.45404 c 1.30868,-0.50542 2.89953,-1.27678 3.53522,-1.71415 0.6357,-0.43737 1.56396,-1.36331 2.06281,-2.05763 0.49886,-0.69433 1.26771,-1.91726 1.70857,-2.71763 0.44086,-0.80036 1.40406,-2.5863 2.14044,-3.96875 0.82895,-1.55624 1.40689,-3.01738 1.51747,-3.83645 0.0982,-0.72761 0.40093,-2.45401 0.67268,-3.83646 0.27174,-1.38245 0.52163,-3.34698 0.5553,-4.36563 0.0337,-1.01864 -0.0508,-2.04895 -0.18771,-2.28957 -0.13692,-0.24063 -0.81448,-1.04988 -1.50571,-1.79834 -0.69122,-0.74846 -1.26056,-1.44456 -1.26518,-1.54688 -0.005,-0.10232 -0.17076,-0.40011 -0.36918,-0.66175 -0.19842,-0.26164 -0.99662,-0.70812 -1.77379,-0.99219 -0.77716,-0.28406 -1.72755,-0.51648 -2.11197,-0.51648 -0.38441,0 -0.84716,-0.17859 -1.02832,-0.39687 -0.18115,-0.21828 -0.64867,-0.39688 -1.03893,-0.39688 -0.39025,0 -1.29841,0.37235 -2.01812,0.82745 -0.71971,0.45509 -1.90388,1.30627 -2.63149,1.89152 -0.7276,0.58524 -2.11732,1.88108 -3.08825,2.87964 l -1.76533,1.81555 -0.52781,1.65074 c -0.29029,0.9079 -0.92464,2.90089 -1.40967,4.42885 l -0.88185,2.77813 v 3.96875 c 0,2.39946 0.14409,4.61801 0.36441,5.61075 0.20042,0.9031 0.7362,2.20857 1.19062,2.90103 0.45442,0.69247 1.42153,1.70914 2.14913,2.25927 l 1.32292,1.00024 1.00216,10e-4 c 0.55119,7.4e-4 2.0729,-0.41218 3.38158,-0.91759 z m 68.18675,-4.65683 c -0.70591,-0.23898 -1.60317,-0.7193 -1.99392,-1.06739 -0.39074,-0.34809 -1.13079,-1.08068 -1.64455,-1.62798 l -0.9341,-0.99508 -2.64584,0.6574 c -1.55209,0.38565 -3.43133,0.66028 -4.54601,0.66436 l -1.90018,0.007 -2.20086,-0.81973 -2.20086,-0.81973 -1.98438,0.12892 c -1.42,0.0922 -2.99251,0.4759 -5.52903,1.3489 -1.94956,0.67098 -3.85783,1.21997 -4.24061,1.21997 -0.38277,0 -0.99033,-0.19601 -1.35013,-0.43558 -0.3598,-0.23957 -0.80302,-0.61952 -0.98492,-0.84432 -0.1819,-0.22481 -0.33073,-0.558 -0.33073,-0.74043 0,-0.19226 1.52931,-0.83046 3.63803,-1.51819 2.00091,-0.65257 4.44908,-1.37352 5.44037,-1.60211 0.9913,-0.22859 2.65817,-0.41495 3.70417,-0.41414 1.04599,8.1e-4 2.37026,0.13153 2.94281,0.29049 0.57255,0.15897 1.70028,0.59059 2.50607,0.95916 l 1.46506,0.67014 3.38017,-0.73315 c 2.4012,-0.5208 3.78752,-0.6911 4.78665,-0.58798 0.77356,0.0798 1.8395,0.3261 2.36876,0.54723 0.59096,0.24692 1.33043,0.9145 1.91632,1.73001 l 0.95402,1.32794 3.49098,0.0318 c 1.92003,0.0175 3.7291,0.033 4.02014,0.0345 0.29104,10e-4 1.00541,-0.0762 1.5875,-0.17257 0.58208,-0.0964 1.38575,-0.0491 1.78593,0.10522 0.42201,0.1627 0.72407,0.47776 0.71919,0.7501 -0.005,0.25826 -0.166,0.67713 -0.3586,0.93083 -0.19261,0.25369 -0.87343,0.64808 -1.51294,0.87643 -0.82142,0.2933 -2.32263,0.4324 -5.1139,0.47384 l -3.95115,0.0587 z m 7.79287,-22.4688 c -0.32668,-0.30435 -0.76662,-0.9666 -0.97765,-1.47166 -0.21103,-0.50507 -0.55016,-0.98218 -0.75361,-1.06026 -0.20346,-0.0781 -1.55253,0.3292 -2.99793,0.90505 -1.4454,0.57584 -3.16802,1.12797 -3.82803,1.22694 -0.66001,0.099 -1.6678,0.054 -2.23954,-0.1 -0.57173,-0.15398 -1.93165,-0.83004 -3.02205,-1.50234 l -1.98252,-1.22237 -0.88623,0.14381 c -0.48742,0.0791 -1.684,0.55666 -2.65905,1.06126 -0.97506,0.50459 -2.52424,1.17057 -3.44263,1.47995 -1.22446,0.41249 -1.99764,0.51822 -2.89904,0.39645 -0.67609,-0.0913 -2.43606,-0.45396 -3.91106,-0.80583 -1.475,-0.35188 -2.93173,-0.63978 -3.23718,-0.63978 -0.30544,0 -1.12268,0.34388 -1.81609,0.76417 -0.69341,0.4203 -1.52234,0.84304 -1.84205,0.93943 -0.35707,0.10765 -1.09702,-0.0466 -1.91823,-0.39988 -0.73531,-0.31632 -1.33693,-0.66979 -1.33693,-0.78549 0,-0.1157 -0.0677,-0.38685 -0.15049,-0.60255 -0.11009,-0.28689 0.47597,-0.69418 2.18281,-1.51695 l 2.33331,-1.12477 1.62696,0.0199 c 0.89482,0.0109 2.5617,0.25967 3.70416,0.5527 1.14247,0.29302 2.69793,0.60329 3.45658,0.68947 l 1.37937,0.15669 2.06221,-1.03686 c 1.13422,-0.57027 2.71616,-1.2327 3.51542,-1.47207 l 1.45321,-0.4352 2.0158,0.17246 2.0158,0.17246 1.29149,0.74926 c 0.71033,0.4121 1.67608,0.95479 2.14612,1.20598 l 0.85462,0.45671 2.71725,-1.03302 2.71726,-1.03302 1.82114,0.0516 c 1.00162,0.0284 2.22001,0.18323 2.70752,0.34412 0.48752,0.1609 1.12206,0.6235 1.4101,1.02802 0.28804,0.40451 0.65231,1.30934 0.8095,2.01073 l 0.28579,1.27524 -0.34203,0.33406 c -0.18811,0.18374 -0.64084,0.40716 -1.00607,0.4965 -0.46909,0.11474 -0.83843,-3e-5 -1.25801,-0.39092 z m -335.95417,-22.23162 c -0.0881,-0.14258 -0.53052,-0.25924 -0.98311,-0.25924 -0.45258,0 -1.44425,-0.35068 -2.2037,-0.77929 -0.75946,-0.4286 -1.44167,-0.71844 -1.51603,-0.64408 -0.0744,0.0744 -0.47465,-0.31909 -0.88953,-0.87436 -0.41488,-0.55526 -0.93292,-1.1546 -1.1512,-1.33187 -0.21828,-0.17728 -0.75406,-0.32502 -1.19063,-0.32831 -0.43656,-0.003 -1.38906,0.28684 -2.11666,0.64476 -0.72761,0.35793 -1.60676,0.65449 -1.95368,0.65904 -0.34692,0.005 -1.09106,-0.12963 -1.65365,-0.29819 -0.56258,-0.16855 -1.02288,-0.46621 -1.02288,-0.66145 0,-0.19525 -0.11906,-0.355 -0.26459,-0.355 -0.14552,0 -0.26458,-0.2851 -0.26458,-0.63356 v -0.63356 l 2.64922,-0.85063 2.64921,-0.85063 2.2386,0.0186 c 1.52105,0.0126 2.50603,0.15687 3.07295,0.45004 0.4589,0.2373 1.23105,0.79245 1.7159,1.23365 0.48485,0.4412 0.85667,0.8768 0.82627,0.968 -0.0304,0.0912 0.21634,0.43743 0.54831,0.7694 0.33197,0.33197 0.94393,0.67165 1.35992,0.75485 0.41599,0.0832 1.39454,-0.0334 2.17455,-0.25906 0.78001,-0.22568 2.2273,-0.53875 3.2162,-0.69571 1.32643,-0.21053 2.06552,-0.20523 2.81794,0.0202 0.59904,0.17948 1.52213,0.23027 2.23689,0.12309 0.72627,-0.10892 1.21696,-0.32075 1.21696,-0.52536 0,-0.18858 -0.57672,-0.92543 -1.28161,-1.63744 -0.70488,-0.71201 -1.72575,-1.99531 -2.2686,-2.85177 -0.6626,-1.04539 -0.84299,-1.50193 -0.54884,-1.38906 0.24099,0.0925 0.54749,0.16814 0.6811,0.16814 0.13362,0 0.22885,0.0893 0.21162,0.19844 -0.0172,0.10914 -0.0172,0.33924 0,0.51133 0.0172,0.1721 0.28034,0.39193 0.58468,0.48853 0.37924,0.12037 0.51236,0.33241 0.42306,0.67389 -0.0948,0.36239 0.13312,0.65611 0.83571,1.07713 0.5313,0.31838 1.29211,0.90033 1.69069,1.29323 0.39858,0.39289 1.14505,0.78256 1.65882,0.86594 0.52985,0.086 1.53218,-0.026 2.31602,-0.2588 0.76004,-0.2257 2.3297,-0.88692 3.48813,-1.46937 1.44572,-0.72689 2.58052,-1.102 3.61862,-1.19613 l 1.51238,-0.13714 0.881295,0.53645 c 0.484715,0.29504 1.565908,0.68684 2.402653,0.87066 l 1.521354,0.33421 0.03052,0.55321 c 0.01679,0.30427 0.04655,0.7318 0.06615,0.95008 0.02458,0.27383 0.400957,0.42292 1.213976,0.48087 0.648092,0.0462 1.719655,-0.0512 2.38125,-0.21648 0.661595,-0.16525 2.568696,-0.89518 4.238002,-1.62207 1.669306,-0.72688 3.693368,-1.47493 4.497917,-1.66233 1.050548,-0.2447 2.022073,-0.27468 3.44719,-0.10638 1.091406,0.12889 2.385748,0.34366 2.876315,0.47726 0.625024,0.17023 1.495975,0.11921 2.910416,-0.17049 1.110163,-0.22738 2.732852,-0.7128 3.605977,-1.07871 0.873125,-0.36591 2.54,-1.01128 3.704167,-1.43416 1.334669,-0.4848 2.90331,-0.82791 4.245906,-0.9287 1.515466,-0.11377 2.621362,-0.0395 3.836459,0.25763 l 1.707219,0.41746 8.863541,0.0777 8.863542,0.0777 1.984375,-0.56829 c 1.091407,-0.31255 2.90654,-0.70605 4.03363,-0.87444 l 2.049255,-0.30616 2.510595,0.29976 c 1.380828,0.16487 2.899444,0.41129 3.374704,0.54761 0.493822,0.14164 2.904927,0.17755 5.626608,0.0838 l 4.7625,-0.16404 2.513542,0.73954 2.5135419,0.73953 2.2489583,-0.004 c 1.5871041,-0.003 2.7550823,-0.17237 3.9687501,-0.57542 0.9458855,-0.31412 2.3266174,-0.64518 3.06829314,-0.73569 0.985544,-0.12026 1.59878106,-0.0458 2.27836926,0.2767 0.6659045,0.316 0.9215189,0.60453 0.9004569,1.01644 l -0.029411,0.57518 -1.84819347,0.76842 c -1.01650641,0.42264 -2.88492233,0.98083 -4.15203543,1.24044 l -2.303842,0.472 -2.065673,-0.24711 c -1.1361202,-0.13592 -2.6609857,-0.4143 -3.3885897,-0.61864 -0.727604,-0.20433 -1.892205,-0.51568 -2.588001,-0.69188 -0.87333,-0.22116 -2.389087,-0.2665 -4.894792,-0.14641 -2.196952,0.1053 -4.465219,0.0596 -5.746374,-0.11587 -1.164166,-0.15942 -3.343155,-0.35397 -4.842197,-0.43235 l -2.725531,-0.1425 -1.507803,0.54676 c -0.829291,0.30072 -2.34124,0.67942 -3.359886,0.84157 -1.154344,0.18374 -3.098046,0.22668 -5.159375,0.11396 -1.81901,-0.0995 -5.440498,-0.16621 -8.04775,-0.14831 l -4.740458,0.0325 -1.741834,-0.44338 c -0.958008,-0.24386 -2.575271,-0.45239 -3.593917,-0.4634 l -1.852083,-0.02 -2.910417,1.16489 c -1.600729,0.64069 -3.862916,1.49675 -5.027083,1.90236 -1.474232,0.51363 -2.6613,0.742 -3.911102,0.75242 -1.014444,0.008 -2.199019,-0.15408 -2.725211,-0.37394 -0.651858,-0.27236 -1.6602,-0.36428 -3.36494,-0.30673 l -2.434164,0.0822 -3.29511,1.50073 c -1.81231,0.8254 -4.019189,1.63414 -4.904176,1.79721 l -1.609068,0.29648 -1.578115,-0.45552 c -0.867963,-0.25054 -2.130013,-0.75415 -2.804554,-1.11915 l -1.22644,-0.66363 -0.570378,0.30526 c -0.313708,0.16789 -1.607278,0.6453 -2.874604,1.06092 l -2.30423,0.75566 -2.85863,-0.0809 c -1.57224,-0.0445 -3.17959,0.0196 -3.57187,0.14247 -0.39229,0.12287 -1.60622,0.41057 -2.69762,0.63932 -1.11626,0.23396 -3.08398,0.40029 -4.49792,0.38019 -1.69597,-0.0241 -2.81475,0.0915 -3.43958,0.3555 -0.50932,0.21517 -1.66464,0.46414 -2.56738,0.55328 -0.97083,0.0959 -1.70678,0.0562 -1.80155,-0.0972 z m 9.13143,-8.32903 c 0,-0.0728 -0.0595,-0.13229 -0.13229,-0.13229 -0.0728,0 -0.13229,0.0595 -0.13229,0.13229 0,0.0728 0.0595,0.13229 0.13229,0.13229 0.0728,0 0.13229,-0.0595 0.13229,-0.13229 z m 280.9875,5.15037 c -0.94906,-0.078 -2.2765,-0.40405 -2.96204,-0.72761 -0.68324,-0.32246 -1.35327,-0.5863 -1.48896,-0.5863 -0.13569,0 -0.39492,-0.1786 -0.57608,-0.39688 -0.18116,-0.21828 -0.55292,-0.39687 -0.82615,-0.39687 -0.27322,0 -0.49677,-0.11347 -0.49677,-0.25215 0,-0.13868 -0.43062,-0.37105 -0.95694,-0.51637 -0.52632,-0.14532 -1.32999,-0.20082 -1.78594,-0.12333 -0.45594,0.0775 -2.25567,0.50043 -3.99938,0.93987 -1.74372,0.43944 -3.80376,0.79142 -4.57787,0.78217 -0.7741,-0.009 -2.1076,-0.21326 -2.96333,-0.45336 -0.85572,-0.2401 -1.78345,-0.64858 -2.06161,-0.90773 -0.27816,-0.25915 -0.91127,-0.6922 -1.4069,-0.96233 l -0.90115,-0.49115 h -4.10104 -4.10104 l -1.32292,-0.66146 -1.32292,-0.66145 -0.0804,-0.69303 -0.0804,-0.69302 0.60955,-0.16326 c 0.33525,-0.0898 1.80017,-0.16555 3.25538,-0.16835 1.45521,-0.003 3.10774,-0.13334 3.6723,-0.2901 l 1.02647,-0.28501 1.75166,0.34274 c 1.26737,0.24798 1.95844,0.54663 2.49961,1.08024 0.41138,0.40562 0.84286,0.73749 0.95886,0.73749 0.116,0 0.76686,0.31073 1.44636,0.69051 l 1.23545,0.69051 1.40476,-0.17551 c 0.77261,-0.0965 1.98783,-0.35169 2.70047,-0.56701 0.71265,-0.21532 2.12916,-0.56603 3.14781,-0.77936 1.01865,-0.21333 2.39871,-0.38797 3.0668,-0.38809 0.6681,-1.1e-4 1.7748,0.16835 2.45933,0.37436 0.68453,0.20601 1.62619,0.66462 2.09257,1.01912 0.46638,0.3545 1.22466,0.83854 1.68507,1.07565 0.46041,0.2371 1.47852,0.50648 2.26247,0.59862 0.94118,0.11062 2.13977,0.0132 3.52852,-0.28684 1.15673,-0.2499 2.57941,-0.55149 3.16149,-0.6702 0.58208,-0.11871 1.56782,-0.29131 2.19053,-0.38356 0.77693,-0.11509 1.76198,0.005 3.13918,0.38288 1.10383,0.30284 2.73747,0.56413 3.6303,0.58066 1.07748,0.0199 2.42402,-0.21113 4.00457,-0.68724 1.30969,-0.39451 3.21625,-0.78366 4.23681,-0.86476 l 1.85555,-0.14747 2.49601,0.85701 c 1.37281,0.47136 3.15718,0.91129 3.96528,0.97762 0.8081,0.0663 2.18365,-0.002 3.05677,-0.15155 0.87313,-0.14969 2.18281,-0.39559 2.91042,-0.54645 0.7276,-0.15087 2.85608,-0.44893 4.72994,-0.66235 1.87386,-0.21343 3.95746,-0.32518 4.63021,-0.24834 0.67275,0.0768 1.49623,0.19511 1.82995,0.26283 0.33372,0.0677 0.70503,0.38746 0.82513,0.71053 0.1201,0.32306 0.16173,0.73622 0.0925,0.91812 -0.0692,0.1819 -0.52207,0.33073 -1.00635,0.33073 -0.48428,0 -1.17469,0.11185 -1.53426,0.24856 -0.35956,0.1367 -1.64723,0.37904 -2.86149,0.53853 -1.21426,0.15949 -3.39837,0.52272 -4.85358,0.80718 -1.45521,0.28446 -3.42459,0.62492 -4.37641,0.75658 -1.19992,0.16599 -2.41688,0.13568 -3.96875,-0.0988 -1.23099,-0.18602 -2.86766,-0.59024 -3.63703,-0.89825 -0.76937,-0.30802 -1.90305,-0.56003 -2.51929,-0.56003 -0.61623,0 -2.54659,0.37115 -4.28968,0.82477 -1.96905,0.51242 -3.77045,0.81663 -4.75676,0.8033 -0.87312,-0.0118 -2.49771,-0.24956 -3.61019,-0.52833 l -2.02269,-0.50685 -2.21064,0.34674 c -1.21586,0.19071 -3.10361,0.5038 -4.19502,0.69575 -1.09141,0.19195 -2.75828,0.28541 -3.70417,0.2077 z"
       id="path2" /></g></svg>
