<?xml version="1.0" encoding="UTF-8" standalone="no"?>
<!-- Created with Inkscape (http://www.inkscape.org/) -->

<svg
   width="310.81888mm"
   height="236.1118mm"
   viewBox="0 0 310.81887 236.1118"
   version="1.1"
   id="svg1"
   xml:space="preserve"
   xmlns="http://www.w3.org/2000/svg"
   xmlns:svg="http://www.w3.org/2000/svg"><defs
     id="defs1" /><g
     id="layer1"
     transform="translate(179.63536,-362.18315)"><path
       style="fill:#ddaabb;fill-opacity:1"
       d="m 112.83756,598.02964 c -0.34064,-0.1365 -0.84269,-0.51591 -1.11568,-0.84313 -0.27298,-0.32722 -0.5003,-0.72641 -0.50514,-0.88709 -0.005,-0.16068 -0.66071,-0.70588 -1.45748,-1.21154 -0.79677,-0.50567 -2.86351,-2.29061 -4.59275,-3.96652 -1.72924,-1.67592 -3.85863,-3.63104 -4.73198,-4.34471 -0.873352,-0.71367 -2.217039,-1.77384 -2.985972,-2.35592 -0.768933,-0.58209 -1.974829,-1.55958 -2.679769,-2.17221 -0.70494,-0.61263 -2.013696,-1.60007 -2.908347,-2.19431 -0.89465,-0.59425 -2.050906,-1.25772 -2.569456,-1.47438 -0.518551,-0.21666 -1.603667,-0.8912 -2.411369,-1.49896 -0.807703,-0.60777 -2.189002,-1.76477 -3.069553,-2.57113 -0.880552,-0.80635 -2.785552,-2.47813 -4.233334,-3.71505 -1.447781,-1.23693 -3.227642,-2.84598 -3.955247,-3.57567 -0.727604,-0.72969 -2.037291,-2.26591 -2.910416,-3.41382 -0.873125,-1.14791 -2.818292,-3.22979 -4.322593,-4.62641 -1.504301,-1.39662 -3.34977,-3.29679 -4.101042,-4.2226 -0.751271,-0.92581 -1.725602,-2.17596 -2.165179,-2.77812 -0.439576,-0.60216 -1.11568,-1.40835 -1.502453,-1.79152 -0.386772,-0.38317 -1.116397,-1.51426 -1.621389,-2.51354 -0.504992,-0.99928 -1.240159,-2.11452 -1.633703,-2.47832 -0.393545,-0.3638 -1.247417,-1.58067 -1.897494,-2.70414 -0.650077,-1.12348 -1.539894,-2.34387 -1.977373,-2.71198 -0.437478,-0.36812 -0.905343,-0.6693 -1.039699,-0.6693 -0.134355,0 -0.244283,-0.2899 -0.244283,-0.64423 0,-0.35433 0.126994,-0.97941 0.282208,-1.38907 0.155215,-0.40965 0.503855,-0.98295 0.774757,-1.27399 l 0.492549,-0.52917 0.149915,-4.23333 c 0.08245,-2.32833 0.239828,-6.31693 0.349722,-8.86354 0.109894,-2.54662 0.195962,-5.58271 0.191261,-6.74688 -0.0047,-1.16416 -0.205752,-4.14073 -0.446782,-6.61458 -0.24103,-2.47385 -0.524765,-6.46245 -0.630522,-8.86354 -0.105758,-2.4011 -0.214708,-4.72281 -0.242112,-5.15938 -0.0274,-0.43656 -0.136766,-2.2225 -0.243028,-3.96875 -0.106262,-1.74625 -0.30538,-3.61597 -0.442484,-4.15493 -0.137104,-0.53896 -0.29631,-6.31349 -0.35379,-12.83229 -0.0575,-6.52043 0.0077,-12.80457 0.145019,-13.96903 0.137241,-1.16416 0.246226,-5.17124 0.242188,-8.9046 -0.0048,-4.39845 0.127182,-7.84458 0.374803,-9.78959 0.210179,-1.6509 0.450541,-5.20429 0.534137,-7.89643 0.09827,-3.16455 0.374436,-6.29769 0.781275,-8.86354 l 0.629282,-3.96875 0.02086,-7.27604 c 0.01147,-4.00183 -0.07715,-7.97839 -0.196928,-8.8368 l -0.217786,-1.56076 0.688666,-0.76404 c 0.44517,-0.49389 1.196068,-0.89675 2.123718,-1.1394 l 1.435052,-0.37537 1.87224,0.53984 c 1.029732,0.29691 2.348489,0.65212 2.930573,0.78935 0.582083,0.13724 1.532296,0.43481 2.111584,0.66127 0.579287,0.22645 1.591319,0.80559 2.248958,1.28697 0.657639,0.48138 2.624457,1.59401 4.370707,2.47253 1.74625,0.87851 3.541384,1.87361 3.989186,2.21133 0.447802,0.33772 1.653953,1.56654 2.680335,2.7307 1.026383,1.16417 2.797012,2.89057 3.934731,3.83646 1.13772,0.94589 2.419565,2.07698 2.848545,2.51354 0.42898,0.43656 1.40431,1.57471 2.167401,2.52923 0.76309,0.95451 1.818868,2.38326 2.346172,3.175 0.527304,0.79173 1.344024,1.9362 1.814932,2.54325 0.470909,0.60705 1.549323,1.67861 2.396476,2.38125 0.847154,0.70264 2.066786,2.01217 2.710293,2.91007 0.654847,0.91372 2.131869,2.39765 3.354508,3.3702 1.20148,0.95571 2.77981,2.46807 3.50742,3.36079 0.7276,0.89272 2.57307,2.77909 4.10104,4.19194 1.52797,1.41285 3.19484,2.96304 3.70417,3.44488 0.50932,0.48185 2.47385,1.8941 4.36562,3.13834 1.89177,1.24425 4.20548,2.84585 5.14157,3.55911 0.93609,0.71326 1.98287,1.40363 2.32617,1.53415 0.34331,0.13053 1.33074,0.71713 2.19429,1.30355 0.86355,0.58643 1.71044,1.32847 1.88198,1.649 0.17154,0.32052 0.91237,1.21768 1.64629,1.9937 0.73392,0.77601 1.48747,1.85072 1.67455,2.38824 0.1888,0.54246 0.26864,1.38933 0.17944,1.90334 -0.0884,0.50933 -0.40306,1.192 -0.69927,1.51706 -0.29621,0.32506 -0.76355,1.45615 -1.03855,2.51354 -0.27499,1.05739 -0.68001,3.11315 -0.90004,4.56836 -0.22003,1.45521 -0.50828,3.77693 -0.64055,5.15938 -0.13228,1.38244 -0.23423,5.43057 -0.22655,8.99583 0.008,3.56526 0.02,6.60135 0.0273,6.74687 0.007,0.14552 -0.0681,3.7174 -0.16779,7.9375 -0.0997,4.22011 -0.36088,9.33979 -0.58049,11.37709 -0.2196,2.03729 -0.8579,6.02588 -1.41844,8.86354 -0.56053,2.83765 -1.15181,6.52859 -1.31395,8.20208 -0.16213,1.67349 -0.47023,5.00724 -0.68464,7.40833 -0.21442,2.4011 -0.50893,5.05024 -0.65446,5.88698 -0.14554,0.83675 -0.40106,2.20597 -0.56782,3.04271 -0.16704,0.83811 -0.32972,4.49201 -0.36224,8.13594 -0.0396,4.43846 -0.19574,7.48503 -0.47459,9.26042 -0.22857,1.4552 -0.55125,4.55083 -0.71709,6.87916 -0.16584,2.32834 -0.53623,5.18583 -0.82311,6.35 -0.33107,1.34351 -0.61099,3.80796 -0.76635,6.74688 -0.13462,2.54661 -0.35309,5.20518 -0.48551,5.90792 -0.13241,0.70274 -0.18273,1.49955 -0.11183,1.77069 0.0709,0.27114 -0.009,1.54164 -0.17853,2.82333 l -0.30746,2.33035 -0.97157,1.00021 c -0.62051,0.63879 -1.44472,1.14072 -2.28099,1.38906 -0.72017,0.21387 -1.31756,0.38131 -1.32753,0.37208 -0.01,-0.009 -0.29682,-0.12845 -0.63746,-0.26494 z m 0.42017,-6.92818 c 0.14437,-0.1819 0.39351,-0.74745 0.55364,-1.25677 0.16013,-0.50933 0.34671,-1.64042 0.41463,-2.51355 0.0679,-0.87312 0.24348,-3.10784 0.39014,-4.96603 0.14667,-1.8582 0.52556,-4.29898 0.84199,-5.42396 l 0.57533,-2.04542 0.21047,-5.15938 c 0.12884,-3.15823 0.38539,-5.92904 0.66143,-7.14375 l 0.45095,-1.98437 -0.0181,-4.88105 c -0.0111,-2.9956 0.13658,-6.01058 0.38228,-7.80521 0.22019,-1.60828 0.62938,-4.7101 0.90932,-6.89291 0.27995,-2.18281 0.51116,-4.62359 0.51382,-5.42396 0.003,-0.80036 0.1151,-2.12834 0.24987,-2.95106 0.13476,-0.82273 0.27129,-2.39538 0.30339,-3.49479 0.0321,-1.09941 0.28247,-3.16349 0.55638,-4.58684 0.27391,-1.42335 0.67093,-3.25522 0.88227,-4.07082 0.21135,-0.8156 0.55508,-2.37566 0.76385,-3.4668 0.20877,-1.09114 0.50707,-4.29459 0.6629,-7.11877 0.15583,-2.82418 0.39635,-7.69472 0.5345,-10.82342 0.13816,-3.12869 0.19408,-8.54604 0.12428,-12.03854 -0.0929,-4.64823 -0.0189,-7.3427 0.27626,-10.05416 0.22174,-2.03729 0.60496,-5.31151 0.85159,-7.27604 0.24663,-1.96454 0.44268,-4.22672 0.43566,-5.02709 -0.007,-0.80036 -0.18707,-2.22918 -0.4001,-3.17516 -0.21303,-0.94597 -0.52933,-1.98527 -0.70288,-2.30955 -0.17354,-0.32427 -1.03108,-1.07551 -1.90563,-1.6694 -0.87454,-0.59389 -1.97302,-1.41524 -2.44106,-1.82521 -0.46803,-0.40997 -1.92253,-1.47967 -3.23222,-2.37712 -1.30969,-0.89745 -3.6314,-2.46107 -5.15937,-3.47472 l -2.77813,-1.84299 -4.56406,-4.5291 c -2.51023,-2.49101 -4.564062,-4.61187 -4.564062,-4.71304 0,-0.10117 -0.982266,-1.02379 -2.182813,-2.05026 -1.200547,-1.02648 -3.075781,-2.90801 -4.167187,-4.18117 -1.091406,-1.27316 -2.651396,-3.04396 -3.466643,-3.93512 -0.815247,-0.89115 -2.524379,-3.03021 -3.79807,-4.75346 -1.273691,-1.72325 -2.809327,-3.63018 -3.412524,-4.23763 -0.603196,-0.60746 -2.049221,-2.00714 -3.213388,-3.11042 -1.164166,-1.10328 -2.890572,-2.83289 -3.836458,-3.84358 l -1.719791,-1.83763 -2.910417,-1.54597 c -1.600729,-0.85028 -3.317667,-1.84895 -3.815418,-2.21925 -0.497751,-0.37031 -1.569313,-0.94658 -2.38125,-1.2806 -0.811937,-0.33402 -1.899976,-0.61013 -2.417866,-0.61359 -0.51789,-0.003 -1.144161,0.14255 -1.391713,0.32445 l -0.450095,0.33073 -0.276116,4.23334 c -0.151864,2.32833 -0.201916,5.54302 -0.111227,7.14375 l 0.16489,2.91041 -0.653522,3.57188 c -0.359438,1.96453 -0.722981,4.28625 -0.807874,5.15937 -0.08489,0.87313 -0.169739,2.83766 -0.188545,4.36563 -0.01881,1.52797 -0.214252,4.20687 -0.434324,5.95312 -0.261197,2.07258 -0.427095,6.11478 -0.477792,11.64167 -0.04272,4.65666 -0.160239,9.06198 -0.261165,9.78958 -0.100927,0.7276 -0.163908,3.5851 -0.139959,6.35 0.02395,2.7649 0.08328,8.24177 0.131853,12.17083 0.04857,3.92907 0.217883,8.15578 0.376251,9.39271 0.158368,1.23693 0.409566,3.91584 0.558217,5.95313 0.148652,2.03729 0.333346,5.37104 0.410431,7.40833 0.07708,2.03729 0.323111,5.6687 0.546723,8.06979 l 0.406569,4.36563 -0.290594,10.58333 c -0.159826,5.82083 -0.34772,10.84978 -0.417543,11.17545 -0.06982,0.32566 -0.01317,0.80191 0.125891,1.05833 0.139062,0.25642 0.315697,0.7692 0.392523,1.13951 0.07683,0.37031 0.617151,1.38234 1.200724,2.24896 0.583572,0.86662 1.588507,2.33161 2.233188,3.25555 0.64468,0.92394 1.505458,2.02779 1.91284,2.45301 0.407381,0.42521 1.102953,1.41638 1.545715,2.20259 0.442762,0.78622 1.250318,2.09384 1.794569,2.90582 0.544251,0.81199 2.173961,2.66907 3.621579,4.12684 1.447617,1.45778 3.919352,4.10646 5.492744,5.88597 1.573392,1.77951 3.456025,3.83581 4.183629,4.56956 0.727604,0.73375 1.96768,1.86485 2.755724,2.51354 0.788045,0.6487 2.276326,1.89992 3.307292,2.78049 1.030966,0.88057 2.410265,1.96309 3.065109,2.4056 0.654843,0.44251 1.666875,1.11983 2.248958,1.50516 0.582083,0.38532 2.070364,1.41387 3.307291,2.28564 1.236927,0.87178 2.675062,1.87364 3.195854,2.22635 0.520793,0.35271 1.532822,1.14471 2.248962,1.75999 0.71613,0.61529 2.1355,1.86675 3.15414,2.78102 1.01865,0.91428 3.25312,2.92255 4.9655,4.46282 1.71238,1.54028 3.27538,2.80051 3.47334,2.80051 0.19795,0 0.47803,-0.14883 0.62241,-0.33073 z M 98.329138,568.86555 c -0.607664,-0.32142 -1.761231,-1.02475 -2.563481,-1.56294 l -1.458636,-0.97853 -0.261643,-0.94759 c -0.143903,-0.52118 -0.694244,-1.54974 -1.22298,-2.28571 -0.528736,-0.73596 -1.430499,-2.6478 -2.003917,-4.24852 l -1.042578,-2.91042 -0.07984,-4.93785 c -0.04894,-3.0272 0.02726,-5.19379 0.196934,-5.5993 0.152223,-0.3638 0.494607,-0.89959 0.760853,-1.19063 0.266247,-0.29104 0.95171,-1.22734 1.523252,-2.08067 0.571542,-0.85333 1.039167,-1.69425 1.039167,-1.86873 0,-0.17447 0.327422,-0.6295 0.727605,-1.01117 0.400182,-0.38167 1.275403,-0.92789 1.944935,-1.21382 l 1.21733,-0.51987 1.883762,0.20679 c 1.036059,0.11373 2.333729,0.43984 2.883709,0.72468 0.54997,0.28484 1.59526,0.85356 2.32286,1.26381 0.72761,0.41025 1.59215,0.98728 1.9212,1.2823 0.32906,0.29501 0.71924,1.02039 0.86707,1.61195 0.14784,0.59156 0.59298,2.02807 0.98922,3.19223 l 0.72043,2.11667 v 4.89479 4.89479 l -0.6371,2.38125 c -0.3504,1.30969 -1.03792,3.23099 -1.5278,4.26956 -0.48989,1.03857 -1.36766,2.43015 -1.9506,3.09241 l -1.0599,1.2041 -1.42177,0.41332 c -0.78198,0.22733 -1.70111,0.40841 -2.04251,0.40241 -0.341401,-0.006 -1.117912,-0.27388 -1.725577,-0.59531 z m 3.682042,-4.63944 c 0.65692,-0.7023 1.26429,-1.50597 1.34971,-1.78594 0.0854,-0.27996 0.40371,-1.63617 0.7073,-3.01378 0.30358,-1.37762 0.6035,-3.43696 0.66649,-4.57632 0.063,-1.13936 -0.008,-2.98879 -0.15686,-4.10983 -0.14927,-1.12104 -0.52372,-2.93123 -0.83212,-4.02264 -0.3084,-1.0914 -0.80939,-2.2642 -1.11331,-2.6062 -0.30392,-0.34201 -1.21925,-0.95975 -2.03408,-1.37276 l -1.481515,-0.75093 -1.488442,0.46053 c -0.818643,0.2533 -1.805152,0.75198 -2.192243,1.10818 -0.38709,0.3562 -0.969785,1.24295 -1.294878,1.97056 l -0.591077,1.32292 -0.01634,3.55584 c -0.01099,2.39211 0.11771,4.08063 0.393248,5.15937 0.225271,0.88195 0.76607,2.31791 1.201776,3.19104 0.435706,0.87312 1.208334,2.30187 1.716952,3.175 0.508618,0.87312 1.418093,2.03366 2.021057,2.57897 0.602963,0.54531 1.288372,0.99179 1.523112,0.99218 0.23475,4e-4 0.9643,-0.57389 1.62122,-1.27619 z m 0.94137,-72.57019 c -0.47608,-0.18101 -1.03812,-0.84997 -1.68303,-2.00317 -0.53254,-0.95227 -1.416399,-2.17955 -1.964134,-2.72728 -0.547736,-0.54774 -1.106428,-1.04053 -1.24154,-1.0951 -0.135112,-0.0546 -0.503669,-0.93266 -0.819016,-1.95131 -0.315347,-1.01864 -0.814996,-2.89849 -1.110332,-4.17743 -0.29546,-1.27948 -0.535438,-3.243 -0.53356,-4.36562 0.0021,-1.2706 0.196843,-2.65723 0.516157,-3.6757 0.282009,-0.89948 0.865752,-2.32823 1.297206,-3.175 0.431454,-0.84677 1.37586,-2.19442 2.098679,-2.99479 0.72282,-0.80036 1.97255,-1.85035 2.77718,-2.33331 1.00249,-0.60172 2.03858,-0.96354 3.29176,-1.14954 l 1.82881,-0.27143 1.88323,0.56085 c 1.20184,0.35792 2.35717,0.93548 3.19314,1.59627 l 1.30991,1.03543 0.95645,2.01503 c 0.52605,1.10827 1.21567,2.7527 1.53248,3.6543 l 0.57603,1.63928 0.10963,3.20559 c 0.0603,1.76308 -0.014,4.02526 -0.16519,5.02708 l -0.27483,1.82149 -1.65277,3.23932 -1.65277,3.23932 -0.98188,0.68044 c -0.54003,0.37424 -1.97636,1.04519 -3.19186,1.49099 -1.27162,0.4664 -2.88404,0.84782 -3.79748,0.89831 -0.87313,0.0483 -1.90915,-0.0345 -2.30227,-0.18402 z m 5.14855,-4.09177 c 0.67141,-0.22877 1.52735,-0.72255 1.90208,-1.09727 0.37472,-0.37473 1.02296,-1.28888 1.44052,-2.03145 0.41755,-0.74256 0.89558,-1.94543 1.06227,-2.67303 0.16669,-0.72761 0.33906,-2.33495 0.38303,-3.57188 0.044,-1.23692 -0.006,-2.98459 -0.1111,-3.8837 -0.12083,-1.03385 -0.60335,-2.54131 -1.3127,-4.10104 -0.6169,-1.35647 -1.48945,-2.85651 -1.939,-3.33345 -0.49248,-0.52246 -1.33636,-1.02127 -2.12306,-1.25489 l -1.3057,-0.38775 -0.97811,0.29305 c -0.56993,0.17076 -1.66557,0.94926 -2.62546,1.86552 -1.08874,1.03926 -1.86816,2.07179 -2.29854,3.04495 -0.358164,0.80987 -0.779919,2.38265 -0.937238,3.49509 l -0.286034,2.02261 0.593031,2.36717 c 0.326167,1.30195 0.781341,2.76207 1.011501,3.24472 0.23016,0.48265 0.67798,0.94268 0.99515,1.02228 0.31717,0.0796 0.92864,0.52238 1.35882,0.98394 0.43018,0.46157 1.03983,1.2925 1.35477,1.84652 0.31493,0.55402 0.57261,1.1753 0.57261,1.38061 0,0.20532 0.32742,0.55093 0.7276,0.76804 0.40019,0.2171 0.85523,0.3995 1.01121,0.40532 0.15597,0.006 0.83293,-0.17658 1.50435,-0.40536 z M 73.637109,458.3894 c -0.846312,-0.10173 -1.974906,-0.48042 -2.697238,-0.90504 -0.683117,-0.40156 -1.892831,-1.38092 -2.688255,-2.17634 l -1.446225,-1.44623 -0.541177,-1.66011 c -0.297647,-0.91306 -0.725042,-3.10911 -0.949766,-4.88011 -0.224724,-1.771 -0.405883,-3.676 -0.402576,-4.23333 0.0033,-0.55734 0.340918,-2.404 0.750247,-4.1037 0.501217,-2.08126 1.039222,-3.58275 1.647633,-4.59827 0.496869,-0.82935 1.379648,-2.00161 1.961732,-2.60502 l 1.058333,-1.09711 2.262276,-0.85306 c 1.244252,-0.46918 2.673002,-0.85216 3.175,-0.85106 0.501998,10e-4 1.68663,0.12598 2.632515,0.27751 1.183717,0.18963 1.997478,0.49849 2.61064,0.99087 0.565542,0.45414 1.406694,1.72959 2.303491,3.49281 0.776953,1.52759 1.489056,3.31322 1.582449,3.96806 0.09339,0.65485 0.404265,2.13472 0.690825,3.28862 0.28656,1.15389 0.716324,2.46358 0.955031,2.91042 l 0.434013,0.81242 0.008,2.77813 0.008,2.77812 -0.899793,2.57181 c -0.494886,1.4145 -1.234861,2.97831 -1.644389,3.47514 l -0.744597,0.90333 -2.056474,0.54751 c -1.131061,0.30113 -3.068506,0.60197 -4.305433,0.66853 -1.236927,0.0666 -2.903802,0.0423 -3.704166,-0.0539 z m 6.718513,-2.82503 c 0.464949,-0.22063 1.065129,-0.77318 1.333734,-1.2279 0.268605,-0.45471 0.706801,-1.79224 0.973769,-2.97228 0.266969,-1.18005 0.488454,-2.70334 0.49219,-3.38509 0.0037,-0.68175 -0.127502,-1.57472 -0.291642,-1.98437 -0.164139,-0.40966 -0.397898,-1.16155 -0.519466,-1.67087 -0.121567,-0.50933 -0.404264,-1.80464 -0.628216,-2.87847 -0.223951,-1.07383 -0.831994,-2.9193 -1.351205,-4.10104 -0.519212,-1.18174 -1.081016,-2.42805 -1.248454,-2.76958 -0.167438,-0.34153 -0.6445,-0.90712 -1.060137,-1.25685 -0.415637,-0.34974 -1.05497,-0.711 -1.42074,-0.8028 -0.365769,-0.0918 -1.160265,-0.0191 -1.765545,0.16154 -0.60528,0.18065 -1.612706,0.62792 -2.238724,0.99393 l -1.138214,0.66548 -1.008122,2.01733 c -0.616162,1.23299 -1.184243,2.91492 -1.461105,4.32594 -0.24914,1.26973 -0.39546,2.40168 -0.325154,2.51543 0.07031,0.11376 0.264005,1.81109 0.430442,3.77185 l 0.302613,3.56501 0.891603,0.73493 c 0.490381,0.40422 0.967108,1.07871 1.059394,1.49889 0.09229,0.42017 0.369403,0.94075 0.615817,1.15683 0.246413,0.21608 1.281461,0.76062 2.300107,1.21009 l 1.852083,0.81722 1.679805,0.008 c 0.969214,0.005 2.037411,-0.16173 2.525167,-0.39319 z M 10.621038,574.69262 c -1.2618085,-1.3435 -2.5432743,-2.76112 -2.8477018,-3.15028 -0.3044274,-0.38915 -1.3556322,-1.3365 -2.3360106,-2.10522 -0.9803784,-0.76872 -3.8065686,-3.31317 -6.28042267,-5.65434 -2.47385403,-2.34116 -4.81851453,-4.50121 -5.21035643,-4.80009 -0.391842,-0.29889 -1.5136448,-1.24604 -2.4928951,-2.10478 -0.9792502,-0.85874 -3.6947454,-3.39181 -6.0344344,-5.62905 -2.339689,-2.23723 -5.146949,-4.73292 -6.238355,-5.54598 -1.091406,-0.81306 -2.997064,-2.43541 -4.234795,-3.60522 -1.237731,-1.16981 -3.321325,-3.01498 -4.630208,-4.10037 -1.308884,-1.08538 -3.039358,-2.57367 -3.845498,-3.30729 -0.806141,-0.73362 -2.231401,-1.9887 -3.167246,-2.78906 -0.935845,-0.80037 -2.062213,-1.81587 -2.50304,-2.25667 -0.440827,-0.4408 -1.485711,-1.63143 -2.321963,-2.64583 -0.836253,-1.01441 -2.443597,-2.86273 -3.571875,-4.10739 -1.128279,-1.24466 -2.557172,-2.61388 -3.175319,-3.04271 -0.618147,-0.42883 -1.124162,-0.86485 -1.124479,-0.96892 -3.17e-4,-0.10408 -0.36412,-0.60329 -0.808451,-1.10935 -0.59179,-0.67402 -1.062671,-0.94186 -1.760481,-1.0014 l -0.952607,-0.0813 -0.470212,-1.44732 c -0.258616,-0.79602 -0.415371,-1.74852 -0.348344,-2.11667 0.06703,-0.36814 0.234394,-2.51482 0.371927,-4.77039 0.137532,-2.25557 0.356821,-4.63682 0.487307,-5.29167 0.130487,-0.65484 0.446591,-2.44078 0.702453,-3.96875 0.311366,-1.85942 0.471994,-4.30928 0.485736,-7.40833 0.01129,-2.54661 -0.185375,-7.48771 -0.437038,-10.98021 -0.251663,-3.4925 -0.628223,-7.83828 -0.836799,-9.65729 -0.208577,-1.81901 -0.384537,-4.47626 -0.391024,-5.905 -0.0065,-1.42874 0.16802,-3.92905 0.387792,-5.55625 0.219772,-1.6272 0.526273,-3.7512 0.681113,-4.72 0.154841,-0.96881 0.279126,-3.90039 0.27619,-6.51463 -0.0029,-2.61424 0.170391,-6.70314 0.385171,-9.08645 0.21478,-2.38331 0.506552,-5.82157 0.648383,-7.64058 0.141831,-1.81901 0.374562,-4.0812 0.517179,-5.02709 0.142617,-0.94588 0.373474,-2.91041 0.513014,-4.36562 0.139541,-1.45521 0.327948,-4.19365 0.418682,-6.08542 0.09073,-1.89177 0.332579,-4.74927 0.537434,-6.35 0.204855,-1.60073 0.620868,-4.2201 0.924473,-5.82083 0.303606,-1.60073 0.655834,-3.56526 0.78273,-4.36563 0.126896,-0.80036 0.361603,-2.11005 0.521571,-2.91041 0.159968,-0.80037 0.408483,-3.06255 0.552255,-5.02709 0.143772,-1.96453 0.366026,-4.32432 0.493897,-5.24398 0.148076,-1.06497 0.509882,-2.12173 0.996447,-2.91042 0.428017,-0.69378 1.323624,-1.60565 2.036699,-2.07369 0.700011,-0.45946 1.668006,-1.42231 2.1511,-2.13966 l 0.878354,-1.30428 1.510045,-0.47497 1.510044,-0.47497 1.828872,0.16998 c 1.268923,0.11793 2.144621,0.3693 2.860152,0.82099 0.567203,0.35806 1.128431,0.81845 1.247173,1.02309 0.118742,0.20463 1.049332,0.94604 2.067978,1.64756 1.018646,0.70152 2.430689,1.78788 3.137875,2.41412 0.707185,0.62625 1.614397,1.59226 2.016027,2.14669 0.40163,0.55444 2.472165,2.77381 4.601188,4.93195 2.129023,2.15813 3.870951,4.02113 3.870951,4.13998 0,0.11886 1.437827,1.3819 3.19517,2.80675 1.757344,1.42486 3.9982385,3.12644 4.9797656,3.78128 0.9815272,0.65484 2.8488554,2.08359 4.1496182,3.175 1.3007628,1.09141 2.95498811,2.4598 3.6760562,3.04087 0.7210682,0.58107 5.1289822,4.86732 9.795365,9.525 4.745861,4.73701 8.792984,8.9998 9.184809,9.67426 0.385263,0.66317 1.078952,2.38957 1.541531,3.83646 0.46258,1.44689 1.035618,3.101 1.273419,3.67582 0.2378,0.57481 0.395546,1.26244 0.350546,1.52806 -0.045,0.26562 0.461959,1.48053 1.126575,2.69978 0.664617,1.21925 1.208394,2.56833 1.208394,2.99795 0,0.47826 -0.343617,1.23186 -0.886248,1.94365 l -0.886249,1.16252 0.09253,4.63021 c 0.05089,2.54662 0.224915,5.82084 0.38672,7.27604 0.161806,1.45521 0.328751,5.56287 0.370989,9.12813 0.04596,3.87917 0.21582,7.22604 0.422991,8.33437 0.247583,1.32453 0.331271,4.26378 0.293803,10.31875 -0.02882,4.65667 -0.171226,9.06198 -0.316466,9.78959 -0.14524,0.7276 -0.31727,3.28744 -0.382288,5.68854 -0.06502,2.40109 -0.2992,5.74401 -0.520403,7.4287 -0.221203,1.68468 -0.525413,6.20906 -0.676023,10.05416 -0.150609,3.8451 -0.333974,8.12886 -0.407476,9.51945 -0.0735,1.3906 -0.495457,4.30763 -0.937677,6.48229 -0.44222,2.17467 -0.920228,5.50175 -1.062239,7.39352 -0.142011,1.89177 -0.401638,4.33255 -0.57695,5.42396 -0.175311,1.09141 -0.32767,4.1275 -0.338575,6.74688 -0.01145,2.7495 -0.145833,5.15391 -0.317941,5.68854 -0.163963,0.50932 -0.385821,2.59291 -0.493018,4.63021 -0.107197,2.03729 -0.191188,4.5376 -0.186648,5.55625 0.0045,1.01864 0.02934,2.0902 0.05512,2.38125 0.02577,0.29104 -0.04937,1.12447 -0.166981,1.85208 -0.117612,0.7276 -0.511496,1.82625 -0.875298,2.44145 -0.363802,0.61519 -0.959115,1.22366 -1.322917,1.35215 -0.363802,0.12849 -1.08663,0.36929 -1.606285,0.53511 -0.519654,0.16582 -1.234029,0.2994 -1.5875,0.29683 -0.465431,-0.003 -1.275386,-0.67834 -2.936871,-2.4474 z m 3.437176,-5.55158 c -0.01265,-0.61846 0.159252,-1.71979 0.382012,-2.44739 0.22276,-0.72761 0.440209,-1.44198 0.48322,-1.5875 0.04301,-0.14553 -0.01234,-1.16485 -0.123004,-2.26518 l -0.201205,-2.00058 0.557492,-1.439 0.557491,-1.43899 -0.175774,-3.98282 -0.175775,-3.98281 0.443085,-1.9481 c 0.243697,-1.07145 0.547062,-3.86309 0.674144,-6.20364 0.127839,-2.35448 0.417294,-4.90563 0.647945,-5.71076 0.229288,-0.80036 0.657721,-2.42941 0.952075,-3.6201 l 0.535188,-2.16489 0.129111,-5.77261 c 0.07101,-3.17493 0.239798,-8.21339 0.375082,-11.19657 0.135284,-2.98317 0.376417,-6.0788 0.535851,-6.87916 0.159434,-0.80037 0.291085,-3.35648 0.292557,-5.68026 0.0015,-2.32377 0.133924,-4.76456 0.294336,-5.42396 0.160412,-0.6594 0.355364,-3.81828 0.433227,-7.01974 0.07786,-3.20146 0.125006,-7.12681 0.104763,-8.72301 -0.02024,-1.5962 -0.17086,-3.73933 -0.334704,-4.7625 -0.163845,-1.02318 -0.269753,-3.40814 -0.235352,-5.29991 0.0344,-1.89177 0.04135,-4.68974 0.01545,-6.2177 -0.0259,-1.52797 -0.15939,-3.73063 -0.296638,-4.8948 -0.137247,-1.16416 -0.373811,-4.67651 -0.525697,-7.8052 -0.151886,-3.1287 -0.333831,-6.12307 -0.404321,-6.65415 -0.07049,-0.53108 -0.446467,-1.57911 -0.835502,-2.32896 l -0.707338,-1.36337 -0.198871,-2.43353 c -0.109379,-1.33844 -0.327365,-3.07486 -0.484412,-3.85871 -0.157047,-0.78385 -0.290921,-2.034 -0.297496,-2.77813 -0.0077,-0.86712 -0.221432,-1.74737 -0.595313,-2.45136 -0.320846,-0.60413 -1.416794,-2.01603 -2.43544,-3.13756 -1.018645,-1.12153 -3.816614,-4.07432 -6.2177077,-6.56177 -2.4010937,-2.48745 -5.3006937,-5.45411 -6.44355573,-6.59257 -1.142862,-1.13847 -3.49481807,-3.22779 -5.22656917,-4.64294 -1.731751,-1.41515 -3.7137132,-3.02384 -4.4043605,-3.57486 -0.6906473,-0.55103 -1.9438989,-1.47712 -2.7850029,-2.05798 -0.841105,-0.58086 -2.382114,-1.73736 -3.424464,-2.57 -1.042351,-0.83265 -2.794955,-2.4527 -3.894677,-3.60011 -1.099722,-1.14741 -3.725901,-3.84556 -5.835953,-5.99588 -2.110052,-2.15033 -4.550833,-4.66673 -5.423958,-5.59201 -0.948259,-1.0049 -2.242913,-2.02712 -3.215163,-2.53859 -0.905273,-0.47624 -1.814251,-0.78467 -2.048078,-0.69494 -0.231228,0.0887 -0.824035,0.71455 -1.317348,1.39073 -0.493313,0.67617 -1.162125,1.85031 -1.486249,2.6092 -0.40078,0.93837 -0.871513,1.5463 -1.471396,1.90024 -0.641096,0.37825 -0.919524,0.76028 -1.019137,1.39832 -0.07538,0.48284 -0.504877,3.79492 -0.954436,7.36018 -0.449559,3.56526 -0.987455,7.31573 -1.195324,8.33437 -0.207869,1.01865 -0.580258,2.86412 -0.827531,4.10104 -0.29376,1.46947 -0.460619,3.67039 -0.481414,6.35 -0.01783,2.2978 -0.181848,4.74091 -0.373014,5.55625 -0.187654,0.80037 -0.455803,1.90537 -0.595886,2.45556 -0.140084,0.55019 -0.3666,3.34816 -0.503369,6.21771 -0.163774,3.43615 -0.402888,5.75933 -0.700391,6.80486 l -0.451721,1.5875 -0.04039,7.27604 c -0.02222,4.00182 -0.17481,8.42039 -0.339099,9.81904 -0.164289,1.39864 -0.357421,2.70833 -0.429183,2.91041 -0.07176,0.20208 -0.266293,2.0343 -0.432293,4.07159 -0.165999,2.03729 -0.28229,4.83526 -0.258424,6.21771 0.02387,1.38245 0.218649,3.47257 0.432851,4.64471 0.214202,1.17214 0.520579,4.62496 0.680838,7.67292 0.160258,3.04796 0.345855,6.85143 0.412436,8.45216 0.06658,1.60073 -0.01604,4.63682 -0.183613,6.74688 -0.167569,2.11005 -0.485653,4.78895 -0.706853,5.95312 -0.2212,1.16417 -0.506239,2.83104 -0.63342,3.70417 -0.12718,0.87312 -0.295909,2.48047 -0.374952,3.57187 -0.07904,1.09141 -0.21149,2.42191 -0.294325,2.95667 l -0.150611,0.97229 0.482916,0.42132 c 0.265604,0.23172 0.899635,0.75586 1.408958,1.16475 0.509323,0.40889 1.619471,1.19818 2.466995,1.75398 1.112118,0.72932 1.763423,1.40474 2.340361,2.42702 0.439674,0.77906 0.891282,1.41647 1.003574,1.41647 0.112292,0 0.502064,0.44649 0.86616,0.99219 0.364097,0.5457 2.003048,2.48047 3.642114,4.29948 1.639066,1.81901 3.589413,3.91435 4.334104,4.65632 0.74469,0.74196 2.842264,2.58007 4.661274,4.08468 1.819011,1.5046 4.520086,3.81457 6.002389,5.13326 1.482303,1.31869 3.268241,2.88632 3.96875,3.48362 0.700509,0.5973 2.10709,1.70885 3.125736,2.47011 1.018646,0.76125 2.927475,2.4752 4.241843,3.80878 1.3143679,1.33358 4.1091529,3.91297 6.2106334,5.73198 2.1014804,1.81901 5.014682,4.45023 6.4737814,5.84716 1.4590993,1.39692 3.1886892,3.00962 3.8435329,3.58376 0.6548437,0.57414 1.6073437,1.37911 2.1166666,1.78881 0.5093229,0.40971 1.4618228,1.25902 2.1166667,1.88735 0.654844,0.62834 1.5943,1.5677 2.08768,2.08747 0.49338,0.51977 1.112914,0.94503 1.376742,0.94503 H 14.08122 Z M -0.17171011,540.74326 c -0.50386214,-0.21856 -1.71535629,-1.13664 -2.69220919,-2.04017 -0.9768529,-0.90353 -2.188495,-1.97038 -2.6925379,-2.37079 -0.5732785,-0.4554 -0.979153,-1.04984 -1.0839166,-1.5875 -0.092111,-0.47272 -0.5044499,-1.51433 -0.9163082,-2.3147 -0.4118583,-0.80036 -1.3581439,-2.64583 -2.102857,-4.10104 -0.744713,-1.45521 -1.471194,-3.24114 -1.614401,-3.96875 -0.143208,-0.7276 -0.379528,-2.28754 -0.525155,-3.46654 -0.170573,-1.38095 -0.176509,-2.9968 -0.01668,-4.54161 0.136451,-1.3189 0.442563,-2.97364 0.680248,-3.67721 0.237686,-0.70357 0.672422,-1.75547 0.96608,-2.33755 0.2936589,-0.58209 1.0079079,-1.62704 1.5872203,-2.32213 0.5793125,-0.69509 1.2754304,-1.38268 1.5469287,-1.52798 0.2714983,-0.1453 1.3380347,-0.37021 2.3700809,-0.4998 l 1.8764475,-0.23562 1.7820695,0.60613 c 0.98013824,0.33336 2.1322904,0.78945 2.5603382,1.01352 0.4280478,0.22407 1.678739,1.24037 2.7793137,2.25845 l 2.0010451,1.85105 1.1352682,2.33861 c 0.6243976,1.28623 1.3703273,2.93391 1.6576217,3.66152 0.2872944,0.7276 1.1232742,2.57307 1.8577342,4.10104 l 1.33538,2.77812 0.0069,1.45521 c 0.0038,0.80037 -0.146785,2.3048 -0.334659,3.34318 -0.251485,1.38997 -0.642292,2.36704 -1.481589,3.70416 -0.6270005,0.99891 -1.6191652,2.70917 -2.20481,3.80058 -0.5856448,1.0914 -1.2852981,2.23968 -1.5547851,2.55173 -0.269487,0.31205 -1.1021983,0.87759 -1.8504695,1.25677 -0.9703609,0.49172 -1.7613401,0.68644 -2.7583513,0.67906 -0.768822,-0.006 -1.81010907,-0.18918 -2.31397121,-0.40774 z M 5.417461,533.73267 c 1.3165202,-1.96278 2.1281496,-3.46752 2.3151041,-4.29215 0.1583335,-0.69839 0.2878792,-1.67051 0.2878792,-2.16027 0,-0.48975 -0.5480888,-2.2996 -1.217975,-4.02187 -0.6698863,-1.72227 -1.7551052,-4.26249 -2.4115977,-5.64494 -0.6564925,-1.38245 -1.6167104,-3.04932 -2.1338177,-3.70417 -0.5171072,-0.65484 -1.42618507,-1.63785 -2.02017297,-2.18447 -0.5939879,-0.54662 -1.58097053,-1.18595 -2.19329473,-1.42075 l -1.1133167,-0.42689 -1.1356416,0.66953 c -0.6246028,0.36825 -1.4430975,1.00758 -1.818877,1.42075 -0.3757795,0.41316 -0.8362099,1.28699 -1.0231785,1.94183 -0.1869686,0.65485 -0.3382358,2.20266 -0.3361493,3.43958 0.00209,1.23693 0.191661,3.22875 0.4212767,4.42627 0.2296156,1.19751 0.7711643,2.87794 1.2034416,3.73428 0.4322772,0.85633 1.1652253,2.19826 1.6287734,2.98207 0.4635481,0.7838 1.2517763,2.199 1.7516183,3.14488 0.4998419,0.94589 1.51737291,2.34023 2.26117996,3.09853 0.74380705,0.7583 1.71822194,1.5591 2.16536644,1.77956 0.4471445,0.22045 0.9320525,0.36477 1.0775733,0.32071 0.1455208,-0.0441 1.1768345,-1.44019 2.2918082,-3.10248 z m -35.790459,-17.92826 c -0.784491,-0.41288 -2.420075,-1.3009 -3.63463,-1.97337 -1.214555,-0.67248 -2.702837,-1.62844 -3.307292,-2.12438 l -1.099009,-0.90169 -0.905367,-2.48275 c -0.497952,-1.36551 -1.314217,-3.53943 -1.813922,-4.83093 l -0.908555,-2.3482 0.190388,-2.01743 c 0.104714,-1.10959 0.22406,-2.75866 0.265214,-3.66461 l 0.07483,-1.64718 0.867839,-1.13094 c 0.477312,-0.62202 1.149915,-1.44081 1.494673,-1.81953 l 0.626832,-0.68857 -0.324691,-0.71262 -0.324692,-0.71262 0.643311,-0.63588 c 0.430145,-0.42518 1.300846,-0.7802 2.627686,-1.07143 1.091406,-0.23955 2.639218,-0.55024 3.439583,-0.69043 0.800364,-0.14019 1.823715,-0.18644 2.274112,-0.10277 0.450397,0.0837 1.805789,0.89433 3.011983,1.80147 1.206194,0.90714 2.773989,2.04077 3.483988,2.51918 0.71,0.47841 1.982528,1.54997 2.82784,2.38125 0.862029,0.84772 1.858027,2.1719 2.268151,3.01551 0.430628,0.88579 0.8304,2.29397 0.972484,3.42553 l 0.241263,1.92143 -0.431584,1.7209 c -0.237371,0.94649 -0.885914,3.01099 -1.441206,4.58778 -0.555292,1.57678 -1.430979,3.54714 -1.94597,4.37857 -0.514991,0.83143 -1.265111,1.90057 -1.666934,2.37587 -0.50442,0.59665 -1.303931,1.06588 -2.582669,1.51577 -1.018646,0.35838 -2.222258,0.65411 -2.674694,0.65718 -0.452436,0.003 -1.464467,-0.33223 -2.248958,-0.74511 z m 4.510555,-4.16092 c 0.573999,-0.51857 1.282748,-1.44131 1.574997,-2.05052 0.292249,-0.60921 0.884283,-2.35781 1.315632,-3.88578 l 0.784271,-2.77813 -0.06665,-1.98437 c -0.04328,-1.28866 -0.252544,-2.40181 -0.596866,-3.175 -0.291617,-0.65485 -0.860521,-1.58143 -1.264231,-2.05907 -0.403709,-0.47764 -1.523869,-1.42486 -2.489243,-2.10493 -0.965374,-0.68007 -2.350538,-1.73157 -3.078142,-2.33667 -0.727604,-0.6051 -1.58298,-1.23546 -1.900835,-1.4008 -0.317855,-0.16534 -0.853637,-0.29923 -1.190625,-0.29755 -0.380113,0.002 -1.075919,0.479 -1.832917,1.25677 -0.671116,0.68954 -1.549659,1.82612 -1.952318,2.52575 l -0.732107,1.27203 -0.135452,2.37563 c -0.09973,1.74909 -0.01015,2.91388 0.339639,4.4165 0.2613,1.12249 0.889032,2.99338 1.394961,4.15755 0.505929,1.16416 1.159355,2.4566 1.452057,2.87207 0.31142,0.44205 1.381477,1.16612 2.579512,1.74548 1.12603,0.54453 2.388935,1.22942 2.806456,1.52196 0.417521,0.29255 0.937722,0.59902 1.156004,0.68104 0.218281,0.082 0.485828,0.15853 0.59455,0.17002 0.108721,0.0115 0.667311,-0.4034 1.241311,-0.92198 z m 24.0575025,-41.90626 c -0.6745347,-0.42368 -2.2818784,-1.98164 -3.5718749,-3.46213 -1.2899964,-1.48049 -2.6313636,-3.12186 -2.9808159,-3.64748 -0.3494523,-0.52562 -0.7807728,-1.55501 -0.95849,-2.28753 -0.1777173,-0.73252 -0.476498,-2.01702 -0.6639573,-2.85445 l -0.3408354,-1.52259 0.4891746,-1.43912 0.4891741,-1.43913 -0.3705154,-2.06537 c -0.2037835,-1.13595 -0.3668373,-2.95833 -0.3623423,-4.04974 0.0056,-1.36697 0.2140334,-2.63177 0.6698189,-4.06514 l 0.6616456,-2.08077 0.9077225,-0.38414 c 0.6509739,-0.27549 2.1425361,-0.39777 5.2733473,-0.43232 l 4.3656249,-0.0482 1.1906249,0.63362 c 0.6548437,0.34849 2.1096117,1.46319 3.2328177,2.47711 1.123206,1.01392 2.2932481,2.269 2.6000936,2.78906 0.3068454,0.52007 1.1828336,2.38172 1.9466416,4.13701 l 1.38874,3.19144 -0.157439,3.57187 -0.157439,3.57188 -0.731665,1.45521 c -0.402415,0.80036 -1.5312308,2.61151 -2.5084782,4.02478 -0.9772474,1.41326 -2.0822067,2.80356 -2.455465,3.08955 -0.3732583,0.28599 -1.4112993,0.76679 -2.3067577,1.06845 -0.8954584,0.30165 -2.2569401,0.5462 -3.025515,0.54344 l -1.39740885,-0.005 z m 4.7683247,-3.08977 0.8299189,-0.16599 1.1946769,-1.709 c 0.6570723,-0.93995 1.4886634,-2.28916 1.8479802,-2.99823 0.3593169,-0.70908 0.7944308,-2.11223 0.96692,-3.11811 l 0.3136166,-1.82887 -0.4481263,-2.28074 c -0.2464695,-1.2544 -0.6154076,-2.66869 -0.8198625,-3.14285 -0.2044549,-0.47416 -0.5166658,-1.25283 -0.6938021,-1.73038 -0.1771363,-0.47755 -0.6722364,-1.31098 -1.1002226,-1.85208 -0.4279861,-0.5411 -1.3942457,-1.68505 -2.1472435,-2.54213 -0.7529978,-0.85707 -1.8453369,-1.77719 -2.42742025,-2.04471 -0.72686771,-0.33406 -1.68770465,-0.48821 -3.06784695,-0.4922 l -2.0095136,-0.006 -0.4147036,0.46302 c -0.2280869,0.25466 -0.5430019,1.16303 -0.6998109,2.01861 -0.2012817,1.09822 -0.2038273,2.28451 -0.00866,4.0348 0.1708067,1.53181 0.5236708,3.03823 0.9233871,3.94206 0.3558158,0.80457 0.6469379,1.69343 0.6469379,1.97526 0,0.28183 -0.3571875,0.91923 -0.79375,1.41645 -0.4365625,0.49721 -0.7923158,1.12644 -0.790563,1.39827 0.00175,0.27183 0.2842903,0.98579 0.627861,1.58657 0.3435706,0.60079 1.6029628,2.29922 2.7986492,3.77429 1.1956864,1.47507 2.49072709,2.85398 2.87786813,3.06425 0.38714103,0.21027 0.89736937,0.38708 1.13384067,0.39291 0.2364714,0.006 0.8034114,-0.0641 1.2598668,-0.15539 z m -100.9195052,85.1337 c -0.442582,-0.2699 -2.645239,-2.27304 -4.894789,-4.45143 -2.24956,-2.17839 -5.45932,-5.26536 -7.13281,-6.85993 -1.67349,-1.59457 -3.87614,-3.51686 -4.89479,-4.27176 -1.01865,-0.7549 -2.62599,-1.93605 -3.57187,-2.62479 -0.94589,-0.68873 -3.68433,-2.81543 -6.08542,-4.72599 -2.40109,-1.91056 -5.13953,-3.98974 -6.08542,-4.6204 -0.94588,-0.63066 -2.66338,-1.87067 -3.81666,-2.75556 -1.15328,-0.8849 -2.70109,-2.15232 -3.43959,-2.81651 -0.73849,-0.66418 -2.23567,-1.84765 -3.32708,-2.62994 -1.09141,-0.78229 -2.70555,-2.0248 -3.58698,-2.76115 -0.88143,-0.73634 -2.13158,-1.70877 -2.77812,-2.16095 -0.64654,-0.45217 -2.48521,-1.75344 -4.08594,-2.89169 -1.60073,-1.13826 -3.4462,-2.51541 -4.10104,-3.06034 -0.65485,-0.54493 -2.61938,-1.78087 -4.36563,-2.74653 -1.74625,-0.96566 -3.30602,-1.83792 -3.46615,-1.93835 -0.16013,-0.10044 -0.76,-0.49561 -1.33305,-0.87817 -0.57304,-0.38256 -1.98984,-1.57733 -3.14843,-2.65504 -1.15859,-1.07772 -2.43061,-2.16425 -2.82671,-2.41453 l -0.72017,-0.45504 -0.4111,0.79498 -0.4111,0.79498 -1.64685,-0.004 c -0.90577,-0.002 -1.78336,-0.0915 -1.9502,-0.19844 -0.16684,-0.10691 -0.4274,-0.67063 -0.57903,-1.25272 -0.15162,-0.58208 -0.34536,-5.04692 -0.43053,-9.92187 -0.0852,-4.87495 -0.28104,-9.49589 -0.43527,-10.26875 -0.15423,-0.77287 -0.22068,-1.56091 -0.14766,-1.7512 0.073,-0.19028 0.0271,-1.46294 -0.10207,-2.82812 -0.12917,-1.36518 -0.47593,-3.85136 -0.77059,-5.52485 -0.29466,-1.67349 -0.53643,-3.76498 -0.53727,-4.64776 -8.4e-4,-0.88278 -0.11953,-2.252 -0.26376,-3.04271 -0.14424,-0.79071 -0.28959,-5.00953 -0.323,-9.37515 -0.0334,-4.36563 0.0183,-11.03313 0.11486,-14.81667 0.0966,-3.78354 0.3061,-8.06979 0.46556,-9.525 0.15946,-1.45521 0.35461,-2.82443 0.43365,-3.04271 0.079,-0.21828 0.1843,-2.95672 0.23389,-6.08541 0.0496,-3.1287 0.22907,-6.52198 0.39885,-7.54063 0.16978,-1.01864 0.30856,-2.92364 0.30841,-4.23333 -1.6e-4,-1.30969 0.17548,-3.75047 0.3903,-5.42396 0.21483,-1.67349 0.45317,-3.57849 0.52965,-4.23333 0.0765,-0.65485 0.11778,-1.60735 0.0918,-2.11667 -0.026,-0.50932 -0.0413,-3.55955 -0.034,-6.77829 l 0.0133,-5.85224 0.80386,-2.5095 c 0.44213,-1.38022 0.80386,-2.66926 0.80386,-2.86452 0,-0.19527 -0.31109,-0.67974 -0.69131,-1.07661 l -0.69131,-0.72157 1.06046,-1.93874 c 0.58326,-1.06631 1.14416,-2.35546 1.24645,-2.86478 0.1023,-0.50932 0.35564,-1.19393 0.56299,-1.52135 0.20736,-0.32742 0.5695,-0.59532 0.80476,-0.59532 0.23526,0 0.57643,-0.20332 0.75814,-0.45183 l 0.33039,-0.45184 1.94774,-0.005 1.94774,-0.005 1.53872,0.92027 c 0.8463,0.50615 2.15599,1.24014 2.91042,1.6311 0.75443,0.39096 1.55028,0.72023 1.76856,0.7317 0.21829,0.0115 1.42076,0.47671 2.67218,1.03385 1.42473,0.63431 3.30911,1.80856 5.04079,3.14117 1.52102,1.1705 3.60775,2.55234 4.63717,3.07075 1.02943,0.51841 2.45201,1.32932 3.16129,1.80203 0.70929,0.47271 2.37349,1.83229 3.69822,3.02128 1.32474,1.189 3.22974,2.61658 4.23334,3.17242 1.00359,0.55583 2.71769,1.60715 3.8091,2.33627 1.0914,0.72912 3.05593,2.2303 4.36562,3.33594 1.30969,1.10565 2.97656,2.43621 3.70417,2.95681 0.7276,0.5206 1.84799,1.21176 2.48975,1.53592 0.64177,0.32416 1.95145,1.19515 2.91042,1.93554 0.95897,0.74038 2.89045,2.36535 4.29219,3.61103 1.40174,1.24568 2.94955,2.54211 3.43958,2.88096 0.49004,0.33884 1.88041,1.31652 3.08971,2.17261 1.20931,0.85609 2.77474,2.0744 3.47874,2.70736 0.704,0.63295 2.33394,1.85011 3.62209,2.7048 1.28816,0.85469 3.624838,2.69289 5.192629,4.08489 1.567791,1.39201 3.236087,2.70951 3.707325,2.92779 0.471237,0.21828 1.272092,0.71436 1.779678,1.10239 0.507587,0.38803 1.458665,0.90441 2.113509,1.1475 0.654844,0.24309 1.63711,0.6283 2.182813,0.85602 0.545703,0.22773 0.992187,0.51197 0.992187,0.63165 0,0.11968 0.347271,0.39718 0.771712,0.61667 0.461998,0.23891 0.883786,0.74602 1.050964,1.26357 0.153588,0.47547 0.587812,2.33808 0.964942,4.13913 l 0.68569,3.27463 -0.06507,2.94307 c -0.03579,1.6187 -0.0167,5.08621 0.04242,7.70558 0.05912,2.61938 0.09862,6.19125 0.08777,7.9375 -0.01085,1.74625 -0.08642,5.55625 -0.167938,8.46667 -0.08152,2.91041 -0.280699,5.76791 -0.442631,6.35 -0.161932,0.58208 -0.407078,2.01083 -0.544769,3.175 -0.137691,1.16416 -0.434402,4.37885 -0.659358,7.14375 -0.224956,2.76489 -0.580004,6.57489 -0.788997,8.46666 -0.208992,1.89177 -0.449478,4.39209 -0.534413,5.55625 -0.08494,1.16417 -0.279171,3.60495 -0.431635,5.42396 -0.152465,1.81901 -0.436786,3.90261 -0.631826,4.63021 -0.19504,0.7276 -0.479837,2.33495 -0.632883,3.57188 -0.153046,1.23692 -0.636204,4.5497 -1.073683,7.36172 -0.437479,2.81202 -0.908658,5.55046 -1.047063,6.08542 -0.138406,0.53495 -0.396554,2.10374 -0.573663,3.48619 -0.195899,1.52911 -0.352715,7.02119 -0.400398,14.02291 -0.04311,6.33016 -0.161224,12.36765 -0.262479,13.41664 -0.122636,1.27052 -0.07195,2.30783 0.151824,3.10707 l 0.335923,1.19979 -0.296172,0.35687 c -0.162894,0.19627 -0.229368,0.42367 -0.147718,0.50532 0.08165,0.0817 -0.103356,0.64204 -0.411124,1.24532 -0.307768,0.60327 -0.762559,1.17354 -1.010645,1.26727 -0.248087,0.0937 -1.105911,0.56387 -1.906276,1.04476 -0.800364,0.4809 -1.633802,0.87421 -1.852083,0.87404 -0.218281,-1.7e-4 -0.758987,-0.22113 -1.201569,-0.49102 z m 1.884964,-7.84947 c 0.08665,-1.3054 0.123032,-3.14737 0.08085,-4.09325 -0.04218,-0.94589 -0.06113,-2.19604 -0.0421,-2.77813 0.01902,-0.58208 0.150235,-5.28505 0.291581,-10.45104 l 0.256993,-9.39271 0.703147,-3.70416 c 0.386731,-2.0373 0.879312,-4.65667 1.094625,-5.82084 0.215313,-1.16416 0.676835,-4.25979 1.025604,-6.87916 0.348769,-2.61938 0.88066,-5.97071 1.18198,-7.44741 0.345219,-1.69183 0.64225,-4.62769 0.803065,-7.9375 0.140365,-2.88893 0.426784,-6.20509 0.636486,-7.36926 0.209702,-1.16417 0.455583,-3.18823 0.546404,-4.49792 0.09082,-1.30968 0.287648,-3.86953 0.437395,-5.68854 0.149747,-1.81901 0.449164,-4.36253 0.665371,-5.65227 0.216208,-1.28974 0.437536,-4.56396 0.49184,-7.27604 0.0543,-2.71208 0.230116,-5.88356 0.390693,-7.04773 0.177219,-1.28481 0.234572,-4.04032 0.145935,-7.01146 -0.08031,-2.69213 -0.19992,-6.68073 -0.265794,-8.86354 -0.06587,-2.18281 -0.248342,-4.68312 -0.405483,-5.55625 -0.157141,-0.87312 -0.573136,-2.54609 -0.924433,-3.71771 l -0.638722,-2.13022 -0.998816,-0.4763 c -0.549349,-0.26196 -1.751601,-0.75965 -2.671671,-1.10596 -0.920069,-0.34631 -1.992041,-0.87518 -2.382159,-1.17527 -0.390118,-0.30008 -1.36415,-0.97694 -2.164514,-1.50412 -0.800365,-0.52719 -2.24697,-1.68821 -3.21468,-2.58004 -0.96771,-0.89184 -2.2774,-1.96284 -2.91042,-2.38001 -0.63302,-0.41717 -1.68673,-1.11691 -2.34157,-1.55499 -0.65485,-0.43808 -1.83346,-1.3416 -2.61914,-2.00782 -0.78568,-0.66622 -2.25205,-1.83639 -3.25859,-2.60037 -1.00655,-0.76398 -1.88865,-1.38906 -1.96024,-1.38906 -0.0716,0 -1.0848,-0.74414 -2.2516,-1.65365 -1.16679,-0.9095 -2.85654,-2.34715 -3.755,-3.19477 -0.89845,-0.84761 -2.56307,-2.27636 -3.69914,-3.175 -1.13607,-0.89863 -2.7478,-1.99106 -3.58163,-2.42762 -0.83382,-0.43657 -2.28556,-1.38314 -3.22608,-2.10349 -0.94052,-0.72035 -2.42441,-1.95013 -3.29754,-2.73283 -0.87312,-0.7827 -2.59953,-2.02634 -3.83646,-2.76364 -1.23692,-0.7373 -2.89122,-1.75772 -3.67621,-2.2676 -0.78499,-0.50988 -2.09467,-1.46595 -2.91041,-2.1246 -0.81574,-0.65865 -1.73256,-1.44455 -2.03736,-1.74644 -0.30481,-0.3019 -1.25731,-1.09988 -2.11667,-1.7733 -0.85936,-0.67342 -2.7531,-1.82485 -4.2083,-2.55875 -1.45521,-0.73389 -3.59834,-2.09537 -4.7625,-3.0255 -1.16417,-0.93013 -2.54531,-1.95027 -3.0692,-2.26697 -0.52389,-0.3167 -2.13104,-1.00242 -3.57145,-1.52382 -1.44041,-0.52141 -3.0118,-1.19083 -3.492,-1.48761 l -0.87307,-0.53959 -0.50477,0.45681 c -0.27763,0.25125 -0.58136,0.96752 -0.67496,1.59172 -0.10376,0.69192 -0.0367,1.50397 0.17172,2.08044 l 0.34191,0.94554 -0.57781,1.39481 c -0.3178,0.76715 -0.80213,2.46638 -1.0763,3.77607 -0.27418,1.30968 -0.64732,3.88684 -0.82921,5.727 l -0.33072,3.34575 0.32524,1.35574 0.32523,1.35573 -0.42648,3.50059 c -0.23457,1.92533 -0.54225,4.86982 -0.68374,6.54331 -0.14149,1.67349 -0.37926,4.02342 -0.52839,5.22206 -0.14912,1.19864 -0.3167,4.77051 -0.3724,7.9375 -0.0557,3.16698 -0.22651,6.35346 -0.3796,7.08107 -0.15309,0.7276 -0.4063,2.09682 -0.5627,3.0427 -0.15819,0.95678 -0.31205,6.18049 -0.34679,11.77396 -0.0343,5.52979 -0.0272,11.30432 0.0158,12.83229 0.043,1.52797 0.25225,5.3975 0.46496,8.59896 0.22278,3.35309 0.65815,7.27905 1.02692,9.26042 0.3521,1.89177 0.71708,4.8088 0.81106,6.48229 0.094,1.67349 0.26241,3.60825 0.37427,4.29948 0.11186,0.69122 0.12494,1.77366 0.0291,2.40542 -0.0959,0.63176 -0.10676,3.36163 -0.0242,6.06638 l 0.15013,4.91773 0.55402,0.74664 c 0.30471,0.41065 1.53891,1.24537 2.74267,1.85493 1.56785,0.79393 2.6865,1.61359 3.94389,2.88977 0.96539,0.97981 2.35056,2.15919 3.07817,2.62084 0.7276,0.46165 2.6274,1.51767 4.22178,2.34671 1.59438,0.82904 4.24203,2.48468 5.88365,3.6792 1.64163,1.19452 4.45599,3.24342 6.25414,4.55311 1.79815,1.30968 4.191,3.09562 5.31744,3.96875 1.12645,0.87312 2.39703,1.84478 2.82352,2.15923 0.4265,0.31445 1.57726,1.28012 2.55725,2.14592 0.97999,0.86581 2.87645,2.39446 4.21435,3.39702 1.33791,1.00255 2.86334,2.12048 3.38985,2.48428 0.5265,0.36381 1.8131,1.34056 2.85911,2.17057 1.046,0.83001 2.76961,2.19923 3.83025,3.04271 1.06063,0.84348 2.53931,2.05399 3.28594,2.69002 0.74664,0.63604 1.96244,1.55411 2.70178,2.04016 0.73935,0.48606 2.27771,1.60344 3.41858,2.48307 1.14088,0.87963 3.284,2.82147 4.7625,4.31519 1.4785,1.49372 3.22397,3.1897 3.87881,3.76884 0.65485,0.57914 2.069263,1.98581 3.143146,3.12592 l 1.952514,2.07293 0.360932,-0.36093 c 0.222311,-0.22231 0.421439,-1.27249 0.518476,-2.73439 z M -155.88892,489.0406 c -1.16417,-0.0904 -2.31336,-0.25522 -2.55375,-0.36622 -0.24039,-0.111 -0.95477,-0.81443 -1.5875,-1.56318 -0.63273,-0.74875 -1.47134,-1.84182 -1.86356,-2.42904 -0.39223,-0.58722 -1.25544,-1.76275 -1.91823,-2.61228 l -1.20509,-1.5446 -0.002,-1.10123 c -0.001,-0.60568 -0.32788,-2.29186 -0.72568,-3.74707 -0.45814,-1.67598 -0.71837,-3.27624 -0.70992,-4.36562 l 0.0133,-1.7198 1.45716,-2.51354 1.45717,-2.51354 1.30569,-0.72139 c 0.71813,-0.39676 1.9351,-0.90736 2.70437,-1.13466 0.84724,-0.25034 1.76044,-0.34541 2.31627,-0.24114 0.61562,0.11549 1.11398,0.0435 1.51436,-0.21887 l 0.59676,-0.39101 2.24634,0.33721 c 1.23549,0.18546 2.70153,0.45656 3.25787,0.60243 0.55635,0.14587 1.22056,0.45439 1.47605,0.6856 0.25548,0.2312 0.57917,0.42037 0.71931,0.42037 0.14015,0 0.73771,0.50602 1.32792,1.12448 0.5902,0.61847 1.56869,2.00021 2.1744,3.07056 0.60572,1.07034 1.47383,2.79483 1.92914,3.83221 0.49029,1.11708 0.97391,2.85879 1.1861,4.27163 0.19705,1.31202 0.35911,2.75124 0.36014,3.19826 10e-4,0.44702 -0.19106,1.37899 -0.42687,2.07105 -0.23581,0.69206 -0.593,1.32132 -0.79375,1.39836 -0.20076,0.077 -0.36501,0.28807 -0.36501,0.46896 0,0.18088 -0.6964,0.93459 -1.54755,1.67491 -0.85116,0.74031 -2.01202,1.58142 -2.57969,1.86913 -0.56767,0.28771 -1.56792,0.75976 -2.22276,1.04901 -0.65484,0.28924 -1.66687,0.64473 -2.24896,0.78996 -0.58208,0.14524 -1.53458,0.31343 -2.11666,0.37376 -0.58209,0.0603 -2.01084,0.0357 -3.175,-0.0547 z m 5.93469,-4.09387 c 0.7078,-0.35866 1.87107,-1.22187 2.58504,-1.91822 0.92813,-0.90523 1.39859,-1.62579 1.65054,-2.52799 0.21033,-0.75315 0.29879,-1.92965 0.21943,-2.91828 -0.0834,-1.03913 -0.45187,-2.39299 -0.98871,-3.63292 -0.47067,-1.08708 -1.37897,-2.87912 -2.01845,-3.98231 l -1.1627,-2.00581 -1.39013,-0.9317 c -0.76457,-0.51243 -1.76911,-1.07947 -2.2323,-1.26009 l -0.84217,-0.3284 -2.46512,0.31512 -2.46512,0.31512 -0.62107,0.56953 c -0.34158,0.31324 -0.84982,1.01564 -1.12942,1.56088 -0.2796,0.54523 -0.57811,1.5002 -0.66336,2.12215 -0.10694,0.78019 0.0991,2.26142 0.66445,4.77709 0.45069,2.00545 0.95568,3.90798 1.12218,4.22784 0.16651,0.31987 0.72506,1.17689 1.24122,1.90449 0.51617,0.7276 1.60121,2.00733 2.4112,2.84384 l 1.47271,1.52092 1.66244,4.3e-4 1.66244,4.4e-4 z m 37.05081,-22.85015 c -0.65995,-0.24338 -2.20776,-1.11617 -3.43958,-1.93951 -1.23182,-0.82335 -2.78242,-2.07351 -3.44577,-2.77813 -0.66335,-0.70462 -1.67282,-1.87014 -2.24325,-2.59004 -0.57044,-0.7199 -1.30762,-1.70745 -1.63818,-2.19456 -0.33056,-0.48711 -0.60102,-0.98896 -0.60102,-1.11522 0,-0.12626 -0.55184,-1.92849 -1.22632,-4.00496 l -1.22632,-3.77539 0.30172,-4.10744 c 0.16595,-2.25909 0.39037,-4.19053 0.49872,-4.29209 0.10835,-0.10156 1.4572,-0.95236 2.99745,-1.89067 1.82673,-1.11283 3.20668,-1.7655 3.96875,-1.87708 0.64256,-0.0941 1.76361,-0.27947 2.49121,-0.41197 0.7276,-0.1325 2.12115,-0.38758 3.09676,-0.56685 l 1.77384,-0.32595 0.87199,0.35958 c 0.4796,0.19777 1.6459,1.0731 2.59179,1.94517 0.94588,0.87207 2.63443,2.59233 3.75233,3.8228 1.1179,1.23048 2.3512,2.82269 2.74066,3.53826 0.38947,0.71557 0.862,1.97559 1.05008,2.80004 0.18808,0.82444 0.42313,2.22707 0.52232,3.11694 l 0.180359,1.61795 -0.521409,1.82163 c -0.28678,1.0019 -0.66219,2.8932 -0.83426,4.20289 -0.20846,1.58669 -0.57517,2.93133 -1.09902,4.02982 -0.57596,1.20777 -1.0985,1.86346 -1.95431,2.45227 -0.64247,0.44203 -2.03311,1.21822 -3.09029,1.72487 -1.37022,0.65666 -2.26619,0.91528 -3.12025,0.90066 -0.65895,-0.0113 -1.73805,-0.21964 -2.398,-0.46302 z m 5.30525,-4.57958 c 0.58412,-0.6019 1.11712,-1.34604 1.18445,-1.65365 0.0673,-0.30761 0.363,-1.86897 0.65705,-3.4697 0.31946,-1.73908 0.5348,-4.03925 0.53504,-5.71521 2.3e-4,-1.54263 -0.14049,-3.20951 -0.3127,-3.70416 -0.17221,-0.49466 -0.72428,-1.47207 -1.22684,-2.17202 -0.50255,-0.69995 -1.22486,-1.5975 -1.60512,-1.99457 -0.38026,-0.39706 -1.4526,-1.5855 -2.38296,-2.64096 -0.93037,-1.05546 -1.89128,-2.0259 -2.13536,-2.15653 -0.27031,-0.14466 -0.90187,-0.12557 -1.61572,0.0489 -0.64456,0.15749 -1.3599,0.44791 -1.58964,0.64537 -0.23084,0.19841 -1.00764,0.35902 -1.73643,0.35902 h -1.31873 l -0.69413,0.7276 c -0.38177,0.40019 -0.81693,1.05269 -0.96702,1.45002 -0.15009,0.39732 -0.29345,2.06419 -0.31858,3.70416 -0.0251,1.63997 0.0909,3.47378 0.25788,4.07514 0.16697,0.60137 0.70924,2.18451 1.20505,3.5181 0.60785,1.63497 1.38172,3.06279 2.37594,4.38374 0.91948,1.22163 2.24401,2.53654 3.51891,3.49335 1.12445,0.84389 2.3464,1.67781 2.71547,1.85314 0.36906,0.17534 1.0581,0.32417 1.53121,0.33073 l 0.86019,0.0119 z m -43.20082,-35.70589 c -0.83855,-0.12277 -2.32684,-0.57286 -3.30729,-1.00021 l -1.78264,-0.77701 -1.40089,-1.81179 c -0.77049,-0.99648 -2.06743,-2.41015 -2.8821,-3.14149 l -1.48121,-1.32971 -0.90586,-3.56508 c -0.49822,-1.9608 -1.03571,-4.06532 -1.19443,-4.67672 l -0.28858,-1.11163 0.5708,-1.4916 c 0.31395,-0.82038 0.57081,-1.78457 0.57081,-2.14265 0,-0.35808 0.1769,-0.99314 0.39311,-1.41125 0.2857,-0.55248 0.80982,-0.91221 1.91823,-1.31656 0.83881,-0.306 1.82277,-0.697 2.18657,-0.8689 0.36381,-0.1719 0.86539,-0.48094 1.11463,-0.68677 0.24924,-0.20582 0.63238,-0.30546 0.85142,-0.2214 0.21904,0.0841 0.45812,0.056 0.53129,-0.0624 0.0732,-0.11839 0.73096,-0.28607 1.46176,-0.37262 0.88623,-0.10496 1.63491,-0.0294 2.24818,0.22681 0.50571,0.2113 1.42932,0.38246 2.05245,0.38035 0.62314,-0.002 1.93814,0.25822 2.92222,0.5785 l 1.78923,0.58234 2.22441,2.66264 c 1.22343,1.46446 2.78075,3.25796 3.46071,3.98556 0.67996,0.72761 1.46343,1.76466 1.74104,2.30457 0.27761,0.5399 0.50475,1.50756 0.50475,2.15035 0,0.68088 -0.48047,2.59034 -1.15109,4.5746 -0.63309,1.87324 -1.41564,4.01698 -1.73899,4.76385 -0.32335,0.74688 -0.92385,1.67982 -1.33446,2.0732 -0.4106,0.39338 -1.53847,1.00269 -2.50637,1.35402 -1.22095,0.44318 -2.26251,0.62891 -3.40144,0.60652 -0.90289,-0.0177 -2.3277,-0.13271 -3.16626,-0.25548 z m 4.02952,-3.32109 c 0.40394,-0.23862 1.05421,-0.98276 1.44504,-1.65365 0.39084,-0.67089 1.01059,-1.93418 1.37723,-2.8073 0.36663,-0.87313 0.83465,-2.18282 1.04003,-2.91042 0.20538,-0.72761 0.36985,-1.62057 0.36547,-1.98438 -0.004,-0.3638 -0.21132,-1.0266 -0.45988,-1.47289 -0.24856,-0.44629 -1.28537,-1.98626 -2.30401,-3.42216 -1.01865,-1.43589 -2.47031,-3.2549 -3.22591,-4.04224 -0.86094,-0.89709 -1.49346,-1.35758 -1.69427,-1.23347 -0.17624,0.10892 -1.34396,0.30973 -2.59492,0.44624 -1.25097,0.13651 -2.53274,0.25044 -2.84839,0.25319 -0.31565,0.003 -0.86847,0.31921 -1.22851,0.70326 -0.37946,0.40478 -0.77769,1.28761 -0.94745,2.10037 -0.16106,0.77114 -0.29284,2.10644 -0.29284,2.96731 0,0.86088 0.16621,2.07541 0.36936,2.69896 0.20315,0.62355 0.51335,1.76162 0.68935,2.52904 l 0.31998,1.39531 2.50959,2.77538 c 1.38028,1.52646 2.76671,2.92147 3.08097,3.10003 0.31425,0.17855 0.98809,0.46215 1.49741,0.63021 0.50933,0.16806 1.20533,0.31805 1.54668,0.3333 0.34135,0.0153 0.95113,-0.16748 1.35507,-0.40609 z"
       id="path2" /></g></svg>
