<?xml version="1.0" encoding="UTF-8" standalone="no"?>
<!-- Created with Inkscape (http://www.inkscape.org/) -->

<svg
   width="82.375885mm"
   height="206.11046mm"
   viewBox="0 0 82.375883 206.11046"
   version="1.1"
   id="svg1"
   xml:space="preserve"
   xmlns="http://www.w3.org/2000/svg"
   xmlns:svg="http://www.w3.org/2000/svg"><defs
     id="defs1" /><g
     id="layer1"
     transform="translate(41.508208,-469.5548)"><path
       style="fill:#ddaabb;fill-opacity:1"
       d="m 19.03806,674.95762 c -0.579484,-0.38918 -2.284049,-1.87746 -3.787924,-3.30729 -1.503875,-1.42984 -2.823799,-2.5997 -2.933165,-2.5997 -0.109366,0 -1.55783,-1.57265 -3.2188074,-3.49478 -1.6609778,-1.92213 -6.6208096,-7.13112 -11.0218486,-11.57552 -5.2960407,-5.34823 -8.328607,-8.61755 -8.968078,-9.66824 -0.531404,-0.87312 -1.242428,-2.06789 -1.580053,-2.65504 -0.337625,-0.58715 -1.130911,-1.59918 -1.762859,-2.24896 -0.631948,-0.64978 -1.745003,-1.65342 -2.473456,-2.23031 -0.728453,-0.57689 -1.733593,-1.57025 -2.233645,-2.20747 -0.500052,-0.63721 -1.504498,-1.73414 -2.232102,-2.43762 -0.727604,-0.70347 -1.799167,-1.60015 -2.38125,-1.99261 -0.582083,-0.39247 -1.415521,-1.04431 -1.852083,-1.44855 -0.436563,-0.40423 -1.299212,-1.17669 -1.916999,-1.71657 -0.617787,-0.53988 -1.768604,-1.89098 -2.557372,-3.00244 -0.788768,-1.11147 -2.266399,-2.85428 -3.283624,-3.87293 -1.017225,-1.01865 -2.128595,-2.12282 -2.469711,-2.45371 -0.341116,-0.3309 -0.922467,-0.92621 -1.291893,-1.32292 -0.369425,-0.39671 -0.931893,-1.09253 -1.249929,-1.54627 -0.419944,-0.59914 -0.860445,-0.87011 -1.60906,-0.98982 -0.566947,-0.0907 -1.186422,-0.35233 -1.376611,-0.5815 l -0.345798,-0.41666 0.290371,-0.84248 c 0.159705,-0.46336 0.36418,-1.43779 0.454389,-2.16539 0.09021,-0.7276 0.463357,-4.95432 0.829217,-9.39271 0.36586,-4.43838 0.773199,-9.73666 0.905197,-11.77396 0.131998,-2.03729 0.300222,-4.12088 0.373831,-4.6302 0.07361,-0.50933 0.202536,-2.23573 0.286506,-3.83646 0.08397,-1.60073 0.267149,-3.92245 0.407064,-5.15938 0.139915,-1.23693 0.37607,-3.02286 0.524788,-3.96875 0.148719,-0.94588 0.450283,-3.50573 0.670143,-5.68854 0.21986,-2.18281 0.565742,-5.75469 0.768627,-7.9375 0.202885,-2.18281 0.498059,-5.16681 0.655942,-6.6311 0.157883,-1.4643 0.457306,-3.66696 0.665383,-4.8948 0.208078,-1.22784 0.494845,-2.90153 0.637261,-3.71931 0.142415,-0.81778 0.379681,-1.94887 0.527258,-2.51354 0.147576,-0.56467 0.445627,-2.15776 0.662335,-3.54021 0.216709,-1.38245 0.455735,-3.29896 0.53117,-4.25892 0.07543,-0.95995 0.423511,-3.04355 0.773502,-4.6302 0.349992,-1.58666 0.779267,-3.65874 0.953946,-4.60463 0.17468,-0.94588 0.731101,-3.56526 1.236493,-5.82083 0.505392,-2.25557 1.228194,-5.23214 1.606228,-6.61459 0.378033,-1.38244 0.977123,-3.46604 1.331312,-4.6302 0.354189,-1.16417 0.756107,-2.48231 0.893153,-2.92921 0.137045,-0.44689 0.249173,-1.22675 0.249173,-1.73302 0,-0.50626 0.139838,-1.06032 0.310751,-1.23123 0.199191,-0.19919 0.288041,-1.09681 0.247491,-2.50032 -0.03479,-1.20425 -0.07026,-2.36815 -0.07881,-2.58643 -0.0086,-0.21828 0.06598,-1.52797 0.16562,-2.91042 0.09964,-1.38245 0.284266,-2.8112 0.410276,-3.175 0.126009,-0.3638 0.358094,-1.67349 0.515743,-2.91042 0.157649,-1.23692 0.478779,-2.9038 0.713623,-3.70416 0.234843,-0.80037 0.516221,-1.63792 0.625285,-1.86122 0.109063,-0.22331 0.140992,-1.00239 0.07095,-1.73129 -0.07572,-0.78805 0.02587,-1.77853 0.250603,-2.44336 0.207871,-0.61494 0.778365,-1.68133 1.267764,-2.36975 0.60102,-0.84543 0.872589,-1.50929 0.836731,-2.04542 -0.0292,-0.43657 0.03817,-0.9292 0.149711,-1.09475 0.111538,-0.16554 0.663822,-0.49296 1.227296,-0.7276 0.563475,-0.23464 1.549328,-0.42661 2.190785,-0.42661 0.641457,0 1.850024,0.28778 2.685704,0.63951 0.83568,0.35173 2.383907,0.7247 3.440505,0.82882 1.3035456,0.12844 2.138502,0.36031 2.5974351,0.72131 0.3719915,0.29261 1.0451023,1.304 1.4958018,2.24753 0.4506994,0.94353 1.2370462,2.14686 1.7474372,2.67407 0.510391,0.5272 1.1762272,1.31574 1.479636,1.7523 0.3034088,0.43656 0.9648747,1.62404 1.4699241,2.63885 0.62878349,1.26342 1.54385278,2.47288 2.9026467,3.83646 1.0914062,1.09524 2.3415624,2.45355 2.7781249,3.01846 0.4365625,0.5649 1.1148233,1.40683 1.5072464,1.87094 0.392423,0.46412 1.2538421,1.18539 1.9142647,1.60284 0.6604225,0.41745 2.244349,2.01272 3.5198371,3.54504 1.275487,1.53232 3.66235,4.4565 5.304138,6.49818 1.641788,2.04168 3.705212,4.51205 4.585385,5.48971 0.880173,0.97767 2.402174,3.01613 3.382224,4.52992 0.980051,1.51378 2.548034,3.52115 3.484407,4.46081 l 1.702497,1.70846 1.919336,3.81579 c 1.055634,2.09869 2.642521,5.18501 3.526414,6.8585 0.883894,1.67349 1.880563,3.34036 2.214821,3.70416 0.334258,0.36381 0.934551,1.4949 1.333985,2.51355 0.399434,1.01864 0.966328,2.32567 1.259765,2.90451 0.293436,0.57883 0.635608,1.9649 0.760382,3.08016 l 0.226862,2.02773 -0.395262,1.12029 c -0.217394,0.61616 -0.395262,1.86381 -0.395262,2.77255 0,0.90874 -0.239054,3.02893 -0.531232,4.71153 l -0.531232,3.05928 -0.09978,8.55051 -0.09978,8.55052 -0.541818,3.04271 c -0.298,1.67349 -0.6743,3.75708 -0.836223,4.63021 -0.161923,0.87312 -0.406724,2.18281 -0.544003,2.91041 -0.137278,0.72761 -0.430366,2.45013 -0.651305,3.82783 -0.22094,1.3777 -0.465518,4.05661 -0.543505,5.95312 -0.07799,1.89652 -0.25614,4.34119 -0.395893,5.4326 -0.139753,1.0914 -0.386776,3.88937 -0.548939,6.2177 -0.162164,2.32834 -0.334352,4.94771 -0.38264,5.82084 -0.04829,0.87312 -0.22106,3.13531 -0.383938,5.02708 -0.162878,1.89177 -0.473715,4.51115 -0.69075,5.82083 -0.217034,1.30969 -0.507581,3.15516 -0.645659,4.10105 -0.138079,0.94588 -0.365902,3.14854 -0.506273,4.89479 -0.140372,1.74625 -0.378073,4.18703 -0.528225,5.42396 -0.150152,1.23692 -0.388494,3.97536 -0.529649,6.08541 -0.141155,2.11005 -0.375923,4.55084 -0.521707,5.42396 -0.145784,0.87313 -0.387362,2.42094 -0.536839,3.43958 -0.149478,1.01865 -0.393242,3.87615 -0.541697,6.35 -0.148456,2.47386 -0.39417,5.27183 -0.546031,6.21771 -0.151861,0.94589 -0.392179,2.31511 -0.53404,3.04271 -0.141861,0.7276 -0.363496,1.73964 -0.492523,2.24896 -0.129026,0.50932 -0.3775,1.46182 -0.552163,2.11667 -0.174664,0.65484 -0.474974,1.31864 -0.667357,1.4751 -0.199027,0.16187 -0.284773,0.5331 -0.198945,0.86131 0.08296,0.31725 -0.01204,0.77764 -0.211114,1.02308 -0.247388,0.305 -0.257273,0.38336 -0.03123,0.24755 0.181901,-0.10928 0.330729,-0.0923 0.330729,0.0378 0,0.13006 -0.386953,0.58329 -0.859895,1.00719 -0.472943,0.4239 -1.246418,0.97937 -1.718833,1.23436 -0.535441,0.28902 -1.434057,0.46364 -2.385977,0.46364 h -1.52704 z m 2.693938,-4.25334 c 0.08748,-0.25466 0.449769,-1.1774 0.805078,-2.05052 0.355308,-0.87313 0.823375,-2.18282 1.040149,-2.91042 0.216774,-0.7276 0.633772,-2.57307 0.926661,-4.10104 0.29289,-1.52797 0.634512,-4.74266 0.759159,-7.14375 0.135669,-2.6134 0.448025,-5.37448 0.778226,-6.87917 0.353014,-1.60863 0.639377,-4.27573 0.795426,-7.40833 0.134108,-2.69214 0.36303,-5.43057 0.508715,-6.08542 0.145686,-0.65484 0.334004,-2.44078 0.418485,-3.96875 0.08448,-1.52797 0.226339,-3.3139 0.315241,-3.96875 0.0889,-0.65484 0.197228,-1.42875 0.240725,-1.71979 0.0435,-0.29104 0.209987,-1.18401 0.369976,-1.98437 0.15999,-0.80037 0.405451,-2.25567 0.54547,-3.234 0.140019,-0.97833 0.497101,-4.66927 0.793515,-8.20208 0.296415,-3.53282 0.585523,-6.95908 0.642463,-7.61392 0.05694,-0.65485 0.23212,-3.75047 0.389291,-6.87917 0.15717,-3.1287 0.534842,-7.47448 0.839269,-9.65729 0.304428,-2.18282 0.969098,-6.64766 1.477045,-9.92188 l 0.923538,-5.95312 0.112008,-8.20209 c 0.0616,-4.51114 0.223271,-8.79739 0.359261,-9.525 0.135989,-0.7276 0.343554,-2.75166 0.461254,-4.49791 0.1177,-1.74625 0.206569,-4.48469 0.197488,-6.08542 l -0.01651,-2.91042 -2.066025,-3.83646 c -1.136314,-2.11005 -2.259617,-4.25317 -2.496229,-4.7625 -0.236612,-0.50932 -0.83529,-1.69994 -1.330397,-2.64583 -0.495106,-0.94588 -1.723416,-3.32233 -2.729576,-5.281 l -1.829383,-3.5612 -2.09987,-2.18728 c -1.154928,-1.203 -2.09987,-2.34601 -2.09987,-2.54002 0,-0.19401 -0.533309,-1.00048 -1.185131,-1.79215 -0.651823,-0.79166 -1.931744,-2.25383 -2.844271,-3.24926 -0.912526,-0.99543 -1.837733,-2.149 -2.056014,-2.56347 -0.218281,-0.41448 -0.909425,-1.26691 -1.535876,-1.8943 -0.62645,-0.62738 -2.174263,-2.41443 -3.4395829,-3.97123 -1.2653204,-1.55679 -2.7593053,-3.42301 -3.3199666,-4.14716 -0.5606613,-0.72414 -1.903545,-2.18884 -2.9841861,-3.25488 -1.0806412,-1.06604 -2.397266,-2.53357 -2.92583293,-3.26117 -0.52856697,-0.72761 -1.82545277,-2.21589 -2.88196837,-3.3073 -1.3234111,-1.36711 -2.3594968,-2.78745 -3.3308244,-4.56611 -0.7754377,-1.41996 -2.0647304,-3.37185 -2.865095,-4.33753 -0.8003645,-0.96569 -1.9352237,-2.28515 -2.5219087,-2.93214 l -1.066701,-1.17634 -1.428758,-0.37062 -1.428758,-0.37061 -0.451249,0.40837 c -0.248187,0.22461 -0.77843,1.13743 -1.178317,2.0285 -0.399887,0.89107 -0.822795,2.40282 -0.939797,3.35945 -0.117001,0.95663 -0.506638,3.16808 -0.865858,4.91433 -0.359221,1.74625 -0.790134,4.78234 -0.957585,6.74687 -0.16745,1.96453 -0.353993,3.75047 -0.414539,3.96875 -0.06055,0.21828 -0.233881,1.52797 -0.385189,2.91042 -0.151308,1.38245 -0.456684,3.5851 -0.678613,4.89479 -0.221929,1.30969 -0.810028,3.57187 -1.306888,5.02708 -0.49686,1.45521 -1.14923,3.59834 -1.449712,4.7625 -0.300482,1.16417 -0.669323,2.89058 -0.819647,3.83646 -0.150324,0.94589 -0.508626,2.73182 -0.796226,3.96875 -0.2876,1.23693 -0.653218,2.72521 -0.812485,3.30729 -0.159267,0.58209 -0.502112,2.09167 -0.761878,3.35464 -0.259767,1.26296 -0.606123,3.40609 -0.769682,4.7625 -0.163558,1.35641 -0.648859,4.3712 -1.078446,6.69953 -0.429587,2.32833 -0.962776,5.42396 -1.184864,6.87917 -0.222088,1.4552 -0.516469,3.28308 -0.654179,4.06194 -0.13771,0.77886 -0.310936,3.01581 -0.384948,4.971 -0.07401,1.95519 -0.191079,3.64633 -0.26015,3.7581 -0.06907,0.11176 -0.315679,1.92293 -0.548016,4.02483 -0.232337,2.10189 -0.600122,5.60756 -0.817299,7.79038 -0.217178,2.18281 -0.567274,4.98078 -0.777992,6.21771 -0.210719,1.23692 -0.456194,4.39208 -0.545501,7.01145 -0.08931,2.61938 -0.267826,5.23875 -0.39671,5.82084 -0.128883,0.58208 -0.240155,1.9513 -0.24727,3.04271 -0.0071,1.0914 -0.118832,2.46062 -0.248261,3.0427 -0.129429,0.58209 -0.369012,3.20146 -0.532407,5.82084 -0.163395,2.61937 -0.423392,5.57126 -0.577772,6.55976 l -0.280691,1.79726 0.75342,1.50404 c 0.511936,1.02196 1.898264,2.69428 4.325294,5.21756 1.964532,2.04244 3.988594,4.28918 4.497917,4.99275 0.509323,0.70358 1.710074,2.19034 2.668336,3.30393 0.958263,1.11358 2.26795,2.37824 2.910417,2.81036 0.642467,0.43211 1.763434,1.25969 2.491038,1.83907 0.727604,0.57937 1.586526,1.35692 1.908714,1.72788 0.322189,0.37096 0.590079,0.7731 0.595313,0.89365 0.0052,0.12055 0.466132,0.65633 1.024219,1.19063 0.558087,0.53429 1.792302,1.68582 2.742699,2.55894 0.950398,0.87313 2.5446066,2.77813 3.5426866,4.23333 0.9980799,1.45521 2.2114245,3.16985 2.6963213,3.81032 0.4848967,0.64046 1.3213366,1.71083 1.8587552,2.37859 0.5374186,0.66777 2.2272809,2.46949 3.75524957,4.00383 1.52796863,1.53433 4.50453103,4.57485 6.61458303,6.7567 2.110052,2.18185 5.0112643,5.24932 6.4471373,6.8166 1.435874,1.56728 3.518118,3.52068 4.627209,4.34089 1.109091,0.82021 2.423096,1.88615 2.920012,2.36875 0.496915,0.4826 1.008017,0.87745 1.135782,0.87745 0.127765,0 0.303878,-0.20836 0.391362,-0.46302 z M 7.268829,641.62165 c -0.2182813,-0.0743 -0.7732296,-0.30359 -1.2332185,-0.50951 -0.4599889,-0.20592 -1.3510501,-0.80442 -1.9801359,-1.33001 -0.7195345,-0.60115 -1.562459,-1.73917 -2.2725106,-3.06808 -0.6207949,-1.16186 -1.12871805,-2.47027 -1.12871805,-2.90757 0,-0.4373 -0.16647285,-1.46712 -0.36993966,-2.28849 -0.20346681,-0.82137 -0.37122939,-2.05411 -0.37280574,-2.73941 -0.0015764,-0.68531 -0.15651483,-1.69734 -0.34430775,-2.24896 -0.20640021,-0.60628 -0.34672429,-2.36331 -0.35479838,-4.44253 l -0.0133567,-3.43958 0.53409617,-1.32292 c 0.2937529,-0.7276 0.93386859,-1.97776 1.42247931,-2.77812 0.5344301,-0.87542 1.5640598,-1.98229 2.5842575,-2.77813 0.9327309,-0.7276 2.3208007,-1.63928 3.0845996,-2.02595 0.8543602,-0.43251 1.7924338,-0.69505 2.4378961,-0.68229 l 1.0491706,0.0207 0.99295,0.88074 c 0.546122,0.4844 1.12812,0.88073 1.293328,0.88073 0.165208,0 0.809551,0.44648 1.431873,0.99219 0.622323,0.5457 1.486705,1.29477 1.920849,1.66461 l 0.789354,0.67242 0.160514,1.84112 c 0.08828,1.01261 0.400052,3.38893 0.692821,5.2807 0.292769,1.89177 0.57615,4.97321 0.629735,6.84763 0.0619,2.16539 -0.029,4.01228 -0.24929,5.06518 -0.190694,0.91142 -0.59114,2.13624 -0.889879,2.72182 -0.298739,0.58557 -0.903183,1.59813 -1.34321,2.25013 -0.440027,0.65199 -1.220638,1.55473 -1.734691,2.00607 -0.514053,0.45135 -1.231979,0.82063 -1.595392,0.82063 -0.363412,0 -1.088185,0.17859 -1.610605,0.39687 -0.522421,0.21829 -1.441331,0.38748 -2.0420229,0.37599 -0.6006919,-0.0115 -1.2707609,-0.0817 -1.4890421,-0.15601 z m 4.372094,-4.85018 c 0.743443,-0.90176 1.361458,-2.00624 1.624966,-2.90404 l 0.425236,-1.44883 -0.168326,-2.91679 c -0.09258,-1.60424 -0.348668,-4.52415 -0.569086,-6.48868 -0.220418,-1.96453 -0.470862,-4.2861 -0.556541,-5.15904 l -0.155782,-1.58716 -1.097218,-1.02244 c -0.60347,-0.56234 -1.3392936,-1.18435 -1.6351635,-1.38224 l -0.5379453,-0.3598 -1.0495546,0.3049 c -0.577255,0.1677 -1.2482825,0.47187 -1.4911721,0.67594 -0.2428897,0.20407 -0.8977334,1.2245 -1.4552083,2.26763 l -1.0135907,1.89659 0.030288,2.64583 c 0.01722,1.5043 0.2158483,3.34283 0.4603758,4.26132 0.2365482,0.88851 0.5577941,2.55539 0.7138797,3.70416 0.1560857,1.14878 0.4417938,2.6316 0.634907,3.29517 0.1931132,0.66356 0.7177272,1.93273 1.1658089,2.82037 0.4480817,0.88765 1.1458294,1.8458 1.5505505,2.12924 0.404721,0.28343 0.9144501,0.58192 1.1327314,0.6633 0.2182812,0.0814 0.4855782,0.12812 0.5939942,0.10387 0.108415,-0.0242 0.736998,-0.69894 1.39685,-1.4993 z m -30.515961,-19.59714 c -0.717499,-0.14125 -1.601002,-0.61261 -2.38125,-1.27043 -0.682279,-0.57523 -1.606908,-1.44339 -2.054733,-1.92925 -0.447824,-0.48587 -1.179218,-1.47871 -1.625319,-2.20631 -0.446101,-0.7276 -0.891394,-1.59081 -0.989541,-1.91823 -0.09815,-0.32742 -0.279918,-0.59531 -0.403938,-0.59531 -0.124019,0 -0.407642,-0.56555 -0.630274,-1.25677 -0.222631,-0.69123 -0.5827,-1.91162 -0.800154,-2.71198 -0.217454,-0.80037 -0.622292,-2.11005 -0.899642,-2.91042 -0.331141,-0.95559 -0.55821,-2.55507 -0.66138,-4.65875 -0.08641,-1.76195 -0.09041,-3.45859 -0.0089,-3.77031 0.08152,-0.31173 0.342686,-0.57018 0.580375,-0.57434 0.252342,-0.004 0.923752,-0.83321 1.613597,-1.99184 0.745592,-1.25226 1.511835,-2.17922 2.07705,-2.51271 0.49259,-0.29063 0.953697,-0.75052 1.024683,-1.02197 0.08409,-0.32155 0.651131,-0.66498 1.627115,-0.98546 0.923998,-0.30341 2.258463,-0.49142 3.482425,-0.49063 1.200658,7.7e-4 2.590415,0.195 3.518871,0.49178 l 1.534497,0.4905 1.028961,1.3603 c 0.565929,0.74817 1.558362,1.92769 2.205406,2.62116 0.6470449,0.69346 1.318962,1.64596 1.4931494,2.11666 0.1741875,0.4707 0.7168451,1.63136 1.2059058,2.57925 0.4890607,0.94789 1.0153447,2.28631 1.16952,2.97427 l 0.2803187,1.25084 -0.3911947,2.58198 c -0.2151571,1.42009 -0.5747498,3.29636 -0.7990949,4.16948 -0.2243452,0.87313 -0.7901914,2.36141 -1.2574361,3.30729 -0.4672446,0.94589 -1.4226422,2.51725 -2.1231052,3.49191 l -1.273569,1.77212 -1.510177,0.81888 c -0.950597,0.51546 -1.724755,0.76531 -2.089274,0.67431 -0.318504,-0.0795 -0.652952,-0.0251 -0.743219,0.12098 -0.09027,0.14605 -0.365455,0.25251 -0.611528,0.23656 -0.246073,-0.0159 -0.96074,-0.13004 -1.588149,-0.25356 z m 3.717032,-4.4138 c 0.380004,-0.40018 1.158263,-1.79917 1.729464,-3.10886 0.571202,-1.30968 1.250346,-3.25447 1.50921,-4.32174 0.31945,-1.31707 0.427797,-2.50712 0.337243,-3.70417 -0.09345,-1.23532 -0.470123,-2.59259 -1.257372,-4.53067 l -1.123953,-2.76701 -1.813816,-2.1716 c -1.273803,-1.52508 -2.089913,-2.26273 -2.741182,-2.47767 -0.510052,-0.16833 -1.140574,-0.23839 -1.401162,-0.15568 -0.260587,0.0827 -0.934171,0.59734 -1.496854,1.14363 -0.562683,0.54628 -1.223756,1.4695 -1.469051,2.05158 -0.245295,0.58208 -0.601084,1.62388 -0.790643,2.3151 l -0.344652,1.25678 h -0.512609 -0.512609 l 0.171681,1.38906 c 0.09442,0.76398 0.687174,2.93687 1.317221,4.82864 0.630047,1.89177 1.470992,4.15396 1.868766,5.02709 0.397773,0.87312 1.239567,2.32008 1.870652,3.21547 0.631084,0.89538 1.477078,1.87387 1.879985,2.17443 0.402907,0.30055 1.037705,0.55023 1.410662,0.55484 0.40377,0.005 0.957619,-0.28598 1.369019,-0.71922 z m 27.97086,-41.18458 c -1.293046,-0.19926 -2.458455,-0.57775 -3.3072912,-1.07413 -0.7208807,-0.42155 -1.6264024,-1.08106 -2.0122704,-1.46557 l -0.7015782,-0.69911 -0.1667089,-1.83232 c -0.09169,-1.00777 -0.4039438,-2.96341 -0.6938975,-4.34586 -0.2899537,-1.38244 -0.7699551,-4.12088 -1.0666698,-6.08541 -0.3856189,-2.55316 -0.4950775,-4.21329 -0.3837905,-5.82084 0.08563,-1.23692 0.200487,-2.76024 0.2552382,-3.38516 0.054751,-0.62491 0.3791711,-1.54683 0.720933,-2.04871 0.3417619,-0.50188 0.7106822,-0.91332 0.8198228,-0.91432 0.1091406,-9.9e-4 0.1984375,-0.13939 0.1984375,-0.30756 0,-0.16817 0.305996,-0.70694 0.6799911,-1.19727 0.3739951,-0.49033 1.0787433,-1.09688 1.566107,-1.34789 0.4873637,-0.25101 1.6108879,-0.91195 2.4967209,-1.46876 l 1.610606,-1.01239 1.784225,-0.25866 c 0.981323,-0.14227 2.617662,-0.18481 3.636308,-0.0945 1.018646,0.0903 2.4686,0.33566 3.222121,0.5453 l 1.370038,0.38118 0.977463,1.12261 c 0.537605,0.61744 1.240436,1.71794 1.561847,2.44554 0.321411,0.7276 0.77911,2.33495 1.017109,3.57187 0.237999,1.23693 0.483487,2.72521 0.545529,3.3073 0.06204,0.58208 2.57e-4,2.30849 -0.1373,3.83645 -0.137558,1.52797 -0.432642,3.42675 -0.655743,4.21951 -0.223101,0.79275 -0.765609,2.15447 -1.205574,3.02604 -0.439965,0.87156 -1.244067,2.18747 -1.786893,2.92425 -0.542827,0.73677 -1.255692,1.99442 -1.584145,2.79479 -0.328453,0.80036 -0.756906,1.70757 -0.952116,2.016 -0.195211,0.30844 -1.046971,1.0317 -1.892799,1.60724 -0.845829,0.57554 -1.895058,1.1742 -2.33162,1.33037 -0.436563,0.15616 -0.972344,0.34103 -1.190625,0.41082 -0.218282,0.0698 -1.295345,-0.0116 -2.393475,-0.18078 z m 3.079642,-4.18251 c 0.533041,-0.46801 1.178282,-1.33121 1.433871,-1.91822 0.255588,-0.58702 1.246192,-2.2384 2.201342,-3.66976 0.95515,-1.43135 1.951161,-3.21729 2.213357,-3.96875 l 0.476721,-1.36629 -0.0083,-5.29166 -0.0083,-5.29167 -0.58921,-1.47633 -0.58921,-1.47633 -1.386898,-1.12955 -1.386898,-1.12955 -1.455208,0.10721 -1.455209,0.10722 -1.455208,1.03269 c -0.800365,0.56798 -1.91739,1.41958 -2.482279,1.89245 -0.564889,0.47286 -1.4392155,1.54393 -1.9429485,2.38015 -0.6087233,1.01051 -0.9634118,1.98096 -1.0576143,2.89369 -0.1009525,0.97814 0.020358,1.90695 0.4215947,3.22794 0.3098319,1.02005 0.5633306,2.25763 0.5633306,2.75017 0,0.49253 0.1785725,1.58111 0.3968278,2.41905 0.2182557,0.83793 0.5089737,2.80148 0.6460407,4.36343 0.137066,1.56195 0.364005,3.1338 0.504308,3.493 0.140302,0.3592 0.712787,1.08515 1.272188,1.61322 0.559402,0.52807 1.195687,1.02469 1.413969,1.10359 0.218281,0.0789 0.601091,0.15287 0.850689,0.16435 0.249598,0.0115 0.889938,-0.36203 1.422978,-0.83005 z"
       id="path2" /></g></svg>
