<?xml version="1.0" encoding="UTF-8" standalone="no"?>
<!-- Created with Inkscape (http://www.inkscape.org/) -->

<svg
   width="178.05092mm"
   height="150.95264mm"
   viewBox="0 0 178.05091 150.95264"
   version="1.1"
   id="svg1"
   xml:space="preserve"
   sodipodi:docname="reverse_swiss_chees_model.svg"
   inkscape:export-filename="disability.svg"
   inkscape:export-xdpi="96"
   inkscape:export-ydpi="96"
   xmlns:inkscape="http://www.inkscape.org/namespaces/inkscape"
   xmlns:sodipodi="http://sodipodi.sourceforge.net/DTD/sodipodi-0.dtd"
   xmlns="http://www.w3.org/2000/svg"
   xmlns:svg="http://www.w3.org/2000/svg"><sodipodi:namedview
     id="namedview1"
     pagecolor="#ffffff"
     bordercolor="#000000"
     borderopacity="0.25"
     inkscape:showpageshadow="2"
     inkscape:pageopacity="0.0"
     inkscape:pagecheckerboard="0"
     inkscape:deskcolor="#d1d1d1"
     inkscape:document-units="mm" /><defs
     id="defs1" /><path
     style="fill:#ddaabb;fill-opacity:1;stroke-width:0.819894"
     d="m 120.48633,150.37842 c -0.51702,-0.31523 -0.94002,-0.64541 -0.94002,-0.73373 0,-0.0883 0.26752,-0.52243 0.5945,-0.9647 0.36983,-0.5002 0.75485,-1.78026 1.01873,-3.38686 0.24696,-1.50354 0.77646,-3.31239 1.26721,-4.3289 0.46365,-0.96038 1.07193,-2.58736 1.35175,-3.6155 0.27982,-1.02816 0.8087,-2.27213 1.17531,-2.76439 0.3666,-0.49226 0.66654,-0.98418 0.66654,-1.09315 0,-0.10896 1.12093,-2.50462 2.49094,-5.32365 1.37002,-2.81904 3.15254,-6.49218 3.96117,-8.16255 0.80863,-1.67036 2.21767,-4.29714 3.13122,-5.83727 0.91354,-1.54015 2.14525,-3.92752 2.73714,-5.30529 0.59187,-1.37777 1.25079,-2.57205 1.46424,-2.65395 0.21345,-0.0818 0.38809,-0.2776 0.38809,-0.43488 0,-0.15728 0.29285,-0.69653 0.65079,-1.19833 0.86315,-1.21008 1.27573,-4.57411 1.06972,-8.721876 -0.0396,-0.79541 0.009,-2.22715 0.10647,-3.18164 0.62469,-6.07862 1.14748,-20.94759 0.75866,-21.57672 -0.19071,-0.30858 -0.39604,-0.24502 -0.97962,0.30322 -0.40609,0.38149 -0.73833,0.90187 -0.73833,1.15638 0,0.2545 -1.94888,2.41196 -4.33083,4.79436 -2.38196,2.38239 -4.49081,4.72209 -4.68631,5.19933 -0.19553,0.47726 -1.10674,1.74569 -2.02493,2.81876 -0.91819,1.07307 -1.88304,2.27703 -2.1441,2.67547 -0.56128,0.85661 -1.40503,0.92155 -2.50965,0.19317 -1.06142,-0.6999 -1.62936,-1.51163 -1.44114,-2.05977 0.0842,-0.24528 0.70283,-1.03169 1.37465,-1.74756 0.67183,-0.71587 1.52351,-1.85476 1.89264,-2.53086 0.36911,-0.67609 0.75941,-1.22927 0.86732,-1.22927 0.10797,0 0.87371,-0.91111 1.70179,-2.02469 0.82806,-1.11357 1.66321,-2.02468 1.85587,-2.02468 0.36926,0 3.94911,-3.48114 3.94911,-3.84022 0,-0.11503 0.22778,-0.46785 0.50618,-0.78406 0.27839,-0.31621 0.83157,-0.98726 1.22926,-1.49121 0.39771,-0.50397 1.27628,-1.5032 1.95237,-2.22053 0.67611,-0.71732 1.22928,-1.45533 1.22928,-1.64001 0,-0.47553 1.2811,-1.62054 1.91768,-1.71397 0.54307,-0.0797 0.55445,-0.11781 1.25956,-4.218235 0.15046,-0.874951 0.41927,-2.371766 0.59735,-3.326262 0.41302,-2.213675 0.0639,-3.326263 -1.04377,-3.326263 -2.41669,0 -9.3172,-2.49212 -11.73574,-4.238365 -4.94662,-3.571584 -8.74065,-12.231197 -8.27036,-18.876534 0.26058,-3.682048 3.16453,-11.765243 5.9921,-16.679126 1.6354,-2.842075 3.16392,-4.7260276 6.51071,-8.0246766 4.87234,-4.802272 7.27701,-5.893239 13.61057,-6.174964 2.99738,-0.133323 4.10697,-0.0719 5.37901,0.297917 0.88145,0.256241 3.04484,0.66705 4.80754,0.912912 5.67846,0.792002 7.24806,1.596236 11.37894,5.830287 3.41542,3.5007536 4.03839,4.5392896 5.71167,9.5219036 2.2785,6.784826 2.42818,10.225473 0.60284,13.857533 -1.50405,2.992755 -9.06844,11.45374 -13.2896,14.864805 -4.49962,3.636077 -11.77325,7.997991 -14.27708,8.561791 -1.47366,0.331828 -1.48674,0.344578 -1.50944,1.469899 -0.029,1.436809 -0.29631,3.365292 -0.89975,6.490851 -0.59103,3.061347 -0.42171,3.784577 1.14203,4.878217 1.38373,0.96774 4.65346,4.10876 7.41664,7.12468 1.01816,1.11129 2.20891,2.28498 2.6461,2.6082 0.43721,0.32321 1.31121,1.23432 1.94226,2.02468 0.63103,0.79037 2.60032,2.93384 4.37618,4.76329 1.77585,1.82945 3.30081,3.6051 3.38879,3.94591 0.23838,0.92347 -0.63618,2.41795 -1.41306,2.41467 -0.89933,-0.004 -3.54313,-1.57457 -4.17059,-2.47788 -1.71405,-2.4676 -5.36971,-6.78607 -8.1837,-9.66752 -1.78662,-1.82945 -3.90444,-4.07467 -4.70626,-4.98939 -0.80184,-0.91473 -1.62275,-1.66313 -1.82426,-1.66313 -0.20151,0 -0.42448,-0.1627 -0.4955,-0.36156 -0.43016,-1.20443 -0.65141,0.93806 -0.71932,6.96559 -0.0424,3.76511 -0.17259,7.69168 -0.28925,8.72572 -0.22714,2.01337 -0.22657,7.3004 8.3e-4,8.96646 0.076,0.55679 0.0434,2.96471 -0.0726,5.350956 -0.25127,5.16849 -0.30895,4.94981 3.71787,14.0947 1.45212,3.29779 3.08843,7.13744 3.63624,8.5326 0.5478,1.39514 1.34949,3.31757 1.78154,4.27206 0.43203,0.9545 1.26993,3.10211 1.86198,4.77247 1.4601,4.11937 2.63354,6.8104 3.70668,8.50036 0.49383,0.77768 1.29757,2.61371 1.78609,4.08008 0.85306,2.56057 0.87323,2.7336 0.50962,4.37085 l -0.3786,1.70473 -1.00529,-0.0893 c -1.80873,-0.16065 -1.85952,-0.21773 -2.36381,-2.65648 -0.449,-2.17145 -0.87437,-3.22629 -2.74175,-6.79919 -0.83814,-1.60365 -1.32848,-2.83914 -2.98462,-7.52026 -2.97869,-8.41933 -10.02962,-24.82057 -10.72826,-24.95511 -0.25156,-0.0485 -0.64506,0.31896 -0.92738,0.86586 -0.26972,0.5225 -0.61084,1.14523 -0.75803,1.38387 -0.14721,0.23862 -0.54606,1.06679 -0.88634,1.84038 -0.34028,0.77359 -1.17585,2.33548 -1.85683,3.47089 -1.48668,2.47871 -3.42505,6.4191 -5.28406,10.74157 -0.75258,1.74992 -1.82307,3.96204 -2.37886,4.91585 -0.55576,0.95381 -1.42288,2.77603 -1.92691,4.04938 -0.50403,1.27334 -1.25405,3.03103 -1.66671,3.90598 -1.10807,2.34944 -2.15208,5.18545 -2.50702,6.81026 -0.1722,0.78821 -0.51458,2.05136 -0.76085,2.807 -0.40945,1.25633 -0.52622,1.37381 -1.36455,1.37281 -0.50424,-5.9e-4 -1.33981,-0.25899 -1.85682,-0.57424 z m 28.0598,-99.571703 c 1.08618,-0.378643 5.79611,-3.065652 7.53468,-4.298519 0.66627,-0.472472 1.70311,-1.183632 2.30409,-1.580363 2.87149,-1.895556 9.30955,-8.203645 12.5264,-12.273528 2.95564,-3.739442 3.44774,-4.981221 3.4386,-8.677217 -0.006,-2.652539 -0.12301,-3.366594 -0.91949,-5.640195 -0.50158,-1.43174 -1.13182,-3.343785 -1.40052,-4.248989 -0.7964,-2.682835 -5.69748,-7.9184276 -8.62458,-9.2132306 -0.69638,-0.308034 -2.81226,-0.760132 -4.70197,-1.00465 -1.8897,-0.244516 -3.87398,-0.58633 -4.40953,-0.759582 -0.53553,-0.17326 -2.53534,-0.351472 -4.44401,-0.396034 -3.26389,-0.07617 -3.59121,-0.03116 -5.50235,0.756927 -2.55979,1.055565 -5.20694,3.210306 -8.31744,6.7702716 -2.80038,3.205017 -3.89691,4.766736 -5.29643,7.543293 -2.01827,4.004152 -4.29818,10.63319 -4.70074,13.667743 -0.42553,3.207813 1.09286,8.811737 3.31314,12.227868 2.24275,3.450684 4.15135,4.838224 8.69903,6.324184 1.5043,0.491527 3.3916,1.010464 4.194,1.153199 1.68525,0.299778 4.96338,0.117253 6.30712,-0.351178 z m -8.07005,-6.540373 c -0.62661,-0.453919 -1.34628,-1.141195 -1.59925,-1.527284 -0.75019,-1.144926 -1.15576,-3.683474 -1.05666,-6.613869 l 0.0929,-2.747786 0.90989,-0.08838 c 0.50044,-0.04862 1.34646,0.02541 1.88007,0.164528 l 0.97016,0.252921 -0.10298,2.872518 c -0.1071,2.988827 0.28302,5.251794 0.94944,5.507527 0.21029,0.08067 2.24122,-0.804579 4.51318,-1.967271 3.9336,-2.013046 4.22468,-2.113983 6.09596,-2.113983 1.09464,0 2.11237,0.147252 2.29756,0.332433 0.64951,0.649521 5.3e-4,1.47472 -1.68755,2.145755 -0.90915,0.361401 -3.44095,1.546092 -5.6262,2.632649 -4.6805,2.327238 -5.78264,2.493242 -7.63659,1.150247 z m -3.55517,-18.96687 c -0.76465,-0.788911 -0.92289,-1.143565 -0.77434,-1.735447 0.15382,-0.61283 0.3565,-0.743898 1.15038,-0.743898 2.56103,0 3.79075,1.369798 2.48115,2.763791 -0.90942,0.968041 -1.72161,0.887183 -2.85719,-0.284446 z m 16.16869,-1.480951 c -0.61849,-1.000731 -0.62095,-1.041013 -0.0993,-1.61748 0.39128,-0.432363 0.76905,-0.551994 1.4061,-0.445301 1.73621,0.290783 2.4619,0.723327 2.4619,1.467431 0,1.374881 -0.2652,1.621637 -1.74279,1.621637 -1.28208,0 -1.44163,-0.08085 -2.02595,-1.026287 z"
     id="path1"
     sodipodi:nodetypes="cssssssssssssssscssssssssssssssssssssssssssssssssssssssssssscsssssssssssssssscssssssssssssssssccsssssssssssssssssssssscsscsssssssssssssssssss" /><path
     style="fill:#ddaabb;fill-opacity:1;stroke-width:1.04049"
     d="M 0.28536753,148.57016 C 0.12789912,148.27592 -5.1867196e-4,147.62441 1.5751648e-6,147.12236 5.2182229e-4,146.62032 0.36800358,145.3088 0.81663349,144.20789 c 0.44861951,-1.10092 1.19889911,-2.55865 1.66726721,-3.2394 0.4683784,-0.68077 1.0958589,-1.94799 1.3944079,-2.81605 0.298549,-0.86806 1.0124634,-2.25966 1.5864832,-3.09244 0.5740199,-0.83277 2.0677014,-3.12463 3.3192912,-5.093 1.2516,-1.96838 3.014146,-4.63188 3.916775,-5.9189 0.902628,-1.28701 2.313466,-3.66402 3.135196,-5.28224 0.821741,-1.61822 1.657799,-3.04289 1.857927,-3.16592 0.200119,-0.12304 0.929131,-0.96701 1.620019,-1.87548 0.690898,-0.90849 1.781534,-2.51898 2.423644,-3.57888 0.64211,-1.05989 1.513409,-2.29873 1.936214,-2.75297 0.422805,-0.45424 1.087441,-1.46419 1.476971,-2.24435 0.38953,-0.78014 0.710304,-1.7712 0.712832,-2.20236 0.0021,-0.43117 0.04422,-1.4653 0.0926,-2.29807 0.04838,-0.832781 0.365838,-3.412707 0.705455,-5.733165 l 0.617471,-4.219038 -0.861654,-1.768684 -0.861643,-1.768695 -2.385927,-2.18e-4 c -1.31225,-1.25e-4 -3.315045,-0.191826 -4.450651,-0.425989 -1.135596,-0.234174 -2.560261,-0.566133 -3.165923,-0.7377 -0.60565,-0.171567 -1.163126,-0.330149 -1.238833,-0.352426 -0.07575,-0.02227 -0.579139,-0.133256 -1.118729,-0.246639 L 12.214745,85.189134 11.69378,84.221765 11.172815,83.254397 11.84897,82.719895 c 0.371883,-0.293971 1.047798,-0.734401 1.502047,-0.978741 0.454238,-0.244329 1.56919,-1.13855 2.477677,-1.987156 0.908476,-0.848607 2.437066,-2.339885 3.39686,-3.313975 0.959793,-0.974079 2.059918,-2.183831 2.444724,-2.688335 l 0.699649,-0.917289 -0.03017,-1.339387 c -0.01665,-0.73667 -0.148843,-1.651493 -0.293867,-2.032959 -0.176114,-0.463208 -0.159622,-1.03268 0.04963,-1.71462 0.172358,-0.561586 0.608689,-1.214569 0.969626,-1.451063 0.448661,-0.293971 1.193156,-0.410943 2.353473,-0.369771 0.93348,0.03309 1.895666,0.118731 2.138216,0.190244 l 0.440982,0.13002 0.188704,-2.689758 c 0.103842,-1.479364 0.262923,-3.768701 0.353623,-5.087403 l 0.164928,-2.397652 -0.656968,-0.254942 c -0.361322,-0.140217 -1.400266,-0.46816 -2.308742,-0.728762 -0.908487,-0.260603 -2.597833,-0.962666 -3.754103,-1.560128 -1.467305,-0.758166 -2.655092,-1.65887 -3.932371,-2.9819 L 16.222827,48.650704 15.0019,46.073306 13.780984,43.495918 13.310837,40.619139 12.84069,37.74236 l 0.04578,-6.356453 0.04578,-6.356462 0.538289,-3.148619 c 0.296052,-1.731736 1.053376,-4.693878 1.682937,-6.582521 0.629562,-1.888642 1.440502,-3.949539 1.802074,-4.579766 0.361582,-0.630227 0.975359,-1.52371 1.363953,-1.985523 0.388593,-0.461813 1.659546,-1.5603668 2.824349,-2.4412388 1.164802,-0.8808617 2.737238,-1.989321 3.494302,-2.4632453 0.757074,-0.4739139 1.872026,-0.9960235 2.477677,-1.1602447 0.605661,-0.1642109 1.463091,-0.299267 1.905405,-0.3001098 0.442324,-8.428e-4 1.01342,-0.1908579 1.269112,-0.4222534 0.25568,-0.2313955 0.993141,-0.5109035 1.638778,-0.621123 0.698577,-0.1192511 2.5813,-0.021122 4.649792,0.2422687 1.911742,0.2434652 4.270625,0.708795 5.241968,1.034064 0.971343,0.3252689 1.9199,0.5913961 2.107896,0.5913961 0.187997,0 1.173459,0.3731316 2.189908,0.8291803 1.016448,0.4560486 2.235855,1.1541474 2.709811,1.5513145 0.473945,0.397167 1.643512,1.4177358 2.59904,2.2679133 0.955527,0.8501878 1.969666,1.9192852 2.253648,2.3757711 0.283982,0.456495 0.843352,1.943102 1.243047,3.303569 0.408758,1.391328 0.888759,4.05518 1.097087,6.088441 0.258459,2.522502 0.294002,4.223127 0.117628,5.627794 -0.139021,1.107128 -0.562824,3.299605 -0.941793,4.872167 -0.378958,1.572572 -1.019331,3.685701 -1.423042,4.695854 -0.403712,1.010154 -1.402379,2.889651 -2.21926,4.176669 -0.816882,1.287008 -2.45025,3.677752 -3.629702,5.312753 -1.179463,1.634992 -2.565599,3.414226 -3.080321,3.953837 -0.514722,0.539611 -1.75368,1.639195 -2.753231,2.443507 -0.999561,0.804313 -2.671989,2.013034 -3.71652,2.686036 -1.044521,0.673002 -2.739174,1.505658 -3.765882,1.850342 -1.026708,0.344685 -1.921387,0.715122 -1.988177,0.823187 -0.0668,0.108066 -0.307081,1.731518 -0.533981,3.607675 -0.226901,1.876157 -0.406511,4.638825 -0.399144,6.139277 l 0.01342,2.728082 1.699086,1.935933 c 0.934488,1.064759 2.263553,2.500631 2.953484,3.190811 0.689921,0.690181 1.871631,1.74621 2.62602,2.346731 0.7544,0.600521 2.543707,2.439595 3.976249,4.086822 1.432542,1.647238 3.876882,4.31494 5.431869,5.928227 1.554988,1.613296 3.010629,3.292977 3.234751,3.732627 0.224123,0.43965 0.407489,0.957161 0.407489,1.150027 0,0.192877 -0.326413,0.60743 -0.72537,0.921254 -0.398946,0.313813 -0.897468,0.570576 -1.107825,0.570576 -0.210357,0 -1.199232,-0.836225 -2.197503,-1.858261 -0.998271,-1.022046 -2.508351,-2.632533 -3.355719,-3.578873 -0.847378,-0.94633 -1.690626,-1.720603 -1.873899,-1.720603 -0.183262,0 -0.621372,-0.375275 -0.973569,-0.833936 -0.352197,-0.45866 -1.235275,-1.575963 -1.962393,-2.482889 -0.727129,-0.906926 -1.695319,-2.030816 -2.151545,-2.49753 -0.456236,-0.466714 -0.892411,-0.785677 -0.969282,-0.708795 -0.07689,0.07689 0.178985,1.148841 0.568578,2.382128 0.389602,1.233298 0.708358,2.538369 0.708358,2.900149 0,0.36178 0.133932,0.740551 0.297623,0.841718 0.198183,0.122487 0.248595,1.143805 0.150871,3.056743 l -0.146761,2.872795 -0.840543,1.469115 c -0.563407,0.984724 -1.129498,1.588804 -1.716909,1.832113 -0.482009,0.19966 -1.131756,0.390144 -1.443884,0.423304 -0.312127,0.03319 -0.93915,0.07023 -1.393398,0.0823 -0.454238,0.01207 -1.190773,-0.0083 -1.636739,-0.04641 l -0.810837,-0.06836 -0.223643,0.963539 c -0.123008,0.529955 -0.285668,2.574037 -0.361479,4.542413 -0.07585,1.968373 -0.197038,3.841443 -0.269404,4.162363 -0.08501,0.37696 0.693968,2.19688 2.200666,5.14144 1.282732,2.50686 2.589769,5.21749 2.904529,6.02363 0.31477,0.80614 1.621819,3.60944 2.904571,6.22956 1.282742,2.62012 2.564933,5.34556 2.84931,6.05654 0.284378,0.71098 1.378863,3.02706 2.432187,5.14686 1.053323,2.11979 2.3827,4.90062 2.954182,6.17963 0.571481,1.27902 1.096597,2.8361 1.166945,3.46019 0.09406,0.83458 0.0021,1.26077 -0.348618,1.61124 -0.342978,0.34298 -0.825705,0.45339 -1.72259,0.39397 -0.766563,-0.0508 -1.325163,-0.24145 -1.451593,-0.49549 -0.113029,-0.22712 -0.35819,-1.09431 -0.544782,-1.92708 -0.186603,-0.83278 -0.881091,-2.65959 -1.543303,-4.05958 -0.662212,-1.40001 -1.201927,-2.63884 -1.199367,-2.75298 0.0021,-0.11414 -0.668393,-1.57025 -1.491008,-3.23579 -0.822615,-1.66555 -2.749579,-5.60677 -4.282154,-8.75825 -1.532575,-3.15149 -2.859413,-6.1247 -2.948532,-6.60714 -0.08917,-0.48244 -0.844538,-2.20492 -1.678712,-3.82772 -0.834165,-1.6228 -1.747646,-3.15958 -2.029942,-3.41505 l -0.513286,-0.46452 -0.585705,0.52444 c -0.322137,0.28844 -1.295811,1.57745 -2.163708,2.86447 -0.867907,1.28701 -2.27271,3.26315 -3.121805,4.39143 -0.849085,1.12829 -2.109373,3.11043 -2.800626,4.40476 -0.691262,1.29434 -2.398724,3.99084 -3.794349,5.99222 -1.395636,2.00137 -3.138308,4.57869 -3.872605,5.72739 -0.734309,1.14868 -2.5014948,4.31272 -3.9270864,7.03119 -1.4255916,2.71847 -2.7695772,5.62448 -2.9866347,6.45783 -0.2170575,0.83333 -0.4750168,1.6452 -0.5732395,1.80413 -0.098223,0.15894 -0.4453003,0.38707 -0.7712768,0.50698 -0.325966,0.1199 -0.9284018,0.29921 -1.3387311,0.39845 l -0.74605517,0.18043 z M 34.007984,89.466616 c 0.457995,-0.300089 0.678548,-0.69916 0.678548,-1.227752 v -0.783149 l -0.757063,0.04807 c -0.416385,0.02643 -1.097753,-0.04287 -1.514138,-0.153983 -0.521412,-0.139124 -0.757063,-0.09791 -0.757063,0.132559 0,0.184012 0.326559,0.80579 0.725682,1.381735 0.399123,0.575934 0.775137,1.047164 0.835579,1.047164 0.06045,0 0.415241,-0.200077 0.788455,-0.444614 z m -9.422778,-5.906001 c 0.08189,-0.313158 0.04755,-0.901599 -0.07637,-1.307662 -0.123902,-0.406064 -0.365339,-1.419661 -0.536531,-2.252431 -0.171193,-0.832781 -0.427654,-1.69997 -0.56992,-1.927089 l -0.258667,-0.412941 -1.455142,1.395917 c -0.800327,0.767749 -2.105534,1.877186 -2.90045,2.465419 -0.794928,0.588234 -1.445309,1.229875 -1.445309,1.425883 0,0.196009 0.09292,0.361843 0.206465,0.368523 0.113559,0.0062 0.825892,0.184146 1.582966,0.394368 0.757064,0.210221 2.260193,0.390581 3.340278,0.400798 l 1.963798,0.01863 z m 9.299532,-0.295522 c 0.105392,-0.170516 0.09042,-0.634129 -0.0333,-1.030245 -0.123683,-0.396106 -0.467484,-1.339616 -0.763993,-2.096679 -0.29651,-0.757074 -0.743132,-1.846045 -0.992496,-2.41995 -0.249355,-0.573906 -0.561285,-0.976785 -0.693157,-0.895283 -0.131872,0.08147 -0.328109,1.562021 -0.436081,3.290042 -0.107973,1.728022 -0.103842,3.291417 0.0094,3.474221 0.138896,0.224737 0.61231,0.276595 1.461842,0.160163 0.691034,-0.09468 1.342654,-0.311742 1.448046,-0.482269 z M 27.8041,74.632217 v -1.238834 h -0.412941 c -0.227119,0 -0.412951,0.17034 -0.412951,0.378532 0,0.208193 0.07741,0.765669 0.172066,1.238833 0.09458,0.473176 0.280455,0.860312 0.412941,0.860312 0.132486,0 0.240885,-0.557486 0.240885,-1.238843 z m 6.607138,-22.144556 c 0.681368,-0.35127 2.227834,-1.332925 3.436607,-2.181437 1.208774,-0.848513 2.881212,-2.227168 3.716521,-3.063673 0.835309,-0.836506 2.681458,-3.183007 4.102544,-5.214448 1.421086,-2.03144 3.053497,-4.570079 3.627558,-5.641414 0.574072,-1.071345 1.475858,-3.248673 2.003971,-4.838517 0.528103,-1.589844 1.118178,-3.571985 1.311283,-4.404766 0.193501,-0.834549 0.337474,-2.996852 0.320764,-4.817696 -0.01665,-1.816963 -0.219742,-4.510314 -0.451273,-5.985225 -0.231531,-1.4749 -0.655709,-3.209279 -0.942615,-3.854157 C 51.249682,11.84144 50.112172,10.349403 49.008801,9.1706791 47.905419,7.9919656 46.472814,6.717048 45.825221,6.3375381 45.177628,5.9580178 43.419963,5.3444696 41.919299,4.9740848 39.967613,4.4923776 38.294925,4.2842372 36.043961,4.2430024 34.313193,4.2112673 32.014169,4.3176058 30.93502,4.4792362 29.787729,4.6510842 28.392062,5.0892884 27.574119,5.5344638 26.804778,5.9532003 25.1804,7.0918132 23.964416,8.0647274 22.748422,9.0376415 21.27221,10.50581 20.683946,11.327311 c -0.675531,0.943364 -1.431398,2.585223 -2.051699,4.456583 -0.540162,1.629622 -1.176695,3.892072 -1.4145,5.027678 -0.237805,1.135596 -0.568692,3.613273 -0.735286,5.505942 -0.166604,1.89267 -0.234444,5.485309 -0.150767,7.983629 0.08366,2.498321 0.345256,5.595425 0.581282,6.882433 0.260425,1.420098 0.823385,3.143718 1.431991,4.384372 0.551576,1.124389 1.501235,2.585004 2.110351,3.245822 0.609116,0.660807 1.850134,1.661055 2.75783,2.222766 0.907696,0.561711 2.342954,1.298298 3.189479,1.636864 l 1.53912,0.615567 2.615324,-0.08126 2.615334,-0.08126 z m -6.201085,-9.652498 c -0.458036,-0.142309 -1.24234,-0.681295 -1.742901,-1.197744 -0.517843,-0.534273 -1.197151,-1.72977 -1.576068,-2.773667 -0.366275,-1.009071 -0.665947,-2.079469 -0.665947,-2.378653 0,-0.305635 0.286822,-0.674656 0.654616,-0.842238 l 0.654627,-0.298268 0.992247,0.470854 0.992246,0.470845 0.46944,1.553926 c 0.258199,0.854662 0.7156,1.832664 1.016449,2.173353 0.303543,0.343717 0.866055,0.619417 1.263846,0.619417 0.394264,0 1.580542,-0.419829 2.636165,-0.932959 1.055623,-0.51313 2.538338,-1.38032 3.294923,-1.927089 0.756585,-0.546759 1.573592,-0.99412 1.81559,-0.99412 0.241987,0 0.651027,0.233196 0.908965,0.518218 0.304168,0.336101 0.410392,0.751685 0.302253,1.182533 -0.09167,0.365369 -0.572792,0.988313 -1.069087,1.384315 -0.496295,0.396001 -1.899641,1.242111 -3.118538,1.880235 l -2.21618,1.160224 -1.889933,0.09479 c -1.039454,0.05213 -2.264677,-0.02164 -2.722713,-0.163961 z M 23.647492,27.387923 C 23.254029,27.243492 22.761407,26.80637 22.552777,26.416548 l -0.379312,-0.708763 0.643432,-0.521028 c 0.353892,-0.286563 1.032336,-0.519331 1.507665,-0.517261 0.475319,0.0021 1.127854,0.0745 1.450075,0.160975 0.32222,0.08647 0.735171,0.484922 0.917653,0.88544 l 0.331803,0.72821 -0.726535,0.624942 c -0.399602,0.343717 -0.998365,0.615161 -1.330605,0.603206 -0.33224,-0.01197 -0.925998,-0.139905 -1.319461,-0.284346 z m 14.410013,-4.993395 c -0.151423,-0.189266 -0.355214,-0.60537 -0.452865,-0.924677 -0.103841,-0.339388 -0.03205,-0.695705 0.172774,-0.857773 0.192689,-0.152463 0.695415,-0.33944 1.117169,-0.4155 l 0.766823,-0.138282 0.852591,0.796446 0.852592,0.796436 -0.492071,0.543742 c -0.322126,0.355943 -0.846005,0.543731 -1.516884,0.543731 -0.563646,0 -1.148706,-0.154857 -1.300129,-0.344123 z"
     id="path2-8" /></svg>
