<?xml version="1.0" encoding="UTF-8" standalone="no"?>
<!-- Created with Inkscape (http://www.inkscape.org/) -->

<svg
   width="54.059181mm"
   height="142.07721mm"
   viewBox="0 0 54.059176 142.07719"
   version="1.1"
   id="svg1"
   xml:space="preserve"
   xmlns="http://www.w3.org/2000/svg"
   xmlns:svg="http://www.w3.org/2000/svg"><defs
     id="defs1" /><g
     id="layer1"
     transform="translate(-124.55374,-473.12088)"><path
       style="fill:#ddaabb;fill-opacity:1"
       d="m 124.828,614.68395 c -0.15134,-0.28279 -0.27476,-0.90894 -0.27426,-1.39145 5e-4,-0.48251 0.35368,-1.74298 0.78485,-2.80105 0.43116,-1.05807 1.15224,-2.45907 1.60238,-3.11333 0.45015,-0.65427 1.05321,-1.87217 1.34014,-2.70645 0.28693,-0.83428 0.97306,-2.17172 1.52474,-2.97209 0.55168,-0.80036 1.98723,-3.00302 3.19011,-4.89479 1.20289,-1.89177 2.89684,-4.45161 3.76434,-5.68854 0.8675,-1.23693 2.22343,-3.52143 3.01318,-5.07667 0.78976,-1.55524 1.59328,-2.92446 1.78562,-3.04271 0.19233,-0.11825 0.89297,-0.92937 1.55697,-1.80249 0.66401,-0.87313 1.7122,-2.42094 2.32932,-3.43959 0.61712,-1.01864 1.45451,-2.20927 1.86086,-2.64583 0.40635,-0.43656 1.04512,-1.40721 1.41949,-2.157 0.37437,-0.74978 0.68266,-1.70228 0.68509,-2.11666 0.002,-0.41439 0.0425,-1.40827 0.089,-2.20863 0.0465,-0.80037 0.3516,-3.27989 0.678,-5.51004 l 0.59344,-4.05484 -0.82812,-1.69985 -0.82811,-1.69986 -2.29307,-2.1e-4 c -1.26118,-1.2e-4 -3.18603,-0.18436 -4.27744,-0.40941 -1.0914,-0.22506 -2.46062,-0.5441 -3.04271,-0.70899 -0.58208,-0.16489 -1.11786,-0.3173 -1.19062,-0.33871 -0.0728,-0.0214 -0.5566,-0.12807 -1.07519,-0.23704 l -0.9429,-0.19812 -0.50069,-0.92972 -0.50069,-0.92972 0.64984,-0.5137 c 0.35741,-0.28253 1.00702,-0.70582 1.44359,-0.94065 0.43656,-0.23482 1.50812,-1.09424 2.38125,-1.90982 0.87312,-0.81558 2.34222,-2.24882 3.26466,-3.185 0.92244,-0.93617 1.97975,-2.09884 2.34958,-2.58371 l 0.67242,-0.88159 -0.029,-1.28726 c -0.016,-0.708 -0.14305,-1.58722 -0.28243,-1.95384 -0.16926,-0.44518 -0.15341,-0.99249 0.0477,-1.64789 0.16565,-0.53973 0.585,-1.1673 0.93189,-1.39459 0.4312,-0.28253 1.14672,-0.39495 2.26188,-0.35538 0.89715,0.0318 1.82189,0.11411 2.055,0.18284 l 0.42382,0.12496 0.18136,-2.58508 c 0.0998,-1.42179 0.25269,-3.62203 0.33986,-4.88941 l 0.15851,-2.30434 -0.6314,-0.24502 c -0.34726,-0.13476 -1.34577,-0.44994 -2.21889,-0.7004 -0.87313,-0.25046 -2.49673,-0.9252 -3.608,-1.49941 -1.4102,-0.72866 -2.55176,-1.59431 -3.77933,-2.86585 l -1.75884,-1.82184 -1.17341,-2.47709 -1.1734,-2.47708 -0.45185,-2.76482 -0.45185,-2.76482 0.044,-6.10907 0.044,-6.10908 0.51734,-3.02608 c 0.28453,-1.66434 1.01238,-4.5112 1.61744,-6.32634 0.60506,-1.81514 1.38444,-3.79583 1.73194,-4.40153 0.34751,-0.6057 0.9374,-1.46441 1.31087,-1.90825 0.37347,-0.44384 1.59496,-1.49964 2.71443,-2.34623 1.11947,-0.84658 2.63071,-1.9119 3.35831,-2.36738 0.72761,-0.45547 1.79917,-0.95726 2.38125,-1.11509 0.58209,-0.15782 1.40615,-0.28762 1.83125,-0.28843 0.42511,-8.1e-4 0.97398,-0.18343 1.21972,-0.40582 0.24573,-0.22239 0.95449,-0.49102 1.575,-0.59695 0.67139,-0.11461 2.48084,-0.0203 4.46883,0.23284 1.83734,0.23399 4.10442,0.68121 5.03796,0.99382 0.93354,0.31261 1.84518,0.56838 2.02586,0.56838 0.18068,0 1.12779,0.35861 2.10468,0.79691 0.97689,0.4383 2.14884,1.10923 2.60435,1.49094 0.4555,0.38171 1.57955,1.36256 2.49789,2.17965 0.91834,0.8171 1.89301,1.84459 2.16594,2.28331 0.27293,0.43873 0.81053,1.86748 1.19467,3.175 0.39285,1.33718 0.85417,3.89736 1.05439,5.85149 0.2484,2.42433 0.28256,4.05877 0.11305,5.40877 -0.13361,1.06404 -0.54092,3.17119 -0.90514,4.68255 -0.36421,1.51137 -0.97966,3.54226 -1.36766,4.5131 -0.388,0.97084 -1.3478,2.77719 -2.13289,4.01412 -0.78509,1.23692 -2.35489,3.53462 -3.48844,5.10599 -1.13356,1.57136 -2.46575,3.28135 -2.96044,3.79996 -0.49469,0.51861 -1.68543,1.5754 -2.64608,2.34841 -0.96066,0.77301 -2.568,1.93469 -3.57188,2.5815 -1.00387,0.64681 -2.63257,1.44706 -3.61932,1.77833 -0.98675,0.33127 -1.84661,0.68729 -1.9108,0.79115 -0.0642,0.10386 -0.29513,1.66413 -0.5132,3.46727 -0.21807,1.80314 -0.39069,4.45829 -0.38361,5.90035 l 0.0129,2.62191 1.63296,1.86059 c 0.89812,1.02332 2.17546,2.40331 2.83854,3.06663 0.66307,0.66332 1.79879,1.67825 2.52382,2.2554 0.72504,0.57715 2.44471,2.34465 3.8215,3.92777 1.37679,1.58313 3.726,4.14701 5.22047,5.69751 1.49447,1.55051 2.89346,3.16482 3.10886,3.58736 0.2154,0.42254 0.39163,0.91991 0.39163,1.10527 0,0.18537 -0.31371,0.58379 -0.69714,0.8854 -0.38342,0.3016 -0.86254,0.54837 -1.06471,0.54837 -0.20217,0 -1.15256,-0.80368 -2.11198,-1.78594 -0.95942,-0.98227 -2.41073,-2.53008 -3.22512,-3.43959 -0.8144,-0.9095 -1.62483,-1.65364 -1.80097,-1.65364 -0.17613,0 -0.59719,-0.36067 -0.93568,-0.80148 -0.33849,-0.44081 -1.1872,-1.51463 -1.88602,-2.38626 -0.69883,-0.87163 -1.62934,-1.95178 -2.06781,-2.40033 -0.43848,-0.44855 -0.85768,-0.7551 -0.93156,-0.68121 -0.0739,0.0739 0.17202,1.10413 0.54645,2.28942 0.37444,1.1853 0.68079,2.43958 0.68079,2.78728 0,0.3477 0.12872,0.71173 0.28604,0.80896 0.19047,0.11772 0.23892,1.09929 0.145,2.93778 l -0.14105,2.76099 -0.80783,1.41194 c -0.54148,0.9464 -1.08554,1.52697 -1.65009,1.76081 -0.46325,0.19189 -1.08771,0.37496 -1.38769,0.40683 -0.29998,0.0319 -0.9026,0.0675 -1.33917,0.0791 -0.43656,0.0116 -1.14443,-0.008 -1.57304,-0.0446 l -0.77928,-0.0657 -0.21494,0.92604 c -0.11822,0.50933 -0.27455,2.47386 -0.34741,4.36563 -0.0729,1.89177 -0.18937,3.69194 -0.25892,4.00038 -0.0817,0.36229 0.66696,2.11138 2.11502,4.94134 1.23281,2.4093 2.48898,5.01444 2.79149,5.7892 0.30252,0.77477 1.5587,3.46897 2.79153,5.98712 1.23282,2.51815 2.46511,5.13752 2.73842,5.82083 0.27331,0.68331 1.3252,2.90925 2.33753,4.94655 1.01233,2.03729 2.28997,4.7099 2.83921,5.93913 0.54924,1.22924 1.05392,2.72572 1.12153,3.32553 0.0904,0.8021 0.002,1.2117 -0.33505,1.54853 -0.32963,0.32963 -0.79357,0.43574 -1.65555,0.37864 -0.73673,-0.0488 -1.27359,-0.23206 -1.3951,-0.47621 -0.10863,-0.21828 -0.34425,-1.05172 -0.52358,-1.85208 -0.17934,-0.80037 -0.8468,-2.55608 -1.48324,-3.90159 -0.63644,-1.34552 -1.15515,-2.53614 -1.15269,-2.64584 0.002,-0.1097 -0.64238,-1.50914 -1.43298,-3.10986 -0.7906,-1.60073 -2.64257,-5.38856 -4.1155,-8.41739 -1.47293,-3.02884 -2.74813,-5.88634 -2.83378,-6.35 -0.0857,-0.46367 -0.81167,-2.11911 -1.61338,-3.67875 -0.8017,-1.55965 -1.67963,-3.03662 -1.95094,-3.28215 l -0.49331,-0.44644 -0.56291,0.50403 c -0.3096,0.27722 -1.24538,1.51606 -2.0795,2.75299 -0.83413,1.23692 -2.18426,3.13616 -3.00031,4.22053 -0.81604,1.08437 -2.02728,2.98937 -2.69163,4.23333 -0.66436,1.24397 -2.30537,3.83552 -3.64668,5.75901 -1.34132,1.92348 -3.01617,4.4005 -3.72189,5.50449 -0.70573,1.10398 -2.40414,4.14488 -3.77425,6.75755 -1.37011,2.61267 -2.66179,5.40559 -2.8704,6.2065 -0.20861,0.8009 -0.45653,1.58117 -0.55093,1.73392 -0.0944,0.15275 -0.42797,0.37201 -0.74126,0.48725 -0.31328,0.11523 -0.89227,0.28756 -1.28663,0.38294 l -0.71702,0.17341 z m 32.41019,-56.80334 c 0.44017,-0.28841 0.65214,-0.67195 0.65214,-1.17997 v -0.75267 l -0.7276,0.0462 c -0.40018,0.0254 -1.05503,-0.0412 -1.45521,-0.14799 -0.50112,-0.13371 -0.7276,-0.0941 -0.7276,0.1274 0,0.17685 0.31385,0.77443 0.69744,1.32796 0.38359,0.55352 0.74497,1.00641 0.80306,1.00641 0.0581,0 0.39908,-0.19229 0.75777,-0.42731 z m -9.05606,-5.67615 c 0.0787,-0.30097 0.0457,-0.86651 -0.0734,-1.25677 -0.11908,-0.39026 -0.35112,-1.36441 -0.51565,-2.16477 -0.16453,-0.80037 -0.41101,-1.63381 -0.54774,-1.85209 l -0.2486,-0.39687 -1.39851,1.34159 c -0.76918,0.73787 -2.02359,1.80413 -2.78757,2.36947 -0.76399,0.56534 -1.38906,1.18201 -1.38906,1.37039 0,0.18838 0.0893,0.34776 0.19843,0.35418 0.10914,0.006 0.79375,0.17698 1.52136,0.37902 0.7276,0.20204 2.17223,0.37538 3.21028,0.3852 l 1.88737,0.0179 z m 8.93761,-0.28402 c 0.10129,-0.16388 0.0869,-0.60945 -0.032,-0.99015 -0.11887,-0.38069 -0.44929,-1.28748 -0.73426,-2.01508 -0.28497,-0.72761 -0.71421,-1.7742 -0.95387,-2.32577 -0.23965,-0.55157 -0.53944,-0.93877 -0.66618,-0.86044 -0.12674,0.0783 -0.31534,1.50123 -0.41911,3.162 -0.10377,1.66077 -0.0998,3.16332 0.009,3.33901 0.13349,0.21599 0.58848,0.26583 1.40495,0.15393 0.66414,-0.091 1.2904,-0.29961 1.39169,-0.4635 z m -5.84399,-8.2969 v -1.19062 h -0.39687 c -0.21828,0 -0.39688,0.16371 -0.39688,0.3638 0,0.20009 0.0744,0.73587 0.16537,1.19062 0.0909,0.45476 0.26954,0.82683 0.39687,0.82683 0.12733,0 0.23151,-0.53579 0.23151,-1.19063 z m 6.35,-21.28273 c 0.65485,-0.3376 2.14113,-1.28105 3.30286,-2.09654 1.16173,-0.81549 2.76908,-2.14049 3.57188,-2.94444 0.8028,-0.80395 2.5771,-3.05913 3.94288,-5.01151 1.36578,-1.95238 2.93466,-4.39222 3.48638,-5.42186 0.55173,-1.02965 1.41842,-3.12224 1.92598,-4.65021 0.50755,-1.52797 1.07466,-3.43297 1.26025,-4.23334 0.18597,-0.80207 0.32434,-2.88022 0.30828,-4.6302 -0.016,-1.74625 -0.21119,-4.33478 -0.43371,-5.75229 -0.22252,-1.4175 -0.63019,-3.08438 -0.90593,-3.70416 -0.27575,-0.61979 -1.36899,-2.05376 -2.42942,-3.18661 -1.06044,-1.13284 -2.43729,-2.35814 -3.05968,-2.72288 -0.62239,-0.36475 -2.31165,-0.95442 -3.75391,-1.31039 -1.87573,-0.46296 -3.48332,-0.663 -5.64668,-0.70263 -1.66341,-0.0305 -3.87296,0.0717 -4.91011,0.22704 -1.10264,0.16516 -2.44399,0.58631 -3.2301,1.01416 -0.7394,0.40244 -2.30056,1.49674 -3.46922,2.43179 -1.16867,0.93505 -2.58743,2.34608 -3.1528,3.13561 -0.64924,0.90665 -1.37569,2.48461 -1.97185,4.28314 -0.51914,1.5662 -1.1309,3.7406 -1.35945,4.83201 -0.22855,1.0914 -0.54656,3.47265 -0.70667,5.29166 -0.16012,1.81901 -0.22532,5.27183 -0.1449,7.67292 0.0804,2.40109 0.33182,5.37766 0.55866,6.61458 0.25029,1.36483 0.79134,3.02137 1.37626,4.21374 0.53011,1.08063 1.44281,2.4844 2.02822,3.1195 0.58541,0.63509 1.77813,1.59641 2.6505,2.13626 0.87237,0.53985 2.25177,1.24777 3.06535,1.57316 l 1.47922,0.59161 2.51354,-0.0781 2.51355,-0.0781 z m -5.95975,-9.27684 c -0.44021,-0.13677 -1.19399,-0.65478 -1.67507,-1.15113 -0.49769,-0.51348 -1.15056,-1.66245 -1.51473,-2.66572 -0.35202,-0.9698 -0.64003,-1.99854 -0.64003,-2.28608 0,-0.29374 0.27566,-0.6484 0.62914,-0.80946 l 0.62915,-0.28666 0.95363,0.45253 0.95363,0.45252 0.45117,1.49345 c 0.24815,0.8214 0.68775,1.76134 0.97689,2.08877 0.29173,0.33034 0.83235,0.59531 1.21466,0.59531 0.37892,0 1.51903,-0.40349 2.53357,-0.89665 1.01454,-0.49316 2.43955,-1.3266 3.16669,-1.85209 0.72714,-0.52548 1.51235,-0.95543 1.74493,-0.95543 0.23257,0 0.62569,0.22412 0.87359,0.49805 0.29233,0.32302 0.39442,0.72243 0.29049,1.13651 -0.0881,0.35115 -0.5505,0.94985 -1.02748,1.33044 -0.47698,0.38059 -1.82571,1.19377 -2.99717,1.80706 l -2.12993,1.11507 -1.81638,0.0911 c -0.999,0.0501 -2.17654,-0.0208 -2.61675,-0.15758 z m -4.38509,-14.84606 c -0.37815,-0.13881 -0.8516,-0.55892 -1.05211,-0.93357 l -0.36455,-0.68118 0.61839,-0.50075 c 0.34012,-0.27541 0.99216,-0.49912 1.44899,-0.49713 0.45682,0.002 1.08396,0.0716 1.39364,0.15471 0.30968,0.0831 0.70656,0.46605 0.88194,0.85098 l 0.31889,0.69987 -0.69826,0.60062 c -0.38405,0.33034 -0.95951,0.59122 -1.27882,0.57973 -0.31931,-0.0115 -0.88996,-0.13446 -1.26811,-0.27328 z m 13.8492,-4.79906 c -0.14553,-0.1819 -0.34139,-0.58181 -0.43524,-0.88869 -0.0998,-0.32618 -0.0308,-0.66863 0.16605,-0.82439 0.18519,-0.14653 0.66835,-0.32623 1.07369,-0.39933 l 0.73698,-0.1329 0.81941,0.76545 0.81941,0.76544 -0.47292,0.52258 c -0.30959,0.34209 -0.81308,0.52257 -1.45785,0.52257 -0.54171,0 -1.104,-0.14883 -1.24953,-0.33073 z"
       id="path2" /></g></svg>
