<?xml version="1.0" encoding="UTF-8" standalone="no"?>
<!-- Created with Inkscape (http://www.inkscape.org/) -->

<svg
   width="267.29684mm"
   height="422.85852mm"
   viewBox="0 0 267.29684 422.85852"
   version="1.1"
   id="svg1"
   xml:space="preserve"
   xmlns="http://www.w3.org/2000/svg"
   xmlns:svg="http://www.w3.org/2000/svg"><defs
     id="defs1" /><g
     id="layer1"
     transform="translate(38.134886,-101.29659)"><path
       style="fill:#ddaabb;fill-opacity:1"
       d="m 6.7218274,524.10191 c -0.4525204,-0.0995 -1.1040907,-0.3779 -1.447934,-0.61874 -0.3438434,-0.24084 -0.8817553,-0.43788 -1.1953599,-0.43788 -0.3136045,0 -0.7093076,-0.16763 -0.8793401,-0.37251 -0.1700325,-0.20487 -0.7203923,-0.56765 -1.2230219,-0.80616 l -0.9138718,-0.43366 v -0.76572 c 0,-0.42115 -0.13047034,-0.84636 -0.28993405,-0.94491 -0.18940829,-0.11706 -0.22334395,-0.60409 -0.0978765,-1.40468 0.10563168,-0.67402 0.17641566,-2.43047 0.15729774,-3.90323 -0.0231842,-1.786 0.0975219,-3.05266 0.36245971,-3.80357 0.2184708,-0.61922 0.3972198,-1.54355 0.3972198,-2.05407 0,-0.51052 0.1285502,-1.41829 0.2856673,-2.01726 0.1571172,-0.59896 0.4731432,-1.74387 0.7022802,-2.54423 0.2291371,-0.80037 0.5787411,-1.93146 0.7768978,-2.51355 0.1981568,-0.58208 0.4676038,-2.36802 0.5987711,-3.96875 l 0.2384864,-2.91041 0.9677118,-2.91042 c 0.5322416,-1.60073 1.2431826,-3.92245 1.5798691,-5.15937 0.3366865,-1.23693 1.0467311,-3.73724 1.577877,-5.55625 0.5311456,-1.81901 1.3895422,-4.61698 1.9075479,-6.21771 0.518006,-1.60073 1.162458,-3.56526 1.432116,-4.36563 0.269658,-0.80036 0.681893,-2.22911 0.916078,-3.175 0.234186,-0.94588 0.598019,-2.37463 0.808518,-3.175 0.210499,-0.80036 0.692751,-2.52677 1.071671,-3.83646 0.37892,-1.30968 1.030305,-3.6314 1.447522,-5.15937 0.417218,-1.52797 0.9506,-3.55203 1.185295,-4.49792 0.234695,-0.94588 0.586712,-2.07698 0.78226,-2.51354 0.195548,-0.43656 0.621089,-1.98437 0.945645,-3.43958 0.324556,-1.45521 0.924554,-3.95552 1.333328,-5.55625 0.408774,-1.60073 1.279208,-4.93448 1.934297,-7.40834 0.655089,-2.47385 1.734101,-6.70057 2.397804,-9.3927 0.663702,-2.69214 1.3218,-5.19245 1.462439,-5.55625 0.140639,-0.36381 0.737689,-2.98318 1.326779,-5.82084 0.58909,-2.83765 1.312863,-6.76672 1.608385,-8.73125 0.295522,-1.96453 0.892895,-4.88156 1.327496,-6.48229 0.4346,-1.60073 1.130391,-4.33917 1.5462,-6.08542 0.41581,-1.74625 0.951584,-3.88937 1.190609,-4.7625 0.239025,-0.87312 0.54146,-2.00421 0.672078,-2.51354 0.130618,-0.50932 0.727264,-2.89057 1.32588,-5.29166 0.598615,-2.4011 1.43996,-5.85391 1.869653,-7.67292 0.429694,-1.81901 1.026699,-4.43839 1.326678,-5.82083 0.299979,-1.38245 0.889185,-3.70417 1.309346,-5.15938 0.420161,-1.45521 1.002727,-3.30068 1.294591,-4.10104 0.291864,-0.80037 0.84712,-1.71153 1.233902,-2.02481 0.420586,-0.34067 1.246174,-0.62928 2.054052,-0.71807 0.742947,-0.0817 2.541438,-0.22631 3.996646,-0.32146 1.618269,-0.10581 2.919658,-0.33201 3.350892,-0.58243 0.387782,-0.22519 0.837395,-0.69988 0.99914,-1.05488 0.161745,-0.35499 0.361143,-1.37711 0.443105,-2.27137 0.08196,-0.89427 0.330079,-2.20218 0.55137,-2.90647 0.284221,-0.90458 0.319743,-1.36314 0.120991,-1.56189 -0.198322,-0.19832 -0.198611,-0.43596 -9.79e-4,-0.80524 0.154207,-0.28814 0.447955,-1.43076 0.652775,-2.53916 0.204819,-1.10839 0.499109,-3.08682 0.653979,-4.39651 0.154869,-1.30969 0.522401,-3.36661 0.816738,-4.57094 l 0.535157,-2.18969 -0.309787,-0.37328 c -0.170384,-0.2053 -0.986065,-0.45097 -1.812626,-0.54595 -0.826561,-0.095 -2.098151,-0.3375 -2.825755,-0.53895 -0.727604,-0.20145 -2.394479,-0.67886 -3.704167,-1.0609 -1.309687,-0.38204 -2.797968,-0.79285 -3.307291,-0.91292 -0.509323,-0.12007 -2.473855,-0.62556 -4.365626,-1.12331 -1.89177,-0.49775 -4.868333,-1.34757 -6.614583,-1.8885 -1.74625,-0.54093 -4.246563,-1.14437 -5.55625,-1.34098 -1.309688,-0.19661 -3.452813,-0.65721 -4.762501,-1.02356 -1.309687,-0.36636 -3.155156,-0.9003 -4.101041,-1.18654 -0.945886,-0.28625 -2.374636,-0.7797 -3.175,-1.09656 -0.800365,-0.31686 -1.812396,-0.68592 -2.248959,-0.82013 -0.436562,-0.13421 -1.984375,-0.82838 -3.4395834,-1.54259 -1.4552084,-0.71422 -3.6293891,-1.72461 -4.8315126,-2.24533 -1.2021235,-0.52071 -4.0407316,-1.89817 -6.3080179,-3.06101 -2.2672863,-1.16284 -5.0341996,-2.73079 -6.1486961,-3.48432 -1.1144966,-0.75353 -2.722609,-1.91744 -3.573583,-2.58647 -0.850974,-0.66902 -2.00716,-1.57359 -2.569303,-2.01016 -0.562142,-0.43656 -1.569367,-1.21046 -2.238277,-1.71979 -0.66891,-0.50932 -1.893974,-1.75874 -2.722364,-2.77648 -0.82839,-1.01774 -1.698743,-2.06505 -1.934118,-2.32736 -0.235375,-0.2623 -0.652094,-0.91788 -0.926042,-1.45685 -0.273948,-0.53896 -0.567655,-1.03946 -0.652681,-1.11222 -0.08503,-0.0728 -0.913017,-1.26339 -1.839979,-2.64584 -0.926963,-1.38245 -2.160645,-3.34698 -2.741517,-4.36562 -0.580872,-1.01865 -1.504594,-2.74505 -2.052717,-3.83646 -0.548123,-1.09141 -1.001407,-2.16297 -1.007299,-2.38125 -0.0059,-0.21828 -0.652153,-2.37759 -1.436136,-4.79846 -0.783984,-2.42087 -1.511915,-5.04024 -1.617627,-5.82083 -0.105711,-0.78059 -0.469831,-2.38224 -0.809154,-3.55922 -0.339324,-1.17698 -0.924707,-4.2726 -1.300852,-6.87916 -0.376145,-2.60656 -0.794355,-5.03686 -0.929355,-5.40066 -0.135,-0.36381 -0.369136,-1.59281 -0.520301,-2.73113 -0.151165,-1.13831 -0.275991,-3.22191 -0.277392,-4.63021 -0.0014,-1.40829 -0.178209,-4.10835 -0.392907,-6.00012 -0.214698,-1.89177 -0.579558,-4.57068 -0.810801,-5.95313 -0.23395,-1.39864 -0.420287,-4.0392 -0.420096,-5.95312 2.07e-4,-2.06955 0.163281,-4.22999 0.409409,-5.42396 0.224986,-1.09141 0.586434,-3.11547 0.803217,-4.49792 0.216783,-1.38245 0.513704,-4.47807 0.659824,-6.87916 0.14612,-2.4011 0.221598,-5.61579 0.167729,-7.14375 -0.05387,-1.52797 -0.186325,-3.75598 -0.294345,-4.95112 l -0.1964,-2.17299 1.625958,-2.9035 c 0.894278,-1.59693 1.626057,-3.11939 1.626176,-3.38326 1.19e-4,-0.26387 0.185011,-1.37273 0.410871,-2.46413 0.22586,-1.09141 0.696167,-3.05594 1.045126,-4.36563 0.348959,-1.30969 0.864385,-3.04364 1.14539,-3.85323 0.281005,-0.80958 0.890527,-2.3574 1.354494,-3.43958 0.463966,-1.08218 1.216293,-2.86057 1.671838,-3.95198 0.455544,-1.09141 0.92343,-2.09748 1.039747,-2.23573 0.116316,-0.13824 0.211484,-0.41351 0.211484,-0.6117 0,-0.19819 0.284822,-0.97804 0.632938,-1.73302 0.348116,-0.75497 1.077829,-2.37413 1.621586,-3.59814 0.543756,-1.224 1.233093,-2.65275 1.53186,-3.175 0.298767,-0.52224 1.206026,-1.72344 2.016132,-2.66933 0.810106,-0.94588 1.848042,-2.13651 2.306525,-2.64583 0.458482,-0.50932 1.301265,-1.52135 1.87285,-2.24896 0.571585,-0.7276 1.744412,-2.04051 2.606282,-2.91758 0.86187,-0.87707 2.579549,-2.54394 3.817064,-3.70417 1.2375154,-1.16022 3.0234529,-2.92829 3.96875,-3.92904 0.9452971,-1.00075 2.3735658,-2.32206 3.1739304,-2.93625 0.8003646,-0.61419 2.52677101,-1.806 3.83645856,-2.64845 1.30968754,-0.84246 3.33375004,-2.15081 4.49791674,-2.90745 1.1641668,-0.75664 2.4489873,-1.57974 2.8551567,-1.8291 0.4061695,-0.24936 1.2991383,-0.75583 1.9843756,-1.12548 0.685236,-0.36966 2.793697,-1.36248 4.685468,-2.20627 1.891771,-0.84379 4.749271,-2.33921 6.35,-3.32315 1.60073,-0.98395 3.778463,-2.3198 4.839407,-2.96857 1.060944,-0.64877 3.739851,-1.98001 5.953125,-2.95831 2.213275,-0.9783 5.988667,-2.80286 8.389761,-4.05458 2.401094,-1.25172 6.151563,-2.95627 8.334375,-3.78789 2.182813,-0.83162 4.861719,-1.85883 5.953125,-2.2827 1.091407,-0.42387 2.758282,-0.99216 3.704167,-1.26286 0.945886,-0.2707 2.861451,-0.68922 4.256811,-0.93005 1.395361,-0.24082 3.71708,-0.74005 5.159375,-1.1094 1.442296,-0.36935 3.693919,-0.77895 5.003606,-0.91022 1.309688,-0.13127 3.155157,-0.34849 4.101042,-0.48272 0.945886,-0.13423 3.119215,-0.54908 4.82962,-0.92189 1.710406,-0.3728 3.875437,-0.67783 4.811182,-0.67783 0.935744,0 3.822571,-0.35783 6.415172,-0.79518 l 4.713819,-0.79518 8.598958,0.13096 c 4.72943,0.072 10.12617,0.24923 11.99277,0.39379 1.8666,0.14456 3.83113,0.37682 4.36562,0.51615 0.5345,0.13933 2.28151,0.43386 3.88224,0.65452 1.60073,0.22066 4.10104,0.53143 5.55625,0.6906 1.4552,0.15916 3.5388,0.53325 4.6302,0.83131 1.09141,0.29806 3.175,0.89648 4.63021,1.32983 1.45521,0.43335 3.18162,0.94655 3.83646,1.14046 0.65485,0.19391 1.89347,0.55045 2.75249,0.79231 0.85903,0.24187 2.46638,0.79779 3.57188,1.23538 1.1055,0.43759 3.61735,1.57888 5.58188,2.5362 1.96453,0.95732 4.82203,2.57062 6.35,3.58511 1.52797,1.01449 3.01625,2.05686 3.30729,2.31638 0.29105,0.25953 1.51678,0.9523 2.72386,1.53951 1.20707,0.58721 2.45723,1.148 2.77812,1.24622 0.32089,0.0982 2.36938,1.06809 4.55219,2.15529 2.18281,1.08719 4.14735,2.07826 4.36563,2.20236 0.21828,0.12411 1.28984,0.72991 2.38125,1.34623 1.0914,0.61631 2.69875,1.62674 3.57187,2.24539 0.87313,0.61864 2.17247,1.57937 2.88744,2.13494 0.71496,0.55557 2.3223,2.03471 3.57187,3.28698 1.24957,1.25226 3.64116,3.75214 5.31465,5.55527 1.67349,1.80313 3.82217,4.1123 4.77485,5.13148 0.95268,1.01919 2.75061,2.98416 3.99541,4.36661 1.2448,1.38245 3.00723,3.70417 3.91651,5.15937 0.90928,1.45521 1.98395,3.12209 2.38816,3.70417 0.4042,0.58208 1.7616,3.21538 3.01645,5.85176 1.25485,2.63638 2.28154,4.89328 2.28154,5.01533 0,0.12205 0.40917,1.12016 0.90927,2.21803 0.5001,1.09787 1.38329,3.07592 1.96266,4.39566 0.57936,1.31974 1.48715,3.76052 2.0173,5.42396 0.53015,1.66343 1.30701,3.75207 1.72634,4.64141 0.41934,0.88933 1.01019,2.35244 1.31301,3.25135 0.30282,0.8989 0.60159,2.31439 0.66392,3.14552 0.0623,0.83113 0.36367,2.7613 0.66962,4.28927 l 0.55628,2.77813 -0.17695,2.38125 c -0.0973,1.30969 -0.22402,2.55984 -0.28155,2.77812 -0.0575,0.21828 -0.29075,1.28985 -0.51826,2.38125 -0.2275,1.09141 -0.50839,2.69875 -0.62419,3.57188 -0.1158,0.87312 -0.35236,2.12328 -0.52568,2.77812 -0.17333,0.65485 -0.70976,2.38125 -1.19208,3.83646 -0.48232,1.45521 -1.19945,3.83646 -1.59363,5.29167 -0.39418,1.45521 -0.89902,3.30067 -1.12188,4.10104 -0.22285,0.80036 -0.88879,2.94349 -1.47987,4.7625 -0.59108,1.81901 -1.60272,4.43838 -2.2481,5.82083 -0.64538,1.38245 -1.70618,3.64464 -2.35733,5.02709 -0.65116,1.38244 -1.3688,2.71975 -1.59476,2.97179 -0.22596,0.25203 -0.66221,0.91437 -0.96946,1.47185 -0.30724,0.55749 -0.79675,1.40354 -1.08779,1.88012 -0.29104,0.47658 -1.58661,2.49315 -2.87905,4.48127 -1.29244,1.98812 -2.83529,4.21007 -3.42855,4.93767 -0.59327,0.72761 -2.05494,2.39448 -3.24816,3.70417 -1.19322,1.30969 -4.77006,4.96581 -7.94853,8.12472 -3.17847,3.1589 -6.56282,6.37359 -7.52078,7.14375 -0.95795,0.77015 -2.79157,2.29325 -4.07471,3.38466 -1.28314,1.0914 -3.21455,2.7291 -4.29201,3.63932 -1.07746,0.91022 -4.00634,3.02064 -6.50862,4.68982 -2.50227,1.66918 -5.74021,3.85465 -7.19542,4.8566 -1.45521,1.00195 -3.89599,2.51676 -5.42396,3.36623 -1.52797,0.84948 -3.59817,2.07825 -4.60045,2.73061 -1.00227,0.65235 -3.68118,2.17913 -5.95312,3.39284 -2.27194,1.21371 -6.57159,3.40789 -9.55477,4.87594 -2.98317,1.46806 -6.79317,3.29611 -8.46666,4.06233 -1.67349,0.76623 -3.93568,1.81094 -5.02709,2.32159 -1.0914,0.51064 -2.69875,1.25179 -3.57187,1.647 -0.87313,0.3952 -1.94469,0.89201 -2.38125,1.10401 -0.43656,0.212 -2.58847,1.14667 -4.78201,2.07705 -2.19354,0.93037 -5.22963,2.16262 -6.74687,2.73832 -1.51724,0.57571 -3.77065,1.42848 -5.00758,1.89506 -1.23693,0.46657 -4.27302,1.35736 -6.746875,1.97953 -2.473854,0.62217 -6.343386,1.44497 -8.598959,1.82844 -2.255573,0.38347 -5.053542,0.88084 -6.217708,1.10527 -1.164167,0.22443 -4.200261,0.60985 -6.746876,0.85649 -3.390292,0.32836 -4.612128,0.53737 -4.562692,0.78052 0.03713,0.18265 -0.162349,1.3125 -0.443296,2.51078 -0.280947,1.19829 -0.687364,3.07167 -0.90315,4.16308 -0.215786,1.09141 -0.52619,3.02936 -0.689787,4.30657 -0.163597,1.27721 -0.773457,3.77752 -1.355245,5.55625 -0.581788,1.77873 -1.024401,3.52748 -0.983584,3.8861 l 0.07421,0.65205 0.816846,0.16563 c 0.449265,0.0911 0.963399,0.2562 1.14252,0.3669 0.179121,0.1107 1.002165,0.2491 1.828988,0.30755 0.826822,0.0585 2.158157,0.17072 2.958522,0.2495 0.800364,0.0788 1.634887,0.14754 1.854496,0.15279 0.219608,0.005 0.526006,-0.0298 0.680885,-0.0778 0.154878,-0.0481 0.778871,0.4854 1.38665,1.18548 0.607779,0.70007 1.113664,1.47398 1.124191,1.71979 0.01053,0.24581 0.05222,0.92318 0.09265,1.50526 0.04043,0.58208 -0.03697,2.18943 -0.172016,3.57188 -0.135042,1.38244 -0.593454,3.79545 -1.018695,5.36222 -0.42524,1.56678 -0.773164,3.2019 -0.773164,3.63361 0,0.43171 -0.374259,2.12636 -0.831687,3.7659 -0.457428,1.63954 -0.98515,3.68084 -1.172717,4.53622 -0.187566,0.85539 -0.475321,2.87945 -0.639454,4.49792 -0.164133,1.61847 -0.595307,4.19282 -0.958163,5.72079 -0.362857,1.52797 -0.835368,3.84969 -1.050024,5.15938 -0.214656,1.30969 -0.510953,3.45281 -0.658437,4.7625 -0.147483,1.30969 -0.374939,2.79797 -0.505457,3.30729 -0.130517,0.50932 -0.374332,2.35375 -0.541811,4.09873 -0.167479,1.74498 -0.346491,3.24062 -0.397806,3.32365 -0.05131,0.083 -0.332754,1.33422 -0.625422,2.78043 -0.292668,1.44622 -0.660255,4.13626 -0.81686,5.97787 -0.156606,1.84161 -0.467505,4.04427 -0.690887,4.89479 -0.223382,0.85052 -0.589569,2.20125 -0.813748,3.00161 -0.224179,0.80037 -0.675319,2.40771 -1.002533,3.57188 -0.327214,1.16416 -0.722396,2.65245 -0.878181,3.30729 -0.155786,0.65484 -0.536987,2.53095 -0.847112,4.16912 -0.310125,1.63817 -0.869224,3.7813 -1.242442,4.7625 -0.381609,1.00326 -0.892456,3.28929 -1.167291,5.22359 -0.268791,1.89177 -0.669738,4.09442 -0.890992,4.89479 -0.221254,0.80036 -0.403693,2.48998 -0.40542,3.7547 -0.0017,1.26472 -0.09741,2.35775 -0.212626,2.42896 -0.115218,0.0712 -0.238918,0.92659 -0.274889,1.90086 -0.03597,0.97426 -0.239359,2.18772 -0.451972,2.69658 -0.212613,0.50885 -0.38657,1.37084 -0.38657,1.91553 0,0.60478 -0.215871,1.26478 -0.554489,1.69526 -0.304969,0.3877 -0.487299,0.88001 -0.405179,1.09401 0.08212,0.21401 0.03399,0.3891 -0.106969,0.3891 -0.140954,0 -0.25628,0.18998 -0.25628,0.42218 0,0.23219 -0.212649,0.73821 -0.472555,1.12448 -0.259905,0.38626 -0.607278,0.99995 -0.771939,1.36376 -0.164661,0.3638 -0.428261,1.06617 -0.585778,1.56083 -0.157517,0.49466 -0.286394,1.59749 -0.286394,2.45074 0,1.07102 -0.368645,2.78702 -1.190625,5.54221 -0.697223,2.33702 -1.190625,4.5214 -1.190625,5.2711 0,0.70414 -0.135365,1.61542 -0.300812,2.02508 -0.165446,0.40965 -0.403009,1.28061 -0.527918,1.93545 -0.124909,0.65485 -0.346871,1.93917 -0.493248,2.85405 -0.146377,0.91489 -0.450535,1.94485 -0.675907,2.28881 -0.225372,0.34396 -0.65454,1.2623 -0.953705,2.04074 -0.299166,0.77845 -0.665635,1.95114 -0.814376,2.60599 -0.148741,0.65484 -0.303243,1.96453 -0.343339,2.91041 -0.0401,0.94589 -0.204207,2.43417 -0.364693,3.30729 -0.160485,0.87313 -0.220676,1.92123 -0.133757,2.32911 0.09575,0.44931 -0.07184,1.43999 -0.425196,2.51354 -0.320777,0.97457 -0.688808,1.97868 -0.817848,2.23137 -0.12904,0.25269 -0.234618,1.00102 -0.234618,1.66295 0,0.66194 0.186073,1.48751 0.413497,1.8346 l 0.413497,0.63108 -0.696972,1.10408 c -0.383335,0.60724 -0.930493,1.83505 -1.215908,2.72848 -0.285414,0.89342 -0.62532,1.73079 -0.755345,1.86082 -0.130026,0.13002 -0.829419,0.26492 -1.554209,0.29977 -0.724789,0.0349 -1.834898,0.3045 -2.466908,0.59922 -0.632011,0.29472 -1.744423,0.56989 -2.472028,0.61149 -0.727604,0.0416 -2.275416,0.0681 -3.439583,0.0588 -1.164167,-0.009 -2.835817,-0.10234 -3.714779,-0.20687 l -1.598112,-0.19005 -1.70918,0.52393 c -0.940049,0.28817 -2.728293,0.66693 -3.973876,0.84171 -1.379776,0.1936 -3.395782,0.25321 -5.159376,0.15255 -1.592073,-0.0909 -4.058456,-0.23224 -5.480851,-0.31417 -1.830344,-0.10542 -2.830668,-0.0477 -3.422743,0.19757 -0.460112,0.19058 -1.173534,0.32084 -1.585382,0.28946 -0.4118475,-0.0314 -1.0742698,0.10435 -1.4720496,0.30163 -0.4479951,0.22219 -1.0363541,0.28987 -1.5460001,0.17784 z m 21.6807656,-4.78603 c 1.188412,-0.30492 2.756062,-0.55792 3.483666,-0.56223 0.727604,-0.004 2.759605,0.082 4.515558,0.19185 l 3.19264,0.19968 1.738603,-1.11627 1.738603,-1.11626 0.188816,-2.51845 c 0.103849,-1.38514 0.395293,-3.24975 0.647653,-4.14358 0.33031,-1.1699 0.393202,-1.87212 0.224522,-2.50689 l -0.234316,-0.88176 0.576571,-0.97032 c 0.317115,-0.53368 0.67129,-1.29546 0.787057,-1.69285 0.115766,-0.39739 0.09414,-1.14387 -0.04805,-1.65885 l -0.25853,-0.93632 0.562381,-1.91303 c 0.309309,-1.05216 0.907408,-3.10365 1.329107,-4.55886 0.479837,-1.65582 0.771776,-3.28933 0.78022,-4.36562 0.0086,-1.09082 0.19482,-2.1191 0.509298,-2.81163 0.272693,-0.60051 0.627266,-1.17308 0.78794,-1.27239 0.160673,-0.0993 0.293422,-0.50094 0.294997,-0.89253 0.0016,-0.3916 0.180169,-1.29646 0.396875,-2.01081 0.216706,-0.71436 0.394011,-1.67315 0.394011,-2.13067 0,-0.45751 0.493161,-1.83757 1.095913,-3.0668 l 1.095913,-2.23496 0.06997,-2.91042 c 0.04713,-1.96031 0.210135,-3.2376 0.499335,-3.91265 0.244048,-0.56966 0.492623,-2.11132 0.575922,-3.57187 0.08061,-1.41331 0.257274,-2.91932 0.392599,-3.34669 0.135325,-0.42738 0.147336,-0.87576 0.02669,-0.99641 -0.120644,-0.12064 -0.08974,-0.86847 0.06868,-1.66185 0.204018,-1.02173 0.53711,-1.69947 1.141924,-2.32348 0.469638,-0.48455 0.853887,-1.08118 0.853887,-1.32585 0,-0.24467 0.311309,-1.37009 0.691799,-2.50094 0.38049,-1.13085 0.805349,-2.71094 0.944131,-3.5113 0.138783,-0.80037 0.352349,-2.88396 0.47459,-4.63021 l 0.222258,-3.175 0.816916,-1.90121 c 0.449304,-1.04567 0.993949,-2.58089 1.210323,-3.4116 0.216374,-0.83072 0.324758,-1.78391 0.240854,-2.11821 -0.0839,-0.33431 0.08098,-1.23986 0.366419,-2.01236 0.285434,-0.77249 0.842815,-2.59516 1.238622,-4.05037 0.395808,-1.45521 1.021118,-3.65786 1.389577,-4.89479 0.36846,-1.23693 0.83372,-2.96333 1.033912,-3.83646 0.200191,-0.87312 0.346117,-2.42094 0.324279,-3.43958 -0.02344,-1.09338 0.241978,-3.26111 0.647914,-5.29167 0.37819,-1.89177 1.058428,-6.23755 1.51164,-9.65729 0.453212,-3.41974 0.945007,-6.77085 1.092877,-7.44691 0.147871,-0.67605 0.302666,-1.62855 0.343991,-2.11666 0.04132,-0.48811 0.222074,-1.60185 0.401665,-2.47497 0.179592,-0.87313 0.551157,-2.4394 0.825701,-3.4806 0.274544,-1.04121 0.619865,-2.95854 0.76738,-4.26074 0.147516,-1.3022 0.457104,-3.36734 0.687974,-4.58919 0.23087,-1.22186 0.757749,-3.53124 1.170843,-5.13197 0.413094,-1.60073 0.832575,-3.4462 0.93218,-4.10104 0.0996,-0.65485 0.600616,-2.8575 1.113358,-4.8948 l 0.932258,-3.70416 -0.153203,-2.18781 c -0.08426,-1.2033 -0.217104,-2.2912 -0.295205,-2.41757 -0.0781,-0.12637 -2.018504,-0.19176 -4.312006,-0.14531 -2.293503,0.0465 -4.447416,0.13071 -4.786473,0.18723 -0.339057,0.0565 -0.711991,0.25733 -0.828742,0.44624 -0.143533,0.23224 -0.800713,0.33486 -2.029366,0.31689 -0.9994,-0.0146 -2.994561,-0.0982 -4.433692,-0.18568 -1.43913,-0.0875 -2.689287,-0.0571 -2.778125,0.0675 -0.08884,0.12462 -0.484757,0.43219 -0.87982,0.68349 -0.42972,0.27335 -1.2405,0.45691 -2.018124,0.45691 -0.832624,0 -1.418218,-0.14265 -1.629205,-0.39687 -0.181158,-0.21828 -0.236814,-0.39688 -0.123682,-0.39688 0.113133,0 0.02675,-0.20836 -0.19197,-0.46302 -0.218716,-0.25466 -0.477388,-0.68657 -0.574826,-0.9598 l -0.17716,-0.49679 -2.442322,0.19106 c -1.343277,0.10508 -2.527196,0.24352 -2.630933,0.30763 -0.103737,0.0641 -0.257652,0.55888 -0.342034,1.09947 -0.08438,0.5406 -0.400809,1.87588 -0.70317,2.96729 -0.302361,1.0914 -1.020056,3.88937 -1.594877,6.2177 -0.574822,2.32834 -1.108094,4.53099 -1.18505,4.8948 -0.07696,0.3638 -0.499101,2.14974 -0.9381,3.96875 -0.438999,1.81901 -0.949987,3.96213 -1.135529,4.7625 -0.185542,0.80036 -0.89117,3.65786 -1.568063,6.35 -0.676893,2.69213 -1.533095,6.14494 -1.902671,7.67291 -0.369577,1.52797 -0.83881,3.37344 -1.042741,4.10104 -0.203931,0.72761 -0.499463,2.21589 -0.656739,3.3073 -0.157275,1.0914 -0.81752,4.60375 -1.467211,7.8052 -0.64969,3.20146 -1.597035,7.42818 -2.10521,9.39271 -0.508176,1.96453 -1.17064,4.58391 -1.472143,5.82084 -0.301504,1.23692 -0.790497,3.20145 -1.086652,4.36562 -0.296155,1.16417 -0.628482,2.53339 -0.738504,3.04271 -0.110022,0.50932 -0.386947,1.58088 -0.61539,2.38125 -0.228443,0.80036 -0.760836,2.64583 -1.183096,4.10104 -0.42226,1.45521 -1.028837,3.77693 -1.347949,5.15938 -0.319112,1.38244 -0.820504,3.46604 -1.114206,4.6302 -0.293701,1.16417 -0.825369,3.1287 -1.181484,4.36563 -0.356115,1.23693 -0.649763,2.54661 -0.652551,2.91042 -0.0028,0.3638 -0.179875,0.89257 -0.393528,1.17504 -0.213653,0.28248 -0.388461,0.78289 -0.388461,1.11203 0,0.32915 -0.109428,0.87194 -0.243174,1.20621 -0.133746,0.33426 -0.553341,1.67932 -0.932433,2.98901 -0.379091,1.30969 -0.861714,2.97656 -1.072496,3.70416 -0.210781,0.72761 -0.579376,2.21589 -0.819101,3.3073 -0.239724,1.0914 -0.964932,3.53218 -1.611573,5.42395 -0.646641,1.89178 -1.524927,4.57068 -1.951745,5.95313 -0.426819,1.38245 -0.90788,2.87073 -1.069025,3.30729 -0.161145,0.43656 -0.502132,1.50813 -0.757749,2.38125 -0.255617,0.87313 -0.889117,3.01625 -1.407777,4.7625 -0.5186607,1.74625 -1.0806949,4.06797 -1.2489653,5.15938 -0.1682704,1.0914 -0.4083357,2.70849 -0.5334785,3.59351 -0.1251428,0.88503 -0.7108025,3.55513 -1.3014661,5.93354 l -1.0739339,4.3244 v 2.18679 c 0,1.20272 0.1072547,2.25306 0.2383438,2.33408 0.1310891,0.081 0.1962576,0.89705 0.144819,1.81341 -0.051439,0.91636 -0.1679277,1.86 -0.2588647,2.09698 -0.1036418,0.27009 0.015098,0.52523 0.3182019,0.68374 0.3093618,0.16177 1.5078957,0.15413 3.3272558,-0.0212 l 2.843714,-0.27409 0.529724,0.47939 c 0.291348,0.26367 0.529723,0.71106 0.529723,0.9942 v 0.5148 l 1.256771,-0.14495 c 0.691224,-0.0797 1.613958,-0.19827 2.050521,-0.26346 0.436562,-0.0652 1.150937,-0.007 1.5875,0.12835 0.436563,0.13578 2.043906,0.40869 3.571875,0.60648 1.527969,0.19779 3.055944,0.37187 3.395501,0.38683 0.339556,0.015 1.589712,-0.22226 2.778125,-0.52719 z M 62.961347,349.30334 c 0.304766,-0.38745 0.622855,-1.01253 0.706865,-1.38906 0.08401,-0.37654 0.388577,-1.33946 0.676815,-2.13983 0.288239,-0.80036 0.799713,-2.64583 1.136608,-4.10104 0.336896,-1.45521 0.69311,-3.65786 0.791588,-4.89479 0.09848,-1.23693 0.36281,-2.98998 0.587405,-3.89567 0.252169,-1.01688 0.330076,-1.92765 0.20369,-2.38125 -0.112566,-0.404 -0.215554,-0.91313 -0.228862,-1.13141 -0.01771,-0.29052 -0.48508,-0.44292 -1.743987,-0.56868 -0.945886,-0.0945 -2.440682,-0.25785 -3.32177,-0.36302 l -1.601978,-0.19122 -0.435498,1.55365 c -0.239523,0.8545 -0.504193,1.97036 -0.588156,2.47968 -0.08396,0.50933 -0.381941,2.23573 -0.662174,3.83646 -0.280233,1.60073 -0.504717,3.95731 -0.498854,5.23686 0.0066,1.4405 -0.110707,2.47267 -0.308048,2.71045 -0.17529,0.21122 -0.259907,0.69163 -0.188037,1.06759 0.07187,0.37597 -0.136102,1.44703 -0.462159,2.38015 l -0.592831,1.69658 0.306679,0.25452 c 0.168673,0.13998 1.194327,0.2961 2.279231,0.34692 1.084904,0.0508 2.291333,0.11607 2.680954,0.14498 0.491621,0.0365 0.877967,-0.16299 1.262519,-0.65187 z m 16.682206,-23.45837 c 1.236927,-0.2144 4.570677,-0.76759 7.408333,-1.2293 2.837657,-0.46172 5.576094,-0.9426 6.085417,-1.06864 0.509323,-0.12604 1.811575,-0.42849 2.893894,-0.6721 1.082319,-0.24361 2.749194,-0.67742 3.704167,-0.96402 0.954976,-0.2866 2.331626,-0.73842 3.059236,-1.00405 0.7276,-0.26563 2.51354,-0.92205 3.96875,-1.45872 1.4552,-0.53666 4.01505,-1.51576 5.68854,-2.17578 1.67349,-0.66003 3.81661,-1.54866 4.7625,-1.97474 0.94588,-0.42609 2.19604,-0.99797 2.77812,-1.27085 0.58209,-0.27287 2.24896,-1.04442 3.70417,-1.71454 1.45521,-0.67013 3.30068,-1.56185 4.10104,-1.98161 0.80037,-0.41976 2.05795,-0.99998 2.79463,-1.28938 0.73669,-0.2894 3.237,-1.46882 5.55625,-2.62093 2.31926,-1.15211 4.99074,-2.51015 5.93662,-3.01788 0.94589,-0.50772 3.62479,-1.97022 5.95313,-3.24999 2.32833,-1.27977 5.75175,-3.23625 7.6076,-4.34773 1.85585,-1.11149 4.10691,-2.4376 5.00234,-2.94692 0.89543,-0.50933 2.17916,-1.28323 2.85272,-1.7198 0.67356,-0.43656 1.93602,-1.32953 2.80546,-1.98437 0.86944,-0.65484 1.93682,-1.45538 2.37196,-1.77897 0.43514,-0.32359 1.62461,-1.16341 2.64325,-1.86627 1.01865,-0.70286 2.38787,-1.6024 3.04271,-1.99899 0.65484,-0.39658 2.14312,-1.55607 3.30729,-2.57664 1.16417,-1.02057 3.11755,-2.71377 4.34084,-3.76267 1.2233,-1.0489 2.89017,-2.43454 3.70417,-3.07921 0.814,-0.64468 4.58296,-4.27608 8.37548,-8.0698 3.79252,-3.79371 7.89257,-8.14782 9.11122,-9.67578 1.21864,-1.52797 2.58937,-3.43297 3.04607,-4.23334 0.45669,-0.80036 1.89305,-3.13168 3.19191,-5.18071 1.29886,-2.04903 2.51067,-3.95403 2.69292,-4.23333 0.18225,-0.27931 0.43959,-0.75572 0.57187,-1.0587 0.13228,-0.30297 1.00545,-2.14844 1.94038,-4.10104 0.93494,-1.9526 1.89005,-4.02643 2.12248,-4.60851 0.23243,-0.58208 0.72819,-1.85255 1.10169,-2.82325 0.37351,-0.9707 0.68269,-1.9232 0.68707,-2.11667 0.004,-0.19346 0.43103,-1.72096 0.9481,-3.39445 0.51707,-1.67349 1.14482,-3.78319 1.39499,-4.68821 0.25018,-0.90502 0.53791,-1.72854 0.6394,-1.83004 0.1015,-0.10149 0.18454,-0.43708 0.18454,-0.74574 0,-0.30867 0.34461,-1.56875 0.76581,-2.80018 0.4212,-1.23143 0.90081,-3.01287 1.06582,-3.95875 0.165,-0.94589 0.5486,-3.2676 0.85243,-5.15938 0.30384,-1.89177 0.54414,-4.53736 0.53401,-5.87909 -0.0101,-1.34172 -0.13636,-2.88954 -0.28051,-3.43958 -0.14415,-0.55004 -0.39472,-2.01211 -0.55682,-3.24903 -0.19518,-1.48931 -0.74686,-3.45444 -1.63324,-5.81778 -0.73617,-1.96285 -1.50822,-4.22504 -1.71566,-5.02708 -0.20744,-0.80205 -0.6832,-2.23218 -1.05725,-3.17806 -0.37405,-0.94589 -0.77953,-1.84359 -0.90107,-1.99489 -0.12154,-0.15131 -0.82249,-1.67991 -1.55767,-3.39691 -0.73518,-1.71699 -1.33669,-3.28983 -1.33669,-3.49521 0,-0.20537 -0.11906,-0.37341 -0.26458,-0.37341 -0.14552,0 -0.26458,-0.12643 -0.26458,-0.28097 0,-0.15453 -0.30605,-0.9582 -0.68012,-1.78593 -0.37406,-0.82774 -0.90019,-1.98122 -1.16917,-2.56331 -0.26899,-0.58208 -0.91444,-1.97342 -1.43433,-3.09186 -0.51989,-1.11844 -1.0611,-2.10512 -1.20268,-2.19262 -0.14159,-0.0875 -0.93753,-1.37507 -1.76876,-2.86127 -0.83123,-1.48619 -1.98752,-3.35054 -2.56953,-4.14301 -0.58201,-0.79247 -2.13856,-2.53762 -3.45899,-3.87811 -1.32044,-1.34049 -3.48341,-3.60914 -4.80661,-5.04144 -1.32319,-1.4323 -3.31033,-3.61622 -4.41585,-4.85314 -1.10553,-1.23693 -2.95335,-3.11926 -4.10627,-4.18296 -1.15293,-1.0637 -2.38048,-2.12773 -2.7279,-2.36452 -0.34742,-0.23678 -1.21009,-0.94406 -1.91705,-1.57173 -0.70697,-0.62767 -1.41367,-1.14121 -1.57045,-1.14121 -0.15679,0 -0.53086,-0.22898 -0.83128,-0.50885 -0.30042,-0.27986 -2.45122,-1.46014 -4.77956,-2.62283 -2.32833,-1.1627 -6.0788,-3.00616 -8.33437,-4.09657 -2.25557,-1.09042 -5.10721,-2.64858 -6.33697,-3.46258 -1.22976,-0.814 -2.39062,-1.48 -2.57969,-1.48 -0.18907,0 -0.34376,-0.15078 -0.34376,-0.33506 0,-0.18429 -0.62508,-0.70461 -1.38906,-1.15627 -0.76398,-0.45166 -2.69875,-1.44964 -4.29948,-2.21773 -1.60073,-0.76809 -3.50573,-1.62336 -4.23333,-1.90059 -0.72761,-0.27724 -2.27542,-0.80246 -3.43959,-1.16714 -1.16416,-0.36469 -3.60494,-1.12969 -5.42396,-1.7 -1.81901,-0.57032 -4.20026,-1.27499 -5.29166,-1.56594 -1.09141,-0.29096 -3.65125,-0.711 -5.68854,-0.93341 -2.0373,-0.22242 -4.99758,-0.58353 -6.57842,-0.80246 -1.58084,-0.21893 -2.98295,-0.46525 -3.11582,-0.54736 -0.13286,-0.0821 -0.98257,-0.19438 -1.88825,-0.24948 -0.90567,-0.0551 -5.81387,-0.167 -10.9071,-0.24867 l -9.260415,-0.1485 -2.778125,0.54184 c -1.527969,0.29801 -4.325938,0.64974 -6.217709,0.78163 -1.891771,0.13188 -4.868333,0.56159 -6.614583,0.95491 -1.74625,0.39332 -4.1275,0.80732 -5.291667,0.92 -1.164167,0.11268 -2.98176,0.33375 -4.039096,0.49127 -1.057336,0.15752 -3.140929,0.5719 -4.630208,0.92084 -1.489279,0.34894 -3.362624,0.75735 -4.162988,0.90757 -0.800365,0.15022 -2.39017,0.47324 -3.5329,0.71781 -1.142731,0.24457 -3.643043,1.06617 -5.55625,1.82578 -1.913208,0.7596 -4.49059,1.77655 -5.727518,2.25987 -1.236927,0.48332 -4.27302,1.88656 -6.746875,3.11831 -2.473854,1.23174 -6.521979,3.18252 -8.995833,4.33507 -2.473855,1.15255 -5.09323,2.4922 -5.820834,2.977 -0.727604,0.4848 -2.463603,1.5874 -3.857774,2.45022 -1.394172,0.86283 -3.834954,2.13264 -5.423959,2.82181 -1.589005,0.68917 -3.885459,1.75504 -5.103231,2.3686 -1.217771,0.61356 -3.718083,2.08654 -5.5562497,3.27328 -1.8381663,1.18675 -4.3871311,2.91338 -5.6643662,3.83695 -1.2772352,0.92357 -3.18223526,2.5826 -4.2333335,3.68674 -1.0510983,1.10414 -2.1250056,2.32453 -2.3864607,2.71198 -0.3101311,0.45959 -0.7138783,0.70446 -1.1615133,0.70446 -0.4599449,0 -0.9574081,0.31505 -1.5090022,0.95566 -0.4525739,0.52562 -1.1764942,1.26976 -1.6087117,1.65365 -0.4322175,0.38389 -1.4889557,1.35282 -2.3483067,2.15319 -0.859352,0.80036 -2.470251,2.56652 -3.579776,3.92479 -1.109524,1.35827 -2.471144,3.08468 -3.025822,3.83646 -0.554677,0.75178 -1.283705,1.66453 -1.620063,2.02833 -0.336358,0.3638 -1.00495,1.43537 -1.48576,2.38125 -0.480811,0.94589 -0.972173,1.92654 -1.091916,2.17923 -0.119743,0.25268 -0.217715,0.61315 -0.217715,0.80104 0,0.18789 -0.352227,1.0205 -0.782727,1.85025 -0.430499,0.82974 -1.027329,1.95756 -1.326288,2.50624 -0.298959,0.54869 -1.320793,2.89325 -2.270741,5.21013 -0.949949,2.31688 -2.018726,5.11485 -2.375061,6.21771 -0.356335,1.10286 -0.898422,3.13629 -1.204637,4.51874 -0.306216,1.38244 -0.594385,3.07456 -0.640377,3.76025 -0.04934,0.73563 -0.445926,1.98297 -0.967416,3.04271 l -0.883795,1.79599 -0.04048,5.29167 c -0.02226,2.91042 -0.164741,7.34059 -0.316621,9.84482 -0.15188,2.50424 -0.406683,5.54033 -0.566231,6.74688 -0.159547,1.20654 -0.474946,2.84655 -0.700886,3.64446 l -0.410801,1.45073 0.0085,4.76697 c 0.0047,2.62184 0.143618,5.65994 0.308778,6.75135 0.16516,1.09141 0.416328,2.75828 0.558152,3.70417 0.141823,0.94588 0.379839,3.38666 0.528925,5.42395 0.149085,2.0373 0.308265,4.29948 0.353734,5.02709 0.04547,0.7276 0.223733,2.15635 0.396144,3.175 0.172412,1.01864 0.486609,3.2213 0.698216,4.89479 0.211607,1.67349 0.485575,3.57849 0.608817,4.23333 0.123242,0.65485 0.353983,1.72641 0.512757,2.38125 0.158774,0.65485 0.537514,2.32172 0.841643,3.70417 0.304129,1.38245 0.653888,2.8112 0.777243,3.175 0.123354,0.3638 0.43427,1.37583 0.690925,2.24896 0.256655,0.87312 0.556389,1.76609 0.666076,1.98437 0.109688,0.21828 0.402121,1.20327 0.649853,2.18885 0.247732,0.98559 0.859015,2.59293 1.358407,3.57188 0.499391,0.97894 1.289106,2.45213 1.754922,3.27375 0.465815,0.82162 1.040939,1.71458 1.278052,1.98437 0.237113,0.26979 0.637833,0.90725 0.890488,1.41657 0.252655,0.50932 1.10045,1.78548 1.883989,2.83591 0.783539,1.05042 1.424617,2.02284 1.424617,2.16091 0,0.13808 0.653975,1.06458 1.453278,2.05889 0.799303,0.99431 1.555971,1.92689 1.681484,2.07241 0.125512,0.14553 0.81099,0.80405 1.523284,1.4634 0.712293,0.65935 1.667831,1.43325 2.123417,1.71979 0.455586,0.28654 1.348555,0.97121 1.9843752,1.5215 0.6358203,0.55029 2.2275994,1.75431 3.5372869,2.67562 1.3096876,0.9213 3.4528126,2.26717 4.76250019,2.99082 1.30968755,0.72365 3.78973001,1.99017 5.51120551,2.81449 1.7214755,0.82432 3.1810263,1.49876 3.2434461,1.49876 0.06242,0 1.5114401,0.66313 3.2200451,1.47363 1.708604,0.8105 3.761398,1.72004 4.561762,2.02121 0.800365,0.30116 3.181615,1.13078 5.291667,1.84358 2.235122,0.75506 5.109804,1.50424 6.887121,1.79487 1.677865,0.27436 4.149939,0.80792 5.493498,1.18568 1.343559,0.37775 3.066386,0.92011 3.828504,1.20524 0.762118,0.28512 2.993013,0.93531 4.957545,1.44485 1.964531,0.50955 4.226718,1.11516 5.027083,1.3458 0.800365,0.23063 2.824427,0.7722 4.497917,1.20347 1.67349,0.43127 3.995208,0.85103 5.159375,0.9328 1.164167,0.0818 2.533386,0.27641 3.042709,0.43252 0.509322,0.15612 2.176198,0.42813 3.704166,0.60446 1.579848,0.18232 5.060559,0.28636 8.069792,0.24121 3.087654,-0.0463 6.228373,-0.24177 7.540626,-0.46922 z M 60.725844,314.40036 c -1.891771,-0.19521 -4.21349,-0.47668 -5.159376,-0.6255 -0.945885,-0.14881 -3.743854,-0.577 -6.217708,-0.95152 -2.473854,-0.37452 -5.509948,-0.90395 -6.746875,-1.1765 -1.236928,-0.27256 -3.499115,-0.90998 -5.027084,-1.41649 -1.527969,-0.50651 -3.790156,-1.33743 -5.027083,-1.84648 -1.236928,-0.50905 -3.022865,-1.24641 -3.968751,-1.63856 -0.945885,-0.39216 -3.605844,-1.65472 -5.911019,-2.80571 -2.305175,-1.15098 -5.103144,-2.64541 -6.217708,-3.32096 -1.114565,-0.67554 -3.157575,-2.00463 -4.540023,-2.95351 -1.382448,-0.94889 -3.2874483,-2.35411 -4.2333337,-3.1227 -0.9458855,-0.7686 -3.2075539,-2.62293 -5.0259298,-4.12073 -1.81837587,-1.49781 -4.2591572,-3.6157 -5.4239585,-4.70642 -1.1648013,-1.09073 -2.5940706,-2.462 -3.1761539,-3.04727 -0.5820834,-0.58527 -1.8917709,-2.03221 -2.9104168,-3.21543 -1.0186459,-1.18321 -2.6259893,-3.12043 -3.5718753,-4.30492 -0.945885,-1.1845 -2.17306,-2.71468 -2.727056,-3.4004 -0.553995,-0.68572 -1.218648,-1.48489 -1.477007,-1.77593 -0.258359,-0.29104 -1.077351,-1.36871 -1.819982,-2.39481 -0.742631,-1.0261 -1.777912,-2.63344 -2.300623,-3.57187 -0.522711,-0.93843 -1.438537,-2.65655 -2.035169,-3.81805 -0.596631,-1.1615 -1.316918,-2.76884 -1.600637,-3.57187 -0.283719,-0.80304 -0.611098,-1.93632 -0.72751,-2.5184 -0.116411,-0.58209 -0.410231,-1.83224 -0.652932,-2.77813 -0.29262,-1.14044 -0.49274,-3.36872 -0.594048,-6.61458 -0.08403,-2.69214 -0.01861,-7.16969 0.145364,-9.95011 0.163976,-2.78043 0.479538,-6.35231 0.70125,-7.9375 0.221712,-1.5852 0.522435,-3.2989 0.668273,-3.80822 0.145838,-0.50933 0.321791,-1.75948 0.391007,-2.77813 0.06921,-1.01864 0.237956,-2.44739 0.374979,-3.175 0.137024,-0.7276 0.447447,-2.98979 0.689829,-5.02708 0.242383,-2.03729 0.715749,-5.07339 1.051924,-6.74688 0.336176,-1.67349 0.925931,-4.41192 1.310567,-6.08541 0.384635,-1.67349 1.415965,-5.90021 2.291844,-9.39271 0.875879,-3.4925 1.830558,-7.06438 2.12151,-7.9375 0.290951,-0.87313 0.880726,-2.42094 1.31061,-3.43959 0.429884,-1.01864 1.129794,-2.62599 1.555355,-3.57187 0.42556,-0.94589 1.439921,-3.4462 2.254135,-5.55625 0.814214,-2.11005 1.8894724,-4.58342 2.3894631,-5.49638 0.4999906,-0.91296 1.5691236,-2.57983 2.3758512,-3.70417 0.8067276,-1.12433 1.9682876,-2.65245 2.5812445,-3.39582 0.6129569,-0.74336 2.0669671,-2.23317 3.23113381,-3.31068 1.16416671,-1.0775 3.30729179,-2.90647 4.76250019,-4.06437 1.4552084,-1.1579 4.058701,-3.35904 5.7855391,-4.89141 1.7268381,-1.53237 3.5901131,-3.14332 4.1406101,-3.57988 0.550498,-0.43656 2.590443,-1.99103 4.533211,-3.45437 1.942769,-1.46334 3.949026,-2.90504 4.458349,-3.20377 0.509323,-0.29873 2.116667,-1.17714 3.571875,-1.95203 1.455208,-0.77488 2.939249,-1.53584 3.297868,-1.69102 0.358619,-0.15518 1.668307,-0.79629 2.910417,-1.4247 1.24211,-0.62841 3.346278,-1.54114 4.67593,-2.02829 1.329651,-0.48716 2.758401,-1.0582 3.175,-1.26898 0.416599,-0.21079 2.364796,-0.91755 4.329327,-1.5706 1.964532,-0.65304 4.7625,-1.55793 6.217709,-2.01087 1.455208,-0.45293 3.181615,-0.95172 3.836458,-1.10843 0.654844,-0.1567 2.500313,-0.71162 4.101042,-1.23315 1.600729,-0.52154 3.24838,-1.11243 3.661445,-1.3131 0.413066,-0.20066 0.851702,-0.30262 0.974747,-0.22657 0.123045,0.076 0.678051,-0.0395 1.233347,-0.25678 0.555295,-0.21727 2.795566,-0.74343 4.978378,-1.16925 2.182813,-0.42582 5.159375,-0.97841 6.614584,-1.22797 1.455208,-0.24956 2.80324,-0.49903 2.995627,-0.55438 0.209177,-0.0602 0.315539,-0.38968 0.264583,-0.81966 l -0.08521,-0.71901 1.058333,-0.18129 c 0.582084,-0.0997 2.665677,-0.31701 4.630209,-0.4829 1.964531,-0.16588 8.36429,-0.35092 14.221687,-0.4112 7.83857,-0.0807 11.74974,-0.0105 14.81667,0.26576 2.29177,0.20644 5.6141,0.61561 7.38296,0.90927 1.76886,0.29366 4.86448,0.71767 6.87917,0.94223 2.01468,0.22457 5.50853,0.71126 7.7641,1.08153 2.25557,0.37027 4.51776,0.7801 5.02708,0.91074 0.50932,0.13064 1.99761,0.47724 3.30729,0.77022 1.30969,0.29298 4.04621,1.13012 6.08116,1.86032 2.03495,0.73019 3.806,1.32763 3.93567,1.32763 0.12966,0 0.90549,0.28894 1.72405,0.6421 0.81856,0.35315 2.91704,1.20477 4.66329,1.89247 1.74625,0.6877 4.36563,1.77106 5.82083,2.40746 1.45521,0.6364 2.94349,1.31969 3.3073,1.51841 0.3638,0.19871 1.46524,0.78575 2.44764,1.30453 0.9824,0.51877 2.60799,1.42319 3.61243,2.00981 1.00444,0.58662 2.64144,1.60196 3.63778,2.2563 0.99634,0.65434 2.76402,1.90738 3.92819,2.78452 1.16416,0.87715 3.26124,2.69474 4.66016,4.03908 1.39892,1.34435 2.8872,2.91902 3.30729,3.49927 0.42009,0.58025 1.6706,1.96629 2.77891,3.08008 1.10831,1.1138 2.35478,2.48452 2.76993,3.04605 0.41514,0.56153 1.54647,1.86799 2.51405,2.90325 0.96759,1.03526 2.27716,2.58307 2.91016,3.43958 0.63301,0.85651 1.59464,2.3312 2.13696,3.27709 0.54233,0.94588 1.41484,2.54766 1.93892,3.5595 0.52408,1.01184 1.05453,1.96434 1.17879,2.11667 0.12425,0.15232 0.67088,1.46758 1.21473,2.92278 0.54385,1.45521 1.63645,4.49131 2.428,6.74688 0.79155,2.25557 1.77475,5.12388 2.18488,6.37401 0.41013,1.25014 0.94731,3.15514 1.19373,4.23334 0.24642,1.0782 0.72258,2.85333 1.05814,3.94473 0.33555,1.09141 0.71197,2.75828 0.83647,3.70417 0.12451,0.94588 0.21665,3.74385 0.20475,6.21771 -0.0153,3.17931 -0.19375,5.66139 -0.60878,8.46666 -0.32294,2.18282 -0.77046,4.80219 -0.99449,5.82084 -0.22403,1.01864 -0.57209,2.57726 -0.77347,3.4636 -0.20137,0.88633 -0.97801,3.38665 -1.72587,5.55625 -0.74785,2.1696 -1.95543,5.25442 -2.68351,6.85515 -0.72808,1.60073 -2.12759,4.51776 -3.11002,6.48229 -0.98243,1.96453 -2.17309,4.28625 -2.64592,5.15937 -0.47282,0.87313 -1.08387,1.90354 -1.35789,2.28981 -0.27402,0.38626 -0.49977,0.80298 -0.50167,0.92604 -0.002,0.12305 -0.58964,1.11671 -1.30609,2.20811 -0.71644,1.09141 -1.87574,2.7934 -2.57622,3.7822 -0.70049,0.9888 -1.72119,2.41755 -2.26823,3.175 -0.54704,0.75745 -1.59834,2.26347 -2.33623,3.34672 -0.73788,1.08325 -2.32797,3.16685 -3.53353,4.63021 -1.20556,1.46337 -3.30941,3.7827 -4.67523,5.15407 -1.36582,1.37137 -3.08911,2.97871 -3.82954,3.57187 -0.74042,0.59316 -2.89237,2.38816 -4.78211,3.98889 -1.88973,1.60073 -4.91533,4.12087 -6.72356,5.60031 -1.80822,1.47944 -4.24018,3.41992 -5.40435,4.31219 -1.16416,0.89226 -2.59291,1.93414 -3.175,2.31529 -0.58208,0.38115 -2.9884,2.04209 -5.34737,3.69099 -2.35898,1.64889 -6.16898,4.03105 -8.46667,5.29369 -2.29769,1.26263 -6.08588,3.21757 -8.4182,4.34432 -2.33231,1.12674 -5.72559,2.63929 -7.54062,3.36122 -1.81503,0.72192 -5.6813,2.08686 -8.59172,3.03318 -2.91042,0.94633 -6.48229,2.08801 -7.9375,2.53708 -1.45521,0.44907 -3.30068,0.99752 -4.10104,1.21877 -0.80037,0.22125 -2.79153,0.69667 -4.42482,1.05649 -1.63328,0.35981 -5.68141,1.07801 -8.995832,1.596 -3.314425,0.51798 -6.502477,1.00581 -7.08456,1.08406 -0.582083,0.0783 -1.653646,0.24823 -2.38125,0.37773 -0.727604,0.1295 -2.21003,0.37581 -3.294281,0.54736 -1.08425,0.17155 -2.572531,0.34835 -3.307291,0.39288 -0.734761,0.0445 -2.34796,0.20714 -3.584887,0.36135 -1.236927,0.1542 -4.987396,0.26711 -8.334375,0.25091 -3.346979,-0.0162 -7.63323,-0.18917 -9.525,-0.38437 z m 20.6375,-3.0169 c 1.309688,-0.13469 3.988594,-0.49154 5.953126,-0.79299 1.964531,-0.30146 4.702968,-0.71911 6.085416,-0.92811 1.382448,-0.209 4.418542,-0.6765 6.746874,-1.03887 2.32834,-0.36238 4.82865,-0.77713 5.55625,-0.92168 0.72761,-0.14455 2.39448,-0.55238 3.70417,-0.90629 1.30969,-0.35391 4.22672,-1.20309 6.48229,-1.88707 2.25557,-0.68398 5.3512,-1.66601 6.87917,-2.18229 1.52797,-0.51628 4.445,-1.58584 6.48229,-2.3768 2.03729,-0.79096 4.5376,-1.80681 5.55625,-2.25744 1.01865,-0.45064 3.71717,-1.74876 5.99672,-2.88471 2.27955,-1.13596 5.31564,-2.76524 6.74688,-3.62063 1.43123,-0.8554 3.43567,-2.09881 4.45432,-2.76314 1.01864,-0.66434 3.04271,-2.02722 4.49791,-3.02864 1.45521,-1.00142 4.13412,-2.90443 5.95313,-4.22891 1.81901,-1.32449 4.33606,-3.28448 5.59344,-4.35553 1.25739,-1.07105 3.22192,-2.718 4.36563,-3.65989 1.14371,-0.94188 3.50822,-2.9594 5.25447,-4.48337 1.74625,-1.52397 4.34356,-3.95047 5.77179,-5.39222 1.42824,-1.44175 3.69798,-4.00814 5.04388,-5.70309 1.34589,-1.69494 2.87794,-3.73656 3.40455,-4.53692 0.52661,-0.80037 1.65015,-2.41058 2.49675,-3.57825 0.84661,-1.16767 1.85926,-2.59642 2.25035,-3.175 0.39109,-0.57858 1.56395,-2.48071 2.60634,-4.22696 1.0424,-1.74625 3.48759,-6.38969 5.43376,-10.31875 2.60963,-5.26851 3.88843,-8.20272 4.87163,-11.17794 0.73322,-2.2188 1.51042,-4.8977 1.72709,-5.95312 0.21668,-1.05542 0.6279,-2.93097 0.91382,-4.1679 0.28593,-1.23692 0.76193,-4.05023 1.05777,-6.25179 0.29584,-2.20156 0.52998,-4.99953 0.5203,-6.21771 -0.01,-1.21818 -0.17882,-3.28643 -0.37589,-4.59612 -0.19706,-1.30969 -0.61097,-3.45281 -0.9198,-4.7625 -0.30883,-1.30969 -1.1023,-4.10766 -1.76327,-6.21771 -0.66097,-2.11005 -2.10135,-6.51537 -3.20084,-9.78958 -1.0995,-3.27422 -2.08698,-6.07219 -2.19442,-6.21771 -0.10743,-0.14552 -0.76179,-1.33615 -1.45413,-2.64584 -0.69234,-1.30968 -1.68696,-3.09562 -2.21026,-3.96875 -0.52329,-0.87312 -1.56387,-2.3614 -2.31238,-3.30729 -0.74851,-0.94588 -1.68792,-2.01745 -2.08758,-2.38125 -0.39966,-0.3638 -1.20969,-1.3163 -1.80007,-2.11666 -0.59037,-0.80037 -1.81335,-2.22912 -2.71773,-3.175 -0.90437,-0.94589 -2.61474,-2.85089 -3.80082,-4.23334 -1.18607,-1.38245 -2.77622,-3.03147 -3.53367,-3.6645 -0.75744,-0.63304 -1.98649,-1.75058 -2.73121,-2.48343 -0.74473,-0.73285 -1.57816,-1.45408 -1.85209,-1.60273 -0.27392,-0.14864 -2.00676,-1.25786 -3.85076,-2.46491 -1.844,-1.20706 -4.64197,-2.86031 -6.21771,-3.6739 -1.57574,-0.81358 -3.16264,-1.64994 -3.52644,-1.85856 -0.3638,-0.20862 -1.3163,-0.67269 -2.11667,-1.03126 -0.80036,-0.35857 -3.59247,-1.50145 -6.20468,-2.53973 -2.6122,-1.03828 -6.83892,-2.58053 -9.3927,-3.42723 -2.55379,-0.84669 -6.19106,-1.86492 -8.08283,-2.26273 -1.89177,-0.39781 -4.03489,-0.82185 -4.7625,-0.9423 -0.7276,-0.12044 -3.46604,-0.47031 -6.08541,-0.77748 -2.61938,-0.30716 -6.6675,-0.85312 -8.99584,-1.21324 -2.32833,-0.36012 -6.37646,-0.83157 -8.99583,-1.04766 -2.68372,-0.2214 -5.97512,-0.32938 -7.54063,-0.24739 -1.52797,0.08 -6.111872,0.2016 -10.186455,0.27016 -4.074584,0.0686 -7.92065,0.22948 -8.546815,0.3576 -0.626165,0.12812 -1.410091,0.48811 -1.742059,0.79997 l -0.603576,0.56704 -2.226692,0.14413 c -1.224681,0.0793 -3.298255,0.3275 -4.607942,0.55162 -1.309688,0.22411 -3.214688,0.57432 -4.233334,0.77824 -1.018646,0.20393 -2.864114,0.61085 -4.101041,0.90427 -1.236928,0.29343 -2.844271,0.64583 -3.571876,0.78312 -0.727604,0.1373 -1.918229,0.42471 -2.645833,0.63871 -0.727604,0.214 -1.802279,0.56565 -2.388167,0.78143 -0.585887,0.21579 -3.051028,0.99743 -5.47809,1.73697 -2.427062,0.73954 -4.53697,1.34463 -4.688685,1.34463 -0.151715,0 -1.862711,0.58748 -3.802214,1.30551 -1.939503,0.71803 -4.350858,1.62433 -5.358566,2.01401 -1.007707,0.38967 -2.427508,0.97984 -3.155112,1.31148 -0.727604,0.33165 -3.168386,1.52047 -5.423959,2.64181 -2.255573,1.12135 -4.99401,2.56853 -6.085417,3.21596 -1.091406,0.64742 -3.532187,2.30672 -5.423958,3.68732 -1.891771,1.3806 -4.749271,3.67657 -6.35,5.10214 -1.60073,1.42558 -3.743855,3.30107 -4.7625007,4.16776 -1.0186458,0.86668 -2.9831772,2.48211 -4.3656251,3.58984 -1.382448,1.10774 -3.3469793,2.89607 -4.36562519,3.97407 -1.01864587,1.07801 -2.39831881,2.6678 -3.06594001,3.53287 -0.6676211,0.86507 -1.7870348,2.46582 -2.487586,3.55723 -0.7005513,1.0914 -1.7434272,2.9964 -2.317502,4.23333 -0.5740749,1.23693 -1.6187823,3.79677 -2.321572,5.68854 -0.7027897,1.89177 -1.570211,4.15396 -1.927603,5.02708 -0.357392,0.87313 -1.023694,2.4505 -1.480671,3.50527 -0.456978,1.05477 -1.558466,4.92431 -2.447752,8.59896 -0.889287,3.67466 -1.960884,8.10994 -2.381327,9.85619 -0.420444,1.74625 -0.883933,3.82984 -1.029975,4.63021 -0.146042,0.80036 -0.444645,2.52677 -0.66356,3.83646 -0.218916,1.30969 -0.516383,3.09562 -0.661038,3.96875 -0.144655,0.87312 -0.442491,2.95672 -0.661858,4.63021 -0.219368,1.67349 -0.510849,3.87614 -0.647737,4.89479 -0.136888,1.01864 -0.483879,3.65035 -0.771091,5.84823 l -0.522204,3.99614 -0.0079,7.64552 c -0.0044,4.20504 0.111317,8.6247 0.257067,9.82147 0.145749,1.19678 0.565254,3.22084 0.932233,4.49792 0.366978,1.27708 1.025662,3.09402 1.463743,4.03764 0.43808,0.94361 0.945958,1.89611 1.128618,2.11666 0.18266,0.22055 0.5587,0.93678 0.835645,1.59163 0.276945,0.65484 0.889468,1.78593 1.361162,2.51354 0.471693,0.7276 1.36877,1.9578 1.993502,2.73377 0.624733,0.77598 1.854773,2.26426 2.733424,3.3073 0.87865,1.04303 2.0692749,2.4842 2.6458329,3.2026 0.5765581,0.71839 1.365584,1.65658 1.7533909,2.08485 l 0.7051035,0.77868 0.6839591,-0.17166 c 0.4910133,-0.12324 0.683959,-0.0674 0.683959,0.19785 0,0.20324 0.1785938,0.51774 0.3968751,0.6989 0.2182812,0.18116 0.396875,0.67767 0.396875,1.10336 0,0.48573 0.2463517,1.0023 0.6614583,1.38701 0.3638021,0.33716 0.6620286,0.71843 0.6627256,0.84726 6.969e-4,0.12883 0.712759,0.91885 1.5823601,1.7556 0.86960119,0.83674 1.66819617,1.52135 1.77465555,1.52135 0.10645938,0 0.67431922,0.46966 1.26191075,1.04369 0.5875916,0.57403 1.4495638,1.31817 1.9154939,1.65365 0.4659301,0.33547 2.6685864,2.06114 4.8947919,3.83482 2.2262054,1.77367 4.4643654,3.56884 4.9736874,3.98927 0.509323,0.42043 2.057136,1.4002 3.439584,2.17727 1.382448,0.77707 2.834551,1.63458 3.226896,1.90557 0.392345,0.271 1.999689,1.15948 3.571876,1.9744 1.572186,0.81492 4.584926,2.25006 6.694978,3.18919 2.110053,0.93914 5.32474,2.23852 7.143751,2.88751 1.81901,0.64899 4.616979,1.52586 6.217708,1.94859 1.600729,0.42273 4.696355,1.01351 6.879167,1.31285 2.182813,0.29934 5.218907,0.71639 6.746875,0.92678 1.527969,0.21039 4.206876,0.50929 5.953126,0.66423 1.74625,0.15493 3.532187,0.33054 3.96875,0.39023 0.436562,0.0597 3.294062,0.0545 6.35,-0.0116 3.055938,-0.066 6.627813,-0.23028 7.9375,-0.36498 z M 64.067652,257.86969 c 0.86404,-1.23693 0.157857,-2.39753 0.553377,-2.97961 0.395519,-0.58209 1.442318,-1.9513 2.326218,-3.04271 0.883901,-1.09141 2.526829,-3.175 3.650951,-4.63021 1.124122,-1.45521 3.067877,-4.07458 4.319455,-5.82083 1.251578,-1.74625 2.945977,-4.20529 3.765331,-5.46453 0.819355,-1.25924 1.488784,-2.44987 1.487621,-2.64583 -0.0013,-0.22241 -0.970785,-0.63813 -2.579688,-1.10622 -1.417665,-0.41245 -3.708667,-1.0803 -5.091115,-1.48411 -1.382448,-0.40381 -3.704166,-1.23342 -5.159375,-1.84358 -1.455208,-0.61016 -3.836458,-1.64502 -5.291667,-2.29969 -1.455208,-0.65466 -4.875327,-2.40866 -7.600263,-3.89776 -2.724936,-1.48911 -5.506132,-3.17968 -6.180435,-3.75683 -0.674303,-0.57715 -1.540714,-1.25075 -1.925358,-1.49689 -0.384645,-0.24613 -1.413449,-1.31352 -2.286232,-2.37197 -0.872784,-1.05845 -1.90274,-2.35813 -2.288792,-2.88816 -0.386053,-0.53004 -0.933628,-1.41537 -1.216835,-1.9674 -0.357096,-0.69605 -0.787988,-1.09283 -1.405825,-1.29452 -0.514584,-0.16799 -1.062315,-0.60471 -1.296707,-1.0339 l -0.405804,-0.74305 0.79375,-0.6538 c 0.436563,-0.35959 1.688667,-1.5135 2.782455,-2.56424 1.093787,-1.05074 2.652088,-2.43263 3.46289,-3.07085 0.864321,-0.68036 2.329888,-1.47239 3.542619,-1.91453 1.137639,-0.41476 2.258245,-0.92509 2.490235,-1.13407 0.231991,-0.20899 0.778989,-0.46581 1.215552,-0.57073 0.436562,-0.10491 1.343374,-0.46531 2.015137,-0.80089 0.671764,-0.33557 2.162373,-1.25457 3.312467,-2.04222 1.150093,-0.78764 2.755082,-1.74621 3.566643,-2.13014 0.81156,-0.38393 1.555808,-0.69805 1.653885,-0.69805 0.09808,0 1.872526,-0.76484 3.94322,-1.69963 2.070694,-0.9348 4.419742,-1.8746 5.220107,-2.08845 0.800365,-0.21384 2.883958,-0.87039 4.630208,-1.459 1.746251,-0.58861 4.365626,-1.44636 5.820834,-1.9061 1.455208,-0.45975 3.606832,-1.11527 4.781386,-1.45672 1.174553,-0.34144 3.555803,-0.86922 5.291666,-1.17284 1.735864,-0.30361 4.525334,-0.78167 6.198824,-1.06234 l 3.042713,-0.51032 6.61458,-0.077 c 3.63802,-0.0423 7.35022,0.023 8.24934,0.14524 l 1.63475,0.22222 0.80162,-1.10659 c 0.44089,-0.60863 1.84837,-2.20626 3.12774,-3.55029 1.27937,-1.34403 2.80238,-3.00812 3.38447,-3.69799 0.58208,-0.68987 1.50751,-1.81162 2.05651,-2.49278 0.549,-0.68115 1.39794,-1.83377 1.88654,-2.56138 0.48859,-0.7276 1.14451,-1.55314 1.45759,-1.83453 0.31309,-0.28139 3.22197,-1.41392 2.10273,-2.11299 l 4.12225,2.36002 c -1.52782,-0.72458 -1.2269,1.42214 -2.00255,2.51354 -0.77565,1.09141 -2.12705,2.87654 -3.00313,3.96697 -0.87607,1.09043 -3.17105,3.5889 -5.09995,5.55216 -1.9289,1.96326 -3.47179,3.67549 -3.42863,3.80495 0.0431,0.12947 0.9665,0.45994 2.05188,0.73439 1.08538,0.27445 2.6878,0.72826 3.56092,1.00846 0.87313,0.28021 2.77179,0.82489 4.21924,1.2104 1.44746,0.38552 3.32236,1.04957 4.16646,1.47566 0.8441,0.4261 2.21966,1.01827 3.0568,1.31594 0.83715,0.29766 1.87927,0.73363 2.31584,0.96882 0.43656,0.23518 0.85328,0.50452 0.92604,0.59853 0.0728,0.094 1.26338,0.96422 2.64583,1.93382 1.38245,0.96959 2.98979,2.10692 3.57188,2.52738 0.58208,0.42047 1.35599,0.91475 1.71979,1.09841 0.3638,0.18366 1.43536,0.96484 2.38125,1.73596 0.94588,0.77112 2.54046,2.2263 3.5435,3.23373 1.00304,1.00743 2.19413,2.53927 2.64685,3.40408 0.45273,0.86481 1.41799,2.31938 2.14504,3.23236 0.72705,0.91299 1.81484,2.21673 2.41732,2.89721 0.60248,0.68048 1.27198,1.66209 1.48778,2.18137 l 0.39236,0.94414 -0.36885,0.70396 c -0.20286,0.38718 -0.6902,0.87234 -1.08298,1.07814 l -0.71413,0.37417 0.0751,1.04017 c 0.0448,0.62105 -0.065,1.15556 -0.27251,1.32654 -0.19118,0.1575 -1.38223,0.71399 -2.64676,1.23663 -1.26454,0.52265 -3.64579,1.73809 -5.29167,2.70099 -1.64588,0.9629 -4.53021,2.52159 -6.40962,3.46376 -1.87942,0.94218 -4.26067,2.22065 -5.29167,2.84106 -1.031,0.6204 -4.01768,2.26505 -6.63705,3.65478 -2.61938,1.38973 -5.53641,2.82827 -6.4823,3.19676 -0.94588,0.36849 -2.43416,0.92557 -3.30729,1.23795 -0.87312,0.31239 -2.65906,0.84713 -3.96875,1.18833 -1.30968,0.3412 -3.33375,0.88881 -4.49791,1.21691 l -2.11667,0.59656 -6.48229,0.0102 -6.48229,0.0102 -3.175,-0.47448 c -1.746255,-0.26097 -4.872062,-0.76458 -6.946244,-1.11913 -2.074181,-0.35456 -4.753087,-0.87374 -5.953125,-1.15375 -1.200037,-0.28 -2.375625,-0.58362 -2.612416,-0.67469 l -0.430529,-0.16559 -2.004595,2.86011 c -1.102528,1.57306 -2.635196,3.74165 -3.40593,4.8191 -0.770733,1.07745 -1.841986,2.56573 -2.380561,3.30729 -0.538575,0.74157 -1.726592,2.36033 -2.640038,3.59726 -0.913446,1.23693 -2.56319,3.32052 -3.666098,4.63021 -1.102908,1.30969 -3.321903,4.20941 -5.355377,5.47801 z m 54.182198,-23.58923 c 1.51538,-0.39628 3.06319,-0.87617 3.43958,-1.06644 0.37638,-0.19026 1.16058,-0.42804 1.74267,-0.5284 0.58208,-0.10036 2.36417,-0.67118 3.96019,-1.2685 1.59602,-0.59732 4.75117,-2.0923 7.01146,-3.32218 2.26028,-1.22987 5.35975,-2.92452 6.88772,-3.76588 1.52797,-0.84135 4.98078,-2.6565 7.67292,-4.03365 2.69213,-1.37715 5.88042,-3.07125 7.08508,-3.76467 1.20465,-0.69342 2.78223,-1.79298 3.50572,-2.44346 0.9272,-0.83363 1.31545,-1.38268 1.31545,-1.86025 0,-0.37266 -0.28809,-1.28436 -0.6402,-2.02601 -0.3521,-0.74164 -1.00695,-1.69814 -1.45521,-2.12555 -0.44825,-0.42741 -0.81501,-0.92068 -0.81501,-1.09617 0,-0.17549 -0.15238,-0.37754 -0.33863,-0.44901 -0.18625,-0.0715 -0.93039,-1.05592 -1.65364,-2.18767 -0.72326,-1.13174 -2.50564,-3.26151 -3.96085,-4.73282 -1.67803,-1.69659 -3.46847,-3.19337 -4.89479,-4.09198 -1.23693,-0.77928 -3.0824,-1.99953 -4.10105,-2.71166 -1.01864,-0.71213 -2.98317,-1.86956 -4.36562,-2.57208 -1.38245,-0.70252 -3.22792,-1.65111 -4.10104,-2.10799 -0.87313,-0.45687 -2.00422,-0.90717 -2.51355,-1.00066 -0.50932,-0.0935 -1.07335,-0.28683 -1.2534,-0.42966 -0.18004,-0.14283 -0.52256,-0.18478 -0.76114,-0.0932 -0.23858,0.0915 -0.56751,0.0574 -0.73097,-0.0758 -0.16346,-0.13325 -1.60688,-0.62778 -3.20761,-1.09897 -1.60073,-0.47119 -3.33868,-0.97927 -3.8621,-1.12907 -0.52343,-0.1498 -1.14954,-0.19644 -1.39135,-0.10365 -0.24182,0.0928 -0.58065,0.49948 -0.75296,0.90375 -0.1723,0.40426 -0.85193,1.50893 -1.51027,2.45482 -0.65834,0.94588 -1.89885,2.55323 -2.75667,3.57187 -0.85783,1.01865 -2.15114,2.7239 -2.87403,3.78944 -0.7444,1.09724 -1.2494,2.1066 -1.16458,2.32765 0.0824,0.21467 0.47876,0.51378 0.88087,0.6647 0.4021,0.15092 1.56453,1.26425 2.58317,2.47407 1.01865,1.20982 2.1775,2.83686 2.57523,3.61566 0.39773,0.77879 0.97359,2.16195 1.27969,3.07368 l 0.55655,1.6577 -0.52224,1.54643 c -0.28723,0.85054 -0.95679,2.17817 -1.48791,2.95028 -0.53113,0.77212 -1.88401,2.22134 -3.00642,3.22051 -1.1224,0.99916 -2.81464,2.33157 -3.76052,2.96091 -0.94589,0.62934 -2.13651,1.2906 -2.64584,1.46946 -0.50932,0.17886 -1.8715,0.55672 -3.02706,0.83969 -1.15557,0.28297 -3.29707,0.63722 -4.7589,0.78723 -1.461835,0.15002 -3.254811,0.19459 -3.984395,0.0991 -0.729584,-0.0955 -1.59777,-0.34591 -1.929303,-0.55639 -0.331532,-0.21048 -0.73006,-0.30403 -0.885618,-0.20789 -0.155558,0.0961 -0.807762,0.96429 -1.449343,1.92922 -0.641582,0.96494 -2.063477,3.04996 -3.159767,4.63338 -1.09629,1.58342 -1.949041,3.01159 -1.895002,3.17371 0.05404,0.16212 0.76362,0.44237 1.576845,0.62278 0.813225,0.18042 3.83959,0.74028 6.725256,1.24414 2.885666,0.50387 6.437287,1.04147 7.892497,1.19468 1.45521,0.15321 3.12209,0.3243 3.70417,0.38018 0.58208,0.0559 2.72521,0.0754 4.7625,0.0434 l 3.70417,-0.0582 z m -34.190006,-6.31174 c 0.884444,-1.34606 2.395722,-3.66053 3.358395,-5.14326 0.962673,-1.48273 1.750314,-2.87469 1.750314,-3.09324 0,-0.21856 -0.121327,-0.47235 -0.269615,-0.564 -0.148288,-0.0916 -0.566714,-0.75293 -0.929836,-1.46952 -0.363122,-0.71658 -0.814929,-2.04761 -1.004016,-2.95784 -0.238878,-1.1499 -0.282828,-2.40654 -0.144018,-4.11778 0.109878,-1.35456 0.346711,-3.1405 0.526296,-3.96875 0.190249,-0.87744 0.663038,-1.9476 1.132866,-2.56425 0.443491,-0.58209 0.981494,-1.16648 1.195562,-1.29866 0.214067,-0.13218 0.91487,-0.72485 1.557339,-1.31706 l 1.168126,-1.07674 0.71626,0.0751 c 0.472262,0.0495 1.195325,-0.24726 2.122565,-0.87124 0.773468,-0.52051 2.165814,-1.25023 3.094101,-1.6216 0.928288,-0.37137 2.073507,-0.79052 2.544937,-0.93144 0.47143,-0.14092 1.79862,-0.31183 2.94932,-0.3798 1.1507,-0.068 2.23769,-0.24434 2.41554,-0.39194 0.17786,-0.1476 0.6626,-0.7717 1.07722,-1.38689 0.41462,-0.61518 2.39943,-3.35668 4.41069,-6.09222 2.01125,-2.73555 3.71916,-5.13615 3.79534,-5.33468 l 0.13851,-0.36096 -1.6993,-0.18198 c -0.93461,-0.10009 -4.12828,-0.0551 -7.09703,0.10003 -3.45986,0.18076 -7.155042,0.56643 -10.292523,1.07423 -2.692136,0.43573 -5.752865,0.96868 -6.801621,1.18434 -1.048755,0.21566 -2.122261,0.50741 -2.385567,0.64833 -0.263307,0.14092 -2.024609,0.75003 -3.914005,1.3536 -1.889397,0.60356 -5.436446,1.7529 -7.882333,2.55408 -2.445886,0.80119 -5.720105,2.05576 -7.276042,2.78793 -1.555936,0.73218 -3.436861,1.5602 -4.179832,1.84004 -0.742971,0.27984 -2.75528,1.41059 -4.471798,2.51277 -1.716517,1.10218 -4.918632,2.87338 -7.11581,3.936 -2.197178,1.06263 -4.773752,2.51021 -5.72572,3.21685 -0.951967,0.70663 -2.43601,1.97379 -3.297873,2.8159 l -1.567023,1.5311 0.723232,0.71786 c 0.397778,0.39482 1.048383,1.14318 1.44579,1.66302 0.397407,0.51985 1.485859,1.79977 2.418784,2.84427 0.932924,1.04451 1.846165,1.8991 2.029425,1.8991 0.18326,0 1.320004,0.68461 2.526098,1.52136 1.206094,0.83674 3.269415,2.08292 4.585158,2.76927 1.315743,0.68636 4.237729,2.15755 6.493302,3.26932 2.255573,1.11177 4.696354,2.25226 5.423958,2.53443 0.727605,0.28216 1.680105,0.67318 2.116667,0.86892 0.436563,0.19574 1.865313,0.68236 3.175,1.08137 1.309688,0.39902 3.81,1.18292 5.556251,1.742 1.74625,0.55909 3.360363,1.01956 3.586917,1.02326 0.231154,0.004 1.117603,-1.06727 2.019999,-2.44066 z M -0.31022641,163.03121 c 0.1909961,-0.0764 0.41919923,-0.067 0.50711807,0.0209 0.0879188,0.0879 -0.0683507,0.15045 -0.34726564,0.13896 -0.30822451,-0.0127 -0.37091922,-0.0754 -0.15985243,-0.15985 z M 85.894334,117.75713 c -0.07175,-0.11609 -0.03126,-0.37156 0.08997,-0.56772 0.121232,-0.19616 0.409025,-0.28428 0.63954,-0.19582 0.244932,0.094 0.354226,0.32993 0.262979,0.56772 -0.08588,0.22379 -0.314968,0.40689 -0.509092,0.40689 -0.194124,0 -0.411654,-0.095 -0.483401,-0.21107 z m -47.525783,-3.3608 c 0,-0.0728 0.05953,-0.13229 0.132292,-0.13229 0.07276,0 0.132291,0.0595 0.132291,0.13229 0,0.0728 -0.05953,0.13229 -0.132291,0.13229 -0.07276,0 -0.132292,-0.0595 -0.132292,-0.13229 z"
       id="path1" /></g></svg>
