<?xml version="1.0" encoding="UTF-8" standalone="no"?>
<!-- Created with Inkscape (http://www.inkscape.org/) -->

<svg
   width="61.903824mm"
   height="102.31626mm"
   viewBox="0 0 61.903818 102.31625"
   version="1.1"
   id="svg1"
   xml:space="preserve"
   xmlns="http://www.w3.org/2000/svg"
   xmlns:svg="http://www.w3.org/2000/svg"><defs
     id="defs1" /><g
     id="layer1"
     transform="translate(-58.238698,-280.44832)"><path
       style="fill:#ddaabb;fill-opacity:1"
       d="m 81.203382,382.50209 c -1.018646,-0.19066 -2.328333,-0.54404 -2.910417,-0.78529 -0.582083,-0.24125 -1.292097,-0.57156 -1.577808,-0.73404 -0.285711,-0.16247 -1.119149,-0.61515 -1.852083,-1.00595 -0.732935,-0.3908 -1.689797,-0.90362 -2.126359,-1.1396 -0.436563,-0.23598 -0.972344,-0.49748 -1.190625,-0.58111 -0.218282,-0.0836 -1.289844,-0.80074 -2.38125,-1.59359 -1.091407,-0.79284 -2.520157,-1.76197 -3.175001,-2.15361 -0.654843,-0.39164 -1.709358,-1.36192 -2.343365,-2.15618 -0.634008,-0.79426 -1.610288,-2.29288 -2.169513,-3.33026 -0.559224,-1.03738 -1.367674,-2.96066 -1.796554,-4.27396 -0.42888,-1.3133 -0.928715,-3.27783 -1.110745,-4.36563 l -0.330964,-1.97781 0.463743,-2.51354 c 0.255059,-1.38245 0.550527,-3.10885 0.656597,-3.83646 0.106069,-0.7276 0.394885,-1.97776 0.641814,-2.77812 0.246929,-0.80037 1.010858,-2.57368 1.69762,-3.9407 0.686762,-1.36702 1.940657,-3.45061 2.786433,-4.63021 0.845776,-1.17959 2.512651,-3.04493 3.704167,-4.14519 1.191516,-1.10026 2.702174,-2.35611 3.357018,-2.79079 0.654844,-0.43467 2.391268,-1.23777 3.85872,-1.78468 1.467452,-0.54691 3.697622,-1.14659 4.955934,-1.33264 l 2.287839,-0.33826 0.555965,0.5918 c 0.326474,0.34751 0.519666,0.84822 0.468025,1.213 l -0.08794,0.62121 -2.116667,0.48916 c -1.164166,0.26904 -2.890573,0.77809 -3.836458,1.13122 -0.945886,0.35313 -2.107112,0.83656 -2.580503,1.07429 -0.473391,0.23774 -2.087759,1.53018 -3.587483,2.87211 -1.891252,1.69226 -3.23253,3.1783 -4.377345,4.84977 -0.907815,1.32545 -2.004062,3.16529 -2.436105,4.08854 -0.432042,0.92326 -0.962053,2.56168 -1.177802,3.64094 -0.215749,1.07927 -0.630525,2.79316 -0.921725,3.80866 -0.335443,1.16978 -0.529455,2.63747 -0.529455,4.0053 0,1.5223 0.196592,2.83733 0.666679,4.4595 0.366673,1.26532 1.169572,3.25121 1.78422,4.41311 0.614647,1.16189 1.459985,2.52797 1.878528,3.03574 0.418543,0.50776 1.371816,1.37065 2.118385,1.91753 0.746568,0.54687 3.091468,2.02485 5.210889,3.2844 2.119421,1.25954 4.506812,2.58918 5.305314,2.95474 0.798501,0.36557 2.39818,0.79828 3.554841,0.96159 1.156661,0.16331 2.817396,0.23019 3.690521,0.14862 0.873125,-0.0816 2.712471,-0.52447 4.087436,-0.98421 1.584118,-0.52969 3.038004,-1.2334 3.968717,-1.92096 0.807829,-0.59678 2.538959,-2.15015 3.846956,-3.45193 1.307996,-1.30178 3.034414,-2.91548 3.836494,-3.586 0.80207,-0.67051 2.11316,-1.92922 2.91352,-2.79713 0.80037,-0.86791 1.58036,-1.69902 1.73333,-1.84692 0.15296,-0.1479 0.7314,-0.84045 1.2854,-1.539 l 1.00729,-1.2701 1.22814,0.0795 1.22813,0.0795 0.0812,0.83754 c 0.0517,0.53312 -0.20288,1.39863 -0.70044,2.38125 -0.44834,0.8854 -1.59358,2.36695 -2.68553,3.47415 -1.04712,1.06174 -2.3988,2.23873 -3.00373,2.61553 -0.60493,0.3768 -2.35004,1.94902 -3.87801,3.49382 -1.527963,1.54481 -3.531402,3.30826 -4.45208,3.91879 -0.920678,0.61053 -2.170835,1.28639 -2.778125,1.50191 -0.607291,0.21552 -2.116196,0.70595 -3.353123,1.08984 -1.606694,0.49865 -3.004564,0.72647 -4.894792,0.79775 -1.518345,0.0573 -3.435076,-0.0479 -4.497917,-0.24688 z m 36.285128,-3.52568 c -0.20529,-0.40018 -0.81126,-2.03729 -1.3466,-3.63802 -0.53535,-1.60073 -1.26603,-4.25996 -1.62374,-5.9094 -0.35771,-1.64945 -0.81832,-3.40092 -1.02357,-3.89216 -0.20526,-0.49124 -0.67889,-2.01528 -1.05252,-3.38674 -0.37363,-1.37146 -0.67932,-2.7814 -0.67932,-3.13319 0,-0.3518 -0.41358,-2.35978 -0.91906,-4.46219 -0.50549,-2.10241 -1.16872,-4.3132 -1.47385,-4.91287 l -0.55478,-1.09031 -1.33467,-0.43105 c -0.73406,-0.23707 -1.78266,-0.43104 -2.33021,-0.43104 -0.54756,0 -1.13561,-0.16876 -1.30679,-0.37503 -0.19629,-0.2365 -0.81903,-0.37384 -1.68605,-0.37183 -0.75614,0.002 -2.208238,-0.13511 -3.226884,-0.30414 -1.018645,-0.16904 -3.757083,-0.28194 -6.085417,-0.2509 -2.328333,0.031 -4.449303,0.16634 -4.713267,0.30065 -0.298726,0.15201 -0.598421,0.14696 -0.79375,-0.0134 -0.172599,-0.14168 -0.599528,-0.29877 -0.94873,-0.34909 -0.349203,-0.0503 -0.875062,-0.41437 -1.168577,-0.80898 -0.293514,-0.39461 -0.533662,-1.05643 -0.533662,-1.47072 0,-0.41429 0.367169,-1.57971 0.815931,-2.58982 l 0.815931,-1.83657 0.419507,-3.70416 c 0.230729,-2.03729 0.414224,-4.95687 0.407767,-6.48795 l -0.01174,-2.78379 0.946833,-2.64017 c 0.520759,-1.4521 1.418689,-4.56904 1.9954,-6.92654 0.576711,-2.3575 1.048566,-4.76149 1.048566,-5.3422 0,-0.58071 -0.123906,-1.13241 -0.275346,-1.226 -0.152336,-0.0942 -0.193583,-0.42618 -0.09233,-0.74322 0.10066,-0.31518 0.269679,-1.34695 0.375598,-2.29284 l 0.192579,-1.71979 -0.370935,-0.59531 c -0.204013,-0.32743 -0.517017,-0.60208 -0.695564,-0.61034 -0.178546,-0.008 -0.912516,-0.73809 -1.631044,-1.62183 l -1.306415,-1.60679 -0.611815,-2.11232 c -0.336498,-1.16178 -0.611814,-2.71555 -0.611814,-3.45282 0,-0.73727 0.308281,-2.62978 0.68507,-4.20558 l 0.685069,-2.86508 1.329983,-2.03733 c 0.731491,-1.12053 2.060319,-2.7672 2.952952,-3.65928 1.184639,-1.18389 1.991967,-1.74435 2.989232,-2.07518 0.751446,-0.24928 2.061133,-0.45527 2.910417,-0.45777 l 1.544153,-0.005 1.772882,1.14271 c 1.0016,0.64559 1.88432,1.43047 2.02904,1.80417 0.14089,0.3638 0.31843,1.13771 0.39453,1.71979 0.0761,0.58208 0.0383,1.58561 -0.0839,2.23005 -0.12226,0.64445 -0.12511,2.19226 -0.006,3.43958 l 0.21593,2.26787 -0.40466,1.45521 c -0.22256,0.80036 -1.1547,3.01305 -2.07141,4.91709 -0.92201,1.91503 -2.05256,3.84769 -2.530193,4.32532 -0.474891,0.47489 -1.309802,1.14522 -1.855358,1.48961 l -0.99192,0.62617 -0.161925,1.5308 c -0.08906,0.84194 -0.276751,1.96133 -0.417093,2.48754 -0.140343,0.5262 -0.255902,1.30011 -0.256799,1.71979 -8.96e-4,0.41968 -0.167041,1.08009 -0.369211,1.46758 -0.202169,0.38749 -0.791956,2.47108 -1.310636,4.63021 -0.51868,2.15912 -1.301231,5.01202 -1.739002,6.33976 -0.43777,1.32775 -0.876987,2.92088 -0.976036,3.5403 l -0.18009,1.12622 2.354449,-0.20353 c 1.294946,-0.11195 3.604605,-0.18795 5.132573,-0.16889 1.527969,0.0191 3.730631,-0.10047 4.894791,-0.26562 1.16417,-0.16516 2.57812,-0.4619 3.14212,-0.65944 0.564,-0.19754 1.3755,-0.35916 1.80333,-0.35916 0.42784,0 1.00818,0.12325 1.28966,0.27389 0.28147,0.15064 0.51177,0.50177 0.51177,0.78028 0,0.27852 -0.39333,0.8064 -0.87406,1.17307 -0.48073,0.36667 -1.70112,0.86721 -2.71198,1.11231 -1.25713,0.30481 -3.21748,0.46649 -6.203547,0.51164 -2.401094,0.0363 -5.006954,0.19667 -5.790801,0.35636 -0.783846,0.1597 -1.820248,0.29036 -2.303115,0.29036 h -0.87794 l -0.130777,0.8599 c -0.07193,0.47294 -0.213041,1.69333 -0.313585,2.71198 -0.100544,1.01864 -0.217369,2.80458 -0.259612,3.96875 -0.04224,1.16416 0.05255,2.48894 0.210661,2.94395 0.158107,0.455 0.596278,1.00451 0.973714,1.22114 0.442386,0.2539 1.908514,0.4682 4.12583,0.60304 1.89177,0.11505 4.034896,0.24499 4.7625,0.28875 0.727602,0.0438 2.513542,0.21816 3.968752,0.38754 1.45521,0.16939 3.79051,0.6533 5.18955,1.07537 1.47291,0.44434 2.75378,0.99954 3.04271,1.31888 0.36057,0.39851 0.50246,0.9658 0.51148,2.04496 0.007,0.8214 0.38705,2.98173 0.84483,4.80074 0.45778,1.81901 1.09099,4.55745 1.40713,6.08542 0.31613,1.52797 0.91258,3.84969 1.32544,5.15937 0.41286,1.30969 0.9491,3.39329 1.19165,4.63021 0.24255,1.23693 0.83601,3.23577 1.3188,4.44186 0.48278,1.2061 1.01244,2.8415 1.17701,3.63422 0.16457,0.79272 0.22457,1.56208 0.13334,1.7097 -0.0912,0.14761 -0.63204,0.26839 -1.2018,0.26839 h -1.03592 z M 94.4824,302.8509 c 0.31846,-0.0913 0.943538,-0.58111 1.389063,-1.08853 0.445525,-0.50743 0.810045,-1.01355 0.810045,-1.12472 0,-0.11116 -0.446484,-0.21118 -0.992188,-0.22225 -0.545703,-0.0111 -1.496026,-0.13772 -2.111829,-0.28143 -0.615804,-0.14371 -1.300413,-0.41132 -1.521355,-0.59468 -0.220941,-0.18337 -0.401712,-0.54992 -0.401712,-0.81455 0,-0.26464 0.126407,-0.55928 0.280904,-0.65476 0.154497,-0.0955 0.390835,-0.46275 0.525196,-0.81615 0.134361,-0.35339 0.424939,-0.71186 0.645729,-0.79658 0.220791,-0.0847 0.676989,-0.0849 1.013775,-3.6e-4 0.336785,0.0845 0.775771,0.45907 0.975524,0.83231 l 0.363187,0.67862 0.76439,-0.16789 c 0.420414,-0.0923 1.069633,-0.20139 1.442709,-0.24235 0.373076,-0.0409 0.809995,-0.29733 0.970931,-0.56974 0.160937,-0.2724 0.576662,-1.15012 0.923834,-1.95049 l 0.631227,-1.4552 0.0308,-4.62346 0.0308,-4.62346 -1.549449,-0.74326 c -0.974598,-0.46752 -1.749641,-0.67973 -2.089038,-0.57201 -0.296772,0.0942 -1.073935,0.66374 -1.72703,1.26568 -0.653094,0.60193 -1.713326,1.77779 -2.356071,2.61301 -0.642744,0.83523 -1.456468,2.16946 -1.808275,2.96495 -0.351807,0.7955 -0.822055,2.23288 -1.044996,3.19418 -0.222941,0.96131 -0.400121,2.54411 -0.393734,3.51735 0.0064,0.97323 0.164411,2.19697 0.351163,2.71942 0.186751,0.52245 0.686622,1.40495 1.110823,1.96111 0.424202,0.55615 1.128983,1.22872 1.566181,1.4946 0.437198,0.26588 0.973899,0.43463 1.192667,0.375 0.218769,-0.0596 0.65832,-0.18309 0.976779,-0.27436 z m -0.355424,-9.54475 c -0.08617,-0.22456 -0.08531,-0.47965 0.0019,-0.56687 0.08722,-0.0872 0.340055,-0.008 0.561853,0.1761 0.221798,0.18408 0.403269,0.43917 0.403269,0.56687 0,0.1277 -0.182331,0.23219 -0.405179,0.23219 -0.222848,0 -0.475682,-0.18373 -0.561853,-0.40829 z m -0.406953,-1.37765 c -0.218716,-0.25466 -0.478165,-0.6886 -0.576553,-0.9643 -0.110727,-0.31029 -0.0096,-0.68833 0.265374,-0.99219 0.313396,-0.3463 0.812785,-0.49091 1.695327,-0.49091 h 1.251065 l 0.122175,0.63912 c 0.0672,0.35151 -0.03224,1.00636 -0.220967,1.45521 l -0.343141,0.81609 h -0.897807 c -0.527174,0 -1.061972,-0.19114 -1.295473,-0.46302 z"
       id="path2" /></g></svg>
